<?xml version="1.0" encoding="utf-8" standalone="no"?>
<!DOCTYPE svg PUBLIC "-//W3C//DTD SVG 1.1//EN"
  "http://www.w3.org/Graphics/SVG/1.1/DTD/svg11.dtd">
<!-- Created with matplotlib (https://matplotlib.org/) -->
<svg height="252pt" version="1.1" viewBox="0 0 504 252" width="504pt" xmlns="http://www.w3.org/2000/svg" xmlns:xlink="http://www.w3.org/1999/xlink">
 <metadata>
  <rdf:RDF xmlns:cc="http://creativecommons.org/ns#" xmlns:dc="http://purl.org/dc/elements/1.1/" xmlns:rdf="http://www.w3.org/1999/02/22-rdf-syntax-ns#">
   <cc:Work>
    <dc:type rdf:resource="http://purl.org/dc/dcmitype/StillImage"/>
    <dc:date>2021-02-28T10:23:13.620100</dc:date>
    <dc:format>image/svg+xml</dc:format>
    <dc:creator>
     <cc:Agent>
      <dc:title>Matplotlib v3.3.2, https://matplotlib.org/</dc:title>
     </cc:Agent>
    </dc:creator>
   </cc:Work>
  </rdf:RDF>
 </metadata>
 <defs>
  <style type="text/css">*{stroke-linecap:butt;stroke-linejoin:round;}</style>
 </defs>
 <g id="figure_1">
  <g id="patch_1">
   <path d="M 0 252 
L 504 252 
L 504 0 
L 0 0 
z
" style="fill:none;"/>
  </g>
  <g id="axes_1">
   <g id="patch_2">
    <path d="M 46.55 203.4 
L 246.6 203.4 
L 246.6 30.4 
L 46.55 30.4 
z
" style="fill:none;"/>
   </g>
   <g id="PathCollection_1">
    <defs>
     <path d="M -5 0 
L 5 0 
M 0 5 
L 0 -5 
" id="md4c0541265" style="stroke:#ff0000;stroke-width:1.5;"/>
    </defs>
    <g clip-path="url(#pf7a17328f2)">
     <use style="fill:#ff0000;stroke:#ff0000;stroke-width:1.5;" x="237.506818" xlink:href="#md4c0541265" y="128.134621"/>
     <use style="fill:#ff0000;stroke:#ff0000;stroke-width:1.5;" x="214.773872" xlink:href="#md4c0541265" y="119.296779"/>
     <use style="fill:#ff0000;stroke:#ff0000;stroke-width:1.5;" x="192.04091" xlink:href="#md4c0541265" y="112.658653"/>
     <use style="fill:#ff0000;stroke:#ff0000;stroke-width:1.5;" x="169.307963" xlink:href="#md4c0541265" y="105.725954"/>
     <use style="fill:#ff0000;stroke:#ff0000;stroke-width:1.5;" x="146.575" xlink:href="#md4c0541265" y="93.480581"/>
     <use style="fill:#ff0000;stroke:#ff0000;stroke-width:1.5;" x="123.84202" xlink:href="#md4c0541265" y="80.915158"/>
     <use style="fill:#ff0000;stroke:#ff0000;stroke-width:1.5;" x="101.109142" xlink:href="#md4c0541265" y="65.707094"/>
     <use style="fill:#ff0000;stroke:#ff0000;stroke-width:1.5;" x="78.376182" xlink:href="#md4c0541265" y="55.243856"/>
     <use style="fill:#ff0000;stroke:#ff0000;stroke-width:1.5;" x="55.643182" xlink:href="#md4c0541265" y="38.904008"/>
    </g>
   </g>
   <g id="PathCollection_2">
    <g clip-path="url(#pf7a17328f2)">
     <use style="fill:#ff0000;stroke:#ff0000;stroke-width:1.5;" x="237.506818" xlink:href="#md4c0541265" y="155.160485"/>
     <use style="fill:#ff0000;stroke:#ff0000;stroke-width:1.5;" x="214.773872" xlink:href="#md4c0541265" y="147.252446"/>
     <use style="fill:#ff0000;stroke:#ff0000;stroke-width:1.5;" x="192.04091" xlink:href="#md4c0541265" y="139.055614"/>
     <use style="fill:#ff0000;stroke:#ff0000;stroke-width:1.5;" x="169.307963" xlink:href="#md4c0541265" y="130.108547"/>
     <use style="fill:#ff0000;stroke:#ff0000;stroke-width:1.5;" x="146.575" xlink:href="#md4c0541265" y="124.151737"/>
     <use style="fill:#ff0000;stroke:#ff0000;stroke-width:1.5;" x="123.84202" xlink:href="#md4c0541265" y="115.944159"/>
     <use style="fill:#ff0000;stroke:#ff0000;stroke-width:1.5;" x="101.109142" xlink:href="#md4c0541265" y="108.206285"/>
     <use style="fill:#ff0000;stroke:#ff0000;stroke-width:1.5;" x="78.376182" xlink:href="#md4c0541265" y="101.455876"/>
     <use style="fill:#ff0000;stroke:#ff0000;stroke-width:1.5;" x="55.643182" xlink:href="#md4c0541265" y="93.51112"/>
    </g>
   </g>
   <g id="PathCollection_3">
    <g clip-path="url(#pf7a17328f2)">
     <use style="fill:#ff0000;stroke:#ff0000;stroke-width:1.5;" x="237.506818" xlink:href="#md4c0541265" y="195.536364"/>
     <use style="fill:#ff0000;stroke:#ff0000;stroke-width:1.5;" x="214.773872" xlink:href="#md4c0541265" y="181.911499"/>
     <use style="fill:#ff0000;stroke:#ff0000;stroke-width:1.5;" x="192.04091" xlink:href="#md4c0541265" y="168.375052"/>
     <use style="fill:#ff0000;stroke:#ff0000;stroke-width:1.5;" x="169.307963" xlink:href="#md4c0541265" y="158.920877"/>
     <use style="fill:#ff0000;stroke:#ff0000;stroke-width:1.5;" x="146.575" xlink:href="#md4c0541265" y="149.980181"/>
     <use style="fill:#ff0000;stroke:#ff0000;stroke-width:1.5;" x="123.84202" xlink:href="#md4c0541265" y="141.46022"/>
     <use style="fill:#ff0000;stroke:#ff0000;stroke-width:1.5;" x="101.109142" xlink:href="#md4c0541265" y="135.168927"/>
     <use style="fill:#ff0000;stroke:#ff0000;stroke-width:1.5;" x="78.376182" xlink:href="#md4c0541265" y="130.695495"/>
     <use style="fill:#ff0000;stroke:#ff0000;stroke-width:1.5;" x="55.643182" xlink:href="#md4c0541265" y="124.328345"/>
    </g>
   </g>
   <g id="PathCollection_4">
    <defs>
     <path d="M -4.472136 4.472136 
L 4.472136 -4.472136 
M -4.472136 -4.472136 
L 4.472136 4.472136 
" id="m7972775eee" style="stroke:#008000;stroke-width:1.5;"/>
    </defs>
    <g clip-path="url(#pf7a17328f2)">
     <use style="fill:#008000;stroke:#008000;stroke-width:1.5;" x="237.506818" xlink:href="#m7972775eee" y="128.47538"/>
     <use style="fill:#008000;stroke:#008000;stroke-width:1.5;" x="214.773864" xlink:href="#m7972775eee" y="120.772333"/>
     <use style="fill:#008000;stroke:#008000;stroke-width:1.5;" x="192.040909" xlink:href="#m7972775eee" y="112.550867"/>
     <use style="fill:#008000;stroke:#008000;stroke-width:1.5;" x="169.307955" xlink:href="#m7972775eee" y="104.838255"/>
     <use style="fill:#008000;stroke:#008000;stroke-width:1.5;" x="146.575" xlink:href="#m7972775eee" y="93.629296"/>
     <use style="fill:#008000;stroke:#008000;stroke-width:1.5;" x="123.842045" xlink:href="#m7972775eee" y="79.770501"/>
     <use style="fill:#008000;stroke:#008000;stroke-width:1.5;" x="101.109091" xlink:href="#m7972775eee" y="66.966419"/>
     <use style="fill:#008000;stroke:#008000;stroke-width:1.5;" x="78.376136" xlink:href="#m7972775eee" y="55.141699"/>
     <use style="fill:#008000;stroke:#008000;stroke-width:1.5;" x="55.643182" xlink:href="#m7972775eee" y="38.901165"/>
    </g>
   </g>
   <g id="PathCollection_5">
    <g clip-path="url(#pf7a17328f2)">
     <use style="fill:#008000;stroke:#008000;stroke-width:1.5;" x="237.506818" xlink:href="#m7972775eee" y="155.82696"/>
     <use style="fill:#008000;stroke:#008000;stroke-width:1.5;" x="214.773864" xlink:href="#m7972775eee" y="146.503946"/>
     <use style="fill:#008000;stroke:#008000;stroke-width:1.5;" x="192.040909" xlink:href="#m7972775eee" y="140.795161"/>
     <use style="fill:#008000;stroke:#008000;stroke-width:1.5;" x="169.307955" xlink:href="#m7972775eee" y="129.972585"/>
     <use style="fill:#008000;stroke:#008000;stroke-width:1.5;" x="146.575" xlink:href="#m7972775eee" y="123.083068"/>
     <use style="fill:#008000;stroke:#008000;stroke-width:1.5;" x="123.842045" xlink:href="#m7972775eee" y="115.660722"/>
     <use style="fill:#008000;stroke:#008000;stroke-width:1.5;" x="101.109091" xlink:href="#m7972775eee" y="108.799364"/>
     <use style="fill:#008000;stroke:#008000;stroke-width:1.5;" x="78.376136" xlink:href="#m7972775eee" y="101.617191"/>
     <use style="fill:#008000;stroke:#008000;stroke-width:1.5;" x="55.643182" xlink:href="#m7972775eee" y="93.121042"/>
    </g>
   </g>
   <g id="PathCollection_6">
    <g clip-path="url(#pf7a17328f2)">
     <use style="fill:#008000;stroke:#008000;stroke-width:1.5;" x="237.506818" xlink:href="#m7972775eee" y="195.02034"/>
     <use style="fill:#008000;stroke:#008000;stroke-width:1.5;" x="214.773864" xlink:href="#m7972775eee" y="182.692838"/>
     <use style="fill:#008000;stroke:#008000;stroke-width:1.5;" x="192.040909" xlink:href="#m7972775eee" y="169.817592"/>
     <use style="fill:#008000;stroke:#008000;stroke-width:1.5;" x="169.307955" xlink:href="#m7972775eee" y="159.380059"/>
     <use style="fill:#008000;stroke:#008000;stroke-width:1.5;" x="146.575" xlink:href="#m7972775eee" y="150.622658"/>
     <use style="fill:#008000;stroke:#008000;stroke-width:1.5;" x="123.842045" xlink:href="#m7972775eee" y="142.02191"/>
     <use style="fill:#008000;stroke:#008000;stroke-width:1.5;" x="101.109091" xlink:href="#m7972775eee" y="136.605456"/>
     <use style="fill:#008000;stroke:#008000;stroke-width:1.5;" x="78.376136" xlink:href="#m7972775eee" y="130.56054"/>
     <use style="fill:#008000;stroke:#008000;stroke-width:1.5;" x="55.643182" xlink:href="#m7972775eee" y="123.684821"/>
    </g>
   </g>
   <g id="matplotlib.axis_1">
    <g id="xtick_1">
     <g id="line2d_1">
      <defs>
       <path d="M 0 0 
L 0 3.5 
" id="me1e47667a4" style="stroke:#000000;stroke-width:0.8;"/>
      </defs>
      <g>
       <use style="stroke:#000000;stroke-width:0.8;" x="146.575" xlink:href="#me1e47667a4" y="203.4"/>
      </g>
     </g>
     <g id="text_1">
      <!-- $\mathdefault{10^{0}}$ -->
      <g transform="translate(137.775 217.998438)scale(0.1 -0.1)">
       <defs>
        <path d="M 12.40625 8.296875 
L 28.515625 8.296875 
L 28.515625 63.921875 
L 10.984375 60.40625 
L 10.984375 69.390625 
L 28.421875 72.90625 
L 38.28125 72.90625 
L 38.28125 8.296875 
L 54.390625 8.296875 
L 54.390625 0 
L 12.40625 0 
z
" id="DejaVuSans-49"/>
        <path d="M 31.78125 66.40625 
Q 24.171875 66.40625 20.328125 58.90625 
Q 16.5 51.421875 16.5 36.375 
Q 16.5 21.390625 20.328125 13.890625 
Q 24.171875 6.390625 31.78125 6.390625 
Q 39.453125 6.390625 43.28125 13.890625 
Q 47.125 21.390625 47.125 36.375 
Q 47.125 51.421875 43.28125 58.90625 
Q 39.453125 66.40625 31.78125 66.40625 
z
M 31.78125 74.21875 
Q 44.046875 74.21875 50.515625 64.515625 
Q 56.984375 54.828125 56.984375 36.375 
Q 56.984375 17.96875 50.515625 8.265625 
Q 44.046875 -1.421875 31.78125 -1.421875 
Q 19.53125 -1.421875 13.0625 8.265625 
Q 6.59375 17.96875 6.59375 36.375 
Q 6.59375 54.828125 13.0625 64.515625 
Q 19.53125 74.21875 31.78125 74.21875 
z
" id="DejaVuSans-48"/>
       </defs>
       <use transform="translate(0 0.765625)" xlink:href="#DejaVuSans-49"/>
       <use transform="translate(63.623047 0.765625)" xlink:href="#DejaVuSans-48"/>
       <use transform="translate(128.203125 39.046875)scale(0.7)" xlink:href="#DejaVuSans-48"/>
      </g>
     </g>
    </g>
    <g id="xtick_2">
     <g id="line2d_2">
      <defs>
       <path d="M 0 0 
L 0 2 
" id="mc4be655f99" style="stroke:#000000;stroke-width:0.6;"/>
      </defs>
      <g>
       <use style="stroke:#000000;stroke-width:0.6;" x="55.643182" xlink:href="#mc4be655f99" y="203.4"/>
      </g>
     </g>
    </g>
    <g id="xtick_3">
     <g id="line2d_3">
      <g>
       <use style="stroke:#000000;stroke-width:0.6;" x="78.551602" xlink:href="#mc4be655f99" y="203.4"/>
      </g>
     </g>
    </g>
    <g id="xtick_4">
     <g id="line2d_4">
      <g>
       <use style="stroke:#000000;stroke-width:0.6;" x="94.805384" xlink:href="#mc4be655f99" y="203.4"/>
      </g>
     </g>
    </g>
    <g id="xtick_5">
     <g id="line2d_5">
      <g>
       <use style="stroke:#000000;stroke-width:0.6;" x="107.412798" xlink:href="#mc4be655f99" y="203.4"/>
      </g>
     </g>
    </g>
    <g id="xtick_6">
     <g id="line2d_6">
      <g>
       <use style="stroke:#000000;stroke-width:0.6;" x="117.713804" xlink:href="#mc4be655f99" y="203.4"/>
      </g>
     </g>
    </g>
    <g id="xtick_7">
     <g id="line2d_7">
      <g>
       <use style="stroke:#000000;stroke-width:0.6;" x="126.423181" xlink:href="#mc4be655f99" y="203.4"/>
      </g>
     </g>
    </g>
    <g id="xtick_8">
     <g id="line2d_8">
      <g>
       <use style="stroke:#000000;stroke-width:0.6;" x="133.967587" xlink:href="#mc4be655f99" y="203.4"/>
      </g>
     </g>
    </g>
    <g id="xtick_9">
     <g id="line2d_9">
      <g>
       <use style="stroke:#000000;stroke-width:0.6;" x="140.622224" xlink:href="#mc4be655f99" y="203.4"/>
      </g>
     </g>
    </g>
    <g id="xtick_10">
     <g id="line2d_10">
      <g>
       <use style="stroke:#000000;stroke-width:0.6;" x="185.737202" xlink:href="#mc4be655f99" y="203.4"/>
      </g>
     </g>
    </g>
    <g id="xtick_11">
     <g id="line2d_11">
      <g>
       <use style="stroke:#000000;stroke-width:0.6;" x="208.645622" xlink:href="#mc4be655f99" y="203.4"/>
      </g>
     </g>
    </g>
    <g id="xtick_12">
     <g id="line2d_12">
      <g>
       <use style="stroke:#000000;stroke-width:0.6;" x="224.899405" xlink:href="#mc4be655f99" y="203.4"/>
      </g>
     </g>
    </g>
    <g id="xtick_13">
     <g id="line2d_13">
      <g>
       <use style="stroke:#000000;stroke-width:0.6;" x="237.506818" xlink:href="#mc4be655f99" y="203.4"/>
      </g>
     </g>
    </g>
    <g id="text_2">
     <!-- Time-scale ratio, $r$ -->
     <g transform="translate(101.125 231.676563)scale(0.1 -0.1)">
      <defs>
       <path d="M -0.296875 72.90625 
L 61.375 72.90625 
L 61.375 64.59375 
L 35.5 64.59375 
L 35.5 0 
L 25.59375 0 
L 25.59375 64.59375 
L -0.296875 64.59375 
z
" id="DejaVuSans-84"/>
       <path d="M 9.421875 54.6875 
L 18.40625 54.6875 
L 18.40625 0 
L 9.421875 0 
z
M 9.421875 75.984375 
L 18.40625 75.984375 
L 18.40625 64.59375 
L 9.421875 64.59375 
z
" id="DejaVuSans-105"/>
       <path d="M 52 44.1875 
Q 55.375 50.25 60.0625 53.125 
Q 64.75 56 71.09375 56 
Q 79.640625 56 84.28125 50.015625 
Q 88.921875 44.046875 88.921875 33.015625 
L 88.921875 0 
L 79.890625 0 
L 79.890625 32.71875 
Q 79.890625 40.578125 77.09375 44.375 
Q 74.3125 48.1875 68.609375 48.1875 
Q 61.625 48.1875 57.5625 43.546875 
Q 53.515625 38.921875 53.515625 30.90625 
L 53.515625 0 
L 44.484375 0 
L 44.484375 32.71875 
Q 44.484375 40.625 41.703125 44.40625 
Q 38.921875 48.1875 33.109375 48.1875 
Q 26.21875 48.1875 22.15625 43.53125 
Q 18.109375 38.875 18.109375 30.90625 
L 18.109375 0 
L 9.078125 0 
L 9.078125 54.6875 
L 18.109375 54.6875 
L 18.109375 46.1875 
Q 21.1875 51.21875 25.484375 53.609375 
Q 29.78125 56 35.6875 56 
Q 41.65625 56 45.828125 52.96875 
Q 50 49.953125 52 44.1875 
z
" id="DejaVuSans-109"/>
       <path d="M 56.203125 29.59375 
L 56.203125 25.203125 
L 14.890625 25.203125 
Q 15.484375 15.921875 20.484375 11.0625 
Q 25.484375 6.203125 34.421875 6.203125 
Q 39.59375 6.203125 44.453125 7.46875 
Q 49.3125 8.734375 54.109375 11.28125 
L 54.109375 2.78125 
Q 49.265625 0.734375 44.1875 -0.34375 
Q 39.109375 -1.421875 33.890625 -1.421875 
Q 20.796875 -1.421875 13.15625 6.1875 
Q 5.515625 13.8125 5.515625 26.8125 
Q 5.515625 40.234375 12.765625 48.109375 
Q 20.015625 56 32.328125 56 
Q 43.359375 56 49.78125 48.890625 
Q 56.203125 41.796875 56.203125 29.59375 
z
M 47.21875 32.234375 
Q 47.125 39.59375 43.09375 43.984375 
Q 39.0625 48.390625 32.421875 48.390625 
Q 24.90625 48.390625 20.390625 44.140625 
Q 15.875 39.890625 15.1875 32.171875 
z
" id="DejaVuSans-101"/>
       <path d="M 4.890625 31.390625 
L 31.203125 31.390625 
L 31.203125 23.390625 
L 4.890625 23.390625 
z
" id="DejaVuSans-45"/>
       <path d="M 44.28125 53.078125 
L 44.28125 44.578125 
Q 40.484375 46.53125 36.375 47.5 
Q 32.28125 48.484375 27.875 48.484375 
Q 21.1875 48.484375 17.84375 46.4375 
Q 14.5 44.390625 14.5 40.28125 
Q 14.5 37.15625 16.890625 35.375 
Q 19.28125 33.59375 26.515625 31.984375 
L 29.59375 31.296875 
Q 39.15625 29.25 43.1875 25.515625 
Q 47.21875 21.78125 47.21875 15.09375 
Q 47.21875 7.46875 41.1875 3.015625 
Q 35.15625 -1.421875 24.609375 -1.421875 
Q 20.21875 -1.421875 15.453125 -0.5625 
Q 10.6875 0.296875 5.421875 2 
L 5.421875 11.28125 
Q 10.40625 8.6875 15.234375 7.390625 
Q 20.0625 6.109375 24.8125 6.109375 
Q 31.15625 6.109375 34.5625 8.28125 
Q 37.984375 10.453125 37.984375 14.40625 
Q 37.984375 18.0625 35.515625 20.015625 
Q 33.0625 21.96875 24.703125 23.78125 
L 21.578125 24.515625 
Q 13.234375 26.265625 9.515625 29.90625 
Q 5.8125 33.546875 5.8125 39.890625 
Q 5.8125 47.609375 11.28125 51.796875 
Q 16.75 56 26.8125 56 
Q 31.78125 56 36.171875 55.265625 
Q 40.578125 54.546875 44.28125 53.078125 
z
" id="DejaVuSans-115"/>
       <path d="M 48.78125 52.59375 
L 48.78125 44.1875 
Q 44.96875 46.296875 41.140625 47.34375 
Q 37.3125 48.390625 33.40625 48.390625 
Q 24.65625 48.390625 19.8125 42.84375 
Q 14.984375 37.3125 14.984375 27.296875 
Q 14.984375 17.28125 19.8125 11.734375 
Q 24.65625 6.203125 33.40625 6.203125 
Q 37.3125 6.203125 41.140625 7.25 
Q 44.96875 8.296875 48.78125 10.40625 
L 48.78125 2.09375 
Q 45.015625 0.34375 40.984375 -0.53125 
Q 36.96875 -1.421875 32.421875 -1.421875 
Q 20.0625 -1.421875 12.78125 6.34375 
Q 5.515625 14.109375 5.515625 27.296875 
Q 5.515625 40.671875 12.859375 48.328125 
Q 20.21875 56 33.015625 56 
Q 37.15625 56 41.109375 55.140625 
Q 45.0625 54.296875 48.78125 52.59375 
z
" id="DejaVuSans-99"/>
       <path d="M 34.28125 27.484375 
Q 23.390625 27.484375 19.1875 25 
Q 14.984375 22.515625 14.984375 16.5 
Q 14.984375 11.71875 18.140625 8.90625 
Q 21.296875 6.109375 26.703125 6.109375 
Q 34.1875 6.109375 38.703125 11.40625 
Q 43.21875 16.703125 43.21875 25.484375 
L 43.21875 27.484375 
z
M 52.203125 31.203125 
L 52.203125 0 
L 43.21875 0 
L 43.21875 8.296875 
Q 40.140625 3.328125 35.546875 0.953125 
Q 30.953125 -1.421875 24.3125 -1.421875 
Q 15.921875 -1.421875 10.953125 3.296875 
Q 6 8.015625 6 15.921875 
Q 6 25.140625 12.171875 29.828125 
Q 18.359375 34.515625 30.609375 34.515625 
L 43.21875 34.515625 
L 43.21875 35.40625 
Q 43.21875 41.609375 39.140625 45 
Q 35.0625 48.390625 27.6875 48.390625 
Q 23 48.390625 18.546875 47.265625 
Q 14.109375 46.140625 10.015625 43.890625 
L 10.015625 52.203125 
Q 14.9375 54.109375 19.578125 55.046875 
Q 24.21875 56 28.609375 56 
Q 40.484375 56 46.34375 49.84375 
Q 52.203125 43.703125 52.203125 31.203125 
z
" id="DejaVuSans-97"/>
       <path d="M 9.421875 75.984375 
L 18.40625 75.984375 
L 18.40625 0 
L 9.421875 0 
z
" id="DejaVuSans-108"/>
       <path id="DejaVuSans-32"/>
       <path d="M 41.109375 46.296875 
Q 39.59375 47.171875 37.8125 47.578125 
Q 36.03125 48 33.890625 48 
Q 26.265625 48 22.1875 43.046875 
Q 18.109375 38.09375 18.109375 28.8125 
L 18.109375 0 
L 9.078125 0 
L 9.078125 54.6875 
L 18.109375 54.6875 
L 18.109375 46.1875 
Q 20.953125 51.171875 25.484375 53.578125 
Q 30.03125 56 36.53125 56 
Q 37.453125 56 38.578125 55.875 
Q 39.703125 55.765625 41.0625 55.515625 
z
" id="DejaVuSans-114"/>
       <path d="M 18.3125 70.21875 
L 18.3125 54.6875 
L 36.8125 54.6875 
L 36.8125 47.703125 
L 18.3125 47.703125 
L 18.3125 18.015625 
Q 18.3125 11.328125 20.140625 9.421875 
Q 21.96875 7.515625 27.59375 7.515625 
L 36.8125 7.515625 
L 36.8125 0 
L 27.59375 0 
Q 17.1875 0 13.234375 3.875 
Q 9.28125 7.765625 9.28125 18.015625 
L 9.28125 47.703125 
L 2.6875 47.703125 
L 2.6875 54.6875 
L 9.28125 54.6875 
L 9.28125 70.21875 
z
" id="DejaVuSans-116"/>
       <path d="M 30.609375 48.390625 
Q 23.390625 48.390625 19.1875 42.75 
Q 14.984375 37.109375 14.984375 27.296875 
Q 14.984375 17.484375 19.15625 11.84375 
Q 23.34375 6.203125 30.609375 6.203125 
Q 37.796875 6.203125 41.984375 11.859375 
Q 46.1875 17.53125 46.1875 27.296875 
Q 46.1875 37.015625 41.984375 42.703125 
Q 37.796875 48.390625 30.609375 48.390625 
z
M 30.609375 56 
Q 42.328125 56 49.015625 48.375 
Q 55.71875 40.765625 55.71875 27.296875 
Q 55.71875 13.875 49.015625 6.21875 
Q 42.328125 -1.421875 30.609375 -1.421875 
Q 18.84375 -1.421875 12.171875 6.21875 
Q 5.515625 13.875 5.515625 27.296875 
Q 5.515625 40.765625 12.171875 48.375 
Q 18.84375 56 30.609375 56 
z
" id="DejaVuSans-111"/>
       <path d="M 11.71875 12.40625 
L 22.015625 12.40625 
L 22.015625 4 
L 14.015625 -11.625 
L 7.71875 -11.625 
L 11.71875 4 
z
" id="DejaVuSans-44"/>
       <path d="M 44.578125 46.390625 
Q 43.21875 47.125 41.453125 47.515625 
Q 39.703125 47.90625 37.703125 47.90625 
Q 30.515625 47.90625 25.140625 42.453125 
Q 19.78125 37.015625 18.015625 27.875 
L 12.5 0 
L 3.515625 0 
L 14.203125 54.6875 
L 23.1875 54.6875 
L 21.484375 46.1875 
Q 25.046875 50.921875 30 53.453125 
Q 34.96875 56 40.578125 56 
Q 42.046875 56 43.453125 55.828125 
Q 44.875 55.671875 46.296875 55.28125 
z
" id="DejaVuSans-Oblique-114"/>
      </defs>
      <use transform="translate(0 0.015625)" xlink:href="#DejaVuSans-84"/>
      <use transform="translate(61.083984 0.015625)" xlink:href="#DejaVuSans-105"/>
      <use transform="translate(88.867188 0.015625)" xlink:href="#DejaVuSans-109"/>
      <use transform="translate(186.279297 0.015625)" xlink:href="#DejaVuSans-101"/>
      <use transform="translate(247.802734 0.015625)" xlink:href="#DejaVuSans-45"/>
      <use transform="translate(283.886719 0.015625)" xlink:href="#DejaVuSans-115"/>
      <use transform="translate(335.986328 0.015625)" xlink:href="#DejaVuSans-99"/>
      <use transform="translate(390.966797 0.015625)" xlink:href="#DejaVuSans-97"/>
      <use transform="translate(452.246094 0.015625)" xlink:href="#DejaVuSans-108"/>
      <use transform="translate(480.029297 0.015625)" xlink:href="#DejaVuSans-101"/>
      <use transform="translate(541.552734 0.015625)" xlink:href="#DejaVuSans-32"/>
      <use transform="translate(573.339844 0.015625)" xlink:href="#DejaVuSans-114"/>
      <use transform="translate(614.453125 0.015625)" xlink:href="#DejaVuSans-97"/>
      <use transform="translate(675.732422 0.015625)" xlink:href="#DejaVuSans-116"/>
      <use transform="translate(714.941406 0.015625)" xlink:href="#DejaVuSans-105"/>
      <use transform="translate(742.724609 0.015625)" xlink:href="#DejaVuSans-111"/>
      <use transform="translate(803.90625 0.015625)" xlink:href="#DejaVuSans-44"/>
      <use transform="translate(835.693359 0.015625)" xlink:href="#DejaVuSans-32"/>
      <use transform="translate(867.480469 0.015625)" xlink:href="#DejaVuSans-Oblique-114"/>
     </g>
    </g>
   </g>
   <g id="matplotlib.axis_2">
    <g id="ytick_1">
     <g id="line2d_14">
      <defs>
       <path d="M 0 0 
L -3.5 0 
" id="m3368187352" style="stroke:#000000;stroke-width:0.8;"/>
      </defs>
      <g>
       <use style="stroke:#000000;stroke-width:0.8;" x="46.55" xlink:href="#m3368187352" y="177.821039"/>
      </g>
     </g>
     <g id="text_3">
      <!-- −2 -->
      <g transform="translate(24.807813 181.620258)scale(0.1 -0.1)">
       <defs>
        <path d="M 10.59375 35.5 
L 73.1875 35.5 
L 73.1875 27.203125 
L 10.59375 27.203125 
z
" id="DejaVuSans-8722"/>
        <path d="M 19.1875 8.296875 
L 53.609375 8.296875 
L 53.609375 0 
L 7.328125 0 
L 7.328125 8.296875 
Q 12.9375 14.109375 22.625 23.890625 
Q 32.328125 33.6875 34.8125 36.53125 
Q 39.546875 41.84375 41.421875 45.53125 
Q 43.3125 49.21875 43.3125 52.78125 
Q 43.3125 58.59375 39.234375 62.25 
Q 35.15625 65.921875 28.609375 65.921875 
Q 23.96875 65.921875 18.8125 64.3125 
Q 13.671875 62.703125 7.8125 59.421875 
L 7.8125 69.390625 
Q 13.765625 71.78125 18.9375 73 
Q 24.125 74.21875 28.421875 74.21875 
Q 39.75 74.21875 46.484375 68.546875 
Q 53.21875 62.890625 53.21875 53.421875 
Q 53.21875 48.921875 51.53125 44.890625 
Q 49.859375 40.875 45.40625 35.40625 
Q 44.1875 33.984375 37.640625 27.21875 
Q 31.109375 20.453125 19.1875 8.296875 
z
" id="DejaVuSans-50"/>
       </defs>
       <use xlink:href="#DejaVuSans-8722"/>
       <use x="83.789062" xlink:href="#DejaVuSans-50"/>
      </g>
     </g>
    </g>
    <g id="ytick_2">
     <g id="line2d_15">
      <g>
       <use style="stroke:#000000;stroke-width:0.8;" x="46.55" xlink:href="#m3368187352" y="141.801286"/>
      </g>
     </g>
     <g id="text_4">
      <!-- 0 -->
      <g transform="translate(33.1875 145.600505)scale(0.1 -0.1)">
       <use xlink:href="#DejaVuSans-48"/>
      </g>
     </g>
    </g>
    <g id="ytick_3">
     <g id="line2d_16">
      <g>
       <use style="stroke:#000000;stroke-width:0.8;" x="46.55" xlink:href="#m3368187352" y="105.781532"/>
      </g>
     </g>
     <g id="text_5">
      <!-- 2 -->
      <g transform="translate(33.1875 109.580751)scale(0.1 -0.1)">
       <use xlink:href="#DejaVuSans-50"/>
      </g>
     </g>
    </g>
    <g id="ytick_4">
     <g id="line2d_17">
      <g>
       <use style="stroke:#000000;stroke-width:0.8;" x="46.55" xlink:href="#m3368187352" y="69.761779"/>
      </g>
     </g>
     <g id="text_6">
      <!-- 4 -->
      <g transform="translate(33.1875 73.560997)scale(0.1 -0.1)">
       <defs>
        <path d="M 37.796875 64.3125 
L 12.890625 25.390625 
L 37.796875 25.390625 
z
M 35.203125 72.90625 
L 47.609375 72.90625 
L 47.609375 25.390625 
L 58.015625 25.390625 
L 58.015625 17.1875 
L 47.609375 17.1875 
L 47.609375 0 
L 37.796875 0 
L 37.796875 17.1875 
L 4.890625 17.1875 
L 4.890625 26.703125 
z
" id="DejaVuSans-52"/>
       </defs>
       <use xlink:href="#DejaVuSans-52"/>
      </g>
     </g>
    </g>
    <g id="ytick_5">
     <g id="line2d_18">
      <g>
       <use style="stroke:#000000;stroke-width:0.8;" x="46.55" xlink:href="#m3368187352" y="33.742025"/>
      </g>
     </g>
     <g id="text_7">
      <!-- 6 -->
      <g transform="translate(33.1875 37.541244)scale(0.1 -0.1)">
       <defs>
        <path d="M 33.015625 40.375 
Q 26.375 40.375 22.484375 35.828125 
Q 18.609375 31.296875 18.609375 23.390625 
Q 18.609375 15.53125 22.484375 10.953125 
Q 26.375 6.390625 33.015625 6.390625 
Q 39.65625 6.390625 43.53125 10.953125 
Q 47.40625 15.53125 47.40625 23.390625 
Q 47.40625 31.296875 43.53125 35.828125 
Q 39.65625 40.375 33.015625 40.375 
z
M 52.59375 71.296875 
L 52.59375 62.3125 
Q 48.875 64.0625 45.09375 64.984375 
Q 41.3125 65.921875 37.59375 65.921875 
Q 27.828125 65.921875 22.671875 59.328125 
Q 17.53125 52.734375 16.796875 39.40625 
Q 19.671875 43.65625 24.015625 45.921875 
Q 28.375 48.1875 33.59375 48.1875 
Q 44.578125 48.1875 50.953125 41.515625 
Q 57.328125 34.859375 57.328125 23.390625 
Q 57.328125 12.15625 50.6875 5.359375 
Q 44.046875 -1.421875 33.015625 -1.421875 
Q 20.359375 -1.421875 13.671875 8.265625 
Q 6.984375 17.96875 6.984375 36.375 
Q 6.984375 53.65625 15.1875 63.9375 
Q 23.390625 74.21875 37.203125 74.21875 
Q 40.921875 74.21875 44.703125 73.484375 
Q 48.484375 72.75 52.59375 71.296875 
z
" id="DejaVuSans-54"/>
       </defs>
       <use xlink:href="#DejaVuSans-54"/>
      </g>
     </g>
    </g>
    <g id="text_8">
     <!-- Invasion prob. log-ratio -->
     <g transform="translate(18.728125 174.861719)rotate(-90)scale(0.1 -0.1)">
      <defs>
       <path d="M 9.8125 72.90625 
L 19.671875 72.90625 
L 19.671875 0 
L 9.8125 0 
z
" id="DejaVuSans-73"/>
       <path d="M 54.890625 33.015625 
L 54.890625 0 
L 45.90625 0 
L 45.90625 32.71875 
Q 45.90625 40.484375 42.875 44.328125 
Q 39.84375 48.1875 33.796875 48.1875 
Q 26.515625 48.1875 22.3125 43.546875 
Q 18.109375 38.921875 18.109375 30.90625 
L 18.109375 0 
L 9.078125 0 
L 9.078125 54.6875 
L 18.109375 54.6875 
L 18.109375 46.1875 
Q 21.34375 51.125 25.703125 53.5625 
Q 30.078125 56 35.796875 56 
Q 45.21875 56 50.046875 50.171875 
Q 54.890625 44.34375 54.890625 33.015625 
z
" id="DejaVuSans-110"/>
       <path d="M 2.984375 54.6875 
L 12.5 54.6875 
L 29.59375 8.796875 
L 46.6875 54.6875 
L 56.203125 54.6875 
L 35.6875 0 
L 23.484375 0 
z
" id="DejaVuSans-118"/>
       <path d="M 18.109375 8.203125 
L 18.109375 -20.796875 
L 9.078125 -20.796875 
L 9.078125 54.6875 
L 18.109375 54.6875 
L 18.109375 46.390625 
Q 20.953125 51.265625 25.265625 53.625 
Q 29.59375 56 35.59375 56 
Q 45.5625 56 51.78125 48.09375 
Q 58.015625 40.1875 58.015625 27.296875 
Q 58.015625 14.40625 51.78125 6.484375 
Q 45.5625 -1.421875 35.59375 -1.421875 
Q 29.59375 -1.421875 25.265625 0.953125 
Q 20.953125 3.328125 18.109375 8.203125 
z
M 48.6875 27.296875 
Q 48.6875 37.203125 44.609375 42.84375 
Q 40.53125 48.484375 33.40625 48.484375 
Q 26.265625 48.484375 22.1875 42.84375 
Q 18.109375 37.203125 18.109375 27.296875 
Q 18.109375 17.390625 22.1875 11.75 
Q 26.265625 6.109375 33.40625 6.109375 
Q 40.53125 6.109375 44.609375 11.75 
Q 48.6875 17.390625 48.6875 27.296875 
z
" id="DejaVuSans-112"/>
       <path d="M 48.6875 27.296875 
Q 48.6875 37.203125 44.609375 42.84375 
Q 40.53125 48.484375 33.40625 48.484375 
Q 26.265625 48.484375 22.1875 42.84375 
Q 18.109375 37.203125 18.109375 27.296875 
Q 18.109375 17.390625 22.1875 11.75 
Q 26.265625 6.109375 33.40625 6.109375 
Q 40.53125 6.109375 44.609375 11.75 
Q 48.6875 17.390625 48.6875 27.296875 
z
M 18.109375 46.390625 
Q 20.953125 51.265625 25.265625 53.625 
Q 29.59375 56 35.59375 56 
Q 45.5625 56 51.78125 48.09375 
Q 58.015625 40.1875 58.015625 27.296875 
Q 58.015625 14.40625 51.78125 6.484375 
Q 45.5625 -1.421875 35.59375 -1.421875 
Q 29.59375 -1.421875 25.265625 0.953125 
Q 20.953125 3.328125 18.109375 8.203125 
L 18.109375 0 
L 9.078125 0 
L 9.078125 75.984375 
L 18.109375 75.984375 
z
" id="DejaVuSans-98"/>
       <path d="M 10.6875 12.40625 
L 21 12.40625 
L 21 0 
L 10.6875 0 
z
" id="DejaVuSans-46"/>
       <path d="M 45.40625 27.984375 
Q 45.40625 37.75 41.375 43.109375 
Q 37.359375 48.484375 30.078125 48.484375 
Q 22.859375 48.484375 18.828125 43.109375 
Q 14.796875 37.75 14.796875 27.984375 
Q 14.796875 18.265625 18.828125 12.890625 
Q 22.859375 7.515625 30.078125 7.515625 
Q 37.359375 7.515625 41.375 12.890625 
Q 45.40625 18.265625 45.40625 27.984375 
z
M 54.390625 6.78125 
Q 54.390625 -7.171875 48.1875 -13.984375 
Q 42 -20.796875 29.203125 -20.796875 
Q 24.46875 -20.796875 20.265625 -20.09375 
Q 16.0625 -19.390625 12.109375 -17.921875 
L 12.109375 -9.1875 
Q 16.0625 -11.328125 19.921875 -12.34375 
Q 23.78125 -13.375 27.78125 -13.375 
Q 36.625 -13.375 41.015625 -8.765625 
Q 45.40625 -4.15625 45.40625 5.171875 
L 45.40625 9.625 
Q 42.625 4.78125 38.28125 2.390625 
Q 33.9375 0 27.875 0 
Q 17.828125 0 11.671875 7.65625 
Q 5.515625 15.328125 5.515625 27.984375 
Q 5.515625 40.671875 11.671875 48.328125 
Q 17.828125 56 27.875 56 
Q 33.9375 56 38.28125 53.609375 
Q 42.625 51.21875 45.40625 46.390625 
L 45.40625 54.6875 
L 54.390625 54.6875 
z
" id="DejaVuSans-103"/>
      </defs>
      <use xlink:href="#DejaVuSans-73"/>
      <use x="29.492188" xlink:href="#DejaVuSans-110"/>
      <use x="92.871094" xlink:href="#DejaVuSans-118"/>
      <use x="152.050781" xlink:href="#DejaVuSans-97"/>
      <use x="213.330078" xlink:href="#DejaVuSans-115"/>
      <use x="265.429688" xlink:href="#DejaVuSans-105"/>
      <use x="293.212891" xlink:href="#DejaVuSans-111"/>
      <use x="354.394531" xlink:href="#DejaVuSans-110"/>
      <use x="417.773438" xlink:href="#DejaVuSans-32"/>
      <use x="449.560547" xlink:href="#DejaVuSans-112"/>
      <use x="513.037109" xlink:href="#DejaVuSans-114"/>
      <use x="551.900391" xlink:href="#DejaVuSans-111"/>
      <use x="613.082031" xlink:href="#DejaVuSans-98"/>
      <use x="676.558594" xlink:href="#DejaVuSans-46"/>
      <use x="708.345703" xlink:href="#DejaVuSans-32"/>
      <use x="740.132812" xlink:href="#DejaVuSans-108"/>
      <use x="767.916016" xlink:href="#DejaVuSans-111"/>
      <use x="829.097656" xlink:href="#DejaVuSans-103"/>
      <use x="892.574219" xlink:href="#DejaVuSans-45"/>
      <use x="928.658203" xlink:href="#DejaVuSans-114"/>
      <use x="969.771484" xlink:href="#DejaVuSans-97"/>
      <use x="1031.050781" xlink:href="#DejaVuSans-116"/>
      <use x="1070.259766" xlink:href="#DejaVuSans-105"/>
      <use x="1098.042969" xlink:href="#DejaVuSans-111"/>
     </g>
    </g>
   </g>
   <g id="line2d_19">
    <path clip-path="url(#pf7a17328f2)" d="M 55.643182 38.263636 
L 78.165941 53.5906 
L 94.225901 63.763322 
L 106.716701 71.219551 
L 116.939832 77.019042 
L 125.593517 81.713177 
L 133.096118 85.623174 
L 139.718219 88.95145 
L 145.644952 91.833163 
L 151.008577 94.36269 
L 155.906873 96.608311 
L 160.414175 98.620884 
L 164.588315 100.439213 
L 168.475173 102.093517 
L 172.11176 103.607741 
L 175.528364 105.001155 
L 178.750089 106.289468 
L 181.797971 107.48564 
L 184.689815 108.600475 
L 187.440822 109.643064 
L 190.064077 110.621122 
L 192.570918 111.541244 
L 194.971241 112.40911 
L 197.273731 113.229643 
L 199.486051 114.00713 
L 201.614998 114.745331 
L 203.666628 115.447557 
L 205.646362 116.116734 
L 207.559067 116.755465 
L 209.409136 117.366071 
L 211.200539 117.950629 
L 212.936884 118.511007 
L 214.621454 119.048888 
L 216.257249 119.565792 
L 217.847012 120.0631 
L 219.393265 120.542067 
L 220.898325 121.003837 
L 222.36433 121.449454 
L 223.793256 121.879877 
L 225.186933 122.295984 
L 226.547057 122.698584 
L 227.875208 123.088424 
L 229.172852 123.46619 
L 230.441361 123.832521 
L 231.682013 124.188007 
L 232.896007 124.533195 
L 234.084463 124.868596 
L 235.248435 125.194684 
L 236.38891 125.511902 
L 237.506818 125.820663 
" style="fill:none;stroke:#000000;stroke-linecap:square;stroke-width:2;"/>
   </g>
   <g id="line2d_20">
    <path clip-path="url(#pf7a17328f2)" d="M 55.643182 94.769538 
L 78.165941 101.94898 
L 94.225901 107.068316 
L 106.716701 111.049931 
L 116.939832 114.308696 
L 125.593517 117.067178 
L 133.096118 119.458736 
L 139.718219 121.569623 
L 145.644952 123.458851 
L 151.008577 125.168581 
L 155.906873 126.729981 
L 160.414175 128.166746 
L 164.588315 129.497311 
L 168.475173 130.736301 
L 172.11176 131.895513 
L 175.528364 132.984604 
L 178.750089 134.011573 
L 181.797971 134.983128 
L 184.689815 135.904943 
L 187.440822 136.781865 
L 190.064077 137.618064 
L 192.570918 138.417154 
L 194.971241 139.18229 
L 197.273731 139.916241 
L 199.486051 140.621449 
L 201.614998 141.30008 
L 203.666628 141.954066 
L 205.646362 142.585133 
L 207.559067 143.194835 
L 209.409136 143.784569 
L 211.200539 144.355604 
L 212.936884 144.909088 
L 214.621454 145.446068 
L 216.257249 145.967501 
L 217.847012 146.47426 
L 219.393265 146.967149 
L 220.898325 147.446908 
L 222.36433 147.914217 
L 223.793256 148.369707 
L 225.186933 148.813961 
L 226.547057 149.24752 
L 227.875208 149.670886 
L 229.172852 150.084528 
L 230.441361 150.488883 
L 231.682013 150.884358 
L 232.896007 151.271336 
L 234.084463 151.650172 
L 235.248435 152.021205 
L 236.38891 152.384747 
L 237.506818 152.741096 
" style="fill:none;stroke:#000000;stroke-linecap:square;stroke-width:2;"/>
   </g>
   <g id="line2d_21">
    <path clip-path="url(#pf7a17328f2)" d="M 55.643182 127.18458 
L 78.165941 132.077465 
L 94.225901 135.977354 
L 106.716701 139.280945 
L 116.939832 142.177958 
L 125.593517 144.775828 
L 133.096118 147.142134 
L 139.718219 149.322562 
L 145.644952 151.349664 
L 151.008577 153.247584 
L 155.906873 155.034806 
L 160.414175 156.725848 
L 164.588315 158.332353 
L 168.475173 159.863827 
L 172.11176 161.328149 
L 175.528364 162.731933 
L 178.750089 164.080796 
L 181.797971 165.379554 
L 184.689815 166.632374 
L 187.440822 167.84289 
L 190.064077 169.01429 
L 192.570918 170.149394 
L 194.971241 171.250705 
L 197.273731 172.32046 
L 199.486051 173.360667 
L 201.614998 174.373136 
L 203.666628 175.359504 
L 205.646362 176.321261 
L 207.559067 177.259761 
L 209.409136 178.176247 
L 211.200539 179.071855 
L 212.936884 179.947632 
L 214.621454 180.804543 
L 216.257249 181.643481 
L 217.847012 182.465271 
L 219.393265 183.270683 
L 220.898325 184.06043 
L 222.36433 184.835178 
L 223.793256 185.595549 
L 225.186933 186.342125 
L 226.547057 187.075452 
L 227.875208 187.796041 
L 229.172852 188.504374 
L 230.441361 189.200904 
L 231.682013 189.886058 
L 232.896007 190.560239 
L 234.084463 191.223828 
L 235.248435 191.877185 
L 236.38891 192.520652 
L 237.506818 193.154552 
" style="fill:none;stroke:#000000;stroke-linecap:square;stroke-width:2;"/>
   </g>
   <g id="patch_3">
    <path d="M 46.55 203.4 
L 46.55 30.4 
" style="fill:none;stroke:#000000;stroke-linecap:square;stroke-linejoin:miter;stroke-width:0.8;"/>
   </g>
   <g id="patch_4">
    <path d="M 246.6 203.4 
L 246.6 30.4 
" style="fill:none;stroke:#000000;stroke-linecap:square;stroke-linejoin:miter;stroke-width:0.8;"/>
   </g>
   <g id="patch_5">
    <path d="M 46.55 203.4 
L 246.6 203.4 
" style="fill:none;stroke:#000000;stroke-linecap:square;stroke-linejoin:miter;stroke-width:0.8;"/>
   </g>
   <g id="patch_6">
    <path d="M 46.55 30.4 
L 246.6 30.4 
" style="fill:none;stroke:#000000;stroke-linecap:square;stroke-linejoin:miter;stroke-width:0.8;"/>
   </g>
   <g id="text_9">
    <!-- $s N^*=1.00$ -->
    <g transform="translate(113.875 24.4)scale(0.12 -0.12)">
     <defs>
      <path d="M 50 53.078125 
L 48.296875 44.578125 
Q 44.734375 46.53125 40.765625 47.5 
Q 36.8125 48.484375 32.625 48.484375 
Q 25.53125 48.484375 21.453125 46.0625 
Q 17.390625 43.65625 17.390625 39.5 
Q 17.390625 34.671875 26.859375 32.078125 
Q 27.59375 31.890625 27.9375 31.78125 
L 30.8125 30.90625 
Q 39.796875 28.421875 42.796875 25.6875 
Q 45.796875 22.953125 45.796875 18.21875 
Q 45.796875 9.515625 38.890625 4.046875 
Q 31.984375 -1.421875 20.796875 -1.421875 
Q 16.453125 -1.421875 11.671875 -0.578125 
Q 6.890625 0.25 1.125 2 
L 2.875 11.28125 
Q 7.8125 8.734375 12.59375 7.421875 
Q 17.390625 6.109375 21.78125 6.109375 
Q 28.375 6.109375 32.5 8.9375 
Q 36.625 11.765625 36.625 16.109375 
Q 36.625 20.796875 25.78125 23.6875 
L 24.859375 23.921875 
L 21.78125 24.703125 
Q 14.9375 26.515625 11.765625 29.46875 
Q 8.59375 32.421875 8.59375 37.015625 
Q 8.59375 45.75 15.15625 50.875 
Q 21.734375 56 33.015625 56 
Q 37.453125 56 41.671875 55.265625 
Q 45.90625 54.546875 50 53.078125 
z
" id="DejaVuSans-Oblique-115"/>
      <path d="M 16.890625 72.90625 
L 30.171875 72.90625 
L 50.296875 10.40625 
L 62.5 72.90625 
L 72.125 72.90625 
L 57.90625 0 
L 44.578125 0 
L 24.515625 62.890625 
L 12.3125 0 
L 2.6875 0 
z
" id="DejaVuSans-Oblique-78"/>
      <path d="M 47.015625 60.890625 
L 29.5 51.421875 
L 47.015625 41.890625 
L 44.1875 37.109375 
L 27.78125 47.015625 
L 27.78125 28.609375 
L 22.21875 28.609375 
L 22.21875 47.015625 
L 5.8125 37.109375 
L 2.984375 41.890625 
L 20.515625 51.421875 
L 2.984375 60.890625 
L 5.8125 65.71875 
L 22.21875 55.8125 
L 22.21875 74.21875 
L 27.78125 74.21875 
L 27.78125 55.8125 
L 44.1875 65.71875 
z
" id="DejaVuSans-42"/>
      <path d="M 10.59375 45.40625 
L 73.1875 45.40625 
L 73.1875 37.203125 
L 10.59375 37.203125 
z
M 10.59375 25.484375 
L 73.1875 25.484375 
L 73.1875 17.1875 
L 10.59375 17.1875 
z
" id="DejaVuSans-61"/>
     </defs>
     <use transform="translate(0 0.765625)" xlink:href="#DejaVuSans-Oblique-115"/>
     <use transform="translate(52.099609 0.765625)" xlink:href="#DejaVuSans-Oblique-78"/>
     <use transform="translate(147.558763 39.046875)scale(0.7)" xlink:href="#DejaVuSans-42"/>
     <use transform="translate(218.413255 0.765625)" xlink:href="#DejaVuSans-61"/>
     <use transform="translate(321.68474 0.765625)" xlink:href="#DejaVuSans-49"/>
     <use transform="translate(385.307786 0.765625)" xlink:href="#DejaVuSans-46"/>
     <use transform="translate(417.094896 0.765625)" xlink:href="#DejaVuSans-48"/>
     <use transform="translate(480.717943 0.765625)" xlink:href="#DejaVuSans-48"/>
    </g>
   </g>
  </g>
  <g id="axes_2">
   <g id="patch_7">
    <path d="M 293.15 203.4 
L 493.2 203.4 
L 493.2 30.4 
L 293.15 30.4 
z
" style="fill:none;"/>
   </g>
   <g id="PathCollection_7">
    <g clip-path="url(#p9e0a703908)">
     <use style="fill:#ff0000;stroke:#ff0000;stroke-width:1.5;" x="484.106818" xlink:href="#md4c0541265" y="128.59007"/>
     <use style="fill:#ff0000;stroke:#ff0000;stroke-width:1.5;" x="461.373872" xlink:href="#md4c0541265" y="120.346773"/>
     <use style="fill:#ff0000;stroke:#ff0000;stroke-width:1.5;" x="438.64091" xlink:href="#md4c0541265" y="112.132557"/>
     <use style="fill:#ff0000;stroke:#ff0000;stroke-width:1.5;" x="415.907963" xlink:href="#md4c0541265" y="102.78629"/>
     <use style="fill:#ff0000;stroke:#ff0000;stroke-width:1.5;" x="393.175" xlink:href="#md4c0541265" y="95.905292"/>
     <use style="fill:#ff0000;stroke:#ff0000;stroke-width:1.5;" x="370.44202" xlink:href="#md4c0541265" y="80.842284"/>
     <use style="fill:#ff0000;stroke:#ff0000;stroke-width:1.5;" x="347.709142" xlink:href="#md4c0541265" y="69.84936"/>
     <use style="fill:#ff0000;stroke:#ff0000;stroke-width:1.5;" x="324.976182" xlink:href="#md4c0541265" y="56.409089"/>
     <use style="fill:#ff0000;stroke:#ff0000;stroke-width:1.5;" x="302.243182" xlink:href="#md4c0541265" y="38.263636"/>
    </g>
   </g>
   <g id="PathCollection_8">
    <g clip-path="url(#p9e0a703908)">
     <use style="fill:#ff0000;stroke:#ff0000;stroke-width:1.5;" x="484.106818" xlink:href="#md4c0541265" y="155.126095"/>
     <use style="fill:#ff0000;stroke:#ff0000;stroke-width:1.5;" x="461.373872" xlink:href="#md4c0541265" y="144.096879"/>
     <use style="fill:#ff0000;stroke:#ff0000;stroke-width:1.5;" x="438.64091" xlink:href="#md4c0541265" y="136.831367"/>
     <use style="fill:#ff0000;stroke:#ff0000;stroke-width:1.5;" x="415.907963" xlink:href="#md4c0541265" y="125.718593"/>
     <use style="fill:#ff0000;stroke:#ff0000;stroke-width:1.5;" x="393.175" xlink:href="#md4c0541265" y="117.674106"/>
     <use style="fill:#ff0000;stroke:#ff0000;stroke-width:1.5;" x="370.44202" xlink:href="#md4c0541265" y="107.474927"/>
     <use style="fill:#ff0000;stroke:#ff0000;stroke-width:1.5;" x="347.709142" xlink:href="#md4c0541265" y="99.629464"/>
     <use style="fill:#ff0000;stroke:#ff0000;stroke-width:1.5;" x="324.976182" xlink:href="#md4c0541265" y="89.869551"/>
     <use style="fill:#ff0000;stroke:#ff0000;stroke-width:1.5;" x="302.243182" xlink:href="#md4c0541265" y="81.268827"/>
    </g>
   </g>
   <g id="PathCollection_9">
    <g clip-path="url(#p9e0a703908)">
     <use style="fill:#ff0000;stroke:#ff0000;stroke-width:1.5;" x="484.106818" xlink:href="#md4c0541265" y="195.536364"/>
     <use style="fill:#ff0000;stroke:#ff0000;stroke-width:1.5;" x="461.373872" xlink:href="#md4c0541265" y="181.066698"/>
     <use style="fill:#ff0000;stroke:#ff0000;stroke-width:1.5;" x="438.64091" xlink:href="#md4c0541265" y="164.779747"/>
     <use style="fill:#ff0000;stroke:#ff0000;stroke-width:1.5;" x="415.907963" xlink:href="#md4c0541265" y="151.738414"/>
     <use style="fill:#ff0000;stroke:#ff0000;stroke-width:1.5;" x="393.175" xlink:href="#md4c0541265" y="139.769656"/>
     <use style="fill:#ff0000;stroke:#ff0000;stroke-width:1.5;" x="370.44202" xlink:href="#md4c0541265" y="129.933648"/>
     <use style="fill:#ff0000;stroke:#ff0000;stroke-width:1.5;" x="347.709142" xlink:href="#md4c0541265" y="118.459634"/>
     <use style="fill:#ff0000;stroke:#ff0000;stroke-width:1.5;" x="324.976182" xlink:href="#md4c0541265" y="114.481359"/>
     <use style="fill:#ff0000;stroke:#ff0000;stroke-width:1.5;" x="302.243182" xlink:href="#md4c0541265" y="104.629381"/>
    </g>
   </g>
   <g id="PathCollection_10">
    <g clip-path="url(#p9e0a703908)">
     <use style="fill:#008000;stroke:#008000;stroke-width:1.5;" x="484.106818" xlink:href="#m7972775eee" y="128.59007"/>
     <use style="fill:#008000;stroke:#008000;stroke-width:1.5;" x="461.373864" xlink:href="#m7972775eee" y="120.346773"/>
     <use style="fill:#008000;stroke:#008000;stroke-width:1.5;" x="438.640909" xlink:href="#m7972775eee" y="112.132557"/>
     <use style="fill:#008000;stroke:#008000;stroke-width:1.5;" x="415.907955" xlink:href="#m7972775eee" y="102.78629"/>
     <use style="fill:#008000;stroke:#008000;stroke-width:1.5;" x="393.175" xlink:href="#m7972775eee" y="95.905292"/>
     <use style="fill:#008000;stroke:#008000;stroke-width:1.5;" x="370.442045" xlink:href="#m7972775eee" y="80.842284"/>
     <use style="fill:#008000;stroke:#008000;stroke-width:1.5;" x="347.709091" xlink:href="#m7972775eee" y="69.84936"/>
     <use style="fill:#008000;stroke:#008000;stroke-width:1.5;" x="324.976136" xlink:href="#m7972775eee" y="56.409089"/>
     <use style="fill:#008000;stroke:#008000;stroke-width:1.5;" x="302.243182" xlink:href="#m7972775eee" y="38.263636"/>
    </g>
   </g>
   <g id="PathCollection_11">
    <g clip-path="url(#p9e0a703908)">
     <use style="fill:#008000;stroke:#008000;stroke-width:1.5;" x="484.106818" xlink:href="#m7972775eee" y="155.126095"/>
     <use style="fill:#008000;stroke:#008000;stroke-width:1.5;" x="461.373864" xlink:href="#m7972775eee" y="144.096879"/>
     <use style="fill:#008000;stroke:#008000;stroke-width:1.5;" x="438.640909" xlink:href="#m7972775eee" y="136.831367"/>
     <use style="fill:#008000;stroke:#008000;stroke-width:1.5;" x="415.907955" xlink:href="#m7972775eee" y="125.718593"/>
     <use style="fill:#008000;stroke:#008000;stroke-width:1.5;" x="393.175" xlink:href="#m7972775eee" y="117.674106"/>
     <use style="fill:#008000;stroke:#008000;stroke-width:1.5;" x="370.442045" xlink:href="#m7972775eee" y="107.474927"/>
     <use style="fill:#008000;stroke:#008000;stroke-width:1.5;" x="347.709091" xlink:href="#m7972775eee" y="99.629464"/>
     <use style="fill:#008000;stroke:#008000;stroke-width:1.5;" x="324.976136" xlink:href="#m7972775eee" y="89.869551"/>
     <use style="fill:#008000;stroke:#008000;stroke-width:1.5;" x="302.243182" xlink:href="#m7972775eee" y="81.268827"/>
    </g>
   </g>
   <g id="PathCollection_12">
    <g clip-path="url(#p9e0a703908)">
     <use style="fill:#008000;stroke:#008000;stroke-width:1.5;" x="484.106818" xlink:href="#m7972775eee" y="195.536364"/>
     <use style="fill:#008000;stroke:#008000;stroke-width:1.5;" x="461.373864" xlink:href="#m7972775eee" y="181.066698"/>
     <use style="fill:#008000;stroke:#008000;stroke-width:1.5;" x="438.640909" xlink:href="#m7972775eee" y="164.779747"/>
     <use style="fill:#008000;stroke:#008000;stroke-width:1.5;" x="415.907955" xlink:href="#m7972775eee" y="151.738414"/>
     <use style="fill:#008000;stroke:#008000;stroke-width:1.5;" x="393.175" xlink:href="#m7972775eee" y="139.769656"/>
     <use style="fill:#008000;stroke:#008000;stroke-width:1.5;" x="370.442045" xlink:href="#m7972775eee" y="129.933648"/>
     <use style="fill:#008000;stroke:#008000;stroke-width:1.5;" x="347.709091" xlink:href="#m7972775eee" y="118.459634"/>
     <use style="fill:#008000;stroke:#008000;stroke-width:1.5;" x="324.976136" xlink:href="#m7972775eee" y="114.481359"/>
     <use style="fill:#008000;stroke:#008000;stroke-width:1.5;" x="302.243182" xlink:href="#m7972775eee" y="104.629381"/>
    </g>
   </g>
   <g id="PathCollection_13">
    <defs>
     <path d="M 0 3 
C 0.795609 3 1.55874 2.683901 2.12132 2.12132 
C 2.683901 1.55874 3 0.795609 3 0 
C 3 -0.795609 2.683901 -1.55874 2.12132 -2.12132 
C 1.55874 -2.683901 0.795609 -3 0 -3 
C -0.795609 -3 -1.55874 -2.683901 -2.12132 -2.12132 
C -2.683901 -1.55874 -3 -0.795609 -3 0 
C -3 0.795609 -2.683901 1.55874 -2.12132 2.12132 
C -1.55874 2.683901 -0.795609 3 0 3 
z
" id="mf2d31b8e6f" style="stroke:#ffa500;"/>
    </defs>
    <g clip-path="url(#p9e0a703908)">
     <use style="fill:#ffa500;stroke:#ffa500;" x="302.243182" xlink:href="#mf2d31b8e6f" y="79.400311"/>
     <use style="fill:#ffa500;stroke:#ffa500;" x="324.976136" xlink:href="#mf2d31b8e6f" y="87.068657"/>
     <use style="fill:#ffa500;stroke:#ffa500;" x="347.709091" xlink:href="#mf2d31b8e6f" y="97.994545"/>
     <use style="fill:#ffa500;stroke:#ffa500;" x="370.442045" xlink:href="#mf2d31b8e6f" y="109.534947"/>
     <use style="fill:#ffa500;stroke:#ffa500;" x="393.175" xlink:href="#mf2d31b8e6f" y="118.635"/>
     <use style="fill:#ffa500;stroke:#ffa500;" x="415.907955" xlink:href="#mf2d31b8e6f" y="125.224518"/>
     <use style="fill:#ffa500;stroke:#ffa500;" x="438.640909" xlink:href="#mf2d31b8e6f" y="137.158299"/>
     <use style="fill:#ffa500;stroke:#ffa500;" x="461.373864" xlink:href="#mf2d31b8e6f" y="144.955124"/>
     <use style="fill:#ffa500;stroke:#ffa500;" x="484.106818" xlink:href="#mf2d31b8e6f" y="152.979924"/>
    </g>
   </g>
   <g id="matplotlib.axis_3">
    <g id="xtick_14">
     <g id="line2d_22">
      <g>
       <use style="stroke:#000000;stroke-width:0.8;" x="393.175" xlink:href="#me1e47667a4" y="203.4"/>
      </g>
     </g>
     <g id="text_10">
      <!-- $\mathdefault{10^{0}}$ -->
      <g transform="translate(384.375 217.998438)scale(0.1 -0.1)">
       <use transform="translate(0 0.765625)" xlink:href="#DejaVuSans-49"/>
       <use transform="translate(63.623047 0.765625)" xlink:href="#DejaVuSans-48"/>
       <use transform="translate(128.203125 39.046875)scale(0.7)" xlink:href="#DejaVuSans-48"/>
      </g>
     </g>
    </g>
    <g id="xtick_15">
     <g id="line2d_23">
      <g>
       <use style="stroke:#000000;stroke-width:0.6;" x="302.243182" xlink:href="#mc4be655f99" y="203.4"/>
      </g>
     </g>
    </g>
    <g id="xtick_16">
     <g id="line2d_24">
      <g>
       <use style="stroke:#000000;stroke-width:0.6;" x="325.151602" xlink:href="#mc4be655f99" y="203.4"/>
      </g>
     </g>
    </g>
    <g id="xtick_17">
     <g id="line2d_25">
      <g>
       <use style="stroke:#000000;stroke-width:0.6;" x="341.405384" xlink:href="#mc4be655f99" y="203.4"/>
      </g>
     </g>
    </g>
    <g id="xtick_18">
     <g id="line2d_26">
      <g>
       <use style="stroke:#000000;stroke-width:0.6;" x="354.012798" xlink:href="#mc4be655f99" y="203.4"/>
      </g>
     </g>
    </g>
    <g id="xtick_19">
     <g id="line2d_27">
      <g>
       <use style="stroke:#000000;stroke-width:0.6;" x="364.313804" xlink:href="#mc4be655f99" y="203.4"/>
      </g>
     </g>
    </g>
    <g id="xtick_20">
     <g id="line2d_28">
      <g>
       <use style="stroke:#000000;stroke-width:0.6;" x="373.023181" xlink:href="#mc4be655f99" y="203.4"/>
      </g>
     </g>
    </g>
    <g id="xtick_21">
     <g id="line2d_29">
      <g>
       <use style="stroke:#000000;stroke-width:0.6;" x="380.567587" xlink:href="#mc4be655f99" y="203.4"/>
      </g>
     </g>
    </g>
    <g id="xtick_22">
     <g id="line2d_30">
      <g>
       <use style="stroke:#000000;stroke-width:0.6;" x="387.222224" xlink:href="#mc4be655f99" y="203.4"/>
      </g>
     </g>
    </g>
    <g id="xtick_23">
     <g id="line2d_31">
      <g>
       <use style="stroke:#000000;stroke-width:0.6;" x="432.337202" xlink:href="#mc4be655f99" y="203.4"/>
      </g>
     </g>
    </g>
    <g id="xtick_24">
     <g id="line2d_32">
      <g>
       <use style="stroke:#000000;stroke-width:0.6;" x="455.245622" xlink:href="#mc4be655f99" y="203.4"/>
      </g>
     </g>
    </g>
    <g id="xtick_25">
     <g id="line2d_33">
      <g>
       <use style="stroke:#000000;stroke-width:0.6;" x="471.499405" xlink:href="#mc4be655f99" y="203.4"/>
      </g>
     </g>
    </g>
    <g id="xtick_26">
     <g id="line2d_34">
      <g>
       <use style="stroke:#000000;stroke-width:0.6;" x="484.106818" xlink:href="#mc4be655f99" y="203.4"/>
      </g>
     </g>
    </g>
    <g id="text_11">
     <!-- Time-scale ratio, $r$ -->
     <g transform="translate(347.725 231.676563)scale(0.1 -0.1)">
      <use transform="translate(0 0.015625)" xlink:href="#DejaVuSans-84"/>
      <use transform="translate(61.083984 0.015625)" xlink:href="#DejaVuSans-105"/>
      <use transform="translate(88.867188 0.015625)" xlink:href="#DejaVuSans-109"/>
      <use transform="translate(186.279297 0.015625)" xlink:href="#DejaVuSans-101"/>
      <use transform="translate(247.802734 0.015625)" xlink:href="#DejaVuSans-45"/>
      <use transform="translate(283.886719 0.015625)" xlink:href="#DejaVuSans-115"/>
      <use transform="translate(335.986328 0.015625)" xlink:href="#DejaVuSans-99"/>
      <use transform="translate(390.966797 0.015625)" xlink:href="#DejaVuSans-97"/>
      <use transform="translate(452.246094 0.015625)" xlink:href="#DejaVuSans-108"/>
      <use transform="translate(480.029297 0.015625)" xlink:href="#DejaVuSans-101"/>
      <use transform="translate(541.552734 0.015625)" xlink:href="#DejaVuSans-32"/>
      <use transform="translate(573.339844 0.015625)" xlink:href="#DejaVuSans-114"/>
      <use transform="translate(614.453125 0.015625)" xlink:href="#DejaVuSans-97"/>
      <use transform="translate(675.732422 0.015625)" xlink:href="#DejaVuSans-116"/>
      <use transform="translate(714.941406 0.015625)" xlink:href="#DejaVuSans-105"/>
      <use transform="translate(742.724609 0.015625)" xlink:href="#DejaVuSans-111"/>
      <use transform="translate(803.90625 0.015625)" xlink:href="#DejaVuSans-44"/>
      <use transform="translate(835.693359 0.015625)" xlink:href="#DejaVuSans-32"/>
      <use transform="translate(867.480469 0.015625)" xlink:href="#DejaVuSans-Oblique-114"/>
     </g>
    </g>
   </g>
   <g id="matplotlib.axis_4">
    <g id="ytick_6">
     <g id="line2d_35">
      <g>
       <use style="stroke:#000000;stroke-width:0.8;" x="293.15" xlink:href="#m3368187352" y="182.178977"/>
      </g>
     </g>
     <g id="text_12">
      <!-- −3 -->
      <g transform="translate(271.407813 185.978195)scale(0.1 -0.1)">
       <defs>
        <path d="M 40.578125 39.3125 
Q 47.65625 37.796875 51.625 33 
Q 55.609375 28.21875 55.609375 21.1875 
Q 55.609375 10.40625 48.1875 4.484375 
Q 40.765625 -1.421875 27.09375 -1.421875 
Q 22.515625 -1.421875 17.65625 -0.515625 
Q 12.796875 0.390625 7.625 2.203125 
L 7.625 11.71875 
Q 11.71875 9.328125 16.59375 8.109375 
Q 21.484375 6.890625 26.8125 6.890625 
Q 36.078125 6.890625 40.9375 10.546875 
Q 45.796875 14.203125 45.796875 21.1875 
Q 45.796875 27.640625 41.28125 31.265625 
Q 36.765625 34.90625 28.71875 34.90625 
L 20.21875 34.90625 
L 20.21875 43.015625 
L 29.109375 43.015625 
Q 36.375 43.015625 40.234375 45.921875 
Q 44.09375 48.828125 44.09375 54.296875 
Q 44.09375 59.90625 40.109375 62.90625 
Q 36.140625 65.921875 28.71875 65.921875 
Q 24.65625 65.921875 20.015625 65.03125 
Q 15.375 64.15625 9.8125 62.3125 
L 9.8125 71.09375 
Q 15.4375 72.65625 20.34375 73.4375 
Q 25.25 74.21875 29.59375 74.21875 
Q 40.828125 74.21875 47.359375 69.109375 
Q 53.90625 64.015625 53.90625 55.328125 
Q 53.90625 49.265625 50.4375 45.09375 
Q 46.96875 40.921875 40.578125 39.3125 
z
" id="DejaVuSans-51"/>
       </defs>
       <use xlink:href="#DejaVuSans-8722"/>
       <use x="83.789062" xlink:href="#DejaVuSans-51"/>
      </g>
     </g>
    </g>
    <g id="ytick_7">
     <g id="line2d_36">
      <g>
       <use style="stroke:#000000;stroke-width:0.8;" x="293.15" xlink:href="#m3368187352" y="160.438302"/>
      </g>
     </g>
     <g id="text_13">
      <!-- −2 -->
      <g transform="translate(271.407813 164.237521)scale(0.1 -0.1)">
       <use xlink:href="#DejaVuSans-8722"/>
       <use x="83.789062" xlink:href="#DejaVuSans-50"/>
      </g>
     </g>
    </g>
    <g id="ytick_8">
     <g id="line2d_37">
      <g>
       <use style="stroke:#000000;stroke-width:0.8;" x="293.15" xlink:href="#m3368187352" y="138.697627"/>
      </g>
     </g>
     <g id="text_14">
      <!-- −1 -->
      <g transform="translate(271.407813 142.496846)scale(0.1 -0.1)">
       <use xlink:href="#DejaVuSans-8722"/>
       <use x="83.789062" xlink:href="#DejaVuSans-49"/>
      </g>
     </g>
    </g>
    <g id="ytick_9">
     <g id="line2d_38">
      <g>
       <use style="stroke:#000000;stroke-width:0.8;" x="293.15" xlink:href="#m3368187352" y="116.956953"/>
      </g>
     </g>
     <g id="text_15">
      <!-- 0 -->
      <g transform="translate(279.7875 120.756172)scale(0.1 -0.1)">
       <use xlink:href="#DejaVuSans-48"/>
      </g>
     </g>
    </g>
    <g id="ytick_10">
     <g id="line2d_39">
      <g>
       <use style="stroke:#000000;stroke-width:0.8;" x="293.15" xlink:href="#m3368187352" y="95.216278"/>
      </g>
     </g>
     <g id="text_16">
      <!-- 1 -->
      <g transform="translate(279.7875 99.015497)scale(0.1 -0.1)">
       <use xlink:href="#DejaVuSans-49"/>
      </g>
     </g>
    </g>
    <g id="ytick_11">
     <g id="line2d_40">
      <g>
       <use style="stroke:#000000;stroke-width:0.8;" x="293.15" xlink:href="#m3368187352" y="73.475604"/>
      </g>
     </g>
     <g id="text_17">
      <!-- 2 -->
      <g transform="translate(279.7875 77.274822)scale(0.1 -0.1)">
       <use xlink:href="#DejaVuSans-50"/>
      </g>
     </g>
    </g>
    <g id="ytick_12">
     <g id="line2d_41">
      <g>
       <use style="stroke:#000000;stroke-width:0.8;" x="293.15" xlink:href="#m3368187352" y="51.734929"/>
      </g>
     </g>
     <g id="text_18">
      <!-- 3 -->
      <g transform="translate(279.7875 55.534148)scale(0.1 -0.1)">
       <use xlink:href="#DejaVuSans-51"/>
      </g>
     </g>
    </g>
    <g id="text_19">
     <!-- Invasion prob. log-ratio -->
     <g transform="translate(265.328125 174.861719)rotate(-90)scale(0.1 -0.1)">
      <use xlink:href="#DejaVuSans-73"/>
      <use x="29.492188" xlink:href="#DejaVuSans-110"/>
      <use x="92.871094" xlink:href="#DejaVuSans-118"/>
      <use x="152.050781" xlink:href="#DejaVuSans-97"/>
      <use x="213.330078" xlink:href="#DejaVuSans-115"/>
      <use x="265.429688" xlink:href="#DejaVuSans-105"/>
      <use x="293.212891" xlink:href="#DejaVuSans-111"/>
      <use x="354.394531" xlink:href="#DejaVuSans-110"/>
      <use x="417.773438" xlink:href="#DejaVuSans-32"/>
      <use x="449.560547" xlink:href="#DejaVuSans-112"/>
      <use x="513.037109" xlink:href="#DejaVuSans-114"/>
      <use x="551.900391" xlink:href="#DejaVuSans-111"/>
      <use x="613.082031" xlink:href="#DejaVuSans-98"/>
      <use x="676.558594" xlink:href="#DejaVuSans-46"/>
      <use x="708.345703" xlink:href="#DejaVuSans-32"/>
      <use x="740.132812" xlink:href="#DejaVuSans-108"/>
      <use x="767.916016" xlink:href="#DejaVuSans-111"/>
      <use x="829.097656" xlink:href="#DejaVuSans-103"/>
      <use x="892.574219" xlink:href="#DejaVuSans-45"/>
      <use x="928.658203" xlink:href="#DejaVuSans-114"/>
      <use x="969.771484" xlink:href="#DejaVuSans-97"/>
      <use x="1031.050781" xlink:href="#DejaVuSans-116"/>
      <use x="1070.259766" xlink:href="#DejaVuSans-105"/>
      <use x="1098.042969" xlink:href="#DejaVuSans-111"/>
     </g>
    </g>
   </g>
   <g id="line2d_42">
    <path clip-path="url(#p9e0a703908)" d="M 302.243182 39.217049 
L 324.765941 54.855973 
L 340.825901 65.073506 
L 353.316701 72.482357 
L 363.539832 78.199961 
L 372.193517 82.800412 
L 379.696118 86.614759 
L 386.318219 89.84983 
L 392.244952 92.642734 
L 397.608577 95.088602 
L 402.506873 97.255889 
L 407.014175 99.195329 
L 411.188315 100.945467 
L 415.075173 102.536204 
L 418.71176 103.991151 
L 422.128364 105.329247 
L 425.350089 106.565887 
L 428.397971 107.713741 
L 431.289815 108.783344 
L 434.040822 109.783541 
L 436.664077 110.721823 
L 439.170918 111.604584 
L 441.571241 112.437317 
L 443.873731 113.224779 
L 446.086051 113.971105 
L 448.214998 114.679916 
L 450.266628 115.354398 
L 452.246362 115.997362 
L 454.159067 116.611307 
L 456.009136 117.198457 
L 457.800539 117.760804 
L 459.536884 118.300132 
L 461.221454 118.818053 
L 462.857249 119.31602 
L 464.447012 119.79535 
L 465.993265 120.25724 
L 467.498325 120.702782 
L 468.96433 121.13297 
L 470.393256 121.548719 
L 471.786933 121.950863 
L 473.147057 122.340174 
L 474.475208 122.717359 
L 475.772852 123.083073 
L 477.041361 123.437922 
L 478.282013 123.782467 
L 479.496007 124.117228 
L 480.684463 124.442688 
L 481.848435 124.7593 
L 482.98891 125.067481 
L 484.106818 125.367625 
" style="fill:none;stroke:#000000;stroke-linecap:square;stroke-width:2;"/>
   </g>
   <g id="line2d_43">
    <path clip-path="url(#p9e0a703908)" d="M 302.243182 81.966687 
L 324.765941 90.633371 
L 340.825901 96.813191 
L 353.316701 101.61961 
L 363.539832 105.553437 
L 372.193517 108.883347 
L 379.696118 111.770323 
L 386.318219 114.318486 
L 392.244952 116.599074 
L 397.608577 118.662979 
L 402.506873 120.547827 
L 407.014175 122.282222 
L 411.188315 123.888417 
L 415.075173 125.384068 
L 418.71176 126.783414 
L 422.128364 128.098113 
L 425.350089 129.337822 
L 428.397971 130.510637 
L 431.289815 131.623409 
L 434.040822 132.681988 
L 436.664077 133.691407 
L 439.170918 134.656031 
L 441.571241 135.579668 
L 443.873731 136.465659 
L 446.086051 137.316952 
L 448.214998 138.136164 
L 450.266628 138.925624 
L 452.246362 139.687419 
L 454.159067 140.423422 
L 456.009136 141.135322 
L 457.800539 141.824649 
L 459.536884 142.492789 
L 461.221454 143.141006 
L 462.857249 143.770454 
L 464.447012 144.38219 
L 465.993265 144.977183 
L 467.498325 145.556325 
L 468.96433 146.120439 
L 470.393256 146.670285 
L 471.786933 147.206567 
L 473.147057 147.729939 
L 474.475208 148.241007 
L 475.772852 148.740336 
L 477.041361 149.228454 
L 478.282013 149.705853 
L 479.496007 150.172994 
L 480.684463 150.630308 
L 481.848435 151.0782 
L 482.98891 151.517051 
L 484.106818 151.947219 
" style="fill:none;stroke:#000000;stroke-linecap:square;stroke-width:2;"/>
   </g>
   <g id="line2d_44">
    <path clip-path="url(#p9e0a703908)" d="M 302.243182 108.546262 
L 324.765941 114.985031 
L 340.825901 120.131409 
L 353.316701 124.494715 
L 363.539832 128.320913 
L 372.193517 131.750314 
L 379.696118 134.871679 
L 386.318219 137.745281 
L 392.244952 140.414224 
L 397.608577 142.910571 
L 402.506873 145.258926 
L 407.014175 147.47865 
L 411.188315 149.585296 
L 415.075173 151.591577 
L 418.71176 153.508041 
L 422.128364 155.343551 
L 425.350089 157.10564 
L 428.397971 158.800767 
L 431.289815 160.434525 
L 434.040822 162.011791 
L 436.664077 163.536848 
L 439.170918 165.01348 
L 441.571241 166.445051 
L 443.873731 167.834566 
L 446.086051 169.184719 
L 448.214998 170.497941 
L 450.266628 171.776432 
L 452.246362 173.02219 
L 454.159067 174.237034 
L 456.009136 175.42263 
L 457.800539 176.580503 
L 459.536884 177.712059 
L 461.221454 178.81859 
L 462.857249 179.901293 
L 464.447012 180.961276 
L 465.993265 181.999567 
L 467.498325 183.017124 
L 468.96433 184.014837 
L 470.393256 184.993539 
L 471.786933 185.95401 
L 473.147057 186.896977 
L 474.475208 187.823127 
L 475.772852 188.733103 
L 477.041361 189.627509 
L 478.282013 190.506916 
L 479.496007 191.371862 
L 480.684463 192.222856 
L 481.848435 193.060379 
L 482.98891 193.884886 
L 484.106818 194.696809 
" style="fill:none;stroke:#000000;stroke-linecap:square;stroke-width:2;"/>
   </g>
   <g id="patch_8">
    <path d="M 293.15 203.4 
L 293.15 30.4 
" style="fill:none;stroke:#000000;stroke-linecap:square;stroke-linejoin:miter;stroke-width:0.8;"/>
   </g>
   <g id="patch_9">
    <path d="M 493.2 203.4 
L 493.2 30.4 
" style="fill:none;stroke:#000000;stroke-linecap:square;stroke-linejoin:miter;stroke-width:0.8;"/>
   </g>
   <g id="patch_10">
    <path d="M 293.15 203.4 
L 493.2 203.4 
" style="fill:none;stroke:#000000;stroke-linecap:square;stroke-linejoin:miter;stroke-width:0.8;"/>
   </g>
   <g id="patch_11">
    <path d="M 293.15 30.4 
L 493.2 30.4 
" style="fill:none;stroke:#000000;stroke-linecap:square;stroke-linejoin:miter;stroke-width:0.8;"/>
   </g>
   <g id="text_20">
    <!-- $s N^*=0.00$ -->
    <g transform="translate(360.475 24.4)scale(0.12 -0.12)">
     <use transform="translate(0 0.765625)" xlink:href="#DejaVuSans-Oblique-115"/>
     <use transform="translate(52.099609 0.765625)" xlink:href="#DejaVuSans-Oblique-78"/>
     <use transform="translate(147.558763 39.046875)scale(0.7)" xlink:href="#DejaVuSans-42"/>
     <use transform="translate(218.413255 0.765625)" xlink:href="#DejaVuSans-61"/>
     <use transform="translate(321.68474 0.765625)" xlink:href="#DejaVuSans-48"/>
     <use transform="translate(385.307786 0.765625)" xlink:href="#DejaVuSans-46"/>
     <use transform="translate(417.094896 0.765625)" xlink:href="#DejaVuSans-48"/>
     <use transform="translate(480.717943 0.765625)" xlink:href="#DejaVuSans-48"/>
    </g>
   </g>
   <g id="legend_1">
    <g id="patch_12">
     <path d="M 414.1 82.434375 
L 486.2 82.434375 
Q 488.2 82.434375 488.2 80.434375 
L 488.2 37.4 
Q 488.2 35.4 486.2 35.4 
L 414.1 35.4 
Q 412.1 35.4 412.1 37.4 
L 412.1 80.434375 
Q 412.1 82.434375 414.1 82.434375 
z
" style="fill:#ffffff;opacity:0.8;stroke:#cccccc;stroke-linejoin:miter;"/>
    </g>
    <g id="line2d_45">
     <path d="M 416.1 43.498437 
L 436.1 43.498437 
" style="fill:none;stroke:#000000;stroke-linecap:square;stroke-width:2;"/>
    </g>
    <g id="line2d_46"/>
    <g id="text_21">
     <!-- $c=0.33$ -->
     <g transform="translate(444.1 46.998437)scale(0.1 -0.1)">
      <defs>
       <path d="M 53.609375 52.59375 
L 51.8125 43.703125 
Q 48.578125 46.046875 44.9375 47.21875 
Q 41.3125 48.390625 37.40625 48.390625 
Q 33.109375 48.390625 29.21875 46.875 
Q 25.34375 45.359375 22.703125 42.578125 
Q 18.5 38.328125 16.203125 32.609375 
Q 13.921875 26.90625 13.921875 20.796875 
Q 13.921875 13.421875 17.609375 9.8125 
Q 21.296875 6.203125 28.8125 6.203125 
Q 32.515625 6.203125 36.6875 7.328125 
Q 40.875 8.453125 45.40625 10.6875 
L 43.703125 1.8125 
Q 39.796875 0.203125 35.671875 -0.609375 
Q 31.546875 -1.421875 27.203125 -1.421875 
Q 16.3125 -1.421875 10.453125 4.015625 
Q 4.59375 9.46875 4.59375 19.578125 
Q 4.59375 28.078125 7.640625 35.234375 
Q 10.6875 42.390625 16.703125 48.09375 
Q 20.796875 52 26.3125 54 
Q 31.84375 56 38.375 56 
Q 42.1875 56 45.9375 55.140625 
Q 49.703125 54.296875 53.609375 52.59375 
z
" id="DejaVuSans-Oblique-99"/>
      </defs>
      <use transform="translate(0 0.78125)" xlink:href="#DejaVuSans-Oblique-99"/>
      <use transform="translate(74.462891 0.78125)" xlink:href="#DejaVuSans-61"/>
      <use transform="translate(177.734375 0.78125)" xlink:href="#DejaVuSans-48"/>
      <use transform="translate(241.357422 0.78125)" xlink:href="#DejaVuSans-46"/>
      <use transform="translate(273.144531 0.78125)" xlink:href="#DejaVuSans-51"/>
      <use transform="translate(336.767578 0.78125)" xlink:href="#DejaVuSans-51"/>
     </g>
    </g>
    <g id="line2d_47">
     <path d="M 416.1 58.176562 
L 436.1 58.176562 
" style="fill:none;stroke:#000000;stroke-linecap:square;stroke-width:2;"/>
    </g>
    <g id="line2d_48"/>
    <g id="text_22">
     <!-- $c=1.00$ -->
     <g transform="translate(444.1 61.676562)scale(0.1 -0.1)">
      <use transform="translate(0 0.78125)" xlink:href="#DejaVuSans-Oblique-99"/>
      <use transform="translate(74.462891 0.78125)" xlink:href="#DejaVuSans-61"/>
      <use transform="translate(177.734375 0.78125)" xlink:href="#DejaVuSans-49"/>
      <use transform="translate(241.357422 0.78125)" xlink:href="#DejaVuSans-46"/>
      <use transform="translate(273.144531 0.78125)" xlink:href="#DejaVuSans-48"/>
      <use transform="translate(336.767578 0.78125)" xlink:href="#DejaVuSans-48"/>
     </g>
    </g>
    <g id="line2d_49">
     <path d="M 416.1 72.854687 
L 436.1 72.854687 
" style="fill:none;stroke:#000000;stroke-linecap:square;stroke-width:2;"/>
    </g>
    <g id="line2d_50"/>
    <g id="text_23">
     <!-- $c=3.00$ -->
     <g transform="translate(444.1 76.354687)scale(0.1 -0.1)">
      <use transform="translate(0 0.78125)" xlink:href="#DejaVuSans-Oblique-99"/>
      <use transform="translate(74.462891 0.78125)" xlink:href="#DejaVuSans-61"/>
      <use transform="translate(177.734375 0.78125)" xlink:href="#DejaVuSans-51"/>
      <use transform="translate(241.357422 0.78125)" xlink:href="#DejaVuSans-46"/>
      <use transform="translate(273.144531 0.78125)" xlink:href="#DejaVuSans-48"/>
      <use transform="translate(336.767578 0.78125)" xlink:href="#DejaVuSans-48"/>
     </g>
    </g>
   </g>
  </g>
 </g>
 <defs>
  <clipPath id="pf7a17328f2">
   <rect height="173" width="200.05" x="46.55" y="30.4"/>
  </clipPath>
  <clipPath id="p9e0a703908">
   <rect height="173" width="200.05" x="293.15" y="30.4"/>
  </clipPath>
 </defs>
</svg>
