<?xml version="1.0" encoding="utf-8" standalone="no"?>
<!DOCTYPE svg PUBLIC "-//W3C//DTD SVG 1.1//EN"
  "http://www.w3.org/Graphics/SVG/1.1/DTD/svg11.dtd">
<!-- Created with matplotlib (http://matplotlib.org/) -->
<svg height="201.6pt" version="1.1" viewBox="0 0 187.2 201.6" width="187.2pt" xmlns="http://www.w3.org/2000/svg" xmlns:xlink="http://www.w3.org/1999/xlink">
 <defs>
  <style type="text/css">
*{stroke-linecap:butt;stroke-linejoin:round;}
  </style>
 </defs>
 <g id="figure_1">
  <g id="patch_1">
   <path d="M 0 201.6 
L 187.2 201.6 
L 187.2 0 
L 0 0 
z
" style="fill:#ffffff;"/>
  </g>
  <g id="axes_1">
   <g id="patch_2">
    <path d="M 64.65 155.8 
L 168.4625 155.8 
L 168.4625 26.8 
L 64.65 26.8 
z
" style="fill:#ffffff;"/>
   </g>
   <g id="PathCollection_1"/>
   <g id="PathCollection_2">
    <path clip-path="url(#p3754735c29)" d="M 64.65 154.483673 
L 64.65 153.167347 
L 64.65 151.85102 
L 64.65 150.534694 
L 64.65 149.218367 
L 64.65 147.902041 
L 64.65 146.585714 
L 64.65 145.269388 
L 64.65 143.953061 
L 64.65 143.817943 
L 64.995542 143.953061 
L 65.709311 144.235929 
L 66.768622 144.649324 
L 67.827934 145.058331 
L 68.383534 145.269388 
L 68.887245 145.463135 
L 69.946556 145.863912 
L 71.005867 146.260823 
L 71.882925 146.585714 
L 72.065179 146.65402 
L 73.12449 147.043646 
L 74.183801 147.429833 
L 75.243112 147.812705 
L 75.494423 147.902041 
L 76.302423 148.192382 
L 77.361735 148.568972 
L 78.421046 148.942581 
L 79.21113 149.218367 
L 79.480357 149.313308 
L 80.539668 149.681244 
L 81.59898 150.04648 
L 82.658291 150.409098 
L 83.030074 150.534694 
L 83.717602 150.769178 
L 84.776913 151.126795 
L 85.836224 151.482021 
L 86.895536 151.834924 
L 86.944579 151.85102 
L 87.954847 152.18557 
L 89.014158 152.53402 
L 90.073469 152.880333 
L 90.957949 153.167347 
L 91.132781 153.224567 
L 92.192092 153.566775 
L 93.251403 153.907009 
L 94.310714 154.245319 
L 95.062975 154.483673 
L 95.370026 154.581752 
L 96.429337 154.916354 
L 97.488648 155.249168 
L 98.547959 155.580237 
L 99.25657 155.8 
L 98.547959 155.8 
L 97.488648 155.8 
L 96.429337 155.8 
L 95.370026 155.8 
L 94.310714 155.8 
L 93.251403 155.8 
L 92.192092 155.8 
L 91.132781 155.8 
L 90.073469 155.8 
L 89.014158 155.8 
L 87.954847 155.8 
L 86.895536 155.8 
L 85.836224 155.8 
L 84.776913 155.8 
L 83.717602 155.8 
L 82.658291 155.8 
L 81.59898 155.8 
L 80.539668 155.8 
L 79.480357 155.8 
L 78.421046 155.8 
L 77.361735 155.8 
L 76.302423 155.8 
L 75.243112 155.8 
L 74.183801 155.8 
L 73.12449 155.8 
L 72.065179 155.8 
L 71.005867 155.8 
L 69.946556 155.8 
L 68.887245 155.8 
L 67.827934 155.8 
L 66.768622 155.8 
L 65.709311 155.8 
L 64.65 155.8 
z
" style="fill:#d9e8f5;"/>
   </g>
   <g id="PathCollection_3">
    <path clip-path="url(#p3754735c29)" d="M 64.995542 143.953061 
L 64.65 143.817943 
L 64.65 142.636735 
L 64.65 141.320408 
L 64.65 140.004082 
L 64.65 138.687755 
L 64.65 137.371429 
L 64.65 136.055102 
L 64.65 134.738776 
L 64.65 133.422449 
L 64.65 132.106122 
L 64.65 130.789796 
L 64.65 129.473469 
L 64.65 128.308972 
L 65.709311 128.517964 
L 66.768622 128.724662 
L 67.827934 128.929165 
L 68.887245 129.131568 
L 69.946556 129.331956 
L 70.704503 129.473469 
L 71.005867 129.530412 
L 72.065179 129.72701 
L 73.12449 129.921823 
L 74.183801 130.114916 
L 75.243112 130.306353 
L 76.302423 130.496191 
L 77.361735 130.684486 
L 77.96162 130.789796 
L 78.421046 130.871291 
L 79.480357 131.056654 
L 80.539668 131.240622 
L 81.59898 131.42324 
L 82.658291 131.604549 
L 83.717602 131.784589 
L 84.776913 131.963397 
L 85.629685 132.106122 
L 85.836224 132.14101 
L 86.895536 132.317462 
L 87.954847 132.492785 
L 89.014158 132.66701 
L 90.073469 132.840167 
L 91.132781 133.012284 
L 92.192092 133.183388 
L 93.251403 133.353505 
L 93.685256 133.422449 
L 94.310714 133.52266 
L 95.370026 133.690876 
L 96.429337 133.858177 
L 97.488648 134.024584 
L 98.547959 134.190119 
L 99.60727 134.3548 
L 100.666582 134.518649 
L 101.725893 134.681683 
L 102.100457 134.738776 
L 102.785204 134.843921 
L 103.844515 135.005379 
L 104.903827 135.166075 
L 105.963138 135.326024 
L 107.022449 135.485243 
L 108.08176 135.643746 
L 109.141071 135.801547 
L 110.200383 135.95866 
L 110.855109 136.055102 
L 111.259694 136.1151 
L 112.319005 136.270879 
L 113.378316 136.42601 
L 114.437628 136.580504 
L 115.496939 136.734375 
L 116.55625 136.887633 
L 117.615561 137.04029 
L 118.674872 137.192356 
L 119.734184 137.343841 
L 119.928797 137.371429 
L 120.793495 137.494757 
L 121.852806 137.645112 
L 122.912117 137.794917 
L 123.971429 137.944181 
L 125.03074 138.092912 
L 126.090051 138.24112 
L 127.149362 138.388813 
L 128.208673 138.536 
L 129.267985 138.682687 
L 129.304904 138.687755 
L 130.327296 138.828885 
L 131.386607 138.974599 
L 132.445918 139.119838 
L 133.50523 139.264608 
L 134.564541 139.408918 
L 135.623852 139.552773 
L 136.683163 139.69618 
L 137.742474 139.839147 
L 138.801786 139.981678 
L 138.969525 140.004082 
L 139.861097 140.123782 
L 140.920408 140.265463 
L 141.979719 140.406728 
L 143.039031 140.547583 
L 144.098342 140.688032 
L 145.157653 140.828082 
L 146.216964 140.967739 
L 147.276276 141.107007 
L 148.335587 141.245891 
L 148.906784 141.320408 
L 149.394898 141.384397 
L 150.454209 141.522529 
L 151.51352 141.660293 
L 152.572832 141.797693 
L 153.632143 141.934733 
L 154.691454 142.071419 
L 155.750765 142.207754 
L 156.810077 142.343744 
L 157.869388 142.479391 
L 158.928699 142.614701 
L 159.102274 142.636735 
L 159.98801 142.749678 
L 161.047321 142.884325 
L 162.106633 143.018646 
L 163.165944 143.152645 
L 164.225255 143.286326 
L 165.284566 143.419693 
L 166.343878 143.552749 
L 167.403189 143.685498 
L 168.4625 143.817943 
L 168.4625 143.953061 
L 168.4625 145.269388 
L 168.4625 146.585714 
L 168.4625 147.902041 
L 168.4625 149.218367 
L 168.4625 150.534694 
L 168.4625 151.85102 
L 168.4625 153.167347 
L 168.4625 154.483673 
L 168.4625 155.8 
L 167.403189 155.8 
L 166.343878 155.8 
L 165.284566 155.8 
L 164.225255 155.8 
L 163.165944 155.8 
L 162.106633 155.8 
L 161.047321 155.8 
L 159.98801 155.8 
L 158.928699 155.8 
L 157.869388 155.8 
L 156.810077 155.8 
L 155.750765 155.8 
L 154.691454 155.8 
L 153.632143 155.8 
L 152.572832 155.8 
L 151.51352 155.8 
L 150.454209 155.8 
L 149.394898 155.8 
L 148.335587 155.8 
L 147.276276 155.8 
L 146.216964 155.8 
L 145.157653 155.8 
L 144.098342 155.8 
L 143.039031 155.8 
L 141.979719 155.8 
L 140.920408 155.8 
L 139.861097 155.8 
L 138.801786 155.8 
L 137.742474 155.8 
L 136.683163 155.8 
L 135.623852 155.8 
L 134.564541 155.8 
L 133.50523 155.8 
L 132.445918 155.8 
L 131.386607 155.8 
L 130.327296 155.8 
L 129.267985 155.8 
L 128.208673 155.8 
L 127.149362 155.8 
L 126.090051 155.8 
L 125.03074 155.8 
L 123.971429 155.8 
L 122.912117 155.8 
L 121.852806 155.8 
L 120.793495 155.8 
L 119.734184 155.8 
L 118.674872 155.8 
L 117.615561 155.8 
L 116.55625 155.8 
L 115.496939 155.8 
L 114.437628 155.8 
L 113.378316 155.8 
L 112.319005 155.8 
L 111.259694 155.8 
L 110.200383 155.8 
L 109.141071 155.8 
L 108.08176 155.8 
L 107.022449 155.8 
L 105.963138 155.8 
L 104.903827 155.8 
L 103.844515 155.8 
L 102.785204 155.8 
L 101.725893 155.8 
L 100.666582 155.8 
L 99.60727 155.8 
L 99.25657 155.8 
L 98.547959 155.580237 
L 97.488648 155.249168 
L 96.429337 154.916354 
L 95.370026 154.581752 
L 95.062975 154.483673 
L 94.310714 154.245319 
L 93.251403 153.907009 
L 92.192092 153.566775 
L 91.132781 153.224567 
L 90.957949 153.167347 
L 90.073469 152.880333 
L 89.014158 152.53402 
L 87.954847 152.18557 
L 86.944579 151.85102 
L 86.895536 151.834924 
L 85.836224 151.482021 
L 84.776913 151.126795 
L 83.717602 150.769178 
L 83.030074 150.534694 
L 82.658291 150.409098 
L 81.59898 150.04648 
L 80.539668 149.681244 
L 79.480357 149.313308 
L 79.21113 149.218367 
L 78.421046 148.942581 
L 77.361735 148.568972 
L 76.302423 148.192382 
L 75.494423 147.902041 
L 75.243112 147.812705 
L 74.183801 147.429833 
L 73.12449 147.043646 
L 72.065179 146.65402 
L 71.882925 146.585714 
L 71.005867 146.260823 
L 69.946556 145.863912 
L 68.887245 145.463135 
L 68.383534 145.269388 
L 67.827934 145.058331 
L 66.768622 144.649324 
L 65.709311 144.235929 
z
" style="fill:#c6dbef;"/>
   </g>
   <g id="PathCollection_4">
    <path clip-path="url(#p3754735c29)" d="M 64.65 128.157143 
L 64.65 126.840816 
L 64.65 125.52449 
L 64.65 124.208163 
L 64.65 122.891837 
L 64.65 121.57551 
L 64.65 120.259184 
L 64.65 118.942857 
L 64.65 117.626531 
L 64.65 116.310204 
L 64.65 114.993878 
L 64.65 113.677551 
L 64.65 112.8 
L 65.709311 112.8 
L 66.768622 112.8 
L 67.827934 112.8 
L 68.887245 112.8 
L 69.946556 112.8 
L 71.005867 112.8 
L 72.065179 112.8 
L 73.12449 112.8 
L 74.183801 112.8 
L 75.243112 112.8 
L 76.302423 112.8 
L 77.361735 112.8 
L 78.421046 112.8 
L 79.480357 112.8 
L 80.539668 112.8 
L 81.59898 112.8 
L 82.658291 112.8 
L 83.717602 112.8 
L 84.776913 112.8 
L 85.836224 112.8 
L 86.895536 112.8 
L 87.954847 112.8 
L 89.014158 112.8 
L 90.073469 112.8 
L 91.132781 112.8 
L 92.192092 112.8 
L 93.251403 112.8 
L 94.310714 112.8 
L 95.370026 112.8 
L 96.429337 112.8 
L 97.488648 112.8 
L 98.547959 112.8 
L 99.60727 112.8 
L 100.666582 112.8 
L 101.725893 112.8 
L 102.785204 112.8 
L 103.844515 112.8 
L 104.903827 112.8 
L 105.963138 112.8 
L 107.022449 112.8 
L 108.08176 112.8 
L 109.141071 112.8 
L 110.200383 112.8 
L 111.259694 112.8 
L 112.319005 112.8 
L 113.378316 112.8 
L 114.437628 112.8 
L 115.496939 112.8 
L 116.55625 112.8 
L 117.615561 112.8 
L 118.674872 112.8 
L 119.734184 112.8 
L 120.793495 112.8 
L 121.852806 112.8 
L 122.912117 112.8 
L 123.971429 112.8 
L 125.03074 112.8 
L 126.090051 112.8 
L 127.149362 112.8 
L 128.208673 112.8 
L 129.267985 112.8 
L 130.327296 112.8 
L 131.386607 112.8 
L 132.445918 112.8 
L 133.50523 112.8 
L 134.564541 112.8 
L 135.623852 112.8 
L 136.683163 112.8 
L 137.742474 112.8 
L 138.801786 112.8 
L 139.861097 112.8 
L 140.920408 112.8 
L 141.979719 112.8 
L 143.039031 112.8 
L 144.098342 112.8 
L 145.157653 112.8 
L 146.216964 112.8 
L 147.276276 112.8 
L 148.335587 112.8 
L 149.394898 112.8 
L 150.454209 112.8 
L 151.51352 112.8 
L 152.572832 112.8 
L 153.632143 112.8 
L 154.691454 112.8 
L 155.750765 112.8 
L 156.810077 112.8 
L 157.869388 112.8 
L 158.928699 112.8 
L 159.98801 112.8 
L 161.047321 112.8 
L 162.106633 112.8 
L 163.165944 112.8 
L 164.225255 112.8 
L 165.284566 112.8 
L 166.343878 112.8 
L 167.403189 112.8 
L 168.4625 112.8 
L 168.4625 113.677551 
L 168.4625 114.993878 
L 168.4625 116.310204 
L 168.4625 117.626531 
L 168.4625 118.942857 
L 168.4625 120.259184 
L 168.4625 121.57551 
L 168.4625 122.891837 
L 168.4625 124.208163 
L 168.4625 125.52449 
L 168.4625 126.840816 
L 168.4625 128.157143 
L 168.4625 129.473469 
L 168.4625 130.789796 
L 168.4625 132.106122 
L 168.4625 133.422449 
L 168.4625 134.738776 
L 168.4625 136.055102 
L 168.4625 137.371429 
L 168.4625 138.687755 
L 168.4625 140.004082 
L 168.4625 141.320408 
L 168.4625 142.636735 
L 168.4625 143.817943 
L 167.403189 143.685498 
L 166.343878 143.552749 
L 165.284566 143.419693 
L 164.225255 143.286326 
L 163.165944 143.152645 
L 162.106633 143.018646 
L 161.047321 142.884325 
L 159.98801 142.749678 
L 159.102274 142.636735 
L 158.928699 142.614701 
L 157.869388 142.479391 
L 156.810077 142.343744 
L 155.750765 142.207754 
L 154.691454 142.071419 
L 153.632143 141.934733 
L 152.572832 141.797693 
L 151.51352 141.660293 
L 150.454209 141.522529 
L 149.394898 141.384397 
L 148.906784 141.320408 
L 148.335587 141.245891 
L 147.276276 141.107007 
L 146.216964 140.967739 
L 145.157653 140.828082 
L 144.098342 140.688032 
L 143.039031 140.547583 
L 141.979719 140.406728 
L 140.920408 140.265463 
L 139.861097 140.123782 
L 138.969525 140.004082 
L 138.801786 139.981678 
L 137.742474 139.839147 
L 136.683163 139.69618 
L 135.623852 139.552773 
L 134.564541 139.408918 
L 133.50523 139.264608 
L 132.445918 139.119838 
L 131.386607 138.974599 
L 130.327296 138.828885 
L 129.304904 138.687755 
L 129.267985 138.682687 
L 128.208673 138.536 
L 127.149362 138.388813 
L 126.090051 138.24112 
L 125.03074 138.092912 
L 123.971429 137.944181 
L 122.912117 137.794917 
L 121.852806 137.645112 
L 120.793495 137.494757 
L 119.928797 137.371429 
L 119.734184 137.343841 
L 118.674872 137.192356 
L 117.615561 137.04029 
L 116.55625 136.887633 
L 115.496939 136.734375 
L 114.437628 136.580504 
L 113.378316 136.42601 
L 112.319005 136.270879 
L 111.259694 136.1151 
L 110.855109 136.055102 
L 110.200383 135.95866 
L 109.141071 135.801547 
L 108.08176 135.643746 
L 107.022449 135.485243 
L 105.963138 135.326024 
L 104.903827 135.166075 
L 103.844515 135.005379 
L 102.785204 134.843921 
L 102.100457 134.738776 
L 101.725893 134.681683 
L 100.666582 134.518649 
L 99.60727 134.3548 
L 98.547959 134.190119 
L 97.488648 134.024584 
L 96.429337 133.858177 
L 95.370026 133.690876 
L 94.310714 133.52266 
L 93.685256 133.422449 
L 93.251403 133.353505 
L 92.192092 133.183388 
L 91.132781 133.012284 
L 90.073469 132.840167 
L 89.014158 132.66701 
L 87.954847 132.492785 
L 86.895536 132.317462 
L 85.836224 132.14101 
L 85.629685 132.106122 
L 84.776913 131.963397 
L 83.717602 131.784589 
L 82.658291 131.604549 
L 81.59898 131.42324 
L 80.539668 131.240622 
L 79.480357 131.056654 
L 78.421046 130.871291 
L 77.96162 130.789796 
L 77.361735 130.684486 
L 76.302423 130.496191 
L 75.243112 130.306353 
L 74.183801 130.114916 
L 73.12449 129.921823 
L 72.065179 129.72701 
L 71.005867 129.530412 
L 70.704503 129.473469 
L 69.946556 129.331956 
L 68.887245 129.131568 
L 67.827934 128.929165 
L 66.768622 128.724662 
L 65.709311 128.517964 
L 64.65 128.308972 
z
" style="fill:#a6cee4;"/>
   </g>
   <g id="PathCollection_5">
    <path clip-path="url(#p3754735c29)" d="M 64.65 112.361224 
L 64.65 111.044898 
L 64.65 109.728571 
L 64.65 108.412245 
L 64.65 107.095918 
L 64.65 105.779592 
L 64.65 104.463265 
L 64.65 103.146939 
L 64.65 101.830612 
L 64.65 100.514286 
L 64.65 99.197959 
L 64.65 97.881633 
L 64.65 97.291028 
L 65.709311 97.082036 
L 66.768622 96.875338 
L 67.827934 96.670835 
L 68.383534 96.565306 
L 68.887245 96.468432 
L 69.946556 96.268044 
L 71.005867 96.069588 
L 72.065179 95.87299 
L 73.12449 95.678177 
L 74.183801 95.485084 
L 75.243112 95.293647 
L 75.494423 95.24898 
L 76.302423 95.103809 
L 77.361735 94.915514 
L 78.421046 94.728709 
L 79.480357 94.543346 
L 80.539668 94.359378 
L 81.59898 94.17676 
L 82.658291 93.995451 
L 83.030074 93.932653 
L 83.717602 93.815411 
L 84.776913 93.636603 
L 85.836224 93.45899 
L 86.895536 93.282538 
L 87.954847 93.107215 
L 89.014158 92.93299 
L 90.073469 92.759833 
L 90.957949 92.616327 
L 91.132781 92.587716 
L 92.192092 92.416612 
L 93.251403 92.246495 
L 94.310714 92.07734 
L 95.370026 91.909124 
L 96.429337 91.741823 
L 97.488648 91.575416 
L 98.547959 91.409881 
L 99.25657 91.3 
L 99.60727 91.2452 
L 100.666582 91.081351 
L 101.725893 90.918317 
L 102.785204 90.756079 
L 103.844515 90.594621 
L 104.903827 90.433925 
L 105.963138 90.273976 
L 107.022449 90.114757 
L 107.899565 89.983673 
L 108.08176 89.956254 
L 109.141071 89.798453 
L 110.200383 89.64134 
L 111.259694 89.4849 
L 112.319005 89.329121 
L 113.378316 89.17399 
L 114.437628 89.019496 
L 115.496939 88.865625 
L 116.55625 88.712367 
L 116.870045 88.667347 
L 117.615561 88.55971 
L 118.674872 88.407644 
L 119.734184 88.256159 
L 120.793495 88.105243 
L 121.852806 87.954888 
L 122.912117 87.805083 
L 123.971429 87.655819 
L 125.03074 87.507088 
L 126.090051 87.35888 
L 126.146732 87.35102 
L 127.149362 87.211187 
L 128.208673 87.064 
L 129.267985 86.917313 
L 130.327296 86.771115 
L 131.386607 86.625401 
L 132.445918 86.480162 
L 133.50523 86.335392 
L 134.564541 86.191082 
L 135.623852 86.047227 
L 135.716887 86.034694 
L 136.683163 85.90382 
L 137.742474 85.760853 
L 138.801786 85.618322 
L 139.861097 85.476218 
L 140.920408 85.334537 
L 141.979719 85.193272 
L 143.039031 85.052417 
L 144.098342 84.911968 
L 145.157653 84.771918 
L 145.565084 84.718367 
L 146.216964 84.632261 
L 147.276276 84.492993 
L 148.335587 84.354109 
L 149.394898 84.215603 
L 150.454209 84.077471 
L 151.51352 83.939707 
L 152.572832 83.802307 
L 153.632143 83.665267 
L 154.691454 83.528581 
L 155.674986 83.402041 
L 155.750765 83.392246 
L 156.810077 83.256256 
L 157.869388 83.120609 
L 158.928699 82.985299 
L 159.98801 82.850322 
L 161.047321 82.715675 
L 162.106633 82.581354 
L 163.165944 82.447355 
L 164.225255 82.313674 
L 165.284566 82.180307 
L 166.038596 82.085714 
L 166.343878 82.047251 
L 167.403189 81.914502 
L 168.4625 81.782057 
L 168.4625 82.085714 
L 168.4625 83.402041 
L 168.4625 84.718367 
L 168.4625 86.034694 
L 168.4625 87.35102 
L 168.4625 88.667347 
L 168.4625 89.983673 
L 168.4625 91.3 
L 168.4625 92.616327 
L 168.4625 93.932653 
L 168.4625 95.24898 
L 168.4625 96.565306 
L 168.4625 97.881633 
L 168.4625 99.197959 
L 168.4625 100.514286 
L 168.4625 101.830612 
L 168.4625 103.146939 
L 168.4625 104.463265 
L 168.4625 105.779592 
L 168.4625 107.095918 
L 168.4625 108.412245 
L 168.4625 109.728571 
L 168.4625 111.044898 
L 168.4625 112.361224 
L 168.4625 112.8 
L 167.403189 112.8 
L 166.343878 112.8 
L 165.284566 112.8 
L 164.225255 112.8 
L 163.165944 112.8 
L 162.106633 112.8 
L 161.047321 112.8 
L 159.98801 112.8 
L 158.928699 112.8 
L 157.869388 112.8 
L 156.810077 112.8 
L 155.750765 112.8 
L 154.691454 112.8 
L 153.632143 112.8 
L 152.572832 112.8 
L 151.51352 112.8 
L 150.454209 112.8 
L 149.394898 112.8 
L 148.335587 112.8 
L 147.276276 112.8 
L 146.216964 112.8 
L 145.157653 112.8 
L 144.098342 112.8 
L 143.039031 112.8 
L 141.979719 112.8 
L 140.920408 112.8 
L 139.861097 112.8 
L 138.801786 112.8 
L 137.742474 112.8 
L 136.683163 112.8 
L 135.623852 112.8 
L 134.564541 112.8 
L 133.50523 112.8 
L 132.445918 112.8 
L 131.386607 112.8 
L 130.327296 112.8 
L 129.267985 112.8 
L 128.208673 112.8 
L 127.149362 112.8 
L 126.090051 112.8 
L 125.03074 112.8 
L 123.971429 112.8 
L 122.912117 112.8 
L 121.852806 112.8 
L 120.793495 112.8 
L 119.734184 112.8 
L 118.674872 112.8 
L 117.615561 112.8 
L 116.55625 112.8 
L 115.496939 112.8 
L 114.437628 112.8 
L 113.378316 112.8 
L 112.319005 112.8 
L 111.259694 112.8 
L 110.200383 112.8 
L 109.141071 112.8 
L 108.08176 112.8 
L 107.022449 112.8 
L 105.963138 112.8 
L 104.903827 112.8 
L 103.844515 112.8 
L 102.785204 112.8 
L 101.725893 112.8 
L 100.666582 112.8 
L 99.60727 112.8 
L 98.547959 112.8 
L 97.488648 112.8 
L 96.429337 112.8 
L 95.370026 112.8 
L 94.310714 112.8 
L 93.251403 112.8 
L 92.192092 112.8 
L 91.132781 112.8 
L 90.073469 112.8 
L 89.014158 112.8 
L 87.954847 112.8 
L 86.895536 112.8 
L 85.836224 112.8 
L 84.776913 112.8 
L 83.717602 112.8 
L 82.658291 112.8 
L 81.59898 112.8 
L 80.539668 112.8 
L 79.480357 112.8 
L 78.421046 112.8 
L 77.361735 112.8 
L 76.302423 112.8 
L 75.243112 112.8 
L 74.183801 112.8 
L 73.12449 112.8 
L 72.065179 112.8 
L 71.005867 112.8 
L 69.946556 112.8 
L 68.887245 112.8 
L 67.827934 112.8 
L 66.768622 112.8 
L 65.709311 112.8 
L 64.65 112.8 
z
" style="fill:#7fb9da;"/>
   </g>
   <g id="PathCollection_6">
    <path clip-path="url(#p3754735c29)" d="M 64.65 96.565306 
L 64.65 95.24898 
L 64.65 93.932653 
L 64.65 92.616327 
L 64.65 91.3 
L 64.65 89.983673 
L 64.65 88.667347 
L 64.65 87.35102 
L 64.65 86.034694 
L 64.65 84.718367 
L 64.65 83.402041 
L 64.65 82.085714 
L 64.65 81.782057 
L 65.709311 81.364071 
L 66.768622 80.950676 
L 67.24149 80.769388 
L 67.827934 80.541669 
L 68.887245 80.136865 
L 69.946556 79.736088 
L 70.704503 79.453061 
L 71.005867 79.339177 
L 72.065179 78.94598 
L 73.12449 78.556354 
L 74.183801 78.170167 
L 74.277233 78.136735 
L 75.243112 77.787295 
L 76.302423 77.407618 
L 77.361735 77.031028 
L 77.96162 76.820408 
L 78.421046 76.657419 
L 79.480357 76.286692 
L 80.539668 75.918756 
L 81.59898 75.55352 
L 81.744616 75.504082 
L 82.658291 75.190902 
L 83.717602 74.830822 
L 84.776913 74.473205 
L 85.629685 74.187755 
L 85.836224 74.117979 
L 86.895536 73.765076 
L 87.954847 73.41443 
L 89.014158 73.06598 
L 89.611519 72.871429 
L 90.073469 72.719667 
L 91.132781 72.375433 
L 92.192092 72.033225 
L 93.251403 71.692991 
L 93.685256 71.555102 
L 94.310714 71.354681 
L 95.370026 71.018248 
L 96.429337 70.683646 
L 97.488648 70.350832 
L 97.849035 70.238776 
L 98.547959 70.019763 
L 99.60727 69.690399 
L 100.666582 69.362702 
L 101.725893 69.036634 
L 102.100457 68.922449 
L 102.785204 68.712158 
L 103.844515 68.389242 
L 104.903827 68.06785 
L 105.963138 67.747951 
L 106.436788 67.606122 
L 107.022449 67.429514 
L 108.08176 67.112509 
L 109.141071 66.796906 
L 110.200383 66.482679 
L 110.855109 66.289796 
L 111.259694 66.1698 
L 112.319005 65.858242 
L 113.378316 65.54798 
L 114.437628 65.238991 
L 115.352417 64.973469 
L 115.496939 64.93125 
L 116.55625 64.624734 
L 117.615561 64.319421 
L 118.674872 64.015289 
L 119.734184 63.712318 
L 119.928797 63.657143 
L 120.793495 63.410486 
L 121.852806 63.109775 
L 122.912117 62.810165 
L 123.971429 62.511638 
L 124.581279 62.340816 
L 125.03074 62.214176 
L 126.090051 61.91776 
L 127.149362 61.622374 
L 128.208673 61.328001 
L 129.267985 61.034625 
L 129.304904 61.02449 
L 130.327296 60.742231 
L 131.386607 60.450802 
L 132.445918 60.160325 
L 133.50523 59.870784 
L 134.103508 59.708163 
L 134.564541 59.582165 
L 135.623852 59.294455 
L 136.683163 59.00764 
L 137.742474 58.721707 
L 138.801786 58.436643 
L 138.969525 58.391837 
L 139.861097 58.152436 
L 140.920408 57.869074 
L 141.979719 57.586544 
L 143.039031 57.304835 
L 143.904647 57.07551 
L 144.098342 57.023936 
L 145.157653 56.743835 
L 146.216964 56.464522 
L 147.276276 56.185987 
L 148.335587 55.908218 
L 148.906784 55.759184 
L 149.394898 55.631207 
L 150.454209 55.354942 
L 151.51352 55.079414 
L 152.572832 54.804615 
L 153.632143 54.530534 
L 153.972969 54.442857 
L 154.691454 54.257162 
L 155.750765 53.984491 
L 156.810077 53.712513 
L 157.869388 53.441217 
L 158.928699 53.170597 
L 159.102274 53.126531 
L 159.98801 52.900645 
L 161.047321 52.631351 
L 162.106633 52.362708 
L 163.165944 52.09471 
L 164.225255 51.827347 
L 164.293615 51.810204 
L 165.284566 51.560613 
L 166.343878 51.294501 
L 167.403189 51.029003 
L 168.4625 50.764113 
L 168.4625 51.810204 
L 168.4625 53.126531 
L 168.4625 54.442857 
L 168.4625 55.759184 
L 168.4625 57.07551 
L 168.4625 58.391837 
L 168.4625 59.708163 
L 168.4625 61.02449 
L 168.4625 62.340816 
L 168.4625 63.657143 
L 168.4625 64.973469 
L 168.4625 66.289796 
L 168.4625 67.606122 
L 168.4625 68.922449 
L 168.4625 70.238776 
L 168.4625 71.555102 
L 168.4625 72.871429 
L 168.4625 74.187755 
L 168.4625 75.504082 
L 168.4625 76.820408 
L 168.4625 78.136735 
L 168.4625 79.453061 
L 168.4625 80.769388 
L 168.4625 81.782057 
L 167.403189 81.914502 
L 166.343878 82.047251 
L 166.038596 82.085714 
L 165.284566 82.180307 
L 164.225255 82.313674 
L 163.165944 82.447355 
L 162.106633 82.581354 
L 161.047321 82.715675 
L 159.98801 82.850322 
L 158.928699 82.985299 
L 157.869388 83.120609 
L 156.810077 83.256256 
L 155.750765 83.392246 
L 155.674986 83.402041 
L 154.691454 83.528581 
L 153.632143 83.665267 
L 152.572832 83.802307 
L 151.51352 83.939707 
L 150.454209 84.077471 
L 149.394898 84.215603 
L 148.335587 84.354109 
L 147.276276 84.492993 
L 146.216964 84.632261 
L 145.565084 84.718367 
L 145.157653 84.771918 
L 144.098342 84.911968 
L 143.039031 85.052417 
L 141.979719 85.193272 
L 140.920408 85.334537 
L 139.861097 85.476218 
L 138.801786 85.618322 
L 137.742474 85.760853 
L 136.683163 85.90382 
L 135.716887 86.034694 
L 135.623852 86.047227 
L 134.564541 86.191082 
L 133.50523 86.335392 
L 132.445918 86.480162 
L 131.386607 86.625401 
L 130.327296 86.771115 
L 129.267985 86.917313 
L 128.208673 87.064 
L 127.149362 87.211187 
L 126.146732 87.35102 
L 126.090051 87.35888 
L 125.03074 87.507088 
L 123.971429 87.655819 
L 122.912117 87.805083 
L 121.852806 87.954888 
L 120.793495 88.105243 
L 119.734184 88.256159 
L 118.674872 88.407644 
L 117.615561 88.55971 
L 116.870045 88.667347 
L 116.55625 88.712367 
L 115.496939 88.865625 
L 114.437628 89.019496 
L 113.378316 89.17399 
L 112.319005 89.329121 
L 111.259694 89.4849 
L 110.200383 89.64134 
L 109.141071 89.798453 
L 108.08176 89.956254 
L 107.899565 89.983673 
L 107.022449 90.114757 
L 105.963138 90.273976 
L 104.903827 90.433925 
L 103.844515 90.594621 
L 102.785204 90.756079 
L 101.725893 90.918317 
L 100.666582 91.081351 
L 99.60727 91.2452 
L 99.25657 91.3 
L 98.547959 91.409881 
L 97.488648 91.575416 
L 96.429337 91.741823 
L 95.370026 91.909124 
L 94.310714 92.07734 
L 93.251403 92.246495 
L 92.192092 92.416612 
L 91.132781 92.587716 
L 90.957949 92.616327 
L 90.073469 92.759833 
L 89.014158 92.93299 
L 87.954847 93.107215 
L 86.895536 93.282538 
L 85.836224 93.45899 
L 84.776913 93.636603 
L 83.717602 93.815411 
L 83.030074 93.932653 
L 82.658291 93.995451 
L 81.59898 94.17676 
L 80.539668 94.359378 
L 79.480357 94.543346 
L 78.421046 94.728709 
L 77.361735 94.915514 
L 76.302423 95.103809 
L 75.494423 95.24898 
L 75.243112 95.293647 
L 74.183801 95.485084 
L 73.12449 95.678177 
L 72.065179 95.87299 
L 71.005867 96.069588 
L 69.946556 96.268044 
L 68.887245 96.468432 
L 68.383534 96.565306 
L 67.827934 96.670835 
L 66.768622 96.875338 
L 65.709311 97.082036 
L 64.65 97.291028 
z
" style="fill:#5ba3d0;"/>
   </g>
   <g id="PathCollection_7">
    <path clip-path="url(#p3754735c29)" d="M 64.65 80.769388 
L 64.65 79.453061 
L 64.65 78.136735 
L 64.65 76.820408 
L 64.65 75.504082 
L 64.65 74.187755 
L 64.65 72.871429 
L 64.65 71.555102 
L 64.65 70.238776 
L 64.65 68.922449 
L 64.65 67.606122 
L 64.65 66.289796 
L 64.65 66.273085 
L 65.709311 65.646107 
L 66.768622 65.026014 
L 66.860412 64.973469 
L 67.827934 64.412504 
L 68.887245 63.805297 
L 69.150714 63.657143 
L 69.946556 63.204132 
L 71.005867 62.608765 
L 71.490191 62.340816 
L 72.065179 62.018969 
L 73.12449 61.434531 
L 73.876771 61.02449 
L 74.183801 60.855251 
L 75.243112 60.280942 
L 76.302423 59.711428 
L 76.30861 59.708163 
L 77.361735 59.146542 
L 78.421046 58.586128 
L 78.793618 58.391837 
L 79.480357 58.030039 
L 80.539668 57.478133 
L 81.320196 57.07551 
L 81.59898 56.93028 
L 82.658291 56.386353 
L 83.717602 55.846233 
L 83.890858 55.759184 
L 84.776913 55.309808 
L 85.836224 54.776969 
L 86.507064 54.442857 
L 86.895536 54.247614 
L 87.954847 53.721645 
L 89.014158 53.19897 
L 89.162985 53.126531 
L 90.073469 52.6795 
L 91.132781 52.163149 
L 91.863061 51.810204 
L 92.192092 51.649837 
L 93.251403 51.139486 
L 94.310714 50.632021 
L 94.602397 50.493878 
L 95.370026 50.127371 
L 96.429337 49.625469 
L 97.380552 49.177551 
L 97.488648 49.126247 
L 98.547959 48.629644 
L 99.60727 48.135599 
L 100.200541 47.861224 
L 100.666582 47.644053 
L 101.725893 47.15495 
L 102.785204 46.668238 
L 103.056413 46.544898 
L 103.844515 46.183862 
L 104.903827 45.701775 
L 105.948571 45.228571 
L 105.963138 45.221927 
L 107.022449 44.744271 
L 108.08176 44.268763 
L 108.880877 43.912245 
L 109.141071 43.79536 
L 110.200383 43.324019 
L 111.259694 42.854699 
L 111.848015 42.595918 
L 112.319005 42.387363 
L 113.378316 41.921971 
L 114.437628 41.458487 
L 114.84978 41.279592 
L 115.496939 40.996875 
L 116.55625 40.537101 
L 117.615561 40.079131 
L 117.885864 39.963265 
L 118.674872 39.622933 
L 119.734184 39.168476 
L 120.793495 38.715729 
L 120.95588 38.646939 
L 121.852806 38.264663 
L 122.912117 37.815248 
L 123.971429 37.367457 
L 124.059377 37.330612 
L 125.03074 36.921263 
L 126.090051 36.47664 
L 127.149362 36.033561 
L 127.195857 36.014286 
L 128.208673 35.592001 
L 129.267985 35.151938 
L 130.327296 34.713346 
L 130.364783 34.697959 
L 131.386607 34.276203 
L 132.445918 33.840487 
L 133.50523 33.406175 
L 133.565591 33.381633 
L 134.564541 32.973247 
L 135.623852 32.541682 
L 136.683163 32.11146 
L 136.797696 32.065306 
L 137.742474 31.68256 
L 138.801786 31.254965 
L 139.861097 30.828654 
L 140.060501 30.74898 
L 140.920408 30.40361 
L 141.979719 29.979815 
L 143.039031 29.557252 
L 143.3534 29.432653 
L 144.098342 29.135903 
L 145.157653 28.715753 
L 146.216964 28.296784 
L 146.675783 28.116327 
L 147.276276 27.87898 
L 148.335587 27.462328 
L 149.394898 27.04681 
L 150.027041 26.8 
L 150.454209 26.8 
L 151.51352 26.8 
L 152.572832 26.8 
L 153.632143 26.8 
L 154.691454 26.8 
L 155.750765 26.8 
L 156.810077 26.8 
L 157.869388 26.8 
L 158.928699 26.8 
L 159.98801 26.8 
L 161.047321 26.8 
L 162.106633 26.8 
L 163.165944 26.8 
L 164.225255 26.8 
L 165.284566 26.8 
L 166.343878 26.8 
L 167.403189 26.8 
L 168.4625 26.8 
L 168.4625 28.116327 
L 168.4625 29.432653 
L 168.4625 30.74898 
L 168.4625 32.065306 
L 168.4625 33.381633 
L 168.4625 34.697959 
L 168.4625 36.014286 
L 168.4625 37.330612 
L 168.4625 38.646939 
L 168.4625 39.963265 
L 168.4625 41.279592 
L 168.4625 42.595918 
L 168.4625 43.912245 
L 168.4625 45.228571 
L 168.4625 46.544898 
L 168.4625 47.861224 
L 168.4625 49.177551 
L 168.4625 50.493878 
L 168.4625 50.764113 
L 167.403189 51.029003 
L 166.343878 51.294501 
L 165.284566 51.560613 
L 164.293615 51.810204 
L 164.225255 51.827347 
L 163.165944 52.09471 
L 162.106633 52.362708 
L 161.047321 52.631351 
L 159.98801 52.900645 
L 159.102274 53.126531 
L 158.928699 53.170597 
L 157.869388 53.441217 
L 156.810077 53.712513 
L 155.750765 53.984491 
L 154.691454 54.257162 
L 153.972969 54.442857 
L 153.632143 54.530534 
L 152.572832 54.804615 
L 151.51352 55.079414 
L 150.454209 55.354942 
L 149.394898 55.631207 
L 148.906784 55.759184 
L 148.335587 55.908218 
L 147.276276 56.185987 
L 146.216964 56.464522 
L 145.157653 56.743835 
L 144.098342 57.023936 
L 143.904647 57.07551 
L 143.039031 57.304835 
L 141.979719 57.586544 
L 140.920408 57.869074 
L 139.861097 58.152436 
L 138.969525 58.391837 
L 138.801786 58.436643 
L 137.742474 58.721707 
L 136.683163 59.00764 
L 135.623852 59.294455 
L 134.564541 59.582165 
L 134.103508 59.708163 
L 133.50523 59.870784 
L 132.445918 60.160325 
L 131.386607 60.450802 
L 130.327296 60.742231 
L 129.304904 61.02449 
L 129.267985 61.034625 
L 128.208673 61.328001 
L 127.149362 61.622374 
L 126.090051 61.91776 
L 125.03074 62.214176 
L 124.581279 62.340816 
L 123.971429 62.511638 
L 122.912117 62.810165 
L 121.852806 63.109775 
L 120.793495 63.410486 
L 119.928797 63.657143 
L 119.734184 63.712318 
L 118.674872 64.015289 
L 117.615561 64.319421 
L 116.55625 64.624734 
L 115.496939 64.93125 
L 115.352417 64.973469 
L 114.437628 65.238991 
L 113.378316 65.54798 
L 112.319005 65.858242 
L 111.259694 66.1698 
L 110.855109 66.289796 
L 110.200383 66.482679 
L 109.141071 66.796906 
L 108.08176 67.112509 
L 107.022449 67.429514 
L 106.436788 67.606122 
L 105.963138 67.747951 
L 104.903827 68.06785 
L 103.844515 68.389242 
L 102.785204 68.712158 
L 102.100457 68.922449 
L 101.725893 69.036634 
L 100.666582 69.362702 
L 99.60727 69.690399 
L 98.547959 70.019763 
L 97.849035 70.238776 
L 97.488648 70.350832 
L 96.429337 70.683646 
L 95.370026 71.018248 
L 94.310714 71.354681 
L 93.685256 71.555102 
L 93.251403 71.692991 
L 92.192092 72.033225 
L 91.132781 72.375433 
L 90.073469 72.719667 
L 89.611519 72.871429 
L 89.014158 73.06598 
L 87.954847 73.41443 
L 86.895536 73.765076 
L 85.836224 74.117979 
L 85.629685 74.187755 
L 84.776913 74.473205 
L 83.717602 74.830822 
L 82.658291 75.190902 
L 81.744616 75.504082 
L 81.59898 75.55352 
L 80.539668 75.918756 
L 79.480357 76.286692 
L 78.421046 76.657419 
L 77.96162 76.820408 
L 77.361735 77.031028 
L 76.302423 77.407618 
L 75.243112 77.787295 
L 74.277233 78.136735 
L 74.183801 78.170167 
L 73.12449 78.556354 
L 72.065179 78.94598 
L 71.005867 79.339177 
L 70.704503 79.453061 
L 69.946556 79.736088 
L 68.887245 80.136865 
L 67.827934 80.541669 
L 67.24149 80.769388 
L 66.768622 80.950676 
L 65.709311 81.364071 
L 64.65 81.782057 
z
" style="fill:#3b8bc2;"/>
   </g>
   <g id="PathCollection_8">
    <path clip-path="url(#p3754735c29)" d="M 64.65 64.973469 
L 64.65 63.657143 
L 64.65 62.340816 
L 64.65 61.02449 
L 64.65 59.708163 
L 64.65 58.391837 
L 64.65 57.07551 
L 64.65 55.759184 
L 64.65 54.442857 
L 64.65 53.126531 
L 64.65 51.810204 
L 64.65 50.764113 
L 64.995542 50.493878 
L 65.709311 49.928142 
L 66.672145 49.177551 
L 66.768622 49.101352 
L 67.827934 48.283339 
L 68.383534 47.861224 
L 68.887245 47.47373 
L 69.946556 46.672176 
L 70.118111 46.544898 
L 71.005867 45.878354 
L 71.882925 45.228571 
L 72.065179 45.091959 
L 73.12449 44.312708 
L 73.676691 43.912245 
L 74.183801 43.540335 
L 75.243112 42.774589 
L 75.494423 42.595918 
L 76.302423 42.015237 
L 77.337325 41.279592 
L 77.361735 41.262056 
L 78.421046 40.514838 
L 79.21113 39.963265 
L 79.480357 39.773385 
L 80.539668 39.037511 
L 81.108663 38.646939 
L 81.59898 38.30704 
L 82.658291 37.581804 
L 83.030074 37.330612 
L 83.717602 36.861644 
L 84.776913 36.14641 
L 84.9754 36.014286 
L 85.836224 35.435958 
L 86.895536 34.730152 
L 86.944579 34.697959 
L 87.954847 34.02886 
L 88.93927 33.381633 
L 89.014158 33.33196 
L 90.073469 32.639333 
L 90.957949 32.065306 
L 91.132781 31.950866 
L 92.192092 31.266449 
L 92.999257 30.74898 
L 93.251403 30.585981 
L 94.310714 29.909361 
L 95.062975 29.432653 
L 95.370026 29.236495 
L 96.429337 28.567292 
L 97.148842 28.116327 
L 97.488648 27.901663 
L 98.547959 27.239526 
L 99.25657 26.8 
L 99.60727 26.8 
L 100.666582 26.8 
L 101.725893 26.8 
L 102.785204 26.8 
L 103.844515 26.8 
L 104.903827 26.8 
L 105.963138 26.8 
L 107.022449 26.8 
L 108.08176 26.8 
L 109.141071 26.8 
L 110.200383 26.8 
L 111.259694 26.8 
L 112.319005 26.8 
L 113.378316 26.8 
L 114.437628 26.8 
L 115.496939 26.8 
L 116.55625 26.8 
L 117.615561 26.8 
L 118.674872 26.8 
L 119.734184 26.8 
L 120.793495 26.8 
L 121.852806 26.8 
L 122.912117 26.8 
L 123.971429 26.8 
L 125.03074 26.8 
L 126.090051 26.8 
L 127.149362 26.8 
L 128.208673 26.8 
L 129.267985 26.8 
L 130.327296 26.8 
L 131.386607 26.8 
L 132.445918 26.8 
L 133.50523 26.8 
L 134.564541 26.8 
L 135.623852 26.8 
L 136.683163 26.8 
L 137.742474 26.8 
L 138.801786 26.8 
L 139.861097 26.8 
L 140.920408 26.8 
L 141.979719 26.8 
L 143.039031 26.8 
L 144.098342 26.8 
L 145.157653 26.8 
L 146.216964 26.8 
L 147.276276 26.8 
L 148.335587 26.8 
L 149.394898 26.8 
L 150.027041 26.8 
L 149.394898 27.04681 
L 148.335587 27.462328 
L 147.276276 27.87898 
L 146.675783 28.116327 
L 146.216964 28.296784 
L 145.157653 28.715753 
L 144.098342 29.135903 
L 143.3534 29.432653 
L 143.039031 29.557252 
L 141.979719 29.979815 
L 140.920408 30.40361 
L 140.060501 30.74898 
L 139.861097 30.828654 
L 138.801786 31.254965 
L 137.742474 31.68256 
L 136.797696 32.065306 
L 136.683163 32.11146 
L 135.623852 32.541682 
L 134.564541 32.973247 
L 133.565591 33.381633 
L 133.50523 33.406175 
L 132.445918 33.840487 
L 131.386607 34.276203 
L 130.364783 34.697959 
L 130.327296 34.713346 
L 129.267985 35.151938 
L 128.208673 35.592001 
L 127.195857 36.014286 
L 127.149362 36.033561 
L 126.090051 36.47664 
L 125.03074 36.921263 
L 124.059377 37.330612 
L 123.971429 37.367457 
L 122.912117 37.815248 
L 121.852806 38.264663 
L 120.95588 38.646939 
L 120.793495 38.715729 
L 119.734184 39.168476 
L 118.674872 39.622933 
L 117.885864 39.963265 
L 117.615561 40.079131 
L 116.55625 40.537101 
L 115.496939 40.996875 
L 114.84978 41.279592 
L 114.437628 41.458487 
L 113.378316 41.921971 
L 112.319005 42.387363 
L 111.848015 42.595918 
L 111.259694 42.854699 
L 110.200383 43.324019 
L 109.141071 43.79536 
L 108.880877 43.912245 
L 108.08176 44.268763 
L 107.022449 44.744271 
L 105.963138 45.221927 
L 105.948571 45.228571 
L 104.903827 45.701775 
L 103.844515 46.183862 
L 103.056413 46.544898 
L 102.785204 46.668238 
L 101.725893 47.15495 
L 100.666582 47.644053 
L 100.200541 47.861224 
L 99.60727 48.135599 
L 98.547959 48.629644 
L 97.488648 49.126247 
L 97.380552 49.177551 
L 96.429337 49.625469 
L 95.370026 50.127371 
L 94.602397 50.493878 
L 94.310714 50.632021 
L 93.251403 51.139486 
L 92.192092 51.649837 
L 91.863061 51.810204 
L 91.132781 52.163149 
L 90.073469 52.6795 
L 89.162985 53.126531 
L 89.014158 53.19897 
L 87.954847 53.721645 
L 86.895536 54.247614 
L 86.507064 54.442857 
L 85.836224 54.776969 
L 84.776913 55.309808 
L 83.890858 55.759184 
L 83.717602 55.846233 
L 82.658291 56.386353 
L 81.59898 56.93028 
L 81.320196 57.07551 
L 80.539668 57.478133 
L 79.480357 58.030039 
L 78.793618 58.391837 
L 78.421046 58.586128 
L 77.361735 59.146542 
L 76.30861 59.708163 
L 76.302423 59.711428 
L 75.243112 60.280942 
L 74.183801 60.855251 
L 73.876771 61.02449 
L 73.12449 61.434531 
L 72.065179 62.018969 
L 71.490191 62.340816 
L 71.005867 62.608765 
L 69.946556 63.204132 
L 69.150714 63.657143 
L 68.887245 63.805297 
L 67.827934 64.412504 
L 66.860412 64.973469 
L 66.768622 65.026014 
L 65.709311 65.646107 
L 64.65 66.273085 
z
" style="fill:#2070b4;"/>
   </g>
   <g id="PathCollection_9">
    <path clip-path="url(#p3754735c29)" d="M 64.65 50.493878 
L 64.65 49.177551 
L 64.65 47.861224 
L 64.65 46.544898 
L 64.65 45.228571 
L 64.65 43.912245 
L 64.65 42.595918 
L 64.65 41.279592 
L 64.65 39.963265 
L 64.65 38.646939 
L 64.65 37.330612 
L 64.65 36.014286 
L 64.65 35.255142 
L 65.21836 34.697959 
L 65.709311 34.210178 
L 66.56075 33.381633 
L 66.768622 33.17669 
L 67.827934 32.154174 
L 67.922018 32.065306 
L 68.887245 31.142162 
L 69.306025 30.74898 
L 69.946556 30.140221 
L 70.704503 29.432653 
L 71.005867 29.147942 
L 72.065179 28.164949 
L 72.118634 28.116327 
L 73.12449 27.190885 
L 73.556235 26.8 
L 74.183801 26.8 
L 75.243112 26.8 
L 76.302423 26.8 
L 77.361735 26.8 
L 78.421046 26.8 
L 79.480357 26.8 
L 80.539668 26.8 
L 81.59898 26.8 
L 82.658291 26.8 
L 83.717602 26.8 
L 84.776913 26.8 
L 85.836224 26.8 
L 86.895536 26.8 
L 87.954847 26.8 
L 89.014158 26.8 
L 90.073469 26.8 
L 91.132781 26.8 
L 92.192092 26.8 
L 93.251403 26.8 
L 94.310714 26.8 
L 95.370026 26.8 
L 96.429337 26.8 
L 97.488648 26.8 
L 98.547959 26.8 
L 99.25657 26.8 
L 98.547959 27.239526 
L 97.488648 27.901663 
L 97.148842 28.116327 
L 96.429337 28.567292 
L 95.370026 29.236495 
L 95.062975 29.432653 
L 94.310714 29.909361 
L 93.251403 30.585981 
L 92.999257 30.74898 
L 92.192092 31.266449 
L 91.132781 31.950866 
L 90.957949 32.065306 
L 90.073469 32.639333 
L 89.014158 33.33196 
L 88.93927 33.381633 
L 87.954847 34.02886 
L 86.944579 34.697959 
L 86.895536 34.730152 
L 85.836224 35.435958 
L 84.9754 36.014286 
L 84.776913 36.14641 
L 83.717602 36.861644 
L 83.030074 37.330612 
L 82.658291 37.581804 
L 81.59898 38.30704 
L 81.108663 38.646939 
L 80.539668 39.037511 
L 79.480357 39.773385 
L 79.21113 39.963265 
L 78.421046 40.514838 
L 77.361735 41.262056 
L 77.337325 41.279592 
L 76.302423 42.015237 
L 75.494423 42.595918 
L 75.243112 42.774589 
L 74.183801 43.540335 
L 73.676691 43.912245 
L 73.12449 44.312708 
L 72.065179 45.091959 
L 71.882925 45.228571 
L 71.005867 45.878354 
L 70.118111 46.544898 
L 69.946556 46.672176 
L 68.887245 47.47373 
L 68.383534 47.861224 
L 67.827934 48.283339 
L 66.768622 49.101352 
L 66.672145 49.177551 
L 65.709311 49.928142 
L 64.995542 50.493878 
L 64.65 50.764113 
z
" style="fill:#0d57a1;"/>
   </g>
   <g id="PathCollection_10">
    <path clip-path="url(#p3754735c29)" d="M 64.65 34.697959 
L 64.65 33.381633 
L 64.65 32.065306 
L 64.65 30.74898 
L 64.65 29.432653 
L 64.65 28.116327 
L 64.65 26.8 
L 65.709311 26.8 
L 66.768622 26.8 
L 67.827934 26.8 
L 68.887245 26.8 
L 69.946556 26.8 
L 71.005867 26.8 
L 72.065179 26.8 
L 73.12449 26.8 
L 73.556235 26.8 
L 73.12449 27.190885 
L 72.118634 28.116327 
L 72.065179 28.164949 
L 71.005867 29.147942 
L 70.704503 29.432653 
L 69.946556 30.140221 
L 69.306025 30.74898 
L 68.887245 31.142162 
L 67.922018 32.065306 
L 67.827934 32.154174 
L 66.768622 33.17669 
L 66.56075 33.381633 
L 65.709311 34.210178 
L 65.21836 34.697959 
L 64.65 35.255142 
z
" style="fill:#083c7d;"/>
   </g>
   <g id="matplotlib.axis_1">
    <g id="xtick_1">
     <g id="line2d_1">
      <defs>
       <path d="M 0 0 
L 0 3.5 
" id="md685a1bdb0" style="stroke:#000000;stroke-width:0.8;"/>
      </defs>
      <g>
       <use style="stroke:#000000;stroke-width:0.8;" x="64.65" xlink:href="#md685a1bdb0" y="155.8"/>
      </g>
     </g>
     <g id="text_1">
      <!-- 0.5 -->
      <defs>
       <path d="M 31.78125 66.40625 
Q 24.171875 66.40625 20.328125 58.90625 
Q 16.5 51.421875 16.5 36.375 
Q 16.5 21.390625 20.328125 13.890625 
Q 24.171875 6.390625 31.78125 6.390625 
Q 39.453125 6.390625 43.28125 13.890625 
Q 47.125 21.390625 47.125 36.375 
Q 47.125 51.421875 43.28125 58.90625 
Q 39.453125 66.40625 31.78125 66.40625 
z
M 31.78125 74.21875 
Q 44.046875 74.21875 50.515625 64.515625 
Q 56.984375 54.828125 56.984375 36.375 
Q 56.984375 17.96875 50.515625 8.265625 
Q 44.046875 -1.421875 31.78125 -1.421875 
Q 19.53125 -1.421875 13.0625 8.265625 
Q 6.59375 17.96875 6.59375 36.375 
Q 6.59375 54.828125 13.0625 64.515625 
Q 19.53125 74.21875 31.78125 74.21875 
z
" id="DejaVuSans-30"/>
       <path d="M 10.6875 12.40625 
L 21 12.40625 
L 21 0 
L 10.6875 0 
z
" id="DejaVuSans-2e"/>
       <path d="M 10.796875 72.90625 
L 49.515625 72.90625 
L 49.515625 64.59375 
L 19.828125 64.59375 
L 19.828125 46.734375 
Q 21.96875 47.46875 24.109375 47.828125 
Q 26.265625 48.1875 28.421875 48.1875 
Q 40.625 48.1875 47.75 41.5 
Q 54.890625 34.8125 54.890625 23.390625 
Q 54.890625 11.625 47.5625 5.09375 
Q 40.234375 -1.421875 26.90625 -1.421875 
Q 22.3125 -1.421875 17.546875 -0.640625 
Q 12.796875 0.140625 7.71875 1.703125 
L 7.71875 11.625 
Q 12.109375 9.234375 16.796875 8.0625 
Q 21.484375 6.890625 26.703125 6.890625 
Q 35.15625 6.890625 40.078125 11.328125 
Q 45.015625 15.765625 45.015625 23.390625 
Q 45.015625 31 40.078125 35.4375 
Q 35.15625 39.890625 26.703125 39.890625 
Q 22.75 39.890625 18.8125 39.015625 
Q 14.890625 38.140625 10.796875 36.28125 
z
" id="DejaVuSans-35"/>
      </defs>
      <g transform="translate(56.698438 170.398438)scale(0.1 -0.1)">
       <use xlink:href="#DejaVuSans-30"/>
       <use x="63.623047" xlink:href="#DejaVuSans-2e"/>
       <use x="95.410156" xlink:href="#DejaVuSans-35"/>
      </g>
     </g>
    </g>
    <g id="xtick_2">
     <g id="line2d_2">
      <g>
       <use style="stroke:#000000;stroke-width:0.8;" x="99.254167" xlink:href="#md685a1bdb0" y="155.8"/>
      </g>
     </g>
     <g id="text_2">
      <!-- 1.0 -->
      <defs>
       <path d="M 12.40625 8.296875 
L 28.515625 8.296875 
L 28.515625 63.921875 
L 10.984375 60.40625 
L 10.984375 69.390625 
L 28.421875 72.90625 
L 38.28125 72.90625 
L 38.28125 8.296875 
L 54.390625 8.296875 
L 54.390625 0 
L 12.40625 0 
z
" id="DejaVuSans-31"/>
      </defs>
      <g transform="translate(91.302604 170.398438)scale(0.1 -0.1)">
       <use xlink:href="#DejaVuSans-31"/>
       <use x="63.623047" xlink:href="#DejaVuSans-2e"/>
       <use x="95.410156" xlink:href="#DejaVuSans-30"/>
      </g>
     </g>
    </g>
    <g id="xtick_3">
     <g id="line2d_3">
      <g>
       <use style="stroke:#000000;stroke-width:0.8;" x="133.858333" xlink:href="#md685a1bdb0" y="155.8"/>
      </g>
     </g>
     <g id="text_3">
      <!-- 1.5 -->
      <g transform="translate(125.906771 170.398438)scale(0.1 -0.1)">
       <use xlink:href="#DejaVuSans-31"/>
       <use x="63.623047" xlink:href="#DejaVuSans-2e"/>
       <use x="95.410156" xlink:href="#DejaVuSans-35"/>
      </g>
     </g>
    </g>
    <g id="xtick_4">
     <g id="line2d_4">
      <g>
       <use style="stroke:#000000;stroke-width:0.8;" x="168.4625" xlink:href="#md685a1bdb0" y="155.8"/>
      </g>
     </g>
     <g id="text_4">
      <!-- 2.0 -->
      <defs>
       <path d="M 19.1875 8.296875 
L 53.609375 8.296875 
L 53.609375 0 
L 7.328125 0 
L 7.328125 8.296875 
Q 12.9375 14.109375 22.625 23.890625 
Q 32.328125 33.6875 34.8125 36.53125 
Q 39.546875 41.84375 41.421875 45.53125 
Q 43.3125 49.21875 43.3125 52.78125 
Q 43.3125 58.59375 39.234375 62.25 
Q 35.15625 65.921875 28.609375 65.921875 
Q 23.96875 65.921875 18.8125 64.3125 
Q 13.671875 62.703125 7.8125 59.421875 
L 7.8125 69.390625 
Q 13.765625 71.78125 18.9375 73 
Q 24.125 74.21875 28.421875 74.21875 
Q 39.75 74.21875 46.484375 68.546875 
Q 53.21875 62.890625 53.21875 53.421875 
Q 53.21875 48.921875 51.53125 44.890625 
Q 49.859375 40.875 45.40625 35.40625 
Q 44.1875 33.984375 37.640625 27.21875 
Q 31.109375 20.453125 19.1875 8.296875 
z
" id="DejaVuSans-32"/>
      </defs>
      <g transform="translate(160.510938 170.398438)scale(0.1 -0.1)">
       <use xlink:href="#DejaVuSans-32"/>
       <use x="63.623047" xlink:href="#DejaVuSans-2e"/>
       <use x="95.410156" xlink:href="#DejaVuSans-30"/>
      </g>
     </g>
    </g>
    <g id="text_5">
     <!-- $c$ -->
     <defs>
      <path d="M 53.609375 52.59375 
L 51.8125 43.703125 
Q 48.578125 46.046875 44.9375 47.21875 
Q 41.3125 48.390625 37.40625 48.390625 
Q 33.109375 48.390625 29.21875 46.875 
Q 25.34375 45.359375 22.703125 42.578125 
Q 18.5 38.328125 16.203125 32.609375 
Q 13.921875 26.90625 13.921875 20.796875 
Q 13.921875 13.421875 17.609375 9.8125 
Q 21.296875 6.203125 28.8125 6.203125 
Q 32.515625 6.203125 36.6875 7.328125 
Q 40.875 8.453125 45.40625 10.6875 
L 43.703125 1.8125 
Q 39.796875 0.203125 35.671875 -0.609375 
Q 31.546875 -1.421875 27.203125 -1.421875 
Q 16.3125 -1.421875 10.453125 4.015625 
Q 4.59375 9.46875 4.59375 19.578125 
Q 4.59375 28.078125 7.640625 35.234375 
Q 10.6875 42.390625 16.703125 48.09375 
Q 20.796875 52 26.3125 54 
Q 31.84375 56 38.375 56 
Q 42.1875 56 45.9375 55.140625 
Q 49.703125 54.296875 53.609375 52.59375 
z
" id="DejaVuSans-Oblique-63"/>
     </defs>
     <g transform="translate(112.70625 187.115938)scale(0.14 -0.14)">
      <use xlink:href="#DejaVuSans-Oblique-63"/>
     </g>
    </g>
   </g>
   <g id="matplotlib.axis_2">
    <g id="ytick_1">
     <g id="line2d_5">
      <defs>
       <path d="M 0 0 
L -3.5 0 
" id="mf76dbaa92f" style="stroke:#000000;stroke-width:0.8;"/>
      </defs>
      <g>
       <use style="stroke:#000000;stroke-width:0.8;" x="64.65" xlink:href="#mf76dbaa92f" y="155.8"/>
      </g>
     </g>
     <g id="text_6">
      <!-- −1.0 -->
      <defs>
       <path d="M 10.59375 35.5 
L 73.1875 35.5 
L 73.1875 27.203125 
L 10.59375 27.203125 
z
" id="DejaVuSans-2212"/>
      </defs>
      <g transform="translate(33.367188 159.599219)scale(0.1 -0.1)">
       <use xlink:href="#DejaVuSans-2212"/>
       <use x="83.789062" xlink:href="#DejaVuSans-31"/>
       <use x="147.412109" xlink:href="#DejaVuSans-2e"/>
       <use x="179.199219" xlink:href="#DejaVuSans-30"/>
      </g>
     </g>
    </g>
    <g id="ytick_2">
     <g id="line2d_6">
      <g>
       <use style="stroke:#000000;stroke-width:0.8;" x="64.65" xlink:href="#mf76dbaa92f" y="134.3"/>
      </g>
     </g>
     <g id="text_7">
      <!-- −0.5 -->
      <g transform="translate(33.367188 138.099219)scale(0.1 -0.1)">
       <use xlink:href="#DejaVuSans-2212"/>
       <use x="83.789062" xlink:href="#DejaVuSans-30"/>
       <use x="147.412109" xlink:href="#DejaVuSans-2e"/>
       <use x="179.199219" xlink:href="#DejaVuSans-35"/>
      </g>
     </g>
    </g>
    <g id="ytick_3">
     <g id="line2d_7">
      <g>
       <use style="stroke:#000000;stroke-width:0.8;" x="64.65" xlink:href="#mf76dbaa92f" y="112.8"/>
      </g>
     </g>
     <g id="text_8">
      <!-- 0.0 -->
      <g transform="translate(41.746875 116.599219)scale(0.1 -0.1)">
       <use xlink:href="#DejaVuSans-30"/>
       <use x="63.623047" xlink:href="#DejaVuSans-2e"/>
       <use x="95.410156" xlink:href="#DejaVuSans-30"/>
      </g>
     </g>
    </g>
    <g id="ytick_4">
     <g id="line2d_8">
      <g>
       <use style="stroke:#000000;stroke-width:0.8;" x="64.65" xlink:href="#mf76dbaa92f" y="91.3"/>
      </g>
     </g>
     <g id="text_9">
      <!-- 0.5 -->
      <g transform="translate(41.746875 95.099219)scale(0.1 -0.1)">
       <use xlink:href="#DejaVuSans-30"/>
       <use x="63.623047" xlink:href="#DejaVuSans-2e"/>
       <use x="95.410156" xlink:href="#DejaVuSans-35"/>
      </g>
     </g>
    </g>
    <g id="ytick_5">
     <g id="line2d_9">
      <g>
       <use style="stroke:#000000;stroke-width:0.8;" x="64.65" xlink:href="#mf76dbaa92f" y="69.8"/>
      </g>
     </g>
     <g id="text_10">
      <!-- 1.0 -->
      <g transform="translate(41.746875 73.599219)scale(0.1 -0.1)">
       <use xlink:href="#DejaVuSans-31"/>
       <use x="63.623047" xlink:href="#DejaVuSans-2e"/>
       <use x="95.410156" xlink:href="#DejaVuSans-30"/>
      </g>
     </g>
    </g>
    <g id="ytick_6">
     <g id="line2d_10">
      <g>
       <use style="stroke:#000000;stroke-width:0.8;" x="64.65" xlink:href="#mf76dbaa92f" y="48.3"/>
      </g>
     </g>
     <g id="text_11">
      <!-- 1.5 -->
      <g transform="translate(41.746875 52.099219)scale(0.1 -0.1)">
       <use xlink:href="#DejaVuSans-31"/>
       <use x="63.623047" xlink:href="#DejaVuSans-2e"/>
       <use x="95.410156" xlink:href="#DejaVuSans-35"/>
      </g>
     </g>
    </g>
    <g id="ytick_7">
     <g id="line2d_11">
      <g>
       <use style="stroke:#000000;stroke-width:0.8;" x="64.65" xlink:href="#mf76dbaa92f" y="26.8"/>
      </g>
     </g>
     <g id="text_12">
      <!-- 2.0 -->
      <g transform="translate(41.746875 30.599219)scale(0.1 -0.1)">
       <use xlink:href="#DejaVuSans-32"/>
       <use x="63.623047" xlink:href="#DejaVuSans-2e"/>
       <use x="95.410156" xlink:href="#DejaVuSans-30"/>
      </g>
     </g>
    </g>
    <g id="text_13">
     <!-- $s N^*$ -->
     <defs>
      <path d="M 50 53.078125 
L 48.296875 44.578125 
Q 44.734375 46.53125 40.765625 47.5 
Q 36.8125 48.484375 32.625 48.484375 
Q 25.53125 48.484375 21.453125 46.0625 
Q 17.390625 43.65625 17.390625 39.5 
Q 17.390625 34.671875 26.859375 32.078125 
Q 27.59375 31.890625 27.9375 31.78125 
L 30.8125 30.90625 
Q 39.796875 28.421875 42.796875 25.6875 
Q 45.796875 22.953125 45.796875 18.21875 
Q 45.796875 9.515625 38.890625 4.046875 
Q 31.984375 -1.421875 20.796875 -1.421875 
Q 16.453125 -1.421875 11.671875 -0.578125 
Q 6.890625 0.25 1.125 2 
L 2.875 11.28125 
Q 7.8125 8.734375 12.59375 7.421875 
Q 17.390625 6.109375 21.78125 6.109375 
Q 28.375 6.109375 32.5 8.9375 
Q 36.625 11.765625 36.625 16.109375 
Q 36.625 20.796875 25.78125 23.6875 
L 24.859375 23.921875 
L 21.78125 24.703125 
Q 14.9375 26.515625 11.765625 29.46875 
Q 8.59375 32.421875 8.59375 37.015625 
Q 8.59375 45.75 15.15625 50.875 
Q 21.734375 56 33.015625 56 
Q 37.453125 56 41.671875 55.265625 
Q 45.90625 54.546875 50 53.078125 
z
" id="DejaVuSans-Oblique-73"/>
      <path d="M 16.890625 72.90625 
L 30.171875 72.90625 
L 50.296875 10.40625 
L 62.5 72.90625 
L 72.125 72.90625 
L 57.90625 0 
L 44.578125 0 
L 24.515625 62.890625 
L 12.3125 0 
L 2.6875 0 
z
" id="DejaVuSans-Oblique-4e"/>
      <path d="M 47.015625 60.890625 
L 29.5 51.421875 
L 47.015625 41.890625 
L 44.1875 37.109375 
L 27.78125 47.015625 
L 27.78125 28.609375 
L 22.21875 28.609375 
L 22.21875 47.015625 
L 5.8125 37.109375 
L 2.984375 41.890625 
L 20.515625 51.421875 
L 2.984375 60.890625 
L 5.8125 65.71875 
L 22.21875 55.8125 
L 22.21875 74.21875 
L 27.78125 74.21875 
L 27.78125 55.8125 
L 44.1875 65.71875 
z
" id="DejaVuSans-2a"/>
     </defs>
     <g transform="translate(26.455625 105.23)rotate(-90)scale(0.14 -0.14)">
      <use transform="translate(0 0.765625)" xlink:href="#DejaVuSans-Oblique-73"/>
      <use transform="translate(52.099609 0.765625)" xlink:href="#DejaVuSans-Oblique-4e"/>
      <use transform="translate(147.558763 39.046875)scale(0.7)" xlink:href="#DejaVuSans-2a"/>
     </g>
    </g>
   </g>
   <g id="LineCollection_1">
    <path clip-path="url(#p3754735c29)" d="M 86.720637 151.776658 
L 85.836224 151.482021 
L 84.776913 151.126795 
L 83.717602 150.769178 
L 83.030074 150.534694 
L 82.658291 150.409098 
L 81.59898 150.04648 
L 80.539668 149.681244 
L 79.480357 149.313308 
L 79.21113 149.218367 
L 78.421046 148.942581 
L 77.361735 148.568972 
L 76.302423 148.192382 
L 75.494423 147.902041 
L 75.243112 147.812705 
L 74.183801 147.429833 
L 73.12449 147.043646 
L 72.065179 146.65402 
L 71.882925 146.585714 
L 71.005867 146.260823 
L 69.946556 145.863912 
L 68.887245 145.463135 
L 68.383534 145.269388 
L 67.827934 145.058331 
L 66.768622 144.649324 
L 65.709311 144.235929 
L 64.995542 143.953061 
L 64.65 143.817943 
" style="fill:none;stroke:#000000;stroke-dasharray:11.1,4.8;stroke-dashoffset:0;stroke-width:3;"/>
   </g>
   <g id="LineCollection_2">
    <path clip-path="url(#p3754735c29)" d="M 154.235544 112.8 
L 153.632143 112.8 
L 152.572832 112.8 
L 151.51352 112.8 
L 150.454209 112.8 
L 149.394898 112.8 
L 148.335587 112.8 
L 147.276276 112.8 
L 146.216964 112.8 
L 145.157653 112.8 
L 144.098342 112.8 
L 143.039031 112.8 
L 141.979719 112.8 
L 140.920408 112.8 
L 139.861097 112.8 
L 138.801786 112.8 
L 137.742474 112.8 
L 136.683163 112.8 
L 135.623852 112.8 
L 134.564541 112.8 
L 133.50523 112.8 
L 132.445918 112.8 
L 131.386607 112.8 
L 130.327296 112.8 
L 129.267985 112.8 
L 128.208673 112.8 
L 127.149362 112.8 
L 126.090051 112.8 
L 125.03074 112.8 
L 123.971429 112.8 
L 122.912117 112.8 
L 121.852806 112.8 
L 120.793495 112.8 
L 119.734184 112.8 
L 118.674872 112.8 
L 117.615561 112.8 
L 116.55625 112.8 
L 115.496939 112.8 
L 114.437628 112.8 
L 113.378316 112.8 
L 112.319005 112.8 
L 111.259694 112.8 
L 110.200383 112.8 
L 109.141071 112.8 
L 108.08176 112.8 
L 107.022449 112.8 
L 105.963138 112.8 
L 104.903827 112.8 
L 103.844515 112.8 
L 102.785204 112.8 
L 101.725893 112.8 
L 100.666582 112.8 
L 99.60727 112.8 
L 98.547959 112.8 
L 97.488648 112.8 
L 96.429337 112.8 
L 95.370026 112.8 
L 94.310714 112.8 
L 93.251403 112.8 
L 92.192092 112.8 
L 91.132781 112.8 
L 90.073469 112.8 
L 89.014158 112.8 
L 87.954847 112.8 
L 86.895536 112.8 
L 85.836224 112.8 
L 84.776913 112.8 
L 83.717602 112.8 
L 82.658291 112.8 
L 81.59898 112.8 
L 80.539668 112.8 
L 79.480357 112.8 
L 78.421046 112.8 
L 77.361735 112.8 
L 76.302423 112.8 
L 75.243112 112.8 
L 74.183801 112.8 
L 73.12449 112.8 
L 72.065179 112.8 
L 71.005867 112.8 
L 69.946556 112.8 
L 68.887245 112.8 
L 67.827934 112.8 
L 66.768622 112.8 
L 65.709311 112.8 
L 64.65 112.8 
" style="fill:none;stroke:#000000;stroke-width:3;"/>
   </g>
   <g id="LineCollection_3">
    <path clip-path="url(#p3754735c29)" d="M 155.471098 54.056479 
L 154.691454 54.257162 
L 153.972969 54.442857 
L 153.632143 54.530534 
L 152.572832 54.804615 
L 151.51352 55.079414 
L 150.454209 55.354942 
L 149.394898 55.631207 
L 148.906784 55.759184 
L 148.335587 55.908218 
L 147.276276 56.185987 
L 146.216964 56.464522 
L 145.157653 56.743835 
L 144.098342 57.023936 
L 143.904647 57.07551 
L 143.039031 57.304835 
L 141.979719 57.586544 
L 140.920408 57.869074 
L 139.861097 58.152436 
L 138.969525 58.391837 
L 138.801786 58.436643 
L 137.742474 58.721707 
L 136.683163 59.00764 
L 135.623852 59.294455 
L 134.564541 59.582165 
L 134.103508 59.708163 
L 133.50523 59.870784 
L 132.445918 60.160325 
L 131.386607 60.450802 
L 130.327296 60.742231 
L 129.304904 61.02449 
L 129.267985 61.034625 
L 128.208673 61.328001 
L 127.149362 61.622374 
L 126.090051 61.91776 
L 125.03074 62.214176 
L 124.581279 62.340816 
L 123.971429 62.511638 
L 122.912117 62.810165 
L 121.852806 63.109775 
L 120.793495 63.410486 
L 119.928797 63.657143 
L 119.734184 63.712318 
L 118.674872 64.015289 
L 117.615561 64.319421 
L 116.55625 64.624734 
L 115.496939 64.93125 
L 115.352417 64.973469 
L 114.437628 65.238991 
L 113.378316 65.54798 
L 112.319005 65.858242 
L 111.259694 66.1698 
L 110.855109 66.289796 
L 110.200383 66.482679 
L 109.141071 66.796906 
L 108.08176 67.112509 
L 107.022449 67.429514 
L 106.436788 67.606122 
L 105.963138 67.747951 
L 104.903827 68.06785 
L 103.844515 68.389242 
L 102.785204 68.712158 
L 102.100457 68.922449 
L 101.725893 69.036634 
L 100.666582 69.362702 
L 99.60727 69.690399 
L 98.547959 70.019763 
L 97.849035 70.238776 
L 97.488648 70.350832 
L 96.429337 70.683646 
L 95.370026 71.018248 
L 94.310714 71.354681 
L 93.685256 71.555102 
L 93.251403 71.692991 
L 92.192092 72.033225 
L 91.132781 72.375433 
L 90.073469 72.719667 
L 89.611519 72.871429 
L 89.014158 73.06598 
L 87.954847 73.41443 
L 86.895536 73.765076 
L 85.836224 74.117979 
L 85.629685 74.187755 
L 84.776913 74.473205 
L 83.717602 74.830822 
L 82.658291 75.190902 
L 81.744616 75.504082 
L 81.59898 75.55352 
L 80.539668 75.918756 
L 79.480357 76.286692 
L 78.421046 76.657419 
L 77.96162 76.820408 
L 77.361735 77.031028 
L 76.302423 77.407618 
L 75.243112 77.787295 
L 74.277233 78.136735 
L 74.183801 78.170167 
L 73.12449 78.556354 
L 72.065179 78.94598 
L 71.005867 79.339177 
L 70.704503 79.453061 
L 69.946556 79.736088 
L 68.887245 80.136865 
L 67.827934 80.541669 
L 67.24149 80.769388 
L 66.768622 80.950676 
L 65.709311 81.364071 
L 64.65 81.782057 
" style="fill:none;stroke:#000000;stroke-width:3;"/>
   </g>
   <g id="LineCollection_4">
    <path clip-path="url(#p3754735c29)" d="M 88.153671 33.89814 
L 87.954847 34.02886 
L 86.944579 34.697959 
L 86.895536 34.730152 
L 85.836224 35.435958 
L 84.9754 36.014286 
L 84.776913 36.14641 
L 83.717602 36.861644 
L 83.030074 37.330612 
L 82.658291 37.581804 
L 81.59898 38.30704 
L 81.108663 38.646939 
L 80.539668 39.037511 
L 79.480357 39.773385 
L 79.21113 39.963265 
L 78.421046 40.514838 
L 77.361735 41.262056 
L 77.337325 41.279592 
L 76.302423 42.015237 
L 75.494423 42.595918 
L 75.243112 42.774589 
L 74.183801 43.540335 
L 73.676691 43.912245 
L 73.12449 44.312708 
L 72.065179 45.091959 
L 71.882925 45.228571 
L 71.005867 45.878354 
L 70.118111 46.544898 
L 69.946556 46.672176 
L 68.887245 47.47373 
L 68.383534 47.861224 
L 67.827934 48.283339 
L 66.768622 49.101352 
L 66.672145 49.177551 
L 65.709311 49.928142 
L 64.995542 50.493878 
L 64.65 50.764113 
" style="fill:none;stroke:#000000;stroke-width:3;"/>
   </g>
   <g id="patch_3">
    <path d="M 64.65 155.8 
L 64.65 26.8 
" style="fill:none;stroke:#000000;stroke-linecap:square;stroke-linejoin:miter;stroke-width:0.8;"/>
   </g>
   <g id="patch_4">
    <path d="M 168.4625 155.8 
L 168.4625 26.8 
" style="fill:none;stroke:#000000;stroke-linecap:square;stroke-linejoin:miter;stroke-width:0.8;"/>
   </g>
   <g id="patch_5">
    <path d="M 64.65 155.8 
L 168.4625 155.8 
" style="fill:none;stroke:#000000;stroke-linecap:square;stroke-linejoin:miter;stroke-width:0.8;"/>
   </g>
   <g id="patch_6">
    <path d="M 64.65 26.8 
L 168.4625 26.8 
" style="fill:none;stroke:#000000;stroke-linecap:square;stroke-linejoin:miter;stroke-width:0.8;"/>
   </g>
   <g id="text_14">
    <g clip-path="url(#p3754735c29)">
     <!-- -1 -->
     <defs>
      <path d="M 4.890625 31.390625 
L 31.203125 31.390625 
L 31.203125 23.390625 
L 4.890625 23.390625 
z
" id="DejaVuSans-2d"/>
     </defs>
     <g transform="translate(88.779924 155.615098)rotate(-344.944881)scale(0.1 -0.1)">
      <use xlink:href="#DejaVuSans-2d"/>
      <use x="36.083984" xlink:href="#DejaVuSans-31"/>
     </g>
    </g>
   </g>
   <g id="text_15">
    <g clip-path="url(#p3754735c29)">
     <!--  0 -->
     <defs>
      <path id="DejaVuSans-20"/>
     </defs>
     <g transform="translate(157.33632 115.559375)scale(0.1 -0.1)">
      <use xlink:href="#DejaVuSans-20"/>
      <use x="31.787109" xlink:href="#DejaVuSans-30"/>
     </g>
    </g>
   </g>
   <g id="text_16">
    <g clip-path="url(#p3754735c29)">
     <!--  1 -->
     <g transform="translate(159.076431 55.788747)rotate(-12.044227)scale(0.1 -0.1)">
      <use xlink:href="#DejaVuSans-20"/>
      <use x="31.787109" xlink:href="#DejaVuSans-31"/>
     </g>
    </g>
   </g>
   <g id="text_17">
    <g clip-path="url(#p3754735c29)">
     <!--  2 -->
     <g transform="translate(92.161125 34.117661)rotate(-28.179193)scale(0.1 -0.1)">
      <use xlink:href="#DejaVuSans-20"/>
      <use x="31.787109" xlink:href="#DejaVuSans-32"/>
     </g>
    </g>
   </g>
   <g id="text_18">
    <!-- $r=1$ -->
    <defs>
     <path d="M 44.578125 46.390625 
Q 43.21875 47.125 41.453125 47.515625 
Q 39.703125 47.90625 37.703125 47.90625 
Q 30.515625 47.90625 25.140625 42.453125 
Q 19.78125 37.015625 18.015625 27.875 
L 12.5 0 
L 3.515625 0 
L 14.203125 54.6875 
L 23.1875 54.6875 
L 21.484375 46.1875 
Q 25.046875 50.921875 30 53.453125 
Q 34.96875 56 40.578125 56 
Q 42.046875 56 43.453125 55.828125 
Q 44.875 55.671875 46.296875 55.28125 
z
" id="DejaVuSans-Oblique-72"/>
     <path d="M 10.59375 45.40625 
L 73.1875 45.40625 
L 73.1875 37.203125 
L 10.59375 37.203125 
z
M 10.59375 25.484375 
L 73.1875 25.484375 
L 73.1875 17.1875 
L 10.59375 17.1875 
z
" id="DejaVuSans-3d"/>
    </defs>
    <g transform="translate(102.87625 20.8)scale(0.12 -0.12)">
     <use transform="translate(0 0.09375)" xlink:href="#DejaVuSans-Oblique-72"/>
     <use transform="translate(60.595703 0.09375)" xlink:href="#DejaVuSans-3d"/>
     <use transform="translate(163.867188 0.09375)" xlink:href="#DejaVuSans-31"/>
    </g>
   </g>
  </g>
 </g>
 <defs>
  <clipPath id="p3754735c29">
   <rect height="129" width="103.8125" x="64.65" y="26.8"/>
  </clipPath>
 </defs>
</svg>
