<?xml version="1.0" encoding="utf-8" standalone="no"?>
<!DOCTYPE svg PUBLIC "-//W3C//DTD SVG 1.1//EN"
  "http://www.w3.org/Graphics/SVG/1.1/DTD/svg11.dtd">
<!-- Created with matplotlib (http://matplotlib.org/) -->
<svg height="201.6pt" version="1.1" viewBox="0 0 187.2 201.6" width="187.2pt" xmlns="http://www.w3.org/2000/svg" xmlns:xlink="http://www.w3.org/1999/xlink">
 <defs>
  <style type="text/css">
*{stroke-linecap:butt;stroke-linejoin:round;}
  </style>
 </defs>
 <g id="figure_1">
  <g id="patch_1">
   <path d="M 0 201.6 
L 187.2 201.6 
L 187.2 0 
L 0 0 
z
" style="fill:#ffffff;"/>
  </g>
  <g id="axes_1">
   <g id="patch_2">
    <path d="M 60.291719 152 
L 167.086758 152 
L 167.086758 30.4 
L 60.291719 30.4 
z
" style="fill:#ffffff;"/>
   </g>
   <g id="PathCollection_1">
    <path clip-path="url(#pae1eb7d9c0)" d="M 158.152524 30.4 
L 158.368795 30.4 
L 159.458541 30.4 
L 160.548286 30.4 
L 161.638031 30.4 
L 162.727777 30.4 
L 163.817522 30.4 
L 164.907267 30.4 
L 165.997013 30.4 
L 167.086758 30.4 
L 167.086758 31.640816 
L 167.086758 32.881633 
L 167.086758 34.122449 
L 167.086758 35.363265 
L 167.086758 36.604082 
L 167.086758 36.892138 
L 166.652575 36.604082 
L 165.997013 36.160196 
L 164.907267 35.416992 
L 164.829556 35.363265 
L 163.817522 34.648856 
L 163.076126 34.122449 
L 162.727777 33.869787 
L 161.638031 33.072289 
L 161.379969 32.881633 
L 160.548286 32.253748 
L 159.740479 31.640816 
L 159.458541 31.422123 
L 158.368795 30.570373 
z
" style="fill:#f0f6fd;"/>
   </g>
   <g id="PathCollection_2">
    <path clip-path="url(#pae1eb7d9c0)" d="M 146.293526 30.4 
L 146.381597 30.4 
L 147.471342 30.4 
L 148.561088 30.4 
L 149.650833 30.4 
L 150.740578 30.4 
L 151.830324 30.4 
L 152.920069 30.4 
L 154.009814 30.4 
L 155.09956 30.4 
L 156.189305 30.4 
L 157.27905 30.4 
L 158.152524 30.4 
L 158.368795 30.570373 
L 159.458541 31.422123 
L 159.740479 31.640816 
L 160.548286 32.253748 
L 161.379969 32.881633 
L 161.638031 33.072289 
L 162.727777 33.869787 
L 163.076126 34.122449 
L 163.817522 34.648856 
L 164.829556 35.363265 
L 164.907267 35.416992 
L 165.997013 36.160196 
L 166.652575 36.604082 
L 167.086758 36.892138 
L 167.086758 37.844898 
L 167.086758 39.085714 
L 167.086758 40.326531 
L 167.086758 41.567347 
L 167.086758 42.808163 
L 167.086758 44.04898 
L 167.086758 44.396188 
L 166.461786 44.04898 
L 165.997013 43.785559 
L 164.907267 43.160969 
L 164.297212 42.808163 
L 163.817522 42.524975 
L 162.727777 41.875249 
L 162.215952 41.567347 
L 161.638031 41.212243 
L 160.548286 40.537617 
L 160.210631 40.326531 
L 159.458541 39.846051 
L 158.368795 39.147023 
L 158.274306 39.085714 
L 157.27905 38.4255 
L 156.405832 37.844898 
L 156.189305 37.697635 
L 155.09956 36.950179 
L 154.597123 36.604082 
L 154.009814 36.190122 
L 152.920069 35.42024 
L 152.840079 35.363265 
L 151.830324 34.627141 
L 151.138316 34.122449 
L 150.740578 33.825436 
L 149.650833 33.009808 
L 149.480372 32.881633 
L 148.561088 32.173748 
L 147.868275 31.640816 
L 147.471342 31.32803 
L 146.381597 30.469602 
z
" style="fill:#e0ecf8;"/>
   </g>
   <g id="PathCollection_3">
    <path clip-path="url(#pae1eb7d9c0)" d="M 129.072944 30.4 
L 130.035418 30.4 
L 131.125163 30.4 
L 132.214908 30.4 
L 133.304654 30.4 
L 134.394399 30.4 
L 135.484144 30.4 
L 136.57389 30.4 
L 137.663635 30.4 
L 138.75338 30.4 
L 139.843125 30.4 
L 140.932871 30.4 
L 142.022616 30.4 
L 143.112361 30.4 
L 144.202107 30.4 
L 145.291852 30.4 
L 146.293526 30.4 
L 146.381597 30.469602 
L 147.471342 31.32803 
L 147.868275 31.640816 
L 148.561088 32.173748 
L 149.480372 32.881633 
L 149.650833 33.009808 
L 150.740578 33.825436 
L 151.138316 34.122449 
L 151.830324 34.627141 
L 152.840079 35.363265 
L 152.920069 35.42024 
L 154.009814 36.190122 
L 154.597123 36.604082 
L 155.09956 36.950179 
L 156.189305 37.697635 
L 156.405832 37.844898 
L 157.27905 38.4255 
L 158.274306 39.085714 
L 158.368795 39.147023 
L 159.458541 39.846051 
L 160.210631 40.326531 
L 160.548286 40.537617 
L 161.638031 41.212243 
L 162.215952 41.567347 
L 162.727777 41.875249 
L 163.817522 42.524975 
L 164.297212 42.808163 
L 164.907267 43.160969 
L 165.997013 43.785559 
L 166.461786 44.04898 
L 167.086758 44.396188 
L 167.086758 45.289796 
L 167.086758 46.530612 
L 167.086758 47.771429 
L 167.086758 49.012245 
L 167.086758 50.253061 
L 167.086758 51.493878 
L 167.086758 52.628091 
L 165.997013 52.136525 
L 164.907267 51.642234 
L 164.584649 51.493878 
L 163.817522 51.13398 
L 162.727777 50.618534 
L 161.960978 50.253061 
L 161.638031 50.095911 
L 160.548286 49.559129 
L 159.458541 49.020861 
L 159.441349 49.012245 
L 158.368795 48.463026 
L 157.27905 47.904059 
L 157.023203 47.771429 
L 156.189305 47.32946 
L 155.09956 46.75008 
L 154.689855 46.530612 
L 154.009814 46.157957 
L 152.920069 45.558666 
L 152.433699 45.289796 
L 151.830324 44.948388 
L 150.740578 44.329931 
L 150.247337 44.04898 
L 149.650833 43.701035 
L 148.561088 43.064411 
L 148.123676 42.808163 
L 147.471342 42.416638 
L 146.381597 41.76312 
L 146.055988 41.567347 
L 145.291852 41.096458 
L 144.202107 40.427594 
L 144.037945 40.326531 
L 143.112361 39.742311 
L 142.064377 39.085714 
L 142.022616 39.058876 
L 140.932871 38.356602 
L 140.132277 37.844898 
L 139.843125 37.655281 
L 138.75338 36.942349 
L 138.233028 36.604082 
L 137.663635 36.224233 
L 136.57389 35.503179 
L 136.361589 35.363265 
L 135.484144 34.769739 
L 134.514771 34.122449 
L 134.394399 34.039923 
L 133.304654 33.296416 
L 132.688749 32.881633 
L 132.214908 32.553955 
L 131.125163 31.809459 
L 130.875914 31.640816 
L 130.035418 31.05682 
z
" style="fill:#d1e2f3;"/>
   </g>
   <g id="PathCollection_4">
    <path clip-path="url(#pae1eb7d9c0)" d="M 60.291719 42.808163 
L 60.291719 41.567347 
L 60.291719 40.326531 
L 60.291719 39.085714 
L 60.291719 37.844898 
L 60.291719 36.604082 
L 60.291719 35.363265 
L 60.291719 34.122449 
L 60.291719 32.881633 
L 60.291719 31.640816 
L 60.291719 30.4 
L 61.381464 30.4 
L 62.471209 30.4 
L 63.560955 30.4 
L 64.6507 30.4 
L 65.740445 30.4 
L 66.830191 30.4 
L 67.919936 30.4 
L 69.009681 30.4 
L 70.099426 30.4 
L 71.189172 30.4 
L 72.278917 30.4 
L 73.368662 30.4 
L 74.458408 30.4 
L 75.548153 30.4 
L 76.637898 30.4 
L 77.727643 30.4 
L 78.817389 30.4 
L 79.907134 30.4 
L 80.996879 30.4 
L 82.086625 30.4 
L 83.17637 30.4 
L 84.266115 30.4 
L 85.355861 30.4 
L 86.445606 30.4 
L 87.535351 30.4 
L 88.625096 30.4 
L 89.714842 30.4 
L 90.804587 30.4 
L 91.894332 30.4 
L 92.984078 30.4 
L 94.073823 30.4 
L 95.163568 30.4 
L 96.253314 30.4 
L 97.343059 30.4 
L 98.432804 30.4 
L 99.522549 30.4 
L 100.612295 30.4 
L 101.70204 30.4 
L 102.791785 30.4 
L 103.881531 30.4 
L 104.971276 30.4 
L 106.061021 30.4 
L 107.150767 30.4 
L 108.240512 30.4 
L 109.330257 30.4 
L 110.420002 30.4 
L 111.509748 30.4 
L 112.599493 30.4 
L 113.689238 30.4 
L 114.778984 30.4 
L 115.868729 30.4 
L 116.958474 30.4 
L 118.048219 30.4 
L 119.137965 30.4 
L 120.22771 30.4 
L 121.317455 30.4 
L 122.407201 30.4 
L 123.496946 30.4 
L 124.586691 30.4 
L 125.676437 30.4 
L 126.766182 30.4 
L 127.855927 30.4 
L 128.945672 30.4 
L 129.072944 30.4 
L 130.035418 31.05682 
L 130.875914 31.640816 
L 131.125163 31.809459 
L 132.214908 32.553955 
L 132.688749 32.881633 
L 133.304654 33.296416 
L 134.394399 34.039923 
L 134.514771 34.122449 
L 135.484144 34.769739 
L 136.361589 35.363265 
L 136.57389 35.503179 
L 137.663635 36.224233 
L 138.233028 36.604082 
L 138.75338 36.942349 
L 139.843125 37.655281 
L 140.132277 37.844898 
L 140.932871 38.356602 
L 142.022616 39.058876 
L 142.064377 39.085714 
L 143.112361 39.742311 
L 144.037945 40.326531 
L 144.202107 40.427594 
L 145.291852 41.096458 
L 146.055988 41.567347 
L 146.381597 41.76312 
L 147.471342 42.416638 
L 148.123676 42.808163 
L 148.561088 43.064411 
L 149.650833 43.701035 
L 150.247337 44.04898 
L 150.740578 44.329931 
L 151.830324 44.948388 
L 152.433699 45.289796 
L 152.920069 45.558666 
L 154.009814 46.157957 
L 154.689855 46.530612 
L 155.09956 46.75008 
L 156.189305 47.32946 
L 157.023203 47.771429 
L 157.27905 47.904059 
L 158.368795 48.463026 
L 159.441349 49.012245 
L 159.458541 49.020861 
L 160.548286 49.559129 
L 161.638031 50.095911 
L 161.960978 50.253061 
L 162.727777 50.618534 
L 163.817522 51.13398 
L 164.584649 51.493878 
L 164.907267 51.642234 
L 165.997013 52.136525 
L 167.086758 52.628091 
L 167.086758 52.734694 
L 167.086758 53.97551 
L 167.086758 55.216327 
L 167.086758 56.457143 
L 167.086758 57.697959 
L 167.086758 58.938776 
L 167.086758 60.179592 
L 167.086758 61.420408 
L 167.086758 61.792463 
L 165.997013 61.436522 
L 165.948572 61.420408 
L 164.907267 61.067347 
L 163.817522 60.695333 
L 162.727777 60.321178 
L 162.320673 60.179592 
L 161.638031 59.937362 
L 160.548286 59.547043 
L 159.458541 59.155091 
L 158.862602 58.938776 
L 158.368795 58.75572 
L 157.27905 58.34776 
L 156.189305 57.938817 
L 155.55189 57.697959 
L 155.09956 57.523241 
L 154.009814 57.098738 
L 152.920069 56.674056 
L 152.366749 56.457143 
L 151.830324 56.241994 
L 150.740578 55.802534 
L 149.650833 55.363854 
L 149.286542 55.216327 
L 148.561088 54.915509 
L 147.471342 54.463201 
L 146.381597 54.01279 
L 146.292026 53.97551 
L 145.291852 53.548956 
L 144.202107 53.086459 
L 143.370195 52.734694 
L 143.112361 52.62291 
L 142.022616 52.149288 
L 140.932871 51.679811 
L 140.500632 51.493878 
L 139.843125 51.203695 
L 138.75338 50.725323 
L 137.664728 50.253061 
L 137.663635 50.252574 
L 136.57389 49.766756 
L 135.484144 49.287743 
L 134.851597 49.012245 
L 134.394399 48.80772 
L 133.304654 48.324145 
L 132.214908 47.849033 
L 132.035737 47.771429 
L 131.125163 47.366141 
L 130.035418 46.889664 
L 129.199299 46.530612 
L 128.945672 46.418636 
L 127.855927 45.94293 
L 126.766182 45.478678 
L 126.315336 45.289796 
L 125.676437 45.014482 
L 124.586691 44.554626 
L 123.496946 44.107888 
L 123.350811 44.04898 
L 122.407201 43.657562 
L 121.317455 43.218977 
L 120.261848 42.808163 
L 120.22771 42.794485 
L 119.137965 42.366619 
L 118.048219 41.95471 
L 116.981924 41.567347 
L 116.958474 41.558572 
L 115.868729 41.161285 
L 114.778984 40.781357 
L 113.689238 40.41893 
L 113.400803 40.326531 
L 112.599493 40.061978 
L 111.509748 39.719188 
L 110.420002 39.395089 
L 109.330257 39.089738 
L 109.315213 39.085714 
L 108.240512 38.78929 
L 107.150767 38.508385 
L 106.061021 38.247214 
L 104.971276 38.00576 
L 104.184626 37.844898 
L 103.881531 37.780924 
L 102.791785 37.568611 
L 101.70204 37.376841 
L 100.612295 37.205539 
L 99.522549 37.054617 
L 98.432804 36.923981 
L 97.343059 36.81353 
L 96.253314 36.723157 
L 95.163568 36.65275 
L 94.115185 36.604082 
L 94.073823 36.602096 
L 92.984078 36.569652 
L 91.894332 36.557844 
L 90.804587 36.566558 
L 89.714842 36.595683 
L 89.532272 36.604082 
L 88.625096 36.643025 
L 87.535351 36.709088 
L 86.445606 36.794186 
L 85.355861 36.898217 
L 84.266115 37.021084 
L 83.17637 37.162699 
L 82.086625 37.322984 
L 80.996879 37.50187 
L 79.907134 37.699303 
L 79.176428 37.844898 
L 78.817389 37.911539 
L 77.727643 38.133496 
L 76.637898 38.372735 
L 75.548153 38.629222 
L 74.458408 38.902942 
L 73.778145 39.085714 
L 73.368662 39.18809 
L 72.278917 39.479555 
L 71.189172 39.787062 
L 70.099426 40.110621 
L 69.410951 40.326531 
L 69.009681 40.443512 
L 67.919936 40.779625 
L 66.830191 41.130651 
L 65.740445 41.496628 
L 65.540937 41.567347 
L 64.6507 41.860362 
L 63.560955 42.234011 
L 62.471209 42.621512 
L 61.969153 42.808163 
L 61.381464 43.010858 
L 60.291719 43.402553 
z
" style="fill:#c1d9ed;"/>
   </g>
   <g id="PathCollection_5">
    <path clip-path="url(#pae1eb7d9c0)" d="M 60.291719 65.142857 
L 60.291719 63.902041 
L 60.291719 62.661224 
L 60.291719 61.420408 
L 60.291719 60.179592 
L 60.291719 58.938776 
L 60.291719 57.697959 
L 60.291719 56.457143 
L 60.291719 55.216327 
L 60.291719 53.97551 
L 60.291719 52.734694 
L 60.291719 51.493878 
L 60.291719 50.253061 
L 60.291719 49.012245 
L 60.291719 47.771429 
L 60.291719 46.530612 
L 60.291719 45.289796 
L 60.291719 44.04898 
L 60.291719 43.402553 
L 61.381464 43.010858 
L 61.969153 42.808163 
L 62.471209 42.621512 
L 63.560955 42.234011 
L 64.6507 41.860362 
L 65.540937 41.567347 
L 65.740445 41.496628 
L 66.830191 41.130651 
L 67.919936 40.779625 
L 69.009681 40.443512 
L 69.410951 40.326531 
L 70.099426 40.110621 
L 71.189172 39.787062 
L 72.278917 39.479555 
L 73.368662 39.18809 
L 73.778145 39.085714 
L 74.458408 38.902942 
L 75.548153 38.629222 
L 76.637898 38.372735 
L 77.727643 38.133496 
L 78.817389 37.911539 
L 79.176428 37.844898 
L 79.907134 37.699303 
L 80.996879 37.50187 
L 82.086625 37.322984 
L 83.17637 37.162699 
L 84.266115 37.021084 
L 85.355861 36.898217 
L 86.445606 36.794186 
L 87.535351 36.709088 
L 88.625096 36.643025 
L 89.532272 36.604082 
L 89.714842 36.595683 
L 90.804587 36.566558 
L 91.894332 36.557844 
L 92.984078 36.569652 
L 94.073823 36.602096 
L 94.115185 36.604082 
L 95.163568 36.65275 
L 96.253314 36.723157 
L 97.343059 36.81353 
L 98.432804 36.923981 
L 99.522549 37.054617 
L 100.612295 37.205539 
L 101.70204 37.376841 
L 102.791785 37.568611 
L 103.881531 37.780924 
L 104.184626 37.844898 
L 104.971276 38.00576 
L 106.061021 38.247214 
L 107.150767 38.508385 
L 108.240512 38.78929 
L 109.315213 39.085714 
L 109.330257 39.089738 
L 110.420002 39.395089 
L 111.509748 39.719188 
L 112.599493 40.061978 
L 113.400803 40.326531 
L 113.689238 40.41893 
L 114.778984 40.781357 
L 115.868729 41.161285 
L 116.958474 41.558572 
L 116.981924 41.567347 
L 118.048219 41.95471 
L 119.137965 42.366619 
L 120.22771 42.794485 
L 120.261848 42.808163 
L 121.317455 43.218977 
L 122.407201 43.657562 
L 123.350811 44.04898 
L 123.496946 44.107888 
L 124.586691 44.554626 
L 125.676437 45.014482 
L 126.315336 45.289796 
L 126.766182 45.478678 
L 127.855927 45.94293 
L 128.945672 46.418636 
L 129.199299 46.530612 
L 130.035418 46.889664 
L 131.125163 47.366141 
L 132.035737 47.771429 
L 132.214908 47.849033 
L 133.304654 48.324145 
L 134.394399 48.80772 
L 134.851597 49.012245 
L 135.484144 49.287743 
L 136.57389 49.766756 
L 137.663635 50.252574 
L 137.664728 50.253061 
L 138.75338 50.725323 
L 139.843125 51.203695 
L 140.500632 51.493878 
L 140.932871 51.679811 
L 142.022616 52.149288 
L 143.112361 52.62291 
L 143.370195 52.734694 
L 144.202107 53.086459 
L 145.291852 53.548956 
L 146.292026 53.97551 
L 146.381597 54.01279 
L 147.471342 54.463201 
L 148.561088 54.915509 
L 149.286542 55.216327 
L 149.650833 55.363854 
L 150.740578 55.802534 
L 151.830324 56.241994 
L 152.366749 56.457143 
L 152.920069 56.674056 
L 154.009814 57.098738 
L 155.09956 57.523241 
L 155.55189 57.697959 
L 156.189305 57.938817 
L 157.27905 58.34776 
L 158.368795 58.75572 
L 158.862602 58.938776 
L 159.458541 59.155091 
L 160.548286 59.547043 
L 161.638031 59.937362 
L 162.320673 60.179592 
L 162.727777 60.321178 
L 163.817522 60.695333 
L 164.907267 61.067347 
L 165.948572 61.420408 
L 165.997013 61.436522 
L 167.086758 61.792463 
L 167.086758 62.661224 
L 167.086758 63.902041 
L 167.086758 65.142857 
L 167.086758 66.383673 
L 167.086758 67.62449 
L 167.086758 68.865306 
L 167.086758 70.106122 
L 167.086758 71.346939 
L 167.086758 72.202671 
L 165.997013 71.978236 
L 164.907267 71.752146 
L 163.817522 71.524512 
L 162.975091 71.346939 
L 162.727777 71.2938 
L 161.638031 71.056 
L 160.548286 70.816906 
L 159.458541 70.576662 
L 158.368795 70.335418 
L 157.337302 70.106122 
L 157.27905 70.092903 
L 156.189305 69.841903 
L 155.09956 69.590302 
L 154.009814 69.33829 
L 152.920069 69.086064 
L 151.967846 68.865306 
L 151.830324 68.832711 
L 150.740578 68.571679 
L 149.650833 68.311 
L 148.561088 68.05091 
L 147.471342 67.791652 
L 146.76904 67.62449 
L 146.381597 67.530081 
L 145.291852 67.26361 
L 144.202107 66.998712 
L 143.112361 66.735666 
L 142.022616 66.474753 
L 141.642021 66.383673 
L 140.932871 66.209724 
L 139.843125 65.943889 
L 138.75338 65.681094 
L 137.663635 65.421644 
L 136.57389 65.16585 
L 136.475668 65.142857 
L 135.484144 64.904679 
L 134.394399 64.646944 
L 133.304654 64.393898 
L 132.214908 64.145861 
L 131.125163 63.903148 
L 131.120149 63.902041 
L 130.035418 63.656011 
L 128.945672 63.414948 
L 127.855927 63.180319 
L 126.766182 62.95243 
L 125.676437 62.73158 
L 125.321139 62.661224 
L 124.586691 62.511686 
L 123.496946 62.296549 
L 122.407201 62.089568 
L 121.317455 61.891014 
L 120.22771 61.701144 
L 119.137965 61.5202 
L 118.509378 61.420408 
L 118.048219 61.345052 
L 116.958474 61.17501 
L 115.868729 61.014923 
L 114.778984 60.864988 
L 113.689238 60.725382 
L 112.599493 60.596269 
L 111.509748 60.477793 
L 110.420002 60.370083 
L 109.330257 60.27325 
L 108.240512 60.18739 
L 108.128774 60.179592 
L 107.150767 60.109225 
L 106.061021 60.042302 
L 104.971276 59.987064 
L 103.881531 59.943547 
L 102.791785 59.911773 
L 101.70204 59.891751 
L 100.612295 59.88347 
L 99.522549 59.886909 
L 98.432804 59.902032 
L 97.343059 59.928791 
L 96.253314 59.967123 
L 95.163568 60.016958 
L 94.073823 60.078211 
L 92.984078 60.150791 
L 92.61449 60.179592 
L 91.894332 60.231748 
L 90.804587 60.321698 
L 89.714842 60.421998 
L 88.625096 60.532513 
L 87.535351 60.653106 
L 86.445606 60.783632 
L 85.355861 60.923942 
L 84.266115 61.073885 
L 83.17637 61.233305 
L 82.086625 61.402045 
L 81.976273 61.420408 
L 80.996879 61.571232 
L 79.907134 61.747773 
L 78.817389 61.932492 
L 77.727643 62.125221 
L 76.637898 62.32579 
L 75.548153 62.534032 
L 74.91159 62.661224 
L 74.458408 62.744807 
L 73.368662 62.95522 
L 72.278917 63.172186 
L 71.189172 63.395539 
L 70.099426 63.625113 
L 69.009681 63.860746 
L 68.826887 63.902041 
L 67.919936 64.090694 
L 66.830191 64.323446 
L 65.740445 64.561213 
L 64.6507 64.803842 
L 63.560955 65.051185 
L 63.170336 65.142857 
L 62.471209 65.29362 
L 61.381464 65.534591 
L 60.291719 65.779331 
z
" style="fill:#a8cee4;"/>
   </g>
   <g id="PathCollection_6">
    <path clip-path="url(#pae1eb7d9c0)" d="M 60.291719 82.514286 
L 60.291719 81.273469 
L 60.291719 80.032653 
L 60.291719 78.791837 
L 60.291719 77.55102 
L 60.291719 76.310204 
L 60.291719 75.069388 
L 60.291719 73.828571 
L 60.291719 72.587755 
L 60.291719 71.346939 
L 60.291719 70.106122 
L 60.291719 68.865306 
L 60.291719 67.62449 
L 60.291719 66.383673 
L 60.291719 65.779331 
L 61.381464 65.534591 
L 62.471209 65.29362 
L 63.170336 65.142857 
L 63.560955 65.051185 
L 64.6507 64.803842 
L 65.740445 64.561213 
L 66.830191 64.323446 
L 67.919936 64.090694 
L 68.826887 63.902041 
L 69.009681 63.860746 
L 70.099426 63.625113 
L 71.189172 63.395539 
L 72.278917 63.172186 
L 73.368662 62.95522 
L 74.458408 62.744807 
L 74.91159 62.661224 
L 75.548153 62.534032 
L 76.637898 62.32579 
L 77.727643 62.125221 
L 78.817389 61.932492 
L 79.907134 61.747773 
L 80.996879 61.571232 
L 81.976273 61.420408 
L 82.086625 61.402045 
L 83.17637 61.233305 
L 84.266115 61.073885 
L 85.355861 60.923942 
L 86.445606 60.783632 
L 87.535351 60.653106 
L 88.625096 60.532513 
L 89.714842 60.421998 
L 90.804587 60.321698 
L 91.894332 60.231748 
L 92.61449 60.179592 
L 92.984078 60.150791 
L 94.073823 60.078211 
L 95.163568 60.016958 
L 96.253314 59.967123 
L 97.343059 59.928791 
L 98.432804 59.902032 
L 99.522549 59.886909 
L 100.612295 59.88347 
L 101.70204 59.891751 
L 102.791785 59.911773 
L 103.881531 59.943547 
L 104.971276 59.987064 
L 106.061021 60.042302 
L 107.150767 60.109225 
L 108.128774 60.179592 
L 108.240512 60.18739 
L 109.330257 60.27325 
L 110.420002 60.370083 
L 111.509748 60.477793 
L 112.599493 60.596269 
L 113.689238 60.725382 
L 114.778984 60.864988 
L 115.868729 61.014923 
L 116.958474 61.17501 
L 118.048219 61.345052 
L 118.509378 61.420408 
L 119.137965 61.5202 
L 120.22771 61.701144 
L 121.317455 61.891014 
L 122.407201 62.089568 
L 123.496946 62.296549 
L 124.586691 62.511686 
L 125.321139 62.661224 
L 125.676437 62.73158 
L 126.766182 62.95243 
L 127.855927 63.180319 
L 128.945672 63.414948 
L 130.035418 63.656011 
L 131.120149 63.902041 
L 131.125163 63.903148 
L 132.214908 64.145861 
L 133.304654 64.393898 
L 134.394399 64.646944 
L 135.484144 64.904679 
L 136.475668 65.142857 
L 136.57389 65.16585 
L 137.663635 65.421644 
L 138.75338 65.681094 
L 139.843125 65.943889 
L 140.932871 66.209724 
L 141.642021 66.383673 
L 142.022616 66.474753 
L 143.112361 66.735666 
L 144.202107 66.998712 
L 145.291852 67.26361 
L 146.381597 67.530081 
L 146.76904 67.62449 
L 147.471342 67.791652 
L 148.561088 68.05091 
L 149.650833 68.311 
L 150.740578 68.571679 
L 151.830324 68.832711 
L 151.967846 68.865306 
L 152.920069 69.086064 
L 154.009814 69.33829 
L 155.09956 69.590302 
L 156.189305 69.841903 
L 157.27905 70.092903 
L 157.337302 70.106122 
L 158.368795 70.335418 
L 159.458541 70.576662 
L 160.548286 70.816906 
L 161.638031 71.056 
L 162.727777 71.2938 
L 162.975091 71.346939 
L 163.817522 71.524512 
L 164.907267 71.752146 
L 165.997013 71.978236 
L 167.086758 72.202671 
L 167.086758 72.587755 
L 167.086758 73.828571 
L 167.086758 75.069388 
L 167.086758 76.310204 
L 167.086758 77.55102 
L 167.086758 78.791837 
L 167.086758 80.032653 
L 167.086758 81.273469 
L 167.086758 82.514286 
L 167.086758 83.755102 
L 167.086758 84.307334 
L 165.997013 84.229945 
L 164.907267 84.152 
L 163.817522 84.073539 
L 162.727777 83.994606 
L 161.638031 83.91525 
L 160.548286 83.83552 
L 159.458541 83.755472 
L 159.453589 83.755102 
L 158.368795 83.672514 
L 157.27905 83.589291 
L 156.189305 83.505883 
L 155.09956 83.422359 
L 154.009814 83.338791 
L 152.920069 83.255256 
L 151.830324 83.171836 
L 150.740578 83.088615 
L 149.650833 83.005679 
L 148.561088 82.92312 
L 147.471342 82.841033 
L 146.381597 82.759514 
L 145.291852 82.678665 
L 144.202107 82.598588 
L 143.112361 82.519391 
L 143.042186 82.514286 
L 142.022616 82.438381 
L 140.932871 82.35827 
L 139.843125 82.279369 
L 138.75338 82.201798 
L 137.663635 82.125676 
L 136.57389 82.051126 
L 135.484144 81.978268 
L 134.394399 81.907226 
L 133.304654 81.838121 
L 132.214908 81.771075 
L 131.125163 81.706207 
L 130.035418 81.643636 
L 128.945672 81.583478 
L 127.855927 81.525847 
L 126.766182 81.470853 
L 125.676437 81.418603 
L 124.586691 81.369199 
L 123.496946 81.322739 
L 122.407201 81.279317 
L 122.251586 81.273469 
L 121.317455 81.237455 
L 120.22771 81.198654 
L 119.137965 81.163261 
L 118.048219 81.131348 
L 116.958474 81.102986 
L 115.868729 81.078232 
L 114.778984 81.057141 
L 113.689238 81.039755 
L 112.599493 81.026113 
L 111.509748 81.01624 
L 110.420002 81.010158 
L 109.330257 81.007876 
L 108.240512 81.009399 
L 107.150767 81.014719 
L 106.061021 81.023823 
L 104.971276 81.036689 
L 103.881531 81.053287 
L 102.791785 81.07358 
L 101.70204 81.097521 
L 100.612295 81.12506 
L 99.522549 81.156136 
L 98.432804 81.190685 
L 97.343059 81.228636 
L 96.253314 81.26991 
L 96.168186 81.273469 
L 95.163568 81.312309 
L 94.073823 81.357484 
L 92.984078 81.405526 
L 91.894332 81.456342 
L 90.804587 81.509835 
L 89.714842 81.565905 
L 88.625096 81.624452 
L 87.535351 81.685371 
L 86.445606 81.748558 
L 85.355861 81.813907 
L 84.266115 81.881312 
L 83.17637 81.950666 
L 82.086625 82.021864 
L 80.996879 82.094798 
L 79.907134 82.169364 
L 78.817389 82.245458 
L 77.727643 82.322977 
L 76.637898 82.401819 
L 75.548153 82.481887 
L 75.120963 82.514286 
L 74.458408 82.560269 
L 73.368662 82.637707 
L 72.278917 82.715968 
L 71.189172 82.794966 
L 70.099426 82.874617 
L 69.009681 82.954841 
L 67.919936 83.03556 
L 66.830191 83.116698 
L 65.740445 83.198183 
L 64.6507 83.279946 
L 63.560955 83.36192 
L 62.471209 83.444042 
L 61.381464 83.52625 
L 60.291719 83.608487 
z
" style="fill:#8abfdd;"/>
   </g>
   <g id="PathCollection_7">
    <path clip-path="url(#pae1eb7d9c0)" d="M 60.291719 97.404082 
L 60.291719 96.163265 
L 60.291719 94.922449 
L 60.291719 93.681633 
L 60.291719 92.440816 
L 60.291719 91.2 
L 60.291719 89.959184 
L 60.291719 88.718367 
L 60.291719 87.477551 
L 60.291719 86.236735 
L 60.291719 84.995918 
L 60.291719 83.755102 
L 60.291719 83.608487 
L 61.381464 83.52625 
L 62.471209 83.444042 
L 63.560955 83.36192 
L 64.6507 83.279946 
L 65.740445 83.198183 
L 66.830191 83.116698 
L 67.919936 83.03556 
L 69.009681 82.954841 
L 70.099426 82.874617 
L 71.189172 82.794966 
L 72.278917 82.715968 
L 73.368662 82.637707 
L 74.458408 82.560269 
L 75.120963 82.514286 
L 75.548153 82.481887 
L 76.637898 82.401819 
L 77.727643 82.322977 
L 78.817389 82.245458 
L 79.907134 82.169364 
L 80.996879 82.094798 
L 82.086625 82.021864 
L 83.17637 81.950666 
L 84.266115 81.881312 
L 85.355861 81.813907 
L 86.445606 81.748558 
L 87.535351 81.685371 
L 88.625096 81.624452 
L 89.714842 81.565905 
L 90.804587 81.509835 
L 91.894332 81.456342 
L 92.984078 81.405526 
L 94.073823 81.357484 
L 95.163568 81.312309 
L 96.168186 81.273469 
L 96.253314 81.26991 
L 97.343059 81.228636 
L 98.432804 81.190685 
L 99.522549 81.156136 
L 100.612295 81.12506 
L 101.70204 81.097521 
L 102.791785 81.07358 
L 103.881531 81.053287 
L 104.971276 81.036689 
L 106.061021 81.023823 
L 107.150767 81.014719 
L 108.240512 81.009399 
L 109.330257 81.007876 
L 110.420002 81.010158 
L 111.509748 81.01624 
L 112.599493 81.026113 
L 113.689238 81.039755 
L 114.778984 81.057141 
L 115.868729 81.078232 
L 116.958474 81.102986 
L 118.048219 81.131348 
L 119.137965 81.163261 
L 120.22771 81.198654 
L 121.317455 81.237455 
L 122.251586 81.273469 
L 122.407201 81.279317 
L 123.496946 81.322739 
L 124.586691 81.369199 
L 125.676437 81.418603 
L 126.766182 81.470853 
L 127.855927 81.525847 
L 128.945672 81.583478 
L 130.035418 81.643636 
L 131.125163 81.706207 
L 132.214908 81.771075 
L 133.304654 81.838121 
L 134.394399 81.907226 
L 135.484144 81.978268 
L 136.57389 82.051126 
L 137.663635 82.125676 
L 138.75338 82.201798 
L 139.843125 82.279369 
L 140.932871 82.35827 
L 142.022616 82.438381 
L 143.042186 82.514286 
L 143.112361 82.519391 
L 144.202107 82.598588 
L 145.291852 82.678665 
L 146.381597 82.759514 
L 147.471342 82.841033 
L 148.561088 82.92312 
L 149.650833 83.005679 
L 150.740578 83.088615 
L 151.830324 83.171836 
L 152.920069 83.255256 
L 154.009814 83.338791 
L 155.09956 83.422359 
L 156.189305 83.505883 
L 157.27905 83.589291 
L 158.368795 83.672514 
L 159.453589 83.755102 
L 159.458541 83.755472 
L 160.548286 83.83552 
L 161.638031 83.91525 
L 162.727777 83.994606 
L 163.817522 84.073539 
L 164.907267 84.152 
L 165.997013 84.229945 
L 167.086758 84.307334 
L 167.086758 84.995918 
L 167.086758 86.236735 
L 167.086758 87.477551 
L 167.086758 88.718367 
L 167.086758 89.959184 
L 167.086758 91.2 
L 167.086758 92.440816 
L 167.086758 93.681633 
L 167.086758 94.922449 
L 167.086758 96.163265 
L 167.086758 97.404082 
L 167.086758 98.644898 
L 167.086758 98.785545 
L 165.997013 98.865109 
L 164.907267 98.945134 
L 163.817522 99.025568 
L 162.727777 99.106354 
L 161.638031 99.18743 
L 160.548286 99.268731 
L 159.458541 99.350185 
L 158.368795 99.431718 
L 157.27905 99.51325 
L 156.189305 99.594697 
L 155.09956 99.675969 
L 154.009814 99.756971 
L 152.920069 99.837604 
L 152.269778 99.885714 
L 151.830324 99.916663 
L 150.740578 99.993466 
L 149.650833 100.069543 
L 148.561088 100.144779 
L 147.471342 100.219057 
L 146.381597 100.292256 
L 145.291852 100.36425 
L 144.202107 100.434913 
L 143.112361 100.504113 
L 142.022616 100.571718 
L 140.932871 100.637592 
L 139.843125 100.701599 
L 138.75338 100.763601 
L 137.663635 100.823462 
L 136.57389 100.881043 
L 135.484144 100.93621 
L 134.394399 100.988826 
L 133.304654 101.03876 
L 132.214908 101.085883 
L 131.214052 101.126531 
L 131.125163 101.129927 
L 130.035418 101.169377 
L 128.945672 101.205757 
L 127.855927 101.238966 
L 126.766182 101.268909 
L 125.676437 101.295502 
L 124.586691 101.318665 
L 123.496946 101.338331 
L 122.407201 101.354438 
L 121.317455 101.366938 
L 120.22771 101.37579 
L 119.137965 101.380965 
L 118.048219 101.382447 
L 116.958474 101.380227 
L 115.868729 101.37431 
L 114.778984 101.364712 
L 113.689238 101.351461 
L 112.599493 101.334594 
L 111.509748 101.314161 
L 110.420002 101.290221 
L 109.330257 101.262844 
L 108.240512 101.232111 
L 107.150767 101.198109 
L 106.061021 101.160938 
L 105.133265 101.126531 
L 104.971276 101.120403 
L 103.881531 101.074989 
L 102.791785 101.026567 
L 101.70204 100.975266 
L 100.612295 100.921222 
L 99.522549 100.864574 
L 98.432804 100.805466 
L 97.343059 100.744045 
L 96.253314 100.680458 
L 95.163568 100.614857 
L 94.073823 100.547392 
L 92.984078 100.478214 
L 91.894332 100.407473 
L 90.804587 100.335318 
L 89.714842 100.261893 
L 88.625096 100.187345 
L 87.535351 100.111812 
L 86.445606 100.035432 
L 85.355861 99.958339 
L 84.339439 99.885714 
L 84.266115 99.880365 
L 83.17637 99.797644 
L 82.086625 99.714518 
L 80.996879 99.631109 
L 79.907134 99.547532 
L 78.817389 99.463897 
L 77.727643 99.380309 
L 76.637898 99.296867 
L 75.548153 99.213663 
L 74.458408 99.130784 
L 73.368662 99.048312 
L 72.278917 98.966324 
L 71.189172 98.88489 
L 70.099426 98.804074 
L 69.009681 98.723937 
L 67.925125 98.644898 
L 67.919936 98.644511 
L 66.830191 98.560872 
L 65.740445 98.478081 
L 64.6507 98.39618 
L 63.560955 98.315211 
L 62.471209 98.23521 
L 61.381464 98.156207 
L 60.291719 98.078231 
z
" style="fill:#6aaed6;"/>
   </g>
   <g id="PathCollection_8">
    <path clip-path="url(#pae1eb7d9c0)" d="M 60.291719 109.812245 
L 60.291719 108.571429 
L 60.291719 107.330612 
L 60.291719 106.089796 
L 60.291719 104.84898 
L 60.291719 103.608163 
L 60.291719 102.367347 
L 60.291719 101.126531 
L 60.291719 99.885714 
L 60.291719 98.644898 
L 60.291719 98.078231 
L 61.381464 98.156207 
L 62.471209 98.23521 
L 63.560955 98.315211 
L 64.6507 98.39618 
L 65.740445 98.478081 
L 66.830191 98.560872 
L 67.919936 98.644511 
L 67.925125 98.644898 
L 69.009681 98.723937 
L 70.099426 98.804074 
L 71.189172 98.88489 
L 72.278917 98.966324 
L 73.368662 99.048312 
L 74.458408 99.130784 
L 75.548153 99.213663 
L 76.637898 99.296867 
L 77.727643 99.380309 
L 78.817389 99.463897 
L 79.907134 99.547532 
L 80.996879 99.631109 
L 82.086625 99.714518 
L 83.17637 99.797644 
L 84.266115 99.880365 
L 84.339439 99.885714 
L 85.355861 99.958339 
L 86.445606 100.035432 
L 87.535351 100.111812 
L 88.625096 100.187345 
L 89.714842 100.261893 
L 90.804587 100.335318 
L 91.894332 100.407473 
L 92.984078 100.478214 
L 94.073823 100.547392 
L 95.163568 100.614857 
L 96.253314 100.680458 
L 97.343059 100.744045 
L 98.432804 100.805466 
L 99.522549 100.864574 
L 100.612295 100.921222 
L 101.70204 100.975266 
L 102.791785 101.026567 
L 103.881531 101.074989 
L 104.971276 101.120403 
L 105.133265 101.126531 
L 106.061021 101.160938 
L 107.150767 101.198109 
L 108.240512 101.232111 
L 109.330257 101.262844 
L 110.420002 101.290221 
L 111.509748 101.314161 
L 112.599493 101.334594 
L 113.689238 101.351461 
L 114.778984 101.364712 
L 115.868729 101.37431 
L 116.958474 101.380227 
L 118.048219 101.382447 
L 119.137965 101.380965 
L 120.22771 101.37579 
L 121.317455 101.366938 
L 122.407201 101.354438 
L 123.496946 101.338331 
L 124.586691 101.318665 
L 125.676437 101.295502 
L 126.766182 101.268909 
L 127.855927 101.238966 
L 128.945672 101.205757 
L 130.035418 101.169377 
L 131.125163 101.129927 
L 131.214052 101.126531 
L 132.214908 101.085883 
L 133.304654 101.03876 
L 134.394399 100.988826 
L 135.484144 100.93621 
L 136.57389 100.881043 
L 137.663635 100.823462 
L 138.75338 100.763601 
L 139.843125 100.701599 
L 140.932871 100.637592 
L 142.022616 100.571718 
L 143.112361 100.504113 
L 144.202107 100.434913 
L 145.291852 100.36425 
L 146.381597 100.292256 
L 147.471342 100.219057 
L 148.561088 100.144779 
L 149.650833 100.069543 
L 150.740578 99.993466 
L 151.830324 99.916663 
L 152.269778 99.885714 
L 152.920069 99.837604 
L 154.009814 99.756971 
L 155.09956 99.675969 
L 156.189305 99.594697 
L 157.27905 99.51325 
L 158.368795 99.431718 
L 159.458541 99.350185 
L 160.548286 99.268731 
L 161.638031 99.18743 
L 162.727777 99.106354 
L 163.817522 99.025568 
L 164.907267 98.945134 
L 165.997013 98.865109 
L 167.086758 98.785545 
L 167.086758 99.885714 
L 167.086758 101.126531 
L 167.086758 102.367347 
L 167.086758 103.608163 
L 167.086758 104.84898 
L 167.086758 106.089796 
L 167.086758 107.330612 
L 167.086758 108.571429 
L 167.086758 109.812245 
L 167.086758 111.053061 
L 167.086758 112.293878 
L 167.086758 113.534694 
L 167.086758 114.77551 
L 167.086758 116.016327 
L 167.086758 116.606114 
L 165.997013 116.852706 
L 164.907267 117.100045 
L 164.219993 117.257143 
L 163.817522 117.344905 
L 162.727777 117.584704 
L 161.638031 117.824292 
L 160.548286 118.063381 
L 159.458541 118.301665 
L 158.55885 118.497959 
L 158.368795 118.537419 
L 157.27905 118.76491 
L 156.189305 118.990439 
L 155.09956 119.213635 
L 154.009814 119.434108 
L 152.920069 119.651455 
L 152.479274 119.738776 
L 151.830324 119.860703 
L 150.740578 120.062833 
L 149.650833 120.260521 
L 148.561088 120.45332 
L 147.471342 120.640778 
L 146.381597 120.82243 
L 145.406952 120.979592 
L 145.291852 120.997124 
L 144.202107 121.15935 
L 143.112361 121.314502 
L 142.022616 121.462131 
L 140.932871 121.601796 
L 139.843125 121.73306 
L 138.75338 121.855501 
L 137.663635 121.968705 
L 136.57389 122.072281 
L 135.484144 122.165853 
L 134.775549 122.220408 
L 134.394399 122.247916 
L 133.304654 122.317499 
L 132.214908 122.376516 
L 131.125163 122.42473 
L 130.035418 122.461938 
L 128.945672 122.487974 
L 127.855927 122.502712 
L 126.766182 122.506066 
L 125.676437 122.497992 
L 124.586691 122.47849 
L 123.496946 122.447602 
L 122.407201 122.405416 
L 121.317455 122.352064 
L 120.22771 122.28772 
L 119.254504 122.220408 
L 119.137965 122.212238 
L 118.048219 122.122599 
L 116.958474 122.022216 
L 115.868729 121.911433 
L 114.778984 121.790628 
L 113.689238 121.660214 
L 112.599493 121.520634 
L 111.509748 121.372355 
L 110.420002 121.215871 
L 109.330257 121.051689 
L 108.881551 120.979592 
L 108.240512 120.875402 
L 107.150767 120.688518 
L 106.061021 120.495184 
L 104.971276 120.295975 
L 103.881531 120.09147 
L 102.791785 119.882243 
L 102.06868 119.738776 
L 101.70204 119.665236 
L 100.612295 119.436967 
L 99.522549 119.205442 
L 98.432804 118.971221 
L 97.343059 118.734851 
L 96.258567 118.497959 
L 96.253314 118.496799 
L 95.163568 118.244802 
L 94.073823 117.992086 
L 92.984078 117.739135 
L 91.894332 117.486408 
L 90.907089 117.257143 
L 90.804587 117.233066 
L 89.714842 116.968068 
L 88.625096 116.704544 
L 87.535351 116.442863 
L 86.445606 116.183366 
L 85.748175 116.016327 
L 85.355861 115.921201 
L 84.266115 115.652367 
L 83.17637 115.386712 
L 82.086625 115.124484 
L 80.996879 114.865901 
L 80.621088 114.77551 
L 79.907134 114.601434 
L 78.817389 114.335843 
L 77.727643 114.074627 
L 76.637898 113.817919 
L 75.548153 113.565831 
L 75.416179 113.534694 
L 74.458408 113.305278 
L 73.368662 113.047882 
L 72.278917 112.795594 
L 71.189172 112.548457 
L 70.099426 112.306496 
L 70.043712 112.293878 
L 69.009681 112.055668 
L 67.919936 111.809537 
L 66.830191 111.568878 
L 65.740445 111.333666 
L 64.6507 111.103861 
L 64.412254 111.053061 
L 63.560955 110.868217 
L 62.471209 110.634928 
L 61.381464 110.407201 
L 60.291719 110.184962 
z
" style="fill:#529dcc;"/>
   </g>
   <g id="PathCollection_9">
    <path clip-path="url(#pae1eb7d9c0)" d="M 60.291719 119.738776 
L 60.291719 118.497959 
L 60.291719 117.257143 
L 60.291719 116.016327 
L 60.291719 114.77551 
L 60.291719 113.534694 
L 60.291719 112.293878 
L 60.291719 111.053061 
L 60.291719 110.184962 
L 61.381464 110.407201 
L 62.471209 110.634928 
L 63.560955 110.868217 
L 64.412254 111.053061 
L 64.6507 111.103861 
L 65.740445 111.333666 
L 66.830191 111.568878 
L 67.919936 111.809537 
L 69.009681 112.055668 
L 70.043712 112.293878 
L 70.099426 112.306496 
L 71.189172 112.548457 
L 72.278917 112.795594 
L 73.368662 113.047882 
L 74.458408 113.305278 
L 75.416179 113.534694 
L 75.548153 113.565831 
L 76.637898 113.817919 
L 77.727643 114.074627 
L 78.817389 114.335843 
L 79.907134 114.601434 
L 80.621088 114.77551 
L 80.996879 114.865901 
L 82.086625 115.124484 
L 83.17637 115.386712 
L 84.266115 115.652367 
L 85.355861 115.921201 
L 85.748175 116.016327 
L 86.445606 116.183366 
L 87.535351 116.442863 
L 88.625096 116.704544 
L 89.714842 116.968068 
L 90.804587 117.233066 
L 90.907089 117.257143 
L 91.894332 117.486408 
L 92.984078 117.739135 
L 94.073823 117.992086 
L 95.163568 118.244802 
L 96.253314 118.496799 
L 96.258567 118.497959 
L 97.343059 118.734851 
L 98.432804 118.971221 
L 99.522549 119.205442 
L 100.612295 119.436967 
L 101.70204 119.665236 
L 102.06868 119.738776 
L 102.791785 119.882243 
L 103.881531 120.09147 
L 104.971276 120.295975 
L 106.061021 120.495184 
L 107.150767 120.688518 
L 108.240512 120.875402 
L 108.881551 120.979592 
L 109.330257 121.051689 
L 110.420002 121.215871 
L 111.509748 121.372355 
L 112.599493 121.520634 
L 113.689238 121.660214 
L 114.778984 121.790628 
L 115.868729 121.911433 
L 116.958474 122.022216 
L 118.048219 122.122599 
L 119.137965 122.212238 
L 119.254504 122.220408 
L 120.22771 122.28772 
L 121.317455 122.352064 
L 122.407201 122.405416 
L 123.496946 122.447602 
L 124.586691 122.47849 
L 125.676437 122.497992 
L 126.766182 122.506066 
L 127.855927 122.502712 
L 128.945672 122.487974 
L 130.035418 122.461938 
L 131.125163 122.42473 
L 132.214908 122.376516 
L 133.304654 122.317499 
L 134.394399 122.247916 
L 134.775549 122.220408 
L 135.484144 122.165853 
L 136.57389 122.072281 
L 137.663635 121.968705 
L 138.75338 121.855501 
L 139.843125 121.73306 
L 140.932871 121.601796 
L 142.022616 121.462131 
L 143.112361 121.314502 
L 144.202107 121.15935 
L 145.291852 120.997124 
L 145.406952 120.979592 
L 146.381597 120.82243 
L 147.471342 120.640778 
L 148.561088 120.45332 
L 149.650833 120.260521 
L 150.740578 120.062833 
L 151.830324 119.860703 
L 152.479274 119.738776 
L 152.920069 119.651455 
L 154.009814 119.434108 
L 155.09956 119.213635 
L 156.189305 118.990439 
L 157.27905 118.76491 
L 158.368795 118.537419 
L 158.55885 118.497959 
L 159.458541 118.301665 
L 160.548286 118.063381 
L 161.638031 117.824292 
L 162.727777 117.584704 
L 163.817522 117.344905 
L 164.219993 117.257143 
L 164.907267 117.100045 
L 165.997013 116.852706 
L 167.086758 116.606114 
L 167.086758 117.257143 
L 167.086758 118.497959 
L 167.086758 119.738776 
L 167.086758 120.979592 
L 167.086758 122.220408 
L 167.086758 123.461224 
L 167.086758 124.702041 
L 167.086758 125.942857 
L 167.086758 127.183673 
L 167.086758 128.42449 
L 167.086758 129.665306 
L 167.086758 130.906122 
L 167.086758 132.146939 
L 167.086758 133.387755 
L 167.086758 134.628571 
L 167.086758 135.869388 
L 167.086758 137.110204 
L 167.086758 138.35102 
L 167.086758 138.982885 
L 165.997013 139.381047 
L 165.422067 139.591837 
L 164.907267 139.771159 
L 163.817522 140.151522 
L 162.727777 140.52899 
L 161.845313 140.832653 
L 161.638031 140.900303 
L 160.548286 141.256145 
L 159.458541 141.606775 
L 158.368795 141.951413 
L 157.979362 142.073469 
L 157.27905 142.281127 
L 156.189305 142.598656 
L 155.09956 142.907706 
L 154.009814 143.207409 
L 153.612271 143.314286 
L 152.920069 143.489855 
L 151.830324 143.757305 
L 150.740578 144.012966 
L 149.650833 144.255966 
L 148.561088 144.485435 
L 148.213269 144.555102 
L 147.471342 144.694766 
L 146.381597 144.88659 
L 145.291852 145.062863 
L 144.202107 145.222838 
L 143.112361 145.365808 
L 142.022616 145.491108 
L 140.932871 145.598126 
L 139.843125 145.686307 
L 138.75338 145.755163 
L 137.853458 145.795918 
L 137.663635 145.803934 
L 136.57389 145.831769 
L 135.484144 145.840109 
L 134.394399 145.828809 
L 133.304654 145.797813 
L 133.265122 145.795918 
L 132.214908 145.745004 
L 131.125163 145.671688 
L 130.035418 145.578162 
L 128.945672 145.464736 
L 127.855927 145.331815 
L 126.766182 145.179891 
L 125.676437 145.009542 
L 124.586691 144.821429 
L 123.496946 144.616284 
L 123.204023 144.555102 
L 122.407201 144.387546 
L 121.317455 144.139906 
L 120.22771 143.877135 
L 119.137965 143.600239 
L 118.063977 143.314286 
L 118.048219 143.310069 
L 116.958474 142.99387 
L 115.868729 142.666252 
L 114.778984 142.328373 
L 113.987749 142.073469 
L 113.689238 141.97697 
L 112.599493 141.605022 
L 111.509748 141.225984 
L 110.420002 140.841028 
L 110.397607 140.832653 
L 109.330257 140.432662 
L 108.240512 140.020109 
L 107.150767 139.604893 
L 107.118149 139.591837 
L 106.061021 139.168009 
L 104.971276 138.729958 
L 104.033715 138.35102 
L 103.881531 138.289419 
L 102.791785 137.831238 
L 101.70204 137.375583 
L 101.075609 137.110204 
L 100.612295 136.913674 
L 99.522549 136.442555 
L 98.432804 135.976668 
L 98.188207 135.869388 
L 97.343059 135.498229 
L 96.253314 135.021141 
L 95.349886 134.628571 
L 95.163568 134.547477 
L 94.073823 134.061418 
L 92.984078 133.58438 
L 92.539301 133.387755 
L 91.894332 133.102054 
L 90.804587 132.619421 
L 89.714842 132.147403 
L 89.713799 132.146939 
L 88.625096 131.660857 
L 87.535351 131.185989 
L 86.890157 130.906122 
L 86.445606 130.712639 
L 85.355861 130.236204 
L 84.266115 129.772402 
L 84.017416 129.665306 
L 83.17637 129.301578 
L 82.086625 128.837989 
L 81.09039 128.42449 
L 80.996879 128.385472 
L 79.907134 127.922822 
L 78.817389 127.473912 
L 78.103417 127.183673 
L 77.727643 127.029928 
L 76.637898 126.582918 
L 75.548153 126.149776 
L 75.024519 125.942857 
L 74.458408 125.717404 
L 73.368662 125.286717 
L 72.278917 124.869824 
L 71.838967 124.702041 
L 71.189172 124.45193 
L 70.099426 124.037716 
L 69.009681 123.637068 
L 68.528534 123.461224 
L 67.919936 123.236387 
L 66.830191 122.838382 
L 65.740445 122.453608 
L 65.069857 122.220408 
L 64.6507 122.072821 
L 63.560955 121.690452 
L 62.471209 121.320904 
L 61.432127 120.979592 
L 61.381464 120.962713 
L 60.291719 120.595183 
z
" style="fill:#3a8ac2;"/>
   </g>
   <g id="PathCollection_10">
    <path clip-path="url(#pae1eb7d9c0)" d="M 60.291719 129.665306 
L 60.291719 128.42449 
L 60.291719 127.183673 
L 60.291719 125.942857 
L 60.291719 124.702041 
L 60.291719 123.461224 
L 60.291719 122.220408 
L 60.291719 120.979592 
L 60.291719 120.595183 
L 61.381464 120.962713 
L 61.432127 120.979592 
L 62.471209 121.320904 
L 63.560955 121.690452 
L 64.6507 122.072821 
L 65.069857 122.220408 
L 65.740445 122.453608 
L 66.830191 122.838382 
L 67.919936 123.236387 
L 68.528534 123.461224 
L 69.009681 123.637068 
L 70.099426 124.037716 
L 71.189172 124.45193 
L 71.838967 124.702041 
L 72.278917 124.869824 
L 73.368662 125.286717 
L 74.458408 125.717404 
L 75.024519 125.942857 
L 75.548153 126.149776 
L 76.637898 126.582918 
L 77.727643 127.029928 
L 78.103417 127.183673 
L 78.817389 127.473912 
L 79.907134 127.922822 
L 80.996879 128.385472 
L 81.09039 128.42449 
L 82.086625 128.837989 
L 83.17637 129.301578 
L 84.017416 129.665306 
L 84.266115 129.772402 
L 85.355861 130.236204 
L 86.445606 130.712639 
L 86.890157 130.906122 
L 87.535351 131.185989 
L 88.625096 131.660857 
L 89.713799 132.146939 
L 89.714842 132.147403 
L 90.804587 132.619421 
L 91.894332 133.102054 
L 92.539301 133.387755 
L 92.984078 133.58438 
L 94.073823 134.061418 
L 95.163568 134.547477 
L 95.349886 134.628571 
L 96.253314 135.021141 
L 97.343059 135.498229 
L 98.188207 135.869388 
L 98.432804 135.976668 
L 99.522549 136.442555 
L 100.612295 136.913674 
L 101.075609 137.110204 
L 101.70204 137.375583 
L 102.791785 137.831238 
L 103.881531 138.289419 
L 104.033715 138.35102 
L 104.971276 138.729958 
L 106.061021 139.168009 
L 107.118149 139.591837 
L 107.150767 139.604893 
L 108.240512 140.020109 
L 109.330257 140.432662 
L 110.397607 140.832653 
L 110.420002 140.841028 
L 111.509748 141.225984 
L 112.599493 141.605022 
L 113.689238 141.97697 
L 113.987749 142.073469 
L 114.778984 142.328373 
L 115.868729 142.666252 
L 116.958474 142.99387 
L 118.048219 143.310069 
L 118.063977 143.314286 
L 119.137965 143.600239 
L 120.22771 143.877135 
L 121.317455 144.139906 
L 122.407201 144.387546 
L 123.204023 144.555102 
L 123.496946 144.616284 
L 124.586691 144.821429 
L 125.676437 145.009542 
L 126.766182 145.179891 
L 127.855927 145.331815 
L 128.945672 145.464736 
L 130.035418 145.578162 
L 131.125163 145.671688 
L 132.214908 145.745004 
L 133.265122 145.795918 
L 133.304654 145.797813 
L 134.394399 145.828809 
L 135.484144 145.840109 
L 136.57389 145.831769 
L 137.663635 145.803934 
L 137.853458 145.795918 
L 138.75338 145.755163 
L 139.843125 145.686307 
L 140.932871 145.598126 
L 142.022616 145.491108 
L 143.112361 145.365808 
L 144.202107 145.222838 
L 145.291852 145.062863 
L 146.381597 144.88659 
L 147.471342 144.694766 
L 148.213269 144.555102 
L 148.561088 144.485435 
L 149.650833 144.255966 
L 150.740578 144.012966 
L 151.830324 143.757305 
L 152.920069 143.489855 
L 153.612271 143.314286 
L 154.009814 143.207409 
L 155.09956 142.907706 
L 156.189305 142.598656 
L 157.27905 142.281127 
L 157.979362 142.073469 
L 158.368795 141.951413 
L 159.458541 141.606775 
L 160.548286 141.256145 
L 161.638031 140.900303 
L 161.845313 140.832653 
L 162.727777 140.52899 
L 163.817522 140.151522 
L 164.907267 139.771159 
L 165.422067 139.591837 
L 165.997013 139.381047 
L 167.086758 138.982885 
L 167.086758 139.591837 
L 167.086758 140.832653 
L 167.086758 142.073469 
L 167.086758 143.314286 
L 167.086758 144.555102 
L 167.086758 145.795918 
L 167.086758 147.036735 
L 167.086758 148.277551 
L 167.086758 149.518367 
L 167.086758 150.759184 
L 167.086758 152 
L 165.997013 152 
L 164.907267 152 
L 163.817522 152 
L 162.727777 152 
L 161.638031 152 
L 160.548286 152 
L 159.458541 152 
L 158.368795 152 
L 157.27905 152 
L 156.189305 152 
L 155.09956 152 
L 154.009814 152 
L 152.920069 152 
L 151.830324 152 
L 150.740578 152 
L 149.650833 152 
L 148.561088 152 
L 147.471342 152 
L 146.381597 152 
L 145.291852 152 
L 144.202107 152 
L 143.112361 152 
L 142.022616 152 
L 140.932871 152 
L 139.843125 152 
L 138.75338 152 
L 137.663635 152 
L 136.57389 152 
L 135.484144 152 
L 134.394399 152 
L 133.304654 152 
L 132.214908 152 
L 131.125163 152 
L 130.035418 152 
L 128.945672 152 
L 127.855927 152 
L 126.766182 152 
L 125.676437 152 
L 124.586691 152 
L 123.496946 152 
L 122.407201 152 
L 121.317455 152 
L 120.22771 152 
L 119.137965 152 
L 118.048219 152 
L 116.958474 152 
L 115.868729 152 
L 114.778984 152 
L 113.689238 152 
L 112.599493 152 
L 111.509748 152 
L 110.420002 152 
L 109.330257 152 
L 108.240512 152 
L 107.150767 152 
L 106.061021 152 
L 104.971276 152 
L 103.881531 152 
L 102.791785 152 
L 101.70204 152 
L 100.612295 152 
L 99.522549 152 
L 98.432804 152 
L 98.31072 152 
L 97.343059 151.328677 
L 96.511711 150.759184 
L 96.253314 150.583575 
L 95.163568 149.83484 
L 94.702271 149.518367 
L 94.073823 149.090509 
L 92.984078 148.35653 
L 92.868646 148.277551 
L 91.894332 147.61573 
L 91.025036 147.036735 
L 90.804587 146.89088 
L 89.714842 146.163496 
L 89.158236 145.795918 
L 88.625096 145.445967 
L 87.535351 144.737293 
L 87.256071 144.555102 
L 86.445606 144.029213 
L 85.355861 143.339917 
L 85.315946 143.314286 
L 84.266115 142.643185 
L 83.347191 142.073469 
L 83.17637 141.967958 
L 82.086625 141.289892 
L 81.333318 140.832653 
L 80.996879 140.629007 
L 79.907134 139.97088 
L 79.267159 139.591837 
L 78.817389 139.325903 
L 77.727643 138.687323 
L 77.143852 138.35102 
L 76.637898 138.059725 
L 75.548153 137.440107 
L 74.957461 137.110204 
L 74.458408 136.831306 
L 73.368662 136.229907 
L 72.700703 135.869388 
L 72.278917 135.641302 
L 71.189172 135.057262 
L 70.364588 134.628571 
L 70.099426 134.490271 
L 69.009681 133.922631 
L 67.937941 133.387755 
L 67.919936 133.378727 
L 66.830191 132.826462 
L 65.740445 132.297752 
L 65.428073 132.146939 
L 64.6507 131.769235 
L 63.560955 131.254133 
L 62.804601 130.906122 
L 62.471209 130.751518 
L 61.381464 130.248932 
L 60.291719 129.767418 
z
" style="fill:#2575b7;"/>
   </g>
   <g id="PathCollection_11">
    <path clip-path="url(#pae1eb7d9c0)" d="M 60.92917 138.35102 
L 60.291719 137.991942 
L 60.291719 137.110204 
L 60.291719 135.869388 
L 60.291719 134.628571 
L 60.291719 133.387755 
L 60.291719 132.146939 
L 60.291719 130.906122 
L 60.291719 129.767418 
L 61.381464 130.248932 
L 62.471209 130.751518 
L 62.804601 130.906122 
L 63.560955 131.254133 
L 64.6507 131.769235 
L 65.428073 132.146939 
L 65.740445 132.297752 
L 66.830191 132.826462 
L 67.919936 133.378727 
L 67.937941 133.387755 
L 69.009681 133.922631 
L 70.099426 134.490271 
L 70.364588 134.628571 
L 71.189172 135.057262 
L 72.278917 135.641302 
L 72.700703 135.869388 
L 73.368662 136.229907 
L 74.458408 136.831306 
L 74.957461 137.110204 
L 75.548153 137.440107 
L 76.637898 138.059725 
L 77.143852 138.35102 
L 77.727643 138.687323 
L 78.817389 139.325903 
L 79.267159 139.591837 
L 79.907134 139.97088 
L 80.996879 140.629007 
L 81.333318 140.832653 
L 82.086625 141.289892 
L 83.17637 141.967958 
L 83.347191 142.073469 
L 84.266115 142.643185 
L 85.315946 143.314286 
L 85.355861 143.339917 
L 86.445606 144.029213 
L 87.256071 144.555102 
L 87.535351 144.737293 
L 88.625096 145.445967 
L 89.158236 145.795918 
L 89.714842 146.163496 
L 90.804587 146.89088 
L 91.025036 147.036735 
L 91.894332 147.61573 
L 92.868646 148.277551 
L 92.984078 148.35653 
L 94.073823 149.090509 
L 94.702271 149.518367 
L 95.163568 149.83484 
L 96.253314 150.583575 
L 96.511711 150.759184 
L 97.343059 151.328677 
L 98.31072 152 
L 97.343059 152 
L 96.253314 152 
L 95.163568 152 
L 94.073823 152 
L 92.984078 152 
L 91.894332 152 
L 90.804587 152 
L 89.714842 152 
L 88.625096 152 
L 87.535351 152 
L 86.445606 152 
L 85.355861 152 
L 84.266115 152 
L 83.17637 152 
L 82.086625 152 
L 81.08883 152 
L 80.996879 151.927245 
L 79.907134 151.061106 
L 79.521982 150.759184 
L 78.817389 150.211921 
L 77.904971 149.518367 
L 77.727643 149.38469 
L 76.637898 148.564079 
L 76.251952 148.277551 
L 75.548153 147.758731 
L 74.541952 147.036735 
L 74.458408 146.977151 
L 73.368662 146.197018 
L 72.794099 145.795918 
L 72.278917 145.437973 
L 71.189172 144.696375 
L 70.980682 144.555102 
L 70.099426 143.959965 
L 69.108305 143.314286 
L 69.009681 143.25018 
L 67.919936 142.540189 
L 67.178892 142.073469 
L 66.830191 141.854024 
L 65.740445 141.175967 
L 65.175295 140.832653 
L 64.6507 140.513745 
L 63.560955 139.864887 
L 63.093845 139.591837 
L 62.471209 139.227048 
L 61.381464 138.604823 
z
" style="fill:#1562a9;"/>
   </g>
   <g id="PathCollection_12">
    <path clip-path="url(#pae1eb7d9c0)" d="M 60.738231 145.795918 
L 60.291719 145.497338 
L 60.291719 144.555102 
L 60.291719 143.314286 
L 60.291719 142.073469 
L 60.291719 140.832653 
L 60.291719 139.591837 
L 60.291719 138.35102 
L 60.291719 137.991942 
L 60.92917 138.35102 
L 61.381464 138.604823 
L 62.471209 139.227048 
L 63.093845 139.591837 
L 63.560955 139.864887 
L 64.6507 140.513745 
L 65.175295 140.832653 
L 65.740445 141.175967 
L 66.830191 141.854024 
L 67.178892 142.073469 
L 67.919936 142.540189 
L 69.009681 143.25018 
L 69.108305 143.314286 
L 70.099426 143.959965 
L 70.980682 144.555102 
L 71.189172 144.696375 
L 72.278917 145.437973 
L 72.794099 145.795918 
L 73.368662 146.197018 
L 74.458408 146.977151 
L 74.541952 147.036735 
L 75.548153 147.758731 
L 76.251952 148.277551 
L 76.637898 148.564079 
L 77.727643 149.38469 
L 77.904971 149.518367 
L 78.817389 150.211921 
L 79.521982 150.759184 
L 79.907134 151.061106 
L 80.996879 151.927245 
L 81.08883 152 
L 80.996879 152 
L 79.907134 152 
L 78.817389 152 
L 77.727643 152 
L 76.637898 152 
L 75.548153 152 
L 74.458408 152 
L 73.368662 152 
L 72.278917 152 
L 71.189172 152 
L 70.099426 152 
L 69.234213 152 
L 69.009681 151.822602 
L 67.919936 150.96954 
L 67.647707 150.759184 
L 66.830191 150.131676 
L 66.007877 149.518367 
L 65.740445 149.320005 
L 64.6507 148.520889 
L 64.313391 148.277551 
L 63.560955 147.736854 
L 62.552381 147.036735 
L 62.471209 146.98054 
L 61.381464 146.226499 
z
" style="fill:#084e98;"/>
   </g>
   <g id="PathCollection_13">
    <path clip-path="url(#pae1eb7d9c0)" d="M 60.291719 150.759184 
L 60.291719 149.518367 
L 60.291719 148.277551 
L 60.291719 147.036735 
L 60.291719 145.795918 
L 60.291719 145.497338 
L 60.738231 145.795918 
L 61.381464 146.226499 
L 62.471209 146.98054 
L 62.552381 147.036735 
L 63.560955 147.736854 
L 64.313391 148.277551 
L 64.6507 148.520889 
L 65.740445 149.320005 
L 66.007877 149.518367 
L 66.830191 150.131676 
L 67.647707 150.759184 
L 67.919936 150.96954 
L 69.009681 151.822602 
L 69.234213 152 
L 69.009681 152 
L 67.919936 152 
L 66.830191 152 
L 65.740445 152 
L 64.6507 152 
L 63.560955 152 
L 62.471209 152 
L 61.381464 152 
L 60.291719 152 
z
" style="fill:#083979;"/>
   </g>
   <g id="matplotlib.axis_1">
    <g id="xtick_1">
     <g id="line2d_1">
      <defs>
       <path d="M 0 0 
L 0 3.5 
" id="mf22d8869e8" style="stroke:#000000;stroke-width:0.8;"/>
      </defs>
      <g>
       <use style="stroke:#000000;stroke-width:0.8;" x="60.291719" xlink:href="#mf22d8869e8" y="152"/>
      </g>
     </g>
     <g id="text_1">
      <!-- $\mathdefault{10^{-1}}$ -->
      <defs>
       <path d="M 12.40625 8.296875 
L 28.515625 8.296875 
L 28.515625 63.921875 
L 10.984375 60.40625 
L 10.984375 69.390625 
L 28.421875 72.90625 
L 38.28125 72.90625 
L 38.28125 8.296875 
L 54.390625 8.296875 
L 54.390625 0 
L 12.40625 0 
z
" id="DejaVuSans-31"/>
       <path d="M 31.78125 66.40625 
Q 24.171875 66.40625 20.328125 58.90625 
Q 16.5 51.421875 16.5 36.375 
Q 16.5 21.390625 20.328125 13.890625 
Q 24.171875 6.390625 31.78125 6.390625 
Q 39.453125 6.390625 43.28125 13.890625 
Q 47.125 21.390625 47.125 36.375 
Q 47.125 51.421875 43.28125 58.90625 
Q 39.453125 66.40625 31.78125 66.40625 
z
M 31.78125 74.21875 
Q 44.046875 74.21875 50.515625 64.515625 
Q 56.984375 54.828125 56.984375 36.375 
Q 56.984375 17.96875 50.515625 8.265625 
Q 44.046875 -1.421875 31.78125 -1.421875 
Q 19.53125 -1.421875 13.0625 8.265625 
Q 6.59375 17.96875 6.59375 36.375 
Q 6.59375 54.828125 13.0625 64.515625 
Q 19.53125 74.21875 31.78125 74.21875 
z
" id="DejaVuSans-30"/>
       <path d="M 10.59375 35.5 
L 73.1875 35.5 
L 73.1875 27.203125 
L 10.59375 27.203125 
z
" id="DejaVuSans-2212"/>
      </defs>
      <g transform="translate(48.541719 166.598437)scale(0.1 -0.1)">
       <use transform="translate(0 0.684375)" xlink:href="#DejaVuSans-31"/>
       <use transform="translate(63.623047 0.684375)" xlink:href="#DejaVuSans-30"/>
       <use transform="translate(128.203125 38.965625)scale(0.7)" xlink:href="#DejaVuSans-2212"/>
       <use transform="translate(186.855469 38.965625)scale(0.7)" xlink:href="#DejaVuSans-31"/>
      </g>
     </g>
    </g>
    <g id="xtick_2">
     <g id="line2d_2">
      <g>
       <use style="stroke:#000000;stroke-width:0.8;" x="113.689238" xlink:href="#mf22d8869e8" y="152"/>
      </g>
     </g>
     <g id="text_2">
      <!-- $\mathdefault{10^{0}}$ -->
      <g transform="translate(104.889238 166.598437)scale(0.1 -0.1)">
       <use transform="translate(0 0.765625)" xlink:href="#DejaVuSans-31"/>
       <use transform="translate(63.623047 0.765625)" xlink:href="#DejaVuSans-30"/>
       <use transform="translate(128.203125 39.046875)scale(0.7)" xlink:href="#DejaVuSans-30"/>
      </g>
     </g>
    </g>
    <g id="xtick_3">
     <g id="line2d_3">
      <g>
       <use style="stroke:#000000;stroke-width:0.8;" x="167.086758" xlink:href="#mf22d8869e8" y="152"/>
      </g>
     </g>
     <g id="text_3">
      <!-- $\mathdefault{10^{1}}$ -->
      <g transform="translate(158.286758 166.598437)scale(0.1 -0.1)">
       <use transform="translate(0 0.684375)" xlink:href="#DejaVuSans-31"/>
       <use transform="translate(63.623047 0.684375)" xlink:href="#DejaVuSans-30"/>
       <use transform="translate(128.203125 38.965625)scale(0.7)" xlink:href="#DejaVuSans-31"/>
      </g>
     </g>
    </g>
    <g id="xtick_4">
     <g id="line2d_4">
      <defs>
       <path d="M 0 0 
L 0 2 
" id="m02f1f12927" style="stroke:#000000;stroke-width:0.6;"/>
      </defs>
      <g>
       <use style="stroke:#000000;stroke-width:0.6;" x="76.365974" xlink:href="#m02f1f12927" y="152"/>
      </g>
     </g>
    </g>
    <g id="xtick_5">
     <g id="line2d_5">
      <g>
       <use style="stroke:#000000;stroke-width:0.6;" x="85.76881" xlink:href="#m02f1f12927" y="152"/>
      </g>
     </g>
    </g>
    <g id="xtick_6">
     <g id="line2d_6">
      <g>
       <use style="stroke:#000000;stroke-width:0.6;" x="92.440229" xlink:href="#m02f1f12927" y="152"/>
      </g>
     </g>
    </g>
    <g id="xtick_7">
     <g id="line2d_7">
      <g>
       <use style="stroke:#000000;stroke-width:0.6;" x="97.614983" xlink:href="#m02f1f12927" y="152"/>
      </g>
     </g>
    </g>
    <g id="xtick_8">
     <g id="line2d_8">
      <g>
       <use style="stroke:#000000;stroke-width:0.6;" x="101.843065" xlink:href="#m02f1f12927" y="152"/>
      </g>
     </g>
    </g>
    <g id="xtick_9">
     <g id="line2d_9">
      <g>
       <use style="stroke:#000000;stroke-width:0.6;" x="105.417858" xlink:href="#m02f1f12927" y="152"/>
      </g>
     </g>
    </g>
    <g id="xtick_10">
     <g id="line2d_10">
      <g>
       <use style="stroke:#000000;stroke-width:0.6;" x="108.514484" xlink:href="#m02f1f12927" y="152"/>
      </g>
     </g>
    </g>
    <g id="xtick_11">
     <g id="line2d_11">
      <g>
       <use style="stroke:#000000;stroke-width:0.6;" x="111.245902" xlink:href="#m02f1f12927" y="152"/>
      </g>
     </g>
    </g>
    <g id="xtick_12">
     <g id="line2d_12">
      <g>
       <use style="stroke:#000000;stroke-width:0.6;" x="129.763493" xlink:href="#m02f1f12927" y="152"/>
      </g>
     </g>
    </g>
    <g id="xtick_13">
     <g id="line2d_13">
      <g>
       <use style="stroke:#000000;stroke-width:0.6;" x="139.16633" xlink:href="#m02f1f12927" y="152"/>
      </g>
     </g>
    </g>
    <g id="xtick_14">
     <g id="line2d_14">
      <g>
       <use style="stroke:#000000;stroke-width:0.6;" x="145.837748" xlink:href="#m02f1f12927" y="152"/>
      </g>
     </g>
    </g>
    <g id="xtick_15">
     <g id="line2d_15">
      <g>
       <use style="stroke:#000000;stroke-width:0.6;" x="151.012503" xlink:href="#m02f1f12927" y="152"/>
      </g>
     </g>
    </g>
    <g id="xtick_16">
     <g id="line2d_16">
      <g>
       <use style="stroke:#000000;stroke-width:0.6;" x="155.240585" xlink:href="#m02f1f12927" y="152"/>
      </g>
     </g>
    </g>
    <g id="xtick_17">
     <g id="line2d_17">
      <g>
       <use style="stroke:#000000;stroke-width:0.6;" x="158.815377" xlink:href="#m02f1f12927" y="152"/>
      </g>
     </g>
    </g>
    <g id="xtick_18">
     <g id="line2d_18">
      <g>
       <use style="stroke:#000000;stroke-width:0.6;" x="161.912004" xlink:href="#m02f1f12927" y="152"/>
      </g>
     </g>
    </g>
    <g id="xtick_19">
     <g id="line2d_19">
      <g>
       <use style="stroke:#000000;stroke-width:0.6;" x="164.643421" xlink:href="#m02f1f12927" y="152"/>
      </g>
     </g>
    </g>
    <g id="text_4">
     <!-- $c$ -->
     <defs>
      <path d="M 53.609375 52.59375 
L 51.8125 43.703125 
Q 48.578125 46.046875 44.9375 47.21875 
Q 41.3125 48.390625 37.40625 48.390625 
Q 33.109375 48.390625 29.21875 46.875 
Q 25.34375 45.359375 22.703125 42.578125 
Q 18.5 38.328125 16.203125 32.609375 
Q 13.921875 26.90625 13.921875 20.796875 
Q 13.921875 13.421875 17.609375 9.8125 
Q 21.296875 6.203125 28.8125 6.203125 
Q 32.515625 6.203125 36.6875 7.328125 
Q 40.875 8.453125 45.40625 10.6875 
L 43.703125 1.8125 
Q 39.796875 0.203125 35.671875 -0.609375 
Q 31.546875 -1.421875 27.203125 -1.421875 
Q 16.3125 -1.421875 10.453125 4.015625 
Q 4.59375 9.46875 4.59375 19.578125 
Q 4.59375 28.078125 7.640625 35.234375 
Q 10.6875 42.390625 16.703125 48.09375 
Q 20.796875 52 26.3125 54 
Q 31.84375 56 38.375 56 
Q 42.1875 56 45.9375 55.140625 
Q 49.703125 54.296875 53.609375 52.59375 
z
" id="DejaVuSans-Oblique-63"/>
     </defs>
     <g transform="translate(109.839238 183.315937)scale(0.14 -0.14)">
      <use xlink:href="#DejaVuSans-Oblique-63"/>
     </g>
    </g>
   </g>
   <g id="matplotlib.axis_2">
    <g id="ytick_1">
     <g id="line2d_20">
      <defs>
       <path d="M 0 0 
L -3.5 0 
" id="md4e5865c76" style="stroke:#000000;stroke-width:0.8;"/>
      </defs>
      <g>
       <use style="stroke:#000000;stroke-width:0.8;" x="60.291719" xlink:href="#md4e5865c76" y="152"/>
      </g>
     </g>
     <g id="text_5">
      <!-- $\mathdefault{10^{-1}}$ -->
      <g transform="translate(29.791719 155.799219)scale(0.1 -0.1)">
       <use transform="translate(0 0.684375)" xlink:href="#DejaVuSans-31"/>
       <use transform="translate(63.623047 0.684375)" xlink:href="#DejaVuSans-30"/>
       <use transform="translate(128.203125 38.965625)scale(0.7)" xlink:href="#DejaVuSans-2212"/>
       <use transform="translate(186.855469 38.965625)scale(0.7)" xlink:href="#DejaVuSans-31"/>
      </g>
     </g>
    </g>
    <g id="ytick_2">
     <g id="line2d_21">
      <g>
       <use style="stroke:#000000;stroke-width:0.8;" x="60.291719" xlink:href="#md4e5865c76" y="91.2"/>
      </g>
     </g>
     <g id="text_6">
      <!-- $\mathdefault{10^{0}}$ -->
      <g transform="translate(35.691719 94.999219)scale(0.1 -0.1)">
       <use transform="translate(0 0.765625)" xlink:href="#DejaVuSans-31"/>
       <use transform="translate(63.623047 0.765625)" xlink:href="#DejaVuSans-30"/>
       <use transform="translate(128.203125 39.046875)scale(0.7)" xlink:href="#DejaVuSans-30"/>
      </g>
     </g>
    </g>
    <g id="ytick_3">
     <g id="line2d_22">
      <g>
       <use style="stroke:#000000;stroke-width:0.8;" x="60.291719" xlink:href="#md4e5865c76" y="30.4"/>
      </g>
     </g>
     <g id="text_7">
      <!-- $\mathdefault{10^{1}}$ -->
      <g transform="translate(35.691719 34.199219)scale(0.1 -0.1)">
       <use transform="translate(0 0.684375)" xlink:href="#DejaVuSans-31"/>
       <use transform="translate(63.623047 0.684375)" xlink:href="#DejaVuSans-30"/>
       <use transform="translate(128.203125 38.965625)scale(0.7)" xlink:href="#DejaVuSans-31"/>
      </g>
     </g>
    </g>
    <g id="ytick_4">
     <g id="line2d_23">
      <defs>
       <path d="M 0 0 
L -2 0 
" id="m51b5521600" style="stroke:#000000;stroke-width:0.6;"/>
      </defs>
      <g>
       <use style="stroke:#000000;stroke-width:0.6;" x="60.291719" xlink:href="#m51b5521600" y="133.697376"/>
      </g>
     </g>
    </g>
    <g id="ytick_5">
     <g id="line2d_24">
      <g>
       <use style="stroke:#000000;stroke-width:0.6;" x="60.291719" xlink:href="#m51b5521600" y="122.991028"/>
      </g>
     </g>
    </g>
    <g id="ytick_6">
     <g id="line2d_25">
      <g>
       <use style="stroke:#000000;stroke-width:0.6;" x="60.291719" xlink:href="#m51b5521600" y="115.394753"/>
      </g>
     </g>
    </g>
    <g id="ytick_7">
     <g id="line2d_26">
      <g>
       <use style="stroke:#000000;stroke-width:0.6;" x="60.291719" xlink:href="#m51b5521600" y="109.502624"/>
      </g>
     </g>
    </g>
    <g id="ytick_8">
     <g id="line2d_27">
      <g>
       <use style="stroke:#000000;stroke-width:0.6;" x="60.291719" xlink:href="#m51b5521600" y="104.688404"/>
      </g>
     </g>
    </g>
    <g id="ytick_9">
     <g id="line2d_28">
      <g>
       <use style="stroke:#000000;stroke-width:0.6;" x="60.291719" xlink:href="#m51b5521600" y="100.618039"/>
      </g>
     </g>
    </g>
    <g id="ytick_10">
     <g id="line2d_29">
      <g>
       <use style="stroke:#000000;stroke-width:0.6;" x="60.291719" xlink:href="#m51b5521600" y="97.092129"/>
      </g>
     </g>
    </g>
    <g id="ytick_11">
     <g id="line2d_30">
      <g>
       <use style="stroke:#000000;stroke-width:0.6;" x="60.291719" xlink:href="#m51b5521600" y="93.982055"/>
      </g>
     </g>
    </g>
    <g id="ytick_12">
     <g id="line2d_31">
      <g>
       <use style="stroke:#000000;stroke-width:0.6;" x="60.291719" xlink:href="#m51b5521600" y="72.897376"/>
      </g>
     </g>
    </g>
    <g id="ytick_13">
     <g id="line2d_32">
      <g>
       <use style="stroke:#000000;stroke-width:0.6;" x="60.291719" xlink:href="#m51b5521600" y="62.191028"/>
      </g>
     </g>
    </g>
    <g id="ytick_14">
     <g id="line2d_33">
      <g>
       <use style="stroke:#000000;stroke-width:0.6;" x="60.291719" xlink:href="#m51b5521600" y="54.594753"/>
      </g>
     </g>
    </g>
    <g id="ytick_15">
     <g id="line2d_34">
      <g>
       <use style="stroke:#000000;stroke-width:0.6;" x="60.291719" xlink:href="#m51b5521600" y="48.702624"/>
      </g>
     </g>
    </g>
    <g id="ytick_16">
     <g id="line2d_35">
      <g>
       <use style="stroke:#000000;stroke-width:0.6;" x="60.291719" xlink:href="#m51b5521600" y="43.888404"/>
      </g>
     </g>
    </g>
    <g id="ytick_17">
     <g id="line2d_36">
      <g>
       <use style="stroke:#000000;stroke-width:0.6;" x="60.291719" xlink:href="#m51b5521600" y="39.818039"/>
      </g>
     </g>
    </g>
    <g id="ytick_18">
     <g id="line2d_37">
      <g>
       <use style="stroke:#000000;stroke-width:0.6;" x="60.291719" xlink:href="#m51b5521600" y="36.292129"/>
      </g>
     </g>
    </g>
    <g id="ytick_19">
     <g id="line2d_38">
      <g>
       <use style="stroke:#000000;stroke-width:0.6;" x="60.291719" xlink:href="#m51b5521600" y="33.182055"/>
      </g>
     </g>
    </g>
    <g id="text_8">
     <!-- $r$ -->
     <defs>
      <path d="M 44.578125 46.390625 
Q 43.21875 47.125 41.453125 47.515625 
Q 39.703125 47.90625 37.703125 47.90625 
Q 30.515625 47.90625 25.140625 42.453125 
Q 19.78125 37.015625 18.015625 27.875 
L 12.5 0 
L 3.515625 0 
L 14.203125 54.6875 
L 23.1875 54.6875 
L 21.484375 46.1875 
Q 25.046875 50.921875 30 53.453125 
Q 34.96875 56 40.578125 56 
Q 42.046875 56 43.453125 55.828125 
Q 44.875 55.671875 46.296875 55.28125 
z
" id="DejaVuSans-Oblique-72"/>
     </defs>
     <g transform="translate(22.880156 94.14)rotate(-90)scale(0.14 -0.14)">
      <use xlink:href="#DejaVuSans-Oblique-72"/>
     </g>
    </g>
   </g>
   <g id="LineCollection_1">
    <path clip-path="url(#pae1eb7d9c0)" d="M 60.291719 40.873793 
L 61.381464 40.470943 
L 61.790367 40.326531 
L 62.471209 40.067598 
L 63.560955 39.670732 
L 64.6507 39.28877 
L 65.258004 39.085714 
L 65.740445 38.91216 
L 66.830191 38.53975 
L 67.919936 38.183299 
L 69.002893 37.844898 
L 69.009681 37.842618 
L 70.099426 37.499516 
L 71.189172 37.173467 
L 72.278917 36.864415 
L 73.25195 36.604082 
L 73.368662 36.570542 
L 74.458408 36.280086 
L 75.548153 36.007784 
L 76.637898 35.753618 
L 77.727643 35.51759 
L 78.503328 35.363265 
L 78.817389 35.296219 
L 79.907134 35.085651 
L 80.996879 34.894475 
L 82.086625 34.722726 
L 83.17637 34.570458 
L 84.266115 34.437736 
L 85.355861 34.324641 
L 86.445606 34.231262 
L 87.535351 34.157701 
L 88.255817 34.122449 
L 88.625096 34.103089 
L 89.714842 34.067724 
L 90.804587 34.053606 
L 91.894332 34.060857 
L 92.984078 34.089605 
L 93.698794 34.122449 
L 94.073823 34.139111 
L 95.163568 34.207684 
L 96.253314 34.297095 
L 97.343059 34.407482 
L 98.432804 34.538979 
L 99.522549 34.691718 
L 100.612295 34.865826 
L 101.70204 35.061428 
L 102.791785 35.278641 
L 103.182114 35.363265 
L 103.881531 35.510165 
L 104.971276 35.758396 
L 106.061021 36.027477 
L 107.150767 36.317471 
L 108.156519 36.604082 
L 108.240512 36.627289 
L 109.330257 36.943617 
L 110.420002 37.279944 
L 111.509748 37.636263 
L 112.118577 37.844898 
L 112.599493 38.004793 
L 113.689238 38.382625 
L 114.778984 38.779323 
L 115.586165 39.085714 
L 115.868729 39.189833 
L 116.958474 39.604155 
L 118.048219 40.036059 
L 118.756828 40.326531 
L 119.137965 40.478266 
L 120.22771 40.923852 
L 121.317455 41.385578 
L 121.736366 41.567347 
L 122.407201 41.850164 
L 123.496946 42.321597 
L 124.586691 42.807588 
L 124.587965 42.808163 
L 125.676437 43.286149 
L 126.766182 43.777889 
L 127.355844 44.04898 
L 127.855927 44.272546 
L 128.945672 44.767543 
L 130.035418 45.274024 
L 130.069119 45.289796 
L 130.67592 45.562299 
" style="fill:none;stroke:#000000;stroke-dasharray:11.1,4.8;stroke-dashoffset:0;stroke-width:3;"/>
    <path clip-path="url(#pae1eb7d9c0)" d="M 145.598917 52.386216 
L 146.374868 52.734694 
L 146.381597 52.737616 
L 147.471342 53.207172 
L 148.561088 53.678767 
L 149.247683 53.97551 
L 149.650833 54.145668 
L 150.740578 54.603126 
L 151.830324 55.061457 
L 152.201236 55.216327 
L 152.920069 55.509663 
L 154.009814 55.95263 
L 155.09956 56.395462 
L 155.253149 56.457143 
L 156.189305 56.824887 
L 157.27905 57.251513 
L 158.368795 57.677161 
L 158.422835 57.697959 
L 159.458541 58.088224 
L 160.548286 58.497176 
L 161.638031 58.90446 
L 161.731321 58.938776 
L 162.727777 59.297972 
L 163.817522 59.688381 
L 164.907267 60.076582 
L 165.200847 60.179592 
L 165.997013 60.453631 
L 167.086758 60.825038 
" style="fill:none;stroke:#000000;stroke-dasharray:11.1,4.8;stroke-dashoffset:0;stroke-width:3;"/>
   </g>
   <g id="LineCollection_2">
    <path clip-path="url(#pae1eb7d9c0)" d="M 74.933706 91.2 
L 75.548153 91.2 
L 76.637898 91.2 
L 77.727643 91.2 
L 78.817389 91.2 
L 79.907134 91.2 
L 80.996879 91.2 
L 82.086625 91.2 
L 83.17637 91.2 
L 84.266115 91.2 
L 85.355861 91.2 
L 86.445606 91.2 
L 87.535351 91.2 
L 88.625096 91.2 
L 89.714842 91.2 
L 90.804587 91.2 
L 91.894332 91.2 
L 92.984078 91.2 
L 94.073823 91.2 
L 95.163568 91.2 
L 96.253314 91.2 
L 97.343059 91.2 
L 98.432804 91.2 
L 99.522549 91.2 
L 100.612295 91.2 
L 101.70204 91.2 
L 102.791785 91.2 
L 103.881531 91.2 
L 104.971276 91.2 
L 106.061021 91.2 
L 107.150767 91.2 
L 108.240512 91.2 
L 109.330257 91.2 
L 110.420002 91.2 
L 111.509748 91.2 
L 112.599493 91.2 
L 113.689238 91.2 
L 114.778984 91.2 
L 115.868729 91.2 
L 116.958474 91.2 
L 118.048219 91.2 
L 119.137965 91.2 
L 120.22771 91.2 
L 121.317455 91.2 
L 122.407201 91.2 
L 123.496946 91.2 
L 124.586691 91.2 
L 125.676437 91.2 
L 126.766182 91.2 
L 127.855927 91.2 
L 128.945672 91.2 
L 130.035418 91.2 
L 131.125163 91.2 
L 132.214908 91.2 
L 133.304654 91.2 
L 134.394399 91.2 
L 135.484144 91.2 
L 136.57389 91.2 
L 137.663635 91.2 
L 138.75338 91.2 
L 139.843125 91.2 
L 140.932871 91.2 
L 142.022616 91.2 
L 143.112361 91.2 
L 144.202107 91.2 
L 145.291852 91.2 
L 146.381597 91.2 
L 147.471342 91.2 
L 148.561088 91.2 
L 149.650833 91.2 
L 150.740578 91.2 
L 151.830324 91.2 
L 152.920069 91.2 
L 154.009814 91.2 
L 155.09956 91.2 
L 156.189305 91.2 
L 157.27905 91.2 
L 158.368795 91.2 
L 159.458541 91.2 
L 160.548286 91.2 
L 161.638031 91.2 
L 162.727777 91.2 
L 163.817522 91.2 
L 164.907267 91.2 
L 165.997013 91.2 
L 167.086758 91.2 
" style="fill:none;stroke:#000000;stroke-width:3;"/>
   </g>
   <g id="LineCollection_3">
    <path clip-path="url(#pae1eb7d9c0)" d="M 60.291719 121.560426 
L 61.381464 121.936205 
L 62.187599 122.220408 
L 62.471209 122.319065 
L 63.560955 122.697746 
L 64.6507 123.089918 
L 65.651087 123.461224 
L 65.740445 123.494006 
L 66.830191 123.889551 
L 67.919936 124.299097 
L 68.958005 124.702041 
L 69.009681 124.7219 
L 70.099426 125.135147 
L 71.189172 125.562839 
L 72.131423 125.942857 
L 72.278917 126.001841 
L 73.368662 126.433367 
L 74.458408 126.879682 
L 75.18865 127.183673 
L 75.548153 127.332285 
L 76.637898 127.782306 
L 77.727643 128.247314 
L 78.1428 128.42449 
L 78.817389 128.710754 
L 79.907134 129.179005 
L 80.996879 129.662243 
L 81.003931 129.665306 
L 82.086625 130.133499 
L 83.17637 130.619097 
L 83.815357 130.906122 
L 84.266115 131.10789 
L 85.355861 131.595135 
L 86.445606 132.096426 
L 86.557537 132.146939 
L 86.621597 132.174989 
" style="fill:none;stroke:#000000;stroke-width:3;"/>
    <path clip-path="url(#pae1eb7d9c0)" d="M 101.53747 139.024256 
L 101.70204 139.099971 
L 102.79057 139.591837 
L 102.791785 139.592386 
L 103.881531 140.064578 
L 104.971276 140.539444 
L 105.65416 140.832653 
L 106.061021 141.007253 
L 107.150767 141.461582 
L 108.240512 141.915364 
L 108.633375 142.073469 
L 109.330257 142.353618 
L 110.420002 142.78161 
L 111.509748 143.205597 
L 111.802257 143.314286 
L 112.599493 143.609964 
L 113.689238 144.003015 
L 114.778984 144.388547 
L 115.272558 144.555102 
L 115.868729 144.755708 
L 116.958474 145.105629 
L 118.048219 145.444671 
L 119.137965 145.771617 
L 119.225673 145.795918 
L 120.22771 146.072303 
L 121.317455 146.358046 
L 122.407201 146.628843 
L 123.496946 146.88364 
L 124.208054 147.036735 
L 124.586691 147.117728 
L 125.676437 147.327969 
L 126.766182 147.520237 
L 127.855927 147.69378 
L 128.945672 147.84792 
L 130.035418 147.98207 
L 131.125163 148.095734 
L 132.214908 148.18851 
L 133.304654 148.260098 
L 133.691323 148.277551 
L 134.394399 148.308926 
L 135.484144 148.33645 
L 136.57389 148.343402 
L 137.663635 148.32987 
L 138.75338 148.296036 
L 139.134217 148.277551 
L 139.843125 148.240653 
L 140.932871 148.163982 
L 142.022616 148.06728 
L 143.112361 147.951086 
L 144.202107 147.816005 
L 145.291852 147.662704 
L 146.381597 147.4919 
L 147.471342 147.304354 
L 148.561088 147.100862 
L 148.885757 147.036735 
L 149.650833 146.875947 
L 150.740578 146.633702 
L 151.830324 146.377678 
L 152.920069 146.108791 
L 154.009814 145.827958 
L 154.131515 145.795918 
L 155.09956 145.525787 
L 156.189305 145.21203 
L 157.27905 144.888895 
L 158.368795 144.557278 
L 158.375908 144.555102 
L 159.458541 144.205013 
L 160.548286 143.845927 
L 161.638031 143.480943 
L 162.133138 143.314286 
L 162.727777 143.103123 
L 163.817522 142.714723 
L 164.907267 142.322905 
L 165.600042 142.073469 
L 165.997013 141.922952 
L 167.086758 141.511796 
" style="fill:none;stroke:#000000;stroke-width:3;"/>
   </g>
   <g id="patch_3">
    <path d="M 60.291719 152 
L 60.291719 30.4 
" style="fill:none;stroke:#000000;stroke-linecap:square;stroke-linejoin:miter;stroke-width:0.8;"/>
   </g>
   <g id="patch_4">
    <path d="M 167.086758 152 
L 167.086758 30.4 
" style="fill:none;stroke:#000000;stroke-linecap:square;stroke-linejoin:miter;stroke-width:0.8;"/>
   </g>
   <g id="patch_5">
    <path d="M 60.291719 152 
L 167.086758 152 
" style="fill:none;stroke:#000000;stroke-linecap:square;stroke-linejoin:miter;stroke-width:0.8;"/>
   </g>
   <g id="patch_6">
    <path d="M 60.291719 30.4 
L 167.086758 30.4 
" style="fill:none;stroke:#000000;stroke-linecap:square;stroke-linejoin:miter;stroke-width:0.8;"/>
   </g>
   <g id="text_9">
    <g clip-path="url(#pae1eb7d9c0)">
     <!-- -4 -->
     <defs>
      <path d="M 4.890625 31.390625 
L 31.203125 31.390625 
L 31.203125 23.390625 
L 4.890625 23.390625 
z
" id="DejaVuSans-2d"/>
      <path d="M 37.796875 64.3125 
L 12.890625 25.390625 
L 37.796875 25.390625 
z
M 35.203125 72.90625 
L 47.609375 72.90625 
L 47.609375 25.390625 
L 58.015625 25.390625 
L 58.015625 17.1875 
L 47.609375 17.1875 
L 47.609375 0 
L 37.796875 0 
L 37.796875 17.1875 
L 4.890625 17.1875 
L 4.890625 26.703125 
z
" id="DejaVuSans-34"/>
     </defs>
     <g transform="translate(132.451093 49.609622)rotate(-337.052721)scale(0.1 -0.1)">
      <use xlink:href="#DejaVuSans-2d"/>
      <use x="36.083984" xlink:href="#DejaVuSans-34"/>
     </g>
    </g>
   </g>
   <g id="text_10">
    <g clip-path="url(#pae1eb7d9c0)">
     <!--  0 -->
     <defs>
      <path id="DejaVuSans-20"/>
     </defs>
     <g transform="translate(62.059878 93.959375)scale(0.1 -0.1)">
      <use xlink:href="#DejaVuSans-20"/>
      <use x="31.787109" xlink:href="#DejaVuSans-30"/>
     </g>
    </g>
   </g>
   <g id="text_11">
    <g clip-path="url(#pae1eb7d9c0)">
     <!--  4 -->
     <g transform="translate(88.603668 136.27777)rotate(-336.924576)scale(0.1 -0.1)">
      <use xlink:href="#DejaVuSans-20"/>
      <use x="31.787109" xlink:href="#DejaVuSans-34"/>
     </g>
    </g>
   </g>
   <g id="text_12">
    <!-- $s N^*=0$ -->
    <defs>
     <path d="M 50 53.078125 
L 48.296875 44.578125 
Q 44.734375 46.53125 40.765625 47.5 
Q 36.8125 48.484375 32.625 48.484375 
Q 25.53125 48.484375 21.453125 46.0625 
Q 17.390625 43.65625 17.390625 39.5 
Q 17.390625 34.671875 26.859375 32.078125 
Q 27.59375 31.890625 27.9375 31.78125 
L 30.8125 30.90625 
Q 39.796875 28.421875 42.796875 25.6875 
Q 45.796875 22.953125 45.796875 18.21875 
Q 45.796875 9.515625 38.890625 4.046875 
Q 31.984375 -1.421875 20.796875 -1.421875 
Q 16.453125 -1.421875 11.671875 -0.578125 
Q 6.890625 0.25 1.125 2 
L 2.875 11.28125 
Q 7.8125 8.734375 12.59375 7.421875 
Q 17.390625 6.109375 21.78125 6.109375 
Q 28.375 6.109375 32.5 8.9375 
Q 36.625 11.765625 36.625 16.109375 
Q 36.625 20.796875 25.78125 23.6875 
L 24.859375 23.921875 
L 21.78125 24.703125 
Q 14.9375 26.515625 11.765625 29.46875 
Q 8.59375 32.421875 8.59375 37.015625 
Q 8.59375 45.75 15.15625 50.875 
Q 21.734375 56 33.015625 56 
Q 37.453125 56 41.671875 55.265625 
Q 45.90625 54.546875 50 53.078125 
z
" id="DejaVuSans-Oblique-73"/>
     <path d="M 16.890625 72.90625 
L 30.171875 72.90625 
L 50.296875 10.40625 
L 62.5 72.90625 
L 72.125 72.90625 
L 57.90625 0 
L 44.578125 0 
L 24.515625 62.890625 
L 12.3125 0 
L 2.6875 0 
z
" id="DejaVuSans-Oblique-4e"/>
     <path d="M 47.015625 60.890625 
L 29.5 51.421875 
L 47.015625 41.890625 
L 44.1875 37.109375 
L 27.78125 47.015625 
L 27.78125 28.609375 
L 22.21875 28.609375 
L 22.21875 47.015625 
L 5.8125 37.109375 
L 2.984375 41.890625 
L 20.515625 51.421875 
L 2.984375 60.890625 
L 5.8125 65.71875 
L 22.21875 55.8125 
L 22.21875 74.21875 
L 27.78125 74.21875 
L 27.78125 55.8125 
L 44.1875 65.71875 
z
" id="DejaVuSans-2a"/>
     <path d="M 10.59375 45.40625 
L 73.1875 45.40625 
L 73.1875 37.203125 
L 10.59375 37.203125 
z
M 10.59375 25.484375 
L 73.1875 25.484375 
L 73.1875 17.1875 
L 10.59375 17.1875 
z
" id="DejaVuSans-3d"/>
    </defs>
    <g transform="translate(90.529238 24.4)scale(0.12 -0.12)">
     <use transform="translate(0 0.765625)" xlink:href="#DejaVuSans-Oblique-73"/>
     <use transform="translate(52.099609 0.765625)" xlink:href="#DejaVuSans-Oblique-4e"/>
     <use transform="translate(147.558763 39.046875)scale(0.7)" xlink:href="#DejaVuSans-2a"/>
     <use transform="translate(218.413255 0.765625)" xlink:href="#DejaVuSans-3d"/>
     <use transform="translate(321.68474 0.765625)" xlink:href="#DejaVuSans-30"/>
    </g>
   </g>
  </g>
 </g>
 <defs>
  <clipPath id="pae1eb7d9c0">
   <rect height="121.6" width="106.795039" x="60.291719" y="30.4"/>
  </clipPath>
 </defs>
</svg>
