<?xml version="1.0" encoding="utf-8" standalone="no"?>
<!DOCTYPE svg PUBLIC "-//W3C//DTD SVG 1.1//EN"
  "http://www.w3.org/Graphics/SVG/1.1/DTD/svg11.dtd">
<!-- Created with matplotlib (http://matplotlib.org/) -->
<svg height="201.6pt" version="1.1" viewBox="0 0 187.2 201.6" width="187.2pt" xmlns="http://www.w3.org/2000/svg" xmlns:xlink="http://www.w3.org/1999/xlink">
 <defs>
  <style type="text/css">
*{stroke-linecap:butt;stroke-linejoin:round;}
  </style>
 </defs>
 <g id="figure_1">
  <g id="patch_1">
   <path d="M 0 201.6 
L 187.2 201.6 
L 187.2 0 
L 0 0 
z
" style="fill:#ffffff;"/>
  </g>
  <g id="axes_1">
   <g id="patch_2">
    <path d="M 58.175 155.8 
L 168.4625 155.8 
L 168.4625 30.4 
L 58.175 30.4 
z
" style="fill:#ffffff;"/>
   </g>
   <g id="PathCollection_1">
    <path clip-path="url(#p60f0b1ace5)" d="M 168.4625 30.4 
z
" style="fill:#eef8ea;"/>
   </g>
   <g id="PathCollection_2">
    <path clip-path="url(#p60f0b1ace5)" d="M 118.286984 30.4 
L 118.945663 30.4 
L 120.071046 30.4 
L 121.196429 30.4 
L 122.321811 30.4 
L 123.447194 30.4 
L 124.572577 30.4 
L 125.697959 30.4 
L 126.823342 30.4 
L 127.948724 30.4 
L 129.074107 30.4 
L 130.19949 30.4 
L 131.324872 30.4 
L 132.450255 30.4 
L 133.575638 30.4 
L 134.70102 30.4 
L 135.826403 30.4 
L 136.951786 30.4 
L 138.077168 30.4 
L 139.202551 30.4 
L 140.327934 30.4 
L 141.453316 30.4 
L 142.578699 30.4 
L 143.704082 30.4 
L 144.829464 30.4 
L 145.954847 30.4 
L 147.08023 30.4 
L 148.205612 30.4 
L 149.330995 30.4 
L 150.456378 30.4 
L 151.58176 30.4 
L 152.707143 30.4 
L 153.832526 30.4 
L 154.957908 30.4 
L 156.083291 30.4 
L 157.208673 30.4 
L 158.334056 30.4 
L 159.459439 30.4 
L 160.584821 30.4 
L 161.710204 30.4 
L 162.835587 30.4 
L 163.960969 30.4 
L 165.086352 30.4 
L 166.211735 30.4 
L 167.337117 30.4 
L 168.4625 30.4 
L 168.4625 31.679592 
L 168.4625 32.959184 
L 168.4625 34.238776 
L 168.4625 35.518367 
L 168.4625 36.797959 
L 168.4625 38.077551 
L 168.4625 39.357143 
L 168.4625 40.636735 
L 168.4625 41.916327 
L 168.4625 43.195918 
L 168.4625 44.47551 
L 168.4625 45.755102 
L 168.4625 47.034694 
L 168.4625 48.314286 
L 168.4625 49.593878 
L 168.4625 50.873469 
L 168.4625 52.153061 
L 168.4625 53.432653 
L 168.4625 54.712245 
L 168.4625 55.991837 
L 168.4625 57.271429 
L 168.4625 58.55102 
L 168.4625 59.830612 
L 168.4625 61.110204 
L 168.4625 62.389796 
L 168.4625 63.669388 
L 168.4625 64.94898 
L 168.4625 66.228571 
L 168.4625 67.508163 
L 168.4625 68.787755 
L 168.4625 70.067347 
L 168.4625 71.346939 
L 168.4625 72.626531 
L 168.4625 73.906122 
L 168.4625 75.185714 
L 168.4625 76.465306 
L 168.4625 77.744898 
L 168.4625 79.02449 
L 168.4625 80.304082 
L 168.4625 81.583673 
L 168.4625 82.863265 
L 168.4625 84.142857 
L 168.4625 85.422449 
L 168.4625 86.702041 
L 168.4625 87.450977 
L 167.405021 86.702041 
L 167.337117 86.653403 
L 166.211735 85.839681 
L 165.640707 85.422449 
L 165.086352 85.0128 
L 163.960969 84.172392 
L 163.921793 84.142857 
L 162.835587 83.314669 
L 162.249805 82.863265 
L 161.710204 82.442751 
L 160.619484 81.583673 
L 160.584821 81.556065 
L 159.459439 80.650963 
L 159.032672 80.304082 
L 158.334056 79.729852 
L 157.484994 79.02449 
L 157.208673 78.792363 
L 156.083291 77.837068 
L 155.975801 77.744898 
L 154.957908 76.862304 
L 154.50492 76.465306 
L 153.832526 75.869441 
L 153.069193 75.185714 
L 152.707143 74.857811 
L 151.667533 73.906122 
L 151.58176 73.826732 
L 150.456378 72.774252 
L 150.300081 72.626531 
L 149.330995 71.700439 
L 148.96504 71.346939 
L 148.205612 70.605234 
L 147.660769 70.067347 
L 147.08023 69.487888 
L 146.386307 68.787755 
L 145.954847 68.347635 
L 145.140721 67.508163 
L 144.829464 67.183687 
L 143.923102 66.228571 
L 143.704082 65.995236 
L 142.73257 64.94898 
L 142.578699 64.781454 
L 141.568267 63.669388 
L 141.453316 63.541491 
L 140.429359 62.389796 
L 140.327934 62.274473 
L 139.315034 61.110204 
L 139.202551 60.979502 
L 138.224504 59.830612 
L 138.077168 59.655656 
L 137.157001 58.55102 
L 136.951786 58.301988 
L 136.111776 57.271429 
L 135.826403 56.917521 
L 135.0881 55.991837 
L 134.70102 55.501254 
L 134.085263 54.712245 
L 133.575638 54.052155 
L 133.102574 53.432653 
L 132.450255 52.569163 
L 132.139357 52.153061 
L 131.324872 51.051183 
L 131.194953 50.873469 
L 130.269312 49.593878 
L 130.19949 49.496352 
L 129.362494 48.314286 
L 129.074107 47.902624 
L 128.47278 47.034694 
L 127.948724 46.270162 
L 127.59957 45.755102 
L 126.823342 44.597729 
L 126.74228 44.47551 
L 125.902112 43.195918 
L 125.697959 42.881734 
L 125.077603 41.916327 
L 124.572577 41.121981 
L 124.267499 40.636735 
L 123.471475 39.357143 
L 123.447194 39.317731 
L 122.691647 38.077551 
L 122.321811 37.464009 
L 121.924809 36.797959 
L 121.196429 35.562912 
L 121.170453 35.518367 
L 120.431326 34.238776 
L 120.071046 33.608458 
L 119.704097 32.959184 
L 118.98844 31.679592 
L 118.945663 31.602384 
z
" style="fill:#d6efd0;"/>
   </g>
   <g id="PathCollection_3">
    <path clip-path="url(#p60f0b1ace5)" d="M 82.668954 30.4 
L 82.933418 30.4 
L 84.058801 30.4 
L 85.184184 30.4 
L 86.309566 30.4 
L 87.434949 30.4 
L 88.560332 30.4 
L 89.685714 30.4 
L 90.811097 30.4 
L 91.93648 30.4 
L 93.061862 30.4 
L 94.187245 30.4 
L 95.312628 30.4 
L 96.43801 30.4 
L 97.563393 30.4 
L 98.688776 30.4 
L 99.814158 30.4 
L 100.939541 30.4 
L 102.064923 30.4 
L 103.190306 30.4 
L 104.315689 30.4 
L 105.441071 30.4 
L 106.566454 30.4 
L 107.691837 30.4 
L 108.817219 30.4 
L 109.942602 30.4 
L 111.067985 30.4 
L 112.193367 30.4 
L 113.31875 30.4 
L 114.444133 30.4 
L 115.569515 30.4 
L 116.694898 30.4 
L 117.820281 30.4 
L 118.286984 30.4 
L 118.945663 31.602384 
L 118.98844 31.679592 
L 119.704097 32.959184 
L 120.071046 33.608458 
L 120.431326 34.238776 
L 121.170453 35.518367 
L 121.196429 35.562912 
L 121.924809 36.797959 
L 122.321811 37.464009 
L 122.691647 38.077551 
L 123.447194 39.317731 
L 123.471475 39.357143 
L 124.267499 40.636735 
L 124.572577 41.121981 
L 125.077603 41.916327 
L 125.697959 42.881734 
L 125.902112 43.195918 
L 126.74228 44.47551 
L 126.823342 44.597729 
L 127.59957 45.755102 
L 127.948724 46.270162 
L 128.47278 47.034694 
L 129.074107 47.902624 
L 129.362494 48.314286 
L 130.19949 49.496352 
L 130.269312 49.593878 
L 131.194953 50.873469 
L 131.324872 51.051183 
L 132.139357 52.153061 
L 132.450255 52.569163 
L 133.102574 53.432653 
L 133.575638 54.052155 
L 134.085263 54.712245 
L 134.70102 55.501254 
L 135.0881 55.991837 
L 135.826403 56.917521 
L 136.111776 57.271429 
L 136.951786 58.301988 
L 137.157001 58.55102 
L 138.077168 59.655656 
L 138.224504 59.830612 
L 139.202551 60.979502 
L 139.315034 61.110204 
L 140.327934 62.274473 
L 140.429359 62.389796 
L 141.453316 63.541491 
L 141.568267 63.669388 
L 142.578699 64.781454 
L 142.73257 64.94898 
L 143.704082 65.995236 
L 143.923102 66.228571 
L 144.829464 67.183687 
L 145.140721 67.508163 
L 145.954847 68.347635 
L 146.386307 68.787755 
L 147.08023 69.487888 
L 147.660769 70.067347 
L 148.205612 70.605234 
L 148.96504 71.346939 
L 149.330995 71.700439 
L 150.300081 72.626531 
L 150.456378 72.774252 
L 151.58176 73.826732 
L 151.667533 73.906122 
L 152.707143 74.857811 
L 153.069193 75.185714 
L 153.832526 75.869441 
L 154.50492 76.465306 
L 154.957908 76.862304 
L 155.975801 77.744898 
L 156.083291 77.837068 
L 157.208673 78.792363 
L 157.484994 79.02449 
L 158.334056 79.729852 
L 159.032672 80.304082 
L 159.459439 80.650963 
L 160.584821 81.556065 
L 160.619484 81.583673 
L 161.710204 82.442751 
L 162.249805 82.863265 
L 162.835587 83.314669 
L 163.921793 84.142857 
L 163.960969 84.172392 
L 165.086352 85.0128 
L 165.640707 85.422449 
L 166.211735 85.839681 
L 167.337117 86.653403 
L 167.405021 86.702041 
L 168.4625 87.450977 
L 168.4625 87.981633 
L 168.4625 89.261224 
L 168.4625 90.540816 
L 168.4625 91.820408 
L 168.4625 93.1 
L 168.4625 94.379592 
L 168.4625 95.659184 
L 168.4625 96.938776 
L 168.4625 98.218367 
L 168.4625 99.497959 
L 168.4625 100.777551 
L 168.4625 102.057143 
L 168.4625 103.336735 
L 168.4625 104.616327 
L 168.4625 105.895918 
L 168.4625 107.17551 
L 168.4625 108.455102 
L 168.4625 109.734694 
L 168.4625 111.014286 
L 168.4625 112.293878 
L 168.4625 113.573469 
L 168.4625 114.853061 
L 168.4625 116.132653 
L 168.4625 117.412245 
L 168.4625 118.691837 
L 168.4625 119.971429 
L 168.4625 121.25102 
L 168.4625 122.530612 
L 168.4625 123.810204 
L 168.4625 125.089796 
L 168.4625 126.369388 
L 168.4625 127.64898 
L 168.4625 127.949683 
L 167.780868 127.64898 
L 167.337117 127.450173 
L 166.211735 126.940994 
L 165.086352 126.426374 
L 164.962923 126.369388 
L 163.960969 125.899651 
L 162.835587 125.366405 
L 162.257751 125.089796 
L 161.710204 124.823673 
L 160.584821 124.271059 
L 159.656331 123.810204 
L 159.459439 123.710993 
L 158.334056 123.13823 
L 157.208673 122.559065 
L 157.153932 122.530612 
L 156.083291 121.965721 
L 154.957908 121.365258 
L 154.745986 121.25102 
L 153.832526 120.751238 
L 152.707143 120.128592 
L 152.426037 119.971429 
L 151.58176 119.492382 
L 150.456378 118.84662 
L 150.189471 118.691837 
L 149.330995 118.18664 
L 148.205612 117.51678 
L 148.031844 117.412245 
L 147.08023 116.831382 
L 145.954847 116.136385 
L 145.948868 116.132653 
L 144.829464 115.423848 
L 143.938559 114.853061 
L 143.704082 114.700666 
L 142.578699 113.961141 
L 141.995506 113.573469 
L 141.453316 113.207878 
L 140.327934 112.440221 
L 140.11578 112.293878 
L 139.202551 111.654939 
L 138.297724 111.014286 
L 138.077168 110.855911 
L 136.951786 110.038556 
L 136.538278 109.734694 
L 135.826403 109.204207 
L 134.833187 108.455102 
L 134.70102 108.354024 
L 133.575638 107.483398 
L 133.18238 107.17551 
L 132.450255 106.594334 
L 131.581072 105.895918 
L 131.324872 105.687206 
L 130.19949 104.759402 
L 130.027997 104.616327 
L 129.074107 103.809546 
L 128.521914 103.336735 
L 127.948724 102.83923 
L 127.058706 102.057143 
L 126.823342 101.847508 
L 125.697959 100.832761 
L 125.637465 100.777551 
L 124.572577 99.792509 
L 124.258102 99.497959 
L 123.447194 98.7282 
L 122.916797 98.218367 
L 122.321811 97.63879 
L 121.612171 96.938776 
L 121.196429 96.523211 
L 120.342883 95.659184 
L 120.071046 95.380363 
L 119.107638 94.379592 
L 118.945663 94.209117 
L 117.90518 93.1 
L 117.820281 93.008314 
L 116.73429 91.820408 
L 116.694898 91.776757 
L 115.593786 90.540816 
L 115.569515 90.513219 
L 114.482523 89.261224 
L 114.444133 89.216435 
L 113.399387 87.981633 
L 113.31875 87.8851 
L 112.343297 86.702041 
L 112.193367 86.517871 
L 111.313204 85.422449 
L 111.067985 85.113363 
L 110.308085 84.142857 
L 109.942602 83.670147 
L 109.326949 82.863265 
L 108.817219 82.186749 
L 108.368829 81.583673 
L 107.691837 80.661648 
L 107.432784 80.304082 
L 106.566454 79.093273 
L 106.517898 79.02449 
L 105.625442 77.744898 
L 105.441071 77.477282 
L 104.753237 76.465306 
L 104.315689 75.813574 
L 103.899858 75.185714 
L 103.190306 74.101115 
L 103.064474 73.906122 
L 102.248483 72.626531 
L 102.064923 72.335224 
L 101.450677 71.346939 
L 100.939541 70.514492 
L 100.668758 70.067347 
L 99.903055 68.787755 
L 99.814158 68.637478 
L 99.155331 67.508163 
L 98.688776 66.698742 
L 98.421533 66.228571 
L 97.702681 64.94898 
L 97.563393 64.698202 
L 96.999948 63.669388 
L 96.43801 62.63102 
L 96.309304 62.389796 
L 95.63416 61.110204 
L 95.312628 60.493719 
L 94.971676 59.830612 
L 94.321275 58.55102 
L 94.187245 58.284413 
L 93.685246 57.271429 
L 93.061862 55.998635 
L 93.05858 55.991837 
L 92.44734 54.712245 
L 91.93648 53.630233 
L 91.844543 53.432653 
L 91.25541 52.153061 
L 90.811097 51.176949 
L 90.674967 50.873469 
L 90.107029 49.593878 
L 89.685714 48.633911 
L 89.547491 48.314286 
L 88.999883 47.034694 
L 88.560332 45.996064 
L 88.459861 45.755102 
L 87.931763 44.47551 
L 87.434949 43.258161 
L 87.409925 43.195918 
L 86.900558 41.916327 
L 86.396821 40.636735 
L 86.309566 40.412863 
L 85.904251 39.357143 
L 85.418235 38.077551 
L 85.184184 37.454975 
L 84.94091 36.797959 
L 84.471927 35.518367 
L 84.058801 34.379118 
L 84.008683 34.238776 
L 83.556082 32.959184 
L 83.108266 31.679592 
L 82.933418 31.175034 
z
" style="fill:#b4e1ad;"/>
   </g>
   <g id="PathCollection_4">
    <path clip-path="url(#p60f0b1ace5)" d="M 59.04123 34.238776 
L 58.749748 32.959184 
L 58.461015 31.679592 
L 58.175 30.4 
L 59.300383 30.4 
L 60.425765 30.4 
L 61.551148 30.4 
L 62.676531 30.4 
L 63.801913 30.4 
L 64.927296 30.4 
L 66.052679 30.4 
L 67.178061 30.4 
L 68.303444 30.4 
L 69.428827 30.4 
L 70.554209 30.4 
L 71.679592 30.4 
L 72.804974 30.4 
L 73.930357 30.4 
L 75.05574 30.4 
L 76.181122 30.4 
L 77.306505 30.4 
L 78.431888 30.4 
L 79.55727 30.4 
L 80.682653 30.4 
L 81.808036 30.4 
L 82.668954 30.4 
L 82.933418 31.175034 
L 83.108266 31.679592 
L 83.556082 32.959184 
L 84.008683 34.238776 
L 84.058801 34.379118 
L 84.471927 35.518367 
L 84.94091 36.797959 
L 85.184184 37.454975 
L 85.418235 38.077551 
L 85.904251 39.357143 
L 86.309566 40.412863 
L 86.396821 40.636735 
L 86.900558 41.916327 
L 87.409925 43.195918 
L 87.434949 43.258161 
L 87.931763 44.47551 
L 88.459861 45.755102 
L 88.560332 45.996064 
L 88.999883 47.034694 
L 89.547491 48.314286 
L 89.685714 48.633911 
L 90.107029 49.593878 
L 90.674967 50.873469 
L 90.811097 51.176949 
L 91.25541 52.153061 
L 91.844543 53.432653 
L 91.93648 53.630233 
L 92.44734 54.712245 
L 93.05858 55.991837 
L 93.061862 55.998635 
L 93.685246 57.271429 
L 94.187245 58.284413 
L 94.321275 58.55102 
L 94.971676 59.830612 
L 95.312628 60.493719 
L 95.63416 61.110204 
L 96.309304 62.389796 
L 96.43801 62.63102 
L 96.999948 63.669388 
L 97.563393 64.698202 
L 97.702681 64.94898 
L 98.421533 66.228571 
L 98.688776 66.698742 
L 99.155331 67.508163 
L 99.814158 68.637478 
L 99.903055 68.787755 
L 100.668758 70.067347 
L 100.939541 70.514492 
L 101.450677 71.346939 
L 102.064923 72.335224 
L 102.248483 72.626531 
L 103.064474 73.906122 
L 103.190306 74.101115 
L 103.899858 75.185714 
L 104.315689 75.813574 
L 104.753237 76.465306 
L 105.441071 77.477282 
L 105.625442 77.744898 
L 106.517898 79.02449 
L 106.566454 79.093273 
L 107.432784 80.304082 
L 107.691837 80.661648 
L 108.368829 81.583673 
L 108.817219 82.186749 
L 109.326949 82.863265 
L 109.942602 83.670147 
L 110.308085 84.142857 
L 111.067985 85.113363 
L 111.313204 85.422449 
L 112.193367 86.517871 
L 112.343297 86.702041 
L 113.31875 87.8851 
L 113.399387 87.981633 
L 114.444133 89.216435 
L 114.482523 89.261224 
L 115.569515 90.513219 
L 115.593786 90.540816 
L 116.694898 91.776757 
L 116.73429 91.820408 
L 117.820281 93.008314 
L 117.90518 93.1 
L 118.945663 94.209117 
L 119.107638 94.379592 
L 120.071046 95.380363 
L 120.342883 95.659184 
L 121.196429 96.523211 
L 121.612171 96.938776 
L 122.321811 97.63879 
L 122.916797 98.218367 
L 123.447194 98.7282 
L 124.258102 99.497959 
L 124.572577 99.792509 
L 125.637465 100.777551 
L 125.697959 100.832761 
L 126.823342 101.847508 
L 127.058706 102.057143 
L 127.948724 102.83923 
L 128.521914 103.336735 
L 129.074107 103.809546 
L 130.027997 104.616327 
L 130.19949 104.759402 
L 131.324872 105.687206 
L 131.581072 105.895918 
L 132.450255 106.594334 
L 133.18238 107.17551 
L 133.575638 107.483398 
L 134.70102 108.354024 
L 134.833187 108.455102 
L 135.826403 109.204207 
L 136.538278 109.734694 
L 136.951786 110.038556 
L 138.077168 110.855911 
L 138.297724 111.014286 
L 139.202551 111.654939 
L 140.11578 112.293878 
L 140.327934 112.440221 
L 141.453316 113.207878 
L 141.995506 113.573469 
L 142.578699 113.961141 
L 143.704082 114.700666 
L 143.938559 114.853061 
L 144.829464 115.423848 
L 145.948868 116.132653 
L 145.954847 116.136385 
L 147.08023 116.831382 
L 148.031844 117.412245 
L 148.205612 117.51678 
L 149.330995 118.18664 
L 150.189471 118.691837 
L 150.456378 118.84662 
L 151.58176 119.492382 
L 152.426037 119.971429 
L 152.707143 120.128592 
L 153.832526 120.751238 
L 154.745986 121.25102 
L 154.957908 121.365258 
L 156.083291 121.965721 
L 157.153932 122.530612 
L 157.208673 122.559065 
L 158.334056 123.13823 
L 159.459439 123.710993 
L 159.656331 123.810204 
L 160.584821 124.271059 
L 161.710204 124.823673 
L 162.257751 125.089796 
L 162.835587 125.366405 
L 163.960969 125.899651 
L 164.962923 126.369388 
L 165.086352 126.426374 
L 166.211735 126.940994 
L 167.337117 127.450173 
L 167.780868 127.64898 
L 168.4625 127.949683 
L 168.4625 128.928571 
L 168.4625 130.208163 
L 168.4625 131.487755 
L 168.4625 132.767347 
L 168.4625 134.046939 
L 168.4625 135.326531 
L 168.4625 136.606122 
L 168.4625 137.885714 
L 168.4625 139.165306 
L 168.4625 140.444898 
L 168.4625 141.72449 
L 168.4625 143.004082 
L 168.4625 144.283673 
L 168.4625 145.563265 
L 168.4625 146.842857 
L 168.4625 148.122449 
L 168.4625 149.402041 
L 168.4625 150.681633 
L 168.4625 151.961224 
L 168.4625 153.240816 
L 168.4625 154.520408 
L 168.4625 155.8 
L 167.337117 155.474793 
L 166.211735 155.146495 
L 165.086352 154.815073 
L 164.095242 154.520408 
L 163.960969 154.479546 
L 162.835587 154.133762 
L 161.710204 153.784617 
L 160.584821 153.432071 
L 159.980215 153.240816 
L 159.459439 153.072261 
L 158.334056 152.704412 
L 157.208673 152.332906 
L 156.09386 151.961224 
L 156.083291 151.95762 
L 154.957908 151.570012 
L 153.832526 151.178471 
L 152.707143 150.782951 
L 152.421772 150.681633 
L 151.58176 150.376712 
L 150.456378 149.963979 
L 149.330995 149.546968 
L 148.943913 149.402041 
L 148.205612 149.119527 
L 147.08023 148.684355 
L 145.954847 148.244583 
L 145.64559 148.122449 
L 144.829464 147.793156 
L 143.704082 147.334201 
L 142.578699 146.870301 
L 142.512837 146.842857 
L 141.453316 146.391952 
L 140.327934 145.907767 
L 139.535919 145.563265 
L 139.202551 145.415219 
L 138.077168 144.909889 
L 136.951786 144.398913 
L 136.700797 144.283673 
L 135.826403 143.873902 
L 134.70102 143.340521 
L 133.999159 143.004082 
L 133.575638 142.796934 
L 132.450255 142.24016 
L 131.419871 141.72449 
L 131.324872 141.675994 
L 130.19949 141.094779 
L 129.074107 140.506733 
L 128.957151 140.444898 
L 127.948724 139.901189 
L 126.823342 139.287178 
L 126.602617 139.165306 
L 125.697959 138.656058 
L 124.572577 138.014881 
L 124.348595 137.885714 
L 123.447194 137.355891 
L 122.321811 136.686274 
L 122.188752 136.606122 
L 121.196429 135.997022 
L 120.117572 135.326531 
L 120.071046 135.297075 
L 118.945663 134.575601 
L 118.131373 134.046939 
L 117.820281 133.841238 
L 116.694898 133.087574 
L 116.222819 132.767347 
L 115.569515 132.316107 
L 114.444133 131.528674 
L 114.386408 131.487755 
L 113.31875 130.717278 
L 112.622479 130.208163 
L 112.193367 129.888816 
L 111.067985 129.040108 
L 110.922052 128.928571 
L 109.942602 128.16682 
L 109.285694 127.64898 
L 108.817219 127.273272 
L 107.705406 126.369388 
L 107.691837 126.358167 
L 106.566454 125.414685 
L 106.18426 125.089796 
L 105.441071 124.447326 
L 104.714306 123.810204 
L 104.315689 123.454898 
L 103.293275 122.530612 
L 103.190306 122.435985 
L 102.064923 121.38691 
L 101.92123 121.25102 
L 100.939541 120.307426 
L 100.595016 119.971429 
L 99.814158 119.197552 
L 99.311307 118.691837 
L 98.688776 118.055722 
L 98.068293 117.412245 
L 97.563393 116.880328 
L 96.864225 116.132653 
L 96.43801 115.669715 
L 95.697408 114.853061 
L 95.312628 114.422178 
L 94.5662 113.573469 
L 94.187245 113.135963 
L 93.46901 112.293878 
L 93.061862 111.809259 
L 92.404293 111.014286 
L 91.93648 110.4402 
L 91.37055 109.734694 
L 90.811097 109.026858 
L 90.366328 108.455102 
L 89.685714 107.567244 
L 89.390209 107.17551 
L 88.560332 106.059302 
L 88.440819 105.895918 
L 87.518173 104.616327 
L 87.434949 104.499249 
L 86.622053 103.336735 
L 86.309566 102.883495 
L 85.749226 102.057143 
L 85.184184 101.212117 
L 84.898448 100.777551 
L 84.068669 99.497959 
L 84.058801 99.482531 
L 83.263848 98.218367 
L 82.933418 97.685699 
L 82.477985 96.938776 
L 81.808036 95.825113 
L 81.709941 95.659184 
L 80.963514 94.379592 
L 80.682653 93.891679 
L 80.234894 93.1 
L 79.55727 91.886042 
L 79.521282 91.820408 
L 78.828747 90.540816 
L 78.431888 89.797992 
L 78.150253 89.261224 
L 77.487416 87.981633 
L 77.306505 87.627912 
L 76.841555 86.702041 
L 76.207028 85.422449 
L 76.181122 85.369548 
L 75.591435 84.142857 
L 75.05574 83.014557 
L 74.985248 82.863265 
L 74.396329 81.583673 
L 73.930357 80.558755 
L 73.816757 80.304082 
L 73.252851 79.02449 
L 72.804974 77.995868 
L 72.69779 77.744898 
L 72.157776 76.465306 
L 71.679592 75.318697 
L 71.625209 75.185714 
L 71.108031 73.906122 
L 70.596861 72.626531 
L 70.554209 72.518514 
L 70.100685 71.346939 
L 69.61101 70.067347 
L 69.428827 69.585791 
L 69.132933 68.787755 
L 68.663832 67.508163 
L 68.303444 66.513953 
L 68.202092 66.228571 
L 67.752697 64.94898 
L 67.308265 63.669388 
L 67.178061 63.290339 
L 66.875077 62.389796 
L 66.449243 61.110204 
L 66.052679 59.905499 
L 66.028542 59.830612 
L 65.620548 58.55102 
L 65.216905 57.271429 
L 64.927296 56.34347 
L 64.819881 55.991837 
L 64.433108 54.712245 
L 64.05038 53.432653 
L 63.801913 52.593184 
L 63.674452 52.153061 
L 63.307696 50.873469 
L 62.944704 49.593878 
L 62.676531 48.63876 
L 62.587422 48.314286 
L 62.239568 47.034694 
L 61.895214 45.755102 
L 61.554318 44.47551 
L 61.551148 44.463492 
L 61.224259 43.195918 
L 60.897525 41.916327 
L 60.574007 40.636735 
L 60.425765 40.044597 
L 60.25756 39.357143 
L 59.947501 38.077551 
L 59.640432 36.797959 
L 59.33632 35.518367 
L 59.300383 35.365695 
z
" style="fill:#8ace88;"/>
   </g>
   <g id="PathCollection_5">
    <path clip-path="url(#p60f0b1ace5)" d="M 59.080179 99.497959 
L 58.561775 98.218367 
L 58.175 97.252218 
L 58.175 96.938776 
L 58.175 95.659184 
L 58.175 94.379592 
L 58.175 93.1 
L 58.175 91.820408 
L 58.175 90.540816 
L 58.175 89.261224 
L 58.175 87.981633 
L 58.175 86.702041 
L 58.175 85.422449 
L 58.175 84.142857 
L 58.175 82.863265 
L 58.175 81.583673 
L 58.175 80.304082 
L 58.175 79.02449 
L 58.175 77.744898 
L 58.175 76.465306 
L 58.175 75.185714 
L 58.175 73.906122 
L 58.175 72.626531 
L 58.175 71.346939 
L 58.175 70.067347 
L 58.175 68.787755 
L 58.175 67.508163 
L 58.175 66.228571 
L 58.175 64.94898 
L 58.175 63.669388 
L 58.175 62.389796 
L 58.175 61.110204 
L 58.175 59.830612 
L 58.175 58.55102 
L 58.175 57.271429 
L 58.175 55.991837 
L 58.175 54.712245 
L 58.175 53.432653 
L 58.175 52.153061 
L 58.175 50.873469 
L 58.175 49.593878 
L 58.175 48.314286 
L 58.175 47.034694 
L 58.175 45.755102 
L 58.175 44.47551 
L 58.175 43.195918 
L 58.175 41.916327 
L 58.175 40.636735 
L 58.175 39.357143 
L 58.175 38.077551 
L 58.175 36.797959 
L 58.175 35.518367 
L 58.175 34.238776 
L 58.175 32.959184 
L 58.175 31.679592 
L 58.175 30.4 
L 58.461015 31.679592 
L 58.749748 32.959184 
L 59.04123 34.238776 
L 59.300383 35.365695 
L 59.33632 35.518367 
L 59.640432 36.797959 
L 59.947501 38.077551 
L 60.25756 39.357143 
L 60.425765 40.044597 
L 60.574007 40.636735 
L 60.897525 41.916327 
L 61.224259 43.195918 
L 61.551148 44.463492 
L 61.554318 44.47551 
L 61.895214 45.755102 
L 62.239568 47.034694 
L 62.587422 48.314286 
L 62.676531 48.63876 
L 62.944704 49.593878 
L 63.307696 50.873469 
L 63.674452 52.153061 
L 63.801913 52.593184 
L 64.05038 53.432653 
L 64.433108 54.712245 
L 64.819881 55.991837 
L 64.927296 56.34347 
L 65.216905 57.271429 
L 65.620548 58.55102 
L 66.028542 59.830612 
L 66.052679 59.905499 
L 66.449243 61.110204 
L 66.875077 62.389796 
L 67.178061 63.290339 
L 67.308265 63.669388 
L 67.752697 64.94898 
L 68.202092 66.228571 
L 68.303444 66.513953 
L 68.663832 67.508163 
L 69.132933 68.787755 
L 69.428827 69.585791 
L 69.61101 70.067347 
L 70.100685 71.346939 
L 70.554209 72.518514 
L 70.596861 72.626531 
L 71.108031 73.906122 
L 71.625209 75.185714 
L 71.679592 75.318697 
L 72.157776 76.465306 
L 72.69779 77.744898 
L 72.804974 77.995868 
L 73.252851 79.02449 
L 73.816757 80.304082 
L 73.930357 80.558755 
L 74.396329 81.583673 
L 74.985248 82.863265 
L 75.05574 83.014557 
L 75.591435 84.142857 
L 76.181122 85.369548 
L 76.207028 85.422449 
L 76.841555 86.702041 
L 77.306505 87.627912 
L 77.487416 87.981633 
L 78.150253 89.261224 
L 78.431888 89.797992 
L 78.828747 90.540816 
L 79.521282 91.820408 
L 79.55727 91.886042 
L 80.234894 93.1 
L 80.682653 93.891679 
L 80.963514 94.379592 
L 81.709941 95.659184 
L 81.808036 95.825113 
L 82.477985 96.938776 
L 82.933418 97.685699 
L 83.263848 98.218367 
L 84.058801 99.482531 
L 84.068669 99.497959 
L 84.898448 100.777551 
L 85.184184 101.212117 
L 85.749226 102.057143 
L 86.309566 102.883495 
L 86.622053 103.336735 
L 87.434949 104.499249 
L 87.518173 104.616327 
L 88.440819 105.895918 
L 88.560332 106.059302 
L 89.390209 107.17551 
L 89.685714 107.567244 
L 90.366328 108.455102 
L 90.811097 109.026858 
L 91.37055 109.734694 
L 91.93648 110.4402 
L 92.404293 111.014286 
L 93.061862 111.809259 
L 93.46901 112.293878 
L 94.187245 113.135963 
L 94.5662 113.573469 
L 95.312628 114.422178 
L 95.697408 114.853061 
L 96.43801 115.669715 
L 96.864225 116.132653 
L 97.563393 116.880328 
L 98.068293 117.412245 
L 98.688776 118.055722 
L 99.311307 118.691837 
L 99.814158 119.197552 
L 100.595016 119.971429 
L 100.939541 120.307426 
L 101.92123 121.25102 
L 102.064923 121.38691 
L 103.190306 122.435985 
L 103.293275 122.530612 
L 104.315689 123.454898 
L 104.714306 123.810204 
L 105.441071 124.447326 
L 106.18426 125.089796 
L 106.566454 125.414685 
L 107.691837 126.358167 
L 107.705406 126.369388 
L 108.817219 127.273272 
L 109.285694 127.64898 
L 109.942602 128.16682 
L 110.922052 128.928571 
L 111.067985 129.040108 
L 112.193367 129.888816 
L 112.622479 130.208163 
L 113.31875 130.717278 
L 114.386408 131.487755 
L 114.444133 131.528674 
L 115.569515 132.316107 
L 116.222819 132.767347 
L 116.694898 133.087574 
L 117.820281 133.841238 
L 118.131373 134.046939 
L 118.945663 134.575601 
L 120.071046 135.297075 
L 120.117572 135.326531 
L 121.196429 135.997022 
L 122.188752 136.606122 
L 122.321811 136.686274 
L 123.447194 137.355891 
L 124.348595 137.885714 
L 124.572577 138.014881 
L 125.697959 138.656058 
L 126.602617 139.165306 
L 126.823342 139.287178 
L 127.948724 139.901189 
L 128.957151 140.444898 
L 129.074107 140.506733 
L 130.19949 141.094779 
L 131.324872 141.675994 
L 131.419871 141.72449 
L 132.450255 142.24016 
L 133.575638 142.796934 
L 133.999159 143.004082 
L 134.70102 143.340521 
L 135.826403 143.873902 
L 136.700797 144.283673 
L 136.951786 144.398913 
L 138.077168 144.909889 
L 139.202551 145.415219 
L 139.535919 145.563265 
L 140.327934 145.907767 
L 141.453316 146.391952 
L 142.512837 146.842857 
L 142.578699 146.870301 
L 143.704082 147.334201 
L 144.829464 147.793156 
L 145.64559 148.122449 
L 145.954847 148.244583 
L 147.08023 148.684355 
L 148.205612 149.119527 
L 148.943913 149.402041 
L 149.330995 149.546968 
L 150.456378 149.963979 
L 151.58176 150.376712 
L 152.421772 150.681633 
L 152.707143 150.782951 
L 153.832526 151.178471 
L 154.957908 151.570012 
L 156.083291 151.95762 
L 156.09386 151.961224 
L 157.208673 152.332906 
L 158.334056 152.704412 
L 159.459439 153.072261 
L 159.980215 153.240816 
L 160.584821 153.432071 
L 161.710204 153.784617 
L 162.835587 154.133762 
L 163.960969 154.479546 
L 164.095242 154.520408 
L 165.086352 154.815073 
L 166.211735 155.146495 
L 167.337117 155.474793 
L 168.4625 155.8 
L 167.337117 155.8 
L 166.211735 155.8 
L 165.086352 155.8 
L 163.960969 155.8 
L 162.835587 155.8 
L 161.710204 155.8 
L 160.584821 155.8 
L 159.459439 155.8 
L 158.334056 155.8 
L 157.208673 155.8 
L 156.083291 155.8 
L 154.957908 155.8 
L 153.832526 155.8 
L 152.707143 155.8 
L 151.58176 155.8 
L 150.456378 155.8 
L 149.330995 155.8 
L 148.205612 155.8 
L 147.08023 155.8 
L 145.954847 155.8 
L 144.829464 155.8 
L 143.704082 155.8 
L 142.578699 155.8 
L 141.453316 155.8 
L 140.327934 155.8 
L 139.202551 155.8 
L 138.077168 155.8 
L 136.951786 155.8 
L 135.826403 155.8 
L 134.70102 155.8 
L 133.575638 155.8 
L 132.450255 155.8 
L 131.324872 155.8 
L 130.19949 155.8 
L 129.074107 155.8 
L 127.948724 155.8 
L 126.823342 155.8 
L 125.697959 155.8 
L 124.572577 155.8 
L 123.447194 155.8 
L 122.321811 155.8 
L 121.196429 155.8 
L 120.071046 155.8 
L 118.945663 155.8 
L 117.820281 155.8 
L 116.694898 155.8 
L 115.569515 155.8 
L 114.444133 155.8 
L 113.31875 155.8 
L 112.193367 155.8 
L 111.067985 155.8 
L 109.942602 155.8 
L 109.666934 155.8 
L 108.817219 155.360226 
L 107.691837 154.770786 
L 107.219847 154.520408 
L 106.566454 154.164661 
L 105.441071 153.544207 
L 104.897786 153.240816 
L 104.315689 152.907386 
L 103.190306 152.254385 
L 102.691671 151.961224 
L 102.064923 151.583483 
L 100.939541 150.896304 
L 100.592766 150.681633 
L 99.814158 150.187798 
L 98.688776 149.464705 
L 98.592655 149.402041 
L 97.563393 148.714919 
L 96.687555 148.122449 
L 96.43801 147.949682 
L 95.312628 147.159152 
L 94.868708 146.842857 
L 94.187245 146.346167 
L 93.128009 145.563265 
L 93.061862 145.513278 
L 91.93648 144.649622 
L 91.466546 144.283673 
L 90.811097 143.762043 
L 89.87265 143.004082 
L 89.685714 142.849849 
L 88.560332 141.906744 
L 88.346243 141.72449 
L 87.434949 140.932361 
L 86.882825 140.444898 
L 86.309566 139.92833 
L 85.476162 139.165306 
L 85.184184 138.892579 
L 84.123588 137.885714 
L 84.058801 137.82299 
L 82.933418 136.714952 
L 82.824742 136.606122 
L 81.808036 135.568226 
L 81.57529 135.326531 
L 80.682653 134.381931 
L 80.371562 134.046939 
L 79.55727 133.153727 
L 79.211238 132.767347 
L 78.431888 131.881204 
L 78.092072 131.487755 
L 77.306505 130.561883 
L 77.011884 130.208163 
L 76.181122 129.19321 
L 75.968555 128.928571 
L 75.05574 127.772548 
L 74.960026 127.64898 
L 73.985522 126.369388 
L 73.930357 126.295723 
L 73.044834 125.089796 
L 72.804974 124.757808 
L 72.133906 123.810204 
L 71.679592 123.158393 
L 71.250875 122.530612 
L 70.554209 121.494446 
L 70.393919 121.25102 
L 69.564472 119.971429 
L 69.428827 119.758877 
L 68.76221 118.691837 
L 68.303444 117.946573 
L 67.981597 117.412245 
L 67.222025 116.132653 
L 67.178061 116.057443 
L 66.489511 114.853061 
L 66.052679 114.078218 
L 65.774501 113.573469 
L 65.079242 112.293878 
L 64.927296 112.010138 
L 64.406227 111.014286 
L 63.801913 109.843985 
L 63.746801 109.734694 
L 63.110851 108.455102 
L 62.676531 107.569803 
L 62.48773 107.17551 
L 61.883366 105.895918 
L 61.551148 105.183289 
L 61.293317 104.616327 
L 60.719012 103.336735 
L 60.425765 102.674874 
L 60.158938 102.057143 
L 59.613257 100.777551 
L 59.300383 100.034625 
z
" style="fill:#5ab769;"/>
   </g>
   <g id="PathCollection_6">
    <path clip-path="url(#p60f0b1ace5)" d="M 58.917268 135.326531 
L 58.175 134.14799 
L 58.175 134.046939 
L 58.175 132.767347 
L 58.175 131.487755 
L 58.175 130.208163 
L 58.175 128.928571 
L 58.175 127.64898 
L 58.175 126.369388 
L 58.175 125.089796 
L 58.175 123.810204 
L 58.175 122.530612 
L 58.175 121.25102 
L 58.175 119.971429 
L 58.175 118.691837 
L 58.175 117.412245 
L 58.175 116.132653 
L 58.175 114.853061 
L 58.175 113.573469 
L 58.175 112.293878 
L 58.175 111.014286 
L 58.175 109.734694 
L 58.175 108.455102 
L 58.175 107.17551 
L 58.175 105.895918 
L 58.175 104.616327 
L 58.175 103.336735 
L 58.175 102.057143 
L 58.175 100.777551 
L 58.175 99.497959 
L 58.175 98.218367 
L 58.175 97.252218 
L 58.561775 98.218367 
L 59.080179 99.497959 
L 59.300383 100.034625 
L 59.613257 100.777551 
L 60.158938 102.057143 
L 60.425765 102.674874 
L 60.719012 103.336735 
L 61.293317 104.616327 
L 61.551148 105.183289 
L 61.883366 105.895918 
L 62.48773 107.17551 
L 62.676531 107.569803 
L 63.110851 108.455102 
L 63.746801 109.734694 
L 63.801913 109.843985 
L 64.406227 111.014286 
L 64.927296 112.010138 
L 65.079242 112.293878 
L 65.774501 113.573469 
L 66.052679 114.078218 
L 66.489511 114.853061 
L 67.178061 116.057443 
L 67.222025 116.132653 
L 67.981597 117.412245 
L 68.303444 117.946573 
L 68.76221 118.691837 
L 69.428827 119.758877 
L 69.564472 119.971429 
L 70.393919 121.25102 
L 70.554209 121.494446 
L 71.250875 122.530612 
L 71.679592 123.158393 
L 72.133906 123.810204 
L 72.804974 124.757808 
L 73.044834 125.089796 
L 73.930357 126.295723 
L 73.985522 126.369388 
L 74.960026 127.64898 
L 75.05574 127.772548 
L 75.968555 128.928571 
L 76.181122 129.19321 
L 77.011884 130.208163 
L 77.306505 130.561883 
L 78.092072 131.487755 
L 78.431888 131.881204 
L 79.211238 132.767347 
L 79.55727 133.153727 
L 80.371562 134.046939 
L 80.682653 134.381931 
L 81.57529 135.326531 
L 81.808036 135.568226 
L 82.824742 136.606122 
L 82.933418 136.714952 
L 84.058801 137.82299 
L 84.123588 137.885714 
L 85.184184 138.892579 
L 85.476162 139.165306 
L 86.309566 139.92833 
L 86.882825 140.444898 
L 87.434949 140.932361 
L 88.346243 141.72449 
L 88.560332 141.906744 
L 89.685714 142.849849 
L 89.87265 143.004082 
L 90.811097 143.762043 
L 91.466546 144.283673 
L 91.93648 144.649622 
L 93.061862 145.513278 
L 93.128009 145.563265 
L 94.187245 146.346167 
L 94.868708 146.842857 
L 95.312628 147.159152 
L 96.43801 147.949682 
L 96.687555 148.122449 
L 97.563393 148.714919 
L 98.592655 149.402041 
L 98.688776 149.464705 
L 99.814158 150.187798 
L 100.592766 150.681633 
L 100.939541 150.896304 
L 102.064923 151.583483 
L 102.691671 151.961224 
L 103.190306 152.254385 
L 104.315689 152.907386 
L 104.897786 153.240816 
L 105.441071 153.544207 
L 106.566454 154.164661 
L 107.219847 154.520408 
L 107.691837 154.770786 
L 108.817219 155.360226 
L 109.666934 155.8 
L 108.817219 155.8 
L 107.691837 155.8 
L 106.566454 155.8 
L 105.441071 155.8 
L 104.315689 155.8 
L 103.190306 155.8 
L 102.064923 155.8 
L 100.939541 155.8 
L 99.814158 155.8 
L 98.688776 155.8 
L 97.563393 155.8 
L 96.43801 155.8 
L 95.312628 155.8 
L 94.187245 155.8 
L 93.061862 155.8 
L 91.93648 155.8 
L 90.811097 155.8 
L 89.685714 155.8 
L 88.560332 155.8 
L 87.434949 155.8 
L 86.309566 155.8 
L 85.184184 155.8 
L 84.058801 155.8 
L 82.933418 155.8 
L 81.808036 155.8 
L 80.682653 155.8 
L 79.55727 155.8 
L 78.431888 155.8 
L 77.306505 155.8 
L 77.217632 155.8 
L 76.181122 154.95602 
L 75.654673 154.520408 
L 75.05574 154.011694 
L 74.163178 153.240816 
L 73.930357 153.034579 
L 72.804974 152.019895 
L 72.741129 151.961224 
L 71.679592 150.961574 
L 71.387716 150.681633 
L 70.554209 149.863037 
L 70.093627 149.402041 
L 69.428827 148.721183 
L 68.855554 148.122449 
L 68.303444 147.532838 
L 67.670291 146.842857 
L 67.178061 146.294752 
L 66.534729 145.563265 
L 66.052679 145.003586 
L 65.44585 144.283673 
L 64.927296 143.655908 
L 64.400718 143.004082 
L 63.801913 142.248184 
L 63.396474 141.72449 
L 62.676531 140.776769 
L 62.430327 140.444898 
L 61.551148 139.2379 
L 61.499548 139.165306 
L 60.607148 137.885714 
L 60.425765 137.62099 
L 59.747789 136.606122 
L 59.300383 135.925118 
z
" style="fill:#319a50;"/>
   </g>
   <g id="PathCollection_7">
    <path clip-path="url(#p60f0b1ace5)" d="M 58.175 154.520408 
L 58.175 153.240816 
L 58.175 151.961224 
L 58.175 150.681633 
L 58.175 149.402041 
L 58.175 148.122449 
L 58.175 146.842857 
L 58.175 145.563265 
L 58.175 144.283673 
L 58.175 143.004082 
L 58.175 141.72449 
L 58.175 140.444898 
L 58.175 139.165306 
L 58.175 137.885714 
L 58.175 136.606122 
L 58.175 135.326531 
L 58.175 134.14799 
L 58.917268 135.326531 
L 59.300383 135.925118 
L 59.747789 136.606122 
L 60.425765 137.62099 
L 60.607148 137.885714 
L 61.499548 139.165306 
L 61.551148 139.2379 
L 62.430327 140.444898 
L 62.676531 140.776769 
L 63.396474 141.72449 
L 63.801913 142.248184 
L 64.400718 143.004082 
L 64.927296 143.655908 
L 65.44585 144.283673 
L 66.052679 145.003586 
L 66.534729 145.563265 
L 67.178061 146.294752 
L 67.670291 146.842857 
L 68.303444 147.532838 
L 68.855554 148.122449 
L 69.428827 148.721183 
L 70.093627 149.402041 
L 70.554209 149.863037 
L 71.387716 150.681633 
L 71.679592 150.961574 
L 72.741129 151.961224 
L 72.804974 152.019895 
L 73.930357 153.034579 
L 74.163178 153.240816 
L 75.05574 154.011694 
L 75.654673 154.520408 
L 76.181122 154.95602 
L 77.217632 155.8 
L 76.181122 155.8 
L 75.05574 155.8 
L 73.930357 155.8 
L 72.804974 155.8 
L 71.679592 155.8 
L 70.554209 155.8 
L 69.428827 155.8 
L 68.303444 155.8 
L 67.178061 155.8 
L 66.052679 155.8 
L 64.927296 155.8 
L 63.801913 155.8 
L 62.676531 155.8 
L 61.551148 155.8 
L 60.425765 155.8 
L 59.300383 155.8 
L 58.175 155.8 
z
" style="fill:#117b38;"/>
   </g>
   <g id="PathCollection_8"/>
   <g id="matplotlib.axis_1">
    <g id="xtick_1">
     <g id="line2d_1">
      <defs>
       <path d="M 0 0 
L 0 3.5 
" id="mc6f5adaef8" style="stroke:#000000;stroke-width:0.8;"/>
      </defs>
      <g>
       <use style="stroke:#000000;stroke-width:0.8;" x="58.175" xlink:href="#mc6f5adaef8" y="155.8"/>
      </g>
     </g>
     <g id="text_1">
      <!-- 0.5 -->
      <defs>
       <path d="M 31.78125 66.40625 
Q 24.171875 66.40625 20.328125 58.90625 
Q 16.5 51.421875 16.5 36.375 
Q 16.5 21.390625 20.328125 13.890625 
Q 24.171875 6.390625 31.78125 6.390625 
Q 39.453125 6.390625 43.28125 13.890625 
Q 47.125 21.390625 47.125 36.375 
Q 47.125 51.421875 43.28125 58.90625 
Q 39.453125 66.40625 31.78125 66.40625 
z
M 31.78125 74.21875 
Q 44.046875 74.21875 50.515625 64.515625 
Q 56.984375 54.828125 56.984375 36.375 
Q 56.984375 17.96875 50.515625 8.265625 
Q 44.046875 -1.421875 31.78125 -1.421875 
Q 19.53125 -1.421875 13.0625 8.265625 
Q 6.59375 17.96875 6.59375 36.375 
Q 6.59375 54.828125 13.0625 64.515625 
Q 19.53125 74.21875 31.78125 74.21875 
z
" id="DejaVuSans-30"/>
       <path d="M 10.6875 12.40625 
L 21 12.40625 
L 21 0 
L 10.6875 0 
z
" id="DejaVuSans-2e"/>
       <path d="M 10.796875 72.90625 
L 49.515625 72.90625 
L 49.515625 64.59375 
L 19.828125 64.59375 
L 19.828125 46.734375 
Q 21.96875 47.46875 24.109375 47.828125 
Q 26.265625 48.1875 28.421875 48.1875 
Q 40.625 48.1875 47.75 41.5 
Q 54.890625 34.8125 54.890625 23.390625 
Q 54.890625 11.625 47.5625 5.09375 
Q 40.234375 -1.421875 26.90625 -1.421875 
Q 22.3125 -1.421875 17.546875 -0.640625 
Q 12.796875 0.140625 7.71875 1.703125 
L 7.71875 11.625 
Q 12.109375 9.234375 16.796875 8.0625 
Q 21.484375 6.890625 26.703125 6.890625 
Q 35.15625 6.890625 40.078125 11.328125 
Q 45.015625 15.765625 45.015625 23.390625 
Q 45.015625 31 40.078125 35.4375 
Q 35.15625 39.890625 26.703125 39.890625 
Q 22.75 39.890625 18.8125 39.015625 
Q 14.890625 38.140625 10.796875 36.28125 
z
" id="DejaVuSans-35"/>
      </defs>
      <g transform="translate(50.223437 170.398438)scale(0.1 -0.1)">
       <use xlink:href="#DejaVuSans-30"/>
       <use x="63.623047" xlink:href="#DejaVuSans-2e"/>
       <use x="95.410156" xlink:href="#DejaVuSans-35"/>
      </g>
     </g>
    </g>
    <g id="xtick_2">
     <g id="line2d_2">
      <g>
       <use style="stroke:#000000;stroke-width:0.8;" x="94.9375" xlink:href="#mc6f5adaef8" y="155.8"/>
      </g>
     </g>
     <g id="text_2">
      <!-- 1.0 -->
      <defs>
       <path d="M 12.40625 8.296875 
L 28.515625 8.296875 
L 28.515625 63.921875 
L 10.984375 60.40625 
L 10.984375 69.390625 
L 28.421875 72.90625 
L 38.28125 72.90625 
L 38.28125 8.296875 
L 54.390625 8.296875 
L 54.390625 0 
L 12.40625 0 
z
" id="DejaVuSans-31"/>
      </defs>
      <g transform="translate(86.985938 170.398438)scale(0.1 -0.1)">
       <use xlink:href="#DejaVuSans-31"/>
       <use x="63.623047" xlink:href="#DejaVuSans-2e"/>
       <use x="95.410156" xlink:href="#DejaVuSans-30"/>
      </g>
     </g>
    </g>
    <g id="xtick_3">
     <g id="line2d_3">
      <g>
       <use style="stroke:#000000;stroke-width:0.8;" x="131.7" xlink:href="#mc6f5adaef8" y="155.8"/>
      </g>
     </g>
     <g id="text_3">
      <!-- 1.5 -->
      <g transform="translate(123.748438 170.398438)scale(0.1 -0.1)">
       <use xlink:href="#DejaVuSans-31"/>
       <use x="63.623047" xlink:href="#DejaVuSans-2e"/>
       <use x="95.410156" xlink:href="#DejaVuSans-35"/>
      </g>
     </g>
    </g>
    <g id="xtick_4">
     <g id="line2d_4">
      <g>
       <use style="stroke:#000000;stroke-width:0.8;" x="168.4625" xlink:href="#mc6f5adaef8" y="155.8"/>
      </g>
     </g>
     <g id="text_4">
      <!-- 2.0 -->
      <defs>
       <path d="M 19.1875 8.296875 
L 53.609375 8.296875 
L 53.609375 0 
L 7.328125 0 
L 7.328125 8.296875 
Q 12.9375 14.109375 22.625 23.890625 
Q 32.328125 33.6875 34.8125 36.53125 
Q 39.546875 41.84375 41.421875 45.53125 
Q 43.3125 49.21875 43.3125 52.78125 
Q 43.3125 58.59375 39.234375 62.25 
Q 35.15625 65.921875 28.609375 65.921875 
Q 23.96875 65.921875 18.8125 64.3125 
Q 13.671875 62.703125 7.8125 59.421875 
L 7.8125 69.390625 
Q 13.765625 71.78125 18.9375 73 
Q 24.125 74.21875 28.421875 74.21875 
Q 39.75 74.21875 46.484375 68.546875 
Q 53.21875 62.890625 53.21875 53.421875 
Q 53.21875 48.921875 51.53125 44.890625 
Q 49.859375 40.875 45.40625 35.40625 
Q 44.1875 33.984375 37.640625 27.21875 
Q 31.109375 20.453125 19.1875 8.296875 
z
" id="DejaVuSans-32"/>
      </defs>
      <g transform="translate(160.510938 170.398438)scale(0.1 -0.1)">
       <use xlink:href="#DejaVuSans-32"/>
       <use x="63.623047" xlink:href="#DejaVuSans-2e"/>
       <use x="95.410156" xlink:href="#DejaVuSans-30"/>
      </g>
     </g>
    </g>
    <g id="text_5">
     <!-- $c$ -->
     <defs>
      <path d="M 53.609375 52.59375 
L 51.8125 43.703125 
Q 48.578125 46.046875 44.9375 47.21875 
Q 41.3125 48.390625 37.40625 48.390625 
Q 33.109375 48.390625 29.21875 46.875 
Q 25.34375 45.359375 22.703125 42.578125 
Q 18.5 38.328125 16.203125 32.609375 
Q 13.921875 26.90625 13.921875 20.796875 
Q 13.921875 13.421875 17.609375 9.8125 
Q 21.296875 6.203125 28.8125 6.203125 
Q 32.515625 6.203125 36.6875 7.328125 
Q 40.875 8.453125 45.40625 10.6875 
L 43.703125 1.8125 
Q 39.796875 0.203125 35.671875 -0.609375 
Q 31.546875 -1.421875 27.203125 -1.421875 
Q 16.3125 -1.421875 10.453125 4.015625 
Q 4.59375 9.46875 4.59375 19.578125 
Q 4.59375 28.078125 7.640625 35.234375 
Q 10.6875 42.390625 16.703125 48.09375 
Q 20.796875 52 26.3125 54 
Q 31.84375 56 38.375 56 
Q 42.1875 56 45.9375 55.140625 
Q 49.703125 54.296875 53.609375 52.59375 
z
" id="DejaVuSans-Oblique-63"/>
     </defs>
     <g transform="translate(109.46875 187.115938)scale(0.14 -0.14)">
      <use xlink:href="#DejaVuSans-Oblique-63"/>
     </g>
    </g>
   </g>
   <g id="matplotlib.axis_2">
    <g id="ytick_1">
     <g id="line2d_5">
      <defs>
       <path d="M 0 0 
L -3.5 0 
" id="m511ff1e848" style="stroke:#000000;stroke-width:0.8;"/>
      </defs>
      <g>
       <use style="stroke:#000000;stroke-width:0.8;" x="58.175" xlink:href="#m511ff1e848" y="155.8"/>
      </g>
     </g>
     <g id="text_6">
      <!-- 0.50 -->
      <g transform="translate(28.909375 159.599219)scale(0.1 -0.1)">
       <use xlink:href="#DejaVuSans-30"/>
       <use x="63.623047" xlink:href="#DejaVuSans-2e"/>
       <use x="95.410156" xlink:href="#DejaVuSans-35"/>
       <use x="159.033203" xlink:href="#DejaVuSans-30"/>
      </g>
     </g>
    </g>
    <g id="ytick_2">
     <g id="line2d_6">
      <g>
       <use style="stroke:#000000;stroke-width:0.8;" x="58.175" xlink:href="#m511ff1e848" y="134.9"/>
      </g>
     </g>
     <g id="text_7">
      <!-- 0.75 -->
      <defs>
       <path d="M 8.203125 72.90625 
L 55.078125 72.90625 
L 55.078125 68.703125 
L 28.609375 0 
L 18.3125 0 
L 43.21875 64.59375 
L 8.203125 64.59375 
z
" id="DejaVuSans-37"/>
      </defs>
      <g transform="translate(28.909375 138.699219)scale(0.1 -0.1)">
       <use xlink:href="#DejaVuSans-30"/>
       <use x="63.623047" xlink:href="#DejaVuSans-2e"/>
       <use x="95.410156" xlink:href="#DejaVuSans-37"/>
       <use x="159.033203" xlink:href="#DejaVuSans-35"/>
      </g>
     </g>
    </g>
    <g id="ytick_3">
     <g id="line2d_7">
      <g>
       <use style="stroke:#000000;stroke-width:0.8;" x="58.175" xlink:href="#m511ff1e848" y="114"/>
      </g>
     </g>
     <g id="text_8">
      <!-- 1.00 -->
      <g transform="translate(28.909375 117.799219)scale(0.1 -0.1)">
       <use xlink:href="#DejaVuSans-31"/>
       <use x="63.623047" xlink:href="#DejaVuSans-2e"/>
       <use x="95.410156" xlink:href="#DejaVuSans-30"/>
       <use x="159.033203" xlink:href="#DejaVuSans-30"/>
      </g>
     </g>
    </g>
    <g id="ytick_4">
     <g id="line2d_8">
      <g>
       <use style="stroke:#000000;stroke-width:0.8;" x="58.175" xlink:href="#m511ff1e848" y="93.1"/>
      </g>
     </g>
     <g id="text_9">
      <!-- 1.25 -->
      <g transform="translate(28.909375 96.899219)scale(0.1 -0.1)">
       <use xlink:href="#DejaVuSans-31"/>
       <use x="63.623047" xlink:href="#DejaVuSans-2e"/>
       <use x="95.410156" xlink:href="#DejaVuSans-32"/>
       <use x="159.033203" xlink:href="#DejaVuSans-35"/>
      </g>
     </g>
    </g>
    <g id="ytick_5">
     <g id="line2d_9">
      <g>
       <use style="stroke:#000000;stroke-width:0.8;" x="58.175" xlink:href="#m511ff1e848" y="72.2"/>
      </g>
     </g>
     <g id="text_10">
      <!-- 1.50 -->
      <g transform="translate(28.909375 75.999219)scale(0.1 -0.1)">
       <use xlink:href="#DejaVuSans-31"/>
       <use x="63.623047" xlink:href="#DejaVuSans-2e"/>
       <use x="95.410156" xlink:href="#DejaVuSans-35"/>
       <use x="159.033203" xlink:href="#DejaVuSans-30"/>
      </g>
     </g>
    </g>
    <g id="ytick_6">
     <g id="line2d_10">
      <g>
       <use style="stroke:#000000;stroke-width:0.8;" x="58.175" xlink:href="#m511ff1e848" y="51.3"/>
      </g>
     </g>
     <g id="text_11">
      <!-- 1.75 -->
      <g transform="translate(28.909375 55.099219)scale(0.1 -0.1)">
       <use xlink:href="#DejaVuSans-31"/>
       <use x="63.623047" xlink:href="#DejaVuSans-2e"/>
       <use x="95.410156" xlink:href="#DejaVuSans-37"/>
       <use x="159.033203" xlink:href="#DejaVuSans-35"/>
      </g>
     </g>
    </g>
    <g id="ytick_7">
     <g id="line2d_11">
      <g>
       <use style="stroke:#000000;stroke-width:0.8;" x="58.175" xlink:href="#m511ff1e848" y="30.4"/>
      </g>
     </g>
     <g id="text_12">
      <!-- 2.00 -->
      <g transform="translate(28.909375 34.199219)scale(0.1 -0.1)">
       <use xlink:href="#DejaVuSans-32"/>
       <use x="63.623047" xlink:href="#DejaVuSans-2e"/>
       <use x="95.410156" xlink:href="#DejaVuSans-30"/>
       <use x="159.033203" xlink:href="#DejaVuSans-30"/>
      </g>
     </g>
    </g>
    <g id="text_13">
     <!-- $r$ -->
     <defs>
      <path d="M 44.578125 46.390625 
Q 43.21875 47.125 41.453125 47.515625 
Q 39.703125 47.90625 37.703125 47.90625 
Q 30.515625 47.90625 25.140625 42.453125 
Q 19.78125 37.015625 18.015625 27.875 
L 12.5 0 
L 3.515625 0 
L 14.203125 54.6875 
L 23.1875 54.6875 
L 21.484375 46.1875 
Q 25.046875 50.921875 30 53.453125 
Q 34.96875 56 40.578125 56 
Q 42.046875 56 43.453125 55.828125 
Q 44.875 55.671875 46.296875 55.28125 
z
" id="DejaVuSans-Oblique-72"/>
     </defs>
     <g transform="translate(21.997812 96.04)rotate(-90)scale(0.14 -0.14)">
      <use xlink:href="#DejaVuSans-Oblique-72"/>
     </g>
    </g>
   </g>
   <g id="LineCollection_1">
    <path clip-path="url(#p60f0b1ace5)" d="M 118.286984 30.4 
L 118.945663 31.602384 
L 118.98844 31.679592 
L 119.704097 32.959184 
L 120.071046 33.608458 
L 120.431326 34.238776 
L 121.170453 35.518367 
L 121.196429 35.562912 
L 121.924809 36.797959 
L 122.321811 37.464009 
L 122.691647 38.077551 
L 123.447194 39.317731 
L 123.471475 39.357143 
L 124.267499 40.636735 
L 124.572577 41.121981 
L 125.077603 41.916327 
L 125.697959 42.881734 
L 125.902112 43.195918 
L 126.74228 44.47551 
L 126.823342 44.597729 
L 127.59957 45.755102 
L 127.948724 46.270162 
L 128.47278 47.034694 
L 129.074107 47.902624 
L 129.362494 48.314286 
L 130.19949 49.496352 
L 130.269312 49.593878 
L 131.194953 50.873469 
L 131.324872 51.051183 
L 132.139357 52.153061 
L 132.450255 52.569163 
L 133.102574 53.432653 
L 133.575638 54.052155 
L 134.085263 54.712245 
L 134.70102 55.501254 
L 135.0881 55.991837 
L 135.826403 56.917521 
L 136.111776 57.271429 
L 136.951786 58.301988 
L 137.157001 58.55102 
L 138.077168 59.655656 
L 138.224504 59.830612 
L 139.202551 60.979502 
L 139.315034 61.110204 
L 140.327934 62.274473 
L 140.429359 62.389796 
L 141.453316 63.541491 
L 141.568267 63.669388 
L 142.578699 64.781454 
L 142.73257 64.94898 
L 143.704082 65.995236 
L 143.923102 66.228571 
L 144.829464 67.183687 
L 145.140721 67.508163 
L 145.954847 68.347635 
L 146.386307 68.787755 
L 147.08023 69.487888 
L 147.660769 70.067347 
L 148.205612 70.605234 
L 148.96504 71.346939 
L 149.330995 71.700439 
L 150.300081 72.626531 
L 150.456378 72.774252 
L 151.58176 73.826732 
L 151.667533 73.906122 
L 152.707143 74.857811 
L 153.069193 75.185714 
L 153.832526 75.869441 
L 154.013154 76.029511 
" style="fill:none;stroke:#000000;stroke-dasharray:11.1,4.8;stroke-dashoffset:0;stroke-width:3;"/>
    <path clip-path="url(#p60f0b1ace5)" d="M 167.483673 86.757744 
L 168.4625 87.450977 
" style="fill:none;stroke:#000000;stroke-dasharray:11.1,4.8;stroke-dashoffset:0;stroke-width:3;"/>
   </g>
   <g id="LineCollection_2">
    <path clip-path="url(#p60f0b1ace5)" d="M 58.175 30.4 
L 60.574007 40.636735 
L 62.944704 49.593878 
L 65.216905 57.271429 
L 67.752697 64.94898 
L 70.100685 71.346939 
L 72.157776 76.465306 
L 74.396329 81.583673 
L 76.841555 86.702041 
L 79.55727 91.886042 
L 82.477985 96.938776 
L 85.184184 101.212117 
L 88.440819 105.895918 
L 91.37055 109.734694 
L 94.5662 113.573469 
L 98.068293 117.412245 
L 101.92123 121.25102 
L 105.441071 124.447326 
L 109.285694 127.64898 
L 113.31875 130.717278 
L 117.820281 133.841238 
L 122.321811 136.686274 
L 126.823342 139.287178 
L 132.450255 142.24016 
L 138.077168 144.909889 
L 143.704082 147.334201 
L 149.330995 149.546968 
L 152.001688 150.529144 
L 152.001688 150.529144 
" style="fill:none;stroke:#000000;stroke-width:3;"/>
    <path clip-path="url(#p60f0b1ace5)" d="M 168.034355 155.676277 
L 168.4625 155.8 
" style="fill:none;stroke:#000000;stroke-width:3;"/>
   </g>
   <g id="LineCollection_3">
    <path clip-path="url(#p60f0b1ace5)" d="M 58.175 134.14799 
L 58.917268 135.326531 
L 59.300383 135.925118 
L 59.747789 136.606122 
L 60.425765 137.62099 
L 60.607148 137.885714 
L 61.499548 139.165306 
L 61.551148 139.2379 
L 62.142044 140.049124 
" style="fill:none;stroke:#000000;stroke-width:3;"/>
    <path clip-path="url(#p60f0b1ace5)" d="M 73.840243 152.953328 
L 73.930357 153.034579 
L 74.163178 153.240816 
L 75.05574 154.011694 
L 75.654673 154.520408 
L 76.181122 154.95602 
L 77.217632 155.8 
" style="fill:none;stroke:#000000;stroke-width:3;"/>
   </g>
   <g id="patch_3">
    <path d="M 58.175 155.8 
L 58.175 30.4 
" style="fill:none;stroke:#000000;stroke-linecap:square;stroke-linejoin:miter;stroke-width:0.8;"/>
   </g>
   <g id="patch_4">
    <path d="M 168.4625 155.8 
L 168.4625 30.4 
" style="fill:none;stroke:#000000;stroke-linecap:square;stroke-linejoin:miter;stroke-width:0.8;"/>
   </g>
   <g id="patch_5">
    <path d="M 58.175 155.8 
L 168.4625 155.8 
" style="fill:none;stroke:#000000;stroke-linecap:square;stroke-linejoin:miter;stroke-width:0.8;"/>
   </g>
   <g id="patch_6">
    <path d="M 58.175 30.4 
L 168.4625 30.4 
" style="fill:none;stroke:#000000;stroke-linecap:square;stroke-linejoin:miter;stroke-width:0.8;"/>
   </g>
   <g id="text_14">
    <g clip-path="url(#p60f0b1ace5)">
     <!-- -1 -->
     <defs>
      <path d="M 4.890625 31.390625 
L 31.203125 31.390625 
L 31.203125 23.390625 
L 4.890625 23.390625 
z
" id="DejaVuSans-2d"/>
     </defs>
     <g transform="translate(154.968095 80.857217)rotate(-323.70977)scale(0.1 -0.1)">
      <use xlink:href="#DejaVuSans-2d"/>
      <use x="36.083984" xlink:href="#DejaVuSans-31"/>
     </g>
    </g>
   </g>
   <g id="text_15">
    <g clip-path="url(#p60f0b1ace5)">
     <!--  0 -->
     <defs>
      <path id="DejaVuSans-20"/>
     </defs>
     <g transform="translate(154.623244 154.534218)rotate(-343.526745)scale(0.1 -0.1)">
      <use xlink:href="#DejaVuSans-20"/>
      <use x="31.787109" xlink:href="#DejaVuSans-30"/>
     </g>
    </g>
   </g>
   <g id="text_16">
    <g clip-path="url(#p60f0b1ace5)">
     <!--  1 -->
     <g transform="translate(62.358623 145.374452)rotate(-314.499468)scale(0.1 -0.1)">
      <use xlink:href="#DejaVuSans-20"/>
      <use x="31.787109" xlink:href="#DejaVuSans-31"/>
     </g>
    </g>
   </g>
   <g id="text_17">
    <!-- $s N^*=0$ -->
    <defs>
     <path d="M 50 53.078125 
L 48.296875 44.578125 
Q 44.734375 46.53125 40.765625 47.5 
Q 36.8125 48.484375 32.625 48.484375 
Q 25.53125 48.484375 21.453125 46.0625 
Q 17.390625 43.65625 17.390625 39.5 
Q 17.390625 34.671875 26.859375 32.078125 
Q 27.59375 31.890625 27.9375 31.78125 
L 30.8125 30.90625 
Q 39.796875 28.421875 42.796875 25.6875 
Q 45.796875 22.953125 45.796875 18.21875 
Q 45.796875 9.515625 38.890625 4.046875 
Q 31.984375 -1.421875 20.796875 -1.421875 
Q 16.453125 -1.421875 11.671875 -0.578125 
Q 6.890625 0.25 1.125 2 
L 2.875 11.28125 
Q 7.8125 8.734375 12.59375 7.421875 
Q 17.390625 6.109375 21.78125 6.109375 
Q 28.375 6.109375 32.5 8.9375 
Q 36.625 11.765625 36.625 16.109375 
Q 36.625 20.796875 25.78125 23.6875 
L 24.859375 23.921875 
L 21.78125 24.703125 
Q 14.9375 26.515625 11.765625 29.46875 
Q 8.59375 32.421875 8.59375 37.015625 
Q 8.59375 45.75 15.15625 50.875 
Q 21.734375 56 33.015625 56 
Q 37.453125 56 41.671875 55.265625 
Q 45.90625 54.546875 50 53.078125 
z
" id="DejaVuSans-Oblique-73"/>
     <path d="M 16.890625 72.90625 
L 30.171875 72.90625 
L 50.296875 10.40625 
L 62.5 72.90625 
L 72.125 72.90625 
L 57.90625 0 
L 44.578125 0 
L 24.515625 62.890625 
L 12.3125 0 
L 2.6875 0 
z
" id="DejaVuSans-Oblique-4e"/>
     <path d="M 47.015625 60.890625 
L 29.5 51.421875 
L 47.015625 41.890625 
L 44.1875 37.109375 
L 27.78125 47.015625 
L 27.78125 28.609375 
L 22.21875 28.609375 
L 22.21875 47.015625 
L 5.8125 37.109375 
L 2.984375 41.890625 
L 20.515625 51.421875 
L 2.984375 60.890625 
L 5.8125 65.71875 
L 22.21875 55.8125 
L 22.21875 74.21875 
L 27.78125 74.21875 
L 27.78125 55.8125 
L 44.1875 65.71875 
z
" id="DejaVuSans-2a"/>
     <path d="M 10.59375 45.40625 
L 73.1875 45.40625 
L 73.1875 37.203125 
L 10.59375 37.203125 
z
M 10.59375 25.484375 
L 73.1875 25.484375 
L 73.1875 17.1875 
L 10.59375 17.1875 
z
" id="DejaVuSans-3d"/>
    </defs>
    <g transform="translate(90.15875 24.4)scale(0.12 -0.12)">
     <use transform="translate(0 0.765625)" xlink:href="#DejaVuSans-Oblique-73"/>
     <use transform="translate(52.099609 0.765625)" xlink:href="#DejaVuSans-Oblique-4e"/>
     <use transform="translate(147.558763 39.046875)scale(0.7)" xlink:href="#DejaVuSans-2a"/>
     <use transform="translate(218.413255 0.765625)" xlink:href="#DejaVuSans-3d"/>
     <use transform="translate(321.68474 0.765625)" xlink:href="#DejaVuSans-30"/>
    </g>
   </g>
  </g>
 </g>
 <defs>
  <clipPath id="p60f0b1ace5">
   <rect height="125.4" width="110.2875" x="58.175" y="30.4"/>
  </clipPath>
 </defs>
</svg>
