<?xml version="1.0" encoding="utf-8" standalone="no"?>
<!DOCTYPE svg PUBLIC "-//W3C//DTD SVG 1.1//EN"
  "http://www.w3.org/Graphics/SVG/1.1/DTD/svg11.dtd">
<!-- Created with matplotlib (http://matplotlib.org/) -->
<svg height="201.6pt" version="1.1" viewBox="0 0 187.2 201.6" width="187.2pt" xmlns="http://www.w3.org/2000/svg" xmlns:xlink="http://www.w3.org/1999/xlink">
 <defs>
  <style type="text/css">
*{stroke-linecap:butt;stroke-linejoin:round;}
  </style>
 </defs>
 <g id="figure_1">
  <g id="patch_1">
   <path d="M 0 201.6 
L 187.2 201.6 
L 187.2 0 
L 0 0 
z
" style="fill:#ffffff;"/>
  </g>
  <g id="axes_1">
   <g id="patch_2">
    <path d="M 64.65 155.8 
L 168.4625 155.8 
L 168.4625 26.8 
L 64.65 26.8 
z
" style="fill:#ffffff;"/>
   </g>
   <g id="PathCollection_1">
    <path clip-path="url(#pbd8aee5d7d)" d="M 119.734184 155.8 
L 120.793495 155.8 
L 121.852806 155.8 
L 122.912117 155.8 
L 123.971429 155.8 
L 125.03074 155.8 
L 126.090051 155.8 
L 127.149362 155.8 
L 128.208673 155.8 
L 129.267985 155.8 
L 130.327296 155.8 
L 131.386607 155.8 
L 132.445918 155.8 
L 133.50523 155.8 
L 134.564541 155.8 
L 135.623852 155.8 
L 136.683163 155.8 
L 137.742474 155.8 
L 138.801786 155.8 
L 139.861097 155.8 
L 140.920408 155.8 
L 141.979719 155.8 
L 143.039031 155.8 
L 144.098342 155.8 
L 144.151317 155.8 
L 145.157653 155.044686 
L 145.912023 154.483673 
L 146.216964 154.256894 
L 147.276276 153.476253 
L 147.699259 153.167347 
L 148.335587 152.702635 
L 149.394898 151.935914 
L 149.513233 151.85102 
L 150.454209 151.175968 
L 151.355999 150.534694 
L 151.51352 150.422678 
L 152.572832 149.67593 
L 153.227549 149.218367 
L 153.632143 148.935609 
L 154.691454 148.201608 
L 155.127479 147.902041 
L 155.750765 147.473818 
L 156.810077 146.752135 
L 157.056405 146.585714 
L 157.869388 146.036458 
L 158.928699 145.326688 
L 159.014924 145.269388 
L 159.98801 144.622728 
L 161.003966 143.953061 
L 161.047321 143.924483 
L 162.106633 143.231862 
L 163.024165 142.636735 
L 163.165944 142.544775 
L 164.225255 141.863133 
L 165.075366 141.320408 
L 165.284566 141.186852 
L 166.343878 140.515847 
L 167.158102 140.004082 
L 167.403189 139.850037 
L 168.4625 139.189342 
L 168.4625 138.687755 
L 168.4625 137.371429 
L 168.4625 136.055102 
L 168.4625 134.738776 
L 168.4625 133.422449 
L 168.4625 132.106122 
L 168.4625 130.789796 
L 168.4625 129.473469 
L 168.4625 128.157143 
L 168.4625 126.840816 
L 168.4625 125.52449 
L 168.4625 124.208163 
L 168.4625 122.891837 
L 168.4625 121.57551 
L 168.4625 120.259184 
L 168.4625 118.942857 
L 168.4625 117.689342 
L 167.403189 118.350037 
L 166.460005 118.942857 
L 166.343878 119.015847 
L 165.284566 119.686852 
L 164.388079 120.259184 
L 164.225255 120.363133 
L 163.165944 121.044775 
L 162.347687 121.57551 
L 162.106633 121.731862 
L 161.047321 122.424483 
L 160.338297 122.891837 
L 159.98801 123.122728 
L 158.928699 123.826688 
L 158.359359 124.208163 
L 157.869388 124.536458 
L 156.810077 125.252135 
L 156.410305 125.52449 
L 155.750765 125.973818 
L 154.691454 126.701608 
L 154.490548 126.840816 
L 153.632143 127.435609 
L 152.599713 128.157143 
L 152.572832 128.17593 
L 151.51352 128.922678 
L 150.738972 129.473469 
L 150.454209 129.675968 
L 149.394898 130.435914 
L 148.90597 130.789796 
L 148.335587 131.202635 
L 147.276276 131.976253 
L 147.100046 132.106122 
L 146.216964 132.756894 
L 145.32202 133.422449 
L 145.157653 133.544686 
L 144.098342 134.339761 
L 143.571633 134.738776 
L 143.039031 135.142255 
L 141.979719 135.952308 
L 141.846561 136.055102 
L 140.920408 136.770064 
L 140.148815 137.371429 
L 139.861097 137.59567 
L 138.801786 138.429279 
L 138.476511 138.687755 
L 137.742474 139.271048 
L 136.829028 140.004082 
L 136.683163 140.121137 
L 135.623852 140.979713 
L 135.207699 141.320408 
L 134.564541 141.846948 
L 133.609558 142.636735 
L 133.50523 142.723016 
L 132.445918 143.608101 
L 132.037303 143.953061 
L 131.386607 144.50239 
L 130.487524 145.269388 
L 130.327296 145.406076 
L 129.267985 146.319359 
L 128.962322 146.585714 
L 128.208673 147.242445 
L 127.459862 147.902041 
L 127.149362 148.175546 
L 126.090051 149.118883 
L 125.979561 149.218367 
L 125.03074 150.072682 
L 124.52331 150.534694 
L 123.971429 151.037178 
L 123.087606 151.85102 
L 122.912117 152.012614 
L 121.852806 152.99924 
L 121.674386 153.167347 
L 120.793495 153.997317 
L 120.283291 154.483673 
L 119.734184 155.007114 
L 118.912185 155.8 
z
" style="fill:#eff6fc;"/>
   </g>
   <g id="PathCollection_2">
    <path clip-path="url(#pbd8aee5d7d)" d="M 99.60727 155.8 
L 100.666582 155.8 
L 101.725893 155.8 
L 102.785204 155.8 
L 103.844515 155.8 
L 104.903827 155.8 
L 105.963138 155.8 
L 107.022449 155.8 
L 108.08176 155.8 
L 109.141071 155.8 
L 110.200383 155.8 
L 111.259694 155.8 
L 112.319005 155.8 
L 113.378316 155.8 
L 114.437628 155.8 
L 115.496939 155.8 
L 116.55625 155.8 
L 117.615561 155.8 
L 118.674872 155.8 
L 118.912185 155.8 
L 119.734184 155.007114 
L 120.283291 154.483673 
L 120.793495 153.997317 
L 121.674386 153.167347 
L 121.852806 152.99924 
L 122.912117 152.012614 
L 123.087606 151.85102 
L 123.971429 151.037178 
L 124.52331 150.534694 
L 125.03074 150.072682 
L 125.979561 149.218367 
L 126.090051 149.118883 
L 127.149362 148.175546 
L 127.459862 147.902041 
L 128.208673 147.242445 
L 128.962322 146.585714 
L 129.267985 146.319359 
L 130.327296 145.406076 
L 130.487524 145.269388 
L 131.386607 144.50239 
L 132.037303 143.953061 
L 132.445918 143.608101 
L 133.50523 142.723016 
L 133.609558 142.636735 
L 134.564541 141.846948 
L 135.207699 141.320408 
L 135.623852 140.979713 
L 136.683163 140.121137 
L 136.829028 140.004082 
L 137.742474 139.271048 
L 138.476511 138.687755 
L 138.801786 138.429279 
L 139.861097 137.59567 
L 140.148815 137.371429 
L 140.920408 136.770064 
L 141.846561 136.055102 
L 141.979719 135.952308 
L 143.039031 135.142255 
L 143.571633 134.738776 
L 144.098342 134.339761 
L 145.157653 133.544686 
L 145.32202 133.422449 
L 146.216964 132.756894 
L 147.100046 132.106122 
L 147.276276 131.976253 
L 148.335587 131.202635 
L 148.90597 130.789796 
L 149.394898 130.435914 
L 150.454209 129.675968 
L 150.738972 129.473469 
L 151.51352 128.922678 
L 152.572832 128.17593 
L 152.599713 128.157143 
L 153.632143 127.435609 
L 154.490548 126.840816 
L 154.691454 126.701608 
L 155.750765 125.973818 
L 156.410305 125.52449 
L 156.810077 125.252135 
L 157.869388 124.536458 
L 158.359359 124.208163 
L 158.928699 123.826688 
L 159.98801 123.122728 
L 160.338297 122.891837 
L 161.047321 122.424483 
L 162.106633 121.731862 
L 162.347687 121.57551 
L 163.165944 121.044775 
L 164.225255 120.363133 
L 164.388079 120.259184 
L 165.284566 119.686852 
L 166.343878 119.015847 
L 166.460005 118.942857 
L 167.403189 118.350037 
L 168.4625 117.689342 
L 168.4625 117.626531 
L 168.4625 116.310204 
L 168.4625 114.993878 
L 168.4625 113.677551 
L 168.4625 112.361224 
L 168.4625 111.044898 
L 168.4625 109.728571 
L 168.4625 108.412245 
L 168.4625 107.095918 
L 168.4625 105.779592 
L 168.4625 104.463265 
L 168.4625 103.146939 
L 168.4625 101.830612 
L 168.4625 100.514286 
L 168.4625 99.197959 
L 168.4625 97.881633 
L 168.4625 96.565306 
L 168.4625 96.189342 
L 167.859706 96.565306 
L 167.403189 96.850037 
L 166.343878 97.515847 
L 165.766414 97.881633 
L 165.284566 98.186852 
L 164.225255 98.863133 
L 163.704915 99.197959 
L 163.165944 99.544775 
L 162.106633 100.231862 
L 161.674687 100.514286 
L 161.047321 100.924483 
L 159.98801 101.622728 
L 159.675188 101.830612 
L 158.928699 102.326688 
L 157.869388 103.036458 
L 157.70586 103.146939 
L 156.810077 103.752135 
L 155.766255 104.463265 
L 155.750765 104.473818 
L 154.691454 105.201608 
L 153.857307 105.779592 
L 153.632143 105.935609 
L 152.572832 106.67593 
L 151.97705 107.095918 
L 151.51352 107.422678 
L 150.454209 108.175968 
L 150.124855 108.412245 
L 149.394898 108.935914 
L 148.335587 109.702635 
L 148.300072 109.728571 
L 147.276276 110.476253 
L 146.504638 111.044898 
L 146.216964 111.256894 
L 145.157653 112.044686 
L 144.735916 112.361224 
L 144.098342 112.839761 
L 143.039031 113.642255 
L 142.992874 113.677551 
L 141.979719 114.452308 
L 141.278177 114.993878 
L 140.920408 115.270064 
L 139.861097 116.09567 
L 139.588477 116.310204 
L 138.801786 116.929279 
L 137.92434 117.626531 
L 137.742474 117.771048 
L 136.683163 118.621137 
L 136.286225 118.942857 
L 135.623852 119.479713 
L 134.671743 120.259184 
L 134.564541 120.346948 
L 133.50523 121.223016 
L 133.083348 121.57551 
L 132.445918 122.108101 
L 131.517561 122.891837 
L 131.386607 123.00239 
L 130.327296 123.906076 
L 129.976907 124.208163 
L 129.267985 124.819359 
L 128.458794 125.52449 
L 128.208673 125.742445 
L 127.149362 126.675546 
L 126.963774 126.840816 
L 126.090051 127.618883 
L 125.492247 128.157143 
L 125.03074 128.572682 
L 124.0414 129.473469 
L 123.971429 129.537178 
L 122.912117 130.512614 
L 122.614515 130.789796 
L 121.852806 131.49924 
L 121.208691 132.106122 
L 120.793495 132.497317 
L 119.823 133.422449 
L 119.734184 133.507114 
L 118.674872 134.528908 
L 118.459884 134.738776 
L 117.615561 135.562989 
L 117.117502 136.055102 
L 116.55625 136.609655 
L 115.794656 137.371429 
L 115.496939 137.669216 
L 114.491187 138.687755 
L 114.437628 138.741995 
L 113.378316 139.828325 
L 113.209096 140.004082 
L 112.319005 140.928554 
L 111.94655 141.320408 
L 111.259694 142.04304 
L 110.702705 142.636735 
L 110.200383 143.172159 
L 109.477379 143.953061 
L 109.141071 144.3163 
L 108.270388 145.269388 
L 108.08176 145.475868 
L 107.081543 146.585714 
L 107.022449 146.651285 
L 105.963138 147.84299 
L 105.911375 147.902041 
L 104.903827 149.051441 
L 104.759557 149.218367 
L 103.844515 150.277115 
L 103.625071 150.534694 
L 102.785204 151.52051 
L 102.507697 151.85102 
L 101.725893 152.782146 
L 101.407211 153.167347 
L 100.666582 154.062567 
L 100.323381 154.483673 
L 99.60727 155.36234 
L 99.25597 155.8 
z
" style="fill:#deebf7;"/>
   </g>
   <g id="PathCollection_3">
    <path clip-path="url(#pbd8aee5d7d)" d="M 84.776913 155.8 
L 85.836224 155.8 
L 86.895536 155.8 
L 87.954847 155.8 
L 89.014158 155.8 
L 90.073469 155.8 
L 91.132781 155.8 
L 92.192092 155.8 
L 93.251403 155.8 
L 94.310714 155.8 
L 95.370026 155.8 
L 96.429337 155.8 
L 97.488648 155.8 
L 98.547959 155.8 
L 99.25597 155.8 
L 99.60727 155.36234 
L 100.323381 154.483673 
L 100.666582 154.062567 
L 101.407211 153.167347 
L 101.725893 152.782146 
L 102.507697 151.85102 
L 102.785204 151.52051 
L 103.625071 150.534694 
L 103.844515 150.277115 
L 104.759557 149.218367 
L 104.903827 149.051441 
L 105.911375 147.902041 
L 105.963138 147.84299 
L 107.022449 146.651285 
L 107.081543 146.585714 
L 108.08176 145.475868 
L 108.270388 145.269388 
L 109.141071 144.3163 
L 109.477379 143.953061 
L 110.200383 143.172159 
L 110.702705 142.636735 
L 111.259694 142.04304 
L 111.94655 141.320408 
L 112.319005 140.928554 
L 113.209096 140.004082 
L 113.378316 139.828325 
L 114.437628 138.741995 
L 114.491187 138.687755 
L 115.496939 137.669216 
L 115.794656 137.371429 
L 116.55625 136.609655 
L 117.117502 136.055102 
L 117.615561 135.562989 
L 118.459884 134.738776 
L 118.674872 134.528908 
L 119.734184 133.507114 
L 119.823 133.422449 
L 120.793495 132.497317 
L 121.208691 132.106122 
L 121.852806 131.49924 
L 122.614515 130.789796 
L 122.912117 130.512614 
L 123.971429 129.537178 
L 124.0414 129.473469 
L 125.03074 128.572682 
L 125.492247 128.157143 
L 126.090051 127.618883 
L 126.963774 126.840816 
L 127.149362 126.675546 
L 128.208673 125.742445 
L 128.458794 125.52449 
L 129.267985 124.819359 
L 129.976907 124.208163 
L 130.327296 123.906076 
L 131.386607 123.00239 
L 131.517561 122.891837 
L 132.445918 122.108101 
L 133.083348 121.57551 
L 133.50523 121.223016 
L 134.564541 120.346948 
L 134.671743 120.259184 
L 135.623852 119.479713 
L 136.286225 118.942857 
L 136.683163 118.621137 
L 137.742474 117.771048 
L 137.92434 117.626531 
L 138.801786 116.929279 
L 139.588477 116.310204 
L 139.861097 116.09567 
L 140.920408 115.270064 
L 141.278177 114.993878 
L 141.979719 114.452308 
L 142.992874 113.677551 
L 143.039031 113.642255 
L 144.098342 112.839761 
L 144.735916 112.361224 
L 145.157653 112.044686 
L 146.216964 111.256894 
L 146.504638 111.044898 
L 147.276276 110.476253 
L 148.300072 109.728571 
L 148.335587 109.702635 
L 149.394898 108.935914 
L 150.124855 108.412245 
L 150.454209 108.175968 
L 151.51352 107.422678 
L 151.97705 107.095918 
L 152.572832 106.67593 
L 153.632143 105.935609 
L 153.857307 105.779592 
L 154.691454 105.201608 
L 155.750765 104.473818 
L 155.766255 104.463265 
L 156.810077 103.752135 
L 157.70586 103.146939 
L 157.869388 103.036458 
L 158.928699 102.326688 
L 159.675188 101.830612 
L 159.98801 101.622728 
L 161.047321 100.924483 
L 161.674687 100.514286 
L 162.106633 100.231862 
L 163.165944 99.544775 
L 163.704915 99.197959 
L 164.225255 98.863133 
L 165.284566 98.186852 
L 165.766414 97.881633 
L 166.343878 97.515847 
L 167.403189 96.850037 
L 167.859706 96.565306 
L 168.4625 96.189342 
L 168.4625 95.24898 
L 168.4625 93.932653 
L 168.4625 92.616327 
L 168.4625 91.3 
L 168.4625 89.983673 
L 168.4625 88.667347 
L 168.4625 87.35102 
L 168.4625 86.034694 
L 168.4625 84.718367 
L 168.4625 83.402041 
L 168.4625 82.085714 
L 168.4625 80.769388 
L 168.4625 79.453061 
L 168.4625 78.136735 
L 168.4625 76.820408 
L 168.4625 75.504082 
L 168.4625 74.689342 
L 167.403189 75.350037 
L 167.158102 75.504082 
L 166.343878 76.015847 
L 165.284566 76.686852 
L 165.075366 76.820408 
L 164.225255 77.363133 
L 163.165944 78.044775 
L 163.024165 78.136735 
L 162.106633 78.731862 
L 161.047321 79.424483 
L 161.003966 79.453061 
L 159.98801 80.122728 
L 159.014924 80.769388 
L 158.928699 80.826688 
L 157.869388 81.536458 
L 157.056405 82.085714 
L 156.810077 82.252135 
L 155.750765 82.973818 
L 155.127479 83.402041 
L 154.691454 83.701608 
L 153.632143 84.435609 
L 153.227549 84.718367 
L 152.572832 85.17593 
L 151.51352 85.922678 
L 151.355999 86.034694 
L 150.454209 86.675968 
L 149.513233 87.35102 
L 149.394898 87.435914 
L 148.335587 88.202635 
L 147.699259 88.667347 
L 147.276276 88.976253 
L 146.216964 89.756894 
L 145.912023 89.983673 
L 145.157653 90.544686 
L 144.151317 91.3 
L 144.098342 91.339761 
L 143.039031 92.142255 
L 142.419085 92.616327 
L 141.979719 92.952308 
L 140.920408 93.770064 
L 140.711795 93.932653 
L 139.861097 94.59567 
L 139.030902 95.24898 
L 138.801786 95.429279 
L 137.742474 96.271048 
L 137.375794 96.565306 
L 136.683163 97.121137 
L 135.744864 97.881633 
L 135.623852 97.979713 
L 134.564541 98.846948 
L 134.14011 99.197959 
L 133.50523 99.723016 
L 132.558201 100.514286 
L 132.445918 100.608101 
L 131.386607 101.50239 
L 131.001861 101.830612 
L 130.327296 102.406076 
L 129.467974 103.146939 
L 129.267985 103.319359 
L 128.208673 104.242445 
L 127.957985 104.463265 
L 127.149362 105.175546 
L 126.471055 105.779592 
L 126.090051 106.118883 
L 125.03074 107.072682 
L 125.005219 107.095918 
L 123.971429 108.037178 
L 123.564111 108.412245 
L 122.912117 109.012614 
L 122.143415 109.728571 
L 121.852806 109.99924 
L 120.793495 110.997317 
L 120.743581 111.044898 
L 119.734184 112.007114 
L 119.367071 112.361224 
L 118.674872 113.028908 
L 118.010403 113.677551 
L 117.615561 114.062989 
L 116.673426 114.993878 
L 116.55625 115.109655 
L 115.496939 116.169216 
L 115.357721 116.310204 
L 114.437628 117.241995 
L 114.062656 117.626531 
L 113.378316 118.328325 
L 112.786639 118.942857 
L 112.319005 119.428554 
L 111.529497 120.259184 
L 111.259694 120.54304 
L 110.291056 121.57551 
L 110.200383 121.672159 
L 109.141071 122.8163 
L 109.072066 122.891837 
L 108.08176 123.975868 
L 107.872411 124.208163 
L 107.022449 125.151285 
L 106.690706 125.52449 
L 105.963138 126.34299 
L 105.52675 126.840816 
L 104.903827 127.551441 
L 104.380338 128.157143 
L 103.844515 128.777115 
L 103.251256 129.473469 
L 102.785204 130.02051 
L 102.139287 130.789796 
L 101.725893 131.282146 
L 101.044205 132.106122 
L 100.666582 132.562567 
L 99.96578 133.422449 
L 99.60727 133.86234 
L 98.903774 134.738776 
L 98.547959 135.182059 
L 97.85794 136.055102 
L 97.488648 136.522346 
L 96.828024 137.371429 
L 96.429337 137.883852 
L 95.813767 138.687755 
L 95.370026 139.26726 
L 94.814898 140.004082 
L 94.310714 140.673286 
L 93.831138 141.320408 
L 93.251403 142.102681 
L 92.8622 142.636735 
L 92.192092 143.556237 
L 91.907785 143.953061 
L 91.132781 145.034784 
L 90.967587 145.269388 
L 90.073469 146.539195 
L 90.041287 146.585714 
L 89.130627 147.902041 
L 89.014158 148.070393 
L 88.234109 149.218367 
L 87.954847 149.629348 
L 87.350816 150.534694 
L 86.895536 151.217085 
L 86.480394 151.85102 
L 85.836224 152.834688 
L 85.622475 153.167347 
L 84.776913 154.483301 
L 84.776678 154.483673 
L 83.947091 155.8 
z
" style="fill:#cee0f2;"/>
   </g>
   <g id="PathCollection_4">
    <path clip-path="url(#pbd8aee5d7d)" d="M 72.065179 155.8 
L 73.12449 155.8 
L 74.183801 155.8 
L 75.243112 155.8 
L 76.302423 155.8 
L 77.361735 155.8 
L 78.421046 155.8 
L 79.480357 155.8 
L 80.539668 155.8 
L 81.59898 155.8 
L 82.658291 155.8 
L 83.717602 155.8 
L 83.947091 155.8 
L 84.776678 154.483673 
L 84.776913 154.483301 
L 85.622475 153.167347 
L 85.836224 152.834688 
L 86.480394 151.85102 
L 86.895536 151.217085 
L 87.350816 150.534694 
L 87.954847 149.629348 
L 88.234109 149.218367 
L 89.014158 148.070393 
L 89.130627 147.902041 
L 90.041287 146.585714 
L 90.073469 146.539195 
L 90.967587 145.269388 
L 91.132781 145.034784 
L 91.907785 143.953061 
L 92.192092 143.556237 
L 92.8622 142.636735 
L 93.251403 142.102681 
L 93.831138 141.320408 
L 94.310714 140.673286 
L 94.814898 140.004082 
L 95.370026 139.26726 
L 95.813767 138.687755 
L 96.429337 137.883852 
L 96.828024 137.371429 
L 97.488648 136.522346 
L 97.85794 136.055102 
L 98.547959 135.182059 
L 98.903774 134.738776 
L 99.60727 133.86234 
L 99.96578 133.422449 
L 100.666582 132.562567 
L 101.044205 132.106122 
L 101.725893 131.282146 
L 102.139287 130.789796 
L 102.785204 130.02051 
L 103.251256 129.473469 
L 103.844515 128.777115 
L 104.380338 128.157143 
L 104.903827 127.551441 
L 105.52675 126.840816 
L 105.963138 126.34299 
L 106.690706 125.52449 
L 107.022449 125.151285 
L 107.872411 124.208163 
L 108.08176 123.975868 
L 109.072066 122.891837 
L 109.141071 122.8163 
L 110.200383 121.672159 
L 110.291056 121.57551 
L 111.259694 120.54304 
L 111.529497 120.259184 
L 112.319005 119.428554 
L 112.786639 118.942857 
L 113.378316 118.328325 
L 114.062656 117.626531 
L 114.437628 117.241995 
L 115.357721 116.310204 
L 115.496939 116.169216 
L 116.55625 115.109655 
L 116.673426 114.993878 
L 117.615561 114.062989 
L 118.010403 113.677551 
L 118.674872 113.028908 
L 119.367071 112.361224 
L 119.734184 112.007114 
L 120.743581 111.044898 
L 120.793495 110.997317 
L 121.852806 109.99924 
L 122.143415 109.728571 
L 122.912117 109.012614 
L 123.564111 108.412245 
L 123.971429 108.037178 
L 125.005219 107.095918 
L 125.03074 107.072682 
L 126.090051 106.118883 
L 126.471055 105.779592 
L 127.149362 105.175546 
L 127.957985 104.463265 
L 128.208673 104.242445 
L 129.267985 103.319359 
L 129.467974 103.146939 
L 130.327296 102.406076 
L 131.001861 101.830612 
L 131.386607 101.50239 
L 132.445918 100.608101 
L 132.558201 100.514286 
L 133.50523 99.723016 
L 134.14011 99.197959 
L 134.564541 98.846948 
L 135.623852 97.979713 
L 135.744864 97.881633 
L 136.683163 97.121137 
L 137.375794 96.565306 
L 137.742474 96.271048 
L 138.801786 95.429279 
L 139.030902 95.24898 
L 139.861097 94.59567 
L 140.711795 93.932653 
L 140.920408 93.770064 
L 141.979719 92.952308 
L 142.419085 92.616327 
L 143.039031 92.142255 
L 144.098342 91.339761 
L 144.151317 91.3 
L 145.157653 90.544686 
L 145.912023 89.983673 
L 146.216964 89.756894 
L 147.276276 88.976253 
L 147.699259 88.667347 
L 148.335587 88.202635 
L 149.394898 87.435914 
L 149.513233 87.35102 
L 150.454209 86.675968 
L 151.355999 86.034694 
L 151.51352 85.922678 
L 152.572832 85.17593 
L 153.227549 84.718367 
L 153.632143 84.435609 
L 154.691454 83.701608 
L 155.127479 83.402041 
L 155.750765 82.973818 
L 156.810077 82.252135 
L 157.056405 82.085714 
L 157.869388 81.536458 
L 158.928699 80.826688 
L 159.014924 80.769388 
L 159.98801 80.122728 
L 161.003966 79.453061 
L 161.047321 79.424483 
L 162.106633 78.731862 
L 163.024165 78.136735 
L 163.165944 78.044775 
L 164.225255 77.363133 
L 165.075366 76.820408 
L 165.284566 76.686852 
L 166.343878 76.015847 
L 167.158102 75.504082 
L 167.403189 75.350037 
L 168.4625 74.689342 
L 168.4625 74.187755 
L 168.4625 72.871429 
L 168.4625 71.555102 
L 168.4625 70.238776 
L 168.4625 68.922449 
L 168.4625 67.606122 
L 168.4625 66.289796 
L 168.4625 64.973469 
L 168.4625 63.657143 
L 168.4625 62.340816 
L 168.4625 61.02449 
L 168.4625 59.708163 
L 168.4625 58.391837 
L 168.4625 57.07551 
L 168.4625 55.759184 
L 168.4625 54.442857 
L 168.4625 53.189342 
L 167.403189 53.850037 
L 166.460005 54.442857 
L 166.343878 54.515847 
L 165.284566 55.186852 
L 164.388079 55.759184 
L 164.225255 55.863133 
L 163.165944 56.544775 
L 162.347687 57.07551 
L 162.106633 57.231862 
L 161.047321 57.924483 
L 160.338297 58.391837 
L 159.98801 58.622728 
L 158.928699 59.326688 
L 158.359359 59.708163 
L 157.869388 60.036458 
L 156.810077 60.752135 
L 156.410305 61.02449 
L 155.750765 61.473818 
L 154.691454 62.201608 
L 154.490548 62.340816 
L 153.632143 62.935609 
L 152.599713 63.657143 
L 152.572832 63.67593 
L 151.51352 64.422678 
L 150.738972 64.973469 
L 150.454209 65.175968 
L 149.394898 65.935914 
L 148.90597 66.289796 
L 148.335587 66.702635 
L 147.276276 67.476253 
L 147.100046 67.606122 
L 146.216964 68.256894 
L 145.32202 68.922449 
L 145.157653 69.044686 
L 144.098342 69.839761 
L 143.571633 70.238776 
L 143.039031 70.642255 
L 141.979719 71.452308 
L 141.846561 71.555102 
L 140.920408 72.270064 
L 140.148815 72.871429 
L 139.861097 73.09567 
L 138.801786 73.929279 
L 138.476511 74.187755 
L 137.742474 74.771048 
L 136.829028 75.504082 
L 136.683163 75.621137 
L 135.623852 76.479713 
L 135.207699 76.820408 
L 134.564541 77.346948 
L 133.609558 78.136735 
L 133.50523 78.223016 
L 132.445918 79.108101 
L 132.037303 79.453061 
L 131.386607 80.00239 
L 130.487524 80.769388 
L 130.327296 80.906076 
L 129.267985 81.819359 
L 128.962322 82.085714 
L 128.208673 82.742445 
L 127.459862 83.402041 
L 127.149362 83.675546 
L 126.090051 84.618883 
L 125.979561 84.718367 
L 125.03074 85.572682 
L 124.52331 86.034694 
L 123.971429 86.537178 
L 123.087606 87.35102 
L 122.912117 87.512614 
L 121.852806 88.49924 
L 121.674386 88.667347 
L 120.793495 89.497317 
L 120.283291 89.983673 
L 119.734184 90.507114 
L 118.912185 91.3 
L 118.674872 91.528908 
L 117.615561 92.562989 
L 117.561579 92.616327 
L 116.55625 93.609655 
L 116.233328 93.932653 
L 115.496939 94.669216 
L 114.924454 95.24898 
L 114.437628 95.741995 
L 113.634794 96.565306 
L 113.378316 96.828325 
L 112.364181 97.881633 
L 112.319005 97.928554 
L 111.259694 99.04304 
L 111.114353 99.197959 
L 110.200383 100.172159 
L 109.883622 100.514286 
L 109.141071 101.3163 
L 108.671227 101.830612 
L 108.08176 102.475868 
L 107.476977 103.146939 
L 107.022449 103.651285 
L 106.300677 104.463265 
L 105.963138 104.84299 
L 105.142126 105.779592 
L 104.903827 106.051441 
L 104.001118 107.095918 
L 103.844515 107.277115 
L 102.877441 108.412245 
L 102.785204 108.52051 
L 101.770876 109.728571 
L 101.725893 109.782146 
L 100.6812 111.044898 
L 100.666582 111.062567 
L 99.60818 112.361224 
L 99.60727 112.36234 
L 98.551578 113.677551 
L 98.547959 113.682059 
L 97.511148 114.993878 
L 97.488648 115.022346 
L 96.486638 116.310204 
L 96.429337 116.383852 
L 95.477785 117.626531 
L 95.370026 117.76726 
L 94.484321 118.942857 
L 94.310714 119.173286 
L 93.505966 120.259184 
L 93.251403 120.602681 
L 92.542432 121.57551 
L 92.192092 122.056237 
L 91.593423 122.891837 
L 91.132781 123.534784 
L 90.658629 124.208163 
L 90.073469 125.039195 
L 89.737733 125.52449 
L 89.014158 126.570393 
L 88.830405 126.840816 
L 87.954847 128.129348 
L 87.936303 128.157143 
L 87.058072 129.473469 
L 86.895536 129.717085 
L 86.193055 130.789796 
L 85.836224 131.334688 
L 85.340541 132.106122 
L 84.776913 132.983301 
L 84.500149 133.422449 
L 83.717602 134.664136 
L 83.671481 134.738776 
L 82.858109 136.055102 
L 82.658291 136.378478 
L 82.056967 137.371429 
L 81.59898 138.127691 
L 81.266708 138.687755 
L 80.539668 139.913222 
L 80.486883 140.004082 
L 79.722154 141.320408 
L 79.480357 141.736612 
L 78.968512 142.636735 
L 78.421046 143.599501 
L 78.224353 143.953061 
L 77.492053 145.269388 
L 77.361735 145.503638 
L 76.773082 146.585714 
L 76.302423 147.450891 
L 76.062554 147.902041 
L 75.362683 149.218367 
L 75.243112 149.443258 
L 74.676257 150.534694 
L 74.183801 151.482879 
L 73.997136 151.85102 
L 73.329694 153.167347 
L 73.12449 153.572051 
L 72.673482 154.483673 
L 72.065179 155.71324 
L 72.023325 155.8 
z
" style="fill:#b9d6ea;"/>
   </g>
   <g id="PathCollection_5">
    <path clip-path="url(#pbd8aee5d7d)" d="M 65.709311 155.8 
L 66.768622 155.8 
L 67.827934 155.8 
L 68.887245 155.8 
L 69.946556 155.8 
L 71.005867 155.8 
L 72.023325 155.8 
L 72.065179 155.71324 
L 72.673482 154.483673 
L 73.12449 153.572051 
L 73.329694 153.167347 
L 73.997136 151.85102 
L 74.183801 151.482879 
L 74.676257 150.534694 
L 75.243112 149.443258 
L 75.362683 149.218367 
L 76.062554 147.902041 
L 76.302423 147.450891 
L 76.773082 146.585714 
L 77.361735 145.503638 
L 77.492053 145.269388 
L 78.224353 143.953061 
L 78.421046 143.599501 
L 78.968512 142.636735 
L 79.480357 141.736612 
L 79.722154 141.320408 
L 80.486883 140.004082 
L 80.539668 139.913222 
L 81.266708 138.687755 
L 81.59898 138.127691 
L 82.056967 137.371429 
L 82.658291 136.378478 
L 82.858109 136.055102 
L 83.671481 134.738776 
L 83.717602 134.664136 
L 84.500149 133.422449 
L 84.776913 132.983301 
L 85.340541 132.106122 
L 85.836224 131.334688 
L 86.193055 130.789796 
L 86.895536 129.717085 
L 87.058072 129.473469 
L 87.936303 128.157143 
L 87.954847 128.129348 
L 88.830405 126.840816 
L 89.014158 126.570393 
L 89.737733 125.52449 
L 90.073469 125.039195 
L 90.658629 124.208163 
L 91.132781 123.534784 
L 91.593423 122.891837 
L 92.192092 122.056237 
L 92.542432 121.57551 
L 93.251403 120.602681 
L 93.505966 120.259184 
L 94.310714 119.173286 
L 94.484321 118.942857 
L 95.370026 117.76726 
L 95.477785 117.626531 
L 96.429337 116.383852 
L 96.486638 116.310204 
L 97.488648 115.022346 
L 97.511148 114.993878 
L 98.547959 113.682059 
L 98.551578 113.677551 
L 99.60727 112.36234 
L 99.60818 112.361224 
L 100.666582 111.062567 
L 100.6812 111.044898 
L 101.725893 109.782146 
L 101.770876 109.728571 
L 102.785204 108.52051 
L 102.877441 108.412245 
L 103.844515 107.277115 
L 104.001118 107.095918 
L 104.903827 106.051441 
L 105.142126 105.779592 
L 105.963138 104.84299 
L 106.300677 104.463265 
L 107.022449 103.651285 
L 107.476977 103.146939 
L 108.08176 102.475868 
L 108.671227 101.830612 
L 109.141071 101.3163 
L 109.883622 100.514286 
L 110.200383 100.172159 
L 111.114353 99.197959 
L 111.259694 99.04304 
L 112.319005 97.928554 
L 112.364181 97.881633 
L 113.378316 96.828325 
L 113.634794 96.565306 
L 114.437628 95.741995 
L 114.924454 95.24898 
L 115.496939 94.669216 
L 116.233328 93.932653 
L 116.55625 93.609655 
L 117.561579 92.616327 
L 117.615561 92.562989 
L 118.674872 91.528908 
L 118.912185 91.3 
L 119.734184 90.507114 
L 120.283291 89.983673 
L 120.793495 89.497317 
L 121.674386 88.667347 
L 121.852806 88.49924 
L 122.912117 87.512614 
L 123.087606 87.35102 
L 123.971429 86.537178 
L 124.52331 86.034694 
L 125.03074 85.572682 
L 125.979561 84.718367 
L 126.090051 84.618883 
L 127.149362 83.675546 
L 127.459862 83.402041 
L 128.208673 82.742445 
L 128.962322 82.085714 
L 129.267985 81.819359 
L 130.327296 80.906076 
L 130.487524 80.769388 
L 131.386607 80.00239 
L 132.037303 79.453061 
L 132.445918 79.108101 
L 133.50523 78.223016 
L 133.609558 78.136735 
L 134.564541 77.346948 
L 135.207699 76.820408 
L 135.623852 76.479713 
L 136.683163 75.621137 
L 136.829028 75.504082 
L 137.742474 74.771048 
L 138.476511 74.187755 
L 138.801786 73.929279 
L 139.861097 73.09567 
L 140.148815 72.871429 
L 140.920408 72.270064 
L 141.846561 71.555102 
L 141.979719 71.452308 
L 143.039031 70.642255 
L 143.571633 70.238776 
L 144.098342 69.839761 
L 145.157653 69.044686 
L 145.32202 68.922449 
L 146.216964 68.256894 
L 147.100046 67.606122 
L 147.276276 67.476253 
L 148.335587 66.702635 
L 148.90597 66.289796 
L 149.394898 65.935914 
L 150.454209 65.175968 
L 150.738972 64.973469 
L 151.51352 64.422678 
L 152.572832 63.67593 
L 152.599713 63.657143 
L 153.632143 62.935609 
L 154.490548 62.340816 
L 154.691454 62.201608 
L 155.750765 61.473818 
L 156.410305 61.02449 
L 156.810077 60.752135 
L 157.869388 60.036458 
L 158.359359 59.708163 
L 158.928699 59.326688 
L 159.98801 58.622728 
L 160.338297 58.391837 
L 161.047321 57.924483 
L 162.106633 57.231862 
L 162.347687 57.07551 
L 163.165944 56.544775 
L 164.225255 55.863133 
L 164.388079 55.759184 
L 165.284566 55.186852 
L 166.343878 54.515847 
L 166.460005 54.442857 
L 167.403189 53.850037 
L 168.4625 53.189342 
L 168.4625 53.126531 
L 168.4625 51.810204 
L 168.4625 50.493878 
L 168.4625 49.177551 
L 168.4625 47.861224 
L 168.4625 46.544898 
L 168.4625 45.228571 
L 168.4625 43.912245 
L 168.4625 42.595918 
L 168.4625 41.279592 
L 168.4625 39.963265 
L 168.4625 38.646939 
L 168.4625 37.330612 
L 168.4625 36.014286 
L 168.4625 34.697959 
L 168.4625 33.381633 
L 168.4625 32.065306 
L 168.4625 31.689342 
L 167.859706 32.065306 
L 167.403189 32.350037 
L 166.343878 33.015847 
L 165.766414 33.381633 
L 165.284566 33.686852 
L 164.225255 34.363133 
L 163.704915 34.697959 
L 163.165944 35.044775 
L 162.106633 35.731862 
L 161.674687 36.014286 
L 161.047321 36.424483 
L 159.98801 37.122728 
L 159.675188 37.330612 
L 158.928699 37.826688 
L 157.869388 38.536458 
L 157.70586 38.646939 
L 156.810077 39.252135 
L 155.766255 39.963265 
L 155.750765 39.973818 
L 154.691454 40.701608 
L 153.857307 41.279592 
L 153.632143 41.435609 
L 152.572832 42.17593 
L 151.97705 42.595918 
L 151.51352 42.922678 
L 150.454209 43.675968 
L 150.124855 43.912245 
L 149.394898 44.435914 
L 148.335587 45.202635 
L 148.300072 45.228571 
L 147.276276 45.976253 
L 146.504638 46.544898 
L 146.216964 46.756894 
L 145.157653 47.544686 
L 144.735916 47.861224 
L 144.098342 48.339761 
L 143.039031 49.142255 
L 142.992874 49.177551 
L 141.979719 49.952308 
L 141.278177 50.493878 
L 140.920408 50.770064 
L 139.861097 51.59567 
L 139.588477 51.810204 
L 138.801786 52.429279 
L 137.92434 53.126531 
L 137.742474 53.271048 
L 136.683163 54.121137 
L 136.286225 54.442857 
L 135.623852 54.979713 
L 134.671743 55.759184 
L 134.564541 55.846948 
L 133.50523 56.723016 
L 133.083348 57.07551 
L 132.445918 57.608101 
L 131.517561 58.391837 
L 131.386607 58.50239 
L 130.327296 59.406076 
L 129.976907 59.708163 
L 129.267985 60.319359 
L 128.458794 61.02449 
L 128.208673 61.242445 
L 127.149362 62.175546 
L 126.963774 62.340816 
L 126.090051 63.118883 
L 125.492247 63.657143 
L 125.03074 64.072682 
L 124.0414 64.973469 
L 123.971429 65.037178 
L 122.912117 66.012614 
L 122.614515 66.289796 
L 121.852806 66.99924 
L 121.208691 67.606122 
L 120.793495 67.997317 
L 119.823 68.922449 
L 119.734184 69.007114 
L 118.674872 70.028908 
L 118.459884 70.238776 
L 117.615561 71.062989 
L 117.117502 71.555102 
L 116.55625 72.109655 
L 115.794656 72.871429 
L 115.496939 73.169216 
L 114.491187 74.187755 
L 114.437628 74.241995 
L 113.378316 75.328325 
L 113.209096 75.504082 
L 112.319005 76.428554 
L 111.94655 76.820408 
L 111.259694 77.54304 
L 110.702705 78.136735 
L 110.200383 78.672159 
L 109.477379 79.453061 
L 109.141071 79.8163 
L 108.270388 80.769388 
L 108.08176 80.975868 
L 107.081543 82.085714 
L 107.022449 82.151285 
L 105.963138 83.34299 
L 105.911375 83.402041 
L 104.903827 84.551441 
L 104.759557 84.718367 
L 103.844515 85.777115 
L 103.625071 86.034694 
L 102.785204 87.02051 
L 102.507697 87.35102 
L 101.725893 88.282146 
L 101.407211 88.667347 
L 100.666582 89.562567 
L 100.323381 89.983673 
L 99.60727 90.86234 
L 99.25597 91.3 
L 98.547959 92.182059 
L 98.204731 92.616327 
L 97.488648 93.522346 
L 97.169411 93.932653 
L 96.429337 94.883852 
L 96.149749 95.24898 
L 95.370026 96.26726 
L 95.145475 96.565306 
L 94.310714 97.673286 
L 94.15631 97.881633 
L 93.251403 99.102681 
L 93.181967 99.197959 
L 92.222665 100.514286 
L 92.192092 100.556237 
L 91.27906 101.830612 
L 91.132781 102.034784 
L 90.349671 103.146939 
L 90.073469 103.539195 
L 89.43418 104.463265 
L 89.014158 105.070393 
L 88.532257 105.779592 
L 87.954847 106.629348 
L 87.643559 107.095918 
L 86.895536 108.217085 
L 86.767733 108.412245 
L 85.905716 109.728571 
L 85.836224 109.834688 
L 85.058608 111.044898 
L 84.776913 111.483301 
L 84.22362 112.361224 
L 83.717602 113.164136 
L 83.400357 113.677551 
L 82.658291 114.878478 
L 82.588406 114.993878 
L 81.791248 116.310204 
L 81.59898 116.627691 
L 81.006393 117.626531 
L 80.539668 118.413222 
L 80.231973 118.942857 
L 79.480357 120.236612 
L 79.467522 120.259184 
L 78.719008 121.57551 
L 78.421046 122.099501 
L 77.980253 122.891837 
L 77.361735 124.003638 
L 77.250472 124.208163 
L 76.534387 125.52449 
L 76.302423 125.950891 
L 75.829264 126.840816 
L 75.243112 127.943258 
L 75.132028 128.157143 
L 74.448372 129.473469 
L 74.183801 129.982879 
L 73.774655 130.789796 
L 73.12449 132.072051 
L 73.107634 132.106122 
L 72.456407 133.422449 
L 72.065179 134.21324 
L 71.811654 134.738776 
L 71.176642 136.055102 
L 71.005867 136.409104 
L 70.553485 137.371429 
L 69.946556 138.662508 
L 69.934999 138.687755 
L 69.332417 140.004082 
L 68.887245 140.976549 
L 68.73407 141.320408 
L 68.147703 142.636735 
L 67.827934 143.354581 
L 67.568709 143.953061 
L 66.998557 145.269388 
L 66.768622 145.800243 
L 66.43808 146.585714 
L 65.884143 147.902041 
L 65.709311 148.317496 
L 65.341304 149.218367 
L 64.803582 150.534694 
L 64.65 150.910658 
L 64.65 151.85102 
L 64.65 153.167347 
L 64.65 154.483673 
L 64.65 155.8 
z
" style="fill:#9dcae1;"/>
   </g>
   <g id="PathCollection_6">
    <path clip-path="url(#pbd8aee5d7d)" d="M 64.803582 150.534694 
L 65.341304 149.218367 
L 65.709311 148.317496 
L 65.884143 147.902041 
L 66.43808 146.585714 
L 66.768622 145.800243 
L 66.998557 145.269388 
L 67.568709 143.953061 
L 67.827934 143.354581 
L 68.147703 142.636735 
L 68.73407 141.320408 
L 68.887245 140.976549 
L 69.332417 140.004082 
L 69.934999 138.687755 
L 69.946556 138.662508 
L 70.553485 137.371429 
L 71.005867 136.409104 
L 71.176642 136.055102 
L 71.811654 134.738776 
L 72.065179 134.21324 
L 72.456407 133.422449 
L 73.107634 132.106122 
L 73.12449 132.072051 
L 73.774655 130.789796 
L 74.183801 129.982879 
L 74.448372 129.473469 
L 75.132028 128.157143 
L 75.243112 127.943258 
L 75.829264 126.840816 
L 76.302423 125.950891 
L 76.534387 125.52449 
L 77.250472 124.208163 
L 77.361735 124.003638 
L 77.980253 122.891837 
L 78.421046 122.099501 
L 78.719008 121.57551 
L 79.467522 120.259184 
L 79.480357 120.236612 
L 80.231973 118.942857 
L 80.539668 118.413222 
L 81.006393 117.626531 
L 81.59898 116.627691 
L 81.791248 116.310204 
L 82.588406 114.993878 
L 82.658291 114.878478 
L 83.400357 113.677551 
L 83.717602 113.164136 
L 84.22362 112.361224 
L 84.776913 111.483301 
L 85.058608 111.044898 
L 85.836224 109.834688 
L 85.905716 109.728571 
L 86.767733 108.412245 
L 86.895536 108.217085 
L 87.643559 107.095918 
L 87.954847 106.629348 
L 88.532257 105.779592 
L 89.014158 105.070393 
L 89.43418 104.463265 
L 90.073469 103.539195 
L 90.349671 103.146939 
L 91.132781 102.034784 
L 91.27906 101.830612 
L 92.192092 100.556237 
L 92.222665 100.514286 
L 93.181967 99.197959 
L 93.251403 99.102681 
L 94.15631 97.881633 
L 94.310714 97.673286 
L 95.145475 96.565306 
L 95.370026 96.26726 
L 96.149749 95.24898 
L 96.429337 94.883852 
L 97.169411 93.932653 
L 97.488648 93.522346 
L 98.204731 92.616327 
L 98.547959 92.182059 
L 99.25597 91.3 
L 99.60727 90.86234 
L 100.323381 89.983673 
L 100.666582 89.562567 
L 101.407211 88.667347 
L 101.725893 88.282146 
L 102.507697 87.35102 
L 102.785204 87.02051 
L 103.625071 86.034694 
L 103.844515 85.777115 
L 104.759557 84.718367 
L 104.903827 84.551441 
L 105.911375 83.402041 
L 105.963138 83.34299 
L 107.022449 82.151285 
L 107.081543 82.085714 
L 108.08176 80.975868 
L 108.270388 80.769388 
L 109.141071 79.8163 
L 109.477379 79.453061 
L 110.200383 78.672159 
L 110.702705 78.136735 
L 111.259694 77.54304 
L 111.94655 76.820408 
L 112.319005 76.428554 
L 113.209096 75.504082 
L 113.378316 75.328325 
L 114.437628 74.241995 
L 114.491187 74.187755 
L 115.496939 73.169216 
L 115.794656 72.871429 
L 116.55625 72.109655 
L 117.117502 71.555102 
L 117.615561 71.062989 
L 118.459884 70.238776 
L 118.674872 70.028908 
L 119.734184 69.007114 
L 119.823 68.922449 
L 120.793495 67.997317 
L 121.208691 67.606122 
L 121.852806 66.99924 
L 122.614515 66.289796 
L 122.912117 66.012614 
L 123.971429 65.037178 
L 124.0414 64.973469 
L 125.03074 64.072682 
L 125.492247 63.657143 
L 126.090051 63.118883 
L 126.963774 62.340816 
L 127.149362 62.175546 
L 128.208673 61.242445 
L 128.458794 61.02449 
L 129.267985 60.319359 
L 129.976907 59.708163 
L 130.327296 59.406076 
L 131.386607 58.50239 
L 131.517561 58.391837 
L 132.445918 57.608101 
L 133.083348 57.07551 
L 133.50523 56.723016 
L 134.564541 55.846948 
L 134.671743 55.759184 
L 135.623852 54.979713 
L 136.286225 54.442857 
L 136.683163 54.121137 
L 137.742474 53.271048 
L 137.92434 53.126531 
L 138.801786 52.429279 
L 139.588477 51.810204 
L 139.861097 51.59567 
L 140.920408 50.770064 
L 141.278177 50.493878 
L 141.979719 49.952308 
L 142.992874 49.177551 
L 143.039031 49.142255 
L 144.098342 48.339761 
L 144.735916 47.861224 
L 145.157653 47.544686 
L 146.216964 46.756894 
L 146.504638 46.544898 
L 147.276276 45.976253 
L 148.300072 45.228571 
L 148.335587 45.202635 
L 149.394898 44.435914 
L 150.124855 43.912245 
L 150.454209 43.675968 
L 151.51352 42.922678 
L 151.97705 42.595918 
L 152.572832 42.17593 
L 153.632143 41.435609 
L 153.857307 41.279592 
L 154.691454 40.701608 
L 155.750765 39.973818 
L 155.766255 39.963265 
L 156.810077 39.252135 
L 157.70586 38.646939 
L 157.869388 38.536458 
L 158.928699 37.826688 
L 159.675188 37.330612 
L 159.98801 37.122728 
L 161.047321 36.424483 
L 161.674687 36.014286 
L 162.106633 35.731862 
L 163.165944 35.044775 
L 163.704915 34.697959 
L 164.225255 34.363133 
L 165.284566 33.686852 
L 165.766414 33.381633 
L 166.343878 33.015847 
L 167.403189 32.350037 
L 167.859706 32.065306 
L 168.4625 31.689342 
L 168.4625 30.74898 
L 168.4625 29.432653 
L 168.4625 28.116327 
L 168.4625 26.8 
L 167.403189 26.8 
L 166.343878 26.8 
L 165.284566 26.8 
L 164.225255 26.8 
L 163.165944 26.8 
L 162.106633 26.8 
L 161.047321 26.8 
L 159.98801 26.8 
L 158.928699 26.8 
L 157.869388 26.8 
L 156.810077 26.8 
L 155.750765 26.8 
L 154.691454 26.8 
L 153.632143 26.8 
L 152.572832 26.8 
L 151.51352 26.8 
L 150.454209 26.8 
L 149.394898 26.8 
L 148.335587 26.8 
L 147.276276 26.8 
L 146.216964 26.8 
L 145.157653 26.8 
L 144.151317 26.8 
L 144.098342 26.839761 
L 143.039031 27.642255 
L 142.419085 28.116327 
L 141.979719 28.452308 
L 140.920408 29.270064 
L 140.711795 29.432653 
L 139.861097 30.09567 
L 139.030902 30.74898 
L 138.801786 30.929279 
L 137.742474 31.771048 
L 137.375794 32.065306 
L 136.683163 32.621137 
L 135.744864 33.381633 
L 135.623852 33.479713 
L 134.564541 34.346948 
L 134.14011 34.697959 
L 133.50523 35.223016 
L 132.558201 36.014286 
L 132.445918 36.108101 
L 131.386607 37.00239 
L 131.001861 37.330612 
L 130.327296 37.906076 
L 129.467974 38.646939 
L 129.267985 38.819359 
L 128.208673 39.742445 
L 127.957985 39.963265 
L 127.149362 40.675546 
L 126.471055 41.279592 
L 126.090051 41.618883 
L 125.03074 42.572682 
L 125.005219 42.595918 
L 123.971429 43.537178 
L 123.564111 43.912245 
L 122.912117 44.512614 
L 122.143415 45.228571 
L 121.852806 45.49924 
L 120.793495 46.497317 
L 120.743581 46.544898 
L 119.734184 47.507114 
L 119.367071 47.861224 
L 118.674872 48.528908 
L 118.010403 49.177551 
L 117.615561 49.562989 
L 116.673426 50.493878 
L 116.55625 50.609655 
L 115.496939 51.669216 
L 115.357721 51.810204 
L 114.437628 52.741995 
L 114.062656 53.126531 
L 113.378316 53.828325 
L 112.786639 54.442857 
L 112.319005 54.928554 
L 111.529497 55.759184 
L 111.259694 56.04304 
L 110.291056 57.07551 
L 110.200383 57.172159 
L 109.141071 58.3163 
L 109.072066 58.391837 
L 108.08176 59.475868 
L 107.872411 59.708163 
L 107.022449 60.651285 
L 106.690706 61.02449 
L 105.963138 61.84299 
L 105.52675 62.340816 
L 104.903827 63.051441 
L 104.380338 63.657143 
L 103.844515 64.277115 
L 103.251256 64.973469 
L 102.785204 65.52051 
L 102.139287 66.289796 
L 101.725893 66.782146 
L 101.044205 67.606122 
L 100.666582 68.062567 
L 99.96578 68.922449 
L 99.60727 69.36234 
L 98.903774 70.238776 
L 98.547959 70.682059 
L 97.85794 71.555102 
L 97.488648 72.022346 
L 96.828024 72.871429 
L 96.429337 73.383852 
L 95.813767 74.187755 
L 95.370026 74.76726 
L 94.814898 75.504082 
L 94.310714 76.173286 
L 93.831138 76.820408 
L 93.251403 77.602681 
L 92.8622 78.136735 
L 92.192092 79.056237 
L 91.907785 79.453061 
L 91.132781 80.534784 
L 90.967587 80.769388 
L 90.073469 82.039195 
L 90.041287 82.085714 
L 89.130627 83.402041 
L 89.014158 83.570393 
L 88.234109 84.718367 
L 87.954847 85.129348 
L 87.350816 86.034694 
L 86.895536 86.717085 
L 86.480394 87.35102 
L 85.836224 88.334688 
L 85.622475 88.667347 
L 84.776913 89.983301 
L 84.776678 89.983673 
L 83.947091 91.3 
L 83.717602 91.664136 
L 83.129233 92.616327 
L 82.658291 93.378478 
L 82.322686 93.932653 
L 81.59898 95.127691 
L 81.527022 95.24898 
L 80.746078 96.565306 
L 80.539668 96.913222 
L 79.977064 97.881633 
L 79.480357 98.736612 
L 79.218017 99.197959 
L 78.469503 100.514286 
L 78.421046 100.599501 
L 77.736153 101.830612 
L 77.361735 102.503638 
L 77.011777 103.146939 
L 76.302423 104.450891 
L 76.295844 104.463265 
L 75.595973 105.779592 
L 75.243112 106.443258 
L 74.904142 107.095918 
L 74.220486 108.412245 
L 74.183801 108.482879 
L 73.552175 109.728571 
L 73.12449 110.572051 
L 72.890558 111.044898 
L 72.239331 112.361224 
L 72.065179 112.71324 
L 71.599983 113.677551 
L 71.005867 114.909104 
L 70.966016 114.993878 
L 70.347219 116.310204 
L 69.946556 117.162508 
L 69.734138 117.626531 
L 69.131556 118.942857 
L 68.887245 119.476549 
L 68.538615 120.259184 
L 67.952248 121.57551 
L 67.827934 121.854581 
L 67.378658 122.891837 
L 66.808506 124.208163 
L 66.768622 124.300243 
L 66.253435 125.52449 
L 65.709311 126.817496 
L 65.699785 126.840816 
L 65.162063 128.157143 
L 64.65 129.410658 
L 64.65 129.473469 
L 64.65 130.789796 
L 64.65 132.106122 
L 64.65 133.422449 
L 64.65 134.738776 
L 64.65 136.055102 
L 64.65 137.371429 
L 64.65 138.687755 
L 64.65 140.004082 
L 64.65 141.320408 
L 64.65 142.636735 
L 64.65 143.953061 
L 64.65 145.269388 
L 64.65 146.585714 
L 64.65 147.902041 
L 64.65 149.218367 
L 64.65 150.534694 
L 64.65 150.910658 
z
" style="fill:#7cb7da;"/>
   </g>
   <g id="PathCollection_7">
    <path clip-path="url(#pbd8aee5d7d)" d="M 65.162063 128.157143 
L 65.699785 126.840816 
L 65.709311 126.817496 
L 66.253435 125.52449 
L 66.768622 124.300243 
L 66.808506 124.208163 
L 67.378658 122.891837 
L 67.827934 121.854581 
L 67.952248 121.57551 
L 68.538615 120.259184 
L 68.887245 119.476549 
L 69.131556 118.942857 
L 69.734138 117.626531 
L 69.946556 117.162508 
L 70.347219 116.310204 
L 70.966016 114.993878 
L 71.005867 114.909104 
L 71.599983 113.677551 
L 72.065179 112.71324 
L 72.239331 112.361224 
L 72.890558 111.044898 
L 73.12449 110.572051 
L 73.552175 109.728571 
L 74.183801 108.482879 
L 74.220486 108.412245 
L 74.904142 107.095918 
L 75.243112 106.443258 
L 75.595973 105.779592 
L 76.295844 104.463265 
L 76.302423 104.450891 
L 77.011777 103.146939 
L 77.361735 102.503638 
L 77.736153 101.830612 
L 78.421046 100.599501 
L 78.469503 100.514286 
L 79.218017 99.197959 
L 79.480357 98.736612 
L 79.977064 97.881633 
L 80.539668 96.913222 
L 80.746078 96.565306 
L 81.527022 95.24898 
L 81.59898 95.127691 
L 82.322686 93.932653 
L 82.658291 93.378478 
L 83.129233 92.616327 
L 83.717602 91.664136 
L 83.947091 91.3 
L 84.776678 89.983673 
L 84.776913 89.983301 
L 85.622475 88.667347 
L 85.836224 88.334688 
L 86.480394 87.35102 
L 86.895536 86.717085 
L 87.350816 86.034694 
L 87.954847 85.129348 
L 88.234109 84.718367 
L 89.014158 83.570393 
L 89.130627 83.402041 
L 90.041287 82.085714 
L 90.073469 82.039195 
L 90.967587 80.769388 
L 91.132781 80.534784 
L 91.907785 79.453061 
L 92.192092 79.056237 
L 92.8622 78.136735 
L 93.251403 77.602681 
L 93.831138 76.820408 
L 94.310714 76.173286 
L 94.814898 75.504082 
L 95.370026 74.76726 
L 95.813767 74.187755 
L 96.429337 73.383852 
L 96.828024 72.871429 
L 97.488648 72.022346 
L 97.85794 71.555102 
L 98.547959 70.682059 
L 98.903774 70.238776 
L 99.60727 69.36234 
L 99.96578 68.922449 
L 100.666582 68.062567 
L 101.044205 67.606122 
L 101.725893 66.782146 
L 102.139287 66.289796 
L 102.785204 65.52051 
L 103.251256 64.973469 
L 103.844515 64.277115 
L 104.380338 63.657143 
L 104.903827 63.051441 
L 105.52675 62.340816 
L 105.963138 61.84299 
L 106.690706 61.02449 
L 107.022449 60.651285 
L 107.872411 59.708163 
L 108.08176 59.475868 
L 109.072066 58.391837 
L 109.141071 58.3163 
L 110.200383 57.172159 
L 110.291056 57.07551 
L 111.259694 56.04304 
L 111.529497 55.759184 
L 112.319005 54.928554 
L 112.786639 54.442857 
L 113.378316 53.828325 
L 114.062656 53.126531 
L 114.437628 52.741995 
L 115.357721 51.810204 
L 115.496939 51.669216 
L 116.55625 50.609655 
L 116.673426 50.493878 
L 117.615561 49.562989 
L 118.010403 49.177551 
L 118.674872 48.528908 
L 119.367071 47.861224 
L 119.734184 47.507114 
L 120.743581 46.544898 
L 120.793495 46.497317 
L 121.852806 45.49924 
L 122.143415 45.228571 
L 122.912117 44.512614 
L 123.564111 43.912245 
L 123.971429 43.537178 
L 125.005219 42.595918 
L 125.03074 42.572682 
L 126.090051 41.618883 
L 126.471055 41.279592 
L 127.149362 40.675546 
L 127.957985 39.963265 
L 128.208673 39.742445 
L 129.267985 38.819359 
L 129.467974 38.646939 
L 130.327296 37.906076 
L 131.001861 37.330612 
L 131.386607 37.00239 
L 132.445918 36.108101 
L 132.558201 36.014286 
L 133.50523 35.223016 
L 134.14011 34.697959 
L 134.564541 34.346948 
L 135.623852 33.479713 
L 135.744864 33.381633 
L 136.683163 32.621137 
L 137.375794 32.065306 
L 137.742474 31.771048 
L 138.801786 30.929279 
L 139.030902 30.74898 
L 139.861097 30.09567 
L 140.711795 29.432653 
L 140.920408 29.270064 
L 141.979719 28.452308 
L 142.419085 28.116327 
L 143.039031 27.642255 
L 144.098342 26.839761 
L 144.151317 26.8 
L 144.098342 26.8 
L 143.039031 26.8 
L 141.979719 26.8 
L 140.920408 26.8 
L 139.861097 26.8 
L 138.801786 26.8 
L 137.742474 26.8 
L 136.683163 26.8 
L 135.623852 26.8 
L 134.564541 26.8 
L 133.50523 26.8 
L 132.445918 26.8 
L 131.386607 26.8 
L 130.327296 26.8 
L 129.267985 26.8 
L 128.208673 26.8 
L 127.149362 26.8 
L 126.090051 26.8 
L 125.03074 26.8 
L 123.971429 26.8 
L 122.912117 26.8 
L 121.852806 26.8 
L 120.793495 26.8 
L 119.734184 26.8 
L 118.912185 26.8 
L 118.674872 27.028908 
L 117.615561 28.062989 
L 117.561579 28.116327 
L 116.55625 29.109655 
L 116.233328 29.432653 
L 115.496939 30.169216 
L 114.924454 30.74898 
L 114.437628 31.241995 
L 113.634794 32.065306 
L 113.378316 32.328325 
L 112.364181 33.381633 
L 112.319005 33.428554 
L 111.259694 34.54304 
L 111.114353 34.697959 
L 110.200383 35.672159 
L 109.883622 36.014286 
L 109.141071 36.8163 
L 108.671227 37.330612 
L 108.08176 37.975868 
L 107.476977 38.646939 
L 107.022449 39.151285 
L 106.300677 39.963265 
L 105.963138 40.34299 
L 105.142126 41.279592 
L 104.903827 41.551441 
L 104.001118 42.595918 
L 103.844515 42.777115 
L 102.877441 43.912245 
L 102.785204 44.02051 
L 101.770876 45.228571 
L 101.725893 45.282146 
L 100.6812 46.544898 
L 100.666582 46.562567 
L 99.60818 47.861224 
L 99.60727 47.86234 
L 98.551578 49.177551 
L 98.547959 49.182059 
L 97.511148 50.493878 
L 97.488648 50.522346 
L 96.486638 51.810204 
L 96.429337 51.883852 
L 95.477785 53.126531 
L 95.370026 53.26726 
L 94.484321 54.442857 
L 94.310714 54.673286 
L 93.505966 55.759184 
L 93.251403 56.102681 
L 92.542432 57.07551 
L 92.192092 57.556237 
L 91.593423 58.391837 
L 91.132781 59.034784 
L 90.658629 59.708163 
L 90.073469 60.539195 
L 89.737733 61.02449 
L 89.014158 62.070393 
L 88.830405 62.340816 
L 87.954847 63.629348 
L 87.936303 63.657143 
L 87.058072 64.973469 
L 86.895536 65.217085 
L 86.193055 66.289796 
L 85.836224 66.834688 
L 85.340541 67.606122 
L 84.776913 68.483301 
L 84.500149 68.922449 
L 83.717602 70.164136 
L 83.671481 70.238776 
L 82.858109 71.555102 
L 82.658291 71.878478 
L 82.056967 72.871429 
L 81.59898 73.627691 
L 81.266708 74.187755 
L 80.539668 75.413222 
L 80.486883 75.504082 
L 79.722154 76.820408 
L 79.480357 77.236612 
L 78.968512 78.136735 
L 78.421046 79.099501 
L 78.224353 79.453061 
L 77.492053 80.769388 
L 77.361735 81.003638 
L 76.773082 82.085714 
L 76.302423 82.950891 
L 76.062554 83.402041 
L 75.362683 84.718367 
L 75.243112 84.943258 
L 74.676257 86.034694 
L 74.183801 86.982879 
L 73.997136 87.35102 
L 73.329694 88.667347 
L 73.12449 89.072051 
L 72.673482 89.983673 
L 72.065179 91.21324 
L 72.023325 91.3 
L 71.388313 92.616327 
L 71.005867 93.409104 
L 70.75975 93.932653 
L 70.140953 95.24898 
L 69.946556 95.662508 
L 69.533277 96.565306 
L 68.930695 97.881633 
L 68.887245 97.976549 
L 68.343159 99.197959 
L 67.827934 100.354581 
L 67.758759 100.514286 
L 67.188607 101.830612 
L 66.768622 102.800243 
L 66.622726 103.146939 
L 66.068789 104.463265 
L 65.709311 105.317496 
L 65.520544 105.779592 
L 64.982822 107.095918 
L 64.65 107.910658 
L 64.65 108.412245 
L 64.65 109.728571 
L 64.65 111.044898 
L 64.65 112.361224 
L 64.65 113.677551 
L 64.65 114.993878 
L 64.65 116.310204 
L 64.65 117.626531 
L 64.65 118.942857 
L 64.65 120.259184 
L 64.65 121.57551 
L 64.65 122.891837 
L 64.65 124.208163 
L 64.65 125.52449 
L 64.65 126.840816 
L 64.65 128.157143 
L 64.65 129.410658 
z
" style="fill:#5da5d1;"/>
   </g>
   <g id="PathCollection_8">
    <path clip-path="url(#pbd8aee5d7d)" d="M 64.982822 107.095918 
L 65.520544 105.779592 
L 65.709311 105.317496 
L 66.068789 104.463265 
L 66.622726 103.146939 
L 66.768622 102.800243 
L 67.188607 101.830612 
L 67.758759 100.514286 
L 67.827934 100.354581 
L 68.343159 99.197959 
L 68.887245 97.976549 
L 68.930695 97.881633 
L 69.533277 96.565306 
L 69.946556 95.662508 
L 70.140953 95.24898 
L 70.75975 93.932653 
L 71.005867 93.409104 
L 71.388313 92.616327 
L 72.023325 91.3 
L 72.065179 91.21324 
L 72.673482 89.983673 
L 73.12449 89.072051 
L 73.329694 88.667347 
L 73.997136 87.35102 
L 74.183801 86.982879 
L 74.676257 86.034694 
L 75.243112 84.943258 
L 75.362683 84.718367 
L 76.062554 83.402041 
L 76.302423 82.950891 
L 76.773082 82.085714 
L 77.361735 81.003638 
L 77.492053 80.769388 
L 78.224353 79.453061 
L 78.421046 79.099501 
L 78.968512 78.136735 
L 79.480357 77.236612 
L 79.722154 76.820408 
L 80.486883 75.504082 
L 80.539668 75.413222 
L 81.266708 74.187755 
L 81.59898 73.627691 
L 82.056967 72.871429 
L 82.658291 71.878478 
L 82.858109 71.555102 
L 83.671481 70.238776 
L 83.717602 70.164136 
L 84.500149 68.922449 
L 84.776913 68.483301 
L 85.340541 67.606122 
L 85.836224 66.834688 
L 86.193055 66.289796 
L 86.895536 65.217085 
L 87.058072 64.973469 
L 87.936303 63.657143 
L 87.954847 63.629348 
L 88.830405 62.340816 
L 89.014158 62.070393 
L 89.737733 61.02449 
L 90.073469 60.539195 
L 90.658629 59.708163 
L 91.132781 59.034784 
L 91.593423 58.391837 
L 92.192092 57.556237 
L 92.542432 57.07551 
L 93.251403 56.102681 
L 93.505966 55.759184 
L 94.310714 54.673286 
L 94.484321 54.442857 
L 95.370026 53.26726 
L 95.477785 53.126531 
L 96.429337 51.883852 
L 96.486638 51.810204 
L 97.488648 50.522346 
L 97.511148 50.493878 
L 98.547959 49.182059 
L 98.551578 49.177551 
L 99.60727 47.86234 
L 99.60818 47.861224 
L 100.666582 46.562567 
L 100.6812 46.544898 
L 101.725893 45.282146 
L 101.770876 45.228571 
L 102.785204 44.02051 
L 102.877441 43.912245 
L 103.844515 42.777115 
L 104.001118 42.595918 
L 104.903827 41.551441 
L 105.142126 41.279592 
L 105.963138 40.34299 
L 106.300677 39.963265 
L 107.022449 39.151285 
L 107.476977 38.646939 
L 108.08176 37.975868 
L 108.671227 37.330612 
L 109.141071 36.8163 
L 109.883622 36.014286 
L 110.200383 35.672159 
L 111.114353 34.697959 
L 111.259694 34.54304 
L 112.319005 33.428554 
L 112.364181 33.381633 
L 113.378316 32.328325 
L 113.634794 32.065306 
L 114.437628 31.241995 
L 114.924454 30.74898 
L 115.496939 30.169216 
L 116.233328 29.432653 
L 116.55625 29.109655 
L 117.561579 28.116327 
L 117.615561 28.062989 
L 118.674872 27.028908 
L 118.912185 26.8 
L 118.674872 26.8 
L 117.615561 26.8 
L 116.55625 26.8 
L 115.496939 26.8 
L 114.437628 26.8 
L 113.378316 26.8 
L 112.319005 26.8 
L 111.259694 26.8 
L 110.200383 26.8 
L 109.141071 26.8 
L 108.08176 26.8 
L 107.022449 26.8 
L 105.963138 26.8 
L 104.903827 26.8 
L 103.844515 26.8 
L 102.785204 26.8 
L 101.725893 26.8 
L 100.666582 26.8 
L 99.60727 26.8 
L 99.25597 26.8 
L 98.547959 27.682059 
L 98.204731 28.116327 
L 97.488648 29.022346 
L 97.169411 29.432653 
L 96.429337 30.383852 
L 96.149749 30.74898 
L 95.370026 31.76726 
L 95.145475 32.065306 
L 94.310714 33.173286 
L 94.15631 33.381633 
L 93.251403 34.602681 
L 93.181967 34.697959 
L 92.222665 36.014286 
L 92.192092 36.056237 
L 91.27906 37.330612 
L 91.132781 37.534784 
L 90.349671 38.646939 
L 90.073469 39.039195 
L 89.43418 39.963265 
L 89.014158 40.570393 
L 88.532257 41.279592 
L 87.954847 42.129348 
L 87.643559 42.595918 
L 86.895536 43.717085 
L 86.767733 43.912245 
L 85.905716 45.228571 
L 85.836224 45.334688 
L 85.058608 46.544898 
L 84.776913 46.983301 
L 84.22362 47.861224 
L 83.717602 48.664136 
L 83.400357 49.177551 
L 82.658291 50.378478 
L 82.588406 50.493878 
L 81.791248 51.810204 
L 81.59898 52.127691 
L 81.006393 53.126531 
L 80.539668 53.913222 
L 80.231973 54.442857 
L 79.480357 55.736612 
L 79.467522 55.759184 
L 78.719008 57.07551 
L 78.421046 57.599501 
L 77.980253 58.391837 
L 77.361735 59.503638 
L 77.250472 59.708163 
L 76.534387 61.02449 
L 76.302423 61.450891 
L 75.829264 62.340816 
L 75.243112 63.443258 
L 75.132028 63.657143 
L 74.448372 64.973469 
L 74.183801 65.482879 
L 73.774655 66.289796 
L 73.12449 67.572051 
L 73.107634 67.606122 
L 72.456407 68.922449 
L 72.065179 69.71324 
L 71.811654 70.238776 
L 71.176642 71.555102 
L 71.005867 71.909104 
L 70.553485 72.871429 
L 69.946556 74.162508 
L 69.934999 74.187755 
L 69.332417 75.504082 
L 68.887245 76.476549 
L 68.73407 76.820408 
L 68.147703 78.136735 
L 67.827934 78.854581 
L 67.568709 79.453061 
L 66.998557 80.769388 
L 66.768622 81.300243 
L 66.43808 82.085714 
L 65.884143 83.402041 
L 65.709311 83.817496 
L 65.341304 84.718367 
L 64.803582 86.034694 
L 64.65 86.410658 
L 64.65 87.35102 
L 64.65 88.667347 
L 64.65 89.983673 
L 64.65 91.3 
L 64.65 92.616327 
L 64.65 93.932653 
L 64.65 95.24898 
L 64.65 96.565306 
L 64.65 97.881633 
L 64.65 99.197959 
L 64.65 100.514286 
L 64.65 101.830612 
L 64.65 103.146939 
L 64.65 104.463265 
L 64.65 105.779592 
L 64.65 107.095918 
L 64.65 107.910658 
z
" style="fill:#4191c6;"/>
   </g>
   <g id="PathCollection_9">
    <path clip-path="url(#pbd8aee5d7d)" d="M 64.803582 86.034694 
L 65.341304 84.718367 
L 65.709311 83.817496 
L 65.884143 83.402041 
L 66.43808 82.085714 
L 66.768622 81.300243 
L 66.998557 80.769388 
L 67.568709 79.453061 
L 67.827934 78.854581 
L 68.147703 78.136735 
L 68.73407 76.820408 
L 68.887245 76.476549 
L 69.332417 75.504082 
L 69.934999 74.187755 
L 69.946556 74.162508 
L 70.553485 72.871429 
L 71.005867 71.909104 
L 71.176642 71.555102 
L 71.811654 70.238776 
L 72.065179 69.71324 
L 72.456407 68.922449 
L 73.107634 67.606122 
L 73.12449 67.572051 
L 73.774655 66.289796 
L 74.183801 65.482879 
L 74.448372 64.973469 
L 75.132028 63.657143 
L 75.243112 63.443258 
L 75.829264 62.340816 
L 76.302423 61.450891 
L 76.534387 61.02449 
L 77.250472 59.708163 
L 77.361735 59.503638 
L 77.980253 58.391837 
L 78.421046 57.599501 
L 78.719008 57.07551 
L 79.467522 55.759184 
L 79.480357 55.736612 
L 80.231973 54.442857 
L 80.539668 53.913222 
L 81.006393 53.126531 
L 81.59898 52.127691 
L 81.791248 51.810204 
L 82.588406 50.493878 
L 82.658291 50.378478 
L 83.400357 49.177551 
L 83.717602 48.664136 
L 84.22362 47.861224 
L 84.776913 46.983301 
L 85.058608 46.544898 
L 85.836224 45.334688 
L 85.905716 45.228571 
L 86.767733 43.912245 
L 86.895536 43.717085 
L 87.643559 42.595918 
L 87.954847 42.129348 
L 88.532257 41.279592 
L 89.014158 40.570393 
L 89.43418 39.963265 
L 90.073469 39.039195 
L 90.349671 38.646939 
L 91.132781 37.534784 
L 91.27906 37.330612 
L 92.192092 36.056237 
L 92.222665 36.014286 
L 93.181967 34.697959 
L 93.251403 34.602681 
L 94.15631 33.381633 
L 94.310714 33.173286 
L 95.145475 32.065306 
L 95.370026 31.76726 
L 96.149749 30.74898 
L 96.429337 30.383852 
L 97.169411 29.432653 
L 97.488648 29.022346 
L 98.204731 28.116327 
L 98.547959 27.682059 
L 99.25597 26.8 
L 98.547959 26.8 
L 97.488648 26.8 
L 96.429337 26.8 
L 95.370026 26.8 
L 94.310714 26.8 
L 93.251403 26.8 
L 92.192092 26.8 
L 91.132781 26.8 
L 90.073469 26.8 
L 89.014158 26.8 
L 87.954847 26.8 
L 86.895536 26.8 
L 85.836224 26.8 
L 84.776913 26.8 
L 83.947091 26.8 
L 83.717602 27.164136 
L 83.129233 28.116327 
L 82.658291 28.878478 
L 82.322686 29.432653 
L 81.59898 30.627691 
L 81.527022 30.74898 
L 80.746078 32.065306 
L 80.539668 32.413222 
L 79.977064 33.381633 
L 79.480357 34.236612 
L 79.218017 34.697959 
L 78.469503 36.014286 
L 78.421046 36.099501 
L 77.736153 37.330612 
L 77.361735 38.003638 
L 77.011777 38.646939 
L 76.302423 39.950891 
L 76.295844 39.963265 
L 75.595973 41.279592 
L 75.243112 41.943258 
L 74.904142 42.595918 
L 74.220486 43.912245 
L 74.183801 43.982879 
L 73.552175 45.228571 
L 73.12449 46.072051 
L 72.890558 46.544898 
L 72.239331 47.861224 
L 72.065179 48.21324 
L 71.599983 49.177551 
L 71.005867 50.409104 
L 70.966016 50.493878 
L 70.347219 51.810204 
L 69.946556 52.662508 
L 69.734138 53.126531 
L 69.131556 54.442857 
L 68.887245 54.976549 
L 68.538615 55.759184 
L 67.952248 57.07551 
L 67.827934 57.354581 
L 67.378658 58.391837 
L 66.808506 59.708163 
L 66.768622 59.800243 
L 66.253435 61.02449 
L 65.709311 62.317496 
L 65.699785 62.340816 
L 65.162063 63.657143 
L 64.65 64.910658 
L 64.65 64.973469 
L 64.65 66.289796 
L 64.65 67.606122 
L 64.65 68.922449 
L 64.65 70.238776 
L 64.65 71.555102 
L 64.65 72.871429 
L 64.65 74.187755 
L 64.65 75.504082 
L 64.65 76.820408 
L 64.65 78.136735 
L 64.65 79.453061 
L 64.65 80.769388 
L 64.65 82.085714 
L 64.65 83.402041 
L 64.65 84.718367 
L 64.65 86.034694 
L 64.65 86.410658 
z
" style="fill:#2c7cba;"/>
   </g>
   <g id="PathCollection_10">
    <path clip-path="url(#pbd8aee5d7d)" d="M 65.162063 63.657143 
L 65.699785 62.340816 
L 65.709311 62.317496 
L 66.253435 61.02449 
L 66.768622 59.800243 
L 66.808506 59.708163 
L 67.378658 58.391837 
L 67.827934 57.354581 
L 67.952248 57.07551 
L 68.538615 55.759184 
L 68.887245 54.976549 
L 69.131556 54.442857 
L 69.734138 53.126531 
L 69.946556 52.662508 
L 70.347219 51.810204 
L 70.966016 50.493878 
L 71.005867 50.409104 
L 71.599983 49.177551 
L 72.065179 48.21324 
L 72.239331 47.861224 
L 72.890558 46.544898 
L 73.12449 46.072051 
L 73.552175 45.228571 
L 74.183801 43.982879 
L 74.220486 43.912245 
L 74.904142 42.595918 
L 75.243112 41.943258 
L 75.595973 41.279592 
L 76.295844 39.963265 
L 76.302423 39.950891 
L 77.011777 38.646939 
L 77.361735 38.003638 
L 77.736153 37.330612 
L 78.421046 36.099501 
L 78.469503 36.014286 
L 79.218017 34.697959 
L 79.480357 34.236612 
L 79.977064 33.381633 
L 80.539668 32.413222 
L 80.746078 32.065306 
L 81.527022 30.74898 
L 81.59898 30.627691 
L 82.322686 29.432653 
L 82.658291 28.878478 
L 83.129233 28.116327 
L 83.717602 27.164136 
L 83.947091 26.8 
L 83.717602 26.8 
L 82.658291 26.8 
L 81.59898 26.8 
L 80.539668 26.8 
L 79.480357 26.8 
L 78.421046 26.8 
L 77.361735 26.8 
L 76.302423 26.8 
L 75.243112 26.8 
L 74.183801 26.8 
L 73.12449 26.8 
L 72.065179 26.8 
L 72.023325 26.8 
L 71.388313 28.116327 
L 71.005867 28.909104 
L 70.75975 29.432653 
L 70.140953 30.74898 
L 69.946556 31.162508 
L 69.533277 32.065306 
L 68.930695 33.381633 
L 68.887245 33.476549 
L 68.343159 34.697959 
L 67.827934 35.854581 
L 67.758759 36.014286 
L 67.188607 37.330612 
L 66.768622 38.300243 
L 66.622726 38.646939 
L 66.068789 39.963265 
L 65.709311 40.817496 
L 65.520544 41.279592 
L 64.982822 42.595918 
L 64.65 43.410658 
L 64.65 43.912245 
L 64.65 45.228571 
L 64.65 46.544898 
L 64.65 47.861224 
L 64.65 49.177551 
L 64.65 50.493878 
L 64.65 51.810204 
L 64.65 53.126531 
L 64.65 54.442857 
L 64.65 55.759184 
L 64.65 57.07551 
L 64.65 58.391837 
L 64.65 59.708163 
L 64.65 61.02449 
L 64.65 62.340816 
L 64.65 63.657143 
L 64.65 64.910658 
z
" style="fill:#1966ad;"/>
   </g>
   <g id="PathCollection_11">
    <path clip-path="url(#pbd8aee5d7d)" d="M 64.982822 42.595918 
L 65.520544 41.279592 
L 65.709311 40.817496 
L 66.068789 39.963265 
L 66.622726 38.646939 
L 66.768622 38.300243 
L 67.188607 37.330612 
L 67.758759 36.014286 
L 67.827934 35.854581 
L 68.343159 34.697959 
L 68.887245 33.476549 
L 68.930695 33.381633 
L 69.533277 32.065306 
L 69.946556 31.162508 
L 70.140953 30.74898 
L 70.75975 29.432653 
L 71.005867 28.909104 
L 71.388313 28.116327 
L 72.023325 26.8 
L 71.005867 26.8 
L 69.946556 26.8 
L 68.887245 26.8 
L 67.827934 26.8 
L 66.768622 26.8 
L 65.709311 26.8 
L 64.65 26.8 
L 64.65 28.116327 
L 64.65 29.432653 
L 64.65 30.74898 
L 64.65 32.065306 
L 64.65 33.381633 
L 64.65 34.697959 
L 64.65 36.014286 
L 64.65 37.330612 
L 64.65 38.646939 
L 64.65 39.963265 
L 64.65 41.279592 
L 64.65 42.595918 
L 64.65 43.410658 
z
" style="fill:#08509b;"/>
   </g>
   <g id="PathCollection_12"/>
   <g id="matplotlib.axis_1">
    <g id="xtick_1">
     <g id="line2d_1">
      <defs>
       <path d="M 0 0 
L 0 3.5 
" id="m0d7e8c788d" style="stroke:#000000;stroke-width:0.8;"/>
      </defs>
      <g>
       <use style="stroke:#000000;stroke-width:0.8;" x="64.65" xlink:href="#m0d7e8c788d" y="155.8"/>
      </g>
     </g>
     <g id="text_1">
      <!-- 0.5 -->
      <defs>
       <path d="M 31.78125 66.40625 
Q 24.171875 66.40625 20.328125 58.90625 
Q 16.5 51.421875 16.5 36.375 
Q 16.5 21.390625 20.328125 13.890625 
Q 24.171875 6.390625 31.78125 6.390625 
Q 39.453125 6.390625 43.28125 13.890625 
Q 47.125 21.390625 47.125 36.375 
Q 47.125 51.421875 43.28125 58.90625 
Q 39.453125 66.40625 31.78125 66.40625 
z
M 31.78125 74.21875 
Q 44.046875 74.21875 50.515625 64.515625 
Q 56.984375 54.828125 56.984375 36.375 
Q 56.984375 17.96875 50.515625 8.265625 
Q 44.046875 -1.421875 31.78125 -1.421875 
Q 19.53125 -1.421875 13.0625 8.265625 
Q 6.59375 17.96875 6.59375 36.375 
Q 6.59375 54.828125 13.0625 64.515625 
Q 19.53125 74.21875 31.78125 74.21875 
z
" id="DejaVuSans-30"/>
       <path d="M 10.6875 12.40625 
L 21 12.40625 
L 21 0 
L 10.6875 0 
z
" id="DejaVuSans-2e"/>
       <path d="M 10.796875 72.90625 
L 49.515625 72.90625 
L 49.515625 64.59375 
L 19.828125 64.59375 
L 19.828125 46.734375 
Q 21.96875 47.46875 24.109375 47.828125 
Q 26.265625 48.1875 28.421875 48.1875 
Q 40.625 48.1875 47.75 41.5 
Q 54.890625 34.8125 54.890625 23.390625 
Q 54.890625 11.625 47.5625 5.09375 
Q 40.234375 -1.421875 26.90625 -1.421875 
Q 22.3125 -1.421875 17.546875 -0.640625 
Q 12.796875 0.140625 7.71875 1.703125 
L 7.71875 11.625 
Q 12.109375 9.234375 16.796875 8.0625 
Q 21.484375 6.890625 26.703125 6.890625 
Q 35.15625 6.890625 40.078125 11.328125 
Q 45.015625 15.765625 45.015625 23.390625 
Q 45.015625 31 40.078125 35.4375 
Q 35.15625 39.890625 26.703125 39.890625 
Q 22.75 39.890625 18.8125 39.015625 
Q 14.890625 38.140625 10.796875 36.28125 
z
" id="DejaVuSans-35"/>
      </defs>
      <g transform="translate(56.698438 170.398438)scale(0.1 -0.1)">
       <use xlink:href="#DejaVuSans-30"/>
       <use x="63.623047" xlink:href="#DejaVuSans-2e"/>
       <use x="95.410156" xlink:href="#DejaVuSans-35"/>
      </g>
     </g>
    </g>
    <g id="xtick_2">
     <g id="line2d_2">
      <g>
       <use style="stroke:#000000;stroke-width:0.8;" x="99.254167" xlink:href="#m0d7e8c788d" y="155.8"/>
      </g>
     </g>
     <g id="text_2">
      <!-- 1.0 -->
      <defs>
       <path d="M 12.40625 8.296875 
L 28.515625 8.296875 
L 28.515625 63.921875 
L 10.984375 60.40625 
L 10.984375 69.390625 
L 28.421875 72.90625 
L 38.28125 72.90625 
L 38.28125 8.296875 
L 54.390625 8.296875 
L 54.390625 0 
L 12.40625 0 
z
" id="DejaVuSans-31"/>
      </defs>
      <g transform="translate(91.302604 170.398438)scale(0.1 -0.1)">
       <use xlink:href="#DejaVuSans-31"/>
       <use x="63.623047" xlink:href="#DejaVuSans-2e"/>
       <use x="95.410156" xlink:href="#DejaVuSans-30"/>
      </g>
     </g>
    </g>
    <g id="xtick_3">
     <g id="line2d_3">
      <g>
       <use style="stroke:#000000;stroke-width:0.8;" x="133.858333" xlink:href="#m0d7e8c788d" y="155.8"/>
      </g>
     </g>
     <g id="text_3">
      <!-- 1.5 -->
      <g transform="translate(125.906771 170.398438)scale(0.1 -0.1)">
       <use xlink:href="#DejaVuSans-31"/>
       <use x="63.623047" xlink:href="#DejaVuSans-2e"/>
       <use x="95.410156" xlink:href="#DejaVuSans-35"/>
      </g>
     </g>
    </g>
    <g id="xtick_4">
     <g id="line2d_4">
      <g>
       <use style="stroke:#000000;stroke-width:0.8;" x="168.4625" xlink:href="#m0d7e8c788d" y="155.8"/>
      </g>
     </g>
     <g id="text_4">
      <!-- 2.0 -->
      <defs>
       <path d="M 19.1875 8.296875 
L 53.609375 8.296875 
L 53.609375 0 
L 7.328125 0 
L 7.328125 8.296875 
Q 12.9375 14.109375 22.625 23.890625 
Q 32.328125 33.6875 34.8125 36.53125 
Q 39.546875 41.84375 41.421875 45.53125 
Q 43.3125 49.21875 43.3125 52.78125 
Q 43.3125 58.59375 39.234375 62.25 
Q 35.15625 65.921875 28.609375 65.921875 
Q 23.96875 65.921875 18.8125 64.3125 
Q 13.671875 62.703125 7.8125 59.421875 
L 7.8125 69.390625 
Q 13.765625 71.78125 18.9375 73 
Q 24.125 74.21875 28.421875 74.21875 
Q 39.75 74.21875 46.484375 68.546875 
Q 53.21875 62.890625 53.21875 53.421875 
Q 53.21875 48.921875 51.53125 44.890625 
Q 49.859375 40.875 45.40625 35.40625 
Q 44.1875 33.984375 37.640625 27.21875 
Q 31.109375 20.453125 19.1875 8.296875 
z
" id="DejaVuSans-32"/>
      </defs>
      <g transform="translate(160.510938 170.398438)scale(0.1 -0.1)">
       <use xlink:href="#DejaVuSans-32"/>
       <use x="63.623047" xlink:href="#DejaVuSans-2e"/>
       <use x="95.410156" xlink:href="#DejaVuSans-30"/>
      </g>
     </g>
    </g>
    <g id="text_5">
     <!-- $r$ -->
     <defs>
      <path d="M 44.578125 46.390625 
Q 43.21875 47.125 41.453125 47.515625 
Q 39.703125 47.90625 37.703125 47.90625 
Q 30.515625 47.90625 25.140625 42.453125 
Q 19.78125 37.015625 18.015625 27.875 
L 12.5 0 
L 3.515625 0 
L 14.203125 54.6875 
L 23.1875 54.6875 
L 21.484375 46.1875 
Q 25.046875 50.921875 30 53.453125 
Q 34.96875 56 40.578125 56 
Q 42.046875 56 43.453125 55.828125 
Q 44.875 55.671875 46.296875 55.28125 
z
" id="DejaVuSans-Oblique-72"/>
     </defs>
     <g transform="translate(113.61625 187.115938)scale(0.14 -0.14)">
      <use xlink:href="#DejaVuSans-Oblique-72"/>
     </g>
    </g>
   </g>
   <g id="matplotlib.axis_2">
    <g id="ytick_1">
     <g id="line2d_5">
      <defs>
       <path d="M 0 0 
L -3.5 0 
" id="m4dcf1c5465" style="stroke:#000000;stroke-width:0.8;"/>
      </defs>
      <g>
       <use style="stroke:#000000;stroke-width:0.8;" x="64.65" xlink:href="#m4dcf1c5465" y="155.8"/>
      </g>
     </g>
     <g id="text_6">
      <!-- 1.0 -->
      <defs>
       <path d="M 10.59375 35.5 
L 73.1875 35.5 
L 73.1875 27.203125 
L 10.59375 27.203125 
z
" id="DejaVuSans-2212"/>
      </defs>
      <g transform="translate(33.367188 159.599219)scale(0.1 -0.1)">
       <use xlink:href="#DejaVuSans-2212"/>
       <use x="83.789062" xlink:href="#DejaVuSans-31"/>
       <use x="147.412109" xlink:href="#DejaVuSans-2e"/>
       <use x="179.199219" xlink:href="#DejaVuSans-30"/>
      </g>
     </g>
    </g>
    <g id="ytick_2">
     <g id="line2d_6">
      <g>
       <use style="stroke:#000000;stroke-width:0.8;" x="64.65" xlink:href="#m4dcf1c5465" y="134.3"/>
      </g>
     </g>
     <g id="text_7">
      <!-- 0.5 -->
      <g transform="translate(33.367188 138.099219)scale(0.1 -0.1)">
       <use xlink:href="#DejaVuSans-2212"/>
       <use x="83.789062" xlink:href="#DejaVuSans-30"/>
       <use x="147.412109" xlink:href="#DejaVuSans-2e"/>
       <use x="179.199219" xlink:href="#DejaVuSans-35"/>
      </g>
     </g>
    </g>
    <g id="ytick_3">
     <g id="line2d_7">
      <g>
       <use style="stroke:#000000;stroke-width:0.8;" x="64.65" xlink:href="#m4dcf1c5465" y="112.8"/>
      </g>
     </g>
     <g id="text_8">
      <!-- 0.0 -->
      <g transform="translate(41.746875 116.599219)scale(0.1 -0.1)">
       <use xlink:href="#DejaVuSans-30"/>
       <use x="63.623047" xlink:href="#DejaVuSans-2e"/>
       <use x="95.410156" xlink:href="#DejaVuSans-30"/>
      </g>
     </g>
    </g>
    <g id="ytick_4">
     <g id="line2d_8">
      <g>
       <use style="stroke:#000000;stroke-width:0.8;" x="64.65" xlink:href="#m4dcf1c5465" y="91.3"/>
      </g>
     </g>
     <g id="text_9">
      <!-- 0.5 -->
      <g transform="translate(41.746875 95.099219)scale(0.1 -0.1)">
       <use xlink:href="#DejaVuSans-30"/>
       <use x="63.623047" xlink:href="#DejaVuSans-2e"/>
       <use x="95.410156" xlink:href="#DejaVuSans-35"/>
      </g>
     </g>
    </g>
    <g id="ytick_5">
     <g id="line2d_9">
      <g>
       <use style="stroke:#000000;stroke-width:0.8;" x="64.65" xlink:href="#m4dcf1c5465" y="69.8"/>
      </g>
     </g>
     <g id="text_10">
      <!-- 1.0 -->
      <g transform="translate(41.746875 73.599219)scale(0.1 -0.1)">
       <use xlink:href="#DejaVuSans-31"/>
       <use x="63.623047" xlink:href="#DejaVuSans-2e"/>
       <use x="95.410156" xlink:href="#DejaVuSans-30"/>
      </g>
     </g>
    </g>
    <g id="ytick_6">
     <g id="line2d_10">
      <g>
       <use style="stroke:#000000;stroke-width:0.8;" x="64.65" xlink:href="#m4dcf1c5465" y="48.3"/>
      </g>
     </g>
     <g id="text_11">
      <!-- 1.5 -->
      <g transform="translate(41.746875 52.099219)scale(0.1 -0.1)">
       <use xlink:href="#DejaVuSans-31"/>
       <use x="63.623047" xlink:href="#DejaVuSans-2e"/>
       <use x="95.410156" xlink:href="#DejaVuSans-35"/>
      </g>
     </g>
    </g>
    <g id="ytick_7">
     <g id="line2d_11">
      <g>
       <use style="stroke:#000000;stroke-width:0.8;" x="64.65" xlink:href="#m4dcf1c5465" y="26.8"/>
      </g>
     </g>
     <g id="text_12">
      <!-- 2.0 -->
      <g transform="translate(41.746875 30.599219)scale(0.1 -0.1)">
       <use xlink:href="#DejaVuSans-32"/>
       <use x="63.623047" xlink:href="#DejaVuSans-2e"/>
       <use x="95.410156" xlink:href="#DejaVuSans-30"/>
      </g>
     </g>
    </g>
    <g id="text_13">
     <!-- $s N^*$ -->
     <defs>
      <path d="M 50 53.078125 
L 48.296875 44.578125 
Q 44.734375 46.53125 40.765625 47.5 
Q 36.8125 48.484375 32.625 48.484375 
Q 25.53125 48.484375 21.453125 46.0625 
Q 17.390625 43.65625 17.390625 39.5 
Q 17.390625 34.671875 26.859375 32.078125 
Q 27.59375 31.890625 27.9375 31.78125 
L 30.8125 30.90625 
Q 39.796875 28.421875 42.796875 25.6875 
Q 45.796875 22.953125 45.796875 18.21875 
Q 45.796875 9.515625 38.890625 4.046875 
Q 31.984375 -1.421875 20.796875 -1.421875 
Q 16.453125 -1.421875 11.671875 -0.578125 
Q 6.890625 0.25 1.125 2 
L 2.875 11.28125 
Q 7.8125 8.734375 12.59375 7.421875 
Q 17.390625 6.109375 21.78125 6.109375 
Q 28.375 6.109375 32.5 8.9375 
Q 36.625 11.765625 36.625 16.109375 
Q 36.625 20.796875 25.78125 23.6875 
L 24.859375 23.921875 
L 21.78125 24.703125 
Q 14.9375 26.515625 11.765625 29.46875 
Q 8.59375 32.421875 8.59375 37.015625 
Q 8.59375 45.75 15.15625 50.875 
Q 21.734375 56 33.015625 56 
Q 37.453125 56 41.671875 55.265625 
Q 45.90625 54.546875 50 53.078125 
z
" id="DejaVuSans-Oblique-73"/>
      <path d="M 16.890625 72.90625 
L 30.171875 72.90625 
L 50.296875 10.40625 
L 62.5 72.90625 
L 72.125 72.90625 
L 57.90625 0 
L 44.578125 0 
L 24.515625 62.890625 
L 12.3125 0 
L 2.6875 0 
z
" id="DejaVuSans-Oblique-4e"/>
      <path d="M 47.015625 60.890625 
L 29.5 51.421875 
L 47.015625 41.890625 
L 44.1875 37.109375 
L 27.78125 47.015625 
L 27.78125 28.609375 
L 22.21875 28.609375 
L 22.21875 47.015625 
L 5.8125 37.109375 
L 2.984375 41.890625 
L 20.515625 51.421875 
L 2.984375 60.890625 
L 5.8125 65.71875 
L 22.21875 55.8125 
L 22.21875 74.21875 
L 27.78125 74.21875 
L 27.78125 55.8125 
L 44.1875 65.71875 
z
" id="DejaVuSans-2a"/>
     </defs>
     <g transform="translate(26.455625 105.23)rotate(-90)scale(0.14 -0.14)">
      <use transform="translate(0 0.765625)" xlink:href="#DejaVuSans-Oblique-73"/>
      <use transform="translate(52.099609 0.765625)" xlink:href="#DejaVuSans-Oblique-4e"/>
      <use transform="translate(147.558763 39.046875)scale(0.7)" xlink:href="#DejaVuSans-2a"/>
     </g>
    </g>
   </g>
   <g id="LineCollection_1">
    <path clip-path="url(#pbd8aee5d7d)" d="M 99.25597 155.8 
L 99.60727 155.36234 
L 100.323381 154.483673 
L 100.666582 154.062567 
L 101.407211 153.167347 
L 101.725893 152.782146 
L 102.507697 151.85102 
L 102.785204 151.52051 
L 103.625071 150.534694 
L 103.844515 150.277115 
L 104.759557 149.218367 
L 104.903827 149.051441 
L 105.911375 147.902041 
L 105.963138 147.84299 
L 107.022449 146.651285 
L 107.081543 146.585714 
L 108.08176 145.475868 
L 108.270388 145.269388 
L 109.141071 144.3163 
L 109.477379 143.953061 
L 110.200383 143.172159 
L 110.702705 142.636735 
L 111.259694 142.04304 
L 111.94655 141.320408 
L 112.319005 140.928554 
L 113.209096 140.004082 
L 113.378316 139.828325 
L 114.437628 138.741995 
L 114.491187 138.687755 
L 115.496939 137.669216 
L 115.794656 137.371429 
L 116.55625 136.609655 
L 117.117502 136.055102 
L 117.615561 135.562989 
L 118.459884 134.738776 
L 118.674872 134.528908 
L 119.734184 133.507114 
L 119.823 133.422449 
L 120.793495 132.497317 
L 121.208691 132.106122 
L 121.852806 131.49924 
L 122.614515 130.789796 
L 122.912117 130.512614 
L 123.971429 129.537178 
L 124.0414 129.473469 
L 125.03074 128.572682 
L 125.492247 128.157143 
L 126.090051 127.618883 
L 126.963774 126.840816 
L 127.149362 126.675546 
L 128.208673 125.742445 
L 128.458794 125.52449 
L 129.267985 124.819359 
L 129.976907 124.208163 
L 130.327296 123.906076 
L 131.386607 123.00239 
L 131.458256 122.941903 
" style="fill:none;stroke:#000000;stroke-dasharray:11.1,4.8;stroke-dashoffset:0;stroke-width:3;"/>
    <path clip-path="url(#pbd8aee5d7d)" d="M 144.513741 112.52798 
L 144.735916 112.361224 
L 145.157653 112.044686 
L 146.216964 111.256894 
L 146.504638 111.044898 
L 147.276276 110.476253 
L 148.300072 109.728571 
L 148.335587 109.702635 
L 149.394898 108.935914 
L 150.124855 108.412245 
L 150.454209 108.175968 
L 151.51352 107.422678 
L 151.97705 107.095918 
L 152.572832 106.67593 
L 153.632143 105.935609 
L 153.857307 105.779592 
L 154.691454 105.201608 
L 155.750765 104.473818 
L 155.766255 104.463265 
L 156.810077 103.752135 
L 157.70586 103.146939 
L 157.869388 103.036458 
L 158.928699 102.326688 
L 159.675188 101.830612 
L 159.98801 101.622728 
L 161.047321 100.924483 
L 161.674687 100.514286 
L 162.106633 100.231862 
L 163.165944 99.544775 
L 163.704915 99.197959 
L 164.225255 98.863133 
L 165.284566 98.186852 
L 165.766414 97.881633 
L 166.343878 97.515847 
L 167.403189 96.850037 
L 167.859706 96.565306 
L 168.4625 96.189342 
" style="fill:none;stroke:#000000;stroke-dasharray:11.1,4.8;stroke-dashoffset:0;stroke-width:3;"/>
   </g>
   <g id="LineCollection_2">
    <path clip-path="url(#pbd8aee5d7d)" d="M 72.023325 155.8 
L 74.676257 150.534694 
L 77.492053 145.269388 
L 81.266708 138.687755 
L 84.776913 132.983301 
L 89.014158 126.570393 
L 93.505966 120.259184 
L 97.511148 114.993878 
L 101.770876 109.728571 
L 106.300677 104.463265 
L 111.259694 99.04304 
L 116.55625 93.609655 
L 121.852806 88.49924 
L 127.459862 83.402041 
L 133.50523 78.223016 
L 140.148815 72.871429 
L 146.216964 68.256894 
L 152.599713 63.657143 
L 156.298818 61.100443 
L 156.298818 61.100443 
" style="fill:none;stroke:#000000;stroke-width:3;"/>
   </g>
   <g id="LineCollection_3">
    <path clip-path="url(#pbd8aee5d7d)" d="M 64.65 129.410658 
L 67.952248 121.57551 
L 71.005867 114.909104 
L 74.220486 108.412245 
L 77.736153 101.830612 
L 80.746078 96.565306 
L 84.776913 89.983301 
L 89.130627 83.402041 
L 93.251403 77.602681 
L 97.85794 71.555102 
L 102.139287 66.289796 
L 106.690706 61.02449 
L 111.259694 56.04304 
L 116.673426 50.493878 
L 122.143415 45.228571 
L 127.957985 39.963265 
L 128.167689 39.778546 
L 128.167689 39.778546 
" style="fill:none;stroke:#000000;stroke-width:3;"/>
    <path clip-path="url(#pbd8aee5d7d)" d="M 141.091907 29.137672 
L 141.979719 28.452308 
L 142.419085 28.116327 
L 143.039031 27.642255 
L 144.098342 26.839761 
L 144.151317 26.8 
" style="fill:none;stroke:#000000;stroke-width:3;"/>
   </g>
   <g id="LineCollection_4">
    <path clip-path="url(#pbd8aee5d7d)" d="M 64.65 86.410658 
L 64.803582 86.034694 
L 65.341304 84.718367 
L 65.709311 83.817496 
L 65.884143 83.402041 
L 66.43808 82.085714 
L 66.768622 81.300243 
L 66.998557 80.769388 
L 67.568709 79.453061 
L 67.827934 78.854581 
L 68.147703 78.136735 
L 68.73407 76.820408 
L 68.887245 76.476549 
L 69.332417 75.504082 
L 69.934999 74.187755 
L 69.946556 74.162508 
L 70.553485 72.871429 
L 71.005867 71.909104 
L 71.176642 71.555102 
L 71.811654 70.238776 
L 72.065179 69.71324 
L 72.456407 68.922449 
L 73.107634 67.606122 
L 73.12449 67.572051 
L 73.774655 66.289796 
L 74.183801 65.482879 
L 74.448372 64.973469 
L 75.132028 63.657143 
L 75.243112 63.443258 
L 75.829264 62.340816 
L 76.302423 61.450891 
L 76.534387 61.02449 
L 77.250472 59.708163 
L 77.361735 59.503638 
L 77.980253 58.391837 
L 78.421046 57.599501 
L 78.719008 57.07551 
L 79.467522 55.759184 
L 79.480357 55.736612 
L 80.231973 54.442857 
L 80.539668 53.913222 
L 81.006393 53.126531 
L 81.59898 52.127691 
L 81.791248 51.810204 
L 82.588406 50.493878 
L 82.658291 50.378478 
L 83.400357 49.177551 
L 83.717602 48.664136 
L 84.22362 47.861224 
L 84.776913 46.983301 
L 85.058608 46.544898 
L 85.836224 45.334688 
L 85.905716 45.228571 
L 86.767733 43.912245 
L 86.895536 43.717085 
L 87.643559 42.595918 
L 87.954847 42.129348 
L 88.140321 41.856391 
" style="fill:none;stroke:#000000;stroke-width:3;"/>
    <path clip-path="url(#pbd8aee5d7d)" d="M 98.464583 27.78755 
L 98.547959 27.682059 
L 99.25597 26.8 
" style="fill:none;stroke:#000000;stroke-width:3;"/>
   </g>
   <g id="patch_3">
    <path d="M 64.65 155.8 
L 64.65 26.8 
" style="fill:none;stroke:#000000;stroke-linecap:square;stroke-linejoin:miter;stroke-width:0.8;"/>
   </g>
   <g id="patch_4">
    <path d="M 168.4625 155.8 
L 168.4625 26.8 
" style="fill:none;stroke:#000000;stroke-linecap:square;stroke-linejoin:miter;stroke-width:0.8;"/>
   </g>
   <g id="patch_5">
    <path d="M 64.65 155.8 
L 168.4625 155.8 
" style="fill:none;stroke:#000000;stroke-linecap:square;stroke-linejoin:miter;stroke-width:0.8;"/>
   </g>
   <g id="patch_6">
    <path d="M 64.65 26.8 
L 168.4625 26.8 
" style="fill:none;stroke:#000000;stroke-linecap:square;stroke-linejoin:miter;stroke-width:0.8;"/>
   </g>
   <g id="text_14">
    <g clip-path="url(#pbd8aee5d7d)">
     <!-- -1 -->
     <defs>
      <path d="M 4.890625 31.390625 
L 31.203125 31.390625 
L 31.203125 23.390625 
L 4.890625 23.390625 
z
" id="DejaVuSans-2d"/>
     </defs>
     <g transform="translate(135.329743 122.699399)rotate(-33.946491)scale(0.1 -0.1)">
      <use xlink:href="#DejaVuSans-2d"/>
      <use x="36.083984" xlink:href="#DejaVuSans-31"/>
     </g>
    </g>
   </g>
   <g id="text_15">
    <g clip-path="url(#pbd8aee5d7d)">
     <!--  0 -->
     <defs>
      <path id="DejaVuSans-20"/>
     </defs>
     <g transform="translate(160.299754 61.251683)rotate(-28.614276)scale(0.1 -0.1)">
      <use xlink:href="#DejaVuSans-20"/>
      <use x="31.787109" xlink:href="#DejaVuSans-30"/>
     </g>
    </g>
   </g>
   <g id="text_16">
    <g clip-path="url(#pbd8aee5d7d)">
     <!--  1 -->
     <g transform="translate(132.221606 39.335002)rotate(-34.793001)scale(0.1 -0.1)">
      <use xlink:href="#DejaVuSans-20"/>
      <use x="31.787109" xlink:href="#DejaVuSans-31"/>
     </g>
    </g>
   </g>
   <g id="text_17">
    <g clip-path="url(#pbd8aee5d7d)">
     <!--  2 -->
     <g transform="translate(92.134409 40.10838)rotate(-48.994936)scale(0.1 -0.1)">
      <use xlink:href="#DejaVuSans-20"/>
      <use x="31.787109" xlink:href="#DejaVuSans-32"/>
     </g>
    </g>
   </g>
   <g id="text_18">
    <!-- $c=1$ -->
    <defs>
     <path d="M 53.609375 52.59375 
L 51.8125 43.703125 
Q 48.578125 46.046875 44.9375 47.21875 
Q 41.3125 48.390625 37.40625 48.390625 
Q 33.109375 48.390625 29.21875 46.875 
Q 25.34375 45.359375 22.703125 42.578125 
Q 18.5 38.328125 16.203125 32.609375 
Q 13.921875 26.90625 13.921875 20.796875 
Q 13.921875 13.421875 17.609375 9.8125 
Q 21.296875 6.203125 28.8125 6.203125 
Q 32.515625 6.203125 36.6875 7.328125 
Q 40.875 8.453125 45.40625 10.6875 
L 43.703125 1.8125 
Q 39.796875 0.203125 35.671875 -0.609375 
Q 31.546875 -1.421875 27.203125 -1.421875 
Q 16.3125 -1.421875 10.453125 4.015625 
Q 4.59375 9.46875 4.59375 19.578125 
Q 4.59375 28.078125 7.640625 35.234375 
Q 10.6875 42.390625 16.703125 48.09375 
Q 20.796875 52 26.3125 54 
Q 31.84375 56 38.375 56 
Q 42.1875 56 45.9375 55.140625 
Q 49.703125 54.296875 53.609375 52.59375 
z
" id="DejaVuSans-Oblique-63"/>
     <path d="M 10.59375 45.40625 
L 73.1875 45.40625 
L 73.1875 37.203125 
L 10.59375 37.203125 
z
M 10.59375 25.484375 
L 73.1875 25.484375 
L 73.1875 17.1875 
L 10.59375 17.1875 
z
" id="DejaVuSans-3d"/>
    </defs>
    <g transform="translate(102.03625 20.8)scale(0.12 -0.12)">
     <use transform="translate(0 0.09375)" xlink:href="#DejaVuSans-Oblique-63"/>
     <use transform="translate(74.462891 0.09375)" xlink:href="#DejaVuSans-3d"/>
     <use transform="translate(177.734375 0.09375)" xlink:href="#DejaVuSans-31"/>
    </g>
   </g>
  </g>
 </g>
 <defs>
  <clipPath id="pbd8aee5d7d">
   <rect height="129" width="103.8125" x="64.65" y="26.8"/>
  </clipPath>
 </defs>
</svg>
