<?xml version="1.0" encoding="utf-8" standalone="no"?>
<!DOCTYPE svg PUBLIC "-//W3C//DTD SVG 1.1//EN"
  "http://www.w3.org/Graphics/SVG/1.1/DTD/svg11.dtd">
<!-- Created with matplotlib (http://matplotlib.org/) -->
<svg height="201.6pt" version="1.1" viewBox="0 0 187.2 201.6" width="187.2pt" xmlns="http://www.w3.org/2000/svg" xmlns:xlink="http://www.w3.org/1999/xlink">
 <defs>
  <style type="text/css">
*{stroke-linecap:butt;stroke-linejoin:round;}
  </style>
 </defs>
 <g id="figure_1">
  <g id="patch_1">
   <path d="M 0 201.6 
L 187.2 201.6 
L 187.2 0 
L 0 0 
z
" style="fill:#ffffff;"/>
  </g>
  <g id="axes_1">
   <g id="patch_2">
    <path d="M 61.4 152 
L 167.086758 152 
L 167.086758 26.8 
L 61.4 26.8 
z
" style="fill:#ffffff;"/>
   </g>
   <g id="PathCollection_1">
    <path clip-path="url(#p81f96b0de8)" d="M 160.61614 152 
L 161.694576 152 
L 162.773013 152 
L 163.851449 152 
L 164.929885 152 
L 166.008322 152 
L 167.086758 152 
L 167.086758 150.722449 
L 167.086758 150.105817 
L 166.008322 150.399984 
L 164.929885 150.694151 
L 164.828319 150.722449 
L 163.851449 150.988318 
L 162.773013 151.282485 
L 161.694576 151.576652 
L 160.61614 151.870819 
L 160.148783 152 
z
" style="fill:#eef8ea;"/>
   </g>
   <g id="PathCollection_2">
    <path clip-path="url(#p81f96b0de8)" d="M 68.949054 152 
L 70.02749 152 
L 71.105927 152 
L 72.184363 152 
L 73.262799 152 
L 74.341236 152 
L 75.419672 152 
L 76.498108 152 
L 77.576545 152 
L 78.654981 152 
L 79.733417 152 
L 80.811853 152 
L 81.89029 152 
L 82.968726 152 
L 84.047162 152 
L 85.125599 152 
L 86.204035 152 
L 87.282471 152 
L 88.360908 152 
L 89.439344 152 
L 90.51778 152 
L 91.596217 152 
L 92.674653 152 
L 93.753089 152 
L 94.831525 152 
L 95.909962 152 
L 96.988398 152 
L 98.066834 152 
L 99.145271 152 
L 100.223707 152 
L 101.302143 152 
L 102.38058 152 
L 103.459016 152 
L 104.537452 152 
L 105.615888 152 
L 106.694325 152 
L 107.772761 152 
L 108.851197 152 
L 109.929634 152 
L 111.00807 152 
L 112.086506 152 
L 113.164943 152 
L 114.243379 152 
L 115.321815 152 
L 116.400252 152 
L 117.478688 152 
L 118.557124 152 
L 119.63556 152 
L 120.713997 152 
L 121.792433 152 
L 122.870869 152 
L 123.949306 152 
L 125.027742 152 
L 126.106178 152 
L 127.184615 152 
L 128.263051 152 
L 129.341487 152 
L 130.419923 152 
L 131.49836 152 
L 132.576796 152 
L 133.655232 152 
L 134.733669 152 
L 135.812105 152 
L 136.890541 152 
L 137.968978 152 
L 139.047414 152 
L 140.12585 152 
L 141.204287 152 
L 142.282723 152 
L 143.361159 152 
L 144.439595 152 
L 145.518032 152 
L 146.596468 152 
L 147.674904 152 
L 148.753341 152 
L 149.831777 152 
L 150.910213 152 
L 151.98865 152 
L 153.067086 152 
L 154.145522 152 
L 155.223958 152 
L 156.302395 152 
L 157.380831 152 
L 158.459267 152 
L 159.537704 152 
L 160.148783 152 
L 160.61614 151.870819 
L 161.694576 151.576652 
L 162.773013 151.282485 
L 163.851449 150.988318 
L 164.828319 150.722449 
L 164.929885 150.694151 
L 166.008322 150.399984 
L 167.086758 150.105817 
L 167.086758 149.444898 
L 167.086758 148.167347 
L 167.086758 146.889796 
L 167.086758 145.612245 
L 167.086758 144.334694 
L 167.086758 143.057143 
L 167.086758 141.779592 
L 167.086758 140.502041 
L 167.086758 139.22449 
L 167.086758 137.946939 
L 167.086758 136.669388 
L 167.086758 135.391837 
L 167.086758 134.114286 
L 167.086758 132.836735 
L 167.086758 131.559184 
L 167.086758 130.281633 
L 167.086758 129.004082 
L 167.086758 127.726531 
L 167.086758 126.44898 
L 167.086758 125.171429 
L 167.086758 125.065817 
L 166.705385 125.171429 
L 166.008322 125.359984 
L 164.929885 125.654151 
L 163.851449 125.948318 
L 162.773013 126.242485 
L 162.021325 126.44898 
L 161.694576 126.536652 
L 160.61614 126.830819 
L 159.537704 127.124986 
L 158.459267 127.419153 
L 157.380831 127.71332 
L 157.333472 127.726531 
L 156.302395 128.007487 
L 155.223958 128.301654 
L 154.145522 128.595821 
L 153.067086 128.889988 
L 152.654806 129.004082 
L 151.98865 129.184155 
L 150.910213 129.478322 
L 149.831777 129.772489 
L 148.753341 130.066656 
L 147.970243 130.281633 
L 147.674904 130.360823 
L 146.596468 130.65499 
L 145.518032 130.949157 
L 144.439595 131.243324 
L 143.361159 131.537491 
L 143.283341 131.559184 
L 142.282723 131.831658 
L 141.204287 132.125825 
L 140.12585 132.419992 
L 139.047414 132.714159 
L 138.604186 132.836735 
L 137.968978 133.008326 
L 136.890541 133.302493 
L 135.812105 133.59666 
L 134.733669 133.890827 
L 133.919118 134.114286 
L 133.655232 134.184994 
L 132.576796 134.479161 
L 131.49836 134.773328 
L 130.419923 135.067495 
L 129.341487 135.361662 
L 129.233169 135.391837 
L 128.263051 135.655829 
L 127.184615 135.949996 
L 126.106178 136.244163 
L 125.027742 136.53833 
L 124.553524 136.669388 
L 123.949306 136.832497 
L 122.870869 137.126664 
L 121.792433 137.420831 
L 120.713997 137.714998 
L 119.86795 137.946939 
L 119.63556 138.009165 
L 118.557124 138.303332 
L 117.478688 138.597499 
L 116.400252 138.891666 
L 115.321815 139.185833 
L 115.182956 139.22449 
L 114.243379 139.48 
L 113.164943 139.774167 
L 112.086506 140.068334 
L 111.00807 140.362501 
L 110.50282 140.502041 
L 109.929634 140.656668 
L 108.851197 140.950835 
L 107.772761 141.245002 
L 106.694325 141.539169 
L 105.816739 141.779592 
L 105.615888 141.833336 
L 104.537452 142.127503 
L 103.459016 142.42167 
L 102.38058 142.715837 
L 101.302143 143.010004 
L 101.132702 143.057143 
L 100.223707 143.304171 
L 99.145271 143.598338 
L 98.066834 143.892505 
L 96.988398 144.186672 
L 96.452074 144.334694 
L 95.909962 144.480839 
L 94.831525 144.775006 
L 93.753089 145.069173 
L 92.674653 145.36334 
L 91.765485 145.612245 
L 91.596217 145.657507 
L 90.51778 145.951674 
L 89.439344 146.245841 
L 88.360908 146.540008 
L 87.282471 146.834175 
L 87.082408 146.889796 
L 86.204035 147.128342 
L 85.125599 147.422509 
L 84.047162 147.716676 
L 82.968726 148.010843 
L 82.401286 148.167347 
L 81.89029 148.30501 
L 80.811853 148.599177 
L 79.733417 148.893344 
L 78.654981 149.187511 
L 77.714187 149.444898 
L 77.576545 149.481678 
L 76.498108 149.775845 
L 75.419672 150.070012 
L 74.341236 150.364179 
L 73.262799 150.658346 
L 73.032073 150.722449 
L 72.184363 150.952513 
L 71.105927 151.24668 
L 70.02749 151.540847 
L 68.949054 151.835014 
L 68.350455 152 
z
" style="fill:#d6efd0;"/>
   </g>
   <g id="PathCollection_3">
    <path clip-path="url(#p81f96b0de8)" d="M 62.478436 152 
L 63.556873 152 
L 64.635309 152 
L 65.713745 152 
L 66.792182 152 
L 67.870618 152 
L 68.350455 152 
L 68.949054 151.835014 
L 70.02749 151.540847 
L 71.105927 151.24668 
L 72.184363 150.952513 
L 73.032073 150.722449 
L 73.262799 150.658346 
L 74.341236 150.364179 
L 75.419672 150.070012 
L 76.498108 149.775845 
L 77.576545 149.481678 
L 77.714187 149.444898 
L 78.654981 149.187511 
L 79.733417 148.893344 
L 80.811853 148.599177 
L 81.89029 148.30501 
L 82.401286 148.167347 
L 82.968726 148.010843 
L 84.047162 147.716676 
L 85.125599 147.422509 
L 86.204035 147.128342 
L 87.082408 146.889796 
L 87.282471 146.834175 
L 88.360908 146.540008 
L 89.439344 146.245841 
L 90.51778 145.951674 
L 91.596217 145.657507 
L 91.765485 145.612245 
L 92.674653 145.36334 
L 93.753089 145.069173 
L 94.831525 144.775006 
L 95.909962 144.480839 
L 96.452074 144.334694 
L 96.988398 144.186672 
L 98.066834 143.892505 
L 99.145271 143.598338 
L 100.223707 143.304171 
L 101.132702 143.057143 
L 101.302143 143.010004 
L 102.38058 142.715837 
L 103.459016 142.42167 
L 104.537452 142.127503 
L 105.615888 141.833336 
L 105.816739 141.779592 
L 106.694325 141.539169 
L 107.772761 141.245002 
L 108.851197 140.950835 
L 109.929634 140.656668 
L 110.50282 140.502041 
L 111.00807 140.362501 
L 112.086506 140.068334 
L 113.164943 139.774167 
L 114.243379 139.48 
L 115.182956 139.22449 
L 115.321815 139.185833 
L 116.400252 138.891666 
L 117.478688 138.597499 
L 118.557124 138.303332 
L 119.63556 138.009165 
L 119.86795 137.946939 
L 120.713997 137.714998 
L 121.792433 137.420831 
L 122.870869 137.126664 
L 123.949306 136.832497 
L 124.553524 136.669388 
L 125.027742 136.53833 
L 126.106178 136.244163 
L 127.184615 135.949996 
L 128.263051 135.655829 
L 129.233169 135.391837 
L 129.341487 135.361662 
L 130.419923 135.067495 
L 131.49836 134.773328 
L 132.576796 134.479161 
L 133.655232 134.184994 
L 133.919118 134.114286 
L 134.733669 133.890827 
L 135.812105 133.59666 
L 136.890541 133.302493 
L 137.968978 133.008326 
L 138.604186 132.836735 
L 139.047414 132.714159 
L 140.12585 132.419992 
L 141.204287 132.125825 
L 142.282723 131.831658 
L 143.283341 131.559184 
L 143.361159 131.537491 
L 144.439595 131.243324 
L 145.518032 130.949157 
L 146.596468 130.65499 
L 147.674904 130.360823 
L 147.970243 130.281633 
L 148.753341 130.066656 
L 149.831777 129.772489 
L 150.910213 129.478322 
L 151.98865 129.184155 
L 152.654806 129.004082 
L 153.067086 128.889988 
L 154.145522 128.595821 
L 155.223958 128.301654 
L 156.302395 128.007487 
L 157.333472 127.726531 
L 157.380831 127.71332 
L 158.459267 127.419153 
L 159.537704 127.124986 
L 160.61614 126.830819 
L 161.694576 126.536652 
L 162.021325 126.44898 
L 162.773013 126.242485 
L 163.851449 125.948318 
L 164.929885 125.654151 
L 166.008322 125.359984 
L 166.705385 125.171429 
L 167.086758 125.065817 
L 167.086758 123.893878 
L 167.086758 122.616327 
L 167.086758 121.338776 
L 167.086758 120.061224 
L 167.086758 118.783673 
L 167.086758 117.506122 
L 167.086758 116.228571 
L 167.086758 114.95102 
L 167.086758 113.673469 
L 167.086758 112.395918 
L 167.086758 111.118367 
L 167.086758 109.840816 
L 167.086758 108.563265 
L 167.086758 107.285714 
L 167.086758 106.008163 
L 167.086758 104.730612 
L 167.086758 103.453061 
L 167.086758 102.17551 
L 167.086758 100.897959 
L 167.086758 100.025817 
L 166.008322 100.319984 
L 164.929885 100.614151 
L 163.8903 100.897959 
L 163.851449 100.908318 
L 162.773013 101.202485 
L 161.694576 101.496652 
L 160.61614 101.790819 
L 159.537704 102.084986 
L 159.211202 102.17551 
L 158.459267 102.379153 
L 157.380831 102.67332 
L 156.302395 102.967487 
L 155.223958 103.261654 
L 154.528034 103.453061 
L 154.145522 103.555821 
L 153.067086 103.849988 
L 151.98865 104.144155 
L 150.910213 104.438322 
L 149.838821 104.730612 
L 149.831777 104.732489 
L 148.753341 105.026656 
L 147.674904 105.320823 
L 146.596468 105.61499 
L 145.518032 105.909157 
L 145.160697 106.008163 
L 144.439595 106.203324 
L 143.361159 106.497491 
L 142.282723 106.791658 
L 141.204287 107.085825 
L 140.477028 107.285714 
L 140.12585 107.379992 
L 139.047414 107.674159 
L 137.968978 107.968326 
L 136.890541 108.262493 
L 135.812105 108.55666 
L 135.788438 108.563265 
L 134.733669 108.850827 
L 133.655232 109.144994 
L 132.576796 109.439161 
L 131.49836 109.733328 
L 131.110151 109.840816 
L 130.419923 110.027495 
L 129.341487 110.321662 
L 128.263051 110.615829 
L 127.184615 110.909996 
L 126.42598 111.118367 
L 126.106178 111.204163 
L 125.027742 111.49833 
L 123.949306 111.792497 
L 122.870869 112.086664 
L 121.792433 112.380831 
L 121.738338 112.395918 
L 120.713997 112.674998 
L 119.63556 112.969165 
L 118.557124 113.263332 
L 117.478688 113.557499 
L 117.059563 113.673469 
L 116.400252 113.851666 
L 115.321815 114.145833 
L 114.243379 114.44 
L 113.164943 114.734167 
L 112.374889 114.95102 
L 112.086506 115.028334 
L 111.00807 115.322501 
L 109.929634 115.616668 
L 108.851197 115.910835 
L 107.772761 116.205002 
L 107.688197 116.228571 
L 106.694325 116.499169 
L 105.615888 116.793336 
L 104.537452 117.087503 
L 103.459016 117.38167 
L 103.008934 117.506122 
L 102.38058 117.675837 
L 101.302143 117.970004 
L 100.223707 118.264171 
L 99.145271 118.558338 
L 98.323755 118.783673 
L 98.066834 118.852505 
L 96.988398 119.146672 
L 95.909962 119.440839 
L 94.831525 119.735006 
L 93.753089 120.029173 
L 93.638016 120.061224 
L 92.674653 120.32334 
L 91.596217 120.617507 
L 90.51778 120.911674 
L 89.439344 121.205841 
L 88.958262 121.338776 
L 88.360908 121.500008 
L 87.282471 121.794175 
L 86.204035 122.088342 
L 85.125599 122.382509 
L 84.272577 122.616327 
L 84.047162 122.676676 
L 82.968726 122.970843 
L 81.89029 123.26501 
L 80.811853 123.559177 
L 79.733417 123.853344 
L 79.587794 123.893878 
L 78.654981 124.147511 
L 77.576545 124.441678 
L 76.498108 124.735845 
L 75.419672 125.030012 
L 74.907549 125.171429 
L 74.341236 125.324179 
L 73.262799 125.618346 
L 72.184363 125.912513 
L 71.105927 126.20668 
L 70.221356 126.44898 
L 70.02749 126.500847 
L 68.949054 126.795014 
L 67.870618 127.089181 
L 66.792182 127.383348 
L 65.713745 127.677515 
L 65.537532 127.726531 
L 64.635309 127.971682 
L 63.556873 128.265849 
L 62.478436 128.560016 
L 61.4 128.854183 
L 61.4 129.004082 
L 61.4 130.281633 
L 61.4 131.559184 
L 61.4 132.836735 
L 61.4 134.114286 
L 61.4 135.391837 
L 61.4 136.669388 
L 61.4 137.946939 
L 61.4 139.22449 
L 61.4 140.502041 
L 61.4 141.779592 
L 61.4 143.057143 
L 61.4 144.334694 
L 61.4 145.612245 
L 61.4 146.889796 
L 61.4 148.167347 
L 61.4 149.444898 
L 61.4 150.722449 
L 61.4 152 
z
" style="fill:#b4e1ad;"/>
   </g>
   <g id="PathCollection_4">
    <path clip-path="url(#p81f96b0de8)" d="M 62.478436 128.560016 
L 63.556873 128.265849 
L 64.635309 127.971682 
L 65.537532 127.726531 
L 65.713745 127.677515 
L 66.792182 127.383348 
L 67.870618 127.089181 
L 68.949054 126.795014 
L 70.02749 126.500847 
L 70.221356 126.44898 
L 71.105927 126.20668 
L 72.184363 125.912513 
L 73.262799 125.618346 
L 74.341236 125.324179 
L 74.907549 125.171429 
L 75.419672 125.030012 
L 76.498108 124.735845 
L 77.576545 124.441678 
L 78.654981 124.147511 
L 79.587794 123.893878 
L 79.733417 123.853344 
L 80.811853 123.559177 
L 81.89029 123.26501 
L 82.968726 122.970843 
L 84.047162 122.676676 
L 84.272577 122.616327 
L 85.125599 122.382509 
L 86.204035 122.088342 
L 87.282471 121.794175 
L 88.360908 121.500008 
L 88.958262 121.338776 
L 89.439344 121.205841 
L 90.51778 120.911674 
L 91.596217 120.617507 
L 92.674653 120.32334 
L 93.638016 120.061224 
L 93.753089 120.029173 
L 94.831525 119.735006 
L 95.909962 119.440839 
L 96.988398 119.146672 
L 98.066834 118.852505 
L 98.323755 118.783673 
L 99.145271 118.558338 
L 100.223707 118.264171 
L 101.302143 117.970004 
L 102.38058 117.675837 
L 103.008934 117.506122 
L 103.459016 117.38167 
L 104.537452 117.087503 
L 105.615888 116.793336 
L 106.694325 116.499169 
L 107.688197 116.228571 
L 107.772761 116.205002 
L 108.851197 115.910835 
L 109.929634 115.616668 
L 111.00807 115.322501 
L 112.086506 115.028334 
L 112.374889 114.95102 
L 113.164943 114.734167 
L 114.243379 114.44 
L 115.321815 114.145833 
L 116.400252 113.851666 
L 117.059563 113.673469 
L 117.478688 113.557499 
L 118.557124 113.263332 
L 119.63556 112.969165 
L 120.713997 112.674998 
L 121.738338 112.395918 
L 121.792433 112.380831 
L 122.870869 112.086664 
L 123.949306 111.792497 
L 125.027742 111.49833 
L 126.106178 111.204163 
L 126.42598 111.118367 
L 127.184615 110.909996 
L 128.263051 110.615829 
L 129.341487 110.321662 
L 130.419923 110.027495 
L 131.110151 109.840816 
L 131.49836 109.733328 
L 132.576796 109.439161 
L 133.655232 109.144994 
L 134.733669 108.850827 
L 135.788438 108.563265 
L 135.812105 108.55666 
L 136.890541 108.262493 
L 137.968978 107.968326 
L 139.047414 107.674159 
L 140.12585 107.379992 
L 140.477028 107.285714 
L 141.204287 107.085825 
L 142.282723 106.791658 
L 143.361159 106.497491 
L 144.439595 106.203324 
L 145.160697 106.008163 
L 145.518032 105.909157 
L 146.596468 105.61499 
L 147.674904 105.320823 
L 148.753341 105.026656 
L 149.831777 104.732489 
L 149.838821 104.730612 
L 150.910213 104.438322 
L 151.98865 104.144155 
L 153.067086 103.849988 
L 154.145522 103.555821 
L 154.528034 103.453061 
L 155.223958 103.261654 
L 156.302395 102.967487 
L 157.380831 102.67332 
L 158.459267 102.379153 
L 159.211202 102.17551 
L 159.537704 102.084986 
L 160.61614 101.790819 
L 161.694576 101.496652 
L 162.773013 101.202485 
L 163.851449 100.908318 
L 163.8903 100.897959 
L 164.929885 100.614151 
L 166.008322 100.319984 
L 167.086758 100.025817 
L 167.086758 99.620408 
L 167.086758 98.342857 
L 167.086758 97.065306 
L 167.086758 95.787755 
L 167.086758 94.510204 
L 167.086758 93.232653 
L 167.086758 91.955102 
L 167.086758 90.677551 
L 167.086758 89.4 
L 167.086758 88.122449 
L 167.086758 86.844898 
L 167.086758 85.567347 
L 167.086758 84.289796 
L 167.086758 83.012245 
L 167.086758 81.734694 
L 167.086758 80.457143 
L 167.086758 79.179592 
L 167.086758 77.902041 
L 167.086758 76.62449 
L 167.086758 75.346939 
L 167.086758 74.985817 
L 166.008322 75.279984 
L 165.767278 75.346939 
L 164.929885 75.574151 
L 163.851449 75.868318 
L 162.773013 76.162485 
L 161.694576 76.456652 
L 161.085494 76.62449 
L 160.61614 76.750819 
L 159.537704 77.044986 
L 158.459267 77.339153 
L 157.380831 77.63332 
L 156.397712 77.902041 
L 156.302395 77.927487 
L 155.223958 78.221654 
L 154.145522 78.515821 
L 153.067086 78.809988 
L 151.98865 79.104155 
L 151.716888 79.179592 
L 150.910213 79.398322 
L 149.831777 79.692489 
L 148.753341 79.986656 
L 147.674904 80.280823 
L 147.034607 80.457143 
L 146.596468 80.57499 
L 145.518032 80.869157 
L 144.439595 81.163324 
L 143.361159 81.457491 
L 142.346311 81.734694 
L 142.282723 81.751658 
L 141.204287 82.045825 
L 140.12585 82.339992 
L 139.047414 82.634159 
L 137.968978 82.928326 
L 137.666457 83.012245 
L 136.890541 83.222493 
L 135.812105 83.51666 
L 134.733669 83.810827 
L 133.655232 84.104994 
L 132.983678 84.289796 
L 132.576796 84.399161 
L 131.49836 84.693328 
L 130.419923 84.987495 
L 129.341487 85.281662 
L 128.294867 85.567347 
L 128.263051 85.575829 
L 127.184615 85.869996 
L 126.106178 86.164163 
L 125.027742 86.45833 
L 123.949306 86.752497 
L 123.615985 86.844898 
L 122.870869 87.046664 
L 121.792433 87.340831 
L 120.713997 87.634998 
L 119.63556 87.929165 
L 118.932706 88.122449 
L 118.557124 88.223332 
L 117.478688 88.517499 
L 116.400252 88.811666 
L 115.321815 89.105833 
L 114.243379 89.4 
L 114.243379 89.4 
L 113.164943 89.694167 
L 112.086506 89.988334 
L 111.00807 90.282501 
L 109.929634 90.576668 
L 109.565471 90.677551 
L 108.851197 90.870835 
L 107.772761 91.165002 
L 106.694325 91.459169 
L 105.615888 91.753336 
L 104.881691 91.955102 
L 104.537452 92.047503 
L 103.459016 92.34167 
L 102.38058 92.635837 
L 101.302143 92.930004 
L 100.223707 93.224171 
L 100.19331 93.232653 
L 99.145271 93.518338 
L 98.066834 93.812505 
L 96.988398 94.106672 
L 95.909962 94.400839 
L 95.514915 94.510204 
L 94.831525 94.695006 
L 93.753089 94.989173 
L 92.674653 95.28334 
L 91.596217 95.577507 
L 90.830633 95.787755 
L 90.51778 95.871674 
L 89.439344 96.165841 
L 88.360908 96.460008 
L 87.282471 96.754175 
L 86.204035 97.048342 
L 86.143201 97.065306 
L 85.125599 97.342509 
L 84.047162 97.636676 
L 82.968726 97.930843 
L 81.89029 98.22501 
L 81.464318 98.342857 
L 80.811853 98.519177 
L 79.733417 98.813344 
L 78.654981 99.107511 
L 77.576545 99.401678 
L 76.779532 99.620408 
L 76.498108 99.695845 
L 75.419672 99.990012 
L 74.341236 100.284179 
L 73.262799 100.578346 
L 72.184363 100.872513 
L 72.093051 100.897959 
L 71.105927 101.16668 
L 70.02749 101.460847 
L 68.949054 101.755014 
L 67.870618 102.049181 
L 67.41368 102.17551 
L 66.792182 102.343348 
L 65.713745 102.637515 
L 64.635309 102.931682 
L 63.556873 103.225849 
L 62.728389 103.453061 
L 62.478436 103.520016 
L 61.4 103.814183 
L 61.4 104.730612 
L 61.4 106.008163 
L 61.4 107.285714 
L 61.4 108.563265 
L 61.4 109.840816 
L 61.4 111.118367 
L 61.4 112.395918 
L 61.4 113.673469 
L 61.4 114.95102 
L 61.4 116.228571 
L 61.4 117.506122 
L 61.4 118.783673 
L 61.4 120.061224 
L 61.4 121.338776 
L 61.4 122.616327 
L 61.4 123.893878 
L 61.4 125.171429 
L 61.4 126.44898 
L 61.4 127.726531 
L 61.4 128.854183 
z
" style="fill:#8ace88;"/>
   </g>
   <g id="PathCollection_5">
    <path clip-path="url(#p81f96b0de8)" d="M 62.478436 103.520016 
L 62.728389 103.453061 
L 63.556873 103.225849 
L 64.635309 102.931682 
L 65.713745 102.637515 
L 66.792182 102.343348 
L 67.41368 102.17551 
L 67.870618 102.049181 
L 68.949054 101.755014 
L 70.02749 101.460847 
L 71.105927 101.16668 
L 72.093051 100.897959 
L 72.184363 100.872513 
L 73.262799 100.578346 
L 74.341236 100.284179 
L 75.419672 99.990012 
L 76.498108 99.695845 
L 76.779532 99.620408 
L 77.576545 99.401678 
L 78.654981 99.107511 
L 79.733417 98.813344 
L 80.811853 98.519177 
L 81.464318 98.342857 
L 81.89029 98.22501 
L 82.968726 97.930843 
L 84.047162 97.636676 
L 85.125599 97.342509 
L 86.143201 97.065306 
L 86.204035 97.048342 
L 87.282471 96.754175 
L 88.360908 96.460008 
L 89.439344 96.165841 
L 90.51778 95.871674 
L 90.830633 95.787755 
L 91.596217 95.577507 
L 92.674653 95.28334 
L 93.753089 94.989173 
L 94.831525 94.695006 
L 95.514915 94.510204 
L 95.909962 94.400839 
L 96.988398 94.106672 
L 98.066834 93.812505 
L 99.145271 93.518338 
L 100.19331 93.232653 
L 100.223707 93.224171 
L 101.302143 92.930004 
L 102.38058 92.635837 
L 103.459016 92.34167 
L 104.537452 92.047503 
L 104.881691 91.955102 
L 105.615888 91.753336 
L 106.694325 91.459169 
L 107.772761 91.165002 
L 108.851197 90.870835 
L 109.565471 90.677551 
L 109.929634 90.576668 
L 111.00807 90.282501 
L 112.086506 89.988334 
L 113.164943 89.694167 
L 114.243379 89.4 
L 114.243379 89.4 
L 115.321815 89.105833 
L 116.400252 88.811666 
L 117.478688 88.517499 
L 118.557124 88.223332 
L 118.932706 88.122449 
L 119.63556 87.929165 
L 120.713997 87.634998 
L 121.792433 87.340831 
L 122.870869 87.046664 
L 123.615985 86.844898 
L 123.949306 86.752497 
L 125.027742 86.45833 
L 126.106178 86.164163 
L 127.184615 85.869996 
L 128.263051 85.575829 
L 128.294867 85.567347 
L 129.341487 85.281662 
L 130.419923 84.987495 
L 131.49836 84.693328 
L 132.576796 84.399161 
L 132.983678 84.289796 
L 133.655232 84.104994 
L 134.733669 83.810827 
L 135.812105 83.51666 
L 136.890541 83.222493 
L 137.666457 83.012245 
L 137.968978 82.928326 
L 139.047414 82.634159 
L 140.12585 82.339992 
L 141.204287 82.045825 
L 142.282723 81.751658 
L 142.346311 81.734694 
L 143.361159 81.457491 
L 144.439595 81.163324 
L 145.518032 80.869157 
L 146.596468 80.57499 
L 147.034607 80.457143 
L 147.674904 80.280823 
L 148.753341 79.986656 
L 149.831777 79.692489 
L 150.910213 79.398322 
L 151.716888 79.179592 
L 151.98865 79.104155 
L 153.067086 78.809988 
L 154.145522 78.515821 
L 155.223958 78.221654 
L 156.302395 77.927487 
L 156.397712 77.902041 
L 157.380831 77.63332 
L 158.459267 77.339153 
L 159.537704 77.044986 
L 160.61614 76.750819 
L 161.085494 76.62449 
L 161.694576 76.456652 
L 162.773013 76.162485 
L 163.851449 75.868318 
L 164.929885 75.574151 
L 165.767278 75.346939 
L 166.008322 75.279984 
L 167.086758 74.985817 
L 167.086758 74.069388 
L 167.086758 72.791837 
L 167.086758 71.514286 
L 167.086758 70.236735 
L 167.086758 68.959184 
L 167.086758 67.681633 
L 167.086758 66.404082 
L 167.086758 65.126531 
L 167.086758 63.84898 
L 167.086758 62.571429 
L 167.086758 61.293878 
L 167.086758 60.016327 
L 167.086758 58.738776 
L 167.086758 57.461224 
L 167.086758 56.183673 
L 167.086758 54.906122 
L 167.086758 53.628571 
L 167.086758 52.35102 
L 167.086758 51.073469 
L 167.086758 49.945817 
L 166.008322 50.239984 
L 164.929885 50.534151 
L 163.851449 50.828318 
L 162.956264 51.073469 
L 162.773013 51.122485 
L 161.694576 51.416652 
L 160.61614 51.710819 
L 159.537704 52.004986 
L 158.459267 52.299153 
L 158.272762 52.35102 
L 157.380831 52.59332 
L 156.302395 52.887487 
L 155.223958 53.181654 
L 154.145522 53.475821 
L 153.591858 53.628571 
L 153.067086 53.769988 
L 151.98865 54.064155 
L 150.910213 54.358322 
L 149.831777 54.652489 
L 148.904985 54.906122 
L 148.753341 54.946656 
L 147.674904 55.240823 
L 146.596468 55.53499 
L 145.518032 55.829157 
L 144.439595 56.123324 
L 144.222445 56.183673 
L 143.361159 56.417491 
L 142.282723 56.711658 
L 141.204287 57.005825 
L 140.12585 57.299992 
L 139.541046 57.461224 
L 139.047414 57.594159 
L 137.968978 57.888326 
L 136.890541 58.182493 
L 135.812105 58.47666 
L 134.853662 58.738776 
L 134.733669 58.770827 
L 133.655232 59.064994 
L 132.576796 59.359161 
L 131.49836 59.653328 
L 130.419923 59.947495 
L 130.172086 60.016327 
L 129.341487 60.241662 
L 128.263051 60.535829 
L 127.184615 60.829996 
L 126.106178 61.124163 
L 125.490192 61.293878 
L 125.027742 61.41833 
L 123.949306 61.712497 
L 122.870869 62.006664 
L 121.792433 62.300831 
L 120.802296 62.571429 
L 120.713997 62.594998 
L 119.63556 62.889165 
L 118.557124 63.183332 
L 117.478688 63.477499 
L 116.400252 63.771666 
L 116.121687 63.84898 
L 115.321815 64.065833 
L 114.243379 64.36 
L 113.164943 64.654167 
L 112.086506 64.948334 
L 111.439296 65.126531 
L 111.00807 65.242501 
L 109.929634 65.536668 
L 108.851197 65.830835 
L 107.772761 66.125002 
L 106.750886 66.404082 
L 106.694325 66.419169 
L 105.615888 66.713336 
L 104.537452 67.007503 
L 103.459016 67.30167 
L 102.38058 67.595837 
L 102.071247 67.681633 
L 101.302143 67.890004 
L 100.223707 68.184171 
L 99.145271 68.478338 
L 98.066834 68.772505 
L 97.388357 68.959184 
L 96.988398 69.066672 
L 95.909962 69.360839 
L 94.831525 69.655006 
L 93.753089 69.949173 
L 92.699432 70.236735 
L 92.674653 70.24334 
L 91.596217 70.537507 
L 90.51778 70.831674 
L 89.439344 71.125841 
L 88.360908 71.420008 
L 88.020765 71.514286 
L 87.282471 71.714175 
L 86.204035 72.008342 
L 85.125599 72.302509 
L 84.047162 72.596676 
L 83.337376 72.791837 
L 82.968726 72.890843 
L 81.89029 73.18501 
L 80.811853 73.479177 
L 79.733417 73.773344 
L 78.654981 74.067511 
L 78.648258 74.069388 
L 77.576545 74.361678 
L 76.498108 74.655845 
L 75.419672 74.950012 
L 74.341236 75.244179 
L 73.970242 75.346939 
L 73.262799 75.538346 
L 72.184363 75.832513 
L 71.105927 76.12668 
L 70.02749 76.420847 
L 69.286351 76.62449 
L 68.949054 76.715014 
L 67.870618 77.009181 
L 66.792182 77.303348 
L 65.713745 77.597515 
L 64.635309 77.891682 
L 64.59818 77.902041 
L 63.556873 78.185849 
L 62.478436 78.480016 
L 61.4 78.774183 
L 61.4 79.179592 
L 61.4 80.457143 
L 61.4 81.734694 
L 61.4 83.012245 
L 61.4 84.289796 
L 61.4 85.567347 
L 61.4 86.844898 
L 61.4 88.122449 
L 61.4 89.4 
L 61.4 90.677551 
L 61.4 91.955102 
L 61.4 93.232653 
L 61.4 94.510204 
L 61.4 95.787755 
L 61.4 97.065306 
L 61.4 98.342857 
L 61.4 99.620408 
L 61.4 100.897959 
L 61.4 102.17551 
L 61.4 103.453061 
L 61.4 103.814183 
z
" style="fill:#5ab769;"/>
   </g>
   <g id="PathCollection_6">
    <path clip-path="url(#p81f96b0de8)" d="M 62.478436 78.480016 
L 63.556873 78.185849 
L 64.59818 77.902041 
L 64.635309 77.891682 
L 65.713745 77.597515 
L 66.792182 77.303348 
L 67.870618 77.009181 
L 68.949054 76.715014 
L 69.286351 76.62449 
L 70.02749 76.420847 
L 71.105927 76.12668 
L 72.184363 75.832513 
L 73.262799 75.538346 
L 73.970242 75.346939 
L 74.341236 75.244179 
L 75.419672 74.950012 
L 76.498108 74.655845 
L 77.576545 74.361678 
L 78.648258 74.069388 
L 78.654981 74.067511 
L 79.733417 73.773344 
L 80.811853 73.479177 
L 81.89029 73.18501 
L 82.968726 72.890843 
L 83.337376 72.791837 
L 84.047162 72.596676 
L 85.125599 72.302509 
L 86.204035 72.008342 
L 87.282471 71.714175 
L 88.020765 71.514286 
L 88.360908 71.420008 
L 89.439344 71.125841 
L 90.51778 70.831674 
L 91.596217 70.537507 
L 92.674653 70.24334 
L 92.699432 70.236735 
L 93.753089 69.949173 
L 94.831525 69.655006 
L 95.909962 69.360839 
L 96.988398 69.066672 
L 97.388357 68.959184 
L 98.066834 68.772505 
L 99.145271 68.478338 
L 100.223707 68.184171 
L 101.302143 67.890004 
L 102.071247 67.681633 
L 102.38058 67.595837 
L 103.459016 67.30167 
L 104.537452 67.007503 
L 105.615888 66.713336 
L 106.694325 66.419169 
L 106.750886 66.404082 
L 107.772761 66.125002 
L 108.851197 65.830835 
L 109.929634 65.536668 
L 111.00807 65.242501 
L 111.439296 65.126531 
L 112.086506 64.948334 
L 113.164943 64.654167 
L 114.243379 64.36 
L 115.321815 64.065833 
L 116.121687 63.84898 
L 116.400252 63.771666 
L 117.478688 63.477499 
L 118.557124 63.183332 
L 119.63556 62.889165 
L 120.713997 62.594998 
L 120.802296 62.571429 
L 121.792433 62.300831 
L 122.870869 62.006664 
L 123.949306 61.712497 
L 125.027742 61.41833 
L 125.490192 61.293878 
L 126.106178 61.124163 
L 127.184615 60.829996 
L 128.263051 60.535829 
L 129.341487 60.241662 
L 130.172086 60.016327 
L 130.419923 59.947495 
L 131.49836 59.653328 
L 132.576796 59.359161 
L 133.655232 59.064994 
L 134.733669 58.770827 
L 134.853662 58.738776 
L 135.812105 58.47666 
L 136.890541 58.182493 
L 137.968978 57.888326 
L 139.047414 57.594159 
L 139.541046 57.461224 
L 140.12585 57.299992 
L 141.204287 57.005825 
L 142.282723 56.711658 
L 143.361159 56.417491 
L 144.222445 56.183673 
L 144.439595 56.123324 
L 145.518032 55.829157 
L 146.596468 55.53499 
L 147.674904 55.240823 
L 148.753341 54.946656 
L 148.904985 54.906122 
L 149.831777 54.652489 
L 150.910213 54.358322 
L 151.98865 54.064155 
L 153.067086 53.769988 
L 153.591858 53.628571 
L 154.145522 53.475821 
L 155.223958 53.181654 
L 156.302395 52.887487 
L 157.380831 52.59332 
L 158.272762 52.35102 
L 158.459267 52.299153 
L 159.537704 52.004986 
L 160.61614 51.710819 
L 161.694576 51.416652 
L 162.773013 51.122485 
L 162.956264 51.073469 
L 163.851449 50.828318 
L 164.929885 50.534151 
L 166.008322 50.239984 
L 167.086758 49.945817 
L 167.086758 49.795918 
L 167.086758 48.518367 
L 167.086758 47.240816 
L 167.086758 45.963265 
L 167.086758 44.685714 
L 167.086758 43.408163 
L 167.086758 42.130612 
L 167.086758 40.853061 
L 167.086758 39.57551 
L 167.086758 38.297959 
L 167.086758 37.020408 
L 167.086758 35.742857 
L 167.086758 34.465306 
L 167.086758 33.187755 
L 167.086758 31.910204 
L 167.086758 30.632653 
L 167.086758 29.355102 
L 167.086758 28.077551 
L 167.086758 26.8 
L 166.008322 26.8 
L 164.929885 26.8 
L 163.851449 26.8 
L 162.773013 26.8 
L 161.694576 26.8 
L 160.61614 26.8 
L 160.148783 26.8 
L 159.537704 26.964986 
L 158.459267 27.259153 
L 157.380831 27.55332 
L 156.302395 27.847487 
L 155.463322 28.077551 
L 155.223958 28.141654 
L 154.145522 28.435821 
L 153.067086 28.729988 
L 151.98865 29.024155 
L 150.910213 29.318322 
L 150.778116 29.355102 
L 149.831777 29.612489 
L 148.753341 29.906656 
L 147.674904 30.200823 
L 146.596468 30.49499 
L 146.098088 30.632653 
L 145.518032 30.789157 
L 144.439595 31.083324 
L 143.361159 31.377491 
L 142.282723 31.671658 
L 141.41212 31.910204 
L 141.204287 31.965825 
L 140.12585 32.259992 
L 139.047414 32.554159 
L 137.968978 32.848326 
L 136.890541 33.142493 
L 136.727871 33.187755 
L 135.812105 33.43666 
L 134.733669 33.730827 
L 133.655232 34.024994 
L 132.576796 34.319161 
L 132.047352 34.465306 
L 131.49836 34.613328 
L 130.419923 34.907495 
L 129.341487 35.201662 
L 128.263051 35.495829 
L 127.360875 35.742857 
L 127.184615 35.789996 
L 126.106178 36.084163 
L 125.027742 36.37833 
L 123.949306 36.672497 
L 122.870869 36.966664 
L 122.677586 37.020408 
L 121.792433 37.260831 
L 120.713997 37.554998 
L 119.63556 37.849165 
L 118.557124 38.143332 
L 117.996573 38.297959 
L 117.478688 38.437499 
L 116.400252 38.731666 
L 115.321815 39.025833 
L 114.243379 39.32 
L 113.309587 39.57551 
L 113.164943 39.614167 
L 112.086506 39.908334 
L 111.00807 40.202501 
L 109.929634 40.496668 
L 108.851197 40.790835 
L 108.62726 40.853061 
L 107.772761 41.085002 
L 106.694325 41.379169 
L 105.615888 41.673336 
L 104.537452 41.967503 
L 103.945752 42.130612 
L 103.459016 42.26167 
L 102.38058 42.555837 
L 101.302143 42.850004 
L 100.223707 43.144171 
L 99.258255 43.408163 
L 99.145271 43.438338 
L 98.066834 43.732505 
L 96.988398 44.026672 
L 95.909962 44.320839 
L 94.831525 44.615006 
L 94.576893 44.685714 
L 93.753089 44.909173 
L 92.674653 45.20334 
L 91.596217 45.497507 
L 90.51778 45.791674 
L 89.894889 45.963265 
L 89.439344 46.085841 
L 88.360908 46.380008 
L 87.282471 46.674175 
L 86.204035 46.968342 
L 85.206879 47.240816 
L 85.125599 47.262509 
L 84.047162 47.556676 
L 82.968726 47.850843 
L 81.89029 48.14501 
L 80.811853 48.439177 
L 80.526484 48.518367 
L 79.733417 48.733344 
L 78.654981 49.027511 
L 77.576545 49.321678 
L 76.498108 49.615845 
L 75.843983 49.795918 
L 75.419672 49.910012 
L 74.341236 50.204179 
L 73.262799 50.498346 
L 72.184363 50.792513 
L 71.155459 51.073469 
L 71.105927 51.08668 
L 70.02749 51.380847 
L 68.949054 51.675014 
L 67.870618 51.969181 
L 66.792182 52.263348 
L 66.476035 52.35102 
L 65.713745 52.557515 
L 64.635309 52.851682 
L 63.556873 53.145849 
L 62.478436 53.440016 
L 61.793034 53.628571 
L 61.4 53.734183 
L 61.4 54.906122 
L 61.4 56.183673 
L 61.4 57.461224 
L 61.4 58.738776 
L 61.4 60.016327 
L 61.4 61.293878 
L 61.4 62.571429 
L 61.4 63.84898 
L 61.4 65.126531 
L 61.4 66.404082 
L 61.4 67.681633 
L 61.4 68.959184 
L 61.4 70.236735 
L 61.4 71.514286 
L 61.4 72.791837 
L 61.4 74.069388 
L 61.4 75.346939 
L 61.4 76.62449 
L 61.4 77.902041 
L 61.4 78.774183 
z
" style="fill:#319a50;"/>
   </g>
   <g id="PathCollection_7">
    <path clip-path="url(#p81f96b0de8)" d="M 61.793034 53.628571 
L 62.478436 53.440016 
L 63.556873 53.145849 
L 64.635309 52.851682 
L 65.713745 52.557515 
L 66.476035 52.35102 
L 66.792182 52.263348 
L 67.870618 51.969181 
L 68.949054 51.675014 
L 70.02749 51.380847 
L 71.105927 51.08668 
L 71.155459 51.073469 
L 72.184363 50.792513 
L 73.262799 50.498346 
L 74.341236 50.204179 
L 75.419672 49.910012 
L 75.843983 49.795918 
L 76.498108 49.615845 
L 77.576545 49.321678 
L 78.654981 49.027511 
L 79.733417 48.733344 
L 80.526484 48.518367 
L 80.811853 48.439177 
L 81.89029 48.14501 
L 82.968726 47.850843 
L 84.047162 47.556676 
L 85.125599 47.262509 
L 85.206879 47.240816 
L 86.204035 46.968342 
L 87.282471 46.674175 
L 88.360908 46.380008 
L 89.439344 46.085841 
L 89.894889 45.963265 
L 90.51778 45.791674 
L 91.596217 45.497507 
L 92.674653 45.20334 
L 93.753089 44.909173 
L 94.576893 44.685714 
L 94.831525 44.615006 
L 95.909962 44.320839 
L 96.988398 44.026672 
L 98.066834 43.732505 
L 99.145271 43.438338 
L 99.258255 43.408163 
L 100.223707 43.144171 
L 101.302143 42.850004 
L 102.38058 42.555837 
L 103.459016 42.26167 
L 103.945752 42.130612 
L 104.537452 41.967503 
L 105.615888 41.673336 
L 106.694325 41.379169 
L 107.772761 41.085002 
L 108.62726 40.853061 
L 108.851197 40.790835 
L 109.929634 40.496668 
L 111.00807 40.202501 
L 112.086506 39.908334 
L 113.164943 39.614167 
L 113.309587 39.57551 
L 114.243379 39.32 
L 115.321815 39.025833 
L 116.400252 38.731666 
L 117.478688 38.437499 
L 117.996573 38.297959 
L 118.557124 38.143332 
L 119.63556 37.849165 
L 120.713997 37.554998 
L 121.792433 37.260831 
L 122.677586 37.020408 
L 122.870869 36.966664 
L 123.949306 36.672497 
L 125.027742 36.37833 
L 126.106178 36.084163 
L 127.184615 35.789996 
L 127.360875 35.742857 
L 128.263051 35.495829 
L 129.341487 35.201662 
L 130.419923 34.907495 
L 131.49836 34.613328 
L 132.047352 34.465306 
L 132.576796 34.319161 
L 133.655232 34.024994 
L 134.733669 33.730827 
L 135.812105 33.43666 
L 136.727871 33.187755 
L 136.890541 33.142493 
L 137.968978 32.848326 
L 139.047414 32.554159 
L 140.12585 32.259992 
L 141.204287 31.965825 
L 141.41212 31.910204 
L 142.282723 31.671658 
L 143.361159 31.377491 
L 144.439595 31.083324 
L 145.518032 30.789157 
L 146.098088 30.632653 
L 146.596468 30.49499 
L 147.674904 30.200823 
L 148.753341 29.906656 
L 149.831777 29.612489 
L 150.778116 29.355102 
L 150.910213 29.318322 
L 151.98865 29.024155 
L 153.067086 28.729988 
L 154.145522 28.435821 
L 155.223958 28.141654 
L 155.463322 28.077551 
L 156.302395 27.847487 
L 157.380831 27.55332 
L 158.459267 27.259153 
L 159.537704 26.964986 
L 160.148783 26.8 
L 159.537704 26.8 
L 158.459267 26.8 
L 157.380831 26.8 
L 156.302395 26.8 
L 155.223958 26.8 
L 154.145522 26.8 
L 153.067086 26.8 
L 151.98865 26.8 
L 150.910213 26.8 
L 149.831777 26.8 
L 148.753341 26.8 
L 147.674904 26.8 
L 146.596468 26.8 
L 145.518032 26.8 
L 144.439595 26.8 
L 143.361159 26.8 
L 142.282723 26.8 
L 141.204287 26.8 
L 140.12585 26.8 
L 139.047414 26.8 
L 137.968978 26.8 
L 136.890541 26.8 
L 135.812105 26.8 
L 134.733669 26.8 
L 133.655232 26.8 
L 132.576796 26.8 
L 131.49836 26.8 
L 130.419923 26.8 
L 129.341487 26.8 
L 128.263051 26.8 
L 127.184615 26.8 
L 126.106178 26.8 
L 125.027742 26.8 
L 123.949306 26.8 
L 122.870869 26.8 
L 121.792433 26.8 
L 120.713997 26.8 
L 119.63556 26.8 
L 118.557124 26.8 
L 117.478688 26.8 
L 116.400252 26.8 
L 115.321815 26.8 
L 114.243379 26.8 
L 113.164943 26.8 
L 112.086506 26.8 
L 111.00807 26.8 
L 109.929634 26.8 
L 108.851197 26.8 
L 107.772761 26.8 
L 106.694325 26.8 
L 105.615888 26.8 
L 104.537452 26.8 
L 103.459016 26.8 
L 102.38058 26.8 
L 101.302143 26.8 
L 100.223707 26.8 
L 99.145271 26.8 
L 98.066834 26.8 
L 96.988398 26.8 
L 95.909962 26.8 
L 94.831525 26.8 
L 93.753089 26.8 
L 92.674653 26.8 
L 91.596217 26.8 
L 90.51778 26.8 
L 89.439344 26.8 
L 88.360908 26.8 
L 87.282471 26.8 
L 86.204035 26.8 
L 85.125599 26.8 
L 84.047162 26.8 
L 82.968726 26.8 
L 81.89029 26.8 
L 80.811853 26.8 
L 79.733417 26.8 
L 78.654981 26.8 
L 77.576545 26.8 
L 76.498108 26.8 
L 75.419672 26.8 
L 74.341236 26.8 
L 73.262799 26.8 
L 72.184363 26.8 
L 71.105927 26.8 
L 70.02749 26.8 
L 68.949054 26.8 
L 68.350455 26.8 
L 67.870618 26.929181 
L 66.792182 27.223348 
L 65.713745 27.517515 
L 64.635309 27.811682 
L 63.662845 28.077551 
L 63.556873 28.105849 
L 62.478436 28.400016 
L 61.4 28.694183 
L 61.4 29.355102 
L 61.4 30.632653 
L 61.4 31.910204 
L 61.4 33.187755 
L 61.4 34.465306 
L 61.4 35.742857 
L 61.4 37.020408 
L 61.4 38.297959 
L 61.4 39.57551 
L 61.4 40.853061 
L 61.4 42.130612 
L 61.4 43.408163 
L 61.4 44.685714 
L 61.4 45.963265 
L 61.4 47.240816 
L 61.4 48.518367 
L 61.4 49.795918 
L 61.4 51.073469 
L 61.4 52.35102 
L 61.4 53.628571 
L 61.4 53.734183 
z
" style="fill:#117b38;"/>
   </g>
   <g id="PathCollection_8">
    <path clip-path="url(#p81f96b0de8)" d="M 62.478436 28.400016 
L 63.556873 28.105849 
L 63.662845 28.077551 
L 64.635309 27.811682 
L 65.713745 27.517515 
L 66.792182 27.223348 
L 67.870618 26.929181 
L 68.350455 26.8 
L 67.870618 26.8 
L 66.792182 26.8 
L 65.713745 26.8 
L 64.635309 26.8 
L 63.556873 26.8 
L 62.478436 26.8 
L 61.4 26.8 
L 61.4 28.077551 
L 61.4 28.694183 
z
" style="fill:#005723;"/>
   </g>
   <g id="matplotlib.axis_1">
    <g id="xtick_1">
     <g id="line2d_1">
      <defs>
       <path d="M 0 0 
L 0 3.5 
" id="mc75c103f75" style="stroke:#000000;stroke-width:0.8;"/>
      </defs>
      <g>
       <use style="stroke:#000000;stroke-width:0.8;" x="61.4" xlink:href="#mc75c103f75" y="152"/>
      </g>
     </g>
     <g id="text_1">
      <!-- $\mathdefault{10^{-1}}$ -->
      <defs>
       <path d="M 12.40625 8.296875 
L 28.515625 8.296875 
L 28.515625 63.921875 
L 10.984375 60.40625 
L 10.984375 69.390625 
L 28.421875 72.90625 
L 38.28125 72.90625 
L 38.28125 8.296875 
L 54.390625 8.296875 
L 54.390625 0 
L 12.40625 0 
z
" id="DejaVuSans-31"/>
       <path d="M 31.78125 66.40625 
Q 24.171875 66.40625 20.328125 58.90625 
Q 16.5 51.421875 16.5 36.375 
Q 16.5 21.390625 20.328125 13.890625 
Q 24.171875 6.390625 31.78125 6.390625 
Q 39.453125 6.390625 43.28125 13.890625 
Q 47.125 21.390625 47.125 36.375 
Q 47.125 51.421875 43.28125 58.90625 
Q 39.453125 66.40625 31.78125 66.40625 
z
M 31.78125 74.21875 
Q 44.046875 74.21875 50.515625 64.515625 
Q 56.984375 54.828125 56.984375 36.375 
Q 56.984375 17.96875 50.515625 8.265625 
Q 44.046875 -1.421875 31.78125 -1.421875 
Q 19.53125 -1.421875 13.0625 8.265625 
Q 6.59375 17.96875 6.59375 36.375 
Q 6.59375 54.828125 13.0625 64.515625 
Q 19.53125 74.21875 31.78125 74.21875 
z
" id="DejaVuSans-30"/>
       <path d="M 10.59375 35.5 
L 73.1875 35.5 
L 73.1875 27.203125 
L 10.59375 27.203125 
z
" id="DejaVuSans-2212"/>
      </defs>
      <g transform="translate(49.65 166.598437)scale(0.1 -0.1)">
       <use transform="translate(0 0.684375)" xlink:href="#DejaVuSans-31"/>
       <use transform="translate(63.623047 0.684375)" xlink:href="#DejaVuSans-30"/>
       <use transform="translate(128.203125 38.965625)scale(0.7)" xlink:href="#DejaVuSans-2212"/>
       <use transform="translate(186.855469 38.965625)scale(0.7)" xlink:href="#DejaVuSans-31"/>
      </g>
     </g>
    </g>
    <g id="xtick_2">
     <g id="line2d_2">
      <g>
       <use style="stroke:#000000;stroke-width:0.8;" x="114.243379" xlink:href="#mc75c103f75" y="152"/>
      </g>
     </g>
     <g id="text_2">
      <!-- $\mathdefault{10^{0}}$ -->
      <g transform="translate(105.443379 166.598437)scale(0.1 -0.1)">
       <use transform="translate(0 0.765625)" xlink:href="#DejaVuSans-31"/>
       <use transform="translate(63.623047 0.765625)" xlink:href="#DejaVuSans-30"/>
       <use transform="translate(128.203125 39.046875)scale(0.7)" xlink:href="#DejaVuSans-30"/>
      </g>
     </g>
    </g>
    <g id="xtick_3">
     <g id="line2d_3">
      <g>
       <use style="stroke:#000000;stroke-width:0.8;" x="167.086758" xlink:href="#mc75c103f75" y="152"/>
      </g>
     </g>
     <g id="text_3">
      <!-- $\mathdefault{10^{1}}$ -->
      <g transform="translate(158.286758 166.598437)scale(0.1 -0.1)">
       <use transform="translate(0 0.684375)" xlink:href="#DejaVuSans-31"/>
       <use transform="translate(63.623047 0.684375)" xlink:href="#DejaVuSans-30"/>
       <use transform="translate(128.203125 38.965625)scale(0.7)" xlink:href="#DejaVuSans-31"/>
      </g>
     </g>
    </g>
    <g id="xtick_4">
     <g id="line2d_4">
      <defs>
       <path d="M 0 0 
L 0 2 
" id="m26af406910" style="stroke:#000000;stroke-width:0.6;"/>
      </defs>
      <g>
       <use style="stroke:#000000;stroke-width:0.6;" x="77.307442" xlink:href="#m26af406910" y="152"/>
      </g>
     </g>
    </g>
    <g id="xtick_5">
     <g id="line2d_5">
      <g>
       <use style="stroke:#000000;stroke-width:0.6;" x="86.612699" xlink:href="#m26af406910" y="152"/>
      </g>
     </g>
    </g>
    <g id="xtick_6">
     <g id="line2d_6">
      <g>
       <use style="stroke:#000000;stroke-width:0.6;" x="93.214884" xlink:href="#m26af406910" y="152"/>
      </g>
     </g>
    </g>
    <g id="xtick_7">
     <g id="line2d_7">
      <g>
       <use style="stroke:#000000;stroke-width:0.6;" x="98.335937" xlink:href="#m26af406910" y="152"/>
      </g>
     </g>
    </g>
    <g id="xtick_8">
     <g id="line2d_8">
      <g>
       <use style="stroke:#000000;stroke-width:0.6;" x="102.520141" xlink:href="#m26af406910" y="152"/>
      </g>
     </g>
    </g>
    <g id="xtick_9">
     <g id="line2d_9">
      <g>
       <use style="stroke:#000000;stroke-width:0.6;" x="106.057836" xlink:href="#m26af406910" y="152"/>
      </g>
     </g>
    </g>
    <g id="xtick_10">
     <g id="line2d_10">
      <g>
       <use style="stroke:#000000;stroke-width:0.6;" x="109.122326" xlink:href="#m26af406910" y="152"/>
      </g>
     </g>
    </g>
    <g id="xtick_11">
     <g id="line2d_11">
      <g>
       <use style="stroke:#000000;stroke-width:0.6;" x="111.825398" xlink:href="#m26af406910" y="152"/>
      </g>
     </g>
    </g>
    <g id="xtick_12">
     <g id="line2d_12">
      <g>
       <use style="stroke:#000000;stroke-width:0.6;" x="130.150821" xlink:href="#m26af406910" y="152"/>
      </g>
     </g>
    </g>
    <g id="xtick_13">
     <g id="line2d_13">
      <g>
       <use style="stroke:#000000;stroke-width:0.6;" x="139.456078" xlink:href="#m26af406910" y="152"/>
      </g>
     </g>
    </g>
    <g id="xtick_14">
     <g id="line2d_14">
      <g>
       <use style="stroke:#000000;stroke-width:0.6;" x="146.058263" xlink:href="#m26af406910" y="152"/>
      </g>
     </g>
    </g>
    <g id="xtick_15">
     <g id="line2d_15">
      <g>
       <use style="stroke:#000000;stroke-width:0.6;" x="151.179316" xlink:href="#m26af406910" y="152"/>
      </g>
     </g>
    </g>
    <g id="xtick_16">
     <g id="line2d_16">
      <g>
       <use style="stroke:#000000;stroke-width:0.6;" x="155.36352" xlink:href="#m26af406910" y="152"/>
      </g>
     </g>
    </g>
    <g id="xtick_17">
     <g id="line2d_17">
      <g>
       <use style="stroke:#000000;stroke-width:0.6;" x="158.901215" xlink:href="#m26af406910" y="152"/>
      </g>
     </g>
    </g>
    <g id="xtick_18">
     <g id="line2d_18">
      <g>
       <use style="stroke:#000000;stroke-width:0.6;" x="161.965705" xlink:href="#m26af406910" y="152"/>
      </g>
     </g>
    </g>
    <g id="xtick_19">
     <g id="line2d_19">
      <g>
       <use style="stroke:#000000;stroke-width:0.6;" x="164.668777" xlink:href="#m26af406910" y="152"/>
      </g>
     </g>
    </g>
    <g id="text_4">
     <!-- $r$ -->
     <defs>
      <path d="M 44.578125 46.390625 
Q 43.21875 47.125 41.453125 47.515625 
Q 39.703125 47.90625 37.703125 47.90625 
Q 30.515625 47.90625 25.140625 42.453125 
Q 19.78125 37.015625 18.015625 27.875 
L 12.5 0 
L 3.515625 0 
L 14.203125 54.6875 
L 23.1875 54.6875 
L 21.484375 46.1875 
Q 25.046875 50.921875 30 53.453125 
Q 34.96875 56 40.578125 56 
Q 42.046875 56 43.453125 55.828125 
Q 44.875 55.671875 46.296875 55.28125 
z
" id="DejaVuSans-Oblique-72"/>
     </defs>
     <g transform="translate(111.303379 183.315937)scale(0.14 -0.14)">
      <use xlink:href="#DejaVuSans-Oblique-72"/>
     </g>
    </g>
   </g>
   <g id="matplotlib.axis_2">
    <g id="ytick_1">
     <g id="line2d_20">
      <defs>
       <path d="M 0 0 
L -3.5 0 
" id="m9a106b15d6" style="stroke:#000000;stroke-width:0.8;"/>
      </defs>
      <g>
       <use style="stroke:#000000;stroke-width:0.8;" x="61.4" xlink:href="#m9a106b15d6" y="152"/>
      </g>
     </g>
     <g id="text_5">
      <!-- −10 -->
      <g transform="translate(33.295313 155.799219)scale(0.1 -0.1)">
       <use xlink:href="#DejaVuSans-2212"/>
       <use x="83.789062" xlink:href="#DejaVuSans-31"/>
       <use x="147.412109" xlink:href="#DejaVuSans-30"/>
      </g>
     </g>
    </g>
    <g id="ytick_2">
     <g id="line2d_21">
      <g>
       <use style="stroke:#000000;stroke-width:0.8;" x="61.4" xlink:href="#m9a106b15d6" y="120.7"/>
      </g>
     </g>
     <g id="text_6">
      <!-- −5 -->
      <defs>
       <path d="M 10.796875 72.90625 
L 49.515625 72.90625 
L 49.515625 64.59375 
L 19.828125 64.59375 
L 19.828125 46.734375 
Q 21.96875 47.46875 24.109375 47.828125 
Q 26.265625 48.1875 28.421875 48.1875 
Q 40.625 48.1875 47.75 41.5 
Q 54.890625 34.8125 54.890625 23.390625 
Q 54.890625 11.625 47.5625 5.09375 
Q 40.234375 -1.421875 26.90625 -1.421875 
Q 22.3125 -1.421875 17.546875 -0.640625 
Q 12.796875 0.140625 7.71875 1.703125 
L 7.71875 11.625 
Q 12.109375 9.234375 16.796875 8.0625 
Q 21.484375 6.890625 26.703125 6.890625 
Q 35.15625 6.890625 40.078125 11.328125 
Q 45.015625 15.765625 45.015625 23.390625 
Q 45.015625 31 40.078125 35.4375 
Q 35.15625 39.890625 26.703125 39.890625 
Q 22.75 39.890625 18.8125 39.015625 
Q 14.890625 38.140625 10.796875 36.28125 
z
" id="DejaVuSans-35"/>
      </defs>
      <g transform="translate(39.657813 124.499219)scale(0.1 -0.1)">
       <use xlink:href="#DejaVuSans-2212"/>
       <use x="83.789062" xlink:href="#DejaVuSans-35"/>
      </g>
     </g>
    </g>
    <g id="ytick_3">
     <g id="line2d_22">
      <g>
       <use style="stroke:#000000;stroke-width:0.8;" x="61.4" xlink:href="#m9a106b15d6" y="89.4"/>
      </g>
     </g>
     <g id="text_7">
      <!-- 0 -->
      <g transform="translate(48.0375 93.199219)scale(0.1 -0.1)">
       <use xlink:href="#DejaVuSans-30"/>
      </g>
     </g>
    </g>
    <g id="ytick_4">
     <g id="line2d_23">
      <g>
       <use style="stroke:#000000;stroke-width:0.8;" x="61.4" xlink:href="#m9a106b15d6" y="58.1"/>
      </g>
     </g>
     <g id="text_8">
      <!-- 5 -->
      <g transform="translate(48.0375 61.899219)scale(0.1 -0.1)">
       <use xlink:href="#DejaVuSans-35"/>
      </g>
     </g>
    </g>
    <g id="ytick_5">
     <g id="line2d_24">
      <g>
       <use style="stroke:#000000;stroke-width:0.8;" x="61.4" xlink:href="#m9a106b15d6" y="26.8"/>
      </g>
     </g>
     <g id="text_9">
      <!-- 10 -->
      <g transform="translate(41.675 30.599219)scale(0.1 -0.1)">
       <use xlink:href="#DejaVuSans-31"/>
       <use x="63.623047" xlink:href="#DejaVuSans-30"/>
      </g>
     </g>
    </g>
    <g id="text_10">
     <!-- $s N^*$ -->
     <defs>
      <path d="M 50 53.078125 
L 48.296875 44.578125 
Q 44.734375 46.53125 40.765625 47.5 
Q 36.8125 48.484375 32.625 48.484375 
Q 25.53125 48.484375 21.453125 46.0625 
Q 17.390625 43.65625 17.390625 39.5 
Q 17.390625 34.671875 26.859375 32.078125 
Q 27.59375 31.890625 27.9375 31.78125 
L 30.8125 30.90625 
Q 39.796875 28.421875 42.796875 25.6875 
Q 45.796875 22.953125 45.796875 18.21875 
Q 45.796875 9.515625 38.890625 4.046875 
Q 31.984375 -1.421875 20.796875 -1.421875 
Q 16.453125 -1.421875 11.671875 -0.578125 
Q 6.890625 0.25 1.125 2 
L 2.875 11.28125 
Q 7.8125 8.734375 12.59375 7.421875 
Q 17.390625 6.109375 21.78125 6.109375 
Q 28.375 6.109375 32.5 8.9375 
Q 36.625 11.765625 36.625 16.109375 
Q 36.625 20.796875 25.78125 23.6875 
L 24.859375 23.921875 
L 21.78125 24.703125 
Q 14.9375 26.515625 11.765625 29.46875 
Q 8.59375 32.421875 8.59375 37.015625 
Q 8.59375 45.75 15.15625 50.875 
Q 21.734375 56 33.015625 56 
Q 37.453125 56 41.671875 55.265625 
Q 45.90625 54.546875 50 53.078125 
z
" id="DejaVuSans-Oblique-73"/>
      <path d="M 16.890625 72.90625 
L 30.171875 72.90625 
L 50.296875 10.40625 
L 62.5 72.90625 
L 72.125 72.90625 
L 57.90625 0 
L 44.578125 0 
L 24.515625 62.890625 
L 12.3125 0 
L 2.6875 0 
z
" id="DejaVuSans-Oblique-4e"/>
      <path d="M 47.015625 60.890625 
L 29.5 51.421875 
L 47.015625 41.890625 
L 44.1875 37.109375 
L 27.78125 47.015625 
L 27.78125 28.609375 
L 22.21875 28.609375 
L 22.21875 47.015625 
L 5.8125 37.109375 
L 2.984375 41.890625 
L 20.515625 51.421875 
L 2.984375 60.890625 
L 5.8125 65.71875 
L 22.21875 55.8125 
L 22.21875 74.21875 
L 27.78125 74.21875 
L 27.78125 55.8125 
L 44.1875 65.71875 
z
" id="DejaVuSans-2a"/>
     </defs>
     <g transform="translate(26.38375 103.33)rotate(-90)scale(0.14 -0.14)">
      <use transform="translate(0 0.765625)" xlink:href="#DejaVuSans-Oblique-73"/>
      <use transform="translate(52.099609 0.765625)" xlink:href="#DejaVuSans-Oblique-4e"/>
      <use transform="translate(147.558763 39.046875)scale(0.7)" xlink:href="#DejaVuSans-2a"/>
     </g>
    </g>
   </g>
   <g id="LineCollection_1">
    <path clip-path="url(#p81f96b0de8)" d="M 68.350455 152 
L 68.949054 151.835014 
L 70.02749 151.540847 
L 71.105927 151.24668 
L 72.184363 150.952513 
L 73.032073 150.722449 
L 73.262799 150.658346 
L 74.341236 150.364179 
L 75.419672 150.070012 
L 76.498108 149.775845 
L 77.576545 149.481678 
L 77.714187 149.444898 
L 78.654981 149.187511 
L 79.733417 148.893344 
L 80.811853 148.599177 
L 81.89029 148.30501 
L 82.401286 148.167347 
L 82.968726 148.010843 
L 84.047162 147.716676 
L 85.125599 147.422509 
L 86.204035 147.128342 
L 87.082408 146.889796 
L 87.282471 146.834175 
L 88.360908 146.540008 
L 89.439344 146.245841 
L 90.51778 145.951674 
L 91.596217 145.657507 
L 91.765485 145.612245 
L 92.674653 145.36334 
L 93.753089 145.069173 
L 94.831525 144.775006 
L 95.909962 144.480839 
L 96.452074 144.334694 
L 96.988398 144.186672 
L 98.066834 143.892505 
L 99.145271 143.598338 
L 100.223707 143.304171 
L 101.132702 143.057143 
L 101.302143 143.010004 
L 102.38058 142.715837 
L 103.459016 142.42167 
L 104.537452 142.127503 
L 105.615888 141.833336 
L 105.816739 141.779592 
L 106.694325 141.539169 
L 107.772761 141.245002 
L 108.851197 140.950835 
L 109.929634 140.656668 
L 110.50282 140.502041 
L 111.00807 140.362501 
L 112.086506 140.068334 
L 113.164943 139.774167 
L 114.243379 139.48 
L 115.182956 139.22449 
L 115.321815 139.185833 
L 116.400252 138.891666 
L 117.478688 138.597499 
L 118.557124 138.303332 
L 119.63556 138.009165 
L 119.86795 137.946939 
L 120.713997 137.714998 
L 121.792433 137.420831 
L 122.870869 137.126664 
L 123.949306 136.832497 
L 124.553524 136.669388 
L 125.027742 136.53833 
L 126.106178 136.244163 
L 127.184615 135.949996 
L 128.263051 135.655829 
L 129.233169 135.391837 
L 129.341487 135.361662 
L 130.419923 135.067495 
L 131.49836 134.773328 
L 132.576796 134.479161 
L 133.655232 134.184994 
L 133.919118 134.114286 
L 134.733669 133.890827 
L 135.812105 133.59666 
L 136.890541 133.302493 
L 137.968978 133.008326 
L 138.604186 132.836735 
L 139.047414 132.714159 
L 139.89011 132.485481 
" style="fill:none;stroke:#000000;stroke-dasharray:11.1,4.8;stroke-dashoffset:0;stroke-width:3;"/>
    <path clip-path="url(#p81f96b0de8)" d="M 155.468464 128.236167 
L 156.302395 128.007487 
L 157.333472 127.726531 
L 157.380831 127.71332 
L 158.459267 127.419153 
L 159.537704 127.124986 
L 160.61614 126.830819 
L 161.694576 126.536652 
L 162.021325 126.44898 
L 162.773013 126.242485 
L 163.851449 125.948318 
L 164.929885 125.654151 
L 166.008322 125.359984 
L 166.705385 125.171429 
L 167.086758 125.065817 
" style="fill:none;stroke:#000000;stroke-dasharray:11.1,4.8;stroke-dashoffset:0;stroke-width:3;"/>
   </g>
   <g id="LineCollection_2">
    <path clip-path="url(#p81f96b0de8)" d="M 61.4 103.814183 
L 62.478436 103.520016 
L 62.728389 103.453061 
L 63.556873 103.225849 
L 64.635309 102.931682 
L 65.713745 102.637515 
L 66.792182 102.343348 
L 67.41368 102.17551 
L 67.870618 102.049181 
L 68.949054 101.755014 
L 70.02749 101.460847 
L 71.105927 101.16668 
L 72.093051 100.897959 
L 72.184363 100.872513 
L 73.262799 100.578346 
L 74.341236 100.284179 
L 75.419672 99.990012 
L 76.498108 99.695845 
L 76.779532 99.620408 
L 77.576545 99.401678 
L 78.654981 99.107511 
L 79.733417 98.813344 
L 80.811853 98.519177 
L 81.464318 98.342857 
L 81.89029 98.22501 
L 82.968726 97.930843 
L 84.047162 97.636676 
L 85.125599 97.342509 
L 86.143201 97.065306 
L 86.204035 97.048342 
L 87.282471 96.754175 
L 88.360908 96.460008 
L 89.439344 96.165841 
L 90.51778 95.871674 
L 90.830633 95.787755 
L 91.596217 95.577507 
L 92.674653 95.28334 
L 93.753089 94.989173 
L 94.831525 94.695006 
L 95.514915 94.510204 
L 95.909962 94.400839 
L 96.988398 94.106672 
L 98.066834 93.812505 
L 99.145271 93.518338 
L 100.19331 93.232653 
L 100.223707 93.224171 
L 101.302143 92.930004 
L 102.38058 92.635837 
L 103.459016 92.34167 
L 104.537452 92.047503 
L 104.881691 91.955102 
L 105.615888 91.753336 
L 106.694325 91.459169 
L 107.772761 91.165002 
L 108.851197 90.870835 
L 109.565471 90.677551 
L 109.929634 90.576668 
L 111.00807 90.282501 
L 112.086506 89.988334 
L 113.164943 89.694167 
L 114.243379 89.4 
L 114.243379 89.4 
L 115.321815 89.105833 
L 116.400252 88.811666 
L 117.478688 88.517499 
L 118.557124 88.223332 
L 118.932706 88.122449 
L 119.63556 87.929165 
L 120.713997 87.634998 
L 121.792433 87.340831 
L 122.870869 87.046664 
L 123.615985 86.844898 
L 123.949306 86.752497 
L 125.027742 86.45833 
L 126.106178 86.164163 
L 127.184615 85.869996 
L 128.263051 85.575829 
L 128.294867 85.567347 
L 129.341487 85.281662 
L 130.419923 84.987495 
L 131.49836 84.693328 
L 132.341061 84.464649 
" style="fill:none;stroke:#000000;stroke-width:3;"/>
    <path clip-path="url(#p81f96b0de8)" d="M 147.919412 80.215335 
L 148.753341 79.986656 
L 149.831777 79.692489 
L 150.910213 79.398322 
L 151.716888 79.179592 
L 151.98865 79.104155 
L 153.067086 78.809988 
L 154.145522 78.515821 
L 155.223958 78.221654 
L 156.302395 77.927487 
L 156.397712 77.902041 
L 157.380831 77.63332 
L 158.459267 77.339153 
L 159.537704 77.044986 
L 160.61614 76.750819 
L 161.085494 76.62449 
L 161.694576 76.456652 
L 162.773013 76.162485 
L 163.851449 75.868318 
L 164.929885 75.574151 
L 165.767278 75.346939 
L 166.008322 75.279984 
L 167.086758 74.985817 
" style="fill:none;stroke:#000000;stroke-width:3;"/>
   </g>
   <g id="LineCollection_3">
    <path clip-path="url(#p81f96b0de8)" d="M 61.4 53.734183 
L 61.793034 53.628571 
L 62.478436 53.440016 
L 63.556873 53.145849 
L 64.635309 52.851682 
L 65.713745 52.557515 
L 66.476035 52.35102 
L 66.792182 52.263348 
L 67.870618 51.969181 
L 68.949054 51.675014 
L 70.02749 51.380847 
L 71.105927 51.08668 
L 71.155459 51.073469 
L 72.184363 50.792513 
L 73.262799 50.498346 
L 74.341236 50.204179 
L 75.419672 49.910012 
L 75.843983 49.795918 
L 76.498108 49.615845 
L 77.576545 49.321678 
L 78.654981 49.027511 
L 79.733417 48.733344 
L 80.526484 48.518367 
L 80.811853 48.439177 
L 81.89029 48.14501 
L 82.968726 47.850843 
L 84.047162 47.556676 
L 85.125599 47.262509 
L 85.206879 47.240816 
L 86.204035 46.968342 
L 87.282471 46.674175 
L 88.360908 46.380008 
L 89.439344 46.085841 
L 89.894889 45.963265 
L 90.279824 45.857775 
" style="fill:none;stroke:#000000;stroke-width:3;"/>
    <path clip-path="url(#p81f96b0de8)" d="M 105.860395 41.607848 
L 106.694325 41.379169 
L 107.772761 41.085002 
L 108.62726 40.853061 
L 108.851197 40.790835 
L 109.929634 40.496668 
L 111.00807 40.202501 
L 112.086506 39.908334 
L 113.164943 39.614167 
L 113.309587 39.57551 
L 114.243379 39.32 
L 115.321815 39.025833 
L 116.400252 38.731666 
L 117.478688 38.437499 
L 117.996573 38.297959 
L 118.557124 38.143332 
L 119.63556 37.849165 
L 120.713997 37.554998 
L 121.792433 37.260831 
L 122.677586 37.020408 
L 122.870869 36.966664 
L 123.949306 36.672497 
L 125.027742 36.37833 
L 126.106178 36.084163 
L 127.184615 35.789996 
L 127.360875 35.742857 
L 128.263051 35.495829 
L 129.341487 35.201662 
L 130.419923 34.907495 
L 131.49836 34.613328 
L 132.047352 34.465306 
L 132.576796 34.319161 
L 133.655232 34.024994 
L 134.733669 33.730827 
L 135.812105 33.43666 
L 136.727871 33.187755 
L 136.890541 33.142493 
L 137.968978 32.848326 
L 139.047414 32.554159 
L 140.12585 32.259992 
L 141.204287 31.965825 
L 141.41212 31.910204 
L 142.282723 31.671658 
L 143.361159 31.377491 
L 144.439595 31.083324 
L 145.518032 30.789157 
L 146.098088 30.632653 
L 146.596468 30.49499 
L 147.674904 30.200823 
L 148.753341 29.906656 
L 149.831777 29.612489 
L 150.778116 29.355102 
L 150.910213 29.318322 
L 151.98865 29.024155 
L 153.067086 28.729988 
L 154.145522 28.435821 
L 155.223958 28.141654 
L 155.463322 28.077551 
L 156.302395 27.847487 
L 157.380831 27.55332 
L 158.459267 27.259153 
L 159.537704 26.964986 
L 160.148783 26.8 
" style="fill:none;stroke:#000000;stroke-width:3;"/>
   </g>
   <g id="patch_3">
    <path d="M 61.4 152 
L 61.4 26.8 
" style="fill:none;stroke:#000000;stroke-linecap:square;stroke-linejoin:miter;stroke-width:0.8;"/>
   </g>
   <g id="patch_4">
    <path d="M 167.086758 152 
L 167.086758 26.8 
" style="fill:none;stroke:#000000;stroke-linecap:square;stroke-linejoin:miter;stroke-width:0.8;"/>
   </g>
   <g id="patch_5">
    <path d="M 61.4 152 
L 167.086758 152 
" style="fill:none;stroke:#000000;stroke-linecap:square;stroke-linejoin:miter;stroke-width:0.8;"/>
   </g>
   <g id="patch_6">
    <path d="M 61.4 26.8 
L 167.086758 26.8 
" style="fill:none;stroke:#000000;stroke-linecap:square;stroke-linejoin:miter;stroke-width:0.8;"/>
   </g>
   <g id="text_11">
    <g clip-path="url(#p81f96b0de8)">
     <!-- -8 -->
     <defs>
      <path d="M 4.890625 31.390625 
L 31.203125 31.390625 
L 31.203125 23.390625 
L 4.890625 23.390625 
z
" id="DejaVuSans-2d"/>
      <path d="M 31.78125 34.625 
Q 24.75 34.625 20.71875 30.859375 
Q 16.703125 27.09375 16.703125 20.515625 
Q 16.703125 13.921875 20.71875 10.15625 
Q 24.75 6.390625 31.78125 6.390625 
Q 38.8125 6.390625 42.859375 10.171875 
Q 46.921875 13.96875 46.921875 20.515625 
Q 46.921875 27.09375 42.890625 30.859375 
Q 38.875 34.625 31.78125 34.625 
z
M 21.921875 38.8125 
Q 15.578125 40.375 12.03125 44.71875 
Q 8.5 49.078125 8.5 55.328125 
Q 8.5 64.0625 14.71875 69.140625 
Q 20.953125 74.21875 31.78125 74.21875 
Q 42.671875 74.21875 48.875 69.140625 
Q 55.078125 64.0625 55.078125 55.328125 
Q 55.078125 49.078125 51.53125 44.71875 
Q 48 40.375 41.703125 38.8125 
Q 48.828125 37.15625 52.796875 32.3125 
Q 56.78125 27.484375 56.78125 20.515625 
Q 56.78125 9.90625 50.3125 4.234375 
Q 43.84375 -1.421875 31.78125 -1.421875 
Q 19.734375 -1.421875 13.25 4.234375 
Q 6.78125 9.90625 6.78125 20.515625 
Q 6.78125 27.484375 10.78125 32.3125 
Q 14.796875 37.15625 21.921875 38.8125 
z
M 18.3125 54.390625 
Q 18.3125 48.734375 21.84375 45.5625 
Q 25.390625 42.390625 31.78125 42.390625 
Q 38.140625 42.390625 41.71875 45.5625 
Q 45.3125 48.734375 45.3125 54.390625 
Q 45.3125 60.0625 41.71875 63.234375 
Q 38.140625 66.40625 31.78125 66.40625 
Q 25.390625 66.40625 21.84375 63.234375 
Q 18.3125 60.0625 18.3125 54.390625 
z
" id="DejaVuSans-38"/>
     </defs>
     <g transform="translate(143.477083 134.213644)rotate(-13.580837)scale(0.1 -0.1)">
      <use xlink:href="#DejaVuSans-2d"/>
      <use x="36.083984" xlink:href="#DejaVuSans-38"/>
     </g>
    </g>
   </g>
   <g id="text_12">
    <g clip-path="url(#p81f96b0de8)">
     <!--  0 -->
     <defs>
      <path id="DejaVuSans-20"/>
     </defs>
     <g transform="translate(136.136866 86.142364)rotate(-13.580837)scale(0.1 -0.1)">
      <use xlink:href="#DejaVuSans-20"/>
      <use x="31.787109" xlink:href="#DejaVuSans-30"/>
     </g>
    </g>
   </g>
   <g id="text_13">
    <g clip-path="url(#p81f96b0de8)">
     <!--  8 -->
     <g transform="translate(94.077887 47.534916)rotate(-13.581396)scale(0.1 -0.1)">
      <use xlink:href="#DejaVuSans-20"/>
      <use x="31.787109" xlink:href="#DejaVuSans-38"/>
     </g>
    </g>
   </g>
   <g id="text_14">
    <!-- $c=1$ -->
    <defs>
     <path d="M 53.609375 52.59375 
L 51.8125 43.703125 
Q 48.578125 46.046875 44.9375 47.21875 
Q 41.3125 48.390625 37.40625 48.390625 
Q 33.109375 48.390625 29.21875 46.875 
Q 25.34375 45.359375 22.703125 42.578125 
Q 18.5 38.328125 16.203125 32.609375 
Q 13.921875 26.90625 13.921875 20.796875 
Q 13.921875 13.421875 17.609375 9.8125 
Q 21.296875 6.203125 28.8125 6.203125 
Q 32.515625 6.203125 36.6875 7.328125 
Q 40.875 8.453125 45.40625 10.6875 
L 43.703125 1.8125 
Q 39.796875 0.203125 35.671875 -0.609375 
Q 31.546875 -1.421875 27.203125 -1.421875 
Q 16.3125 -1.421875 10.453125 4.015625 
Q 4.59375 9.46875 4.59375 19.578125 
Q 4.59375 28.078125 7.640625 35.234375 
Q 10.6875 42.390625 16.703125 48.09375 
Q 20.796875 52 26.3125 54 
Q 31.84375 56 38.375 56 
Q 42.1875 56 45.9375 55.140625 
Q 49.703125 54.296875 53.609375 52.59375 
z
" id="DejaVuSans-Oblique-63"/>
     <path d="M 10.59375 45.40625 
L 73.1875 45.40625 
L 73.1875 37.203125 
L 10.59375 37.203125 
z
M 10.59375 25.484375 
L 73.1875 25.484375 
L 73.1875 17.1875 
L 10.59375 17.1875 
z
" id="DejaVuSans-3d"/>
    </defs>
    <g transform="translate(99.723379 20.8)scale(0.12 -0.12)">
     <use transform="translate(0 0.09375)" xlink:href="#DejaVuSans-Oblique-63"/>
     <use transform="translate(74.462891 0.09375)" xlink:href="#DejaVuSans-3d"/>
     <use transform="translate(177.734375 0.09375)" xlink:href="#DejaVuSans-31"/>
    </g>
   </g>
  </g>
 </g>
 <defs>
  <clipPath id="p81f96b0de8">
   <rect height="125.2" width="105.686758" x="61.4" y="26.8"/>
  </clipPath>
 </defs>
</svg>
