<?xml version="1.0" encoding="utf-8" standalone="no"?>
<!DOCTYPE svg PUBLIC "-//W3C//DTD SVG 1.1//EN"
  "http://www.w3.org/Graphics/SVG/1.1/DTD/svg11.dtd">
<!-- Created with matplotlib (http://matplotlib.org/) -->
<svg height="201.6pt" version="1.1" viewBox="0 0 187.2 201.6" width="187.2pt" xmlns="http://www.w3.org/2000/svg" xmlns:xlink="http://www.w3.org/1999/xlink">
 <defs>
  <style type="text/css">
*{stroke-linecap:butt;stroke-linejoin:round;}
  </style>
 </defs>
 <g id="figure_1">
  <g id="patch_1">
   <path d="M 0 201.6 
L 187.2 201.6 
L 187.2 0 
L 0 0 
z
" style="fill:#ffffff;"/>
  </g>
  <g id="axes_1">
   <g id="patch_2">
    <path d="M 60.291719 152 
L 167.086758 152 
L 167.086758 30.4 
L 60.291719 30.4 
z
" style="fill:#ffffff;"/>
   </g>
   <g id="PathCollection_1">
    <path clip-path="url(#p54d61014ba)" d="M 157.753105 30.4 
L 158.368795 30.4 
L 159.458541 30.4 
L 160.548286 30.4 
L 161.638031 30.4 
L 162.727777 30.4 
L 163.817522 30.4 
L 164.907267 30.4 
L 165.997013 30.4 
L 167.086758 30.4 
L 167.086758 31.640816 
L 167.086758 32.881633 
L 167.086758 34.122449 
L 167.086758 35.363265 
L 167.086758 36.604082 
L 167.086758 37.844898 
L 167.086758 39.085714 
L 167.086758 40.326531 
L 167.086758 41.027574 
L 166.391686 40.326531 
L 165.997013 39.922808 
L 165.191616 39.085714 
L 164.907267 38.785863 
L 164.028934 37.844898 
L 163.817522 37.615028 
L 162.902152 36.604082 
L 162.727777 36.408565 
L 161.809744 35.363265 
L 161.638031 35.164717 
L 160.750169 34.122449 
L 160.548286 33.881729 
L 159.721885 32.881633 
L 159.458541 32.557865 
L 158.723364 31.640816 
L 158.368795 31.191429 
z
" style="fill:#f0f9ed;"/>
   </g>
   <g id="PathCollection_2">
    <path clip-path="url(#p54d61014ba)" d="M 146.125457 30.4 
L 146.381597 30.4 
L 147.471342 30.4 
L 148.561088 30.4 
L 149.650833 30.4 
L 150.740578 30.4 
L 151.830324 30.4 
L 152.920069 30.4 
L 154.009814 30.4 
L 155.09956 30.4 
L 156.189305 30.4 
L 157.27905 30.4 
L 157.753105 30.4 
L 158.368795 31.191429 
L 158.723364 31.640816 
L 159.458541 32.557865 
L 159.721885 32.881633 
L 160.548286 33.881729 
L 160.750169 34.122449 
L 161.638031 35.164717 
L 161.809744 35.363265 
L 162.727777 36.408565 
L 162.902152 36.604082 
L 163.817522 37.615028 
L 164.028934 37.844898 
L 164.907267 38.785863 
L 165.191616 39.085714 
L 165.997013 39.922808 
L 166.391686 40.326531 
L 167.086758 41.027574 
L 167.086758 41.567347 
L 167.086758 42.808163 
L 167.086758 44.04898 
L 167.086758 45.289796 
L 167.086758 46.530612 
L 167.086758 47.771429 
L 167.086758 49.012245 
L 167.086758 50.253061 
L 167.086758 51.493878 
L 167.086758 52.734694 
L 167.086758 53.97551 
L 167.086758 54.267159 
L 166.748343 53.97551 
L 165.997013 53.320522 
L 165.335644 52.734694 
L 164.907267 52.350663 
L 163.966754 51.493878 
L 163.817522 51.356221 
L 162.727777 50.333387 
L 162.64371 50.253061 
L 161.638031 49.279698 
L 161.366003 49.012245 
L 160.548286 48.197534 
L 160.127243 47.771429 
L 159.458541 47.085364 
L 158.92616 46.530612 
L 158.368795 45.94161 
L 157.761408 45.289796 
L 157.27905 44.764655 
L 156.631591 44.04898 
L 156.189305 43.552858 
L 155.535278 42.808163 
L 155.09956 42.304563 
L 154.471018 41.567347 
L 154.009814 41.01812 
L 153.437359 40.326531 
L 152.920069 39.691899 
L 152.432859 39.085714 
L 151.830324 38.32431 
L 151.456097 37.844898 
L 150.740578 36.913821 
L 150.505688 36.604082 
L 149.650833 35.458986 
L 149.580287 35.363265 
L 148.681985 34.122449 
L 148.561088 33.952529 
L 147.808617 32.881633 
L 147.471342 32.39387 
L 146.95684 31.640816 
L 146.381597 30.785329 
z
" style="fill:#dff3da;"/>
   </g>
   <g id="PathCollection_3">
    <path clip-path="url(#p54d61014ba)" d="M 132.017878 31.640816 
L 131.320977 30.4 
L 132.214908 30.4 
L 133.304654 30.4 
L 134.394399 30.4 
L 135.484144 30.4 
L 136.57389 30.4 
L 137.663635 30.4 
L 138.75338 30.4 
L 139.843125 30.4 
L 140.932871 30.4 
L 142.022616 30.4 
L 143.112361 30.4 
L 144.202107 30.4 
L 145.291852 30.4 
L 146.125457 30.4 
L 146.381597 30.785329 
L 146.95684 31.640816 
L 147.471342 32.39387 
L 147.808617 32.881633 
L 148.561088 33.952529 
L 148.681985 34.122449 
L 149.580287 35.363265 
L 149.650833 35.458986 
L 150.505688 36.604082 
L 150.740578 36.913821 
L 151.456097 37.844898 
L 151.830324 38.32431 
L 152.432859 39.085714 
L 152.920069 39.691899 
L 153.437359 40.326531 
L 154.009814 41.01812 
L 154.471018 41.567347 
L 155.09956 42.304563 
L 155.535278 42.808163 
L 156.189305 43.552858 
L 156.631591 44.04898 
L 157.27905 44.764655 
L 157.761408 45.289796 
L 158.368795 45.94161 
L 158.92616 46.530612 
L 159.458541 47.085364 
L 160.127243 47.771429 
L 160.548286 48.197534 
L 161.366003 49.012245 
L 161.638031 49.279698 
L 162.64371 50.253061 
L 162.727777 50.333387 
L 163.817522 51.356221 
L 163.966754 51.493878 
L 164.907267 52.350663 
L 165.335644 52.734694 
L 165.997013 53.320522 
L 166.748343 53.97551 
L 167.086758 54.267159 
L 167.086758 55.216327 
L 167.086758 56.457143 
L 167.086758 57.697959 
L 167.086758 58.938776 
L 167.086758 60.179592 
L 167.086758 61.420408 
L 167.086758 62.661224 
L 167.086758 63.902041 
L 167.086758 65.142857 
L 167.086758 66.383673 
L 167.086758 67.62449 
L 167.086758 68.865306 
L 167.086758 70.106122 
L 167.086758 71.123979 
L 165.997013 70.330468 
L 165.694739 70.106122 
L 164.907267 69.517032 
L 164.048862 68.865306 
L 163.817522 68.688172 
L 162.727777 67.837409 
L 162.460021 67.62449 
L 161.638031 66.964904 
L 160.924605 66.383673 
L 160.548286 66.074128 
L 159.458541 65.163484 
L 159.434366 65.142857 
L 158.368795 64.224436 
L 158.000409 63.902041 
L 157.27905 63.264001 
L 156.607942 62.661224 
L 156.189305 62.281006 
L 155.256238 61.420408 
L 155.09956 61.274211 
L 154.009814 60.240472 
L 153.946748 60.179592 
L 152.920069 59.176598 
L 152.680244 58.938776 
L 151.830324 58.085456 
L 151.450064 57.697959 
L 150.740578 56.965673 
L 150.255085 56.457143 
L 149.650833 55.815839 
L 149.094121 55.216327 
L 148.561088 54.634512 
L 147.965937 53.97551 
L 147.471342 53.420233 
L 146.869268 52.734694 
L 146.381597 52.171533 
L 145.802829 51.493878 
L 145.291852 50.88695 
L 144.765331 50.253061 
L 144.202107 49.565042 
L 143.75549 49.012245 
L 143.112361 48.204403 
L 142.772043 47.771429 
L 142.022616 46.803684 
L 141.813748 46.530612 
L 140.932871 45.361605 
L 140.879403 45.289796 
L 139.971523 44.04898 
L 139.843125 43.870581 
L 139.087306 42.808163 
L 138.75338 42.33149 
L 138.223992 41.567347 
L 137.663635 40.745987 
L 137.380492 40.326531 
L 136.57389 39.11324 
L 136.555774 39.085714 
L 135.756002 37.844898 
L 135.484144 37.416411 
L 134.97368 36.604082 
L 134.394399 35.66814 
L 134.207403 35.363265 
L 133.460222 34.122449 
L 133.304654 33.859038 
L 132.732276 32.881633 
L 132.214908 31.984994 
z
" style="fill:#c7e9c0;"/>
   </g>
   <g id="PathCollection_4">
    <path clip-path="url(#p54d61014ba)" d="M 110.23089 31.640816 
L 109.633839 30.4 
L 110.420002 30.4 
L 111.509748 30.4 
L 112.599493 30.4 
L 113.689238 30.4 
L 114.778984 30.4 
L 115.868729 30.4 
L 116.958474 30.4 
L 118.048219 30.4 
L 119.137965 30.4 
L 120.22771 30.4 
L 121.317455 30.4 
L 122.407201 30.4 
L 123.496946 30.4 
L 124.586691 30.4 
L 125.676437 30.4 
L 126.766182 30.4 
L 127.855927 30.4 
L 128.945672 30.4 
L 130.035418 30.4 
L 131.125163 30.4 
L 131.320977 30.4 
L 132.017878 31.640816 
L 132.214908 31.984994 
L 132.732276 32.881633 
L 133.304654 33.859038 
L 133.460222 34.122449 
L 134.207403 35.363265 
L 134.394399 35.66814 
L 134.97368 36.604082 
L 135.484144 37.416411 
L 135.756002 37.844898 
L 136.555774 39.085714 
L 136.57389 39.11324 
L 137.380492 40.326531 
L 137.663635 40.745987 
L 138.223992 41.567347 
L 138.75338 42.33149 
L 139.087306 42.808163 
L 139.843125 43.870581 
L 139.971523 44.04898 
L 140.879403 45.289796 
L 140.932871 45.361605 
L 141.813748 46.530612 
L 142.022616 46.803684 
L 142.772043 47.771429 
L 143.112361 48.204403 
L 143.75549 49.012245 
L 144.202107 49.565042 
L 144.765331 50.253061 
L 145.291852 50.88695 
L 145.802829 51.493878 
L 146.381597 52.171533 
L 146.869268 52.734694 
L 147.471342 53.420233 
L 147.965937 53.97551 
L 148.561088 54.634512 
L 149.094121 55.216327 
L 149.650833 55.815839 
L 150.255085 56.457143 
L 150.740578 56.965673 
L 151.450064 57.697959 
L 151.830324 58.085456 
L 152.680244 58.938776 
L 152.920069 59.176598 
L 153.946748 60.179592 
L 154.009814 60.240472 
L 155.09956 61.274211 
L 155.256238 61.420408 
L 156.189305 62.281006 
L 156.607942 62.661224 
L 157.27905 63.264001 
L 158.000409 63.902041 
L 158.368795 64.224436 
L 159.434366 65.142857 
L 159.458541 65.163484 
L 160.548286 66.074128 
L 160.924605 66.383673 
L 161.638031 66.964904 
L 162.460021 67.62449 
L 162.727777 67.837409 
L 163.817522 68.688172 
L 164.048862 68.865306 
L 164.907267 69.517032 
L 165.694739 70.106122 
L 165.997013 70.330468 
L 167.086758 71.123979 
L 167.086758 71.346939 
L 167.086758 72.587755 
L 167.086758 73.828571 
L 167.086758 75.069388 
L 167.086758 76.310204 
L 167.086758 77.55102 
L 167.086758 78.791837 
L 167.086758 80.032653 
L 167.086758 81.273469 
L 167.086758 82.514286 
L 167.086758 83.755102 
L 167.086758 84.995918 
L 167.086758 86.236735 
L 167.086758 87.477551 
L 167.086758 88.718367 
L 167.086758 89.959184 
L 167.086758 91.2 
L 167.086758 92.440816 
L 167.086758 93.681633 
L 167.086758 94.922449 
L 167.086758 95.817598 
L 165.997013 95.137778 
L 165.659217 94.922449 
L 164.907267 94.442801 
L 163.817522 93.738225 
L 163.732212 93.681633 
L 162.727777 93.014498 
L 161.874672 92.440816 
L 161.638031 92.281406 
L 160.548286 91.53088 
L 160.076028 91.2 
L 159.458541 90.766366 
L 158.368795 89.99031 
L 158.326149 89.959184 
L 157.27905 89.192746 
L 156.639565 88.718367 
L 156.189305 88.38322 
L 155.09956 87.559183 
L 154.993953 87.477551 
L 154.009814 86.71383 
L 153.403377 86.236735 
L 152.920069 85.854802 
L 151.848166 84.995918 
L 151.830324 84.98155 
L 150.740578 84.08431 
L 150.346323 83.755102 
L 149.650833 83.171154 
L 148.879221 82.514286 
L 148.561088 82.24182 
L 147.471342 81.29499 
L 147.447059 81.273469 
L 146.381597 80.323109 
L 146.060328 80.032653 
L 145.291852 79.333011 
L 144.705381 78.791837 
L 144.202107 78.32394 
L 143.381809 77.55102 
L 143.112361 77.295098 
L 142.089117 76.310204 
L 142.022616 76.245651 
L 140.932871 75.171385 
L 140.830846 75.069388 
L 139.843125 74.073232 
L 139.603545 73.828571 
L 138.75338 72.952342 
L 138.403952 72.587755 
L 137.663635 71.807838 
L 137.23137 71.346939 
L 136.57389 70.638824 
L 136.085063 70.106122 
L 135.484144 69.444393 
L 134.96427 68.865306 
L 134.394399 68.22363 
L 133.868205 67.62449 
L 133.304654 66.975618 
L 132.796071 66.383673 
L 132.214908 65.699449 
L 131.747063 65.142857 
L 131.125163 64.394231 
L 130.720379 63.902041 
L 130.035418 63.059094 
L 129.71522 62.661224 
L 128.945672 61.693201 
L 128.7308 61.420408 
L 127.855927 60.29576 
L 127.766348 60.179592 
L 126.822876 58.938776 
L 126.766182 58.863056 
L 125.9012 57.697959 
L 125.676437 57.391158 
L 124.997621 56.457143 
L 124.586691 55.8841 
L 124.111405 55.216327 
L 123.496946 54.341316 
L 123.241854 53.97551 
L 122.407201 52.762344 
L 122.3883 52.734694 
L 121.556748 51.493878 
L 121.317455 51.131641 
L 120.740561 50.253061 
L 120.22771 49.461156 
L 119.938584 49.012245 
L 119.150584 47.771429 
L 119.137965 47.751113 
L 118.383651 46.530612 
L 118.048219 45.980303 
L 117.629212 45.289796 
L 116.958474 44.169226 
L 116.886781 44.04898 
L 116.163072 42.808163 
L 115.868729 42.295484 
L 115.452106 41.567347 
L 114.778984 40.37509 
L 114.751647 40.326531 
L 114.070077 39.085714 
L 113.689238 38.382625 
L 113.398644 37.844898 
L 112.739495 36.604082 
L 112.599493 36.334636 
L 112.095658 35.363265 
L 111.509748 34.219586 
L 111.460045 34.122449 
L 110.841252 32.881633 
L 110.420002 32.02544 
z
" style="fill:#a9dca3;"/>
   </g>
   <g id="PathCollection_5">
    <path clip-path="url(#p54d61014ba)" d="M 60.291719 30.4 
L 61.381464 30.4 
L 62.471209 30.4 
L 63.560955 30.4 
L 64.6507 30.4 
L 65.740445 30.4 
L 66.830191 30.4 
L 67.919936 30.4 
L 69.009681 30.4 
L 70.099426 30.4 
L 71.189172 30.4 
L 72.278917 30.4 
L 73.368662 30.4 
L 74.458408 30.4 
L 75.548153 30.4 
L 76.637898 30.4 
L 77.727643 30.4 
L 78.817389 30.4 
L 79.907134 30.4 
L 80.996879 30.4 
L 82.086625 30.4 
L 83.17637 30.4 
L 84.266115 30.4 
L 85.355861 30.4 
L 86.445606 30.4 
L 87.535351 30.4 
L 88.625096 30.4 
L 89.714842 30.4 
L 90.804587 30.4 
L 91.894332 30.4 
L 92.984078 30.4 
L 94.073823 30.4 
L 95.163568 30.4 
L 96.253314 30.4 
L 97.343059 30.4 
L 98.432804 30.4 
L 99.522549 30.4 
L 100.612295 30.4 
L 101.70204 30.4 
L 102.791785 30.4 
L 103.881531 30.4 
L 104.971276 30.4 
L 106.061021 30.4 
L 107.150767 30.4 
L 108.240512 30.4 
L 109.330257 30.4 
L 109.633839 30.4 
L 110.23089 31.640816 
L 110.420002 32.02544 
L 110.841252 32.881633 
L 111.460045 34.122449 
L 111.509748 34.219586 
L 112.095658 35.363265 
L 112.599493 36.334636 
L 112.739495 36.604082 
L 113.398644 37.844898 
L 113.689238 38.382625 
L 114.070077 39.085714 
L 114.751647 40.326531 
L 114.778984 40.37509 
L 115.452106 41.567347 
L 115.868729 42.295484 
L 116.163072 42.808163 
L 116.886781 44.04898 
L 116.958474 44.169226 
L 117.629212 45.289796 
L 118.048219 45.980303 
L 118.383651 46.530612 
L 119.137965 47.751113 
L 119.150584 47.771429 
L 119.938584 49.012245 
L 120.22771 49.461156 
L 120.740561 50.253061 
L 121.317455 51.131641 
L 121.556748 51.493878 
L 122.3883 52.734694 
L 122.407201 52.762344 
L 123.241854 53.97551 
L 123.496946 54.341316 
L 124.111405 55.216327 
L 124.586691 55.8841 
L 124.997621 56.457143 
L 125.676437 57.391158 
L 125.9012 57.697959 
L 126.766182 58.863056 
L 126.822876 58.938776 
L 127.766348 60.179592 
L 127.855927 60.29576 
L 128.7308 61.420408 
L 128.945672 61.693201 
L 129.71522 62.661224 
L 130.035418 63.059094 
L 130.720379 63.902041 
L 131.125163 64.394231 
L 131.747063 65.142857 
L 132.214908 65.699449 
L 132.796071 66.383673 
L 133.304654 66.975618 
L 133.868205 67.62449 
L 134.394399 68.22363 
L 134.96427 68.865306 
L 135.484144 69.444393 
L 136.085063 70.106122 
L 136.57389 70.638824 
L 137.23137 71.346939 
L 137.663635 71.807838 
L 138.403952 72.587755 
L 138.75338 72.952342 
L 139.603545 73.828571 
L 139.843125 74.073232 
L 140.830846 75.069388 
L 140.932871 75.171385 
L 142.022616 76.245651 
L 142.089117 76.310204 
L 143.112361 77.295098 
L 143.381809 77.55102 
L 144.202107 78.32394 
L 144.705381 78.791837 
L 145.291852 79.333011 
L 146.060328 80.032653 
L 146.381597 80.323109 
L 147.447059 81.273469 
L 147.471342 81.29499 
L 148.561088 82.24182 
L 148.879221 82.514286 
L 149.650833 83.171154 
L 150.346323 83.755102 
L 150.740578 84.08431 
L 151.830324 84.98155 
L 151.848166 84.995918 
L 152.920069 85.854802 
L 153.403377 86.236735 
L 154.009814 86.71383 
L 154.993953 87.477551 
L 155.09956 87.559183 
L 156.189305 88.38322 
L 156.639565 88.718367 
L 157.27905 89.192746 
L 158.326149 89.959184 
L 158.368795 89.99031 
L 159.458541 90.766366 
L 160.076028 91.2 
L 160.548286 91.53088 
L 161.638031 92.281406 
L 161.874672 92.440816 
L 162.727777 93.014498 
L 163.732212 93.681633 
L 163.817522 93.738225 
L 164.907267 94.442801 
L 165.659217 94.922449 
L 165.997013 95.137778 
L 167.086758 95.817598 
L 167.086758 96.163265 
L 167.086758 97.404082 
L 167.086758 98.644898 
L 167.086758 99.885714 
L 167.086758 101.126531 
L 167.086758 102.367347 
L 167.086758 103.608163 
L 167.086758 104.84898 
L 167.086758 106.089796 
L 167.086758 107.330612 
L 167.086758 108.571429 
L 167.086758 109.812245 
L 167.086758 111.053061 
L 167.086758 112.293878 
L 167.086758 113.534694 
L 167.086758 114.77551 
L 167.086758 116.016327 
L 167.086758 117.257143 
L 167.086758 118.497959 
L 167.086758 119.738776 
L 167.086758 120.979592 
L 167.086758 122.220408 
L 167.086758 123.461224 
L 167.086758 124.702041 
L 167.086758 125.942857 
L 167.086758 127.183673 
L 167.086758 128.42449 
L 167.086758 129.665306 
L 167.086758 130.906122 
L 167.086758 132.146939 
L 167.086758 133.387755 
L 167.086758 134.628571 
L 167.086758 135.869388 
L 167.086758 137.110204 
L 167.086758 138.35102 
L 167.086758 139.591837 
L 167.086758 140.832653 
L 167.086758 142.073469 
L 167.086758 143.314286 
L 167.086758 144.555102 
L 167.086758 145.795918 
L 167.086758 147.036735 
L 167.086758 148.277551 
L 167.086758 149.518367 
L 167.086758 150.759184 
L 167.086758 152 
L 165.997013 150.759184 
L 165.997013 150.759184 
L 164.907267 149.518367 
L 163.817522 148.277551 
L 163.817522 148.277551 
L 162.727777 147.036735 
L 162.727777 147.036735 
L 161.638031 145.795918 
L 161.638031 145.795918 
L 160.548286 144.555102 
L 160.548286 144.555102 
L 159.458541 143.314286 
L 159.458541 143.314286 
L 158.368795 142.073469 
L 158.368795 142.073469 
L 157.27905 140.832653 
L 157.27905 140.832653 
L 156.189305 139.591837 
L 156.189305 139.591837 
L 155.09956 138.35102 
L 155.09956 138.35102 
L 154.009814 137.110204 
L 154.009814 137.110204 
L 152.920069 135.869388 
L 152.920069 135.869388 
L 151.830324 134.628571 
L 151.830324 134.628571 
L 150.740578 133.387755 
L 150.740578 133.387755 
L 149.650833 132.146939 
L 149.650833 132.146939 
L 148.561088 130.906122 
L 148.561088 130.906122 
L 147.471342 129.665306 
L 147.471342 129.665306 
L 146.381597 128.42449 
L 146.381597 128.42449 
L 145.291852 127.183673 
L 145.291852 127.183673 
L 144.202107 125.942857 
L 143.112361 124.702041 
L 143.112361 124.702041 
L 142.022616 123.461224 
L 142.022616 123.461224 
L 140.932871 122.220408 
L 140.932871 122.220408 
L 139.843125 120.979592 
L 139.843125 120.979592 
L 138.75338 119.738776 
L 138.75338 119.738776 
L 137.663635 118.497959 
L 137.663635 118.497959 
L 136.57389 117.257143 
L 136.57389 117.257143 
L 135.484144 116.016327 
L 135.484144 116.016327 
L 134.394399 114.77551 
L 134.394399 114.77551 
L 133.304654 113.534694 
L 133.304654 113.534694 
L 132.214908 112.293878 
L 132.214908 112.293878 
L 131.125163 111.053061 
L 131.125163 111.053061 
L 130.035418 109.812245 
L 130.035418 109.812245 
L 128.945672 108.571429 
L 128.945672 108.571429 
L 127.855927 107.330612 
L 127.855927 107.330612 
L 126.766182 106.089796 
L 126.766182 106.089796 
L 125.676437 104.84898 
L 125.676437 104.84898 
L 124.586691 103.608163 
L 124.586691 103.608163 
L 123.496946 102.367347 
L 123.496946 102.367347 
L 122.407201 101.126531 
L 122.407201 101.126531 
L 121.317455 99.885714 
L 121.317455 99.885714 
L 120.22771 98.644898 
L 120.22771 98.644898 
L 119.137965 97.404082 
L 119.137965 97.404082 
L 118.048219 96.163265 
L 118.048219 96.163265 
L 116.958474 94.922449 
L 116.958474 94.922449 
L 115.868729 93.681633 
L 115.868729 93.681633 
L 114.778984 92.440816 
L 113.689238 91.2 
L 113.689238 91.2 
L 112.599493 89.959184 
L 111.509748 88.718367 
L 111.509748 88.718367 
L 110.420002 87.477551 
L 110.420002 87.477551 
L 109.330257 86.236735 
L 109.330257 86.236735 
L 108.240512 84.995918 
L 108.240512 84.995918 
L 107.150767 83.755102 
L 107.150767 83.755102 
L 106.061021 82.514286 
L 106.061021 82.514286 
L 104.971276 81.273469 
L 104.971276 81.273469 
L 103.881531 80.032653 
L 103.881531 80.032653 
L 102.791785 78.791837 
L 102.791785 78.791837 
L 101.70204 77.55102 
L 101.70204 77.55102 
L 100.612295 76.310204 
L 100.612295 76.310204 
L 99.522549 75.069388 
L 99.522549 75.069388 
L 98.432804 73.828571 
L 98.432804 73.828571 
L 97.343059 72.587755 
L 97.343059 72.587755 
L 96.253314 71.346939 
L 96.253314 71.346939 
L 95.163568 70.106122 
L 95.163568 70.106122 
L 94.073823 68.865306 
L 94.073823 68.865306 
L 92.984078 67.62449 
L 92.984078 67.62449 
L 91.894332 66.383673 
L 91.894332 66.383673 
L 90.804587 65.142857 
L 90.804587 65.142857 
L 89.714842 63.902041 
L 89.714842 63.902041 
L 88.625096 62.661224 
L 88.625096 62.661224 
L 87.535351 61.420408 
L 87.535351 61.420408 
L 86.445606 60.179592 
L 86.445606 60.179592 
L 85.355861 58.938776 
L 85.355861 58.938776 
L 84.266115 57.697959 
L 84.266115 57.697959 
L 83.17637 56.457143 
L 82.086625 55.216327 
L 82.086625 55.216327 
L 80.996879 53.97551 
L 80.996879 53.97551 
L 79.907134 52.734694 
L 79.907134 52.734694 
L 78.817389 51.493878 
L 78.817389 51.493878 
L 77.727643 50.253061 
L 77.727643 50.253061 
L 76.637898 49.012245 
L 76.637898 49.012245 
L 75.548153 47.771429 
L 75.548153 47.771429 
L 74.458408 46.530612 
L 74.458408 46.530612 
L 73.368662 45.289796 
L 73.368662 45.289796 
L 72.278917 44.04898 
L 72.278917 44.04898 
L 71.189172 42.808163 
L 71.189172 42.808163 
L 70.099426 41.567347 
L 70.099426 41.567347 
L 69.009681 40.326531 
L 69.009681 40.326531 
L 67.919936 39.085714 
L 67.919936 39.085714 
L 66.830191 37.844898 
L 66.830191 37.844898 
L 65.740445 36.604082 
L 65.740445 36.604082 
L 64.6507 35.363265 
L 64.6507 35.363265 
L 63.560955 34.122449 
L 63.560955 34.122449 
L 62.471209 32.881633 
L 61.381464 31.640816 
L 61.381464 31.640816 
L 60.291719 30.4 
z
" style="fill:#86cc85;"/>
   </g>
   <g id="PathCollection_6">
    <path clip-path="url(#p54d61014ba)" d="M 60.291719 86.236735 
L 60.291719 84.995918 
L 60.291719 83.755102 
L 60.291719 82.514286 
L 60.291719 81.273469 
L 60.291719 80.032653 
L 60.291719 78.791837 
L 60.291719 77.55102 
L 60.291719 76.310204 
L 60.291719 75.069388 
L 60.291719 73.828571 
L 60.291719 72.587755 
L 60.291719 71.346939 
L 60.291719 70.106122 
L 60.291719 68.865306 
L 60.291719 67.62449 
L 60.291719 66.383673 
L 60.291719 65.142857 
L 60.291719 63.902041 
L 60.291719 62.661224 
L 60.291719 61.420408 
L 60.291719 60.179592 
L 60.291719 58.938776 
L 60.291719 57.697959 
L 60.291719 56.457143 
L 60.291719 55.216327 
L 60.291719 53.97551 
L 60.291719 52.734694 
L 60.291719 51.493878 
L 60.291719 50.253061 
L 60.291719 49.012245 
L 60.291719 47.771429 
L 60.291719 46.530612 
L 60.291719 45.289796 
L 60.291719 44.04898 
L 60.291719 42.808163 
L 60.291719 41.567347 
L 60.291719 40.326531 
L 60.291719 39.085714 
L 60.291719 37.844898 
L 60.291719 36.604082 
L 60.291719 35.363265 
L 60.291719 34.122449 
L 60.291719 32.881633 
L 60.291719 31.640816 
L 60.291719 30.4 
L 61.381464 31.640816 
L 61.381464 31.640816 
L 62.471209 32.881633 
L 63.560955 34.122449 
L 63.560955 34.122449 
L 64.6507 35.363265 
L 64.6507 35.363265 
L 65.740445 36.604082 
L 66.830191 37.844898 
L 66.830191 37.844898 
L 67.919936 39.085714 
L 67.919936 39.085714 
L 69.009681 40.326531 
L 69.009681 40.326531 
L 70.099426 41.567347 
L 70.099426 41.567347 
L 71.189172 42.808163 
L 71.189172 42.808163 
L 72.278917 44.04898 
L 72.278917 44.04898 
L 73.368662 45.289796 
L 73.368662 45.289796 
L 74.458408 46.530612 
L 74.458408 46.530612 
L 75.548153 47.771429 
L 75.548153 47.771429 
L 76.637898 49.012245 
L 76.637898 49.012245 
L 77.727643 50.253061 
L 77.727643 50.253061 
L 78.817389 51.493878 
L 78.817389 51.493878 
L 79.907134 52.734694 
L 79.907134 52.734694 
L 80.996879 53.97551 
L 80.996879 53.97551 
L 82.086625 55.216327 
L 82.086625 55.216327 
L 83.17637 56.457143 
L 84.266115 57.697959 
L 84.266115 57.697959 
L 85.355861 58.938776 
L 85.355861 58.938776 
L 86.445606 60.179592 
L 86.445606 60.179592 
L 87.535351 61.420408 
L 87.535351 61.420408 
L 88.625096 62.661224 
L 88.625096 62.661224 
L 89.714842 63.902041 
L 89.714842 63.902041 
L 90.804587 65.142857 
L 90.804587 65.142857 
L 91.894332 66.383673 
L 91.894332 66.383673 
L 92.984078 67.62449 
L 92.984078 67.62449 
L 94.073823 68.865306 
L 94.073823 68.865306 
L 95.163568 70.106122 
L 95.163568 70.106122 
L 96.253314 71.346939 
L 96.253314 71.346939 
L 97.343059 72.587755 
L 97.343059 72.587755 
L 98.432804 73.828571 
L 98.432804 73.828571 
L 99.522549 75.069388 
L 99.522549 75.069388 
L 100.612295 76.310204 
L 100.612295 76.310204 
L 101.70204 77.55102 
L 101.70204 77.55102 
L 102.791785 78.791837 
L 102.791785 78.791837 
L 103.881531 80.032653 
L 103.881531 80.032653 
L 104.971276 81.273469 
L 104.971276 81.273469 
L 106.061021 82.514286 
L 106.061021 82.514286 
L 107.150767 83.755102 
L 107.150767 83.755102 
L 108.240512 84.995918 
L 108.240512 84.995918 
L 109.330257 86.236735 
L 109.330257 86.236735 
L 110.420002 87.477551 
L 110.420002 87.477551 
L 111.509748 88.718367 
L 111.509748 88.718367 
L 112.599493 89.959184 
L 113.689238 91.2 
L 113.689238 91.2 
L 114.778984 92.440816 
L 115.868729 93.681633 
L 115.868729 93.681633 
L 116.958474 94.922449 
L 116.958474 94.922449 
L 118.048219 96.163265 
L 118.048219 96.163265 
L 119.137965 97.404082 
L 119.137965 97.404082 
L 120.22771 98.644898 
L 120.22771 98.644898 
L 121.317455 99.885714 
L 121.317455 99.885714 
L 122.407201 101.126531 
L 122.407201 101.126531 
L 123.496946 102.367347 
L 123.496946 102.367347 
L 124.586691 103.608163 
L 124.586691 103.608163 
L 125.676437 104.84898 
L 125.676437 104.84898 
L 126.766182 106.089796 
L 126.766182 106.089796 
L 127.855927 107.330612 
L 127.855927 107.330612 
L 128.945672 108.571429 
L 128.945672 108.571429 
L 130.035418 109.812245 
L 130.035418 109.812245 
L 131.125163 111.053061 
L 131.125163 111.053061 
L 132.214908 112.293878 
L 132.214908 112.293878 
L 133.304654 113.534694 
L 133.304654 113.534694 
L 134.394399 114.77551 
L 134.394399 114.77551 
L 135.484144 116.016327 
L 135.484144 116.016327 
L 136.57389 117.257143 
L 136.57389 117.257143 
L 137.663635 118.497959 
L 137.663635 118.497959 
L 138.75338 119.738776 
L 138.75338 119.738776 
L 139.843125 120.979592 
L 139.843125 120.979592 
L 140.932871 122.220408 
L 140.932871 122.220408 
L 142.022616 123.461224 
L 142.022616 123.461224 
L 143.112361 124.702041 
L 143.112361 124.702041 
L 144.202107 125.942857 
L 145.291852 127.183673 
L 145.291852 127.183673 
L 146.381597 128.42449 
L 146.381597 128.42449 
L 147.471342 129.665306 
L 147.471342 129.665306 
L 148.561088 130.906122 
L 148.561088 130.906122 
L 149.650833 132.146939 
L 149.650833 132.146939 
L 150.740578 133.387755 
L 150.740578 133.387755 
L 151.830324 134.628571 
L 151.830324 134.628571 
L 152.920069 135.869388 
L 152.920069 135.869388 
L 154.009814 137.110204 
L 154.009814 137.110204 
L 155.09956 138.35102 
L 155.09956 138.35102 
L 156.189305 139.591837 
L 156.189305 139.591837 
L 157.27905 140.832653 
L 157.27905 140.832653 
L 158.368795 142.073469 
L 158.368795 142.073469 
L 159.458541 143.314286 
L 159.458541 143.314286 
L 160.548286 144.555102 
L 160.548286 144.555102 
L 161.638031 145.795918 
L 162.727777 147.036735 
L 162.727777 147.036735 
L 163.817522 148.277551 
L 163.817522 148.277551 
L 164.907267 149.518367 
L 165.997013 150.759184 
L 165.997013 150.759184 
L 167.086758 152 
L 165.997013 152 
L 164.907267 152 
L 163.817522 152 
L 162.727777 152 
L 161.638031 152 
L 160.548286 152 
L 159.458541 152 
L 158.368795 152 
L 157.27905 152 
L 156.189305 152 
L 155.09956 152 
L 154.009814 152 
L 152.920069 152 
L 151.830324 152 
L 150.740578 152 
L 149.650833 152 
L 148.561088 152 
L 147.471342 152 
L 146.381597 152 
L 145.291852 152 
L 144.202107 152 
L 143.112361 152 
L 142.022616 152 
L 140.932871 152 
L 139.843125 152 
L 138.75338 152 
L 137.663635 152 
L 136.57389 152 
L 135.484144 152 
L 134.394399 152 
L 133.304654 152 
L 132.214908 152 
L 131.125163 152 
L 130.035418 152 
L 128.945672 152 
L 127.855927 152 
L 126.766182 152 
L 125.676437 152 
L 124.586691 152 
L 123.496946 152 
L 122.407201 152 
L 121.317455 152 
L 120.22771 152 
L 119.137965 152 
L 118.048219 152 
L 117.754821 152 
L 117.155044 150.759184 
L 116.958474 150.361979 
L 116.5493 149.518367 
L 115.920709 148.277551 
L 115.868729 148.176123 
L 115.295568 147.036735 
L 114.778984 146.055584 
L 114.644616 145.795918 
L 113.989956 144.555102 
L 113.689238 144.003015 
L 113.319958 143.314286 
L 112.628111 142.073469 
L 112.599493 142.02267 
L 111.938528 140.832653 
L 111.509748 140.09044 
L 111.22539 139.591837 
L 110.494908 138.35102 
L 110.420002 138.225573 
L 109.761447 137.110204 
L 109.330257 136.405347 
L 109.005636 135.869388 
L 108.240512 134.647969 
L 108.228466 134.628571 
L 107.449984 133.387755 
L 107.150767 132.925296 
L 106.650653 132.146939 
L 106.061021 131.256425 
L 105.830388 130.906122 
L 104.991069 129.665306 
L 104.971276 129.636357 
L 104.145918 128.42449 
L 103.881531 128.046446 
L 103.279699 127.183673 
L 102.791785 126.501438 
L 102.392812 125.942857 
L 101.70204 124.99812 
L 101.485544 124.702041 
L 100.612295 123.533671 
L 100.558074 123.461224 
L 99.616068 122.220408 
L 99.522549 122.099197 
L 98.655898 120.979592 
L 98.432804 120.696667 
L 97.673984 119.738776 
L 97.343059 119.3281 
L 96.670123 118.497959 
L 96.253314 117.99175 
L 95.643998 117.257143 
L 95.163568 116.686097 
L 94.595168 116.016327 
L 94.073823 115.409824 
L 93.523066 114.77551 
L 92.984078 114.161802 
L 92.426993 113.534694 
L 91.894332 112.941075 
L 91.306108 112.293878 
L 90.804587 111.746846 
L 90.159419 111.053061 
L 89.714842 110.578469 
L 88.985772 109.812245 
L 88.625096 109.435444 
L 87.78383 108.571429 
L 87.535351 108.317407 
L 86.552059 107.330612 
L 86.445606 107.224129 
L 85.355861 106.151533 
L 85.292234 106.089796 
L 84.266115 105.095488 
L 84.006084 104.84898 
L 83.17637 104.062446 
L 82.685797 103.608163 
L 82.086625 103.05261 
L 81.328896 102.367347 
L 80.996879 102.066307 
L 79.932559 101.126531 
L 79.907134 101.103993 
L 78.817389 100.14832 
L 78.509736 99.885714 
L 77.727643 99.214342 
L 77.044052 98.644898 
L 76.637898 98.3042 
L 75.548153 97.417798 
L 75.531117 97.404082 
L 74.458408 96.532888 
L 73.987702 96.163265 
L 73.368662 95.672299 
L 72.389091 94.922449 
L 72.278917 94.837159 
L 71.189172 94.00541 
L 70.751274 93.681633 
L 70.099426 93.193411 
L 69.054296 92.440816 
L 69.009681 92.408231 
L 67.919936 91.620474 
L 67.31506 91.2 
L 66.830191 90.857594 
L 65.740445 90.112179 
L 65.512394 89.959184 
L 64.6507 89.370985 
L 63.650034 88.718367 
L 63.560955 88.659182 
L 62.471209 87.943449 
L 61.730309 87.477551 
L 61.381464 87.253731 
L 60.291719 86.570807 
z
" style="fill:#60ba6c;"/>
   </g>
   <g id="PathCollection_7">
    <path clip-path="url(#p54d61014ba)" d="M 60.291719 111.053061 
L 60.291719 109.812245 
L 60.291719 108.571429 
L 60.291719 107.330612 
L 60.291719 106.089796 
L 60.291719 104.84898 
L 60.291719 103.608163 
L 60.291719 102.367347 
L 60.291719 101.126531 
L 60.291719 99.885714 
L 60.291719 98.644898 
L 60.291719 97.404082 
L 60.291719 96.163265 
L 60.291719 94.922449 
L 60.291719 93.681633 
L 60.291719 92.440816 
L 60.291719 91.2 
L 60.291719 89.959184 
L 60.291719 88.718367 
L 60.291719 87.477551 
L 60.291719 86.570807 
L 61.381464 87.253731 
L 61.730309 87.477551 
L 62.471209 87.943449 
L 63.560955 88.659182 
L 63.650034 88.718367 
L 64.6507 89.370985 
L 65.512394 89.959184 
L 65.740445 90.112179 
L 66.830191 90.857594 
L 67.31506 91.2 
L 67.919936 91.620474 
L 69.009681 92.408231 
L 69.054296 92.440816 
L 70.099426 93.193411 
L 70.751274 93.681633 
L 71.189172 94.00541 
L 72.278917 94.837159 
L 72.389091 94.922449 
L 73.368662 95.672299 
L 73.987702 96.163265 
L 74.458408 96.532888 
L 75.531117 97.404082 
L 75.548153 97.417798 
L 76.637898 98.3042 
L 77.044052 98.644898 
L 77.727643 99.214342 
L 78.509736 99.885714 
L 78.817389 100.14832 
L 79.907134 101.103993 
L 79.932559 101.126531 
L 80.996879 102.066307 
L 81.328896 102.367347 
L 82.086625 103.05261 
L 82.685797 103.608163 
L 83.17637 104.062446 
L 84.006084 104.84898 
L 84.266115 105.095488 
L 85.292234 106.089796 
L 85.355861 106.151533 
L 86.445606 107.224129 
L 86.552059 107.330612 
L 87.535351 108.317407 
L 87.78383 108.571429 
L 88.625096 109.435444 
L 88.985772 109.812245 
L 89.714842 110.578469 
L 90.159419 111.053061 
L 90.804587 111.746846 
L 91.306108 112.293878 
L 91.894332 112.941075 
L 92.426993 113.534694 
L 92.984078 114.161802 
L 93.523066 114.77551 
L 94.073823 115.409824 
L 94.595168 116.016327 
L 95.163568 116.686097 
L 95.643998 117.257143 
L 96.253314 117.99175 
L 96.670123 118.497959 
L 97.343059 119.3281 
L 97.673984 119.738776 
L 98.432804 120.696667 
L 98.655898 120.979592 
L 99.522549 122.099197 
L 99.616068 122.220408 
L 100.558074 123.461224 
L 100.612295 123.533671 
L 101.485544 124.702041 
L 101.70204 124.99812 
L 102.392812 125.942857 
L 102.791785 126.501438 
L 103.279699 127.183673 
L 103.881531 128.046446 
L 104.145918 128.42449 
L 104.971276 129.636357 
L 104.991069 129.665306 
L 105.830388 130.906122 
L 106.061021 131.256425 
L 106.650653 132.146939 
L 107.150767 132.925296 
L 107.449984 133.387755 
L 108.228466 134.628571 
L 108.240512 134.647969 
L 109.005636 135.869388 
L 109.330257 136.405347 
L 109.761447 137.110204 
L 110.420002 138.225573 
L 110.494908 138.35102 
L 111.22539 139.591837 
L 111.509748 140.09044 
L 111.938528 140.832653 
L 112.599493 142.02267 
L 112.628111 142.073469 
L 113.319958 143.314286 
L 113.689238 144.003015 
L 113.989956 144.555102 
L 114.644616 145.795918 
L 114.778984 146.055584 
L 115.295568 147.036735 
L 115.868729 148.176123 
L 115.920709 148.277551 
L 116.5493 149.518367 
L 116.958474 150.361979 
L 117.155044 150.759184 
L 117.754821 152 
L 116.958474 152 
L 115.868729 152 
L 114.778984 152 
L 113.689238 152 
L 112.599493 152 
L 111.509748 152 
L 110.420002 152 
L 109.330257 152 
L 108.240512 152 
L 107.150767 152 
L 106.061021 152 
L 104.971276 152 
L 103.881531 152 
L 102.791785 152 
L 101.70204 152 
L 100.612295 152 
L 99.522549 152 
L 98.432804 152 
L 97.343059 152 
L 96.253314 152 
L 96.064934 152 
L 95.368298 150.759184 
L 95.163568 150.403198 
L 94.658952 149.518367 
L 94.073823 148.531344 
L 93.924417 148.277551 
L 93.178466 147.036735 
L 92.984078 146.720925 
L 92.417564 145.795918 
L 91.894332 144.970505 
L 91.631949 144.555102 
L 90.823559 143.314286 
L 90.804587 143.285467 
L 90.007943 142.073469 
L 89.714842 141.640869 
L 89.167282 140.832653 
L 88.625096 140.054793 
L 88.301953 139.591837 
L 87.535351 138.522361 
L 87.412181 138.35102 
L 86.501514 137.110204 
L 86.445606 137.035149 
L 85.572777 135.869388 
L 85.355861 135.586177 
L 84.617527 134.628571 
L 84.266115 134.182259 
L 83.635422 133.387755 
L 83.17637 132.820521 
L 82.625941 132.146939 
L 82.086625 131.49849 
L 81.588378 130.906122 
L 80.996879 130.214048 
L 80.521835 129.665306 
L 79.907134 128.965389 
L 79.425202 128.42449 
L 78.817389 127.750991 
L 78.297142 127.183673 
L 77.727643 126.569592 
L 77.136071 125.942857 
L 76.637898 125.420167 
L 75.940127 124.702041 
L 75.548153 124.301913 
L 74.707137 123.461224 
L 74.458408 123.214237 
L 73.434579 122.220408 
L 73.368662 122.15675 
L 72.278917 121.119837 
L 72.128438 120.979592 
L 71.189172 120.106716 
L 70.782581 119.738776 
L 70.099426 119.121427 
L 69.389612 118.497959 
L 69.009681 118.164225 
L 67.945246 117.257143 
L 67.919936 117.235541 
L 66.830191 116.315084 
L 66.465363 116.016327 
L 65.740445 115.420559 
L 64.928059 114.77551 
L 64.6507 114.554174 
L 63.560955 113.704812 
L 63.338062 113.534694 
L 62.471209 112.868449 
L 61.694108 112.293878 
L 61.381464 112.060767 
L 60.291719 111.267556 
z
" style="fill:#3ba458;"/>
   </g>
   <g id="PathCollection_8">
    <path clip-path="url(#p54d61014ba)" d="M 60.641194 128.42449 
L 60.291719 128.122228 
L 60.291719 127.183673 
L 60.291719 125.942857 
L 60.291719 124.702041 
L 60.291719 123.461224 
L 60.291719 122.220408 
L 60.291719 120.979592 
L 60.291719 119.738776 
L 60.291719 118.497959 
L 60.291719 117.257143 
L 60.291719 116.016327 
L 60.291719 114.77551 
L 60.291719 113.534694 
L 60.291719 112.293878 
L 60.291719 111.267556 
L 61.381464 112.060767 
L 61.694108 112.293878 
L 62.471209 112.868449 
L 63.338062 113.534694 
L 63.560955 113.704812 
L 64.6507 114.554174 
L 64.928059 114.77551 
L 65.740445 115.420559 
L 66.465363 116.016327 
L 66.830191 116.315084 
L 67.919936 117.235541 
L 67.945246 117.257143 
L 69.009681 118.164225 
L 69.389612 118.497959 
L 70.099426 119.121427 
L 70.782581 119.738776 
L 71.189172 120.106716 
L 72.128438 120.979592 
L 72.278917 121.119837 
L 73.368662 122.15675 
L 73.434579 122.220408 
L 74.458408 123.214237 
L 74.707137 123.461224 
L 75.548153 124.301913 
L 75.940127 124.702041 
L 76.637898 125.420167 
L 77.136071 125.942857 
L 77.727643 126.569592 
L 78.297142 127.183673 
L 78.817389 127.750991 
L 79.425202 128.42449 
L 79.907134 128.965389 
L 80.521835 129.665306 
L 80.996879 130.214048 
L 81.588378 130.906122 
L 82.086625 131.49849 
L 82.625941 132.146939 
L 83.17637 132.820521 
L 83.635422 133.387755 
L 84.266115 134.182259 
L 84.617527 134.628571 
L 85.355861 135.586177 
L 85.572777 135.869388 
L 86.445606 137.035149 
L 86.501514 137.110204 
L 87.412181 138.35102 
L 87.535351 138.522361 
L 88.301953 139.591837 
L 88.625096 140.054793 
L 89.167282 140.832653 
L 89.714842 141.640869 
L 90.007943 142.073469 
L 90.804587 143.285467 
L 90.823559 143.314286 
L 91.631949 144.555102 
L 91.894332 144.970505 
L 92.417564 145.795918 
L 92.984078 146.720925 
L 93.178466 147.036735 
L 93.924417 148.277551 
L 94.073823 148.531344 
L 94.658952 149.518367 
L 95.163568 150.403198 
L 95.368298 150.759184 
L 96.064934 152 
L 95.163568 152 
L 94.073823 152 
L 92.984078 152 
L 91.894332 152 
L 90.804587 152 
L 89.714842 152 
L 88.625096 152 
L 87.535351 152 
L 86.445606 152 
L 85.355861 152 
L 84.266115 152 
L 83.17637 152 
L 82.086625 152 
L 81.262341 152 
L 80.996879 151.602078 
L 80.434413 150.759184 
L 79.907134 149.992292 
L 79.580704 149.518367 
L 78.817389 148.440697 
L 78.701451 148.277551 
L 77.801354 147.036735 
L 77.727643 146.93678 
L 76.881563 145.795918 
L 76.637898 145.475129 
L 75.934009 144.555102 
L 75.548153 144.061795 
L 74.958305 143.314286 
L 74.458408 142.693527 
L 73.953868 142.073469 
L 73.368662 141.367537 
L 72.919911 140.832653 
L 72.278917 140.081442 
L 71.855427 139.591837 
L 71.189172 138.833219 
L 70.759177 138.35102 
L 70.099426 137.621166 
L 69.629666 137.110204 
L 69.009681 136.443871 
L 68.465116 135.869388 
L 67.919936 135.300189 
L 67.263437 134.628571 
L 66.830191 134.189224 
L 66.022178 133.387755 
L 65.740445 133.110312 
L 64.738485 132.146939 
L 64.6507 132.06301 
L 63.560955 131.038133 
L 63.417672 130.906122 
L 62.471209 130.036989 
L 62.054986 129.665306 
L 61.381464 129.064931 
z
" style="fill:#228a44;"/>
   </g>
   <g id="PathCollection_9">
    <path clip-path="url(#p54d61014ba)" d="M 60.998541 142.073469 
L 60.291719 141.358142 
L 60.291719 140.832653 
L 60.291719 139.591837 
L 60.291719 138.35102 
L 60.291719 137.110204 
L 60.291719 135.869388 
L 60.291719 134.628571 
L 60.291719 133.387755 
L 60.291719 132.146939 
L 60.291719 130.906122 
L 60.291719 129.665306 
L 60.291719 128.42449 
L 60.291719 128.122228 
L 60.641194 128.42449 
L 61.381464 129.064931 
L 62.054986 129.665306 
L 62.471209 130.036989 
L 63.417672 130.906122 
L 63.560955 131.038133 
L 64.6507 132.06301 
L 64.738485 132.146939 
L 65.740445 133.110312 
L 66.022178 133.387755 
L 66.830191 134.189224 
L 67.263437 134.628571 
L 67.919936 135.300189 
L 68.465116 135.869388 
L 69.009681 136.443871 
L 69.629666 137.110204 
L 70.099426 137.621166 
L 70.759177 138.35102 
L 71.189172 138.833219 
L 71.855427 139.591837 
L 72.278917 140.081442 
L 72.919911 140.832653 
L 73.368662 141.367537 
L 73.953868 142.073469 
L 74.458408 142.693527 
L 74.958305 143.314286 
L 75.548153 144.061795 
L 75.934009 144.555102 
L 76.637898 145.475129 
L 76.881563 145.795918 
L 77.727643 146.93678 
L 77.801354 147.036735 
L 78.701451 148.277551 
L 78.817389 148.440697 
L 79.580704 149.518367 
L 79.907134 149.992292 
L 80.434413 150.759184 
L 80.996879 151.602078 
L 81.262341 152 
L 80.996879 152 
L 79.907134 152 
L 78.817389 152 
L 77.727643 152 
L 76.637898 152 
L 75.548153 152 
L 74.458408 152 
L 73.368662 152 
L 72.278917 152 
L 71.189172 152 
L 70.099426 152 
L 69.637916 152 
L 69.009681 151.195191 
L 68.666259 150.759184 
L 67.919936 149.831018 
L 67.665862 149.518367 
L 66.830191 148.509285 
L 66.635923 148.277551 
L 65.740445 147.227571 
L 65.575421 147.036735 
L 64.6507 145.983819 
L 64.483098 145.795918 
L 63.560955 144.776301 
L 63.357434 144.555102 
L 62.471209 143.603582 
L 62.196624 143.314286 
L 61.381464 142.4645 
z
" style="fill:#077331;"/>
   </g>
   <g id="PathCollection_10">
    <path clip-path="url(#p54d61014ba)" d="M 60.291719 150.759184 
L 60.291719 149.518367 
L 60.291719 148.277551 
L 60.291719 147.036735 
L 60.291719 145.795918 
L 60.291719 144.555102 
L 60.291719 143.314286 
L 60.291719 142.073469 
L 60.291719 141.358142 
L 60.998541 142.073469 
L 61.381464 142.4645 
L 62.196624 143.314286 
L 62.471209 143.603582 
L 63.357434 144.555102 
L 63.560955 144.776301 
L 64.483098 145.795918 
L 64.6507 145.983819 
L 65.575421 147.036735 
L 65.740445 147.227571 
L 66.635923 148.277551 
L 66.830191 148.509285 
L 67.665862 149.518367 
L 67.919936 149.831018 
L 68.666259 150.759184 
L 69.009681 151.195191 
L 69.637916 152 
L 69.009681 152 
L 67.919936 152 
L 66.830191 152 
L 65.740445 152 
L 64.6507 152 
L 63.560955 152 
L 62.471209 152 
L 61.381464 152 
L 60.291719 152 
z
" style="fill:#005321;"/>
   </g>
   <g id="matplotlib.axis_1">
    <g id="xtick_1">
     <g id="line2d_1">
      <defs>
       <path d="M 0 0 
L 0 3.5 
" id="mdce4a133ad" style="stroke:#000000;stroke-width:0.8;"/>
      </defs>
      <g>
       <use style="stroke:#000000;stroke-width:0.8;" x="60.291719" xlink:href="#mdce4a133ad" y="152"/>
      </g>
     </g>
     <g id="text_1">
      <!-- $\mathdefault{10^{-1}}$ -->
      <defs>
       <path d="M 12.40625 8.296875 
L 28.515625 8.296875 
L 28.515625 63.921875 
L 10.984375 60.40625 
L 10.984375 69.390625 
L 28.421875 72.90625 
L 38.28125 72.90625 
L 38.28125 8.296875 
L 54.390625 8.296875 
L 54.390625 0 
L 12.40625 0 
z
" id="DejaVuSans-31"/>
       <path d="M 31.78125 66.40625 
Q 24.171875 66.40625 20.328125 58.90625 
Q 16.5 51.421875 16.5 36.375 
Q 16.5 21.390625 20.328125 13.890625 
Q 24.171875 6.390625 31.78125 6.390625 
Q 39.453125 6.390625 43.28125 13.890625 
Q 47.125 21.390625 47.125 36.375 
Q 47.125 51.421875 43.28125 58.90625 
Q 39.453125 66.40625 31.78125 66.40625 
z
M 31.78125 74.21875 
Q 44.046875 74.21875 50.515625 64.515625 
Q 56.984375 54.828125 56.984375 36.375 
Q 56.984375 17.96875 50.515625 8.265625 
Q 44.046875 -1.421875 31.78125 -1.421875 
Q 19.53125 -1.421875 13.0625 8.265625 
Q 6.59375 17.96875 6.59375 36.375 
Q 6.59375 54.828125 13.0625 64.515625 
Q 19.53125 74.21875 31.78125 74.21875 
z
" id="DejaVuSans-30"/>
       <path d="M 10.59375 35.5 
L 73.1875 35.5 
L 73.1875 27.203125 
L 10.59375 27.203125 
z
" id="DejaVuSans-2212"/>
      </defs>
      <g transform="translate(48.541719 166.598437)scale(0.1 -0.1)">
       <use transform="translate(0 0.684375)" xlink:href="#DejaVuSans-31"/>
       <use transform="translate(63.623047 0.684375)" xlink:href="#DejaVuSans-30"/>
       <use transform="translate(128.203125 38.965625)scale(0.7)" xlink:href="#DejaVuSans-2212"/>
       <use transform="translate(186.855469 38.965625)scale(0.7)" xlink:href="#DejaVuSans-31"/>
      </g>
     </g>
    </g>
    <g id="xtick_2">
     <g id="line2d_2">
      <g>
       <use style="stroke:#000000;stroke-width:0.8;" x="113.689238" xlink:href="#mdce4a133ad" y="152"/>
      </g>
     </g>
     <g id="text_2">
      <!-- $\mathdefault{10^{0}}$ -->
      <g transform="translate(104.889238 166.598437)scale(0.1 -0.1)">
       <use transform="translate(0 0.765625)" xlink:href="#DejaVuSans-31"/>
       <use transform="translate(63.623047 0.765625)" xlink:href="#DejaVuSans-30"/>
       <use transform="translate(128.203125 39.046875)scale(0.7)" xlink:href="#DejaVuSans-30"/>
      </g>
     </g>
    </g>
    <g id="xtick_3">
     <g id="line2d_3">
      <g>
       <use style="stroke:#000000;stroke-width:0.8;" x="167.086758" xlink:href="#mdce4a133ad" y="152"/>
      </g>
     </g>
     <g id="text_3">
      <!-- $\mathdefault{10^{1}}$ -->
      <g transform="translate(158.286758 166.598437)scale(0.1 -0.1)">
       <use transform="translate(0 0.684375)" xlink:href="#DejaVuSans-31"/>
       <use transform="translate(63.623047 0.684375)" xlink:href="#DejaVuSans-30"/>
       <use transform="translate(128.203125 38.965625)scale(0.7)" xlink:href="#DejaVuSans-31"/>
      </g>
     </g>
    </g>
    <g id="xtick_4">
     <g id="line2d_4">
      <defs>
       <path d="M 0 0 
L 0 2 
" id="mc3fad8f08e" style="stroke:#000000;stroke-width:0.6;"/>
      </defs>
      <g>
       <use style="stroke:#000000;stroke-width:0.6;" x="76.365974" xlink:href="#mc3fad8f08e" y="152"/>
      </g>
     </g>
    </g>
    <g id="xtick_5">
     <g id="line2d_5">
      <g>
       <use style="stroke:#000000;stroke-width:0.6;" x="85.76881" xlink:href="#mc3fad8f08e" y="152"/>
      </g>
     </g>
    </g>
    <g id="xtick_6">
     <g id="line2d_6">
      <g>
       <use style="stroke:#000000;stroke-width:0.6;" x="92.440229" xlink:href="#mc3fad8f08e" y="152"/>
      </g>
     </g>
    </g>
    <g id="xtick_7">
     <g id="line2d_7">
      <g>
       <use style="stroke:#000000;stroke-width:0.6;" x="97.614983" xlink:href="#mc3fad8f08e" y="152"/>
      </g>
     </g>
    </g>
    <g id="xtick_8">
     <g id="line2d_8">
      <g>
       <use style="stroke:#000000;stroke-width:0.6;" x="101.843065" xlink:href="#mc3fad8f08e" y="152"/>
      </g>
     </g>
    </g>
    <g id="xtick_9">
     <g id="line2d_9">
      <g>
       <use style="stroke:#000000;stroke-width:0.6;" x="105.417858" xlink:href="#mc3fad8f08e" y="152"/>
      </g>
     </g>
    </g>
    <g id="xtick_10">
     <g id="line2d_10">
      <g>
       <use style="stroke:#000000;stroke-width:0.6;" x="108.514484" xlink:href="#mc3fad8f08e" y="152"/>
      </g>
     </g>
    </g>
    <g id="xtick_11">
     <g id="line2d_11">
      <g>
       <use style="stroke:#000000;stroke-width:0.6;" x="111.245902" xlink:href="#mc3fad8f08e" y="152"/>
      </g>
     </g>
    </g>
    <g id="xtick_12">
     <g id="line2d_12">
      <g>
       <use style="stroke:#000000;stroke-width:0.6;" x="129.763493" xlink:href="#mc3fad8f08e" y="152"/>
      </g>
     </g>
    </g>
    <g id="xtick_13">
     <g id="line2d_13">
      <g>
       <use style="stroke:#000000;stroke-width:0.6;" x="139.16633" xlink:href="#mc3fad8f08e" y="152"/>
      </g>
     </g>
    </g>
    <g id="xtick_14">
     <g id="line2d_14">
      <g>
       <use style="stroke:#000000;stroke-width:0.6;" x="145.837748" xlink:href="#mc3fad8f08e" y="152"/>
      </g>
     </g>
    </g>
    <g id="xtick_15">
     <g id="line2d_15">
      <g>
       <use style="stroke:#000000;stroke-width:0.6;" x="151.012503" xlink:href="#mc3fad8f08e" y="152"/>
      </g>
     </g>
    </g>
    <g id="xtick_16">
     <g id="line2d_16">
      <g>
       <use style="stroke:#000000;stroke-width:0.6;" x="155.240585" xlink:href="#mc3fad8f08e" y="152"/>
      </g>
     </g>
    </g>
    <g id="xtick_17">
     <g id="line2d_17">
      <g>
       <use style="stroke:#000000;stroke-width:0.6;" x="158.815377" xlink:href="#mc3fad8f08e" y="152"/>
      </g>
     </g>
    </g>
    <g id="xtick_18">
     <g id="line2d_18">
      <g>
       <use style="stroke:#000000;stroke-width:0.6;" x="161.912004" xlink:href="#mc3fad8f08e" y="152"/>
      </g>
     </g>
    </g>
    <g id="xtick_19">
     <g id="line2d_19">
      <g>
       <use style="stroke:#000000;stroke-width:0.6;" x="164.643421" xlink:href="#mc3fad8f08e" y="152"/>
      </g>
     </g>
    </g>
    <g id="text_4">
     <!-- $c$ -->
     <defs>
      <path d="M 53.609375 52.59375 
L 51.8125 43.703125 
Q 48.578125 46.046875 44.9375 47.21875 
Q 41.3125 48.390625 37.40625 48.390625 
Q 33.109375 48.390625 29.21875 46.875 
Q 25.34375 45.359375 22.703125 42.578125 
Q 18.5 38.328125 16.203125 32.609375 
Q 13.921875 26.90625 13.921875 20.796875 
Q 13.921875 13.421875 17.609375 9.8125 
Q 21.296875 6.203125 28.8125 6.203125 
Q 32.515625 6.203125 36.6875 7.328125 
Q 40.875 8.453125 45.40625 10.6875 
L 43.703125 1.8125 
Q 39.796875 0.203125 35.671875 -0.609375 
Q 31.546875 -1.421875 27.203125 -1.421875 
Q 16.3125 -1.421875 10.453125 4.015625 
Q 4.59375 9.46875 4.59375 19.578125 
Q 4.59375 28.078125 7.640625 35.234375 
Q 10.6875 42.390625 16.703125 48.09375 
Q 20.796875 52 26.3125 54 
Q 31.84375 56 38.375 56 
Q 42.1875 56 45.9375 55.140625 
Q 49.703125 54.296875 53.609375 52.59375 
z
" id="DejaVuSans-Oblique-63"/>
     </defs>
     <g transform="translate(109.839238 183.315937)scale(0.14 -0.14)">
      <use xlink:href="#DejaVuSans-Oblique-63"/>
     </g>
    </g>
   </g>
   <g id="matplotlib.axis_2">
    <g id="ytick_1">
     <g id="line2d_20">
      <defs>
       <path d="M 0 0 
L -3.5 0 
" id="m3fd598b48d" style="stroke:#000000;stroke-width:0.8;"/>
      </defs>
      <g>
       <use style="stroke:#000000;stroke-width:0.8;" x="60.291719" xlink:href="#m3fd598b48d" y="152"/>
      </g>
     </g>
     <g id="text_5">
      <!-- $\mathdefault{10^{-1}}$ -->
      <g transform="translate(29.791719 155.799219)scale(0.1 -0.1)">
       <use transform="translate(0 0.684375)" xlink:href="#DejaVuSans-31"/>
       <use transform="translate(63.623047 0.684375)" xlink:href="#DejaVuSans-30"/>
       <use transform="translate(128.203125 38.965625)scale(0.7)" xlink:href="#DejaVuSans-2212"/>
       <use transform="translate(186.855469 38.965625)scale(0.7)" xlink:href="#DejaVuSans-31"/>
      </g>
     </g>
    </g>
    <g id="ytick_2">
     <g id="line2d_21">
      <g>
       <use style="stroke:#000000;stroke-width:0.8;" x="60.291719" xlink:href="#m3fd598b48d" y="91.2"/>
      </g>
     </g>
     <g id="text_6">
      <!-- $\mathdefault{10^{0}}$ -->
      <g transform="translate(35.691719 94.999219)scale(0.1 -0.1)">
       <use transform="translate(0 0.765625)" xlink:href="#DejaVuSans-31"/>
       <use transform="translate(63.623047 0.765625)" xlink:href="#DejaVuSans-30"/>
       <use transform="translate(128.203125 39.046875)scale(0.7)" xlink:href="#DejaVuSans-30"/>
      </g>
     </g>
    </g>
    <g id="ytick_3">
     <g id="line2d_22">
      <g>
       <use style="stroke:#000000;stroke-width:0.8;" x="60.291719" xlink:href="#m3fd598b48d" y="30.4"/>
      </g>
     </g>
     <g id="text_7">
      <!-- $\mathdefault{10^{1}}$ -->
      <g transform="translate(35.691719 34.199219)scale(0.1 -0.1)">
       <use transform="translate(0 0.684375)" xlink:href="#DejaVuSans-31"/>
       <use transform="translate(63.623047 0.684375)" xlink:href="#DejaVuSans-30"/>
       <use transform="translate(128.203125 38.965625)scale(0.7)" xlink:href="#DejaVuSans-31"/>
      </g>
     </g>
    </g>
    <g id="ytick_4">
     <g id="line2d_23">
      <defs>
       <path d="M 0 0 
L -2 0 
" id="m61fd816ed2" style="stroke:#000000;stroke-width:0.6;"/>
      </defs>
      <g>
       <use style="stroke:#000000;stroke-width:0.6;" x="60.291719" xlink:href="#m61fd816ed2" y="133.697376"/>
      </g>
     </g>
    </g>
    <g id="ytick_5">
     <g id="line2d_24">
      <g>
       <use style="stroke:#000000;stroke-width:0.6;" x="60.291719" xlink:href="#m61fd816ed2" y="122.991028"/>
      </g>
     </g>
    </g>
    <g id="ytick_6">
     <g id="line2d_25">
      <g>
       <use style="stroke:#000000;stroke-width:0.6;" x="60.291719" xlink:href="#m61fd816ed2" y="115.394753"/>
      </g>
     </g>
    </g>
    <g id="ytick_7">
     <g id="line2d_26">
      <g>
       <use style="stroke:#000000;stroke-width:0.6;" x="60.291719" xlink:href="#m61fd816ed2" y="109.502624"/>
      </g>
     </g>
    </g>
    <g id="ytick_8">
     <g id="line2d_27">
      <g>
       <use style="stroke:#000000;stroke-width:0.6;" x="60.291719" xlink:href="#m61fd816ed2" y="104.688404"/>
      </g>
     </g>
    </g>
    <g id="ytick_9">
     <g id="line2d_28">
      <g>
       <use style="stroke:#000000;stroke-width:0.6;" x="60.291719" xlink:href="#m61fd816ed2" y="100.618039"/>
      </g>
     </g>
    </g>
    <g id="ytick_10">
     <g id="line2d_29">
      <g>
       <use style="stroke:#000000;stroke-width:0.6;" x="60.291719" xlink:href="#m61fd816ed2" y="97.092129"/>
      </g>
     </g>
    </g>
    <g id="ytick_11">
     <g id="line2d_30">
      <g>
       <use style="stroke:#000000;stroke-width:0.6;" x="60.291719" xlink:href="#m61fd816ed2" y="93.982055"/>
      </g>
     </g>
    </g>
    <g id="ytick_12">
     <g id="line2d_31">
      <g>
       <use style="stroke:#000000;stroke-width:0.6;" x="60.291719" xlink:href="#m61fd816ed2" y="72.897376"/>
      </g>
     </g>
    </g>
    <g id="ytick_13">
     <g id="line2d_32">
      <g>
       <use style="stroke:#000000;stroke-width:0.6;" x="60.291719" xlink:href="#m61fd816ed2" y="62.191028"/>
      </g>
     </g>
    </g>
    <g id="ytick_14">
     <g id="line2d_33">
      <g>
       <use style="stroke:#000000;stroke-width:0.6;" x="60.291719" xlink:href="#m61fd816ed2" y="54.594753"/>
      </g>
     </g>
    </g>
    <g id="ytick_15">
     <g id="line2d_34">
      <g>
       <use style="stroke:#000000;stroke-width:0.6;" x="60.291719" xlink:href="#m61fd816ed2" y="48.702624"/>
      </g>
     </g>
    </g>
    <g id="ytick_16">
     <g id="line2d_35">
      <g>
       <use style="stroke:#000000;stroke-width:0.6;" x="60.291719" xlink:href="#m61fd816ed2" y="43.888404"/>
      </g>
     </g>
    </g>
    <g id="ytick_17">
     <g id="line2d_36">
      <g>
       <use style="stroke:#000000;stroke-width:0.6;" x="60.291719" xlink:href="#m61fd816ed2" y="39.818039"/>
      </g>
     </g>
    </g>
    <g id="ytick_18">
     <g id="line2d_37">
      <g>
       <use style="stroke:#000000;stroke-width:0.6;" x="60.291719" xlink:href="#m61fd816ed2" y="36.292129"/>
      </g>
     </g>
    </g>
    <g id="ytick_19">
     <g id="line2d_38">
      <g>
       <use style="stroke:#000000;stroke-width:0.6;" x="60.291719" xlink:href="#m61fd816ed2" y="33.182055"/>
      </g>
     </g>
    </g>
    <g id="text_8">
     <!-- $r$ -->
     <defs>
      <path d="M 44.578125 46.390625 
Q 43.21875 47.125 41.453125 47.515625 
Q 39.703125 47.90625 37.703125 47.90625 
Q 30.515625 47.90625 25.140625 42.453125 
Q 19.78125 37.015625 18.015625 27.875 
L 12.5 0 
L 3.515625 0 
L 14.203125 54.6875 
L 23.1875 54.6875 
L 21.484375 46.1875 
Q 25.046875 50.921875 30 53.453125 
Q 34.96875 56 40.578125 56 
Q 42.046875 56 43.453125 55.828125 
Q 44.875 55.671875 46.296875 55.28125 
z
" id="DejaVuSans-Oblique-72"/>
     </defs>
     <g transform="translate(22.880156 94.14)rotate(-90)scale(0.14 -0.14)">
      <use xlink:href="#DejaVuSans-Oblique-72"/>
     </g>
    </g>
   </g>
   <g id="LineCollection_1">
    <path clip-path="url(#p54d61014ba)" d="M 109.633839 30.4 
L 110.23089 31.640816 
L 110.420002 32.02544 
L 110.841252 32.881633 
L 111.460045 34.122449 
L 111.509748 34.219586 
L 112.095658 35.363265 
L 112.599493 36.334636 
L 112.739495 36.604082 
L 112.765593 36.651465 
" style="fill:none;stroke:#000000;stroke-dasharray:11.1,4.8;stroke-dashoffset:0;stroke-width:3;"/>
    <path clip-path="url(#p54d61014ba)" d="M 121.515979 51.431545 
L 121.556748 51.493878 
L 122.3883 52.734694 
L 122.407201 52.762344 
L 123.241854 53.97551 
L 123.496946 54.341316 
L 124.111405 55.216327 
L 124.586691 55.8841 
L 124.997621 56.457143 
L 125.676437 57.391158 
L 125.9012 57.697959 
L 126.766182 58.863056 
L 126.822876 58.938776 
L 127.766348 60.179592 
L 127.855927 60.29576 
L 128.7308 61.420408 
L 128.945672 61.693201 
L 129.71522 62.661224 
L 130.035418 63.059094 
L 130.720379 63.902041 
L 131.125163 64.394231 
L 131.747063 65.142857 
L 132.214908 65.699449 
L 132.796071 66.383673 
L 133.304654 66.975618 
L 133.868205 67.62449 
L 134.394399 68.22363 
L 134.96427 68.865306 
L 135.484144 69.444393 
L 136.085063 70.106122 
L 136.57389 70.638824 
L 137.23137 71.346939 
L 137.663635 71.807838 
L 138.403952 72.587755 
L 138.75338 72.952342 
L 139.603545 73.828571 
L 139.843125 74.073232 
L 140.830846 75.069388 
L 140.932871 75.171385 
L 142.022616 76.245651 
L 142.089117 76.310204 
L 143.112361 77.295098 
L 143.381809 77.55102 
L 144.202107 78.32394 
L 144.705381 78.791837 
L 145.291852 79.333011 
L 146.060328 80.032653 
L 146.381597 80.323109 
L 147.447059 81.273469 
L 147.471342 81.29499 
L 148.561088 82.24182 
L 148.879221 82.514286 
L 149.650833 83.171154 
L 150.346323 83.755102 
L 150.740578 84.08431 
L 151.830324 84.98155 
L 151.848166 84.995918 
L 152.920069 85.854802 
L 153.403377 86.236735 
L 154.009814 86.71383 
L 154.993953 87.477551 
L 155.09956 87.559183 
L 156.189305 88.38322 
L 156.639565 88.718367 
L 157.27905 89.192746 
L 158.326149 89.959184 
L 158.368795 89.99031 
L 159.458541 90.766366 
L 160.076028 91.2 
L 160.548286 91.53088 
L 161.638031 92.281406 
L 161.874672 92.440816 
L 162.727777 93.014498 
L 163.732212 93.681633 
L 163.817522 93.738225 
L 164.907267 94.442801 
L 165.659217 94.922449 
L 165.997013 95.137778 
L 167.086758 95.817598 
" style="fill:none;stroke:#000000;stroke-dasharray:11.1,4.8;stroke-dashoffset:0;stroke-width:3;"/>
   </g>
   <g id="LineCollection_2">
    <path clip-path="url(#p54d61014ba)" d="M 60.291719 30.4 
L 61.381464 31.640816 
L 61.381464 31.640816 
L 62.471209 32.881633 
L 63.560955 34.122449 
L 63.560955 34.122449 
L 64.6507 35.363265 
L 64.6507 35.363265 
L 65.740445 36.604082 
L 66.830191 37.844898 
L 66.830191 37.844898 
L 67.919936 39.085714 
L 67.919936 39.085714 
L 69.009681 40.326531 
L 69.009681 40.326531 
L 70.099426 41.567347 
L 70.099426 41.567347 
L 71.189172 42.808163 
L 71.189172 42.808163 
L 72.278917 44.04898 
L 72.278917 44.04898 
L 73.368662 45.289796 
L 73.368662 45.289796 
L 74.458408 46.530612 
L 74.458408 46.530612 
L 75.548153 47.771429 
L 75.548153 47.771429 
L 76.637898 49.012245 
L 76.637898 49.012245 
L 77.727643 50.253061 
L 77.727643 50.253061 
L 78.817389 51.493878 
L 78.817389 51.493878 
L 79.907134 52.734694 
L 79.907134 52.734694 
L 80.996879 53.97551 
L 80.996879 53.97551 
L 82.086625 55.216327 
L 82.086625 55.216327 
L 83.17637 56.457143 
L 84.266115 57.697959 
L 84.266115 57.697959 
L 85.355861 58.938776 
L 85.355861 58.938776 
L 86.445606 60.179592 
L 86.445606 60.179592 
L 87.535351 61.420408 
L 87.535351 61.420408 
L 88.625096 62.661224 
L 88.625096 62.661224 
L 89.714842 63.902041 
L 89.714842 63.902041 
L 90.804587 65.142857 
L 90.804587 65.142857 
L 91.894332 66.383673 
L 91.894332 66.383673 
L 92.984078 67.62449 
L 92.984078 67.62449 
L 94.073823 68.865306 
L 94.073823 68.865306 
L 95.163568 70.106122 
L 95.163568 70.106122 
L 96.253314 71.346939 
L 96.253314 71.346939 
L 97.343059 72.587755 
L 97.343059 72.587755 
L 98.432804 73.828571 
L 98.432804 73.828571 
L 99.522549 75.069388 
L 99.522549 75.069388 
L 100.612295 76.310204 
L 100.612295 76.310204 
L 101.70204 77.55102 
L 101.70204 77.55102 
L 102.791785 78.791837 
L 102.791785 78.791837 
L 103.881531 80.032653 
L 103.881531 80.032653 
L 104.971276 81.273469 
L 104.971276 81.273469 
L 106.061021 82.514286 
L 106.061021 82.514286 
L 107.150767 83.755102 
L 107.150767 83.755102 
L 108.240512 84.995918 
L 108.240512 84.995918 
L 109.330257 86.236735 
L 109.330257 86.236735 
L 110.420002 87.477551 
L 110.420002 87.477551 
L 111.509748 88.718367 
L 111.509748 88.718367 
L 112.599493 89.959184 
L 113.554048 91.039619 
" style="fill:none;stroke:#000000;stroke-width:3;"/>
    <path clip-path="url(#p54d61014ba)" d="M 124.727546 103.762095 
L 125.676437 104.84898 
L 125.676437 104.84898 
L 126.766182 106.089796 
L 126.766182 106.089796 
L 127.855927 107.330612 
L 127.855927 107.330612 
L 128.945672 108.571429 
L 128.945672 108.571429 
L 130.035418 109.812245 
L 130.035418 109.812245 
L 131.125163 111.053061 
L 131.125163 111.053061 
L 132.214908 112.293878 
L 132.214908 112.293878 
L 133.304654 113.534694 
L 133.304654 113.534694 
L 134.394399 114.77551 
L 134.394399 114.77551 
L 135.484144 116.016327 
L 135.484144 116.016327 
L 136.57389 117.257143 
L 136.57389 117.257143 
L 137.663635 118.497959 
L 137.663635 118.497959 
L 138.75338 119.738776 
L 138.75338 119.738776 
L 139.843125 120.979592 
L 139.843125 120.979592 
L 140.932871 122.220408 
L 140.932871 122.220408 
L 142.022616 123.461224 
L 142.022616 123.461224 
L 143.112361 124.702041 
L 143.112361 124.702041 
L 144.202107 125.942857 
L 145.291852 127.183673 
L 145.291852 127.183673 
L 146.381597 128.42449 
L 146.381597 128.42449 
L 147.471342 129.665306 
L 147.471342 129.665306 
L 148.561088 130.906122 
L 148.561088 130.906122 
L 149.650833 132.146939 
L 149.650833 132.146939 
L 150.740578 133.387755 
L 150.740578 133.387755 
L 151.830324 134.628571 
L 151.830324 134.628571 
L 152.920069 135.869388 
L 152.920069 135.869388 
L 154.009814 137.110204 
L 154.009814 137.110204 
L 155.09956 138.35102 
L 155.09956 138.35102 
L 156.189305 139.591837 
L 156.189305 139.591837 
L 157.27905 140.832653 
L 157.27905 140.832653 
L 158.368795 142.073469 
L 158.368795 142.073469 
L 159.458541 143.314286 
L 159.458541 143.314286 
L 160.548286 144.555102 
L 160.548286 144.555102 
L 161.638031 145.795918 
L 162.727777 147.036735 
L 162.727777 147.036735 
L 163.817522 148.277551 
L 163.817522 148.277551 
L 164.907267 149.518367 
L 165.997013 150.759184 
L 165.997013 150.759184 
L 167.086758 152 
" style="fill:none;stroke:#000000;stroke-width:3;"/>
   </g>
   <g id="LineCollection_3">
    <path clip-path="url(#p54d61014ba)" d="M 60.291719 86.570807 
L 61.381464 87.253731 
L 61.730309 87.477551 
L 62.471209 87.943449 
L 63.560955 88.659182 
L 63.650034 88.718367 
L 64.6507 89.370985 
L 65.512394 89.959184 
L 65.650977 90.051871 
" style="fill:none;stroke:#000000;stroke-width:3;"/>
    <path clip-path="url(#p54d61014ba)" d="M 78.868559 100.191448 
L 79.907134 101.103993 
L 79.932559 101.126531 
L 80.996879 102.066307 
L 81.328896 102.367347 
L 82.086625 103.05261 
L 82.685797 103.608163 
L 83.17637 104.062446 
L 84.006084 104.84898 
L 84.266115 105.095488 
L 85.292234 106.089796 
L 85.355861 106.151533 
L 86.445606 107.224129 
L 86.552059 107.330612 
L 87.535351 108.317407 
L 87.78383 108.571429 
L 88.625096 109.435444 
L 88.985772 109.812245 
L 89.714842 110.578469 
L 90.159419 111.053061 
L 90.804587 111.746846 
L 91.306108 112.293878 
L 91.894332 112.941075 
L 92.426993 113.534694 
L 92.984078 114.161802 
L 93.523066 114.77551 
L 94.073823 115.409824 
L 94.595168 116.016327 
L 95.163568 116.686097 
L 95.643998 117.257143 
L 96.253314 117.99175 
L 96.670123 118.497959 
L 97.343059 119.3281 
L 97.673984 119.738776 
L 98.432804 120.696667 
L 98.655898 120.979592 
L 99.522549 122.099197 
L 99.616068 122.220408 
L 100.558074 123.461224 
L 100.612295 123.533671 
L 101.485544 124.702041 
L 101.70204 124.99812 
L 102.392812 125.942857 
L 102.791785 126.501438 
L 103.279699 127.183673 
L 103.881531 128.046446 
L 104.145918 128.42449 
L 104.971276 129.636357 
L 104.991069 129.665306 
L 105.830388 130.906122 
L 106.061021 131.256425 
L 106.650653 132.146939 
L 107.150767 132.925296 
L 107.449984 133.387755 
L 108.228466 134.628571 
L 108.240512 134.647969 
L 109.005636 135.869388 
L 109.330257 136.405347 
L 109.761447 137.110204 
L 110.420002 138.225573 
L 110.494908 138.35102 
L 111.22539 139.591837 
L 111.509748 140.09044 
L 111.938528 140.832653 
L 112.599493 142.02267 
L 112.628111 142.073469 
L 113.319958 143.314286 
L 113.689238 144.003015 
L 113.989956 144.555102 
L 114.644616 145.795918 
L 114.778984 146.055584 
L 115.295568 147.036735 
L 115.868729 148.176123 
L 115.920709 148.277551 
L 116.5493 149.518367 
L 116.958474 150.361979 
L 117.155044 150.759184 
L 117.754821 152 
" style="fill:none;stroke:#000000;stroke-width:3;"/>
   </g>
   <g id="patch_3">
    <path d="M 60.291719 152 
L 60.291719 30.4 
" style="fill:none;stroke:#000000;stroke-linecap:square;stroke-linejoin:miter;stroke-width:0.8;"/>
   </g>
   <g id="patch_4">
    <path d="M 167.086758 152 
L 167.086758 30.4 
" style="fill:none;stroke:#000000;stroke-linecap:square;stroke-linejoin:miter;stroke-width:0.8;"/>
   </g>
   <g id="patch_5">
    <path d="M 60.291719 152 
L 167.086758 152 
" style="fill:none;stroke:#000000;stroke-linecap:square;stroke-linejoin:miter;stroke-width:0.8;"/>
   </g>
   <g id="patch_6">
    <path d="M 60.291719 30.4 
L 167.086758 30.4 
" style="fill:none;stroke:#000000;stroke-linecap:square;stroke-linejoin:miter;stroke-width:0.8;"/>
   </g>
   <g id="text_9">
    <g clip-path="url(#p54d61014ba)">
     <!-- -2 -->
     <defs>
      <path d="M 4.890625 31.390625 
L 31.203125 31.390625 
L 31.203125 23.390625 
L 4.890625 23.390625 
z
" id="DejaVuSans-2d"/>
      <path d="M 19.1875 8.296875 
L 53.609375 8.296875 
L 53.609375 0 
L 7.328125 0 
L 7.328125 8.296875 
Q 12.9375 14.109375 22.625 23.890625 
Q 32.328125 33.6875 34.8125 36.53125 
Q 39.546875 41.84375 41.421875 45.53125 
Q 43.3125 49.21875 43.3125 52.78125 
Q 43.3125 58.59375 39.234375 62.25 
Q 35.15625 65.921875 28.609375 65.921875 
Q 23.96875 65.921875 18.8125 64.3125 
Q 13.671875 62.703125 7.8125 59.421875 
L 7.8125 69.390625 
Q 13.765625 71.78125 18.9375 73 
Q 24.125 74.21875 28.421875 74.21875 
Q 39.75 74.21875 46.484375 68.546875 
Q 53.21875 62.890625 53.21875 53.421875 
Q 53.21875 48.921875 51.53125 44.890625 
Q 49.859375 40.875 45.40625 35.40625 
Q 44.1875 33.984375 37.640625 27.21875 
Q 31.109375 20.453125 19.1875 8.296875 
z
" id="DejaVuSans-32"/>
     </defs>
     <g transform="translate(111.942596 41.466098)rotate(-302.71381)scale(0.1 -0.1)">
      <use xlink:href="#DejaVuSans-2d"/>
      <use x="36.083984" xlink:href="#DejaVuSans-32"/>
     </g>
    </g>
   </g>
   <g id="text_10">
    <g clip-path="url(#p54d61014ba)">
     <!--  0 -->
     <defs>
      <path id="DejaVuSans-20"/>
     </defs>
     <g transform="translate(113.849285 95.85492)rotate(-313.626497)scale(0.1 -0.1)">
      <use xlink:href="#DejaVuSans-20"/>
      <use x="31.787109" xlink:href="#DejaVuSans-30"/>
     </g>
    </g>
   </g>
   <g id="text_11">
    <g clip-path="url(#p54d61014ba)">
     <!--  2 -->
     <g transform="translate(66.900964 94.421954)rotate(-324.742144)scale(0.1 -0.1)">
      <use xlink:href="#DejaVuSans-20"/>
      <use x="31.787109" xlink:href="#DejaVuSans-32"/>
     </g>
    </g>
   </g>
   <g id="text_12">
    <!-- $s N^*=0$ -->
    <defs>
     <path d="M 50 53.078125 
L 48.296875 44.578125 
Q 44.734375 46.53125 40.765625 47.5 
Q 36.8125 48.484375 32.625 48.484375 
Q 25.53125 48.484375 21.453125 46.0625 
Q 17.390625 43.65625 17.390625 39.5 
Q 17.390625 34.671875 26.859375 32.078125 
Q 27.59375 31.890625 27.9375 31.78125 
L 30.8125 30.90625 
Q 39.796875 28.421875 42.796875 25.6875 
Q 45.796875 22.953125 45.796875 18.21875 
Q 45.796875 9.515625 38.890625 4.046875 
Q 31.984375 -1.421875 20.796875 -1.421875 
Q 16.453125 -1.421875 11.671875 -0.578125 
Q 6.890625 0.25 1.125 2 
L 2.875 11.28125 
Q 7.8125 8.734375 12.59375 7.421875 
Q 17.390625 6.109375 21.78125 6.109375 
Q 28.375 6.109375 32.5 8.9375 
Q 36.625 11.765625 36.625 16.109375 
Q 36.625 20.796875 25.78125 23.6875 
L 24.859375 23.921875 
L 21.78125 24.703125 
Q 14.9375 26.515625 11.765625 29.46875 
Q 8.59375 32.421875 8.59375 37.015625 
Q 8.59375 45.75 15.15625 50.875 
Q 21.734375 56 33.015625 56 
Q 37.453125 56 41.671875 55.265625 
Q 45.90625 54.546875 50 53.078125 
z
" id="DejaVuSans-Oblique-73"/>
     <path d="M 16.890625 72.90625 
L 30.171875 72.90625 
L 50.296875 10.40625 
L 62.5 72.90625 
L 72.125 72.90625 
L 57.90625 0 
L 44.578125 0 
L 24.515625 62.890625 
L 12.3125 0 
L 2.6875 0 
z
" id="DejaVuSans-Oblique-4e"/>
     <path d="M 47.015625 60.890625 
L 29.5 51.421875 
L 47.015625 41.890625 
L 44.1875 37.109375 
L 27.78125 47.015625 
L 27.78125 28.609375 
L 22.21875 28.609375 
L 22.21875 47.015625 
L 5.8125 37.109375 
L 2.984375 41.890625 
L 20.515625 51.421875 
L 2.984375 60.890625 
L 5.8125 65.71875 
L 22.21875 55.8125 
L 22.21875 74.21875 
L 27.78125 74.21875 
L 27.78125 55.8125 
L 44.1875 65.71875 
z
" id="DejaVuSans-2a"/>
     <path d="M 10.59375 45.40625 
L 73.1875 45.40625 
L 73.1875 37.203125 
L 10.59375 37.203125 
z
M 10.59375 25.484375 
L 73.1875 25.484375 
L 73.1875 17.1875 
L 10.59375 17.1875 
z
" id="DejaVuSans-3d"/>
    </defs>
    <g transform="translate(90.529238 24.4)scale(0.12 -0.12)">
     <use transform="translate(0 0.765625)" xlink:href="#DejaVuSans-Oblique-73"/>
     <use transform="translate(52.099609 0.765625)" xlink:href="#DejaVuSans-Oblique-4e"/>
     <use transform="translate(147.558763 39.046875)scale(0.7)" xlink:href="#DejaVuSans-2a"/>
     <use transform="translate(218.413255 0.765625)" xlink:href="#DejaVuSans-3d"/>
     <use transform="translate(321.68474 0.765625)" xlink:href="#DejaVuSans-30"/>
    </g>
   </g>
  </g>
 </g>
 <defs>
  <clipPath id="p54d61014ba">
   <rect height="121.6" width="106.795039" x="60.291719" y="30.4"/>
  </clipPath>
 </defs>
</svg>
