<?xml version="1.0" encoding="utf-8" standalone="no"?>
<!DOCTYPE svg PUBLIC "-//W3C//DTD SVG 1.1//EN"
  "http://www.w3.org/Graphics/SVG/1.1/DTD/svg11.dtd">
<!-- Created with matplotlib (http://matplotlib.org/) -->
<svg height="201.6pt" version="1.1" viewBox="0 0 187.2 201.6" width="187.2pt" xmlns="http://www.w3.org/2000/svg" xmlns:xlink="http://www.w3.org/1999/xlink">
 <defs>
  <style type="text/css">
*{stroke-linecap:butt;stroke-linejoin:round;}
  </style>
 </defs>
 <g id="figure_1">
  <g id="patch_1">
   <path d="M 0 201.6 
L 187.2 201.6 
L 187.2 0 
L 0 0 
z
" style="fill:#ffffff;"/>
  </g>
  <g id="axes_1">
   <g id="patch_2">
    <path d="M 61.4 152 
L 167.086758 152 
L 167.086758 26.8 
L 61.4 26.8 
z
" style="fill:#ffffff;"/>
   </g>
   <g id="PathCollection_1"/>
   <g id="PathCollection_2">
    <path clip-path="url(#peceea2ecb9)" d="M 61.4 150.722449 
L 61.4 149.444898 
L 61.4 148.167347 
L 61.4 148.123563 
L 61.454261 148.167347 
L 62.478436 149.026499 
L 62.976326 149.444898 
L 63.556873 149.952112 
L 64.438631 150.722449 
L 64.635309 150.901106 
L 65.713745 151.874209 
L 65.85443 152 
L 65.713745 152 
L 64.635309 152 
L 63.556873 152 
L 62.478436 152 
L 61.4 152 
z
" style="fill:#e4eff9;"/>
   </g>
   <g id="PathCollection_3">
    <path clip-path="url(#peceea2ecb9)" d="M 61.454261 148.167347 
L 61.4 148.123563 
L 61.4 146.889796 
L 61.4 145.612245 
L 61.4 144.334694 
L 61.4 143.057143 
L 61.4 141.779592 
L 61.4 140.502041 
L 61.4 139.22449 
L 61.4 138.336302 
L 62.478436 139.08875 
L 62.674388 139.22449 
L 63.556873 139.860094 
L 64.438631 140.502041 
L 64.635309 140.650921 
L 65.713745 141.461841 
L 66.135859 141.779592 
L 66.792182 142.293481 
L 67.76158 143.057143 
L 67.870618 143.146493 
L 68.949054 144.021551 
L 69.335013 144.334694 
L 70.02749 144.919352 
L 70.846534 145.612245 
L 71.105927 145.840619 
L 72.184363 146.786099 
L 72.303814 146.889796 
L 73.262799 147.756567 
L 73.718067 148.167347 
L 74.341236 148.752825 
L 75.080399 149.444898 
L 75.419672 149.775702 
L 76.395564 150.722449 
L 76.498108 150.82606 
L 77.576545 151.904789 
L 77.672758 152 
L 77.576545 152 
L 76.498108 152 
L 75.419672 152 
L 74.341236 152 
L 73.262799 152 
L 72.184363 152 
L 71.105927 152 
L 70.02749 152 
L 68.949054 152 
L 67.870618 152 
L 66.792182 152 
L 65.85443 152 
L 65.713745 151.874209 
L 64.635309 150.901106 
L 64.438631 150.722449 
L 63.556873 149.952112 
L 62.976326 149.444898 
L 62.478436 149.026499 
z
" style="fill:#d8e7f5;"/>
   </g>
   <g id="PathCollection_4">
    <path clip-path="url(#peceea2ecb9)" d="M 61.4 137.946939 
L 61.4 136.669388 
L 61.4 135.391837 
L 61.4 134.114286 
L 61.4 132.836735 
L 61.4 131.559184 
L 61.4 130.281633 
L 61.4 129.004082 
L 61.4 128.549042 
L 62.222851 129.004082 
L 62.478436 129.151 
L 63.556873 129.768075 
L 64.438631 130.281633 
L 64.635309 130.400737 
L 65.713745 131.049473 
L 66.547473 131.559184 
L 66.792182 131.714785 
L 67.870618 132.397195 
L 68.557671 132.836735 
L 68.949054 133.097241 
L 70.02749 133.815482 
L 70.475144 134.114286 
L 71.105927 134.552495 
L 72.184363 135.308879 
L 72.303814 135.391837 
L 73.262799 136.085254 
L 74.06164 136.669388 
L 74.341236 136.88226 
L 75.419672 137.700562 
L 75.745066 137.946939 
L 76.498108 138.540848 
L 77.359595 139.22449 
L 77.576545 139.403831 
L 78.654981 140.290249 
L 78.913837 140.502041 
L 79.733417 141.200866 
L 80.410963 141.779592 
L 80.811853 142.136476 
L 81.846356 143.057143 
L 81.89029 143.097898 
L 82.968726 144.085984 
L 83.241269 144.334694 
L 84.047162 145.101615 
L 84.58593 145.612245 
L 85.125599 146.145704 
L 85.882717 146.889796 
L 86.204035 147.219197 
L 87.13578 148.167347 
L 87.282471 148.323077 
L 88.348645 149.444898 
L 88.360908 149.45836 
L 89.439344 150.626101 
L 89.529323 150.722449 
L 90.51778 151.827391 
L 90.674069 152 
L 90.51778 152 
L 89.439344 152 
L 88.360908 152 
L 87.282471 152 
L 86.204035 152 
L 85.125599 152 
L 84.047162 152 
L 82.968726 152 
L 81.89029 152 
L 80.811853 152 
L 79.733417 152 
L 78.654981 152 
L 77.672758 152 
L 77.576545 151.904789 
L 76.498108 150.82606 
L 76.395564 150.722449 
L 75.419672 149.775702 
L 75.080399 149.444898 
L 74.341236 148.752825 
L 73.718067 148.167347 
L 73.262799 147.756567 
L 72.303814 146.889796 
L 72.184363 146.786099 
L 71.105927 145.840619 
L 70.846534 145.612245 
L 70.02749 144.919352 
L 69.335013 144.334694 
L 68.949054 144.021551 
L 67.870618 143.146493 
L 67.76158 143.057143 
L 66.792182 142.293481 
L 66.135859 141.779592 
L 65.713745 141.461841 
L 64.635309 140.650921 
L 64.438631 140.502041 
L 63.556873 139.860094 
L 62.674388 139.22449 
L 62.478436 139.08875 
L 61.4 138.336302 
z
" style="fill:#ccdff1;"/>
   </g>
   <g id="PathCollection_5">
    <path clip-path="url(#peceea2ecb9)" d="M 62.222851 129.004082 
L 61.4 128.549042 
L 61.4 127.726531 
L 61.4 126.44898 
L 61.4 125.171429 
L 61.4 123.893878 
L 61.4 122.616327 
L 61.4 121.338776 
L 61.4 120.061224 
L 61.4 118.783673 
L 61.4 118.761781 
L 61.454261 118.783673 
L 62.478436 119.21325 
L 63.556873 119.676056 
L 64.438631 120.061224 
L 64.635309 120.150553 
L 65.713745 120.637105 
L 66.792182 121.136089 
L 67.229498 121.338776 
L 67.870618 121.647896 
L 68.949054 122.172931 
L 69.84289 122.616327 
L 70.02749 122.711611 
L 71.105927 123.264371 
L 72.184363 123.831659 
L 72.303814 123.893878 
L 73.262799 124.41394 
L 74.341236 125.011695 
L 74.630436 125.171429 
L 75.419672 125.625421 
L 76.498108 126.255636 
L 76.829585 126.44898 
L 77.576545 126.902873 
L 78.654981 127.567687 
L 78.913837 127.726531 
L 79.733417 128.25065 
L 80.811853 128.952357 
L 80.892258 129.004082 
L 81.89029 129.673424 
L 82.781911 130.281633 
L 82.968726 130.414488 
L 84.047162 131.176211 
L 84.58593 131.559184 
L 85.125599 131.959278 
L 86.204035 132.764398 
L 86.301979 132.836735 
L 87.282471 133.592308 
L 87.954426 134.114286 
L 88.360908 134.44377 
L 89.439344 135.319575 
L 89.529323 135.391837 
L 90.51778 136.220543 
L 91.051575 136.669388 
L 91.596217 137.147524 
L 92.506255 137.946939 
L 92.674653 138.101399 
L 93.753089 139.083081 
L 93.909776 139.22449 
L 94.831525 140.093518 
L 95.266398 140.502041 
L 95.909962 141.133693 
L 96.571683 141.779592 
L 96.988398 142.204625 
L 97.830368 143.057143 
L 98.066834 143.30737 
L 99.046443 144.334694 
L 99.145271 144.443026 
L 100.223279 145.612245 
L 100.223707 145.61273 
L 101.302143 146.817661 
L 101.367517 146.889796 
L 102.38058 148.059043 
L 102.475737 148.167347 
L 103.459016 149.338147 
L 103.550062 149.444898 
L 104.537452 150.656291 
L 104.592291 150.722449 
L 105.604624 152 
L 104.537452 152 
L 103.459016 152 
L 102.38058 152 
L 101.302143 152 
L 100.223707 152 
L 99.145271 152 
L 98.066834 152 
L 96.988398 152 
L 95.909962 152 
L 94.831525 152 
L 93.753089 152 
L 92.674653 152 
L 91.596217 152 
L 90.674069 152 
L 90.51778 151.827391 
L 89.529323 150.722449 
L 89.439344 150.626101 
L 88.360908 149.45836 
L 88.348645 149.444898 
L 87.282471 148.323077 
L 87.13578 148.167347 
L 86.204035 147.219197 
L 85.882717 146.889796 
L 85.125599 146.145704 
L 84.58593 145.612245 
L 84.047162 145.101615 
L 83.241269 144.334694 
L 82.968726 144.085984 
L 81.89029 143.097898 
L 81.846356 143.057143 
L 80.811853 142.136476 
L 80.410963 141.779592 
L 79.733417 141.200866 
L 78.913837 140.502041 
L 78.654981 140.290249 
L 77.576545 139.403831 
L 77.359595 139.22449 
L 76.498108 138.540848 
L 75.745066 137.946939 
L 75.419672 137.700562 
L 74.341236 136.88226 
L 74.06164 136.669388 
L 73.262799 136.085254 
L 72.303814 135.391837 
L 72.184363 135.308879 
L 71.105927 134.552495 
L 70.475144 134.114286 
L 70.02749 133.815482 
L 68.949054 133.097241 
L 68.557671 132.836735 
L 67.870618 132.397195 
L 66.792182 131.714785 
L 66.547473 131.559184 
L 65.713745 131.049473 
L 64.635309 130.400737 
L 64.438631 130.281633 
L 63.556873 129.768075 
L 62.478436 129.151 
z
" style="fill:#bcd7eb;"/>
   </g>
   <g id="PathCollection_6">
    <path clip-path="url(#peceea2ecb9)" d="M 61.454261 118.783673 
L 61.4 118.761781 
L 61.4 117.506122 
L 61.4 116.228571 
L 61.4 114.95102 
L 61.4 113.673469 
L 61.4 112.395918 
L 61.4 111.118367 
L 61.4 109.840816 
L 61.4 108.974521 
L 62.478436 109.2755 
L 63.556873 109.584037 
L 64.438631 109.840816 
L 64.635309 109.900369 
L 65.713745 110.224736 
L 66.792182 110.557392 
L 67.870618 110.898597 
L 68.557671 111.118367 
L 68.949054 111.24862 
L 70.02749 111.607741 
L 71.105927 111.976248 
L 72.184363 112.35444 
L 72.303814 112.395918 
L 73.262799 112.742627 
L 74.341236 113.14113 
L 75.419672 113.550281 
L 75.745066 113.673469 
L 76.498108 113.970424 
L 77.576545 114.401915 
L 78.654981 114.845124 
L 78.913837 114.95102 
L 79.733417 115.300433 
L 80.811853 115.768238 
L 81.846356 116.228571 
L 81.89029 116.248949 
L 82.968726 116.742992 
L 84.047162 117.250807 
L 84.58593 117.506122 
L 85.125599 117.772852 
L 86.204035 118.309599 
L 87.13578 118.783673 
L 87.282471 118.861539 
L 88.360908 119.42918 
L 89.439344 120.01305 
L 89.529323 120.061224 
L 90.51778 120.613696 
L 91.596217 121.231683 
L 91.784472 121.338776 
L 92.674653 121.867599 
L 93.753089 122.522054 
L 93.909776 122.616327 
L 94.831525 123.195679 
L 95.909962 123.889129 
L 95.917456 123.893878 
L 96.988398 124.603083 
L 97.830368 125.171429 
L 98.066834 125.338247 
L 99.145271 126.095351 
L 99.64625 126.44898 
L 100.223707 126.875153 
L 101.302143 127.67844 
L 101.367517 127.726531 
L 102.38058 128.506029 
L 103.022212 129.004082 
L 103.459016 129.358765 
L 104.537452 130.237527 
L 104.592291 130.281633 
L 105.615888 131.143227 
L 106.108566 131.559184 
L 106.694325 132.076812 
L 107.553915 132.836735 
L 107.772761 133.039262 
L 108.851197 134.031597 
L 108.94212 134.114286 
L 109.929634 135.054874 
L 110.284939 135.391837 
L 111.00807 136.110191 
L 111.574622 136.669388 
L 112.086506 137.198688 
L 112.816258 137.946939 
L 113.164943 138.321549 
L 114.014088 139.22449 
L 114.243379 139.48 
L 115.171662 140.502041 
L 115.321815 140.675318 
L 116.29195 141.779592 
L 116.400252 141.908826 
L 117.377436 143.057143 
L 117.478688 143.181899 
L 118.430195 144.334694 
L 118.557124 144.495966 
L 119.451945 145.612245 
L 119.63556 145.852508 
L 120.444097 146.889796 
L 120.713997 147.253065 
L 121.40779 148.167347 
L 121.792433 148.699238 
L 122.343921 149.444898 
L 122.870869 150.192686 
L 123.253166 150.722449 
L 123.949306 151.735135 
L 124.136001 152 
L 123.949306 152 
L 122.870869 152 
L 121.792433 152 
L 120.713997 152 
L 119.63556 152 
L 118.557124 152 
L 117.478688 152 
L 116.400252 152 
L 115.321815 152 
L 114.243379 152 
L 113.164943 152 
L 112.086506 152 
L 111.00807 152 
L 109.929634 152 
L 108.851197 152 
L 107.772761 152 
L 106.694325 152 
L 105.615888 152 
L 105.604624 152 
L 104.592291 150.722449 
L 104.537452 150.656291 
L 103.550062 149.444898 
L 103.459016 149.338147 
L 102.475737 148.167347 
L 102.38058 148.059043 
L 101.367517 146.889796 
L 101.302143 146.817661 
L 100.223707 145.61273 
L 100.223279 145.612245 
L 99.145271 144.443026 
L 99.046443 144.334694 
L 98.066834 143.30737 
L 97.830368 143.057143 
L 96.988398 142.204625 
L 96.571683 141.779592 
L 95.909962 141.133693 
L 95.266398 140.502041 
L 94.831525 140.093518 
L 93.909776 139.22449 
L 93.753089 139.083081 
L 92.674653 138.101399 
L 92.506255 137.946939 
L 91.596217 137.147524 
L 91.051575 136.669388 
L 90.51778 136.220543 
L 89.529323 135.391837 
L 89.439344 135.319575 
L 88.360908 134.44377 
L 87.954426 134.114286 
L 87.282471 133.592308 
L 86.301979 132.836735 
L 86.204035 132.764398 
L 85.125599 131.959278 
L 84.58593 131.559184 
L 84.047162 131.176211 
L 82.968726 130.414488 
L 82.781911 130.281633 
L 81.89029 129.673424 
L 80.892258 129.004082 
L 80.811853 128.952357 
L 79.733417 128.25065 
L 78.913837 127.726531 
L 78.654981 127.567687 
L 77.576545 126.902873 
L 76.829585 126.44898 
L 76.498108 126.255636 
L 75.419672 125.625421 
L 74.630436 125.171429 
L 74.341236 125.011695 
L 73.262799 124.41394 
L 72.303814 123.893878 
L 72.184363 123.831659 
L 71.105927 123.264371 
L 70.02749 122.711611 
L 69.84289 122.616327 
L 68.949054 122.172931 
L 67.870618 121.647896 
L 67.229498 121.338776 
L 66.792182 121.136089 
L 65.713745 120.637105 
L 64.635309 120.150553 
L 64.438631 120.061224 
L 63.556873 119.676056 
L 62.478436 119.21325 
z
" style="fill:#a8cee4;"/>
   </g>
   <g id="PathCollection_7">
    <path clip-path="url(#peceea2ecb9)" d="M 61.4 108.563265 
L 61.4 107.285714 
L 61.4 106.008163 
L 61.4 104.730612 
L 61.4 103.453061 
L 61.4 102.17551 
L 61.4 100.897959 
L 61.4 99.620408 
L 61.4 99.18726 
L 62.478436 99.33775 
L 63.556873 99.492019 
L 64.438631 99.620408 
L 64.635309 99.650184 
L 65.713745 99.812368 
L 66.792182 99.978696 
L 67.870618 100.149299 
L 68.949054 100.32431 
L 70.02749 100.50387 
L 71.105927 100.688124 
L 72.184363 100.87722 
L 72.303814 100.897959 
L 73.262799 101.071313 
L 74.341236 101.270565 
L 75.419672 101.47514 
L 76.498108 101.685212 
L 77.576545 101.900958 
L 78.654981 102.122562 
L 78.913837 102.17551 
L 79.733417 102.350217 
L 80.811853 102.584119 
L 81.89029 102.824475 
L 82.968726 103.071496 
L 84.047162 103.325404 
L 84.58593 103.453061 
L 85.125599 103.586426 
L 86.204035 103.854799 
L 87.282471 104.130769 
L 88.360908 104.41459 
L 89.439344 104.706525 
L 89.529323 104.730612 
L 90.51778 105.006848 
L 91.596217 105.315841 
L 92.674653 105.6338 
L 93.753089 105.961027 
L 93.909776 106.008163 
L 94.831525 106.297839 
L 95.909962 106.644564 
L 96.988398 107.001542 
L 97.830368 107.285714 
L 98.066834 107.369123 
L 99.145271 107.747675 
L 100.223707 108.137577 
L 101.302143 108.53922 
L 101.367517 108.563265 
L 102.38058 108.953014 
L 103.459016 109.379382 
L 104.537452 109.818764 
L 104.592291 109.840816 
L 105.615888 110.271614 
L 106.694325 110.738406 
L 107.553915 111.118367 
L 107.772761 111.219631 
L 108.851197 111.715798 
L 109.929634 112.227437 
L 110.284939 112.395918 
L 111.00807 112.755096 
L 112.086506 113.299344 
L 112.816258 113.673469 
L 113.164943 113.860774 
L 114.243379 114.44 
L 115.171662 114.95102 
L 115.321815 115.037659 
L 116.400252 115.654413 
L 117.377436 116.228571 
L 117.478688 116.29095 
L 118.557124 116.947983 
L 119.451945 117.506122 
L 119.63556 117.626254 
L 120.713997 118.326533 
L 121.40779 118.783673 
L 121.792433 119.049619 
L 122.870869 119.796343 
L 123.253166 120.061224 
L 123.949306 120.567568 
L 124.994922 121.338776 
L 125.027742 121.364189 
L 126.106178 122.187139 
L 126.663783 122.616327 
L 127.184615 123.037383 
L 128.237253 123.893878 
L 128.263051 123.915927 
L 129.341487 124.823815 
L 129.753578 125.171429 
L 130.419923 125.762132 
L 131.194632 126.44898 
L 131.49836 126.732005 
L 132.56853 127.726531 
L 132.576796 127.734606 
L 133.655232 128.771151 
L 133.898992 129.004082 
L 134.733669 129.842907 
L 135.173683 130.281633 
L 135.812105 130.951188 
L 136.397764 131.559184 
L 136.890541 132.097361 
L 137.575939 132.836735 
L 137.968978 133.282846 
L 138.712081 134.114286 
L 139.047414 134.509121 
L 139.809377 135.391837 
L 140.12585 135.77772 
L 140.870446 136.669388 
L 141.204287 137.09024 
L 141.897429 137.946939 
L 142.282723 138.44834 
L 142.892056 139.22449 
L 143.361159 139.853744 
L 143.855706 140.502041 
L 144.439595 141.308247 
L 144.789445 141.779592 
L 145.518032 142.813714 
L 145.694062 143.057143 
L 146.571879 144.334694 
L 146.596468 144.372083 
L 147.435379 145.612245 
L 147.674904 145.985372 
L 148.272891 146.889796 
L 148.753341 147.655678 
L 149.084379 148.167347 
L 149.831777 149.385181 
L 149.869624 149.444898 
L 150.647659 150.722449 
L 150.910213 151.17615 
L 151.403399 152 
L 150.910213 152 
L 149.831777 152 
L 148.753341 152 
L 147.674904 152 
L 146.596468 152 
L 145.518032 152 
L 144.439595 152 
L 143.361159 152 
L 142.282723 152 
L 141.204287 152 
L 140.12585 152 
L 139.047414 152 
L 137.968978 152 
L 136.890541 152 
L 135.812105 152 
L 134.733669 152 
L 133.655232 152 
L 132.576796 152 
L 131.49836 152 
L 130.419923 152 
L 129.341487 152 
L 128.263051 152 
L 127.184615 152 
L 126.106178 152 
L 125.027742 152 
L 124.136001 152 
L 123.949306 151.735135 
L 123.253166 150.722449 
L 122.870869 150.192686 
L 122.343921 149.444898 
L 121.792433 148.699238 
L 121.40779 148.167347 
L 120.713997 147.253065 
L 120.444097 146.889796 
L 119.63556 145.852508 
L 119.451945 145.612245 
L 118.557124 144.495966 
L 118.430195 144.334694 
L 117.478688 143.181899 
L 117.377436 143.057143 
L 116.400252 141.908826 
L 116.29195 141.779592 
L 115.321815 140.675318 
L 115.171662 140.502041 
L 114.243379 139.48 
L 114.014088 139.22449 
L 113.164943 138.321549 
L 112.816258 137.946939 
L 112.086506 137.198688 
L 111.574622 136.669388 
L 111.00807 136.110191 
L 110.284939 135.391837 
L 109.929634 135.054874 
L 108.94212 134.114286 
L 108.851197 134.031597 
L 107.772761 133.039262 
L 107.553915 132.836735 
L 106.694325 132.076812 
L 106.108566 131.559184 
L 105.615888 131.143227 
L 104.592291 130.281633 
L 104.537452 130.237527 
L 103.459016 129.358765 
L 103.022212 129.004082 
L 102.38058 128.506029 
L 101.367517 127.726531 
L 101.302143 127.67844 
L 100.223707 126.875153 
L 99.64625 126.44898 
L 99.145271 126.095351 
L 98.066834 125.338247 
L 97.830368 125.171429 
L 96.988398 124.603083 
L 95.917456 123.893878 
L 95.909962 123.889129 
L 94.831525 123.195679 
L 93.909776 122.616327 
L 93.753089 122.522054 
L 92.674653 121.867599 
L 91.784472 121.338776 
L 91.596217 121.231683 
L 90.51778 120.613696 
L 89.529323 120.061224 
L 89.439344 120.01305 
L 88.360908 119.42918 
L 87.282471 118.861539 
L 87.13578 118.783673 
L 86.204035 118.309599 
L 85.125599 117.772852 
L 84.58593 117.506122 
L 84.047162 117.250807 
L 82.968726 116.742992 
L 81.89029 116.248949 
L 81.846356 116.228571 
L 80.811853 115.768238 
L 79.733417 115.300433 
L 78.913837 114.95102 
L 78.654981 114.845124 
L 77.576545 114.401915 
L 76.498108 113.970424 
L 75.745066 113.673469 
L 75.419672 113.550281 
L 74.341236 113.14113 
L 73.262799 112.742627 
L 72.303814 112.395918 
L 72.184363 112.35444 
L 71.105927 111.976248 
L 70.02749 111.607741 
L 68.949054 111.24862 
L 68.557671 111.118367 
L 67.870618 110.898597 
L 66.792182 110.557392 
L 65.713745 110.224736 
L 64.635309 109.900369 
L 64.438631 109.840816 
L 63.556873 109.584037 
L 62.478436 109.2755 
L 61.4 108.974521 
z
" style="fill:#91c3de;"/>
   </g>
   <g id="PathCollection_8">
    <path clip-path="url(#peceea2ecb9)" d="M 61.4 98.342857 
L 61.4 97.065306 
L 61.4 95.787755 
L 61.4 94.510204 
L 61.4 93.232653 
L 61.4 91.955102 
L 61.4 90.677551 
L 61.4 89.4 
L 62.478436 89.4 
L 63.556873 89.4 
L 64.635309 89.4 
L 65.713745 89.4 
L 66.792182 89.4 
L 67.870618 89.4 
L 68.949054 89.4 
L 70.02749 89.4 
L 71.105927 89.4 
L 72.184363 89.4 
L 73.262799 89.4 
L 74.341236 89.4 
L 75.419672 89.4 
L 76.498108 89.4 
L 77.576545 89.4 
L 78.654981 89.4 
L 79.733417 89.4 
L 80.811853 89.4 
L 81.89029 89.4 
L 82.968726 89.4 
L 84.047162 89.4 
L 85.125599 89.4 
L 86.204035 89.4 
L 87.282471 89.4 
L 88.360908 89.4 
L 89.439344 89.4 
L 90.51778 89.4 
L 91.596217 89.4 
L 92.674653 89.4 
L 93.753089 89.4 
L 94.831525 89.4 
L 95.909962 89.4 
L 96.988398 89.4 
L 98.066834 89.4 
L 99.145271 89.4 
L 100.223707 89.4 
L 101.302143 89.4 
L 102.38058 89.4 
L 103.459016 89.4 
L 104.537452 89.4 
L 105.615888 89.4 
L 106.694325 89.4 
L 107.772761 89.4 
L 108.851197 89.4 
L 109.929634 89.4 
L 111.00807 89.4 
L 112.086506 89.4 
L 113.164943 89.4 
L 114.243379 89.4 
L 115.321815 89.4 
L 116.400252 89.4 
L 117.478688 89.4 
L 118.557124 89.4 
L 119.63556 89.4 
L 120.713997 89.4 
L 121.792433 89.4 
L 122.870869 89.4 
L 123.949306 89.4 
L 125.027742 89.4 
L 126.106178 89.4 
L 127.184615 89.4 
L 128.263051 89.4 
L 129.341487 89.4 
L 130.419923 89.4 
L 131.49836 89.4 
L 132.576796 89.4 
L 133.655232 89.4 
L 134.733669 89.4 
L 135.812105 89.4 
L 136.890541 89.4 
L 137.968978 89.4 
L 139.047414 89.4 
L 140.12585 89.4 
L 141.204287 89.4 
L 142.282723 89.4 
L 143.361159 89.4 
L 144.439595 89.4 
L 145.518032 89.4 
L 146.596468 89.4 
L 147.674904 89.4 
L 148.753341 89.4 
L 149.831777 89.4 
L 150.910213 89.4 
L 151.98865 89.4 
L 153.067086 89.4 
L 154.145522 89.4 
L 155.223958 89.4 
L 156.302395 89.4 
L 157.380831 89.4 
L 158.459267 89.4 
L 159.537704 89.4 
L 160.61614 89.4 
L 161.694576 89.4 
L 162.773013 89.4 
L 163.851449 89.4 
L 164.929885 89.4 
L 166.008322 89.4 
L 167.086758 89.4 
L 167.086758 90.677551 
L 167.086758 91.955102 
L 167.086758 93.232653 
L 167.086758 94.510204 
L 167.086758 95.787755 
L 167.086758 97.065306 
L 167.086758 98.342857 
L 167.086758 99.620408 
L 167.086758 100.897959 
L 167.086758 102.17551 
L 167.086758 103.453061 
L 167.086758 104.730612 
L 167.086758 106.008163 
L 167.086758 107.285714 
L 167.086758 108.563265 
L 167.086758 109.840816 
L 167.086758 111.118367 
L 167.086758 112.395918 
L 167.086758 113.673469 
L 167.086758 114.95102 
L 167.086758 116.228571 
L 167.086758 117.506122 
L 167.086758 118.783673 
L 167.086758 120.061224 
L 167.086758 121.338776 
L 167.086758 122.616327 
L 167.086758 123.893878 
L 167.086758 125.171429 
L 167.086758 126.44898 
L 167.086758 127.726531 
L 167.086758 129.004082 
L 167.086758 130.281633 
L 167.086758 131.559184 
L 167.086758 132.836735 
L 167.086758 134.114286 
L 167.086758 135.391837 
L 167.086758 136.669388 
L 167.086758 137.946939 
L 167.086758 139.22449 
L 167.086758 140.502041 
L 167.086758 141.779592 
L 167.086758 143.057143 
L 167.086758 144.334694 
L 167.086758 145.612245 
L 167.086758 146.889796 
L 167.086758 148.167347 
L 167.086758 149.444898 
L 167.086758 150.722449 
L 167.086758 152 
L 166.008322 152 
L 164.929885 152 
L 163.851449 152 
L 162.773013 152 
L 161.694576 152 
L 160.61614 152 
L 159.537704 152 
L 158.459267 152 
L 157.380831 152 
L 156.302395 152 
L 155.223958 152 
L 154.145522 152 
L 153.067086 152 
L 151.98865 152 
L 151.403399 152 
L 150.910213 151.17615 
L 150.647659 150.722449 
L 149.869624 149.444898 
L 149.831777 149.385181 
L 149.084379 148.167347 
L 148.753341 147.655678 
L 148.272891 146.889796 
L 147.674904 145.985372 
L 147.435379 145.612245 
L 146.596468 144.372083 
L 146.571879 144.334694 
L 145.694062 143.057143 
L 145.518032 142.813714 
L 144.789445 141.779592 
L 144.439595 141.308247 
L 143.855706 140.502041 
L 143.361159 139.853744 
L 142.892056 139.22449 
L 142.282723 138.44834 
L 141.897429 137.946939 
L 141.204287 137.09024 
L 140.870446 136.669388 
L 140.12585 135.77772 
L 139.809377 135.391837 
L 139.047414 134.509121 
L 138.712081 134.114286 
L 137.968978 133.282846 
L 137.575939 132.836735 
L 136.890541 132.097361 
L 136.397764 131.559184 
L 135.812105 130.951188 
L 135.173683 130.281633 
L 134.733669 129.842907 
L 133.898992 129.004082 
L 133.655232 128.771151 
L 132.576796 127.734606 
L 132.56853 127.726531 
L 131.49836 126.732005 
L 131.194632 126.44898 
L 130.419923 125.762132 
L 129.753578 125.171429 
L 129.341487 124.823815 
L 128.263051 123.915927 
L 128.237253 123.893878 
L 127.184615 123.037383 
L 126.663783 122.616327 
L 126.106178 122.187139 
L 125.027742 121.364189 
L 124.994922 121.338776 
L 123.949306 120.567568 
L 123.253166 120.061224 
L 122.870869 119.796343 
L 121.792433 119.049619 
L 121.40779 118.783673 
L 120.713997 118.326533 
L 119.63556 117.626254 
L 119.451945 117.506122 
L 118.557124 116.947983 
L 117.478688 116.29095 
L 117.377436 116.228571 
L 116.400252 115.654413 
L 115.321815 115.037659 
L 115.171662 114.95102 
L 114.243379 114.44 
L 113.164943 113.860774 
L 112.816258 113.673469 
L 112.086506 113.299344 
L 111.00807 112.755096 
L 110.284939 112.395918 
L 109.929634 112.227437 
L 108.851197 111.715798 
L 107.772761 111.219631 
L 107.553915 111.118367 
L 106.694325 110.738406 
L 105.615888 110.271614 
L 104.592291 109.840816 
L 104.537452 109.818764 
L 103.459016 109.379382 
L 102.38058 108.953014 
L 101.367517 108.563265 
L 101.302143 108.53922 
L 100.223707 108.137577 
L 99.145271 107.747675 
L 98.066834 107.369123 
L 97.830368 107.285714 
L 96.988398 107.001542 
L 95.909962 106.644564 
L 94.831525 106.297839 
L 93.909776 106.008163 
L 93.753089 105.961027 
L 92.674653 105.6338 
L 91.596217 105.315841 
L 90.51778 105.006848 
L 89.529323 104.730612 
L 89.439344 104.706525 
L 88.360908 104.41459 
L 87.282471 104.130769 
L 86.204035 103.854799 
L 85.125599 103.586426 
L 84.58593 103.453061 
L 84.047162 103.325404 
L 82.968726 103.071496 
L 81.89029 102.824475 
L 80.811853 102.584119 
L 79.733417 102.350217 
L 78.913837 102.17551 
L 78.654981 102.122562 
L 77.576545 101.900958 
L 76.498108 101.685212 
L 75.419672 101.47514 
L 74.341236 101.270565 
L 73.262799 101.071313 
L 72.303814 100.897959 
L 72.184363 100.87722 
L 71.105927 100.688124 
L 70.02749 100.50387 
L 68.949054 100.32431 
L 67.870618 100.149299 
L 66.792182 99.978696 
L 65.713745 99.812368 
L 64.635309 99.650184 
L 64.438631 99.620408 
L 63.556873 99.492019 
L 62.478436 99.33775 
L 61.4 99.18726 
z
" style="fill:#77b5d9;"/>
   </g>
   <g id="PathCollection_9">
    <path clip-path="url(#peceea2ecb9)" d="M 61.4 88.122449 
L 61.4 86.844898 
L 61.4 85.567347 
L 61.4 84.289796 
L 61.4 83.012245 
L 61.4 81.734694 
L 61.4 80.457143 
L 61.4 79.61274 
L 62.478436 79.46225 
L 63.556873 79.307981 
L 64.438631 79.179592 
L 64.635309 79.149816 
L 65.713745 78.987632 
L 66.792182 78.821304 
L 67.870618 78.650701 
L 68.949054 78.47569 
L 70.02749 78.29613 
L 71.105927 78.111876 
L 72.184363 77.92278 
L 72.303814 77.902041 
L 73.262799 77.728687 
L 74.341236 77.529435 
L 75.419672 77.32486 
L 76.498108 77.114788 
L 77.576545 76.899042 
L 78.654981 76.677438 
L 78.913837 76.62449 
L 79.733417 76.449783 
L 80.811853 76.215881 
L 81.89029 75.975525 
L 82.968726 75.728504 
L 84.047162 75.474596 
L 84.58593 75.346939 
L 85.125599 75.213574 
L 86.204035 74.945201 
L 87.282471 74.669231 
L 88.360908 74.38541 
L 89.439344 74.093475 
L 89.529323 74.069388 
L 90.51778 73.793152 
L 91.596217 73.484159 
L 92.674653 73.1662 
L 93.753089 72.838973 
L 93.909776 72.791837 
L 94.831525 72.502161 
L 95.909962 72.155436 
L 96.988398 71.798458 
L 97.830368 71.514286 
L 98.066834 71.430877 
L 99.145271 71.052325 
L 100.223707 70.662423 
L 101.302143 70.26078 
L 101.367517 70.236735 
L 102.38058 69.846986 
L 103.459016 69.420618 
L 104.537452 68.981236 
L 104.592291 68.959184 
L 105.615888 68.528386 
L 106.694325 68.061594 
L 107.553915 67.681633 
L 107.772761 67.580369 
L 108.851197 67.084202 
L 109.929634 66.572563 
L 110.284939 66.404082 
L 111.00807 66.044904 
L 112.086506 65.500656 
L 112.816258 65.126531 
L 113.164943 64.939226 
L 114.243379 64.36 
L 115.171662 63.84898 
L 115.321815 63.762341 
L 116.400252 63.145587 
L 117.377436 62.571429 
L 117.478688 62.50905 
L 118.557124 61.852017 
L 119.451945 61.293878 
L 119.63556 61.173746 
L 120.713997 60.473467 
L 121.40779 60.016327 
L 121.792433 59.750381 
L 122.870869 59.003657 
L 123.253166 58.738776 
L 123.949306 58.232432 
L 124.994922 57.461224 
L 125.027742 57.435811 
L 126.106178 56.612861 
L 126.663783 56.183673 
L 127.184615 55.762617 
L 128.237253 54.906122 
L 128.263051 54.884073 
L 129.341487 53.976185 
L 129.753578 53.628571 
L 130.419923 53.037868 
L 131.194632 52.35102 
L 131.49836 52.067995 
L 132.56853 51.073469 
L 132.576796 51.065394 
L 133.655232 50.028849 
L 133.898992 49.795918 
L 134.733669 48.957093 
L 135.173683 48.518367 
L 135.812105 47.848812 
L 136.397764 47.240816 
L 136.890541 46.702639 
L 137.575939 45.963265 
L 137.968978 45.517154 
L 138.712081 44.685714 
L 139.047414 44.290879 
L 139.809377 43.408163 
L 140.12585 43.02228 
L 140.870446 42.130612 
L 141.204287 41.70976 
L 141.897429 40.853061 
L 142.282723 40.35166 
L 142.892056 39.57551 
L 143.361159 38.946256 
L 143.855706 38.297959 
L 144.439595 37.491753 
L 144.789445 37.020408 
L 145.518032 35.986286 
L 145.694062 35.742857 
L 146.571879 34.465306 
L 146.596468 34.427917 
L 147.435379 33.187755 
L 147.674904 32.814628 
L 148.272891 31.910204 
L 148.753341 31.144322 
L 149.084379 30.632653 
L 149.831777 29.414819 
L 149.869624 29.355102 
L 150.647659 28.077551 
L 150.910213 27.62385 
L 151.403399 26.8 
L 151.98865 26.8 
L 153.067086 26.8 
L 154.145522 26.8 
L 155.223958 26.8 
L 156.302395 26.8 
L 157.380831 26.8 
L 158.459267 26.8 
L 159.537704 26.8 
L 160.61614 26.8 
L 161.694576 26.8 
L 162.773013 26.8 
L 163.851449 26.8 
L 164.929885 26.8 
L 166.008322 26.8 
L 167.086758 26.8 
L 167.086758 28.077551 
L 167.086758 29.355102 
L 167.086758 30.632653 
L 167.086758 31.910204 
L 167.086758 33.187755 
L 167.086758 34.465306 
L 167.086758 35.742857 
L 167.086758 37.020408 
L 167.086758 38.297959 
L 167.086758 39.57551 
L 167.086758 40.853061 
L 167.086758 42.130612 
L 167.086758 43.408163 
L 167.086758 44.685714 
L 167.086758 45.963265 
L 167.086758 47.240816 
L 167.086758 48.518367 
L 167.086758 49.795918 
L 167.086758 51.073469 
L 167.086758 52.35102 
L 167.086758 53.628571 
L 167.086758 54.906122 
L 167.086758 56.183673 
L 167.086758 57.461224 
L 167.086758 58.738776 
L 167.086758 60.016327 
L 167.086758 61.293878 
L 167.086758 62.571429 
L 167.086758 63.84898 
L 167.086758 65.126531 
L 167.086758 66.404082 
L 167.086758 67.681633 
L 167.086758 68.959184 
L 167.086758 70.236735 
L 167.086758 71.514286 
L 167.086758 72.791837 
L 167.086758 74.069388 
L 167.086758 75.346939 
L 167.086758 76.62449 
L 167.086758 77.902041 
L 167.086758 79.179592 
L 167.086758 80.457143 
L 167.086758 81.734694 
L 167.086758 83.012245 
L 167.086758 84.289796 
L 167.086758 85.567347 
L 167.086758 86.844898 
L 167.086758 88.122449 
L 167.086758 89.4 
L 166.008322 89.4 
L 164.929885 89.4 
L 163.851449 89.4 
L 162.773013 89.4 
L 161.694576 89.4 
L 160.61614 89.4 
L 159.537704 89.4 
L 158.459267 89.4 
L 157.380831 89.4 
L 156.302395 89.4 
L 155.223958 89.4 
L 154.145522 89.4 
L 153.067086 89.4 
L 151.98865 89.4 
L 150.910213 89.4 
L 149.831777 89.4 
L 148.753341 89.4 
L 147.674904 89.4 
L 146.596468 89.4 
L 145.518032 89.4 
L 144.439595 89.4 
L 143.361159 89.4 
L 142.282723 89.4 
L 141.204287 89.4 
L 140.12585 89.4 
L 139.047414 89.4 
L 137.968978 89.4 
L 136.890541 89.4 
L 135.812105 89.4 
L 134.733669 89.4 
L 133.655232 89.4 
L 132.576796 89.4 
L 131.49836 89.4 
L 130.419923 89.4 
L 129.341487 89.4 
L 128.263051 89.4 
L 127.184615 89.4 
L 126.106178 89.4 
L 125.027742 89.4 
L 123.949306 89.4 
L 122.870869 89.4 
L 121.792433 89.4 
L 120.713997 89.4 
L 119.63556 89.4 
L 118.557124 89.4 
L 117.478688 89.4 
L 116.400252 89.4 
L 115.321815 89.4 
L 114.243379 89.4 
L 113.164943 89.4 
L 112.086506 89.4 
L 111.00807 89.4 
L 109.929634 89.4 
L 108.851197 89.4 
L 107.772761 89.4 
L 106.694325 89.4 
L 105.615888 89.4 
L 104.537452 89.4 
L 103.459016 89.4 
L 102.38058 89.4 
L 101.302143 89.4 
L 100.223707 89.4 
L 99.145271 89.4 
L 98.066834 89.4 
L 96.988398 89.4 
L 95.909962 89.4 
L 94.831525 89.4 
L 93.753089 89.4 
L 92.674653 89.4 
L 91.596217 89.4 
L 90.51778 89.4 
L 89.439344 89.4 
L 88.360908 89.4 
L 87.282471 89.4 
L 86.204035 89.4 
L 85.125599 89.4 
L 84.047162 89.4 
L 82.968726 89.4 
L 81.89029 89.4 
L 80.811853 89.4 
L 79.733417 89.4 
L 78.654981 89.4 
L 77.576545 89.4 
L 76.498108 89.4 
L 75.419672 89.4 
L 74.341236 89.4 
L 73.262799 89.4 
L 72.184363 89.4 
L 71.105927 89.4 
L 70.02749 89.4 
L 68.949054 89.4 
L 67.870618 89.4 
L 66.792182 89.4 
L 65.713745 89.4 
L 64.635309 89.4 
L 63.556873 89.4 
L 62.478436 89.4 
L 61.4 89.4 
z
" style="fill:#60a7d2;"/>
   </g>
   <g id="PathCollection_10">
    <path clip-path="url(#peceea2ecb9)" d="M 61.4 79.179592 
L 61.4 77.902041 
L 61.4 76.62449 
L 61.4 75.346939 
L 61.4 74.069388 
L 61.4 72.791837 
L 61.4 71.514286 
L 61.4 70.236735 
L 61.4 69.825479 
L 62.478436 69.5245 
L 63.556873 69.215963 
L 64.438631 68.959184 
L 64.635309 68.899631 
L 65.713745 68.575264 
L 66.792182 68.242608 
L 67.870618 67.901403 
L 68.557671 67.681633 
L 68.949054 67.55138 
L 70.02749 67.192259 
L 71.105927 66.823752 
L 72.184363 66.44556 
L 72.303814 66.404082 
L 73.262799 66.057373 
L 74.341236 65.65887 
L 75.419672 65.249719 
L 75.745066 65.126531 
L 76.498108 64.829576 
L 77.576545 64.398085 
L 78.654981 63.954876 
L 78.913837 63.84898 
L 79.733417 63.499567 
L 80.811853 63.031762 
L 81.846356 62.571429 
L 81.89029 62.551051 
L 82.968726 62.057008 
L 84.047162 61.549193 
L 84.58593 61.293878 
L 85.125599 61.027148 
L 86.204035 60.490401 
L 87.13578 60.016327 
L 87.282471 59.938461 
L 88.360908 59.37082 
L 89.439344 58.78695 
L 89.529323 58.738776 
L 90.51778 58.186304 
L 91.596217 57.568317 
L 91.784472 57.461224 
L 92.674653 56.932401 
L 93.753089 56.277946 
L 93.909776 56.183673 
L 94.831525 55.604321 
L 95.909962 54.910871 
L 95.917456 54.906122 
L 96.988398 54.196917 
L 97.830368 53.628571 
L 98.066834 53.461753 
L 99.145271 52.704649 
L 99.64625 52.35102 
L 100.223707 51.924847 
L 101.302143 51.12156 
L 101.367517 51.073469 
L 102.38058 50.293971 
L 103.022212 49.795918 
L 103.459016 49.441235 
L 104.537452 48.562473 
L 104.592291 48.518367 
L 105.615888 47.656773 
L 106.108566 47.240816 
L 106.694325 46.723188 
L 107.553915 45.963265 
L 107.772761 45.760738 
L 108.851197 44.768403 
L 108.94212 44.685714 
L 109.929634 43.745126 
L 110.284939 43.408163 
L 111.00807 42.689809 
L 111.574622 42.130612 
L 112.086506 41.601312 
L 112.816258 40.853061 
L 113.164943 40.478451 
L 114.014088 39.57551 
L 114.243379 39.32 
L 115.171662 38.297959 
L 115.321815 38.124682 
L 116.29195 37.020408 
L 116.400252 36.891174 
L 117.377436 35.742857 
L 117.478688 35.618101 
L 118.430195 34.465306 
L 118.557124 34.304034 
L 119.451945 33.187755 
L 119.63556 32.947492 
L 120.444097 31.910204 
L 120.713997 31.546935 
L 121.40779 30.632653 
L 121.792433 30.100762 
L 122.343921 29.355102 
L 122.870869 28.607314 
L 123.253166 28.077551 
L 123.949306 27.064865 
L 124.136001 26.8 
L 125.027742 26.8 
L 126.106178 26.8 
L 127.184615 26.8 
L 128.263051 26.8 
L 129.341487 26.8 
L 130.419923 26.8 
L 131.49836 26.8 
L 132.576796 26.8 
L 133.655232 26.8 
L 134.733669 26.8 
L 135.812105 26.8 
L 136.890541 26.8 
L 137.968978 26.8 
L 139.047414 26.8 
L 140.12585 26.8 
L 141.204287 26.8 
L 142.282723 26.8 
L 143.361159 26.8 
L 144.439595 26.8 
L 145.518032 26.8 
L 146.596468 26.8 
L 147.674904 26.8 
L 148.753341 26.8 
L 149.831777 26.8 
L 150.910213 26.8 
L 151.403399 26.8 
L 150.910213 27.62385 
L 150.647659 28.077551 
L 149.869624 29.355102 
L 149.831777 29.414819 
L 149.084379 30.632653 
L 148.753341 31.144322 
L 148.272891 31.910204 
L 147.674904 32.814628 
L 147.435379 33.187755 
L 146.596468 34.427917 
L 146.571879 34.465306 
L 145.694062 35.742857 
L 145.518032 35.986286 
L 144.789445 37.020408 
L 144.439595 37.491753 
L 143.855706 38.297959 
L 143.361159 38.946256 
L 142.892056 39.57551 
L 142.282723 40.35166 
L 141.897429 40.853061 
L 141.204287 41.70976 
L 140.870446 42.130612 
L 140.12585 43.02228 
L 139.809377 43.408163 
L 139.047414 44.290879 
L 138.712081 44.685714 
L 137.968978 45.517154 
L 137.575939 45.963265 
L 136.890541 46.702639 
L 136.397764 47.240816 
L 135.812105 47.848812 
L 135.173683 48.518367 
L 134.733669 48.957093 
L 133.898992 49.795918 
L 133.655232 50.028849 
L 132.576796 51.065394 
L 132.56853 51.073469 
L 131.49836 52.067995 
L 131.194632 52.35102 
L 130.419923 53.037868 
L 129.753578 53.628571 
L 129.341487 53.976185 
L 128.263051 54.884073 
L 128.237253 54.906122 
L 127.184615 55.762617 
L 126.663783 56.183673 
L 126.106178 56.612861 
L 125.027742 57.435811 
L 124.994922 57.461224 
L 123.949306 58.232432 
L 123.253166 58.738776 
L 122.870869 59.003657 
L 121.792433 59.750381 
L 121.40779 60.016327 
L 120.713997 60.473467 
L 119.63556 61.173746 
L 119.451945 61.293878 
L 118.557124 61.852017 
L 117.478688 62.50905 
L 117.377436 62.571429 
L 116.400252 63.145587 
L 115.321815 63.762341 
L 115.171662 63.84898 
L 114.243379 64.36 
L 113.164943 64.939226 
L 112.816258 65.126531 
L 112.086506 65.500656 
L 111.00807 66.044904 
L 110.284939 66.404082 
L 109.929634 66.572563 
L 108.851197 67.084202 
L 107.772761 67.580369 
L 107.553915 67.681633 
L 106.694325 68.061594 
L 105.615888 68.528386 
L 104.592291 68.959184 
L 104.537452 68.981236 
L 103.459016 69.420618 
L 102.38058 69.846986 
L 101.367517 70.236735 
L 101.302143 70.26078 
L 100.223707 70.662423 
L 99.145271 71.052325 
L 98.066834 71.430877 
L 97.830368 71.514286 
L 96.988398 71.798458 
L 95.909962 72.155436 
L 94.831525 72.502161 
L 93.909776 72.791837 
L 93.753089 72.838973 
L 92.674653 73.1662 
L 91.596217 73.484159 
L 90.51778 73.793152 
L 89.529323 74.069388 
L 89.439344 74.093475 
L 88.360908 74.38541 
L 87.282471 74.669231 
L 86.204035 74.945201 
L 85.125599 75.213574 
L 84.58593 75.346939 
L 84.047162 75.474596 
L 82.968726 75.728504 
L 81.89029 75.975525 
L 80.811853 76.215881 
L 79.733417 76.449783 
L 78.913837 76.62449 
L 78.654981 76.677438 
L 77.576545 76.899042 
L 76.498108 77.114788 
L 75.419672 77.32486 
L 74.341236 77.529435 
L 73.262799 77.728687 
L 72.303814 77.902041 
L 72.184363 77.92278 
L 71.105927 78.111876 
L 70.02749 78.29613 
L 68.949054 78.47569 
L 67.870618 78.650701 
L 66.792182 78.821304 
L 65.713745 78.987632 
L 64.635309 79.149816 
L 64.438631 79.179592 
L 63.556873 79.307981 
L 62.478436 79.46225 
L 61.4 79.61274 
z
" style="fill:#4b98ca;"/>
   </g>
   <g id="PathCollection_11">
    <path clip-path="url(#peceea2ecb9)" d="M 61.4 68.959184 
L 61.4 67.681633 
L 61.4 66.404082 
L 61.4 65.126531 
L 61.4 63.84898 
L 61.4 62.571429 
L 61.4 61.293878 
L 61.4 60.038219 
L 61.454261 60.016327 
L 62.478436 59.58675 
L 63.556873 59.123944 
L 64.438631 58.738776 
L 64.635309 58.649447 
L 65.713745 58.162895 
L 66.792182 57.663911 
L 67.229498 57.461224 
L 67.870618 57.152104 
L 68.949054 56.627069 
L 69.84289 56.183673 
L 70.02749 56.088389 
L 71.105927 55.535629 
L 72.184363 54.968341 
L 72.303814 54.906122 
L 73.262799 54.38606 
L 74.341236 53.788305 
L 74.630436 53.628571 
L 75.419672 53.174579 
L 76.498108 52.544364 
L 76.829585 52.35102 
L 77.576545 51.897127 
L 78.654981 51.232313 
L 78.913837 51.073469 
L 79.733417 50.54935 
L 80.811853 49.847643 
L 80.892258 49.795918 
L 81.89029 49.126576 
L 82.781911 48.518367 
L 82.968726 48.385512 
L 84.047162 47.623789 
L 84.58593 47.240816 
L 85.125599 46.840722 
L 86.204035 46.035602 
L 86.301979 45.963265 
L 87.282471 45.207692 
L 87.954426 44.685714 
L 88.360908 44.35623 
L 89.439344 43.480425 
L 89.529323 43.408163 
L 90.51778 42.579457 
L 91.051575 42.130612 
L 91.596217 41.652476 
L 92.506255 40.853061 
L 92.674653 40.698601 
L 93.753089 39.716919 
L 93.909776 39.57551 
L 94.831525 38.706482 
L 95.266398 38.297959 
L 95.909962 37.666307 
L 96.571683 37.020408 
L 96.988398 36.595375 
L 97.830368 35.742857 
L 98.066834 35.49263 
L 99.046443 34.465306 
L 99.145271 34.356974 
L 100.223279 33.187755 
L 100.223707 33.18727 
L 101.302143 31.982339 
L 101.367517 31.910204 
L 102.38058 30.740957 
L 102.475737 30.632653 
L 103.459016 29.461853 
L 103.550062 29.355102 
L 104.537452 28.143709 
L 104.592291 28.077551 
L 105.604624 26.8 
L 105.615888 26.8 
L 106.694325 26.8 
L 107.772761 26.8 
L 108.851197 26.8 
L 109.929634 26.8 
L 111.00807 26.8 
L 112.086506 26.8 
L 113.164943 26.8 
L 114.243379 26.8 
L 115.321815 26.8 
L 116.400252 26.8 
L 117.478688 26.8 
L 118.557124 26.8 
L 119.63556 26.8 
L 120.713997 26.8 
L 121.792433 26.8 
L 122.870869 26.8 
L 123.949306 26.8 
L 124.136001 26.8 
L 123.949306 27.064865 
L 123.253166 28.077551 
L 122.870869 28.607314 
L 122.343921 29.355102 
L 121.792433 30.100762 
L 121.40779 30.632653 
L 120.713997 31.546935 
L 120.444097 31.910204 
L 119.63556 32.947492 
L 119.451945 33.187755 
L 118.557124 34.304034 
L 118.430195 34.465306 
L 117.478688 35.618101 
L 117.377436 35.742857 
L 116.400252 36.891174 
L 116.29195 37.020408 
L 115.321815 38.124682 
L 115.171662 38.297959 
L 114.243379 39.32 
L 114.014088 39.57551 
L 113.164943 40.478451 
L 112.816258 40.853061 
L 112.086506 41.601312 
L 111.574622 42.130612 
L 111.00807 42.689809 
L 110.284939 43.408163 
L 109.929634 43.745126 
L 108.94212 44.685714 
L 108.851197 44.768403 
L 107.772761 45.760738 
L 107.553915 45.963265 
L 106.694325 46.723188 
L 106.108566 47.240816 
L 105.615888 47.656773 
L 104.592291 48.518367 
L 104.537452 48.562473 
L 103.459016 49.441235 
L 103.022212 49.795918 
L 102.38058 50.293971 
L 101.367517 51.073469 
L 101.302143 51.12156 
L 100.223707 51.924847 
L 99.64625 52.35102 
L 99.145271 52.704649 
L 98.066834 53.461753 
L 97.830368 53.628571 
L 96.988398 54.196917 
L 95.917456 54.906122 
L 95.909962 54.910871 
L 94.831525 55.604321 
L 93.909776 56.183673 
L 93.753089 56.277946 
L 92.674653 56.932401 
L 91.784472 57.461224 
L 91.596217 57.568317 
L 90.51778 58.186304 
L 89.529323 58.738776 
L 89.439344 58.78695 
L 88.360908 59.37082 
L 87.282471 59.938461 
L 87.13578 60.016327 
L 86.204035 60.490401 
L 85.125599 61.027148 
L 84.58593 61.293878 
L 84.047162 61.549193 
L 82.968726 62.057008 
L 81.89029 62.551051 
L 81.846356 62.571429 
L 80.811853 63.031762 
L 79.733417 63.499567 
L 78.913837 63.84898 
L 78.654981 63.954876 
L 77.576545 64.398085 
L 76.498108 64.829576 
L 75.745066 65.126531 
L 75.419672 65.249719 
L 74.341236 65.65887 
L 73.262799 66.057373 
L 72.303814 66.404082 
L 72.184363 66.44556 
L 71.105927 66.823752 
L 70.02749 67.192259 
L 68.949054 67.55138 
L 68.557671 67.681633 
L 67.870618 67.901403 
L 66.792182 68.242608 
L 65.713745 68.575264 
L 64.635309 68.899631 
L 64.438631 68.959184 
L 63.556873 69.215963 
L 62.478436 69.5245 
L 61.4 69.825479 
z
" style="fill:#3989c1;"/>
   </g>
   <g id="PathCollection_12">
    <path clip-path="url(#peceea2ecb9)" d="M 61.4 60.016327 
L 61.4 58.738776 
L 61.4 57.461224 
L 61.4 56.183673 
L 61.4 54.906122 
L 61.4 53.628571 
L 61.4 52.35102 
L 61.4 51.073469 
L 61.4 50.250958 
L 62.222851 49.795918 
L 62.478436 49.649 
L 63.556873 49.031925 
L 64.438631 48.518367 
L 64.635309 48.399263 
L 65.713745 47.750527 
L 66.547473 47.240816 
L 66.792182 47.085215 
L 67.870618 46.402805 
L 68.557671 45.963265 
L 68.949054 45.702759 
L 70.02749 44.984518 
L 70.475144 44.685714 
L 71.105927 44.247505 
L 72.184363 43.491121 
L 72.303814 43.408163 
L 73.262799 42.714746 
L 74.06164 42.130612 
L 74.341236 41.91774 
L 75.419672 41.099438 
L 75.745066 40.853061 
L 76.498108 40.259152 
L 77.359595 39.57551 
L 77.576545 39.396169 
L 78.654981 38.509751 
L 78.913837 38.297959 
L 79.733417 37.599134 
L 80.410963 37.020408 
L 80.811853 36.663524 
L 81.846356 35.742857 
L 81.89029 35.702102 
L 82.968726 34.714016 
L 83.241269 34.465306 
L 84.047162 33.698385 
L 84.58593 33.187755 
L 85.125599 32.654296 
L 85.882717 31.910204 
L 86.204035 31.580803 
L 87.13578 30.632653 
L 87.282471 30.476923 
L 88.348645 29.355102 
L 88.360908 29.34164 
L 89.439344 28.173899 
L 89.529323 28.077551 
L 90.51778 26.972609 
L 90.674069 26.8 
L 91.596217 26.8 
L 92.674653 26.8 
L 93.753089 26.8 
L 94.831525 26.8 
L 95.909962 26.8 
L 96.988398 26.8 
L 98.066834 26.8 
L 99.145271 26.8 
L 100.223707 26.8 
L 101.302143 26.8 
L 102.38058 26.8 
L 103.459016 26.8 
L 104.537452 26.8 
L 105.604624 26.8 
L 104.592291 28.077551 
L 104.537452 28.143709 
L 103.550062 29.355102 
L 103.459016 29.461853 
L 102.475737 30.632653 
L 102.38058 30.740957 
L 101.367517 31.910204 
L 101.302143 31.982339 
L 100.223707 33.18727 
L 100.223279 33.187755 
L 99.145271 34.356974 
L 99.046443 34.465306 
L 98.066834 35.49263 
L 97.830368 35.742857 
L 96.988398 36.595375 
L 96.571683 37.020408 
L 95.909962 37.666307 
L 95.266398 38.297959 
L 94.831525 38.706482 
L 93.909776 39.57551 
L 93.753089 39.716919 
L 92.674653 40.698601 
L 92.506255 40.853061 
L 91.596217 41.652476 
L 91.051575 42.130612 
L 90.51778 42.579457 
L 89.529323 43.408163 
L 89.439344 43.480425 
L 88.360908 44.35623 
L 87.954426 44.685714 
L 87.282471 45.207692 
L 86.301979 45.963265 
L 86.204035 46.035602 
L 85.125599 46.840722 
L 84.58593 47.240816 
L 84.047162 47.623789 
L 82.968726 48.385512 
L 82.781911 48.518367 
L 81.89029 49.126576 
L 80.892258 49.795918 
L 80.811853 49.847643 
L 79.733417 50.54935 
L 78.913837 51.073469 
L 78.654981 51.232313 
L 77.576545 51.897127 
L 76.829585 52.35102 
L 76.498108 52.544364 
L 75.419672 53.174579 
L 74.630436 53.628571 
L 74.341236 53.788305 
L 73.262799 54.38606 
L 72.303814 54.906122 
L 72.184363 54.968341 
L 71.105927 55.535629 
L 70.02749 56.088389 
L 69.84289 56.183673 
L 68.949054 56.627069 
L 67.870618 57.152104 
L 67.229498 57.461224 
L 66.792182 57.663911 
L 65.713745 58.162895 
L 64.635309 58.649447 
L 64.438631 58.738776 
L 63.556873 59.123944 
L 62.478436 59.58675 
L 61.454261 60.016327 
L 61.4 60.038219 
z
" style="fill:#2979b9;"/>
   </g>
   <g id="PathCollection_13">
    <path clip-path="url(#peceea2ecb9)" d="M 61.4 49.795918 
L 61.4 48.518367 
L 61.4 47.240816 
L 61.4 45.963265 
L 61.4 44.685714 
L 61.4 43.408163 
L 61.4 42.130612 
L 61.4 40.853061 
L 61.4 40.463698 
L 62.478436 39.71125 
L 62.674388 39.57551 
L 63.556873 38.939906 
L 64.438631 38.297959 
L 64.635309 38.149079 
L 65.713745 37.338159 
L 66.135859 37.020408 
L 66.792182 36.506519 
L 67.76158 35.742857 
L 67.870618 35.653507 
L 68.949054 34.778449 
L 69.335013 34.465306 
L 70.02749 33.880648 
L 70.846534 33.187755 
L 71.105927 32.959381 
L 72.184363 32.013901 
L 72.303814 31.910204 
L 73.262799 31.043433 
L 73.718067 30.632653 
L 74.341236 30.047175 
L 75.080399 29.355102 
L 75.419672 29.024298 
L 76.395564 28.077551 
L 76.498108 27.97394 
L 77.576545 26.895211 
L 77.672758 26.8 
L 78.654981 26.8 
L 79.733417 26.8 
L 80.811853 26.8 
L 81.89029 26.8 
L 82.968726 26.8 
L 84.047162 26.8 
L 85.125599 26.8 
L 86.204035 26.8 
L 87.282471 26.8 
L 88.360908 26.8 
L 89.439344 26.8 
L 90.51778 26.8 
L 90.674069 26.8 
L 90.51778 26.972609 
L 89.529323 28.077551 
L 89.439344 28.173899 
L 88.360908 29.34164 
L 88.348645 29.355102 
L 87.282471 30.476923 
L 87.13578 30.632653 
L 86.204035 31.580803 
L 85.882717 31.910204 
L 85.125599 32.654296 
L 84.58593 33.187755 
L 84.047162 33.698385 
L 83.241269 34.465306 
L 82.968726 34.714016 
L 81.89029 35.702102 
L 81.846356 35.742857 
L 80.811853 36.663524 
L 80.410963 37.020408 
L 79.733417 37.599134 
L 78.913837 38.297959 
L 78.654981 38.509751 
L 77.576545 39.396169 
L 77.359595 39.57551 
L 76.498108 40.259152 
L 75.745066 40.853061 
L 75.419672 41.099438 
L 74.341236 41.91774 
L 74.06164 42.130612 
L 73.262799 42.714746 
L 72.303814 43.408163 
L 72.184363 43.491121 
L 71.105927 44.247505 
L 70.475144 44.685714 
L 70.02749 44.984518 
L 68.949054 45.702759 
L 68.557671 45.963265 
L 67.870618 46.402805 
L 66.792182 47.085215 
L 66.547473 47.240816 
L 65.713745 47.750527 
L 64.635309 48.399263 
L 64.438631 48.518367 
L 63.556873 49.031925 
L 62.478436 49.649 
L 62.222851 49.795918 
L 61.4 50.250958 
z
" style="fill:#1a68ae;"/>
   </g>
   <g id="PathCollection_14">
    <path clip-path="url(#peceea2ecb9)" d="M 61.4 39.57551 
L 61.4 38.297959 
L 61.4 37.020408 
L 61.4 35.742857 
L 61.4 34.465306 
L 61.4 33.187755 
L 61.4 31.910204 
L 61.4 30.676437 
L 61.454261 30.632653 
L 62.478436 29.773501 
L 62.976326 29.355102 
L 63.556873 28.847888 
L 64.438631 28.077551 
L 64.635309 27.898894 
L 65.713745 26.925791 
L 65.85443 26.8 
L 66.792182 26.8 
L 67.870618 26.8 
L 68.949054 26.8 
L 70.02749 26.8 
L 71.105927 26.8 
L 72.184363 26.8 
L 73.262799 26.8 
L 74.341236 26.8 
L 75.419672 26.8 
L 76.498108 26.8 
L 77.576545 26.8 
L 77.672758 26.8 
L 77.576545 26.895211 
L 76.498108 27.97394 
L 76.395564 28.077551 
L 75.419672 29.024298 
L 75.080399 29.355102 
L 74.341236 30.047175 
L 73.718067 30.632653 
L 73.262799 31.043433 
L 72.303814 31.910204 
L 72.184363 32.013901 
L 71.105927 32.959381 
L 70.846534 33.187755 
L 70.02749 33.880648 
L 69.335013 34.465306 
L 68.949054 34.778449 
L 67.870618 35.653507 
L 67.76158 35.742857 
L 66.792182 36.506519 
L 66.135859 37.020408 
L 65.713745 37.338159 
L 64.635309 38.149079 
L 64.438631 38.297959 
L 63.556873 38.939906 
L 62.674388 39.57551 
L 62.478436 39.71125 
L 61.4 40.463698 
z
" style="fill:#0e58a2;"/>
   </g>
   <g id="PathCollection_15">
    <path clip-path="url(#peceea2ecb9)" d="M 61.4 30.632653 
L 61.4 29.355102 
L 61.4 28.077551 
L 61.4 26.8 
L 62.478436 26.8 
L 63.556873 26.8 
L 64.635309 26.8 
L 65.713745 26.8 
L 65.85443 26.8 
L 65.713745 26.925791 
L 64.635309 27.898894 
L 64.438631 28.077551 
L 63.556873 28.847888 
L 62.976326 29.355102 
L 62.478436 29.773501 
L 61.454261 30.632653 
L 61.4 30.676437 
z
" style="fill:#08488e;"/>
   </g>
   <g id="PathCollection_16"/>
   <g id="matplotlib.axis_1">
    <g id="xtick_1">
     <g id="line2d_1">
      <defs>
       <path d="M 0 0 
L 0 3.5 
" id="m2e8cdd4388" style="stroke:#000000;stroke-width:0.8;"/>
      </defs>
      <g>
       <use style="stroke:#000000;stroke-width:0.8;" x="61.4" xlink:href="#m2e8cdd4388" y="152"/>
      </g>
     </g>
     <g id="text_1">
      <!-- $\mathdefault{10^{-1}}$ -->
      <defs>
       <path d="M 12.40625 8.296875 
L 28.515625 8.296875 
L 28.515625 63.921875 
L 10.984375 60.40625 
L 10.984375 69.390625 
L 28.421875 72.90625 
L 38.28125 72.90625 
L 38.28125 8.296875 
L 54.390625 8.296875 
L 54.390625 0 
L 12.40625 0 
z
" id="DejaVuSans-31"/>
       <path d="M 31.78125 66.40625 
Q 24.171875 66.40625 20.328125 58.90625 
Q 16.5 51.421875 16.5 36.375 
Q 16.5 21.390625 20.328125 13.890625 
Q 24.171875 6.390625 31.78125 6.390625 
Q 39.453125 6.390625 43.28125 13.890625 
Q 47.125 21.390625 47.125 36.375 
Q 47.125 51.421875 43.28125 58.90625 
Q 39.453125 66.40625 31.78125 66.40625 
z
M 31.78125 74.21875 
Q 44.046875 74.21875 50.515625 64.515625 
Q 56.984375 54.828125 56.984375 36.375 
Q 56.984375 17.96875 50.515625 8.265625 
Q 44.046875 -1.421875 31.78125 -1.421875 
Q 19.53125 -1.421875 13.0625 8.265625 
Q 6.59375 17.96875 6.59375 36.375 
Q 6.59375 54.828125 13.0625 64.515625 
Q 19.53125 74.21875 31.78125 74.21875 
z
" id="DejaVuSans-30"/>
       <path d="M 10.59375 35.5 
L 73.1875 35.5 
L 73.1875 27.203125 
L 10.59375 27.203125 
z
" id="DejaVuSans-2212"/>
      </defs>
      <g transform="translate(49.65 166.598437)scale(0.1 -0.1)">
       <use transform="translate(0 0.684375)" xlink:href="#DejaVuSans-31"/>
       <use transform="translate(63.623047 0.684375)" xlink:href="#DejaVuSans-30"/>
       <use transform="translate(128.203125 38.965625)scale(0.7)" xlink:href="#DejaVuSans-2212"/>
       <use transform="translate(186.855469 38.965625)scale(0.7)" xlink:href="#DejaVuSans-31"/>
      </g>
     </g>
    </g>
    <g id="xtick_2">
     <g id="line2d_2">
      <g>
       <use style="stroke:#000000;stroke-width:0.8;" x="114.243379" xlink:href="#m2e8cdd4388" y="152"/>
      </g>
     </g>
     <g id="text_2">
      <!-- $\mathdefault{10^{0}}$ -->
      <g transform="translate(105.443379 166.598437)scale(0.1 -0.1)">
       <use transform="translate(0 0.765625)" xlink:href="#DejaVuSans-31"/>
       <use transform="translate(63.623047 0.765625)" xlink:href="#DejaVuSans-30"/>
       <use transform="translate(128.203125 39.046875)scale(0.7)" xlink:href="#DejaVuSans-30"/>
      </g>
     </g>
    </g>
    <g id="xtick_3">
     <g id="line2d_3">
      <g>
       <use style="stroke:#000000;stroke-width:0.8;" x="167.086758" xlink:href="#m2e8cdd4388" y="152"/>
      </g>
     </g>
     <g id="text_3">
      <!-- $\mathdefault{10^{1}}$ -->
      <g transform="translate(158.286758 166.598437)scale(0.1 -0.1)">
       <use transform="translate(0 0.684375)" xlink:href="#DejaVuSans-31"/>
       <use transform="translate(63.623047 0.684375)" xlink:href="#DejaVuSans-30"/>
       <use transform="translate(128.203125 38.965625)scale(0.7)" xlink:href="#DejaVuSans-31"/>
      </g>
     </g>
    </g>
    <g id="xtick_4">
     <g id="line2d_4">
      <defs>
       <path d="M 0 0 
L 0 2 
" id="mfea6218d54" style="stroke:#000000;stroke-width:0.6;"/>
      </defs>
      <g>
       <use style="stroke:#000000;stroke-width:0.6;" x="77.307442" xlink:href="#mfea6218d54" y="152"/>
      </g>
     </g>
    </g>
    <g id="xtick_5">
     <g id="line2d_5">
      <g>
       <use style="stroke:#000000;stroke-width:0.6;" x="86.612699" xlink:href="#mfea6218d54" y="152"/>
      </g>
     </g>
    </g>
    <g id="xtick_6">
     <g id="line2d_6">
      <g>
       <use style="stroke:#000000;stroke-width:0.6;" x="93.214884" xlink:href="#mfea6218d54" y="152"/>
      </g>
     </g>
    </g>
    <g id="xtick_7">
     <g id="line2d_7">
      <g>
       <use style="stroke:#000000;stroke-width:0.6;" x="98.335937" xlink:href="#mfea6218d54" y="152"/>
      </g>
     </g>
    </g>
    <g id="xtick_8">
     <g id="line2d_8">
      <g>
       <use style="stroke:#000000;stroke-width:0.6;" x="102.520141" xlink:href="#mfea6218d54" y="152"/>
      </g>
     </g>
    </g>
    <g id="xtick_9">
     <g id="line2d_9">
      <g>
       <use style="stroke:#000000;stroke-width:0.6;" x="106.057836" xlink:href="#mfea6218d54" y="152"/>
      </g>
     </g>
    </g>
    <g id="xtick_10">
     <g id="line2d_10">
      <g>
       <use style="stroke:#000000;stroke-width:0.6;" x="109.122326" xlink:href="#mfea6218d54" y="152"/>
      </g>
     </g>
    </g>
    <g id="xtick_11">
     <g id="line2d_11">
      <g>
       <use style="stroke:#000000;stroke-width:0.6;" x="111.825398" xlink:href="#mfea6218d54" y="152"/>
      </g>
     </g>
    </g>
    <g id="xtick_12">
     <g id="line2d_12">
      <g>
       <use style="stroke:#000000;stroke-width:0.6;" x="130.150821" xlink:href="#mfea6218d54" y="152"/>
      </g>
     </g>
    </g>
    <g id="xtick_13">
     <g id="line2d_13">
      <g>
       <use style="stroke:#000000;stroke-width:0.6;" x="139.456078" xlink:href="#mfea6218d54" y="152"/>
      </g>
     </g>
    </g>
    <g id="xtick_14">
     <g id="line2d_14">
      <g>
       <use style="stroke:#000000;stroke-width:0.6;" x="146.058263" xlink:href="#mfea6218d54" y="152"/>
      </g>
     </g>
    </g>
    <g id="xtick_15">
     <g id="line2d_15">
      <g>
       <use style="stroke:#000000;stroke-width:0.6;" x="151.179316" xlink:href="#mfea6218d54" y="152"/>
      </g>
     </g>
    </g>
    <g id="xtick_16">
     <g id="line2d_16">
      <g>
       <use style="stroke:#000000;stroke-width:0.6;" x="155.36352" xlink:href="#mfea6218d54" y="152"/>
      </g>
     </g>
    </g>
    <g id="xtick_17">
     <g id="line2d_17">
      <g>
       <use style="stroke:#000000;stroke-width:0.6;" x="158.901215" xlink:href="#mfea6218d54" y="152"/>
      </g>
     </g>
    </g>
    <g id="xtick_18">
     <g id="line2d_18">
      <g>
       <use style="stroke:#000000;stroke-width:0.6;" x="161.965705" xlink:href="#mfea6218d54" y="152"/>
      </g>
     </g>
    </g>
    <g id="xtick_19">
     <g id="line2d_19">
      <g>
       <use style="stroke:#000000;stroke-width:0.6;" x="164.668777" xlink:href="#mfea6218d54" y="152"/>
      </g>
     </g>
    </g>
    <g id="text_4">
     <!-- $c$ -->
     <defs>
      <path d="M 53.609375 52.59375 
L 51.8125 43.703125 
Q 48.578125 46.046875 44.9375 47.21875 
Q 41.3125 48.390625 37.40625 48.390625 
Q 33.109375 48.390625 29.21875 46.875 
Q 25.34375 45.359375 22.703125 42.578125 
Q 18.5 38.328125 16.203125 32.609375 
Q 13.921875 26.90625 13.921875 20.796875 
Q 13.921875 13.421875 17.609375 9.8125 
Q 21.296875 6.203125 28.8125 6.203125 
Q 32.515625 6.203125 36.6875 7.328125 
Q 40.875 8.453125 45.40625 10.6875 
L 43.703125 1.8125 
Q 39.796875 0.203125 35.671875 -0.609375 
Q 31.546875 -1.421875 27.203125 -1.421875 
Q 16.3125 -1.421875 10.453125 4.015625 
Q 4.59375 9.46875 4.59375 19.578125 
Q 4.59375 28.078125 7.640625 35.234375 
Q 10.6875 42.390625 16.703125 48.09375 
Q 20.796875 52 26.3125 54 
Q 31.84375 56 38.375 56 
Q 42.1875 56 45.9375 55.140625 
Q 49.703125 54.296875 53.609375 52.59375 
z
" id="DejaVuSans-Oblique-63"/>
     </defs>
     <g transform="translate(110.393379 183.315937)scale(0.14 -0.14)">
      <use xlink:href="#DejaVuSans-Oblique-63"/>
     </g>
    </g>
   </g>
   <g id="matplotlib.axis_2">
    <g id="ytick_1">
     <g id="line2d_20">
      <defs>
       <path d="M 0 0 
L -3.5 0 
" id="m8ab2b76b19" style="stroke:#000000;stroke-width:0.8;"/>
      </defs>
      <g>
       <use style="stroke:#000000;stroke-width:0.8;" x="61.4" xlink:href="#m8ab2b76b19" y="152"/>
      </g>
     </g>
     <g id="text_5">
      <!-- 10 -->
      <g transform="translate(33.295313 155.799219)scale(0.1 -0.1)">
       <use xlink:href="#DejaVuSans-2212"/>
       <use x="83.789062" xlink:href="#DejaVuSans-31"/>
       <use x="147.412109" xlink:href="#DejaVuSans-30"/>
      </g>
     </g>
    </g>
    <g id="ytick_2">
     <g id="line2d_21">
      <g>
       <use style="stroke:#000000;stroke-width:0.8;" x="61.4" xlink:href="#m8ab2b76b19" y="120.7"/>
      </g>
     </g>
     <g id="text_6">
      <!-- 5 -->
      <defs>
       <path d="M 10.796875 72.90625 
L 49.515625 72.90625 
L 49.515625 64.59375 
L 19.828125 64.59375 
L 19.828125 46.734375 
Q 21.96875 47.46875 24.109375 47.828125 
Q 26.265625 48.1875 28.421875 48.1875 
Q 40.625 48.1875 47.75 41.5 
Q 54.890625 34.8125 54.890625 23.390625 
Q 54.890625 11.625 47.5625 5.09375 
Q 40.234375 -1.421875 26.90625 -1.421875 
Q 22.3125 -1.421875 17.546875 -0.640625 
Q 12.796875 0.140625 7.71875 1.703125 
L 7.71875 11.625 
Q 12.109375 9.234375 16.796875 8.0625 
Q 21.484375 6.890625 26.703125 6.890625 
Q 35.15625 6.890625 40.078125 11.328125 
Q 45.015625 15.765625 45.015625 23.390625 
Q 45.015625 31 40.078125 35.4375 
Q 35.15625 39.890625 26.703125 39.890625 
Q 22.75 39.890625 18.8125 39.015625 
Q 14.890625 38.140625 10.796875 36.28125 
z
" id="DejaVuSans-35"/>
      </defs>
      <g transform="translate(39.657813 124.499219)scale(0.1 -0.1)">
       <use xlink:href="#DejaVuSans-2212"/>
       <use x="83.789062" xlink:href="#DejaVuSans-35"/>
      </g>
     </g>
    </g>
    <g id="ytick_3">
     <g id="line2d_22">
      <g>
       <use style="stroke:#000000;stroke-width:0.8;" x="61.4" xlink:href="#m8ab2b76b19" y="89.4"/>
      </g>
     </g>
     <g id="text_7">
      <!-- 0 -->
      <g transform="translate(48.0375 93.199219)scale(0.1 -0.1)">
       <use xlink:href="#DejaVuSans-30"/>
      </g>
     </g>
    </g>
    <g id="ytick_4">
     <g id="line2d_23">
      <g>
       <use style="stroke:#000000;stroke-width:0.8;" x="61.4" xlink:href="#m8ab2b76b19" y="58.1"/>
      </g>
     </g>
     <g id="text_8">
      <!-- 5 -->
      <g transform="translate(48.0375 61.899219)scale(0.1 -0.1)">
       <use xlink:href="#DejaVuSans-35"/>
      </g>
     </g>
    </g>
    <g id="ytick_5">
     <g id="line2d_24">
      <g>
       <use style="stroke:#000000;stroke-width:0.8;" x="61.4" xlink:href="#m8ab2b76b19" y="26.8"/>
      </g>
     </g>
     <g id="text_9">
      <!-- 10 -->
      <g transform="translate(41.675 30.599219)scale(0.1 -0.1)">
       <use xlink:href="#DejaVuSans-31"/>
       <use x="63.623047" xlink:href="#DejaVuSans-30"/>
      </g>
     </g>
    </g>
    <g id="text_10">
     <!-- $s N^*$ -->
     <defs>
      <path d="M 50 53.078125 
L 48.296875 44.578125 
Q 44.734375 46.53125 40.765625 47.5 
Q 36.8125 48.484375 32.625 48.484375 
Q 25.53125 48.484375 21.453125 46.0625 
Q 17.390625 43.65625 17.390625 39.5 
Q 17.390625 34.671875 26.859375 32.078125 
Q 27.59375 31.890625 27.9375 31.78125 
L 30.8125 30.90625 
Q 39.796875 28.421875 42.796875 25.6875 
Q 45.796875 22.953125 45.796875 18.21875 
Q 45.796875 9.515625 38.890625 4.046875 
Q 31.984375 -1.421875 20.796875 -1.421875 
Q 16.453125 -1.421875 11.671875 -0.578125 
Q 6.890625 0.25 1.125 2 
L 2.875 11.28125 
Q 7.8125 8.734375 12.59375 7.421875 
Q 17.390625 6.109375 21.78125 6.109375 
Q 28.375 6.109375 32.5 8.9375 
Q 36.625 11.765625 36.625 16.109375 
Q 36.625 20.796875 25.78125 23.6875 
L 24.859375 23.921875 
L 21.78125 24.703125 
Q 14.9375 26.515625 11.765625 29.46875 
Q 8.59375 32.421875 8.59375 37.015625 
Q 8.59375 45.75 15.15625 50.875 
Q 21.734375 56 33.015625 56 
Q 37.453125 56 41.671875 55.265625 
Q 45.90625 54.546875 50 53.078125 
z
" id="DejaVuSans-Oblique-73"/>
      <path d="M 16.890625 72.90625 
L 30.171875 72.90625 
L 50.296875 10.40625 
L 62.5 72.90625 
L 72.125 72.90625 
L 57.90625 0 
L 44.578125 0 
L 24.515625 62.890625 
L 12.3125 0 
L 2.6875 0 
z
" id="DejaVuSans-Oblique-4e"/>
      <path d="M 47.015625 60.890625 
L 29.5 51.421875 
L 47.015625 41.890625 
L 44.1875 37.109375 
L 27.78125 47.015625 
L 27.78125 28.609375 
L 22.21875 28.609375 
L 22.21875 47.015625 
L 5.8125 37.109375 
L 2.984375 41.890625 
L 20.515625 51.421875 
L 2.984375 60.890625 
L 5.8125 65.71875 
L 22.21875 55.8125 
L 22.21875 74.21875 
L 27.78125 74.21875 
L 27.78125 55.8125 
L 44.1875 65.71875 
z
" id="DejaVuSans-2a"/>
     </defs>
     <g transform="translate(26.38375 103.33)rotate(-90)scale(0.14 -0.14)">
      <use transform="translate(0 0.765625)" xlink:href="#DejaVuSans-Oblique-73"/>
      <use transform="translate(52.099609 0.765625)" xlink:href="#DejaVuSans-Oblique-4e"/>
      <use transform="translate(147.558763 39.046875)scale(0.7)" xlink:href="#DejaVuSans-2a"/>
     </g>
    </g>
   </g>
   <g id="LineCollection_1">
    <path clip-path="url(#peceea2ecb9)" d="M 124.136001 152 
L 123.949306 151.735135 
L 123.253166 150.722449 
L 122.870869 150.192686 
L 122.343921 149.444898 
L 121.792433 148.699238 
L 121.40779 148.167347 
L 120.713997 147.253065 
L 120.444097 146.889796 
L 119.63556 145.852508 
L 119.451945 145.612245 
L 118.557124 144.495966 
L 118.430195 144.334694 
L 117.478688 143.181899 
L 117.377436 143.057143 
L 116.400252 141.908826 
L 116.29195 141.779592 
L 115.321815 140.675318 
L 115.171662 140.502041 
L 114.243379 139.48 
L 114.014088 139.22449 
L 113.164943 138.321549 
L 112.816258 137.946939 
L 112.086506 137.198688 
L 111.574622 136.669388 
L 111.00807 136.110191 
L 110.284939 135.391837 
L 109.929634 135.054874 
L 108.94212 134.114286 
L 108.851197 134.031597 
L 107.772761 133.039262 
L 107.553915 132.836735 
L 106.694325 132.076812 
L 106.108566 131.559184 
L 105.615888 131.143227 
L 104.592291 130.281633 
L 104.537452 130.237527 
L 103.459016 129.358765 
L 103.022212 129.004082 
L 102.38058 128.506029 
L 101.367517 127.726531 
L 101.302143 127.67844 
L 100.223707 126.875153 
L 99.64625 126.44898 
L 99.145271 126.095351 
L 98.066834 125.338247 
L 97.830368 125.171429 
L 96.988398 124.603083 
L 95.917456 123.893878 
L 95.909962 123.889129 
L 94.831525 123.195679 
L 93.909776 122.616327 
L 93.753089 122.522054 
L 92.674653 121.867599 
L 91.784472 121.338776 
L 91.596217 121.231683 
L 90.51778 120.613696 
L 90.271184 120.473632 
" style="fill:none;stroke:#000000;stroke-dasharray:11.1,4.8;stroke-dashoffset:0;stroke-width:3;"/>
    <path clip-path="url(#peceea2ecb9)" d="M 75.466722 113.567986 
L 75.419672 113.550281 
L 74.341236 113.14113 
L 73.262799 112.742627 
L 72.303814 112.395918 
L 72.184363 112.35444 
L 71.105927 111.976248 
L 70.02749 111.607741 
L 68.949054 111.24862 
L 68.557671 111.118367 
L 67.870618 110.898597 
L 66.792182 110.557392 
L 65.713745 110.224736 
L 64.635309 109.900369 
L 64.438631 109.840816 
L 63.556873 109.584037 
L 62.478436 109.2755 
L 61.4 108.974521 
" style="fill:none;stroke:#000000;stroke-dasharray:11.1,4.8;stroke-dashoffset:0;stroke-width:3;"/>
   </g>
   <g id="LineCollection_2">
    <path clip-path="url(#peceea2ecb9)" d="M 152.609143 89.4 
L 151.98865 89.4 
L 150.910213 89.4 
L 149.831777 89.4 
L 148.753341 89.4 
L 147.674904 89.4 
L 146.596468 89.4 
L 145.518032 89.4 
L 144.439595 89.4 
L 143.361159 89.4 
L 142.282723 89.4 
L 141.204287 89.4 
L 140.12585 89.4 
L 139.047414 89.4 
L 137.968978 89.4 
L 136.890541 89.4 
L 135.812105 89.4 
L 134.733669 89.4 
L 133.655232 89.4 
L 132.576796 89.4 
L 131.49836 89.4 
L 130.419923 89.4 
L 129.341487 89.4 
L 128.263051 89.4 
L 127.184615 89.4 
L 126.106178 89.4 
L 125.027742 89.4 
L 123.949306 89.4 
L 122.870869 89.4 
L 121.792433 89.4 
L 120.713997 89.4 
L 119.63556 89.4 
L 118.557124 89.4 
L 117.478688 89.4 
L 116.400252 89.4 
L 115.321815 89.4 
L 114.243379 89.4 
L 113.164943 89.4 
L 112.086506 89.4 
L 111.00807 89.4 
L 109.929634 89.4 
L 108.851197 89.4 
L 107.772761 89.4 
L 106.694325 89.4 
L 105.615888 89.4 
L 104.537452 89.4 
L 103.459016 89.4 
L 102.38058 89.4 
L 101.302143 89.4 
L 100.223707 89.4 
L 99.145271 89.4 
L 98.066834 89.4 
L 96.988398 89.4 
L 95.909962 89.4 
L 94.831525 89.4 
L 93.753089 89.4 
L 92.674653 89.4 
L 91.596217 89.4 
L 90.51778 89.4 
L 89.439344 89.4 
L 88.360908 89.4 
L 87.282471 89.4 
L 86.204035 89.4 
L 85.125599 89.4 
L 84.047162 89.4 
L 82.968726 89.4 
L 81.89029 89.4 
L 80.811853 89.4 
L 79.733417 89.4 
L 78.654981 89.4 
L 77.576545 89.4 
L 76.498108 89.4 
L 75.419672 89.4 
L 74.341236 89.4 
L 73.262799 89.4 
L 72.184363 89.4 
L 71.105927 89.4 
L 70.02749 89.4 
L 68.949054 89.4 
L 67.870618 89.4 
L 66.792182 89.4 
L 65.713745 89.4 
L 64.635309 89.4 
L 63.556873 89.4 
L 62.478436 89.4 
L 61.4 89.4 
" style="fill:none;stroke:#000000;stroke-width:3;"/>
   </g>
   <g id="LineCollection_3">
    <path clip-path="url(#peceea2ecb9)" d="M 124.136001 26.8 
L 123.949306 27.064865 
L 123.253166 28.077551 
L 122.870869 28.607314 
L 122.343921 29.355102 
L 121.792433 30.100762 
L 121.40779 30.632653 
L 120.713997 31.546935 
L 120.444097 31.910204 
L 119.63556 32.947492 
L 119.451945 33.187755 
L 118.557124 34.304034 
L 118.430195 34.465306 
L 117.478688 35.618101 
L 117.377436 35.742857 
L 116.400252 36.891174 
L 116.29195 37.020408 
L 115.321815 38.124682 
L 115.171662 38.297959 
L 114.243379 39.32 
L 114.014088 39.57551 
L 113.164943 40.478451 
L 112.816258 40.853061 
L 112.086506 41.601312 
L 111.574622 42.130612 
L 111.00807 42.689809 
L 110.284939 43.408163 
L 109.929634 43.745126 
L 108.94212 44.685714 
L 108.851197 44.768403 
L 107.772761 45.760738 
L 107.553915 45.963265 
L 106.694325 46.723188 
L 106.108566 47.240816 
L 105.615888 47.656773 
L 104.592291 48.518367 
L 104.537452 48.562473 
L 103.459016 49.441235 
L 103.022212 49.795918 
L 102.38058 50.293971 
L 101.367517 51.073469 
L 101.302143 51.12156 
L 100.223707 51.924847 
L 99.64625 52.35102 
L 99.145271 52.704649 
L 98.066834 53.461753 
L 97.830368 53.628571 
L 96.988398 54.196917 
L 95.917456 54.906122 
L 95.909962 54.910871 
L 94.831525 55.604321 
L 93.909776 56.183673 
L 93.753089 56.277946 
L 92.674653 56.932401 
L 91.784472 57.461224 
L 91.596217 57.568317 
L 90.51778 58.186304 
L 90.271184 58.326368 
" style="fill:none;stroke:#000000;stroke-width:3;"/>
    <path clip-path="url(#peceea2ecb9)" d="M 75.466722 65.232014 
L 75.419672 65.249719 
L 74.341236 65.65887 
L 73.262799 66.057373 
L 72.303814 66.404082 
L 72.184363 66.44556 
L 71.105927 66.823752 
L 70.02749 67.192259 
L 68.949054 67.55138 
L 68.557671 67.681633 
L 67.870618 67.901403 
L 66.792182 68.242608 
L 65.713745 68.575264 
L 64.635309 68.899631 
L 64.438631 68.959184 
L 63.556873 69.215963 
L 62.478436 69.5245 
L 61.4 69.825479 
" style="fill:none;stroke:#000000;stroke-width:3;"/>
   </g>
   <g id="patch_3">
    <path d="M 61.4 152 
L 61.4 26.8 
" style="fill:none;stroke:#000000;stroke-linecap:square;stroke-linejoin:miter;stroke-width:0.8;"/>
   </g>
   <g id="patch_4">
    <path d="M 167.086758 152 
L 167.086758 26.8 
" style="fill:none;stroke:#000000;stroke-linecap:square;stroke-linejoin:miter;stroke-width:0.8;"/>
   </g>
   <g id="patch_5">
    <path d="M 61.4 152 
L 167.086758 152 
" style="fill:none;stroke:#000000;stroke-linecap:square;stroke-linejoin:miter;stroke-width:0.8;"/>
   </g>
   <g id="patch_6">
    <path d="M 61.4 26.8 
L 167.086758 26.8 
" style="fill:none;stroke:#000000;stroke-linecap:square;stroke-linejoin:miter;stroke-width:0.8;"/>
   </g>
   <g id="text_11">
    <g clip-path="url(#peceea2ecb9)">
     <!-- -8 -->
     <defs>
      <path d="M 4.890625 31.390625 
L 31.203125 31.390625 
L 31.203125 23.390625 
L 4.890625 23.390625 
z
" id="DejaVuSans-2d"/>
      <path d="M 31.78125 34.625 
Q 24.75 34.625 20.71875 30.859375 
Q 16.703125 27.09375 16.703125 20.515625 
Q 16.703125 13.921875 20.71875 10.15625 
Q 24.75 6.390625 31.78125 6.390625 
Q 38.8125 6.390625 42.859375 10.171875 
Q 46.921875 13.96875 46.921875 20.515625 
Q 46.921875 27.09375 42.890625 30.859375 
Q 38.875 34.625 31.78125 34.625 
z
M 21.921875 38.8125 
Q 15.578125 40.375 12.03125 44.71875 
Q 8.5 49.078125 8.5 55.328125 
Q 8.5 64.0625 14.71875 69.140625 
Q 20.953125 74.21875 31.78125 74.21875 
Q 42.671875 74.21875 48.875 69.140625 
Q 55.078125 64.0625 55.078125 55.328125 
Q 55.078125 49.078125 51.53125 44.71875 
Q 48 40.375 41.703125 38.8125 
Q 48.828125 37.15625 52.796875 32.3125 
Q 56.78125 27.484375 56.78125 20.515625 
Q 56.78125 9.90625 50.3125 4.234375 
Q 43.84375 -1.421875 31.78125 -1.421875 
Q 19.734375 -1.421875 13.25 4.234375 
Q 6.78125 9.90625 6.78125 20.515625 
Q 6.78125 27.484375 10.78125 32.3125 
Q 14.796875 37.15625 21.921875 38.8125 
z
M 18.3125 54.390625 
Q 18.3125 48.734375 21.84375 45.5625 
Q 25.390625 42.390625 31.78125 42.390625 
Q 38.140625 42.390625 41.71875 45.5625 
Q 45.3125 48.734375 45.3125 54.390625 
Q 45.3125 60.0625 41.71875 63.234375 
Q 38.140625 66.40625 31.78125 66.40625 
Q 25.390625 66.40625 21.84375 63.234375 
Q 18.3125 60.0625 18.3125 54.390625 
z
" id="DejaVuSans-38"/>
     </defs>
     <g transform="translate(77.308297 117.395274)rotate(-337.608176)scale(0.1 -0.1)">
      <use xlink:href="#DejaVuSans-2d"/>
      <use x="36.083984" xlink:href="#DejaVuSans-38"/>
     </g>
    </g>
   </g>
   <g id="text_12">
    <g clip-path="url(#peceea2ecb9)">
     <!--  0 -->
     <defs>
      <path id="DejaVuSans-20"/>
     </defs>
     <g transform="translate(155.845827 92.159375)scale(0.1 -0.1)">
      <use xlink:href="#DejaVuSans-20"/>
      <use x="31.787109" xlink:href="#DejaVuSans-30"/>
     </g>
    </g>
   </g>
   <g id="text_13">
    <g clip-path="url(#peceea2ecb9)">
     <!--  8 -->
     <g transform="translate(79.609245 66.425523)rotate(-22.391824)scale(0.1 -0.1)">
      <use xlink:href="#DejaVuSans-20"/>
      <use x="31.787109" xlink:href="#DejaVuSans-38"/>
     </g>
    </g>
   </g>
   <g id="text_14">
    <!-- $r=1$ -->
    <defs>
     <path d="M 44.578125 46.390625 
Q 43.21875 47.125 41.453125 47.515625 
Q 39.703125 47.90625 37.703125 47.90625 
Q 30.515625 47.90625 25.140625 42.453125 
Q 19.78125 37.015625 18.015625 27.875 
L 12.5 0 
L 3.515625 0 
L 14.203125 54.6875 
L 23.1875 54.6875 
L 21.484375 46.1875 
Q 25.046875 50.921875 30 53.453125 
Q 34.96875 56 40.578125 56 
Q 42.046875 56 43.453125 55.828125 
Q 44.875 55.671875 46.296875 55.28125 
z
" id="DejaVuSans-Oblique-72"/>
     <path d="M 10.59375 45.40625 
L 73.1875 45.40625 
L 73.1875 37.203125 
L 10.59375 37.203125 
z
M 10.59375 25.484375 
L 73.1875 25.484375 
L 73.1875 17.1875 
L 10.59375 17.1875 
z
" id="DejaVuSans-3d"/>
    </defs>
    <g transform="translate(100.563379 20.8)scale(0.12 -0.12)">
     <use transform="translate(0 0.09375)" xlink:href="#DejaVuSans-Oblique-72"/>
     <use transform="translate(60.595703 0.09375)" xlink:href="#DejaVuSans-3d"/>
     <use transform="translate(163.867188 0.09375)" xlink:href="#DejaVuSans-31"/>
    </g>
   </g>
  </g>
 </g>
 <defs>
  <clipPath id="peceea2ecb9">
   <rect height="125.2" width="105.686758" x="61.4" y="26.8"/>
  </clipPath>
 </defs>
</svg>
