<?xml version="1.0" encoding="utf-8" standalone="no"?>
<!DOCTYPE svg PUBLIC "-//W3C//DTD SVG 1.1//EN"
  "http://www.w3.org/Graphics/SVG/1.1/DTD/svg11.dtd">
<!-- Created with matplotlib (http://matplotlib.org/) -->
<svg height="201.6pt" version="1.1" viewBox="0 0 187.2 201.6" width="187.2pt" xmlns="http://www.w3.org/2000/svg" xmlns:xlink="http://www.w3.org/1999/xlink">
 <defs>
  <style type="text/css">
*{stroke-linecap:butt;stroke-linejoin:round;}
  </style>
 </defs>
 <g id="figure_1">
  <g id="patch_1">
   <path d="M 0 201.6 
L 187.2 201.6 
L 187.2 0 
L 0 0 
z
" style="fill:#ffffff;"/>
  </g>
  <g id="axes_1">
   <g id="patch_2">
    <path d="M 61.4 152 
L 167.086758 152 
L 167.086758 26.8 
L 61.4 26.8 
z
" style="fill:#ffffff;"/>
   </g>
   <g id="PathCollection_1">
    <path clip-path="url(#p1545e6fc70)" d="M 153.067086 152 
L 154.145522 152 
L 155.223958 152 
L 156.302395 152 
L 157.380831 152 
L 158.459267 152 
L 159.537704 152 
L 160.61614 152 
L 161.694576 152 
L 162.773013 152 
L 163.851449 152 
L 164.929885 152 
L 166.008322 152 
L 167.086758 152 
L 167.086758 150.722449 
L 167.086758 149.444898 
L 167.086758 148.167347 
L 167.086758 146.889796 
L 167.086758 145.612245 
L 167.086758 144.334694 
L 167.086758 144.038301 
L 166.549795 144.334694 
L 166.008322 144.626635 
L 164.929885 145.214969 
L 164.207252 145.612245 
L 163.851449 145.803303 
L 162.773013 146.391637 
L 161.863195 146.889796 
L 161.694576 146.979971 
L 160.61614 147.568305 
L 159.537704 148.156639 
L 159.518522 148.167347 
L 158.459267 148.744973 
L 157.380831 149.333307 
L 157.180138 149.444898 
L 156.302395 149.921641 
L 155.223958 150.509975 
L 154.840307 150.722449 
L 154.145522 151.098309 
L 153.067086 151.686643 
L 152.499006 152 
z
" style="fill:#eff6fc;"/>
   </g>
   <g id="PathCollection_2">
    <path clip-path="url(#p1545e6fc70)" d="M 122.870869 152 
L 123.949306 152 
L 125.027742 152 
L 126.106178 152 
L 127.184615 152 
L 128.263051 152 
L 129.341487 152 
L 130.419923 152 
L 131.49836 152 
L 132.576796 152 
L 133.655232 152 
L 134.733669 152 
L 135.812105 152 
L 136.890541 152 
L 137.968978 152 
L 139.047414 152 
L 140.12585 152 
L 141.204287 152 
L 142.282723 152 
L 143.361159 152 
L 144.439595 152 
L 145.518032 152 
L 146.596468 152 
L 147.674904 152 
L 148.753341 152 
L 149.831777 152 
L 150.910213 152 
L 151.98865 152 
L 152.499006 152 
L 153.067086 151.686643 
L 154.145522 151.098309 
L 154.840307 150.722449 
L 155.223958 150.509975 
L 156.302395 149.921641 
L 157.180138 149.444898 
L 157.380831 149.333307 
L 158.459267 148.744973 
L 159.518522 148.167347 
L 159.537704 148.156639 
L 160.61614 147.568305 
L 161.694576 146.979971 
L 161.863195 146.889796 
L 162.773013 146.391637 
L 163.851449 145.803303 
L 164.207252 145.612245 
L 164.929885 145.214969 
L 166.008322 144.626635 
L 166.549795 144.334694 
L 167.086758 144.038301 
L 167.086758 143.057143 
L 167.086758 141.779592 
L 167.086758 140.502041 
L 167.086758 139.22449 
L 167.086758 137.946939 
L 167.086758 136.669388 
L 167.086758 135.391837 
L 167.086758 134.114286 
L 167.086758 132.836735 
L 167.086758 131.559184 
L 167.086758 130.281633 
L 167.086758 129.004082 
L 167.086758 127.726531 
L 167.086758 127.344968 
L 166.393142 127.726531 
L 166.008322 127.933302 
L 164.929885 128.521636 
L 164.049323 129.004082 
L 163.851449 129.10997 
L 162.773013 129.698304 
L 161.703968 130.281633 
L 161.694576 130.286638 
L 160.61614 130.874972 
L 159.537704 131.463306 
L 159.365376 131.559184 
L 158.459267 132.05164 
L 157.380831 132.639974 
L 157.025772 132.836735 
L 156.302395 133.228308 
L 155.223958 133.816642 
L 154.684701 134.114286 
L 154.145522 134.404976 
L 153.067086 134.99331 
L 152.34214 135.391837 
L 151.98865 135.581644 
L 150.910213 136.169978 
L 149.998064 136.669388 
L 149.831777 136.758312 
L 148.753341 137.346646 
L 147.674904 137.93498 
L 147.65348 137.946939 
L 146.596468 138.523314 
L 145.518032 139.111648 
L 145.315078 139.22449 
L 144.439595 139.699982 
L 143.361159 140.288316 
L 142.975229 140.502041 
L 142.282723 140.87665 
L 141.204287 141.464984 
L 140.633909 141.779592 
L 140.12585 142.053318 
L 139.047414 142.641652 
L 138.291095 143.057143 
L 137.968978 143.229986 
L 136.890541 143.81832 
L 135.946762 144.334694 
L 135.812105 144.406654 
L 134.733669 144.994988 
L 133.655232 145.583322 
L 133.603383 145.612245 
L 132.576796 146.171656 
L 131.49836 146.75999 
L 131.264739 146.889796 
L 130.419923 147.348324 
L 129.341487 147.936658 
L 128.924644 148.167347 
L 128.263051 148.524992 
L 127.184615 149.113325 
L 126.583075 149.444898 
L 126.106178 149.701659 
L 125.027742 150.289993 
L 124.240007 150.722449 
L 123.949306 150.878327 
L 122.870869 151.466661 
L 121.895416 152 
z
" style="fill:#deebf7;"/>
   </g>
   <g id="PathCollection_3">
    <path clip-path="url(#p1545e6fc70)" d="M 91.596217 152 
L 92.674653 152 
L 93.753089 152 
L 94.831525 152 
L 95.909962 152 
L 96.988398 152 
L 98.066834 152 
L 99.145271 152 
L 100.223707 152 
L 101.302143 152 
L 102.38058 152 
L 103.459016 152 
L 104.537452 152 
L 105.615888 152 
L 106.694325 152 
L 107.772761 152 
L 108.851197 152 
L 109.929634 152 
L 111.00807 152 
L 112.086506 152 
L 113.164943 152 
L 114.243379 152 
L 115.321815 152 
L 116.400252 152 
L 117.478688 152 
L 118.557124 152 
L 119.63556 152 
L 120.713997 152 
L 121.792433 152 
L 121.895416 152 
L 122.870869 151.466661 
L 123.949306 150.878327 
L 124.240007 150.722449 
L 125.027742 150.289993 
L 126.106178 149.701659 
L 126.583075 149.444898 
L 127.184615 149.113325 
L 128.263051 148.524992 
L 128.924644 148.167347 
L 129.341487 147.936658 
L 130.419923 147.348324 
L 131.264739 146.889796 
L 131.49836 146.75999 
L 132.576796 146.171656 
L 133.603383 145.612245 
L 133.655232 145.583322 
L 134.733669 144.994988 
L 135.812105 144.406654 
L 135.946762 144.334694 
L 136.890541 143.81832 
L 137.968978 143.229986 
L 138.291095 143.057143 
L 139.047414 142.641652 
L 140.12585 142.053318 
L 140.633909 141.779592 
L 141.204287 141.464984 
L 142.282723 140.87665 
L 142.975229 140.502041 
L 143.361159 140.288316 
L 144.439595 139.699982 
L 145.315078 139.22449 
L 145.518032 139.111648 
L 146.596468 138.523314 
L 147.65348 137.946939 
L 147.674904 137.93498 
L 148.753341 137.346646 
L 149.831777 136.758312 
L 149.998064 136.669388 
L 150.910213 136.169978 
L 151.98865 135.581644 
L 152.34214 135.391837 
L 153.067086 134.99331 
L 154.145522 134.404976 
L 154.684701 134.114286 
L 155.223958 133.816642 
L 156.302395 133.228308 
L 157.025772 132.836735 
L 157.380831 132.639974 
L 158.459267 132.05164 
L 159.365376 131.559184 
L 159.537704 131.463306 
L 160.61614 130.874972 
L 161.694576 130.286638 
L 161.703968 130.281633 
L 162.773013 129.698304 
L 163.851449 129.10997 
L 164.049323 129.004082 
L 164.929885 128.521636 
L 166.008322 127.933302 
L 166.393142 127.726531 
L 167.086758 127.344968 
L 167.086758 126.44898 
L 167.086758 125.171429 
L 167.086758 123.893878 
L 167.086758 122.616327 
L 167.086758 121.338776 
L 167.086758 120.061224 
L 167.086758 118.783673 
L 167.086758 117.506122 
L 167.086758 116.228571 
L 167.086758 114.95102 
L 167.086758 113.673469 
L 167.086758 112.395918 
L 167.086758 111.118367 
L 167.086758 110.651635 
L 166.235414 111.118367 
L 166.008322 111.239969 
L 164.929885 111.828303 
L 163.8903 112.395918 
L 163.851449 112.416637 
L 162.773013 113.004971 
L 161.694576 113.593305 
L 161.55058 113.673469 
L 160.61614 114.181639 
L 159.537704 114.769973 
L 159.211202 114.95102 
L 158.459267 115.358307 
L 157.380831 115.946641 
L 156.870361 116.228571 
L 156.302395 116.534975 
L 155.223958 117.123308 
L 154.528034 117.506122 
L 154.145522 117.711642 
L 153.067086 118.299976 
L 152.184195 118.783673 
L 151.98865 118.88831 
L 150.910213 119.476644 
L 149.838821 120.061224 
L 149.831777 120.064978 
L 148.753341 120.653312 
L 147.674904 121.241646 
L 147.500319 121.338776 
L 146.596468 121.82998 
L 145.518032 122.418314 
L 145.160697 122.616327 
L 144.439595 123.006648 
L 143.361159 123.594982 
L 142.819608 123.893878 
L 142.282723 124.183316 
L 141.204287 124.77165 
L 140.477028 125.171429 
L 140.12585 125.359984 
L 139.047414 125.948318 
L 138.132933 126.44898 
L 137.968978 126.536652 
L 136.890541 127.124986 
L 135.812105 127.71332 
L 135.788438 127.726531 
L 134.733669 128.301654 
L 133.655232 128.889988 
L 133.450018 129.004082 
L 132.576796 129.478322 
L 131.49836 130.066656 
L 131.110151 130.281633 
L 130.419923 130.65499 
L 129.341487 131.243324 
L 128.768813 131.559184 
L 128.263051 131.831658 
L 127.184615 132.419992 
L 126.42598 132.836735 
L 126.106178 133.008326 
L 125.027742 133.59666 
L 124.081628 134.114286 
L 123.949306 134.184994 
L 122.870869 134.773328 
L 121.792433 135.361662 
L 121.738338 135.391837 
L 120.713997 135.949996 
L 119.63556 136.53833 
L 119.399676 136.669388 
L 118.557124 137.126664 
L 117.478688 137.714998 
L 117.059563 137.946939 
L 116.400252 138.303332 
L 115.321815 138.891666 
L 114.717975 139.22449 
L 114.243379 139.48 
L 113.164943 140.068334 
L 112.374889 140.502041 
L 112.086506 140.656668 
L 111.00807 141.245002 
L 110.030279 141.779592 
L 109.929634 141.833336 
L 108.851197 142.42167 
L 107.772761 143.010004 
L 107.688197 143.057143 
L 106.694325 143.598338 
L 105.615888 144.186672 
L 105.349293 144.334694 
L 104.537452 144.775006 
L 103.459016 145.36334 
L 103.008934 145.612245 
L 102.38058 145.951674 
L 101.302143 146.540008 
L 100.667096 146.889796 
L 100.223707 147.128342 
L 99.145271 147.716676 
L 98.323755 148.167347 
L 98.066834 148.30501 
L 96.988398 148.893344 
L 95.978886 149.444898 
L 95.909962 149.481678 
L 94.831525 150.070012 
L 93.753089 150.658346 
L 93.638016 150.722449 
L 92.674653 151.24668 
L 91.596217 151.835014 
L 91.298869 152 
z
" style="fill:#cee0f2;"/>
   </g>
   <g id="PathCollection_4">
    <path clip-path="url(#p1545e6fc70)" d="M 62.478436 152 
L 63.556873 152 
L 64.635309 152 
L 65.713745 152 
L 66.792182 152 
L 67.870618 152 
L 68.949054 152 
L 70.02749 152 
L 71.105927 152 
L 72.184363 152 
L 73.262799 152 
L 74.341236 152 
L 75.419672 152 
L 76.498108 152 
L 77.576545 152 
L 78.654981 152 
L 79.733417 152 
L 80.811853 152 
L 81.89029 152 
L 82.968726 152 
L 84.047162 152 
L 85.125599 152 
L 86.204035 152 
L 87.282471 152 
L 88.360908 152 
L 89.439344 152 
L 90.51778 152 
L 91.298869 152 
L 91.596217 151.835014 
L 92.674653 151.24668 
L 93.638016 150.722449 
L 93.753089 150.658346 
L 94.831525 150.070012 
L 95.909962 149.481678 
L 95.978886 149.444898 
L 96.988398 148.893344 
L 98.066834 148.30501 
L 98.323755 148.167347 
L 99.145271 147.716676 
L 100.223707 147.128342 
L 100.667096 146.889796 
L 101.302143 146.540008 
L 102.38058 145.951674 
L 103.008934 145.612245 
L 103.459016 145.36334 
L 104.537452 144.775006 
L 105.349293 144.334694 
L 105.615888 144.186672 
L 106.694325 143.598338 
L 107.688197 143.057143 
L 107.772761 143.010004 
L 108.851197 142.42167 
L 109.929634 141.833336 
L 110.030279 141.779592 
L 111.00807 141.245002 
L 112.086506 140.656668 
L 112.374889 140.502041 
L 113.164943 140.068334 
L 114.243379 139.48 
L 114.717975 139.22449 
L 115.321815 138.891666 
L 116.400252 138.303332 
L 117.059563 137.946939 
L 117.478688 137.714998 
L 118.557124 137.126664 
L 119.399676 136.669388 
L 119.63556 136.53833 
L 120.713997 135.949996 
L 121.738338 135.391837 
L 121.792433 135.361662 
L 122.870869 134.773328 
L 123.949306 134.184994 
L 124.081628 134.114286 
L 125.027742 133.59666 
L 126.106178 133.008326 
L 126.42598 132.836735 
L 127.184615 132.419992 
L 128.263051 131.831658 
L 128.768813 131.559184 
L 129.341487 131.243324 
L 130.419923 130.65499 
L 131.110151 130.281633 
L 131.49836 130.066656 
L 132.576796 129.478322 
L 133.450018 129.004082 
L 133.655232 128.889988 
L 134.733669 128.301654 
L 135.788438 127.726531 
L 135.812105 127.71332 
L 136.890541 127.124986 
L 137.968978 126.536652 
L 138.132933 126.44898 
L 139.047414 125.948318 
L 140.12585 125.359984 
L 140.477028 125.171429 
L 141.204287 124.77165 
L 142.282723 124.183316 
L 142.819608 123.893878 
L 143.361159 123.594982 
L 144.439595 123.006648 
L 145.160697 122.616327 
L 145.518032 122.418314 
L 146.596468 121.82998 
L 147.500319 121.338776 
L 147.674904 121.241646 
L 148.753341 120.653312 
L 149.831777 120.064978 
L 149.838821 120.061224 
L 150.910213 119.476644 
L 151.98865 118.88831 
L 152.184195 118.783673 
L 153.067086 118.299976 
L 154.145522 117.711642 
L 154.528034 117.506122 
L 155.223958 117.123308 
L 156.302395 116.534975 
L 156.870361 116.228571 
L 157.380831 115.946641 
L 158.459267 115.358307 
L 159.211202 114.95102 
L 159.537704 114.769973 
L 160.61614 114.181639 
L 161.55058 113.673469 
L 161.694576 113.593305 
L 162.773013 113.004971 
L 163.851449 112.416637 
L 163.8903 112.395918 
L 164.929885 111.828303 
L 166.008322 111.239969 
L 166.235414 111.118367 
L 167.086758 110.651635 
L 167.086758 109.840816 
L 167.086758 108.563265 
L 167.086758 107.285714 
L 167.086758 106.008163 
L 167.086758 104.730612 
L 167.086758 103.453061 
L 167.086758 102.17551 
L 167.086758 100.897959 
L 167.086758 99.620408 
L 167.086758 98.342857 
L 167.086758 97.065306 
L 167.086758 95.787755 
L 167.086758 94.510204 
L 167.086758 93.958301 
L 166.076593 94.510204 
L 166.008322 94.546635 
L 164.929885 95.134969 
L 163.851449 95.723303 
L 163.735748 95.787755 
L 162.773013 96.311637 
L 161.694576 96.899971 
L 161.396596 97.065306 
L 160.61614 97.488305 
L 159.537704 98.076639 
L 159.055985 98.342857 
L 158.459267 98.664973 
L 157.380831 99.253307 
L 156.71389 99.620408 
L 156.302395 99.841641 
L 155.223958 100.429975 
L 154.370289 100.897959 
L 154.145522 101.018309 
L 153.067086 101.606643 
L 152.025156 102.17551 
L 151.98865 102.194977 
L 150.910213 102.783311 
L 149.831777 103.371645 
L 149.685526 103.453061 
L 148.753341 103.959979 
L 147.674904 104.548313 
L 147.34613 104.730612 
L 146.596468 105.136647 
L 145.518032 105.724981 
L 145.005271 106.008163 
L 144.439595 106.313315 
L 143.361159 106.901649 
L 142.662925 107.285714 
L 142.282723 107.489983 
L 141.204287 108.078317 
L 140.319067 108.563265 
L 140.12585 108.666651 
L 139.047414 109.254985 
L 137.973674 109.840816 
L 137.968978 109.843319 
L 136.890541 110.431653 
L 135.812105 111.019987 
L 135.635262 111.118367 
L 134.733669 111.608321 
L 133.655232 112.196655 
L 133.295622 112.395918 
L 132.576796 112.784989 
L 131.49836 113.373323 
L 130.954514 113.673469 
L 130.419923 113.961657 
L 129.341487 114.549991 
L 128.611916 114.95102 
L 128.263051 115.138325 
L 127.184615 115.726659 
L 126.267802 116.228571 
L 126.106178 116.314993 
L 125.027742 116.903327 
L 123.949306 117.491661 
L 123.923395 117.506122 
L 122.870869 118.079995 
L 121.792433 118.668329 
L 121.584958 118.783673 
L 120.713997 119.256663 
L 119.63556 119.844997 
L 119.245073 120.061224 
L 118.557124 120.433331 
L 117.478688 121.021665 
L 116.903716 121.338776 
L 116.400252 121.609999 
L 115.321815 122.198333 
L 114.560865 122.616327 
L 114.243379 122.786667 
L 113.164943 123.375001 
L 112.216494 123.893878 
L 112.086506 123.963335 
L 111.00807 124.551669 
L 109.929634 125.140003 
L 109.873292 125.171429 
L 108.851197 125.728337 
L 107.772761 126.316671 
L 107.534613 126.44898 
L 106.694325 126.905005 
L 105.615888 127.493339 
L 105.194482 127.726531 
L 104.537452 128.081673 
L 103.459016 128.670007 
L 102.852876 129.004082 
L 102.38058 129.258341 
L 101.302143 129.846675 
L 100.50977 130.281633 
L 100.223707 130.435008 
L 99.145271 131.023342 
L 98.165141 131.559184 
L 98.066834 131.611676 
L 96.988398 132.20001 
L 95.909962 132.788344 
L 95.823149 132.836735 
L 94.831525 133.376678 
L 93.753089 133.965012 
L 93.484227 134.114286 
L 92.674653 134.553346 
L 91.596217 135.14168 
L 91.143849 135.391837 
L 90.51778 135.730014 
L 89.439344 136.318348 
L 88.801993 136.669388 
L 88.360908 136.906682 
L 87.282471 137.495016 
L 86.458633 137.946939 
L 86.204035 138.08335 
L 85.125599 138.671684 
L 84.113745 139.22449 
L 84.047162 139.260018 
L 82.968726 139.848352 
L 81.89029 140.436686 
L 81.772964 140.502041 
L 80.811853 141.02502 
L 79.733417 141.613354 
L 79.433799 141.779592 
L 78.654981 142.201688 
L 77.576545 142.790022 
L 77.093175 143.057143 
L 76.498108 143.378356 
L 75.419672 143.96669 
L 74.751067 144.334694 
L 74.341236 144.555024 
L 73.262799 145.143358 
L 72.407452 145.612245 
L 72.184363 145.731692 
L 71.105927 146.320026 
L 70.062305 146.889796 
L 70.02749 146.90836 
L 68.949054 147.496694 
L 67.870618 148.085028 
L 67.72274 148.167347 
L 66.792182 148.673362 
L 65.713745 149.261696 
L 65.383331 149.444898 
L 64.635309 149.85003 
L 63.556873 150.438364 
L 63.042458 150.722449 
L 62.478436 151.026698 
L 61.4 151.615032 
L 61.4 152 
z
" style="fill:#b9d6ea;"/>
   </g>
   <g id="PathCollection_5">
    <path clip-path="url(#p1545e6fc70)" d="M 62.478436 151.026698 
L 63.042458 150.722449 
L 63.556873 150.438364 
L 64.635309 149.85003 
L 65.383331 149.444898 
L 65.713745 149.261696 
L 66.792182 148.673362 
L 67.72274 148.167347 
L 67.870618 148.085028 
L 68.949054 147.496694 
L 70.02749 146.90836 
L 70.062305 146.889796 
L 71.105927 146.320026 
L 72.184363 145.731692 
L 72.407452 145.612245 
L 73.262799 145.143358 
L 74.341236 144.555024 
L 74.751067 144.334694 
L 75.419672 143.96669 
L 76.498108 143.378356 
L 77.093175 143.057143 
L 77.576545 142.790022 
L 78.654981 142.201688 
L 79.433799 141.779592 
L 79.733417 141.613354 
L 80.811853 141.02502 
L 81.772964 140.502041 
L 81.89029 140.436686 
L 82.968726 139.848352 
L 84.047162 139.260018 
L 84.113745 139.22449 
L 85.125599 138.671684 
L 86.204035 138.08335 
L 86.458633 137.946939 
L 87.282471 137.495016 
L 88.360908 136.906682 
L 88.801993 136.669388 
L 89.439344 136.318348 
L 90.51778 135.730014 
L 91.143849 135.391837 
L 91.596217 135.14168 
L 92.674653 134.553346 
L 93.484227 134.114286 
L 93.753089 133.965012 
L 94.831525 133.376678 
L 95.823149 132.836735 
L 95.909962 132.788344 
L 96.988398 132.20001 
L 98.066834 131.611676 
L 98.165141 131.559184 
L 99.145271 131.023342 
L 100.223707 130.435008 
L 100.50977 130.281633 
L 101.302143 129.846675 
L 102.38058 129.258341 
L 102.852876 129.004082 
L 103.459016 128.670007 
L 104.537452 128.081673 
L 105.194482 127.726531 
L 105.615888 127.493339 
L 106.694325 126.905005 
L 107.534613 126.44898 
L 107.772761 126.316671 
L 108.851197 125.728337 
L 109.873292 125.171429 
L 109.929634 125.140003 
L 111.00807 124.551669 
L 112.086506 123.963335 
L 112.216494 123.893878 
L 113.164943 123.375001 
L 114.243379 122.786667 
L 114.560865 122.616327 
L 115.321815 122.198333 
L 116.400252 121.609999 
L 116.903716 121.338776 
L 117.478688 121.021665 
L 118.557124 120.433331 
L 119.245073 120.061224 
L 119.63556 119.844997 
L 120.713997 119.256663 
L 121.584958 118.783673 
L 121.792433 118.668329 
L 122.870869 118.079995 
L 123.923395 117.506122 
L 123.949306 117.491661 
L 125.027742 116.903327 
L 126.106178 116.314993 
L 126.267802 116.228571 
L 127.184615 115.726659 
L 128.263051 115.138325 
L 128.611916 114.95102 
L 129.341487 114.549991 
L 130.419923 113.961657 
L 130.954514 113.673469 
L 131.49836 113.373323 
L 132.576796 112.784989 
L 133.295622 112.395918 
L 133.655232 112.196655 
L 134.733669 111.608321 
L 135.635262 111.118367 
L 135.812105 111.019987 
L 136.890541 110.431653 
L 137.968978 109.843319 
L 137.973674 109.840816 
L 139.047414 109.254985 
L 140.12585 108.666651 
L 140.319067 108.563265 
L 141.204287 108.078317 
L 142.282723 107.489983 
L 142.662925 107.285714 
L 143.361159 106.901649 
L 144.439595 106.313315 
L 145.005271 106.008163 
L 145.518032 105.724981 
L 146.596468 105.136647 
L 147.34613 104.730612 
L 147.674904 104.548313 
L 148.753341 103.959979 
L 149.685526 103.453061 
L 149.831777 103.371645 
L 150.910213 102.783311 
L 151.98865 102.194977 
L 152.025156 102.17551 
L 153.067086 101.606643 
L 154.145522 101.018309 
L 154.370289 100.897959 
L 155.223958 100.429975 
L 156.302395 99.841641 
L 156.71389 99.620408 
L 157.380831 99.253307 
L 158.459267 98.664973 
L 159.055985 98.342857 
L 159.537704 98.076639 
L 160.61614 97.488305 
L 161.396596 97.065306 
L 161.694576 96.899971 
L 162.773013 96.311637 
L 163.735748 95.787755 
L 163.851449 95.723303 
L 164.929885 95.134969 
L 166.008322 94.546635 
L 166.076593 94.510204 
L 167.086758 93.958301 
L 167.086758 93.232653 
L 167.086758 91.955102 
L 167.086758 90.677551 
L 167.086758 89.4 
L 167.086758 88.122449 
L 167.086758 86.844898 
L 167.086758 85.567347 
L 167.086758 84.289796 
L 167.086758 83.012245 
L 167.086758 81.734694 
L 167.086758 80.457143 
L 167.086758 79.179592 
L 167.086758 77.902041 
L 167.086758 77.264968 
L 166.008322 77.853302 
L 165.920882 77.902041 
L 164.929885 78.441636 
L 163.851449 79.02997 
L 163.581955 79.179592 
L 162.773013 79.618304 
L 161.694576 80.206638 
L 161.241572 80.457143 
L 160.61614 80.794972 
L 159.537704 81.383306 
L 158.899711 81.734694 
L 158.459267 81.97164 
L 157.380831 82.559974 
L 156.556345 83.012245 
L 156.302395 83.148308 
L 155.223958 83.736642 
L 154.211452 84.289796 
L 154.145522 84.324976 
L 153.067086 84.91331 
L 151.98865 85.501644 
L 151.870697 85.567347 
L 150.910213 86.089978 
L 149.831777 86.678312 
L 149.531527 86.844898 
L 148.753341 87.266646 
L 147.674904 87.85498 
L 147.190897 88.122449 
L 146.596468 88.443314 
L 145.518032 89.031648 
L 144.848784 89.4 
L 144.439595 89.619982 
L 143.361159 90.208316 
L 142.505164 90.677551 
L 142.282723 90.79665 
L 141.204287 91.384984 
L 140.160012 91.955102 
L 140.12585 91.973318 
L 139.047414 92.561652 
L 137.968978 93.149986 
L 137.820471 93.232653 
L 136.890541 93.73832 
L 135.812105 94.326654 
L 135.481057 94.510204 
L 134.733669 94.914988 
L 133.655232 95.503322 
L 133.14018 95.787755 
L 132.576796 96.091656 
L 131.49836 96.67999 
L 130.797815 97.065306 
L 130.419923 97.268324 
L 129.341487 97.856658 
L 128.453939 98.342857 
L 128.263051 98.444992 
L 127.184615 99.033325 
L 126.108527 99.620408 
L 126.106178 99.621659 
L 125.027742 100.209993 
L 123.949306 100.798327 
L 123.770205 100.897959 
L 122.870869 101.386661 
L 121.792433 101.974995 
L 121.430546 102.17551 
L 120.713997 102.563329 
L 119.63556 103.151663 
L 119.089421 103.453061 
L 118.557124 103.739997 
L 117.478688 104.328331 
L 116.746803 104.730612 
L 116.400252 104.916665 
L 115.321815 105.504999 
L 114.402671 106.008163 
L 114.243379 106.093333 
L 113.164943 106.681667 
L 112.086506 107.270001 
L 112.058353 107.285714 
L 111.00807 107.858335 
L 109.929634 108.446669 
L 109.719898 108.563265 
L 108.851197 109.035003 
L 107.772761 109.623337 
L 107.379994 109.840816 
L 106.694325 110.211671 
L 105.615888 110.800005 
L 105.038619 111.118367 
L 104.537452 111.388339 
L 103.459016 111.976673 
L 102.695749 112.395918 
L 102.38058 112.565007 
L 101.302143 113.153341 
L 100.351359 113.673469 
L 100.223707 113.741675 
L 99.145271 114.330009 
L 98.066834 114.918343 
L 98.008247 114.95102 
L 96.988398 115.506677 
L 95.909962 116.095011 
L 95.669549 116.228571 
L 94.831525 116.683345 
L 93.753089 117.271679 
L 93.3294 117.506122 
L 92.674653 117.860013 
L 91.596217 118.448347 
L 90.987775 118.783673 
L 90.51778 119.036681 
L 89.439344 119.625015 
L 88.644651 120.061224 
L 88.360908 120.213349 
L 87.282471 120.801683 
L 86.300003 121.338776 
L 86.204035 121.390017 
L 85.125599 121.978351 
L 84.047162 122.566685 
L 83.9581 122.616327 
L 82.968726 123.155019 
L 81.89029 123.743353 
L 81.61916 123.893878 
L 80.811853 124.331687 
L 79.733417 124.920021 
L 79.278765 125.171429 
L 78.654981 125.508355 
L 77.576545 126.096689 
L 76.936889 126.44898 
L 76.498108 126.685023 
L 75.419672 127.273357 
L 74.593511 127.726531 
L 74.341236 127.861691 
L 73.262799 128.450025 
L 72.248604 129.004082 
L 72.184363 129.038359 
L 71.105927 129.626693 
L 70.02749 130.215027 
L 69.907913 130.281633 
L 68.949054 130.803361 
L 67.870618 131.391695 
L 67.56873 131.559184 
L 66.792182 131.980029 
L 65.713745 132.568363 
L 65.228087 132.836735 
L 64.635309 133.156697 
L 63.556873 133.745031 
L 62.885961 134.114286 
L 62.478436 134.333365 
L 61.4 134.921699 
L 61.4 135.391837 
L 61.4 136.669388 
L 61.4 137.946939 
L 61.4 139.22449 
L 61.4 140.502041 
L 61.4 141.779592 
L 61.4 143.057143 
L 61.4 144.334694 
L 61.4 145.612245 
L 61.4 146.889796 
L 61.4 148.167347 
L 61.4 149.444898 
L 61.4 150.722449 
L 61.4 151.615032 
z
" style="fill:#9dcae1;"/>
   </g>
   <g id="PathCollection_6">
    <path clip-path="url(#p1545e6fc70)" d="M 62.478436 134.333365 
L 62.885961 134.114286 
L 63.556873 133.745031 
L 64.635309 133.156697 
L 65.228087 132.836735 
L 65.713745 132.568363 
L 66.792182 131.980029 
L 67.56873 131.559184 
L 67.870618 131.391695 
L 68.949054 130.803361 
L 69.907913 130.281633 
L 70.02749 130.215027 
L 71.105927 129.626693 
L 72.184363 129.038359 
L 72.248604 129.004082 
L 73.262799 128.450025 
L 74.341236 127.861691 
L 74.593511 127.726531 
L 75.419672 127.273357 
L 76.498108 126.685023 
L 76.936889 126.44898 
L 77.576545 126.096689 
L 78.654981 125.508355 
L 79.278765 125.171429 
L 79.733417 124.920021 
L 80.811853 124.331687 
L 81.61916 123.893878 
L 81.89029 123.743353 
L 82.968726 123.155019 
L 83.9581 122.616327 
L 84.047162 122.566685 
L 85.125599 121.978351 
L 86.204035 121.390017 
L 86.300003 121.338776 
L 87.282471 120.801683 
L 88.360908 120.213349 
L 88.644651 120.061224 
L 89.439344 119.625015 
L 90.51778 119.036681 
L 90.987775 118.783673 
L 91.596217 118.448347 
L 92.674653 117.860013 
L 93.3294 117.506122 
L 93.753089 117.271679 
L 94.831525 116.683345 
L 95.669549 116.228571 
L 95.909962 116.095011 
L 96.988398 115.506677 
L 98.008247 114.95102 
L 98.066834 114.918343 
L 99.145271 114.330009 
L 100.223707 113.741675 
L 100.351359 113.673469 
L 101.302143 113.153341 
L 102.38058 112.565007 
L 102.695749 112.395918 
L 103.459016 111.976673 
L 104.537452 111.388339 
L 105.038619 111.118367 
L 105.615888 110.800005 
L 106.694325 110.211671 
L 107.379994 109.840816 
L 107.772761 109.623337 
L 108.851197 109.035003 
L 109.719898 108.563265 
L 109.929634 108.446669 
L 111.00807 107.858335 
L 112.058353 107.285714 
L 112.086506 107.270001 
L 113.164943 106.681667 
L 114.243379 106.093333 
L 114.402671 106.008163 
L 115.321815 105.504999 
L 116.400252 104.916665 
L 116.746803 104.730612 
L 117.478688 104.328331 
L 118.557124 103.739997 
L 119.089421 103.453061 
L 119.63556 103.151663 
L 120.713997 102.563329 
L 121.430546 102.17551 
L 121.792433 101.974995 
L 122.870869 101.386661 
L 123.770205 100.897959 
L 123.949306 100.798327 
L 125.027742 100.209993 
L 126.106178 99.621659 
L 126.108527 99.620408 
L 127.184615 99.033325 
L 128.263051 98.444992 
L 128.453939 98.342857 
L 129.341487 97.856658 
L 130.419923 97.268324 
L 130.797815 97.065306 
L 131.49836 96.67999 
L 132.576796 96.091656 
L 133.14018 95.787755 
L 133.655232 95.503322 
L 134.733669 94.914988 
L 135.481057 94.510204 
L 135.812105 94.326654 
L 136.890541 93.73832 
L 137.820471 93.232653 
L 137.968978 93.149986 
L 139.047414 92.561652 
L 140.12585 91.973318 
L 140.160012 91.955102 
L 141.204287 91.384984 
L 142.282723 90.79665 
L 142.505164 90.677551 
L 143.361159 90.208316 
L 144.439595 89.619982 
L 144.848784 89.4 
L 145.518032 89.031648 
L 146.596468 88.443314 
L 147.190897 88.122449 
L 147.674904 87.85498 
L 148.753341 87.266646 
L 149.531527 86.844898 
L 149.831777 86.678312 
L 150.910213 86.089978 
L 151.870697 85.567347 
L 151.98865 85.501644 
L 153.067086 84.91331 
L 154.145522 84.324976 
L 154.211452 84.289796 
L 155.223958 83.736642 
L 156.302395 83.148308 
L 156.556345 83.012245 
L 157.380831 82.559974 
L 158.459267 81.97164 
L 158.899711 81.734694 
L 159.537704 81.383306 
L 160.61614 80.794972 
L 161.241572 80.457143 
L 161.694576 80.206638 
L 162.773013 79.618304 
L 163.581955 79.179592 
L 163.851449 79.02997 
L 164.929885 78.441636 
L 165.920882 77.902041 
L 166.008322 77.853302 
L 167.086758 77.264968 
L 167.086758 76.62449 
L 167.086758 75.346939 
L 167.086758 74.069388 
L 167.086758 72.791837 
L 167.086758 71.514286 
L 167.086758 70.236735 
L 167.086758 68.959184 
L 167.086758 67.681633 
L 167.086758 66.404082 
L 167.086758 65.126531 
L 167.086758 63.84898 
L 167.086758 62.571429 
L 167.086758 61.293878 
L 167.086758 60.571635 
L 166.008322 61.159969 
L 165.767278 61.293878 
L 164.929885 61.748303 
L 163.851449 62.336637 
L 163.427124 62.571429 
L 162.773013 62.924971 
L 161.694576 63.513305 
L 161.085494 63.84898 
L 160.61614 64.101639 
L 159.537704 64.689973 
L 158.742365 65.126531 
L 158.459267 65.278307 
L 157.380831 65.866641 
L 156.397712 66.404082 
L 156.302395 66.454975 
L 155.223958 67.043308 
L 154.145522 67.631642 
L 154.055833 67.681633 
L 153.067086 68.219976 
L 151.98865 68.80831 
L 151.716888 68.959184 
L 150.910213 69.396644 
L 149.831777 69.984978 
L 149.376488 70.236735 
L 148.753341 70.573312 
L 147.674904 71.161646 
L 147.034607 71.514286 
L 146.596468 71.74998 
L 145.518032 72.338314 
L 144.691223 72.791837 
L 144.439595 72.926648 
L 143.361159 73.514982 
L 142.346311 74.069388 
L 142.282723 74.103316 
L 141.204287 74.69165 
L 140.12585 75.279984 
L 140.005645 75.346939 
L 139.047414 75.868318 
L 137.968978 76.456652 
L 137.666457 76.62449 
L 136.890541 77.044986 
L 135.812105 77.63332 
L 135.325809 77.902041 
L 134.733669 78.221654 
L 133.655232 78.809988 
L 132.983678 79.179592 
L 132.576796 79.398322 
L 131.49836 79.986656 
L 130.640039 80.457143 
L 130.419923 80.57499 
L 129.341487 81.163324 
L 128.294867 81.734694 
L 128.263051 81.751658 
L 127.184615 82.339992 
L 126.106178 82.928326 
L 125.955416 83.012245 
L 125.027742 83.51666 
L 123.949306 84.104994 
L 123.615985 84.289796 
L 122.870869 84.693328 
L 121.792433 85.281662 
L 121.275089 85.567347 
L 120.713997 85.869996 
L 119.63556 86.45833 
L 118.932706 86.844898 
L 118.557124 87.046664 
L 117.478688 87.634998 
L 116.588811 88.122449 
L 116.400252 88.223332 
L 115.321815 88.811666 
L 114.243379 89.4 
L 114.243379 89.4 
L 113.164943 89.988334 
L 112.086506 90.576668 
L 111.905147 90.677551 
L 111.00807 91.165002 
L 109.929634 91.753336 
L 109.565471 91.955102 
L 108.851197 92.34167 
L 107.772761 92.930004 
L 107.224327 93.232653 
L 106.694325 93.518338 
L 105.615888 94.106672 
L 104.881691 94.510204 
L 104.537452 94.695006 
L 103.459016 95.28334 
L 102.537539 95.787755 
L 102.38058 95.871674 
L 101.302143 96.460008 
L 100.223707 97.048342 
L 100.19331 97.065306 
L 99.145271 97.636676 
L 98.066834 98.22501 
L 97.854837 98.342857 
L 96.988398 98.813344 
L 95.909962 99.401678 
L 95.514915 99.620408 
L 94.831525 99.990012 
L 93.753089 100.578346 
L 93.173522 100.897959 
L 92.674653 101.16668 
L 91.596217 101.755014 
L 90.830633 102.17551 
L 90.51778 102.343348 
L 89.439344 102.931682 
L 88.486224 103.453061 
L 88.360908 103.520016 
L 87.282471 104.10835 
L 86.204035 104.696684 
L 86.143201 104.730612 
L 85.125599 105.285018 
L 84.047162 105.873352 
L 83.804486 106.008163 
L 82.968726 106.461686 
L 81.89029 107.05002 
L 81.464318 107.285714 
L 80.811853 107.638354 
L 79.733417 108.226688 
L 79.122675 108.563265 
L 78.654981 108.815022 
L 77.576545 109.403356 
L 76.779532 109.840816 
L 76.498108 109.99169 
L 75.419672 110.580024 
L 74.434865 111.118367 
L 74.341236 111.168358 
L 73.262799 111.756692 
L 72.184363 112.345025 
L 72.093051 112.395918 
L 71.105927 112.933359 
L 70.02749 113.521693 
L 69.754094 113.673469 
L 68.949054 114.110027 
L 67.870618 114.698361 
L 67.41368 114.95102 
L 66.792182 115.286695 
L 65.713745 115.875029 
L 65.071786 116.228571 
L 64.635309 116.463363 
L 63.556873 117.051697 
L 62.728389 117.506122 
L 62.478436 117.640031 
L 61.4 118.228365 
L 61.4 118.783673 
L 61.4 120.061224 
L 61.4 121.338776 
L 61.4 122.616327 
L 61.4 123.893878 
L 61.4 125.171429 
L 61.4 126.44898 
L 61.4 127.726531 
L 61.4 129.004082 
L 61.4 130.281633 
L 61.4 131.559184 
L 61.4 132.836735 
L 61.4 134.114286 
L 61.4 134.921699 
z
" style="fill:#7cb7da;"/>
   </g>
   <g id="PathCollection_7">
    <path clip-path="url(#p1545e6fc70)" d="M 62.478436 117.640031 
L 62.728389 117.506122 
L 63.556873 117.051697 
L 64.635309 116.463363 
L 65.071786 116.228571 
L 65.713745 115.875029 
L 66.792182 115.286695 
L 67.41368 114.95102 
L 67.870618 114.698361 
L 68.949054 114.110027 
L 69.754094 113.673469 
L 70.02749 113.521693 
L 71.105927 112.933359 
L 72.093051 112.395918 
L 72.184363 112.345025 
L 73.262799 111.756692 
L 74.341236 111.168358 
L 74.434865 111.118367 
L 75.419672 110.580024 
L 76.498108 109.99169 
L 76.779532 109.840816 
L 77.576545 109.403356 
L 78.654981 108.815022 
L 79.122675 108.563265 
L 79.733417 108.226688 
L 80.811853 107.638354 
L 81.464318 107.285714 
L 81.89029 107.05002 
L 82.968726 106.461686 
L 83.804486 106.008163 
L 84.047162 105.873352 
L 85.125599 105.285018 
L 86.143201 104.730612 
L 86.204035 104.696684 
L 87.282471 104.10835 
L 88.360908 103.520016 
L 88.486224 103.453061 
L 89.439344 102.931682 
L 90.51778 102.343348 
L 90.830633 102.17551 
L 91.596217 101.755014 
L 92.674653 101.16668 
L 93.173522 100.897959 
L 93.753089 100.578346 
L 94.831525 99.990012 
L 95.514915 99.620408 
L 95.909962 99.401678 
L 96.988398 98.813344 
L 97.854837 98.342857 
L 98.066834 98.22501 
L 99.145271 97.636676 
L 100.19331 97.065306 
L 100.223707 97.048342 
L 101.302143 96.460008 
L 102.38058 95.871674 
L 102.537539 95.787755 
L 103.459016 95.28334 
L 104.537452 94.695006 
L 104.881691 94.510204 
L 105.615888 94.106672 
L 106.694325 93.518338 
L 107.224327 93.232653 
L 107.772761 92.930004 
L 108.851197 92.34167 
L 109.565471 91.955102 
L 109.929634 91.753336 
L 111.00807 91.165002 
L 111.905147 90.677551 
L 112.086506 90.576668 
L 113.164943 89.988334 
L 114.243379 89.4 
L 114.243379 89.4 
L 115.321815 88.811666 
L 116.400252 88.223332 
L 116.588811 88.122449 
L 117.478688 87.634998 
L 118.557124 87.046664 
L 118.932706 86.844898 
L 119.63556 86.45833 
L 120.713997 85.869996 
L 121.275089 85.567347 
L 121.792433 85.281662 
L 122.870869 84.693328 
L 123.615985 84.289796 
L 123.949306 84.104994 
L 125.027742 83.51666 
L 125.955416 83.012245 
L 126.106178 82.928326 
L 127.184615 82.339992 
L 128.263051 81.751658 
L 128.294867 81.734694 
L 129.341487 81.163324 
L 130.419923 80.57499 
L 130.640039 80.457143 
L 131.49836 79.986656 
L 132.576796 79.398322 
L 132.983678 79.179592 
L 133.655232 78.809988 
L 134.733669 78.221654 
L 135.325809 77.902041 
L 135.812105 77.63332 
L 136.890541 77.044986 
L 137.666457 76.62449 
L 137.968978 76.456652 
L 139.047414 75.868318 
L 140.005645 75.346939 
L 140.12585 75.279984 
L 141.204287 74.69165 
L 142.282723 74.103316 
L 142.346311 74.069388 
L 143.361159 73.514982 
L 144.439595 72.926648 
L 144.691223 72.791837 
L 145.518032 72.338314 
L 146.596468 71.74998 
L 147.034607 71.514286 
L 147.674904 71.161646 
L 148.753341 70.573312 
L 149.376488 70.236735 
L 149.831777 69.984978 
L 150.910213 69.396644 
L 151.716888 68.959184 
L 151.98865 68.80831 
L 153.067086 68.219976 
L 154.055833 67.681633 
L 154.145522 67.631642 
L 155.223958 67.043308 
L 156.302395 66.454975 
L 156.397712 66.404082 
L 157.380831 65.866641 
L 158.459267 65.278307 
L 158.742365 65.126531 
L 159.537704 64.689973 
L 160.61614 64.101639 
L 161.085494 63.84898 
L 161.694576 63.513305 
L 162.773013 62.924971 
L 163.427124 62.571429 
L 163.851449 62.336637 
L 164.929885 61.748303 
L 165.767278 61.293878 
L 166.008322 61.159969 
L 167.086758 60.571635 
L 167.086758 60.016327 
L 167.086758 58.738776 
L 167.086758 57.461224 
L 167.086758 56.183673 
L 167.086758 54.906122 
L 167.086758 53.628571 
L 167.086758 52.35102 
L 167.086758 51.073469 
L 167.086758 49.795918 
L 167.086758 48.518367 
L 167.086758 47.240816 
L 167.086758 45.963265 
L 167.086758 44.685714 
L 167.086758 43.878301 
L 166.008322 44.466635 
L 165.61264 44.685714 
L 164.929885 45.054969 
L 163.851449 45.643303 
L 163.271242 45.963265 
L 162.773013 46.231637 
L 161.694576 46.819971 
L 160.928347 47.240816 
L 160.61614 47.408305 
L 159.537704 47.996639 
L 158.583933 48.518367 
L 158.459267 48.584973 
L 157.380831 49.173307 
L 156.302395 49.761641 
L 156.240935 49.795918 
L 155.223958 50.349975 
L 154.145522 50.938309 
L 153.902215 51.073469 
L 153.067086 51.526643 
L 151.98865 52.114977 
L 151.562042 52.35102 
L 150.910213 52.703311 
L 149.831777 53.291645 
L 149.220394 53.628571 
L 148.753341 53.879979 
L 147.674904 54.468313 
L 146.877246 54.906122 
L 146.596468 55.056647 
L 145.518032 55.644981 
L 144.532573 56.183673 
L 144.439595 56.233315 
L 143.361159 56.821649 
L 142.282723 57.409983 
L 142.190784 57.461224 
L 141.204287 57.998317 
L 140.12585 58.586651 
L 139.851822 58.738776 
L 139.047414 59.174985 
L 137.968978 59.763319 
L 137.511403 60.016327 
L 136.890541 60.351653 
L 135.812105 60.939987 
L 135.169504 61.293878 
L 134.733669 61.528321 
L 133.655232 62.116655 
L 132.826101 62.571429 
L 132.576796 62.704989 
L 131.49836 63.293323 
L 130.48117 63.84898 
L 130.419923 63.881657 
L 129.341487 64.469991 
L 128.263051 65.058325 
L 128.140593 65.126531 
L 127.184615 65.646659 
L 126.106178 66.234993 
L 125.801387 66.404082 
L 125.027742 66.823327 
L 123.949306 67.411661 
L 123.460721 67.681633 
L 122.870869 67.999995 
L 121.792433 68.588329 
L 121.118571 68.959184 
L 120.713997 69.176663 
L 119.63556 69.764997 
L 118.774913 70.236735 
L 118.557124 70.353331 
L 117.478688 70.941665 
L 116.429722 71.514286 
L 116.400252 71.529999 
L 115.321815 72.118333 
L 114.243379 72.706667 
L 114.090362 72.791837 
L 113.164943 73.295001 
L 112.086506 73.883335 
L 111.750912 74.069388 
L 111.00807 74.471669 
L 109.929634 75.060003 
L 109.409998 75.346939 
L 108.851197 75.648337 
L 107.772761 76.236671 
L 107.067596 76.62449 
L 106.694325 76.825005 
L 105.615888 77.413339 
L 104.723682 77.902041 
L 104.537452 78.001673 
L 103.459016 78.590007 
L 102.38058 79.178341 
L 102.378339 79.179592 
L 101.302143 79.766675 
L 100.223707 80.355008 
L 100.040089 80.457143 
L 99.145271 80.943342 
L 98.066834 81.531676 
L 97.700395 81.734694 
L 96.988398 82.12001 
L 95.909962 82.708344 
L 95.359232 83.012245 
L 94.831525 83.296678 
L 93.753089 83.885012 
L 93.016578 84.289796 
L 92.674653 84.473346 
L 91.596217 85.06168 
L 90.672407 85.567347 
L 90.51778 85.650014 
L 89.439344 86.238348 
L 88.360908 86.826682 
L 88.328267 86.844898 
L 87.282471 87.415016 
L 86.204035 88.00335 
L 85.989776 88.122449 
L 85.125599 88.591684 
L 84.047162 89.180018 
L 83.649836 89.4 
L 82.968726 89.768352 
L 81.89029 90.356686 
L 81.308425 90.677551 
L 80.811853 90.94502 
L 79.733417 91.533354 
L 78.965517 91.955102 
L 78.654981 92.121688 
L 77.576545 92.710022 
L 76.621089 93.232653 
L 76.498108 93.298356 
L 75.419672 93.88669 
L 74.341236 94.475024 
L 74.278155 94.510204 
L 73.262799 95.063358 
L 72.184363 95.651692 
L 71.939422 95.787755 
L 71.105927 96.240026 
L 70.02749 96.82836 
L 69.599236 97.065306 
L 68.949054 97.416694 
L 67.870618 98.005028 
L 67.257575 98.342857 
L 66.792182 98.593362 
L 65.713745 99.181696 
L 64.914413 99.620408 
L 64.635309 99.77003 
L 63.556873 100.358364 
L 62.569727 100.897959 
L 62.478436 100.946698 
L 61.4 101.535032 
L 61.4 102.17551 
L 61.4 103.453061 
L 61.4 104.730612 
L 61.4 106.008163 
L 61.4 107.285714 
L 61.4 108.563265 
L 61.4 109.840816 
L 61.4 111.118367 
L 61.4 112.395918 
L 61.4 113.673469 
L 61.4 114.95102 
L 61.4 116.228571 
L 61.4 117.506122 
L 61.4 118.228365 
z
" style="fill:#5da5d1;"/>
   </g>
   <g id="PathCollection_8">
    <path clip-path="url(#p1545e6fc70)" d="M 62.478436 100.946698 
L 62.569727 100.897959 
L 63.556873 100.358364 
L 64.635309 99.77003 
L 64.914413 99.620408 
L 65.713745 99.181696 
L 66.792182 98.593362 
L 67.257575 98.342857 
L 67.870618 98.005028 
L 68.949054 97.416694 
L 69.599236 97.065306 
L 70.02749 96.82836 
L 71.105927 96.240026 
L 71.939422 95.787755 
L 72.184363 95.651692 
L 73.262799 95.063358 
L 74.278155 94.510204 
L 74.341236 94.475024 
L 75.419672 93.88669 
L 76.498108 93.298356 
L 76.621089 93.232653 
L 77.576545 92.710022 
L 78.654981 92.121688 
L 78.965517 91.955102 
L 79.733417 91.533354 
L 80.811853 90.94502 
L 81.308425 90.677551 
L 81.89029 90.356686 
L 82.968726 89.768352 
L 83.649836 89.4 
L 84.047162 89.180018 
L 85.125599 88.591684 
L 85.989776 88.122449 
L 86.204035 88.00335 
L 87.282471 87.415016 
L 88.328267 86.844898 
L 88.360908 86.826682 
L 89.439344 86.238348 
L 90.51778 85.650014 
L 90.672407 85.567347 
L 91.596217 85.06168 
L 92.674653 84.473346 
L 93.016578 84.289796 
L 93.753089 83.885012 
L 94.831525 83.296678 
L 95.359232 83.012245 
L 95.909962 82.708344 
L 96.988398 82.12001 
L 97.700395 81.734694 
L 98.066834 81.531676 
L 99.145271 80.943342 
L 100.040089 80.457143 
L 100.223707 80.355008 
L 101.302143 79.766675 
L 102.378339 79.179592 
L 102.38058 79.178341 
L 103.459016 78.590007 
L 104.537452 78.001673 
L 104.723682 77.902041 
L 105.615888 77.413339 
L 106.694325 76.825005 
L 107.067596 76.62449 
L 107.772761 76.236671 
L 108.851197 75.648337 
L 109.409998 75.346939 
L 109.929634 75.060003 
L 111.00807 74.471669 
L 111.750912 74.069388 
L 112.086506 73.883335 
L 113.164943 73.295001 
L 114.090362 72.791837 
L 114.243379 72.706667 
L 115.321815 72.118333 
L 116.400252 71.529999 
L 116.429722 71.514286 
L 117.478688 70.941665 
L 118.557124 70.353331 
L 118.774913 70.236735 
L 119.63556 69.764997 
L 120.713997 69.176663 
L 121.118571 68.959184 
L 121.792433 68.588329 
L 122.870869 67.999995 
L 123.460721 67.681633 
L 123.949306 67.411661 
L 125.027742 66.823327 
L 125.801387 66.404082 
L 126.106178 66.234993 
L 127.184615 65.646659 
L 128.140593 65.126531 
L 128.263051 65.058325 
L 129.341487 64.469991 
L 130.419923 63.881657 
L 130.48117 63.84898 
L 131.49836 63.293323 
L 132.576796 62.704989 
L 132.826101 62.571429 
L 133.655232 62.116655 
L 134.733669 61.528321 
L 135.169504 61.293878 
L 135.812105 60.939987 
L 136.890541 60.351653 
L 137.511403 60.016327 
L 137.968978 59.763319 
L 139.047414 59.174985 
L 139.851822 58.738776 
L 140.12585 58.586651 
L 141.204287 57.998317 
L 142.190784 57.461224 
L 142.282723 57.409983 
L 143.361159 56.821649 
L 144.439595 56.233315 
L 144.532573 56.183673 
L 145.518032 55.644981 
L 146.596468 55.056647 
L 146.877246 54.906122 
L 147.674904 54.468313 
L 148.753341 53.879979 
L 149.220394 53.628571 
L 149.831777 53.291645 
L 150.910213 52.703311 
L 151.562042 52.35102 
L 151.98865 52.114977 
L 153.067086 51.526643 
L 153.902215 51.073469 
L 154.145522 50.938309 
L 155.223958 50.349975 
L 156.240935 49.795918 
L 156.302395 49.761641 
L 157.380831 49.173307 
L 158.459267 48.584973 
L 158.583933 48.518367 
L 159.537704 47.996639 
L 160.61614 47.408305 
L 160.928347 47.240816 
L 161.694576 46.819971 
L 162.773013 46.231637 
L 163.271242 45.963265 
L 163.851449 45.643303 
L 164.929885 45.054969 
L 165.61264 44.685714 
L 166.008322 44.466635 
L 167.086758 43.878301 
L 167.086758 43.408163 
L 167.086758 42.130612 
L 167.086758 40.853061 
L 167.086758 39.57551 
L 167.086758 38.297959 
L 167.086758 37.020408 
L 167.086758 35.742857 
L 167.086758 34.465306 
L 167.086758 33.187755 
L 167.086758 31.910204 
L 167.086758 30.632653 
L 167.086758 29.355102 
L 167.086758 28.077551 
L 167.086758 27.184968 
L 166.008322 27.773302 
L 165.456953 28.077551 
L 164.929885 28.361636 
L 163.851449 28.94997 
L 163.114293 29.355102 
L 162.773013 29.538304 
L 161.694576 30.126638 
L 160.770117 30.632653 
L 160.61614 30.714972 
L 159.537704 31.303306 
L 158.459267 31.89164 
L 158.426002 31.910204 
L 157.380831 32.479974 
L 156.302395 33.068308 
L 156.087506 33.187755 
L 155.223958 33.656642 
L 154.145522 34.244976 
L 153.747561 34.465306 
L 153.067086 34.83331 
L 151.98865 35.421644 
L 151.406144 35.742857 
L 150.910213 36.009978 
L 149.831777 36.598312 
L 149.063231 37.020408 
L 148.753341 37.186646 
L 147.674904 37.77498 
L 146.718798 38.297959 
L 146.596468 38.363314 
L 145.518032 38.951648 
L 144.439595 39.539982 
L 144.375889 39.57551 
L 143.361159 40.128316 
L 142.282723 40.71665 
L 142.037151 40.853061 
L 141.204287 41.304984 
L 140.12585 41.893318 
L 139.69696 42.130612 
L 139.047414 42.481652 
L 137.968978 43.069986 
L 137.355293 43.408163 
L 136.890541 43.65832 
L 135.812105 44.246654 
L 135.012126 44.685714 
L 134.733669 44.834988 
L 133.655232 45.423322 
L 132.667435 45.963265 
L 132.576796 46.011656 
L 131.49836 46.59999 
L 130.419923 47.188324 
L 130.325735 47.240816 
L 129.341487 47.776658 
L 128.263051 48.364992 
L 127.986755 48.518367 
L 127.184615 48.953325 
L 126.106178 49.541659 
L 125.646317 49.795918 
L 125.027742 50.129993 
L 123.949306 50.718327 
L 123.3044 51.073469 
L 122.870869 51.306661 
L 121.792433 51.894995 
L 120.960979 52.35102 
L 120.713997 52.483329 
L 119.63556 53.071663 
L 118.616028 53.628571 
L 118.557124 53.659997 
L 117.478688 54.248331 
L 116.400252 54.836665 
L 116.275541 54.906122 
L 115.321815 55.424999 
L 114.243379 56.013333 
L 113.936317 56.183673 
L 113.164943 56.601667 
L 112.086506 57.190001 
L 111.595633 57.461224 
L 111.00807 57.778335 
L 109.929634 58.366669 
L 109.253464 58.738776 
L 108.851197 58.955003 
L 107.772761 59.543337 
L 106.909787 60.016327 
L 106.694325 60.131671 
L 105.615888 60.720005 
L 104.564578 61.293878 
L 104.537452 61.308339 
L 103.459016 61.896673 
L 102.38058 62.485007 
L 102.225307 62.571429 
L 101.302143 63.073341 
L 100.223707 63.661675 
L 99.885839 63.84898 
L 99.145271 64.250009 
L 98.066834 64.838343 
L 97.544906 65.126531 
L 96.988398 65.426677 
L 95.909962 66.015011 
L 95.202486 66.404082 
L 94.831525 66.603345 
L 93.753089 67.191679 
L 92.858553 67.681633 
L 92.674653 67.780013 
L 91.596217 68.368347 
L 90.51778 68.956681 
L 90.513298 68.959184 
L 89.439344 69.545015 
L 88.360908 70.133349 
L 88.175031 70.236735 
L 87.282471 70.721683 
L 86.204035 71.310017 
L 85.835319 71.514286 
L 85.125599 71.898351 
L 84.047162 72.486685 
L 83.494138 72.791837 
L 82.968726 73.075019 
L 81.89029 73.663353 
L 81.151465 74.069388 
L 80.811853 74.251687 
L 79.733417 74.840021 
L 78.807275 75.346939 
L 78.654981 75.428355 
L 77.576545 76.016689 
L 76.498108 76.605023 
L 76.463224 76.62449 
L 75.419672 77.193357 
L 74.341236 77.781691 
L 74.124715 77.902041 
L 73.262799 78.370025 
L 72.184363 78.958359 
L 71.784757 79.179592 
L 71.105927 79.546693 
L 70.02749 80.135027 
L 69.443327 80.457143 
L 68.949054 80.723361 
L 67.870618 81.311695 
L 67.100401 81.734694 
L 66.792182 81.900029 
L 65.713745 82.488363 
L 64.755954 83.012245 
L 64.635309 83.076697 
L 63.556873 83.665031 
L 62.478436 84.253365 
L 62.413109 84.289796 
L 61.4 84.841699 
L 61.4 85.567347 
L 61.4 86.844898 
L 61.4 88.122449 
L 61.4 89.4 
L 61.4 90.677551 
L 61.4 91.955102 
L 61.4 93.232653 
L 61.4 94.510204 
L 61.4 95.787755 
L 61.4 97.065306 
L 61.4 98.342857 
L 61.4 99.620408 
L 61.4 100.897959 
L 61.4 101.535032 
z
" style="fill:#4191c6;"/>
   </g>
   <g id="PathCollection_9">
    <path clip-path="url(#p1545e6fc70)" d="M 62.413109 84.289796 
L 62.478436 84.253365 
L 63.556873 83.665031 
L 64.635309 83.076697 
L 64.755954 83.012245 
L 65.713745 82.488363 
L 66.792182 81.900029 
L 67.100401 81.734694 
L 67.870618 81.311695 
L 68.949054 80.723361 
L 69.443327 80.457143 
L 70.02749 80.135027 
L 71.105927 79.546693 
L 71.784757 79.179592 
L 72.184363 78.958359 
L 73.262799 78.370025 
L 74.124715 77.902041 
L 74.341236 77.781691 
L 75.419672 77.193357 
L 76.463224 76.62449 
L 76.498108 76.605023 
L 77.576545 76.016689 
L 78.654981 75.428355 
L 78.807275 75.346939 
L 79.733417 74.840021 
L 80.811853 74.251687 
L 81.151465 74.069388 
L 81.89029 73.663353 
L 82.968726 73.075019 
L 83.494138 72.791837 
L 84.047162 72.486685 
L 85.125599 71.898351 
L 85.835319 71.514286 
L 86.204035 71.310017 
L 87.282471 70.721683 
L 88.175031 70.236735 
L 88.360908 70.133349 
L 89.439344 69.545015 
L 90.513298 68.959184 
L 90.51778 68.956681 
L 91.596217 68.368347 
L 92.674653 67.780013 
L 92.858553 67.681633 
L 93.753089 67.191679 
L 94.831525 66.603345 
L 95.202486 66.404082 
L 95.909962 66.015011 
L 96.988398 65.426677 
L 97.544906 65.126531 
L 98.066834 64.838343 
L 99.145271 64.250009 
L 99.885839 63.84898 
L 100.223707 63.661675 
L 101.302143 63.073341 
L 102.225307 62.571429 
L 102.38058 62.485007 
L 103.459016 61.896673 
L 104.537452 61.308339 
L 104.564578 61.293878 
L 105.615888 60.720005 
L 106.694325 60.131671 
L 106.909787 60.016327 
L 107.772761 59.543337 
L 108.851197 58.955003 
L 109.253464 58.738776 
L 109.929634 58.366669 
L 111.00807 57.778335 
L 111.595633 57.461224 
L 112.086506 57.190001 
L 113.164943 56.601667 
L 113.936317 56.183673 
L 114.243379 56.013333 
L 115.321815 55.424999 
L 116.275541 54.906122 
L 116.400252 54.836665 
L 117.478688 54.248331 
L 118.557124 53.659997 
L 118.616028 53.628571 
L 119.63556 53.071663 
L 120.713997 52.483329 
L 120.960979 52.35102 
L 121.792433 51.894995 
L 122.870869 51.306661 
L 123.3044 51.073469 
L 123.949306 50.718327 
L 125.027742 50.129993 
L 125.646317 49.795918 
L 126.106178 49.541659 
L 127.184615 48.953325 
L 127.986755 48.518367 
L 128.263051 48.364992 
L 129.341487 47.776658 
L 130.325735 47.240816 
L 130.419923 47.188324 
L 131.49836 46.59999 
L 132.576796 46.011656 
L 132.667435 45.963265 
L 133.655232 45.423322 
L 134.733669 44.834988 
L 135.012126 44.685714 
L 135.812105 44.246654 
L 136.890541 43.65832 
L 137.355293 43.408163 
L 137.968978 43.069986 
L 139.047414 42.481652 
L 139.69696 42.130612 
L 140.12585 41.893318 
L 141.204287 41.304984 
L 142.037151 40.853061 
L 142.282723 40.71665 
L 143.361159 40.128316 
L 144.375889 39.57551 
L 144.439595 39.539982 
L 145.518032 38.951648 
L 146.596468 38.363314 
L 146.718798 38.297959 
L 147.674904 37.77498 
L 148.753341 37.186646 
L 149.063231 37.020408 
L 149.831777 36.598312 
L 150.910213 36.009978 
L 151.406144 35.742857 
L 151.98865 35.421644 
L 153.067086 34.83331 
L 153.747561 34.465306 
L 154.145522 34.244976 
L 155.223958 33.656642 
L 156.087506 33.187755 
L 156.302395 33.068308 
L 157.380831 32.479974 
L 158.426002 31.910204 
L 158.459267 31.89164 
L 159.537704 31.303306 
L 160.61614 30.714972 
L 160.770117 30.632653 
L 161.694576 30.126638 
L 162.773013 29.538304 
L 163.114293 29.355102 
L 163.851449 28.94997 
L 164.929885 28.361636 
L 165.456953 28.077551 
L 166.008322 27.773302 
L 167.086758 27.184968 
L 167.086758 26.8 
L 166.008322 26.8 
L 164.929885 26.8 
L 163.851449 26.8 
L 162.773013 26.8 
L 161.694576 26.8 
L 160.61614 26.8 
L 159.537704 26.8 
L 158.459267 26.8 
L 157.380831 26.8 
L 156.302395 26.8 
L 155.223958 26.8 
L 154.145522 26.8 
L 153.067086 26.8 
L 151.98865 26.8 
L 150.910213 26.8 
L 149.831777 26.8 
L 148.753341 26.8 
L 147.674904 26.8 
L 146.596468 26.8 
L 145.518032 26.8 
L 144.439595 26.8 
L 143.361159 26.8 
L 142.282723 26.8 
L 141.204287 26.8 
L 140.12585 26.8 
L 139.047414 26.8 
L 137.968978 26.8 
L 137.198115 26.8 
L 136.890541 26.964986 
L 135.812105 27.55332 
L 134.853662 28.077551 
L 134.733669 28.141654 
L 133.655232 28.729988 
L 132.576796 29.318322 
L 132.510842 29.355102 
L 131.49836 29.906656 
L 130.419923 30.49499 
L 130.172086 30.632653 
L 129.341487 31.083324 
L 128.263051 31.671658 
L 127.831878 31.910204 
L 127.184615 32.259992 
L 126.106178 32.848326 
L 125.490192 33.187755 
L 125.027742 33.43666 
L 123.949306 34.024994 
L 123.147007 34.465306 
L 122.870869 34.613328 
L 121.792433 35.201662 
L 120.802296 35.742857 
L 120.713997 35.789996 
L 119.63556 36.37833 
L 118.557124 36.966664 
L 118.460686 37.020408 
L 117.478688 37.554998 
L 116.400252 38.143332 
L 116.121687 38.297959 
L 115.321815 38.731666 
L 114.243379 39.32 
L 113.781232 39.57551 
L 113.164943 39.908334 
L 112.086506 40.496668 
L 111.439296 40.853061 
L 111.00807 41.085002 
L 109.929634 41.673336 
L 109.095856 42.130612 
L 108.851197 42.26167 
L 107.772761 42.850004 
L 106.750886 43.408163 
L 106.694325 43.438338 
L 105.615888 44.026672 
L 104.537452 44.615006 
L 104.410489 44.685714 
L 103.459016 45.20334 
L 102.38058 45.791674 
L 102.071247 45.963265 
L 101.302143 46.380008 
L 100.223707 46.968342 
L 99.730544 47.240816 
L 99.145271 47.556676 
L 98.066834 48.14501 
L 97.388357 48.518367 
L 96.988398 48.733344 
L 95.909962 49.321678 
L 95.044661 49.795918 
L 94.831525 49.910012 
L 93.753089 50.498346 
L 92.699432 51.073469 
L 92.674653 51.08668 
L 91.596217 51.675014 
L 90.51778 52.263348 
L 90.360251 52.35102 
L 89.439344 52.851682 
L 88.360908 53.440016 
L 88.020765 53.628571 
L 87.282471 54.02835 
L 86.204035 54.616684 
L 85.679815 54.906122 
L 85.125599 55.205018 
L 84.047162 55.793352 
L 83.337376 56.183673 
L 82.968726 56.381686 
L 81.89029 56.97002 
L 80.993424 57.461224 
L 80.811853 57.558354 
L 79.733417 58.146688 
L 78.654981 58.735022 
L 78.648258 58.738776 
L 77.576545 59.323356 
L 76.498108 59.91169 
L 76.309973 60.016327 
L 75.419672 60.500024 
L 74.341236 61.088358 
L 73.970242 61.293878 
L 73.262799 61.676692 
L 72.184363 62.265025 
L 71.629043 62.571429 
L 71.105927 62.853359 
L 70.02749 63.441693 
L 69.286351 63.84898 
L 68.949054 64.030027 
L 67.870618 64.618361 
L 66.942143 65.126531 
L 66.792182 65.206695 
L 65.713745 65.795029 
L 64.635309 66.383363 
L 64.59818 66.404082 
L 63.556873 66.971697 
L 62.478436 67.560031 
L 62.259654 67.681633 
L 61.4 68.148365 
L 61.4 68.959184 
L 61.4 70.236735 
L 61.4 71.514286 
L 61.4 72.791837 
L 61.4 74.069388 
L 61.4 75.346939 
L 61.4 76.62449 
L 61.4 77.902041 
L 61.4 79.179592 
L 61.4 80.457143 
L 61.4 81.734694 
L 61.4 83.012245 
L 61.4 84.289796 
L 61.4 84.841699 
z
" style="fill:#2c7cba;"/>
   </g>
   <g id="PathCollection_10">
    <path clip-path="url(#p1545e6fc70)" d="M 62.259654 67.681633 
L 62.478436 67.560031 
L 63.556873 66.971697 
L 64.59818 66.404082 
L 64.635309 66.383363 
L 65.713745 65.795029 
L 66.792182 65.206695 
L 66.942143 65.126531 
L 67.870618 64.618361 
L 68.949054 64.030027 
L 69.286351 63.84898 
L 70.02749 63.441693 
L 71.105927 62.853359 
L 71.629043 62.571429 
L 72.184363 62.265025 
L 73.262799 61.676692 
L 73.970242 61.293878 
L 74.341236 61.088358 
L 75.419672 60.500024 
L 76.309973 60.016327 
L 76.498108 59.91169 
L 77.576545 59.323356 
L 78.648258 58.738776 
L 78.654981 58.735022 
L 79.733417 58.146688 
L 80.811853 57.558354 
L 80.993424 57.461224 
L 81.89029 56.97002 
L 82.968726 56.381686 
L 83.337376 56.183673 
L 84.047162 55.793352 
L 85.125599 55.205018 
L 85.679815 54.906122 
L 86.204035 54.616684 
L 87.282471 54.02835 
L 88.020765 53.628571 
L 88.360908 53.440016 
L 89.439344 52.851682 
L 90.360251 52.35102 
L 90.51778 52.263348 
L 91.596217 51.675014 
L 92.674653 51.08668 
L 92.699432 51.073469 
L 93.753089 50.498346 
L 94.831525 49.910012 
L 95.044661 49.795918 
L 95.909962 49.321678 
L 96.988398 48.733344 
L 97.388357 48.518367 
L 98.066834 48.14501 
L 99.145271 47.556676 
L 99.730544 47.240816 
L 100.223707 46.968342 
L 101.302143 46.380008 
L 102.071247 45.963265 
L 102.38058 45.791674 
L 103.459016 45.20334 
L 104.410489 44.685714 
L 104.537452 44.615006 
L 105.615888 44.026672 
L 106.694325 43.438338 
L 106.750886 43.408163 
L 107.772761 42.850004 
L 108.851197 42.26167 
L 109.095856 42.130612 
L 109.929634 41.673336 
L 111.00807 41.085002 
L 111.439296 40.853061 
L 112.086506 40.496668 
L 113.164943 39.908334 
L 113.781232 39.57551 
L 114.243379 39.32 
L 115.321815 38.731666 
L 116.121687 38.297959 
L 116.400252 38.143332 
L 117.478688 37.554998 
L 118.460686 37.020408 
L 118.557124 36.966664 
L 119.63556 36.37833 
L 120.713997 35.789996 
L 120.802296 35.742857 
L 121.792433 35.201662 
L 122.870869 34.613328 
L 123.147007 34.465306 
L 123.949306 34.024994 
L 125.027742 33.43666 
L 125.490192 33.187755 
L 126.106178 32.848326 
L 127.184615 32.259992 
L 127.831878 31.910204 
L 128.263051 31.671658 
L 129.341487 31.083324 
L 130.172086 30.632653 
L 130.419923 30.49499 
L 131.49836 29.906656 
L 132.510842 29.355102 
L 132.576796 29.318322 
L 133.655232 28.729988 
L 134.733669 28.141654 
L 134.853662 28.077551 
L 135.812105 27.55332 
L 136.890541 26.964986 
L 137.198115 26.8 
L 136.890541 26.8 
L 135.812105 26.8 
L 134.733669 26.8 
L 133.655232 26.8 
L 132.576796 26.8 
L 131.49836 26.8 
L 130.419923 26.8 
L 129.341487 26.8 
L 128.263051 26.8 
L 127.184615 26.8 
L 126.106178 26.8 
L 125.027742 26.8 
L 123.949306 26.8 
L 122.870869 26.8 
L 121.792433 26.8 
L 120.713997 26.8 
L 119.63556 26.8 
L 118.557124 26.8 
L 117.478688 26.8 
L 116.400252 26.8 
L 115.321815 26.8 
L 114.243379 26.8 
L 113.164943 26.8 
L 112.086506 26.8 
L 111.00807 26.8 
L 109.929634 26.8 
L 108.851197 26.8 
L 107.772761 26.8 
L 106.694325 26.8 
L 106.595636 26.8 
L 105.615888 27.333339 
L 104.537452 27.921673 
L 104.25662 28.077551 
L 103.459016 28.510007 
L 102.38058 29.098341 
L 101.916146 29.355102 
L 101.302143 29.686675 
L 100.223707 30.275008 
L 99.574192 30.632653 
L 99.145271 30.863342 
L 98.066834 31.451676 
L 97.230733 31.910204 
L 96.988398 32.04001 
L 95.909962 32.628344 
L 94.885744 33.187755 
L 94.831525 33.216678 
L 93.753089 33.805012 
L 92.674653 34.393346 
L 92.545436 34.465306 
L 91.596217 34.98168 
L 90.51778 35.570014 
L 90.206176 35.742857 
L 89.439344 36.158348 
L 88.360908 36.746682 
L 87.865455 37.020408 
L 87.282471 37.335016 
L 86.204035 37.92335 
L 85.52325 38.297959 
L 85.125599 38.511684 
L 84.047162 39.100018 
L 83.179535 39.57551 
L 82.968726 39.688352 
L 81.89029 40.276686 
L 80.834287 40.853061 
L 80.811853 40.86502 
L 79.733417 41.453354 
L 78.654981 42.041688 
L 78.495196 42.130612 
L 77.576545 42.630022 
L 76.498108 43.218356 
L 76.155692 43.408163 
L 75.419672 43.80669 
L 74.341236 44.395024 
L 73.814723 44.685714 
L 73.262799 44.983358 
L 72.184363 45.571692 
L 71.472265 45.963265 
L 71.105927 46.160026 
L 70.02749 46.74836 
L 69.128294 47.240816 
L 68.949054 47.336694 
L 67.870618 47.925028 
L 66.792182 48.513362 
L 66.783217 48.518367 
L 65.713745 49.101696 
L 64.635309 49.69003 
L 64.444914 49.795918 
L 63.556873 50.278364 
L 62.478436 50.866698 
L 62.105166 51.073469 
L 61.4 51.455032 
L 61.4 52.35102 
L 61.4 53.628571 
L 61.4 54.906122 
L 61.4 56.183673 
L 61.4 57.461224 
L 61.4 58.738776 
L 61.4 60.016327 
L 61.4 61.293878 
L 61.4 62.571429 
L 61.4 63.84898 
L 61.4 65.126531 
L 61.4 66.404082 
L 61.4 67.681633 
L 61.4 68.148365 
z
" style="fill:#1966ad;"/>
   </g>
   <g id="PathCollection_11">
    <path clip-path="url(#p1545e6fc70)" d="M 62.105166 51.073469 
L 62.478436 50.866698 
L 63.556873 50.278364 
L 64.444914 49.795918 
L 64.635309 49.69003 
L 65.713745 49.101696 
L 66.783217 48.518367 
L 66.792182 48.513362 
L 67.870618 47.925028 
L 68.949054 47.336694 
L 69.128294 47.240816 
L 70.02749 46.74836 
L 71.105927 46.160026 
L 71.472265 45.963265 
L 72.184363 45.571692 
L 73.262799 44.983358 
L 73.814723 44.685714 
L 74.341236 44.395024 
L 75.419672 43.80669 
L 76.155692 43.408163 
L 76.498108 43.218356 
L 77.576545 42.630022 
L 78.495196 42.130612 
L 78.654981 42.041688 
L 79.733417 41.453354 
L 80.811853 40.86502 
L 80.834287 40.853061 
L 81.89029 40.276686 
L 82.968726 39.688352 
L 83.179535 39.57551 
L 84.047162 39.100018 
L 85.125599 38.511684 
L 85.52325 38.297959 
L 86.204035 37.92335 
L 87.282471 37.335016 
L 87.865455 37.020408 
L 88.360908 36.746682 
L 89.439344 36.158348 
L 90.206176 35.742857 
L 90.51778 35.570014 
L 91.596217 34.98168 
L 92.545436 34.465306 
L 92.674653 34.393346 
L 93.753089 33.805012 
L 94.831525 33.216678 
L 94.885744 33.187755 
L 95.909962 32.628344 
L 96.988398 32.04001 
L 97.230733 31.910204 
L 98.066834 31.451676 
L 99.145271 30.863342 
L 99.574192 30.632653 
L 100.223707 30.275008 
L 101.302143 29.686675 
L 101.916146 29.355102 
L 102.38058 29.098341 
L 103.459016 28.510007 
L 104.25662 28.077551 
L 104.537452 27.921673 
L 105.615888 27.333339 
L 106.595636 26.8 
L 105.615888 26.8 
L 104.537452 26.8 
L 103.459016 26.8 
L 102.38058 26.8 
L 101.302143 26.8 
L 100.223707 26.8 
L 99.145271 26.8 
L 98.066834 26.8 
L 96.988398 26.8 
L 95.909962 26.8 
L 94.831525 26.8 
L 93.753089 26.8 
L 92.674653 26.8 
L 91.596217 26.8 
L 90.51778 26.8 
L 89.439344 26.8 
L 88.360908 26.8 
L 87.282471 26.8 
L 86.204035 26.8 
L 85.125599 26.8 
L 84.047162 26.8 
L 82.968726 26.8 
L 81.89029 26.8 
L 80.811853 26.8 
L 79.733417 26.8 
L 78.654981 26.8 
L 77.576545 26.8 
L 76.498108 26.8 
L 76.000366 26.8 
L 75.419672 27.113357 
L 74.341236 27.701691 
L 73.658142 28.077551 
L 73.262799 28.290025 
L 72.184363 28.878359 
L 71.314409 29.355102 
L 71.105927 29.466693 
L 70.02749 30.055027 
L 68.969141 30.632653 
L 68.949054 30.643361 
L 67.870618 31.231695 
L 66.792182 31.820029 
L 66.63014 31.910204 
L 65.713745 32.408363 
L 64.635309 32.996697 
L 64.290618 33.187755 
L 63.556873 33.585031 
L 62.478436 34.173365 
L 61.949631 34.465306 
L 61.4 34.761699 
L 61.4 35.742857 
L 61.4 37.020408 
L 61.4 38.297959 
L 61.4 39.57551 
L 61.4 40.853061 
L 61.4 42.130612 
L 61.4 43.408163 
L 61.4 44.685714 
L 61.4 45.963265 
L 61.4 47.240816 
L 61.4 48.518367 
L 61.4 49.795918 
L 61.4 51.073469 
L 61.4 51.455032 
z
" style="fill:#08509b;"/>
   </g>
   <g id="PathCollection_12">
    <path clip-path="url(#p1545e6fc70)" d="M 61.949631 34.465306 
L 62.478436 34.173365 
L 63.556873 33.585031 
L 64.290618 33.187755 
L 64.635309 32.996697 
L 65.713745 32.408363 
L 66.63014 31.910204 
L 66.792182 31.820029 
L 67.870618 31.231695 
L 68.949054 30.643361 
L 68.969141 30.632653 
L 70.02749 30.055027 
L 71.105927 29.466693 
L 71.314409 29.355102 
L 72.184363 28.878359 
L 73.262799 28.290025 
L 73.658142 28.077551 
L 74.341236 27.701691 
L 75.419672 27.113357 
L 76.000366 26.8 
L 75.419672 26.8 
L 74.341236 26.8 
L 73.262799 26.8 
L 72.184363 26.8 
L 71.105927 26.8 
L 70.02749 26.8 
L 68.949054 26.8 
L 67.870618 26.8 
L 66.792182 26.8 
L 65.713745 26.8 
L 64.635309 26.8 
L 63.556873 26.8 
L 62.478436 26.8 
L 61.4 26.8 
L 61.4 28.077551 
L 61.4 29.355102 
L 61.4 30.632653 
L 61.4 31.910204 
L 61.4 33.187755 
L 61.4 34.465306 
L 61.4 34.761699 
z
" style="fill:#083a7a;"/>
   </g>
   <g id="matplotlib.axis_1">
    <g id="xtick_1">
     <g id="line2d_1">
      <defs>
       <path d="M 0 0 
L 0 3.5 
" id="m395a633fdb" style="stroke:#000000;stroke-width:0.8;"/>
      </defs>
      <g>
       <use style="stroke:#000000;stroke-width:0.8;" x="61.4" xlink:href="#m395a633fdb" y="152"/>
      </g>
     </g>
     <g id="text_1">
      <!-- $\mathdefault{10^{-1}}$ -->
      <defs>
       <path d="M 12.40625 8.296875 
L 28.515625 8.296875 
L 28.515625 63.921875 
L 10.984375 60.40625 
L 10.984375 69.390625 
L 28.421875 72.90625 
L 38.28125 72.90625 
L 38.28125 8.296875 
L 54.390625 8.296875 
L 54.390625 0 
L 12.40625 0 
z
" id="DejaVuSans-31"/>
       <path d="M 31.78125 66.40625 
Q 24.171875 66.40625 20.328125 58.90625 
Q 16.5 51.421875 16.5 36.375 
Q 16.5 21.390625 20.328125 13.890625 
Q 24.171875 6.390625 31.78125 6.390625 
Q 39.453125 6.390625 43.28125 13.890625 
Q 47.125 21.390625 47.125 36.375 
Q 47.125 51.421875 43.28125 58.90625 
Q 39.453125 66.40625 31.78125 66.40625 
z
M 31.78125 74.21875 
Q 44.046875 74.21875 50.515625 64.515625 
Q 56.984375 54.828125 56.984375 36.375 
Q 56.984375 17.96875 50.515625 8.265625 
Q 44.046875 -1.421875 31.78125 -1.421875 
Q 19.53125 -1.421875 13.0625 8.265625 
Q 6.59375 17.96875 6.59375 36.375 
Q 6.59375 54.828125 13.0625 64.515625 
Q 19.53125 74.21875 31.78125 74.21875 
z
" id="DejaVuSans-30"/>
       <path d="M 10.59375 35.5 
L 73.1875 35.5 
L 73.1875 27.203125 
L 10.59375 27.203125 
z
" id="DejaVuSans-2212"/>
      </defs>
      <g transform="translate(49.65 166.598437)scale(0.1 -0.1)">
       <use transform="translate(0 0.684375)" xlink:href="#DejaVuSans-31"/>
       <use transform="translate(63.623047 0.684375)" xlink:href="#DejaVuSans-30"/>
       <use transform="translate(128.203125 38.965625)scale(0.7)" xlink:href="#DejaVuSans-2212"/>
       <use transform="translate(186.855469 38.965625)scale(0.7)" xlink:href="#DejaVuSans-31"/>
      </g>
     </g>
    </g>
    <g id="xtick_2">
     <g id="line2d_2">
      <g>
       <use style="stroke:#000000;stroke-width:0.8;" x="114.243379" xlink:href="#m395a633fdb" y="152"/>
      </g>
     </g>
     <g id="text_2">
      <!-- $\mathdefault{10^{0}}$ -->
      <g transform="translate(105.443379 166.598437)scale(0.1 -0.1)">
       <use transform="translate(0 0.765625)" xlink:href="#DejaVuSans-31"/>
       <use transform="translate(63.623047 0.765625)" xlink:href="#DejaVuSans-30"/>
       <use transform="translate(128.203125 39.046875)scale(0.7)" xlink:href="#DejaVuSans-30"/>
      </g>
     </g>
    </g>
    <g id="xtick_3">
     <g id="line2d_3">
      <g>
       <use style="stroke:#000000;stroke-width:0.8;" x="167.086758" xlink:href="#m395a633fdb" y="152"/>
      </g>
     </g>
     <g id="text_3">
      <!-- $\mathdefault{10^{1}}$ -->
      <g transform="translate(158.286758 166.598437)scale(0.1 -0.1)">
       <use transform="translate(0 0.684375)" xlink:href="#DejaVuSans-31"/>
       <use transform="translate(63.623047 0.684375)" xlink:href="#DejaVuSans-30"/>
       <use transform="translate(128.203125 38.965625)scale(0.7)" xlink:href="#DejaVuSans-31"/>
      </g>
     </g>
    </g>
    <g id="xtick_4">
     <g id="line2d_4">
      <defs>
       <path d="M 0 0 
L 0 2 
" id="m837a3af06a" style="stroke:#000000;stroke-width:0.6;"/>
      </defs>
      <g>
       <use style="stroke:#000000;stroke-width:0.6;" x="77.307442" xlink:href="#m837a3af06a" y="152"/>
      </g>
     </g>
    </g>
    <g id="xtick_5">
     <g id="line2d_5">
      <g>
       <use style="stroke:#000000;stroke-width:0.6;" x="86.612699" xlink:href="#m837a3af06a" y="152"/>
      </g>
     </g>
    </g>
    <g id="xtick_6">
     <g id="line2d_6">
      <g>
       <use style="stroke:#000000;stroke-width:0.6;" x="93.214884" xlink:href="#m837a3af06a" y="152"/>
      </g>
     </g>
    </g>
    <g id="xtick_7">
     <g id="line2d_7">
      <g>
       <use style="stroke:#000000;stroke-width:0.6;" x="98.335937" xlink:href="#m837a3af06a" y="152"/>
      </g>
     </g>
    </g>
    <g id="xtick_8">
     <g id="line2d_8">
      <g>
       <use style="stroke:#000000;stroke-width:0.6;" x="102.520141" xlink:href="#m837a3af06a" y="152"/>
      </g>
     </g>
    </g>
    <g id="xtick_9">
     <g id="line2d_9">
      <g>
       <use style="stroke:#000000;stroke-width:0.6;" x="106.057836" xlink:href="#m837a3af06a" y="152"/>
      </g>
     </g>
    </g>
    <g id="xtick_10">
     <g id="line2d_10">
      <g>
       <use style="stroke:#000000;stroke-width:0.6;" x="109.122326" xlink:href="#m837a3af06a" y="152"/>
      </g>
     </g>
    </g>
    <g id="xtick_11">
     <g id="line2d_11">
      <g>
       <use style="stroke:#000000;stroke-width:0.6;" x="111.825398" xlink:href="#m837a3af06a" y="152"/>
      </g>
     </g>
    </g>
    <g id="xtick_12">
     <g id="line2d_12">
      <g>
       <use style="stroke:#000000;stroke-width:0.6;" x="130.150821" xlink:href="#m837a3af06a" y="152"/>
      </g>
     </g>
    </g>
    <g id="xtick_13">
     <g id="line2d_13">
      <g>
       <use style="stroke:#000000;stroke-width:0.6;" x="139.456078" xlink:href="#m837a3af06a" y="152"/>
      </g>
     </g>
    </g>
    <g id="xtick_14">
     <g id="line2d_14">
      <g>
       <use style="stroke:#000000;stroke-width:0.6;" x="146.058263" xlink:href="#m837a3af06a" y="152"/>
      </g>
     </g>
    </g>
    <g id="xtick_15">
     <g id="line2d_15">
      <g>
       <use style="stroke:#000000;stroke-width:0.6;" x="151.179316" xlink:href="#m837a3af06a" y="152"/>
      </g>
     </g>
    </g>
    <g id="xtick_16">
     <g id="line2d_16">
      <g>
       <use style="stroke:#000000;stroke-width:0.6;" x="155.36352" xlink:href="#m837a3af06a" y="152"/>
      </g>
     </g>
    </g>
    <g id="xtick_17">
     <g id="line2d_17">
      <g>
       <use style="stroke:#000000;stroke-width:0.6;" x="158.901215" xlink:href="#m837a3af06a" y="152"/>
      </g>
     </g>
    </g>
    <g id="xtick_18">
     <g id="line2d_18">
      <g>
       <use style="stroke:#000000;stroke-width:0.6;" x="161.965705" xlink:href="#m837a3af06a" y="152"/>
      </g>
     </g>
    </g>
    <g id="xtick_19">
     <g id="line2d_19">
      <g>
       <use style="stroke:#000000;stroke-width:0.6;" x="164.668777" xlink:href="#m837a3af06a" y="152"/>
      </g>
     </g>
    </g>
    <g id="text_4">
     <!-- $r$ -->
     <defs>
      <path d="M 44.578125 46.390625 
Q 43.21875 47.125 41.453125 47.515625 
Q 39.703125 47.90625 37.703125 47.90625 
Q 30.515625 47.90625 25.140625 42.453125 
Q 19.78125 37.015625 18.015625 27.875 
L 12.5 0 
L 3.515625 0 
L 14.203125 54.6875 
L 23.1875 54.6875 
L 21.484375 46.1875 
Q 25.046875 50.921875 30 53.453125 
Q 34.96875 56 40.578125 56 
Q 42.046875 56 43.453125 55.828125 
Q 44.875 55.671875 46.296875 55.28125 
z
" id="DejaVuSans-Oblique-72"/>
     </defs>
     <g transform="translate(111.303379 183.315937)scale(0.14 -0.14)">
      <use xlink:href="#DejaVuSans-Oblique-72"/>
     </g>
    </g>
   </g>
   <g id="matplotlib.axis_2">
    <g id="ytick_1">
     <g id="line2d_20">
      <defs>
       <path d="M 0 0 
L -3.5 0 
" id="m6d17271eef" style="stroke:#000000;stroke-width:0.8;"/>
      </defs>
      <g>
       <use style="stroke:#000000;stroke-width:0.8;" x="61.4" xlink:href="#m6d17271eef" y="152"/>
      </g>
     </g>
     <g id="text_5">
      <!-- 10 -->
      <g transform="translate(33.295313 155.799219)scale(0.1 -0.1)">
       <use xlink:href="#DejaVuSans-2212"/>
       <use x="83.789062" xlink:href="#DejaVuSans-31"/>
       <use x="147.412109" xlink:href="#DejaVuSans-30"/>
      </g>
     </g>
    </g>
    <g id="ytick_2">
     <g id="line2d_21">
      <g>
       <use style="stroke:#000000;stroke-width:0.8;" x="61.4" xlink:href="#m6d17271eef" y="120.7"/>
      </g>
     </g>
     <g id="text_6">
      <!-- 5 -->
      <defs>
       <path d="M 10.796875 72.90625 
L 49.515625 72.90625 
L 49.515625 64.59375 
L 19.828125 64.59375 
L 19.828125 46.734375 
Q 21.96875 47.46875 24.109375 47.828125 
Q 26.265625 48.1875 28.421875 48.1875 
Q 40.625 48.1875 47.75 41.5 
Q 54.890625 34.8125 54.890625 23.390625 
Q 54.890625 11.625 47.5625 5.09375 
Q 40.234375 -1.421875 26.90625 -1.421875 
Q 22.3125 -1.421875 17.546875 -0.640625 
Q 12.796875 0.140625 7.71875 1.703125 
L 7.71875 11.625 
Q 12.109375 9.234375 16.796875 8.0625 
Q 21.484375 6.890625 26.703125 6.890625 
Q 35.15625 6.890625 40.078125 11.328125 
Q 45.015625 15.765625 45.015625 23.390625 
Q 45.015625 31 40.078125 35.4375 
Q 35.15625 39.890625 26.703125 39.890625 
Q 22.75 39.890625 18.8125 39.015625 
Q 14.890625 38.140625 10.796875 36.28125 
z
" id="DejaVuSans-35"/>
      </defs>
      <g transform="translate(39.657813 124.499219)scale(0.1 -0.1)">
       <use xlink:href="#DejaVuSans-2212"/>
       <use x="83.789062" xlink:href="#DejaVuSans-35"/>
      </g>
     </g>
    </g>
    <g id="ytick_3">
     <g id="line2d_22">
      <g>
       <use style="stroke:#000000;stroke-width:0.8;" x="61.4" xlink:href="#m6d17271eef" y="89.4"/>
      </g>
     </g>
     <g id="text_7">
      <!-- 0 -->
      <g transform="translate(48.0375 93.199219)scale(0.1 -0.1)">
       <use xlink:href="#DejaVuSans-30"/>
      </g>
     </g>
    </g>
    <g id="ytick_4">
     <g id="line2d_23">
      <g>
       <use style="stroke:#000000;stroke-width:0.8;" x="61.4" xlink:href="#m6d17271eef" y="58.1"/>
      </g>
     </g>
     <g id="text_8">
      <!-- 5 -->
      <g transform="translate(48.0375 61.899219)scale(0.1 -0.1)">
       <use xlink:href="#DejaVuSans-35"/>
      </g>
     </g>
    </g>
    <g id="ytick_5">
     <g id="line2d_24">
      <g>
       <use style="stroke:#000000;stroke-width:0.8;" x="61.4" xlink:href="#m6d17271eef" y="26.8"/>
      </g>
     </g>
     <g id="text_9">
      <!-- 10 -->
      <g transform="translate(41.675 30.599219)scale(0.1 -0.1)">
       <use xlink:href="#DejaVuSans-31"/>
       <use x="63.623047" xlink:href="#DejaVuSans-30"/>
      </g>
     </g>
    </g>
    <g id="text_10">
     <!-- $s N^*$ -->
     <defs>
      <path d="M 50 53.078125 
L 48.296875 44.578125 
Q 44.734375 46.53125 40.765625 47.5 
Q 36.8125 48.484375 32.625 48.484375 
Q 25.53125 48.484375 21.453125 46.0625 
Q 17.390625 43.65625 17.390625 39.5 
Q 17.390625 34.671875 26.859375 32.078125 
Q 27.59375 31.890625 27.9375 31.78125 
L 30.8125 30.90625 
Q 39.796875 28.421875 42.796875 25.6875 
Q 45.796875 22.953125 45.796875 18.21875 
Q 45.796875 9.515625 38.890625 4.046875 
Q 31.984375 -1.421875 20.796875 -1.421875 
Q 16.453125 -1.421875 11.671875 -0.578125 
Q 6.890625 0.25 1.125 2 
L 2.875 11.28125 
Q 7.8125 8.734375 12.59375 7.421875 
Q 17.390625 6.109375 21.78125 6.109375 
Q 28.375 6.109375 32.5 8.9375 
Q 36.625 11.765625 36.625 16.109375 
Q 36.625 20.796875 25.78125 23.6875 
L 24.859375 23.921875 
L 21.78125 24.703125 
Q 14.9375 26.515625 11.765625 29.46875 
Q 8.59375 32.421875 8.59375 37.015625 
Q 8.59375 45.75 15.15625 50.875 
Q 21.734375 56 33.015625 56 
Q 37.453125 56 41.671875 55.265625 
Q 45.90625 54.546875 50 53.078125 
z
" id="DejaVuSans-Oblique-73"/>
      <path d="M 16.890625 72.90625 
L 30.171875 72.90625 
L 50.296875 10.40625 
L 62.5 72.90625 
L 72.125 72.90625 
L 57.90625 0 
L 44.578125 0 
L 24.515625 62.890625 
L 12.3125 0 
L 2.6875 0 
z
" id="DejaVuSans-Oblique-4e"/>
      <path d="M 47.015625 60.890625 
L 29.5 51.421875 
L 47.015625 41.890625 
L 44.1875 37.109375 
L 27.78125 47.015625 
L 27.78125 28.609375 
L 22.21875 28.609375 
L 22.21875 47.015625 
L 5.8125 37.109375 
L 2.984375 41.890625 
L 20.515625 51.421875 
L 2.984375 60.890625 
L 5.8125 65.71875 
L 22.21875 55.8125 
L 22.21875 74.21875 
L 27.78125 74.21875 
L 27.78125 55.8125 
L 44.1875 65.71875 
z
" id="DejaVuSans-2a"/>
     </defs>
     <g transform="translate(26.38375 103.33)rotate(-90)scale(0.14 -0.14)">
      <use transform="translate(0 0.765625)" xlink:href="#DejaVuSans-Oblique-73"/>
      <use transform="translate(52.099609 0.765625)" xlink:href="#DejaVuSans-Oblique-4e"/>
      <use transform="translate(147.558763 39.046875)scale(0.7)" xlink:href="#DejaVuSans-2a"/>
     </g>
    </g>
   </g>
   <g id="LineCollection_1">
    <path clip-path="url(#p1545e6fc70)" d="M 91.298869 152 
L 91.596217 151.835014 
L 92.674653 151.24668 
L 93.638016 150.722449 
L 93.753089 150.658346 
L 94.831525 150.070012 
L 95.909962 149.481678 
L 95.978886 149.444898 
L 96.988398 148.893344 
L 98.066834 148.30501 
L 98.323755 148.167347 
L 99.145271 147.716676 
L 100.223707 147.128342 
L 100.667096 146.889796 
L 101.302143 146.540008 
L 102.38058 145.951674 
L 103.008934 145.612245 
L 103.459016 145.36334 
L 104.537452 144.775006 
L 105.349293 144.334694 
L 105.615888 144.186672 
L 106.694325 143.598338 
L 107.688197 143.057143 
L 107.772761 143.010004 
L 108.851197 142.42167 
L 109.929634 141.833336 
L 110.030279 141.779592 
L 111.00807 141.245002 
L 112.086506 140.656668 
L 112.374889 140.502041 
L 113.164943 140.068334 
L 114.243379 139.48 
L 114.579101 139.299804 
" style="fill:none;stroke:#000000;stroke-dasharray:11.1,4.8;stroke-dashoffset:0;stroke-width:3;"/>
    <path clip-path="url(#p1545e6fc70)" d="M 129.010056 131.427086 
L 129.341487 131.243324 
L 130.419923 130.65499 
L 131.110151 130.281633 
L 131.49836 130.066656 
L 132.576796 129.478322 
L 133.450018 129.004082 
L 133.655232 128.889988 
L 134.733669 128.301654 
L 135.788438 127.726531 
L 135.812105 127.71332 
L 136.890541 127.124986 
L 137.968978 126.536652 
L 138.132933 126.44898 
L 139.047414 125.948318 
L 140.12585 125.359984 
L 140.477028 125.171429 
L 141.204287 124.77165 
L 142.282723 124.183316 
L 142.819608 123.893878 
L 143.361159 123.594982 
L 144.439595 123.006648 
L 145.160697 122.616327 
L 145.518032 122.418314 
L 146.596468 121.82998 
L 147.500319 121.338776 
L 147.674904 121.241646 
L 148.753341 120.653312 
L 149.831777 120.064978 
L 149.838821 120.061224 
L 150.910213 119.476644 
L 151.98865 118.88831 
L 152.184195 118.783673 
L 153.067086 118.299976 
L 154.145522 117.711642 
L 154.528034 117.506122 
L 155.223958 117.123308 
L 156.302395 116.534975 
L 156.870361 116.228571 
L 157.380831 115.946641 
L 158.459267 115.358307 
L 159.211202 114.95102 
L 159.537704 114.769973 
L 160.61614 114.181639 
L 161.55058 113.673469 
L 161.694576 113.593305 
L 162.773013 113.004971 
L 163.851449 112.416637 
L 163.8903 112.395918 
L 164.929885 111.828303 
L 166.008322 111.239969 
L 166.235414 111.118367 
L 167.086758 110.651635 
" style="fill:none;stroke:#000000;stroke-dasharray:11.1,4.8;stroke-dashoffset:0;stroke-width:3;"/>
   </g>
   <g id="LineCollection_2">
    <path clip-path="url(#p1545e6fc70)" d="M 61.4 118.228365 
L 62.478436 117.640031 
L 62.728389 117.506122 
L 63.556873 117.051697 
L 64.635309 116.463363 
L 65.071786 116.228571 
L 65.713745 115.875029 
L 66.792182 115.286695 
L 67.41368 114.95102 
L 67.870618 114.698361 
L 68.949054 114.110027 
L 69.754094 113.673469 
L 70.02749 113.521693 
L 71.105927 112.933359 
L 72.093051 112.395918 
L 72.184363 112.345025 
L 73.262799 111.756692 
L 74.341236 111.168358 
L 74.434865 111.118367 
L 75.419672 110.580024 
L 76.498108 109.99169 
L 76.779532 109.840816 
L 77.576545 109.403356 
L 78.654981 108.815022 
L 79.122675 108.563265 
L 79.733417 108.226688 
L 80.811853 107.638354 
L 81.464318 107.285714 
L 81.89029 107.05002 
L 82.968726 106.461686 
L 83.804486 106.008163 
L 84.047162 105.873352 
L 85.125599 105.285018 
L 86.143201 104.730612 
L 86.204035 104.696684 
L 87.282471 104.10835 
L 88.360908 103.520016 
L 88.486224 103.453061 
L 89.439344 102.931682 
L 90.51778 102.343348 
L 90.830633 102.17551 
L 91.596217 101.755014 
L 92.674653 101.16668 
L 93.173522 100.897959 
L 93.753089 100.578346 
L 94.831525 99.990012 
L 95.514915 99.620408 
L 95.909962 99.401678 
L 96.988398 98.813344 
L 97.854837 98.342857 
L 98.066834 98.22501 
L 99.145271 97.636676 
L 100.19331 97.065306 
L 100.223707 97.048342 
L 101.302143 96.460008 
L 102.38058 95.871674 
L 102.537539 95.787755 
L 103.459016 95.28334 
L 104.537452 94.695006 
L 104.881691 94.510204 
L 105.615888 94.106672 
L 106.694325 93.518338 
L 107.224327 93.232653 
L 107.772761 92.930004 
L 108.851197 92.34167 
L 109.565471 91.955102 
L 109.929634 91.753336 
L 111.00807 91.165002 
L 111.905147 90.677551 
L 112.086506 90.576668 
L 113.164943 89.988334 
L 114.243379 89.4 
L 114.243379 89.4 
L 115.321815 88.811666 
L 116.400252 88.223332 
L 116.588811 88.122449 
L 117.478688 87.634998 
L 118.557124 87.046664 
L 118.932706 86.844898 
L 119.63556 86.45833 
L 120.713997 85.869996 
L 121.275089 85.567347 
L 121.792433 85.281662 
L 122.870869 84.693328 
L 123.615985 84.289796 
L 123.949306 84.104994 
L 125.027742 83.51666 
L 125.955416 83.012245 
L 126.106178 82.928326 
L 127.184615 82.339992 
L 128.263051 81.751658 
L 128.294867 81.734694 
L 129.341487 81.163324 
L 130.419923 80.57499 
L 130.640039 80.457143 
L 131.49836 79.986656 
L 132.576796 79.398322 
L 132.983678 79.179592 
L 133.655232 78.809988 
L 134.733669 78.221654 
L 135.325809 77.902041 
L 135.812105 77.63332 
L 136.890541 77.044986 
L 137.666457 76.62449 
L 137.968978 76.456652 
L 139.047414 75.868318 
L 140.005645 75.346939 
L 140.12585 75.279984 
L 141.204287 74.69165 
L 142.282723 74.103316 
L 142.346311 74.069388 
L 143.361159 73.514982 
L 144.439595 72.926648 
L 144.691223 72.791837 
L 145.518032 72.338314 
L 146.596468 71.74998 
L 146.931975 71.5699 
" style="fill:none;stroke:#000000;stroke-width:3;"/>
    <path clip-path="url(#p1545e6fc70)" d="M 161.36336 63.696948 
L 161.694576 63.513305 
L 162.773013 62.924971 
L 163.427124 62.571429 
L 163.851449 62.336637 
L 164.929885 61.748303 
L 165.767278 61.293878 
L 166.008322 61.159969 
L 167.086758 60.571635 
" style="fill:none;stroke:#000000;stroke-width:3;"/>
   </g>
   <g id="LineCollection_3">
    <path clip-path="url(#p1545e6fc70)" d="M 61.4 68.148365 
L 62.259654 67.681633 
L 62.478436 67.560031 
L 63.556873 66.971697 
L 64.59818 66.404082 
L 64.635309 66.383363 
L 65.713745 65.795029 
L 66.792182 65.206695 
L 66.942143 65.126531 
L 67.870618 64.618361 
L 68.949054 64.030027 
L 69.286351 63.84898 
L 70.02749 63.441693 
L 71.105927 62.853359 
L 71.629043 62.571429 
L 72.184363 62.265025 
L 73.262799 61.676692 
L 73.970242 61.293878 
L 74.341236 61.088358 
L 75.419672 60.500024 
L 76.309973 60.016327 
L 76.498108 59.91169 
L 77.576545 59.323356 
L 78.648258 58.738776 
L 78.654981 58.735022 
L 79.733417 58.146688 
L 80.811853 57.558354 
L 80.993424 57.461224 
L 81.89029 56.97002 
L 82.968726 56.381686 
L 83.337376 56.183673 
L 84.047162 55.793352 
L 85.125599 55.205018 
L 85.679815 54.906122 
L 86.204035 54.616684 
L 87.282471 54.02835 
L 88.020765 53.628571 
L 88.360908 53.440016 
L 89.439344 52.851682 
L 90.360251 52.35102 
L 90.51778 52.263348 
L 91.596217 51.675014 
L 92.674653 51.08668 
L 92.699432 51.073469 
L 93.753089 50.498346 
L 94.831525 49.910012 
L 95.044661 49.795918 
L 95.909962 49.321678 
L 96.988398 48.733344 
L 97.388357 48.518367 
L 98.066834 48.14501 
L 99.145271 47.556676 
L 99.730544 47.240816 
L 100.223707 46.968342 
L 101.302143 46.380008 
L 102.071247 45.963265 
L 102.38058 45.791674 
L 103.459016 45.20334 
L 104.410489 44.685714 
L 104.537452 44.615006 
L 105.615888 44.026672 
L 106.694325 43.438338 
L 106.750886 43.408163 
L 107.772761 42.850004 
L 108.851197 42.26167 
L 109.095856 42.130612 
L 109.929634 41.673336 
L 111.00807 41.085002 
L 111.343537 40.904944 
" style="fill:none;stroke:#000000;stroke-width:3;"/>
    <path clip-path="url(#p1545e6fc70)" d="M 125.775002 33.031947 
L 126.106178 32.848326 
L 127.184615 32.259992 
L 127.831878 31.910204 
L 128.263051 31.671658 
L 129.341487 31.083324 
L 130.172086 30.632653 
L 130.419923 30.49499 
L 131.49836 29.906656 
L 132.510842 29.355102 
L 132.576796 29.318322 
L 133.655232 28.729988 
L 134.733669 28.141654 
L 134.853662 28.077551 
L 135.812105 27.55332 
L 136.890541 26.964986 
L 137.198115 26.8 
" style="fill:none;stroke:#000000;stroke-width:3;"/>
   </g>
   <g id="patch_3">
    <path d="M 61.4 152 
L 61.4 26.8 
" style="fill:none;stroke:#000000;stroke-linecap:square;stroke-linejoin:miter;stroke-width:0.8;"/>
   </g>
   <g id="patch_4">
    <path d="M 167.086758 152 
L 167.086758 26.8 
" style="fill:none;stroke:#000000;stroke-linecap:square;stroke-linejoin:miter;stroke-width:0.8;"/>
   </g>
   <g id="patch_5">
    <path d="M 61.4 152 
L 167.086758 152 
" style="fill:none;stroke:#000000;stroke-linecap:square;stroke-linejoin:miter;stroke-width:0.8;"/>
   </g>
   <g id="patch_6">
    <path d="M 61.4 26.8 
L 167.086758 26.8 
" style="fill:none;stroke:#000000;stroke-linecap:square;stroke-linejoin:miter;stroke-width:0.8;"/>
   </g>
   <g id="text_11">
    <g clip-path="url(#p1545e6fc70)">
     <!-- -8 -->
     <defs>
      <path d="M 4.890625 31.390625 
L 31.203125 31.390625 
L 31.203125 23.390625 
L 4.890625 23.390625 
z
" id="DejaVuSans-2d"/>
      <path d="M 31.78125 34.625 
Q 24.75 34.625 20.71875 30.859375 
Q 16.703125 27.09375 16.703125 20.515625 
Q 16.703125 13.921875 20.71875 10.15625 
Q 24.75 6.390625 31.78125 6.390625 
Q 38.8125 6.390625 42.859375 10.171875 
Q 46.921875 13.96875 46.921875 20.515625 
Q 46.921875 27.09375 42.890625 30.859375 
Q 38.875 34.625 31.78125 34.625 
z
M 21.921875 38.8125 
Q 15.578125 40.375 12.03125 44.71875 
Q 8.5 49.078125 8.5 55.328125 
Q 8.5 64.0625 14.71875 69.140625 
Q 20.953125 74.21875 31.78125 74.21875 
Q 42.671875 74.21875 48.875 69.140625 
Q 55.078125 64.0625 55.078125 55.328125 
Q 55.078125 49.078125 51.53125 44.71875 
Q 48 40.375 41.703125 38.8125 
Q 48.828125 37.15625 52.796875 32.3125 
Q 56.78125 27.484375 56.78125 20.515625 
Q 56.78125 9.90625 50.3125 4.234375 
Q 43.84375 -1.421875 31.78125 -1.421875 
Q 19.734375 -1.421875 13.25 4.234375 
Q 6.78125 9.90625 6.78125 20.515625 
Q 6.78125 27.484375 10.78125 32.3125 
Q 14.796875 37.15625 21.921875 38.8125 
z
M 18.3125 54.390625 
Q 18.3125 48.734375 21.84375 45.5625 
Q 25.390625 42.390625 31.78125 42.390625 
Q 38.140625 42.390625 41.71875 45.5625 
Q 45.3125 48.734375 45.3125 54.390625 
Q 45.3125 60.0625 41.71875 63.234375 
Q 38.140625 66.40625 31.78125 66.40625 
Q 25.390625 66.40625 21.84375 63.234375 
Q 18.3125 60.0625 18.3125 54.390625 
z
" id="DejaVuSans-38"/>
     </defs>
     <g transform="translate(118.504128 140.014939)rotate(-25.787182)scale(0.1 -0.1)">
      <use xlink:href="#DejaVuSans-2d"/>
      <use x="36.083984" xlink:href="#DejaVuSans-38"/>
     </g>
    </g>
   </g>
   <g id="text_12">
    <g clip-path="url(#p1545e6fc70)">
     <!--  0 -->
     <defs>
      <path id="DejaVuSans-20"/>
     </defs>
     <g transform="translate(151.050666 72.191456)rotate(-25.787182)scale(0.1 -0.1)">
      <use xlink:href="#DejaVuSans-20"/>
      <use x="31.787109" xlink:href="#DejaVuSans-30"/>
     </g>
    </g>
   </g>
   <g id="text_13">
    <g clip-path="url(#p1545e6fc70)">
     <!--  8 -->
     <g transform="translate(115.462268 41.526477)rotate(-25.787182)scale(0.1 -0.1)">
      <use xlink:href="#DejaVuSans-20"/>
      <use x="31.787109" xlink:href="#DejaVuSans-38"/>
     </g>
    </g>
   </g>
   <g id="text_14">
    <!-- $c=1$ -->
    <defs>
     <path d="M 53.609375 52.59375 
L 51.8125 43.703125 
Q 48.578125 46.046875 44.9375 47.21875 
Q 41.3125 48.390625 37.40625 48.390625 
Q 33.109375 48.390625 29.21875 46.875 
Q 25.34375 45.359375 22.703125 42.578125 
Q 18.5 38.328125 16.203125 32.609375 
Q 13.921875 26.90625 13.921875 20.796875 
Q 13.921875 13.421875 17.609375 9.8125 
Q 21.296875 6.203125 28.8125 6.203125 
Q 32.515625 6.203125 36.6875 7.328125 
Q 40.875 8.453125 45.40625 10.6875 
L 43.703125 1.8125 
Q 39.796875 0.203125 35.671875 -0.609375 
Q 31.546875 -1.421875 27.203125 -1.421875 
Q 16.3125 -1.421875 10.453125 4.015625 
Q 4.59375 9.46875 4.59375 19.578125 
Q 4.59375 28.078125 7.640625 35.234375 
Q 10.6875 42.390625 16.703125 48.09375 
Q 20.796875 52 26.3125 54 
Q 31.84375 56 38.375 56 
Q 42.1875 56 45.9375 55.140625 
Q 49.703125 54.296875 53.609375 52.59375 
z
" id="DejaVuSans-Oblique-63"/>
     <path d="M 10.59375 45.40625 
L 73.1875 45.40625 
L 73.1875 37.203125 
L 10.59375 37.203125 
z
M 10.59375 25.484375 
L 73.1875 25.484375 
L 73.1875 17.1875 
L 10.59375 17.1875 
z
" id="DejaVuSans-3d"/>
    </defs>
    <g transform="translate(99.723379 20.8)scale(0.12 -0.12)">
     <use transform="translate(0 0.09375)" xlink:href="#DejaVuSans-Oblique-63"/>
     <use transform="translate(74.462891 0.09375)" xlink:href="#DejaVuSans-3d"/>
     <use transform="translate(177.734375 0.09375)" xlink:href="#DejaVuSans-31"/>
    </g>
   </g>
  </g>
 </g>
 <defs>
  <clipPath id="p1545e6fc70">
   <rect height="125.2" width="105.686758" x="61.4" y="26.8"/>
  </clipPath>
 </defs>
</svg>
