<?xml version="1.0" encoding="utf-8" standalone="no"?>
<!DOCTYPE svg PUBLIC "-//W3C//DTD SVG 1.1//EN"
  "http://www.w3.org/Graphics/SVG/1.1/DTD/svg11.dtd">
<!-- Created with matplotlib (http://matplotlib.org/) -->
<svg height="201.6pt" version="1.1" viewBox="0 0 187.2 201.6" width="187.2pt" xmlns="http://www.w3.org/2000/svg" xmlns:xlink="http://www.w3.org/1999/xlink">
 <defs>
  <style type="text/css">
*{stroke-linecap:butt;stroke-linejoin:round;}
  </style>
 </defs>
 <g id="figure_1">
  <g id="patch_1">
   <path d="M 0 201.6 
L 187.2 201.6 
L 187.2 0 
L 0 0 
z
" style="fill:#ffffff;"/>
  </g>
  <g id="axes_1">
   <g id="patch_2">
    <path d="M 64.65 155.8 
L 168.4625 155.8 
L 168.4625 26.8 
L 64.65 26.8 
z
" style="fill:#ffffff;"/>
   </g>
   <g id="PathCollection_1">
    <path clip-path="url(#p9174ed82ac)" d="M 145.157653 155.8 
L 146.216964 155.8 
L 147.276276 155.8 
L 148.335587 155.8 
L 149.394898 155.8 
L 150.454209 155.8 
L 151.51352 155.8 
L 152.572832 155.8 
L 153.632143 155.8 
L 154.691454 155.8 
L 155.750765 155.8 
L 156.810077 155.8 
L 157.869388 155.8 
L 158.928699 155.8 
L 159.98801 155.8 
L 161.047321 155.8 
L 162.106633 155.8 
L 163.165944 155.8 
L 164.225255 155.8 
L 165.284566 155.8 
L 166.343878 155.8 
L 167.403189 155.8 
L 168.4625 155.8 
L 168.4625 154.483673 
L 168.4625 153.167347 
L 168.4625 151.85102 
L 168.4625 150.534694 
L 168.4625 149.218367 
L 168.4625 147.902041 
L 168.4625 147.494671 
L 167.403189 147.825019 
L 167.158102 147.902041 
L 166.343878 148.157923 
L 165.284566 148.493426 
L 164.225255 148.831566 
L 163.165944 149.172387 
L 163.024165 149.218367 
L 162.106633 149.515931 
L 161.047321 149.862242 
L 159.98801 150.211364 
L 159.014924 150.534694 
L 158.928699 150.563344 
L 157.869388 150.918229 
L 156.810077 151.276068 
L 155.750765 151.636909 
L 155.127479 151.85102 
L 154.691454 152.000804 
L 153.632143 152.367805 
L 152.572832 152.737965 
L 151.51352 153.111339 
L 151.355999 153.167347 
L 150.454209 153.487984 
L 149.394898 153.867957 
L 148.335587 154.251317 
L 147.699259 154.483673 
L 147.276276 154.638127 
L 146.216964 155.028447 
L 145.157653 155.422343 
L 144.151317 155.8 
z
" style="fill:#f0f9ed;"/>
   </g>
   <g id="PathCollection_2">
    <path clip-path="url(#p9174ed82ac)" d="M 99.60727 155.8 
L 100.666582 155.8 
L 101.725893 155.8 
L 102.785204 155.8 
L 103.844515 155.8 
L 104.903827 155.8 
L 105.963138 155.8 
L 107.022449 155.8 
L 108.08176 155.8 
L 109.141071 155.8 
L 110.200383 155.8 
L 111.259694 155.8 
L 112.319005 155.8 
L 113.378316 155.8 
L 114.437628 155.8 
L 115.496939 155.8 
L 116.55625 155.8 
L 117.615561 155.8 
L 118.674872 155.8 
L 119.734184 155.8 
L 120.793495 155.8 
L 121.852806 155.8 
L 122.912117 155.8 
L 123.971429 155.8 
L 125.03074 155.8 
L 126.090051 155.8 
L 127.149362 155.8 
L 128.208673 155.8 
L 129.267985 155.8 
L 130.327296 155.8 
L 131.386607 155.8 
L 132.445918 155.8 
L 133.50523 155.8 
L 134.564541 155.8 
L 135.623852 155.8 
L 136.683163 155.8 
L 137.742474 155.8 
L 138.801786 155.8 
L 139.861097 155.8 
L 140.920408 155.8 
L 141.979719 155.8 
L 143.039031 155.8 
L 144.098342 155.8 
L 144.151317 155.8 
L 145.157653 155.422343 
L 146.216964 155.028447 
L 147.276276 154.638127 
L 147.699259 154.483673 
L 148.335587 154.251317 
L 149.394898 153.867957 
L 150.454209 153.487984 
L 151.355999 153.167347 
L 151.51352 153.111339 
L 152.572832 152.737965 
L 153.632143 152.367805 
L 154.691454 152.000804 
L 155.127479 151.85102 
L 155.750765 151.636909 
L 156.810077 151.276068 
L 157.869388 150.918229 
L 158.928699 150.563344 
L 159.014924 150.534694 
L 159.98801 150.211364 
L 161.047321 149.862242 
L 162.106633 149.515931 
L 163.024165 149.218367 
L 163.165944 149.172387 
L 164.225255 148.831566 
L 165.284566 148.493426 
L 166.343878 148.157923 
L 167.158102 147.902041 
L 167.403189 147.825019 
L 168.4625 147.494671 
L 168.4625 146.585714 
L 168.4625 145.269388 
L 168.4625 143.953061 
L 168.4625 142.636735 
L 168.4625 141.320408 
L 168.4625 140.004082 
L 168.4625 138.687755 
L 168.4625 137.371429 
L 168.4625 136.055102 
L 168.4625 134.738776 
L 168.4625 133.422449 
L 168.4625 132.106122 
L 168.4625 130.789796 
L 168.4625 129.473469 
L 168.4625 128.157143 
L 168.4625 126.840816 
L 168.4625 125.994671 
L 167.403189 126.325019 
L 166.343878 126.657923 
L 165.766414 126.840816 
L 165.284566 126.993426 
L 164.225255 127.331566 
L 163.165944 127.672387 
L 162.106633 128.015931 
L 161.674687 128.157143 
L 161.047321 128.362242 
L 159.98801 128.711364 
L 158.928699 129.063344 
L 157.869388 129.418229 
L 157.70586 129.473469 
L 156.810077 129.776068 
L 155.750765 130.136909 
L 154.691454 130.500804 
L 153.857307 130.789796 
L 153.632143 130.867805 
L 152.572832 131.237965 
L 151.51352 131.611339 
L 150.454209 131.987984 
L 150.124855 132.106122 
L 149.394898 132.367957 
L 148.335587 132.751317 
L 147.276276 133.138127 
L 146.504638 133.422449 
L 146.216964 133.528447 
L 145.157653 133.922343 
L 144.098342 134.31988 
L 143.039031 134.721128 
L 142.992874 134.738776 
L 141.979719 135.126154 
L 140.920408 135.535032 
L 139.861097 135.947835 
L 139.588477 136.055102 
L 138.801786 136.36464 
L 137.742474 136.785524 
L 136.683163 137.210569 
L 136.286225 137.371429 
L 135.623852 137.639857 
L 134.564541 138.073474 
L 133.50523 138.511508 
L 133.083348 138.687755 
L 132.445918 138.954051 
L 131.386607 139.401195 
L 130.327296 139.853038 
L 129.976907 140.004082 
L 129.267985 140.30968 
L 128.208673 140.771222 
L 127.149362 141.237773 
L 126.963774 141.320408 
L 126.090051 141.709441 
L 125.03074 142.186341 
L 124.0414 142.636735 
L 123.971429 142.668589 
L 122.912117 143.156307 
L 121.852806 143.64962 
L 121.208691 143.953061 
L 120.793495 144.148659 
L 119.734184 144.653557 
L 118.674872 145.164454 
L 118.459884 145.269388 
L 117.615561 145.681494 
L 116.55625 146.204827 
L 115.794656 146.585714 
L 115.496939 146.734608 
L 114.437628 147.270998 
L 113.378316 147.814163 
L 113.209096 147.902041 
L 112.319005 148.364277 
L 111.259694 148.92152 
L 110.702705 149.218367 
L 110.200383 149.48608 
L 109.141071 150.05815 
L 108.270388 150.534694 
L 108.08176 150.637934 
L 107.022449 151.225643 
L 105.963138 151.821495 
L 105.911375 151.85102 
L 104.903827 152.425721 
L 103.844515 153.038558 
L 103.625071 153.167347 
L 102.785204 153.660255 
L 101.725893 154.291073 
L 101.407211 154.483673 
L 100.666582 154.931284 
L 99.60727 155.58117 
L 99.25597 155.8 
z
" style="fill:#dff3da;"/>
   </g>
   <g id="PathCollection_3">
    <path clip-path="url(#p9174ed82ac)" d="M 72.065179 155.8 
L 73.12449 155.8 
L 74.183801 155.8 
L 75.243112 155.8 
L 76.302423 155.8 
L 77.361735 155.8 
L 78.421046 155.8 
L 79.480357 155.8 
L 80.539668 155.8 
L 81.59898 155.8 
L 82.658291 155.8 
L 83.717602 155.8 
L 84.776913 155.8 
L 85.836224 155.8 
L 86.895536 155.8 
L 87.954847 155.8 
L 89.014158 155.8 
L 90.073469 155.8 
L 91.132781 155.8 
L 92.192092 155.8 
L 93.251403 155.8 
L 94.310714 155.8 
L 95.370026 155.8 
L 96.429337 155.8 
L 97.488648 155.8 
L 98.547959 155.8 
L 99.25597 155.8 
L 99.60727 155.58117 
L 100.666582 154.931284 
L 101.407211 154.483673 
L 101.725893 154.291073 
L 102.785204 153.660255 
L 103.625071 153.167347 
L 103.844515 153.038558 
L 104.903827 152.425721 
L 105.911375 151.85102 
L 105.963138 151.821495 
L 107.022449 151.225643 
L 108.08176 150.637934 
L 108.270388 150.534694 
L 109.141071 150.05815 
L 110.200383 149.48608 
L 110.702705 149.218367 
L 111.259694 148.92152 
L 112.319005 148.364277 
L 113.209096 147.902041 
L 113.378316 147.814163 
L 114.437628 147.270998 
L 115.496939 146.734608 
L 115.794656 146.585714 
L 116.55625 146.204827 
L 117.615561 145.681494 
L 118.459884 145.269388 
L 118.674872 145.164454 
L 119.734184 144.653557 
L 120.793495 144.148659 
L 121.208691 143.953061 
L 121.852806 143.64962 
L 122.912117 143.156307 
L 123.971429 142.668589 
L 124.0414 142.636735 
L 125.03074 142.186341 
L 126.090051 141.709441 
L 126.963774 141.320408 
L 127.149362 141.237773 
L 128.208673 140.771222 
L 129.267985 140.30968 
L 129.976907 140.004082 
L 130.327296 139.853038 
L 131.386607 139.401195 
L 132.445918 138.954051 
L 133.083348 138.687755 
L 133.50523 138.511508 
L 134.564541 138.073474 
L 135.623852 137.639857 
L 136.286225 137.371429 
L 136.683163 137.210569 
L 137.742474 136.785524 
L 138.801786 136.36464 
L 139.588477 136.055102 
L 139.861097 135.947835 
L 140.920408 135.535032 
L 141.979719 135.126154 
L 142.992874 134.738776 
L 143.039031 134.721128 
L 144.098342 134.31988 
L 145.157653 133.922343 
L 146.216964 133.528447 
L 146.504638 133.422449 
L 147.276276 133.138127 
L 148.335587 132.751317 
L 149.394898 132.367957 
L 150.124855 132.106122 
L 150.454209 131.987984 
L 151.51352 131.611339 
L 152.572832 131.237965 
L 153.632143 130.867805 
L 153.857307 130.789796 
L 154.691454 130.500804 
L 155.750765 130.136909 
L 156.810077 129.776068 
L 157.70586 129.473469 
L 157.869388 129.418229 
L 158.928699 129.063344 
L 159.98801 128.711364 
L 161.047321 128.362242 
L 161.674687 128.157143 
L 162.106633 128.015931 
L 163.165944 127.672387 
L 164.225255 127.331566 
L 165.284566 126.993426 
L 165.766414 126.840816 
L 166.343878 126.657923 
L 167.403189 126.325019 
L 168.4625 125.994671 
L 168.4625 125.52449 
L 168.4625 124.208163 
L 168.4625 122.891837 
L 168.4625 121.57551 
L 168.4625 120.259184 
L 168.4625 118.942857 
L 168.4625 117.626531 
L 168.4625 116.310204 
L 168.4625 114.993878 
L 168.4625 113.677551 
L 168.4625 112.361224 
L 168.4625 111.044898 
L 168.4625 109.728571 
L 168.4625 108.412245 
L 168.4625 107.095918 
L 168.4625 105.779592 
L 168.4625 104.494671 
L 167.403189 104.825019 
L 166.343878 105.157923 
L 165.284566 105.493426 
L 164.388079 105.779592 
L 164.225255 105.831566 
L 163.165944 106.172387 
L 162.106633 106.515931 
L 161.047321 106.862242 
L 160.338297 107.095918 
L 159.98801 107.211364 
L 158.928699 107.563344 
L 157.869388 107.918229 
L 156.810077 108.276068 
L 156.410305 108.412245 
L 155.750765 108.636909 
L 154.691454 109.000804 
L 153.632143 109.367805 
L 152.599713 109.728571 
L 152.572832 109.737965 
L 151.51352 110.111339 
L 150.454209 110.487984 
L 149.394898 110.867957 
L 148.90597 111.044898 
L 148.335587 111.251317 
L 147.276276 111.638127 
L 146.216964 112.028447 
L 145.32202 112.361224 
L 145.157653 112.422343 
L 144.098342 112.81988 
L 143.039031 113.221128 
L 141.979719 113.626154 
L 141.846561 113.677551 
L 140.920408 114.035032 
L 139.861097 114.447835 
L 138.801786 114.86464 
L 138.476511 114.993878 
L 137.742474 115.285524 
L 136.683163 115.710569 
L 135.623852 116.139857 
L 135.207699 116.310204 
L 134.564541 116.573474 
L 133.50523 117.011508 
L 132.445918 117.454051 
L 132.037303 117.626531 
L 131.386607 117.901195 
L 130.327296 118.353038 
L 129.267985 118.80968 
L 128.962322 118.942857 
L 128.208673 119.271222 
L 127.149362 119.737773 
L 126.090051 120.209441 
L 125.979561 120.259184 
L 125.03074 120.686341 
L 123.971429 121.168589 
L 123.087606 121.57551 
L 122.912117 121.656307 
L 121.852806 122.14962 
L 120.793495 122.648659 
L 120.283291 122.891837 
L 119.734184 123.153557 
L 118.674872 123.664454 
L 117.615561 124.181494 
L 117.561579 124.208163 
L 116.55625 124.704827 
L 115.496939 125.234608 
L 114.924454 125.52449 
L 114.437628 125.770998 
L 113.378316 126.314163 
L 112.364181 126.840816 
L 112.319005 126.864277 
L 111.259694 127.42152 
L 110.200383 127.98608 
L 109.883622 128.157143 
L 109.141071 128.55815 
L 108.08176 129.137934 
L 107.476977 129.473469 
L 107.022449 129.725643 
L 105.963138 130.321495 
L 105.142126 130.789796 
L 104.903827 130.925721 
L 103.844515 131.538558 
L 102.877441 132.106122 
L 102.785204 132.160255 
L 101.725893 132.791073 
L 100.6812 133.422449 
L 100.666582 133.431284 
L 99.60727 134.08117 
L 98.551578 134.738776 
L 98.547959 134.74103 
L 97.488648 135.411173 
L 96.486638 136.055102 
L 96.429337 136.091926 
L 95.370026 136.78363 
L 94.484321 137.371429 
L 94.310714 137.486643 
L 93.251403 138.201341 
L 92.542432 138.687755 
L 92.192092 138.928119 
L 91.132781 139.667392 
L 90.658629 140.004082 
L 90.073469 140.419598 
L 89.014158 141.185196 
L 88.830405 141.320408 
L 87.954847 141.964674 
L 87.058072 142.636735 
L 86.895536 142.758543 
L 85.836224 143.567344 
L 85.340541 143.953061 
L 84.776913 144.39165 
L 83.717602 145.232068 
L 83.671481 145.269388 
L 82.658291 146.089239 
L 82.056967 146.585714 
L 81.59898 146.963846 
L 80.539668 147.856611 
L 80.486883 147.902041 
L 79.480357 148.768306 
L 78.968512 149.218367 
L 78.421046 149.699751 
L 77.492053 150.534694 
L 77.361735 150.651819 
L 76.302423 151.625445 
L 76.062554 151.85102 
L 75.243112 152.621629 
L 74.676257 153.167347 
L 74.183801 153.64144 
L 73.329694 154.483673 
L 73.12449 154.686025 
L 72.065179 155.75662 
L 72.023325 155.8 
z
" style="fill:#c7e9c0;"/>
   </g>
   <g id="PathCollection_4">
    <path clip-path="url(#p9174ed82ac)" d="M 65.709311 155.8 
L 66.768622 155.8 
L 67.827934 155.8 
L 68.887245 155.8 
L 69.946556 155.8 
L 71.005867 155.8 
L 72.023325 155.8 
L 72.065179 155.75662 
L 73.12449 154.686025 
L 73.329694 154.483673 
L 74.183801 153.64144 
L 74.676257 153.167347 
L 75.243112 152.621629 
L 76.062554 151.85102 
L 76.302423 151.625445 
L 77.361735 150.651819 
L 77.492053 150.534694 
L 78.421046 149.699751 
L 78.968512 149.218367 
L 79.480357 148.768306 
L 80.486883 147.902041 
L 80.539668 147.856611 
L 81.59898 146.963846 
L 82.056967 146.585714 
L 82.658291 146.089239 
L 83.671481 145.269388 
L 83.717602 145.232068 
L 84.776913 144.39165 
L 85.340541 143.953061 
L 85.836224 143.567344 
L 86.895536 142.758543 
L 87.058072 142.636735 
L 87.954847 141.964674 
L 88.830405 141.320408 
L 89.014158 141.185196 
L 90.073469 140.419598 
L 90.658629 140.004082 
L 91.132781 139.667392 
L 92.192092 138.928119 
L 92.542432 138.687755 
L 93.251403 138.201341 
L 94.310714 137.486643 
L 94.484321 137.371429 
L 95.370026 136.78363 
L 96.429337 136.091926 
L 96.486638 136.055102 
L 97.488648 135.411173 
L 98.547959 134.74103 
L 98.551578 134.738776 
L 99.60727 134.08117 
L 100.666582 133.431284 
L 100.6812 133.422449 
L 101.725893 132.791073 
L 102.785204 132.160255 
L 102.877441 132.106122 
L 103.844515 131.538558 
L 104.903827 130.925721 
L 105.142126 130.789796 
L 105.963138 130.321495 
L 107.022449 129.725643 
L 107.476977 129.473469 
L 108.08176 129.137934 
L 109.141071 128.55815 
L 109.883622 128.157143 
L 110.200383 127.98608 
L 111.259694 127.42152 
L 112.319005 126.864277 
L 112.364181 126.840816 
L 113.378316 126.314163 
L 114.437628 125.770998 
L 114.924454 125.52449 
L 115.496939 125.234608 
L 116.55625 124.704827 
L 117.561579 124.208163 
L 117.615561 124.181494 
L 118.674872 123.664454 
L 119.734184 123.153557 
L 120.283291 122.891837 
L 120.793495 122.648659 
L 121.852806 122.14962 
L 122.912117 121.656307 
L 123.087606 121.57551 
L 123.971429 121.168589 
L 125.03074 120.686341 
L 125.979561 120.259184 
L 126.090051 120.209441 
L 127.149362 119.737773 
L 128.208673 119.271222 
L 128.962322 118.942857 
L 129.267985 118.80968 
L 130.327296 118.353038 
L 131.386607 117.901195 
L 132.037303 117.626531 
L 132.445918 117.454051 
L 133.50523 117.011508 
L 134.564541 116.573474 
L 135.207699 116.310204 
L 135.623852 116.139857 
L 136.683163 115.710569 
L 137.742474 115.285524 
L 138.476511 114.993878 
L 138.801786 114.86464 
L 139.861097 114.447835 
L 140.920408 114.035032 
L 141.846561 113.677551 
L 141.979719 113.626154 
L 143.039031 113.221128 
L 144.098342 112.81988 
L 145.157653 112.422343 
L 145.32202 112.361224 
L 146.216964 112.028447 
L 147.276276 111.638127 
L 148.335587 111.251317 
L 148.90597 111.044898 
L 149.394898 110.867957 
L 150.454209 110.487984 
L 151.51352 110.111339 
L 152.572832 109.737965 
L 152.599713 109.728571 
L 153.632143 109.367805 
L 154.691454 109.000804 
L 155.750765 108.636909 
L 156.410305 108.412245 
L 156.810077 108.276068 
L 157.869388 107.918229 
L 158.928699 107.563344 
L 159.98801 107.211364 
L 160.338297 107.095918 
L 161.047321 106.862242 
L 162.106633 106.515931 
L 163.165944 106.172387 
L 164.225255 105.831566 
L 164.388079 105.779592 
L 165.284566 105.493426 
L 166.343878 105.157923 
L 167.403189 104.825019 
L 168.4625 104.494671 
L 168.4625 104.463265 
L 168.4625 103.146939 
L 168.4625 101.830612 
L 168.4625 100.514286 
L 168.4625 99.197959 
L 168.4625 97.881633 
L 168.4625 96.565306 
L 168.4625 95.24898 
L 168.4625 93.932653 
L 168.4625 92.616327 
L 168.4625 91.3 
L 168.4625 89.983673 
L 168.4625 88.667347 
L 168.4625 87.35102 
L 168.4625 86.034694 
L 168.4625 84.718367 
L 168.4625 83.402041 
L 168.4625 82.994671 
L 167.403189 83.325019 
L 167.158102 83.402041 
L 166.343878 83.657923 
L 165.284566 83.993426 
L 164.225255 84.331566 
L 163.165944 84.672387 
L 163.024165 84.718367 
L 162.106633 85.015931 
L 161.047321 85.362242 
L 159.98801 85.711364 
L 159.014924 86.034694 
L 158.928699 86.063344 
L 157.869388 86.418229 
L 156.810077 86.776068 
L 155.750765 87.136909 
L 155.127479 87.35102 
L 154.691454 87.500804 
L 153.632143 87.867805 
L 152.572832 88.237965 
L 151.51352 88.611339 
L 151.355999 88.667347 
L 150.454209 88.987984 
L 149.394898 89.367957 
L 148.335587 89.751317 
L 147.699259 89.983673 
L 147.276276 90.138127 
L 146.216964 90.528447 
L 145.157653 90.922343 
L 144.151317 91.3 
L 144.098342 91.31988 
L 143.039031 91.721128 
L 141.979719 92.126154 
L 140.920408 92.535032 
L 140.711795 92.616327 
L 139.861097 92.947835 
L 138.801786 93.36464 
L 137.742474 93.785524 
L 137.375794 93.932653 
L 136.683163 94.210569 
L 135.623852 94.639857 
L 134.564541 95.073474 
L 134.14011 95.24898 
L 133.50523 95.511508 
L 132.445918 95.954051 
L 131.386607 96.401195 
L 131.001861 96.565306 
L 130.327296 96.853038 
L 129.267985 97.30968 
L 128.208673 97.771222 
L 127.957985 97.881633 
L 127.149362 98.237773 
L 126.090051 98.709441 
L 125.03074 99.186341 
L 125.005219 99.197959 
L 123.971429 99.668589 
L 122.912117 100.156307 
L 122.143415 100.514286 
L 121.852806 100.64962 
L 120.793495 101.148659 
L 119.734184 101.653557 
L 119.367071 101.830612 
L 118.674872 102.164454 
L 117.615561 102.681494 
L 116.673426 103.146939 
L 116.55625 103.204827 
L 115.496939 103.734608 
L 114.437628 104.270998 
L 114.062656 104.463265 
L 113.378316 104.814163 
L 112.319005 105.364277 
L 111.529497 105.779592 
L 111.259694 105.92152 
L 110.200383 106.48608 
L 109.141071 107.05815 
L 109.072066 107.095918 
L 108.08176 107.637934 
L 107.022449 108.225643 
L 106.690706 108.412245 
L 105.963138 108.821495 
L 104.903827 109.425721 
L 104.380338 109.728571 
L 103.844515 110.038558 
L 102.785204 110.660255 
L 102.139287 111.044898 
L 101.725893 111.291073 
L 100.666582 111.931284 
L 99.96578 112.361224 
L 99.60727 112.58117 
L 98.547959 113.24103 
L 97.85794 113.677551 
L 97.488648 113.911173 
L 96.429337 114.591926 
L 95.813767 114.993878 
L 95.370026 115.28363 
L 94.310714 115.986643 
L 93.831138 116.310204 
L 93.251403 116.701341 
L 92.192092 117.428119 
L 91.907785 117.626531 
L 91.132781 118.167392 
L 90.073469 118.919598 
L 90.041287 118.942857 
L 89.014158 119.685196 
L 88.234109 120.259184 
L 87.954847 120.464674 
L 86.895536 121.258543 
L 86.480394 121.57551 
L 85.836224 122.067344 
L 84.776913 122.89165 
L 84.776678 122.891837 
L 83.717602 123.732068 
L 83.129233 124.208163 
L 82.658291 124.589239 
L 81.59898 125.463846 
L 81.527022 125.52449 
L 80.539668 126.356611 
L 79.977064 126.840816 
L 79.480357 127.268306 
L 78.469503 128.157143 
L 78.421046 128.199751 
L 77.361735 129.151819 
L 77.011777 129.473469 
L 76.302423 130.125445 
L 75.595973 130.789796 
L 75.243112 131.121629 
L 74.220486 132.106122 
L 74.183801 132.14144 
L 73.12449 133.186025 
L 72.890558 133.422449 
L 72.065179 134.25662 
L 71.599983 134.738776 
L 71.005867 135.354552 
L 70.347219 136.055102 
L 69.946556 136.481254 
L 69.131556 137.371429 
L 68.887245 137.638275 
L 67.952248 138.687755 
L 67.827934 138.82729 
L 66.808506 140.004082 
L 66.768622 140.050122 
L 65.709311 141.308748 
L 65.699785 141.320408 
L 64.65 142.605329 
L 64.65 142.636735 
L 64.65 143.953061 
L 64.65 145.269388 
L 64.65 146.585714 
L 64.65 147.902041 
L 64.65 149.218367 
L 64.65 150.534694 
L 64.65 151.85102 
L 64.65 153.167347 
L 64.65 154.483673 
L 64.65 155.8 
z
" style="fill:#a9dca3;"/>
   </g>
   <g id="PathCollection_5">
    <path clip-path="url(#p9174ed82ac)" d="M 65.699785 141.320408 
L 65.709311 141.308748 
L 66.768622 140.050122 
L 66.808506 140.004082 
L 67.827934 138.82729 
L 67.952248 138.687755 
L 68.887245 137.638275 
L 69.131556 137.371429 
L 69.946556 136.481254 
L 70.347219 136.055102 
L 71.005867 135.354552 
L 71.599983 134.738776 
L 72.065179 134.25662 
L 72.890558 133.422449 
L 73.12449 133.186025 
L 74.183801 132.14144 
L 74.220486 132.106122 
L 75.243112 131.121629 
L 75.595973 130.789796 
L 76.302423 130.125445 
L 77.011777 129.473469 
L 77.361735 129.151819 
L 78.421046 128.199751 
L 78.469503 128.157143 
L 79.480357 127.268306 
L 79.977064 126.840816 
L 80.539668 126.356611 
L 81.527022 125.52449 
L 81.59898 125.463846 
L 82.658291 124.589239 
L 83.129233 124.208163 
L 83.717602 123.732068 
L 84.776678 122.891837 
L 84.776913 122.89165 
L 85.836224 122.067344 
L 86.480394 121.57551 
L 86.895536 121.258543 
L 87.954847 120.464674 
L 88.234109 120.259184 
L 89.014158 119.685196 
L 90.041287 118.942857 
L 90.073469 118.919598 
L 91.132781 118.167392 
L 91.907785 117.626531 
L 92.192092 117.428119 
L 93.251403 116.701341 
L 93.831138 116.310204 
L 94.310714 115.986643 
L 95.370026 115.28363 
L 95.813767 114.993878 
L 96.429337 114.591926 
L 97.488648 113.911173 
L 97.85794 113.677551 
L 98.547959 113.24103 
L 99.60727 112.58117 
L 99.96578 112.361224 
L 100.666582 111.931284 
L 101.725893 111.291073 
L 102.139287 111.044898 
L 102.785204 110.660255 
L 103.844515 110.038558 
L 104.380338 109.728571 
L 104.903827 109.425721 
L 105.963138 108.821495 
L 106.690706 108.412245 
L 107.022449 108.225643 
L 108.08176 107.637934 
L 109.072066 107.095918 
L 109.141071 107.05815 
L 110.200383 106.48608 
L 111.259694 105.92152 
L 111.529497 105.779592 
L 112.319005 105.364277 
L 113.378316 104.814163 
L 114.062656 104.463265 
L 114.437628 104.270998 
L 115.496939 103.734608 
L 116.55625 103.204827 
L 116.673426 103.146939 
L 117.615561 102.681494 
L 118.674872 102.164454 
L 119.367071 101.830612 
L 119.734184 101.653557 
L 120.793495 101.148659 
L 121.852806 100.64962 
L 122.143415 100.514286 
L 122.912117 100.156307 
L 123.971429 99.668589 
L 125.005219 99.197959 
L 125.03074 99.186341 
L 126.090051 98.709441 
L 127.149362 98.237773 
L 127.957985 97.881633 
L 128.208673 97.771222 
L 129.267985 97.30968 
L 130.327296 96.853038 
L 131.001861 96.565306 
L 131.386607 96.401195 
L 132.445918 95.954051 
L 133.50523 95.511508 
L 134.14011 95.24898 
L 134.564541 95.073474 
L 135.623852 94.639857 
L 136.683163 94.210569 
L 137.375794 93.932653 
L 137.742474 93.785524 
L 138.801786 93.36464 
L 139.861097 92.947835 
L 140.711795 92.616327 
L 140.920408 92.535032 
L 141.979719 92.126154 
L 143.039031 91.721128 
L 144.098342 91.31988 
L 144.151317 91.3 
L 145.157653 90.922343 
L 146.216964 90.528447 
L 147.276276 90.138127 
L 147.699259 89.983673 
L 148.335587 89.751317 
L 149.394898 89.367957 
L 150.454209 88.987984 
L 151.355999 88.667347 
L 151.51352 88.611339 
L 152.572832 88.237965 
L 153.632143 87.867805 
L 154.691454 87.500804 
L 155.127479 87.35102 
L 155.750765 87.136909 
L 156.810077 86.776068 
L 157.869388 86.418229 
L 158.928699 86.063344 
L 159.014924 86.034694 
L 159.98801 85.711364 
L 161.047321 85.362242 
L 162.106633 85.015931 
L 163.024165 84.718367 
L 163.165944 84.672387 
L 164.225255 84.331566 
L 165.284566 83.993426 
L 166.343878 83.657923 
L 167.158102 83.402041 
L 167.403189 83.325019 
L 168.4625 82.994671 
L 168.4625 82.085714 
L 168.4625 80.769388 
L 168.4625 79.453061 
L 168.4625 78.136735 
L 168.4625 76.820408 
L 168.4625 75.504082 
L 168.4625 74.187755 
L 168.4625 72.871429 
L 168.4625 71.555102 
L 168.4625 70.238776 
L 168.4625 68.922449 
L 168.4625 67.606122 
L 168.4625 66.289796 
L 168.4625 64.973469 
L 168.4625 63.657143 
L 168.4625 62.340816 
L 168.4625 61.494671 
L 167.403189 61.825019 
L 166.343878 62.157923 
L 165.766414 62.340816 
L 165.284566 62.493426 
L 164.225255 62.831566 
L 163.165944 63.172387 
L 162.106633 63.515931 
L 161.674687 63.657143 
L 161.047321 63.862242 
L 159.98801 64.211364 
L 158.928699 64.563344 
L 157.869388 64.918229 
L 157.70586 64.973469 
L 156.810077 65.276068 
L 155.750765 65.636909 
L 154.691454 66.000804 
L 153.857307 66.289796 
L 153.632143 66.367805 
L 152.572832 66.737965 
L 151.51352 67.111339 
L 150.454209 67.487984 
L 150.124855 67.606122 
L 149.394898 67.867957 
L 148.335587 68.251317 
L 147.276276 68.638127 
L 146.504638 68.922449 
L 146.216964 69.028447 
L 145.157653 69.422343 
L 144.098342 69.81988 
L 143.039031 70.221128 
L 142.992874 70.238776 
L 141.979719 70.626154 
L 140.920408 71.035032 
L 139.861097 71.447835 
L 139.588477 71.555102 
L 138.801786 71.86464 
L 137.742474 72.285524 
L 136.683163 72.710569 
L 136.286225 72.871429 
L 135.623852 73.139857 
L 134.564541 73.573474 
L 133.50523 74.011508 
L 133.083348 74.187755 
L 132.445918 74.454051 
L 131.386607 74.901195 
L 130.327296 75.353038 
L 129.976907 75.504082 
L 129.267985 75.80968 
L 128.208673 76.271222 
L 127.149362 76.737773 
L 126.963774 76.820408 
L 126.090051 77.209441 
L 125.03074 77.686341 
L 124.0414 78.136735 
L 123.971429 78.168589 
L 122.912117 78.656307 
L 121.852806 79.14962 
L 121.208691 79.453061 
L 120.793495 79.648659 
L 119.734184 80.153557 
L 118.674872 80.664454 
L 118.459884 80.769388 
L 117.615561 81.181494 
L 116.55625 81.704827 
L 115.794656 82.085714 
L 115.496939 82.234608 
L 114.437628 82.770998 
L 113.378316 83.314163 
L 113.209096 83.402041 
L 112.319005 83.864277 
L 111.259694 84.42152 
L 110.702705 84.718367 
L 110.200383 84.98608 
L 109.141071 85.55815 
L 108.270388 86.034694 
L 108.08176 86.137934 
L 107.022449 86.725643 
L 105.963138 87.321495 
L 105.911375 87.35102 
L 104.903827 87.925721 
L 103.844515 88.538558 
L 103.625071 88.667347 
L 102.785204 89.160255 
L 101.725893 89.791073 
L 101.407211 89.983673 
L 100.666582 90.431284 
L 99.60727 91.08117 
L 99.25597 91.3 
L 98.547959 91.74103 
L 97.488648 92.411173 
L 97.169411 92.616327 
L 96.429337 93.091926 
L 95.370026 93.78363 
L 95.145475 93.932653 
L 94.310714 94.486643 
L 93.251403 95.201341 
L 93.181967 95.24898 
L 92.192092 95.928119 
L 91.27906 96.565306 
L 91.132781 96.667392 
L 90.073469 97.419598 
L 89.43418 97.881633 
L 89.014158 98.185196 
L 87.954847 98.964674 
L 87.643559 99.197959 
L 86.895536 99.758543 
L 85.905716 100.514286 
L 85.836224 100.567344 
L 84.776913 101.39165 
L 84.22362 101.830612 
L 83.717602 102.232068 
L 82.658291 103.089239 
L 82.588406 103.146939 
L 81.59898 103.963846 
L 81.006393 104.463265 
L 80.539668 104.856611 
L 79.480357 105.768306 
L 79.467522 105.779592 
L 78.421046 106.699751 
L 77.980253 107.095918 
L 77.361735 107.651819 
L 76.534387 108.412245 
L 76.302423 108.625445 
L 75.243112 109.621629 
L 75.132028 109.728571 
L 74.183801 110.64144 
L 73.774655 111.044898 
L 73.12449 111.686025 
L 72.456407 112.361224 
L 72.065179 112.75662 
L 71.176642 113.677551 
L 71.005867 113.854552 
L 69.946556 114.981254 
L 69.934999 114.993878 
L 68.887245 116.138275 
L 68.73407 116.310204 
L 67.827934 117.32729 
L 67.568709 117.626531 
L 66.768622 118.550122 
L 66.43808 118.942857 
L 65.709311 119.808748 
L 65.341304 120.259184 
L 64.65 121.105329 
L 64.65 121.57551 
L 64.65 122.891837 
L 64.65 124.208163 
L 64.65 125.52449 
L 64.65 126.840816 
L 64.65 128.157143 
L 64.65 129.473469 
L 64.65 130.789796 
L 64.65 132.106122 
L 64.65 133.422449 
L 64.65 134.738776 
L 64.65 136.055102 
L 64.65 137.371429 
L 64.65 138.687755 
L 64.65 140.004082 
L 64.65 141.320408 
L 64.65 142.605329 
z
" style="fill:#86cc85;"/>
   </g>
   <g id="PathCollection_6">
    <path clip-path="url(#p9174ed82ac)" d="M 65.341304 120.259184 
L 65.709311 119.808748 
L 66.43808 118.942857 
L 66.768622 118.550122 
L 67.568709 117.626531 
L 67.827934 117.32729 
L 68.73407 116.310204 
L 68.887245 116.138275 
L 69.934999 114.993878 
L 69.946556 114.981254 
L 71.005867 113.854552 
L 71.176642 113.677551 
L 72.065179 112.75662 
L 72.456407 112.361224 
L 73.12449 111.686025 
L 73.774655 111.044898 
L 74.183801 110.64144 
L 75.132028 109.728571 
L 75.243112 109.621629 
L 76.302423 108.625445 
L 76.534387 108.412245 
L 77.361735 107.651819 
L 77.980253 107.095918 
L 78.421046 106.699751 
L 79.467522 105.779592 
L 79.480357 105.768306 
L 80.539668 104.856611 
L 81.006393 104.463265 
L 81.59898 103.963846 
L 82.588406 103.146939 
L 82.658291 103.089239 
L 83.717602 102.232068 
L 84.22362 101.830612 
L 84.776913 101.39165 
L 85.836224 100.567344 
L 85.905716 100.514286 
L 86.895536 99.758543 
L 87.643559 99.197959 
L 87.954847 98.964674 
L 89.014158 98.185196 
L 89.43418 97.881633 
L 90.073469 97.419598 
L 91.132781 96.667392 
L 91.27906 96.565306 
L 92.192092 95.928119 
L 93.181967 95.24898 
L 93.251403 95.201341 
L 94.310714 94.486643 
L 95.145475 93.932653 
L 95.370026 93.78363 
L 96.429337 93.091926 
L 97.169411 92.616327 
L 97.488648 92.411173 
L 98.547959 91.74103 
L 99.25597 91.3 
L 99.60727 91.08117 
L 100.666582 90.431284 
L 101.407211 89.983673 
L 101.725893 89.791073 
L 102.785204 89.160255 
L 103.625071 88.667347 
L 103.844515 88.538558 
L 104.903827 87.925721 
L 105.911375 87.35102 
L 105.963138 87.321495 
L 107.022449 86.725643 
L 108.08176 86.137934 
L 108.270388 86.034694 
L 109.141071 85.55815 
L 110.200383 84.98608 
L 110.702705 84.718367 
L 111.259694 84.42152 
L 112.319005 83.864277 
L 113.209096 83.402041 
L 113.378316 83.314163 
L 114.437628 82.770998 
L 115.496939 82.234608 
L 115.794656 82.085714 
L 116.55625 81.704827 
L 117.615561 81.181494 
L 118.459884 80.769388 
L 118.674872 80.664454 
L 119.734184 80.153557 
L 120.793495 79.648659 
L 121.208691 79.453061 
L 121.852806 79.14962 
L 122.912117 78.656307 
L 123.971429 78.168589 
L 124.0414 78.136735 
L 125.03074 77.686341 
L 126.090051 77.209441 
L 126.963774 76.820408 
L 127.149362 76.737773 
L 128.208673 76.271222 
L 129.267985 75.80968 
L 129.976907 75.504082 
L 130.327296 75.353038 
L 131.386607 74.901195 
L 132.445918 74.454051 
L 133.083348 74.187755 
L 133.50523 74.011508 
L 134.564541 73.573474 
L 135.623852 73.139857 
L 136.286225 72.871429 
L 136.683163 72.710569 
L 137.742474 72.285524 
L 138.801786 71.86464 
L 139.588477 71.555102 
L 139.861097 71.447835 
L 140.920408 71.035032 
L 141.979719 70.626154 
L 142.992874 70.238776 
L 143.039031 70.221128 
L 144.098342 69.81988 
L 145.157653 69.422343 
L 146.216964 69.028447 
L 146.504638 68.922449 
L 147.276276 68.638127 
L 148.335587 68.251317 
L 149.394898 67.867957 
L 150.124855 67.606122 
L 150.454209 67.487984 
L 151.51352 67.111339 
L 152.572832 66.737965 
L 153.632143 66.367805 
L 153.857307 66.289796 
L 154.691454 66.000804 
L 155.750765 65.636909 
L 156.810077 65.276068 
L 157.70586 64.973469 
L 157.869388 64.918229 
L 158.928699 64.563344 
L 159.98801 64.211364 
L 161.047321 63.862242 
L 161.674687 63.657143 
L 162.106633 63.515931 
L 163.165944 63.172387 
L 164.225255 62.831566 
L 165.284566 62.493426 
L 165.766414 62.340816 
L 166.343878 62.157923 
L 167.403189 61.825019 
L 168.4625 61.494671 
L 168.4625 61.02449 
L 168.4625 59.708163 
L 168.4625 58.391837 
L 168.4625 57.07551 
L 168.4625 55.759184 
L 168.4625 54.442857 
L 168.4625 53.126531 
L 168.4625 51.810204 
L 168.4625 50.493878 
L 168.4625 49.177551 
L 168.4625 47.861224 
L 168.4625 46.544898 
L 168.4625 45.228571 
L 168.4625 43.912245 
L 168.4625 42.595918 
L 168.4625 41.279592 
L 168.4625 39.994671 
L 167.403189 40.325019 
L 166.343878 40.657923 
L 165.284566 40.993426 
L 164.388079 41.279592 
L 164.225255 41.331566 
L 163.165944 41.672387 
L 162.106633 42.015931 
L 161.047321 42.362242 
L 160.338297 42.595918 
L 159.98801 42.711364 
L 158.928699 43.063344 
L 157.869388 43.418229 
L 156.810077 43.776068 
L 156.410305 43.912245 
L 155.750765 44.136909 
L 154.691454 44.500804 
L 153.632143 44.867805 
L 152.599713 45.228571 
L 152.572832 45.237965 
L 151.51352 45.611339 
L 150.454209 45.987984 
L 149.394898 46.367957 
L 148.90597 46.544898 
L 148.335587 46.751317 
L 147.276276 47.138127 
L 146.216964 47.528447 
L 145.32202 47.861224 
L 145.157653 47.922343 
L 144.098342 48.31988 
L 143.039031 48.721128 
L 141.979719 49.126154 
L 141.846561 49.177551 
L 140.920408 49.535032 
L 139.861097 49.947835 
L 138.801786 50.36464 
L 138.476511 50.493878 
L 137.742474 50.785524 
L 136.683163 51.210569 
L 135.623852 51.639857 
L 135.207699 51.810204 
L 134.564541 52.073474 
L 133.50523 52.511508 
L 132.445918 52.954051 
L 132.037303 53.126531 
L 131.386607 53.401195 
L 130.327296 53.853038 
L 129.267985 54.30968 
L 128.962322 54.442857 
L 128.208673 54.771222 
L 127.149362 55.237773 
L 126.090051 55.709441 
L 125.979561 55.759184 
L 125.03074 56.186341 
L 123.971429 56.668589 
L 123.087606 57.07551 
L 122.912117 57.156307 
L 121.852806 57.64962 
L 120.793495 58.148659 
L 120.283291 58.391837 
L 119.734184 58.653557 
L 118.674872 59.164454 
L 117.615561 59.681494 
L 117.561579 59.708163 
L 116.55625 60.204827 
L 115.496939 60.734608 
L 114.924454 61.02449 
L 114.437628 61.270998 
L 113.378316 61.814163 
L 112.364181 62.340816 
L 112.319005 62.364277 
L 111.259694 62.92152 
L 110.200383 63.48608 
L 109.883622 63.657143 
L 109.141071 64.05815 
L 108.08176 64.637934 
L 107.476977 64.973469 
L 107.022449 65.225643 
L 105.963138 65.821495 
L 105.142126 66.289796 
L 104.903827 66.425721 
L 103.844515 67.038558 
L 102.877441 67.606122 
L 102.785204 67.660255 
L 101.725893 68.291073 
L 100.6812 68.922449 
L 100.666582 68.931284 
L 99.60727 69.58117 
L 98.551578 70.238776 
L 98.547959 70.24103 
L 97.488648 70.911173 
L 96.486638 71.555102 
L 96.429337 71.591926 
L 95.370026 72.28363 
L 94.484321 72.871429 
L 94.310714 72.986643 
L 93.251403 73.701341 
L 92.542432 74.187755 
L 92.192092 74.428119 
L 91.132781 75.167392 
L 90.658629 75.504082 
L 90.073469 75.919598 
L 89.014158 76.685196 
L 88.830405 76.820408 
L 87.954847 77.464674 
L 87.058072 78.136735 
L 86.895536 78.258543 
L 85.836224 79.067344 
L 85.340541 79.453061 
L 84.776913 79.89165 
L 83.717602 80.732068 
L 83.671481 80.769388 
L 82.658291 81.589239 
L 82.056967 82.085714 
L 81.59898 82.463846 
L 80.539668 83.356611 
L 80.486883 83.402041 
L 79.480357 84.268306 
L 78.968512 84.718367 
L 78.421046 85.199751 
L 77.492053 86.034694 
L 77.361735 86.151819 
L 76.302423 87.125445 
L 76.062554 87.35102 
L 75.243112 88.121629 
L 74.676257 88.667347 
L 74.183801 89.14144 
L 73.329694 89.983673 
L 73.12449 90.186025 
L 72.065179 91.25662 
L 72.023325 91.3 
L 71.005867 92.354552 
L 70.75975 92.616327 
L 69.946556 93.481254 
L 69.533277 93.932653 
L 68.887245 94.638275 
L 68.343159 95.24898 
L 67.827934 95.82729 
L 67.188607 96.565306 
L 66.768622 97.050122 
L 66.068789 97.881633 
L 65.709311 98.308748 
L 64.982822 99.197959 
L 64.65 99.605329 
L 64.65 100.514286 
L 64.65 101.830612 
L 64.65 103.146939 
L 64.65 104.463265 
L 64.65 105.779592 
L 64.65 107.095918 
L 64.65 108.412245 
L 64.65 109.728571 
L 64.65 111.044898 
L 64.65 112.361224 
L 64.65 113.677551 
L 64.65 114.993878 
L 64.65 116.310204 
L 64.65 117.626531 
L 64.65 118.942857 
L 64.65 120.259184 
L 64.65 121.105329 
z
" style="fill:#60ba6c;"/>
   </g>
   <g id="PathCollection_7">
    <path clip-path="url(#p9174ed82ac)" d="M 64.982822 99.197959 
L 65.709311 98.308748 
L 66.068789 97.881633 
L 66.768622 97.050122 
L 67.188607 96.565306 
L 67.827934 95.82729 
L 68.343159 95.24898 
L 68.887245 94.638275 
L 69.533277 93.932653 
L 69.946556 93.481254 
L 70.75975 92.616327 
L 71.005867 92.354552 
L 72.023325 91.3 
L 72.065179 91.25662 
L 73.12449 90.186025 
L 73.329694 89.983673 
L 74.183801 89.14144 
L 74.676257 88.667347 
L 75.243112 88.121629 
L 76.062554 87.35102 
L 76.302423 87.125445 
L 77.361735 86.151819 
L 77.492053 86.034694 
L 78.421046 85.199751 
L 78.968512 84.718367 
L 79.480357 84.268306 
L 80.486883 83.402041 
L 80.539668 83.356611 
L 81.59898 82.463846 
L 82.056967 82.085714 
L 82.658291 81.589239 
L 83.671481 80.769388 
L 83.717602 80.732068 
L 84.776913 79.89165 
L 85.340541 79.453061 
L 85.836224 79.067344 
L 86.895536 78.258543 
L 87.058072 78.136735 
L 87.954847 77.464674 
L 88.830405 76.820408 
L 89.014158 76.685196 
L 90.073469 75.919598 
L 90.658629 75.504082 
L 91.132781 75.167392 
L 92.192092 74.428119 
L 92.542432 74.187755 
L 93.251403 73.701341 
L 94.310714 72.986643 
L 94.484321 72.871429 
L 95.370026 72.28363 
L 96.429337 71.591926 
L 96.486638 71.555102 
L 97.488648 70.911173 
L 98.547959 70.24103 
L 98.551578 70.238776 
L 99.60727 69.58117 
L 100.666582 68.931284 
L 100.6812 68.922449 
L 101.725893 68.291073 
L 102.785204 67.660255 
L 102.877441 67.606122 
L 103.844515 67.038558 
L 104.903827 66.425721 
L 105.142126 66.289796 
L 105.963138 65.821495 
L 107.022449 65.225643 
L 107.476977 64.973469 
L 108.08176 64.637934 
L 109.141071 64.05815 
L 109.883622 63.657143 
L 110.200383 63.48608 
L 111.259694 62.92152 
L 112.319005 62.364277 
L 112.364181 62.340816 
L 113.378316 61.814163 
L 114.437628 61.270998 
L 114.924454 61.02449 
L 115.496939 60.734608 
L 116.55625 60.204827 
L 117.561579 59.708163 
L 117.615561 59.681494 
L 118.674872 59.164454 
L 119.734184 58.653557 
L 120.283291 58.391837 
L 120.793495 58.148659 
L 121.852806 57.64962 
L 122.912117 57.156307 
L 123.087606 57.07551 
L 123.971429 56.668589 
L 125.03074 56.186341 
L 125.979561 55.759184 
L 126.090051 55.709441 
L 127.149362 55.237773 
L 128.208673 54.771222 
L 128.962322 54.442857 
L 129.267985 54.30968 
L 130.327296 53.853038 
L 131.386607 53.401195 
L 132.037303 53.126531 
L 132.445918 52.954051 
L 133.50523 52.511508 
L 134.564541 52.073474 
L 135.207699 51.810204 
L 135.623852 51.639857 
L 136.683163 51.210569 
L 137.742474 50.785524 
L 138.476511 50.493878 
L 138.801786 50.36464 
L 139.861097 49.947835 
L 140.920408 49.535032 
L 141.846561 49.177551 
L 141.979719 49.126154 
L 143.039031 48.721128 
L 144.098342 48.31988 
L 145.157653 47.922343 
L 145.32202 47.861224 
L 146.216964 47.528447 
L 147.276276 47.138127 
L 148.335587 46.751317 
L 148.90597 46.544898 
L 149.394898 46.367957 
L 150.454209 45.987984 
L 151.51352 45.611339 
L 152.572832 45.237965 
L 152.599713 45.228571 
L 153.632143 44.867805 
L 154.691454 44.500804 
L 155.750765 44.136909 
L 156.410305 43.912245 
L 156.810077 43.776068 
L 157.869388 43.418229 
L 158.928699 43.063344 
L 159.98801 42.711364 
L 160.338297 42.595918 
L 161.047321 42.362242 
L 162.106633 42.015931 
L 163.165944 41.672387 
L 164.225255 41.331566 
L 164.388079 41.279592 
L 165.284566 40.993426 
L 166.343878 40.657923 
L 167.403189 40.325019 
L 168.4625 39.994671 
L 168.4625 39.963265 
L 168.4625 38.646939 
L 168.4625 37.330612 
L 168.4625 36.014286 
L 168.4625 34.697959 
L 168.4625 33.381633 
L 168.4625 32.065306 
L 168.4625 30.74898 
L 168.4625 29.432653 
L 168.4625 28.116327 
L 168.4625 26.8 
L 167.403189 26.8 
L 166.343878 26.8 
L 165.284566 26.8 
L 164.225255 26.8 
L 163.165944 26.8 
L 162.106633 26.8 
L 161.047321 26.8 
L 159.98801 26.8 
L 158.928699 26.8 
L 157.869388 26.8 
L 156.810077 26.8 
L 155.750765 26.8 
L 154.691454 26.8 
L 153.632143 26.8 
L 152.572832 26.8 
L 151.51352 26.8 
L 150.454209 26.8 
L 149.394898 26.8 
L 148.335587 26.8 
L 147.276276 26.8 
L 146.216964 26.8 
L 145.157653 26.8 
L 144.151317 26.8 
L 144.098342 26.81988 
L 143.039031 27.221128 
L 141.979719 27.626154 
L 140.920408 28.035032 
L 140.711795 28.116327 
L 139.861097 28.447835 
L 138.801786 28.86464 
L 137.742474 29.285524 
L 137.375794 29.432653 
L 136.683163 29.710569 
L 135.623852 30.139857 
L 134.564541 30.573474 
L 134.14011 30.74898 
L 133.50523 31.011508 
L 132.445918 31.454051 
L 131.386607 31.901195 
L 131.001861 32.065306 
L 130.327296 32.353038 
L 129.267985 32.80968 
L 128.208673 33.271222 
L 127.957985 33.381633 
L 127.149362 33.737773 
L 126.090051 34.209441 
L 125.03074 34.686341 
L 125.005219 34.697959 
L 123.971429 35.168589 
L 122.912117 35.656307 
L 122.143415 36.014286 
L 121.852806 36.14962 
L 120.793495 36.648659 
L 119.734184 37.153557 
L 119.367071 37.330612 
L 118.674872 37.664454 
L 117.615561 38.181494 
L 116.673426 38.646939 
L 116.55625 38.704827 
L 115.496939 39.234608 
L 114.437628 39.770998 
L 114.062656 39.963265 
L 113.378316 40.314163 
L 112.319005 40.864277 
L 111.529497 41.279592 
L 111.259694 41.42152 
L 110.200383 41.98608 
L 109.141071 42.55815 
L 109.072066 42.595918 
L 108.08176 43.137934 
L 107.022449 43.725643 
L 106.690706 43.912245 
L 105.963138 44.321495 
L 104.903827 44.925721 
L 104.380338 45.228571 
L 103.844515 45.538558 
L 102.785204 46.160255 
L 102.139287 46.544898 
L 101.725893 46.791073 
L 100.666582 47.431284 
L 99.96578 47.861224 
L 99.60727 48.08117 
L 98.547959 48.74103 
L 97.85794 49.177551 
L 97.488648 49.411173 
L 96.429337 50.091926 
L 95.813767 50.493878 
L 95.370026 50.78363 
L 94.310714 51.486643 
L 93.831138 51.810204 
L 93.251403 52.201341 
L 92.192092 52.928119 
L 91.907785 53.126531 
L 91.132781 53.667392 
L 90.073469 54.419598 
L 90.041287 54.442857 
L 89.014158 55.185196 
L 88.234109 55.759184 
L 87.954847 55.964674 
L 86.895536 56.758543 
L 86.480394 57.07551 
L 85.836224 57.567344 
L 84.776913 58.39165 
L 84.776678 58.391837 
L 83.717602 59.232068 
L 83.129233 59.708163 
L 82.658291 60.089239 
L 81.59898 60.963846 
L 81.527022 61.02449 
L 80.539668 61.856611 
L 79.977064 62.340816 
L 79.480357 62.768306 
L 78.469503 63.657143 
L 78.421046 63.699751 
L 77.361735 64.651819 
L 77.011777 64.973469 
L 76.302423 65.625445 
L 75.595973 66.289796 
L 75.243112 66.621629 
L 74.220486 67.606122 
L 74.183801 67.64144 
L 73.12449 68.686025 
L 72.890558 68.922449 
L 72.065179 69.75662 
L 71.599983 70.238776 
L 71.005867 70.854552 
L 70.347219 71.555102 
L 69.946556 71.981254 
L 69.131556 72.871429 
L 68.887245 73.138275 
L 67.952248 74.187755 
L 67.827934 74.32729 
L 66.808506 75.504082 
L 66.768622 75.550122 
L 65.709311 76.808748 
L 65.699785 76.820408 
L 64.65 78.105329 
L 64.65 78.136735 
L 64.65 79.453061 
L 64.65 80.769388 
L 64.65 82.085714 
L 64.65 83.402041 
L 64.65 84.718367 
L 64.65 86.034694 
L 64.65 87.35102 
L 64.65 88.667347 
L 64.65 89.983673 
L 64.65 91.3 
L 64.65 92.616327 
L 64.65 93.932653 
L 64.65 95.24898 
L 64.65 96.565306 
L 64.65 97.881633 
L 64.65 99.197959 
L 64.65 99.605329 
z
" style="fill:#3ba458;"/>
   </g>
   <g id="PathCollection_8">
    <path clip-path="url(#p9174ed82ac)" d="M 65.699785 76.820408 
L 65.709311 76.808748 
L 66.768622 75.550122 
L 66.808506 75.504082 
L 67.827934 74.32729 
L 67.952248 74.187755 
L 68.887245 73.138275 
L 69.131556 72.871429 
L 69.946556 71.981254 
L 70.347219 71.555102 
L 71.005867 70.854552 
L 71.599983 70.238776 
L 72.065179 69.75662 
L 72.890558 68.922449 
L 73.12449 68.686025 
L 74.183801 67.64144 
L 74.220486 67.606122 
L 75.243112 66.621629 
L 75.595973 66.289796 
L 76.302423 65.625445 
L 77.011777 64.973469 
L 77.361735 64.651819 
L 78.421046 63.699751 
L 78.469503 63.657143 
L 79.480357 62.768306 
L 79.977064 62.340816 
L 80.539668 61.856611 
L 81.527022 61.02449 
L 81.59898 60.963846 
L 82.658291 60.089239 
L 83.129233 59.708163 
L 83.717602 59.232068 
L 84.776678 58.391837 
L 84.776913 58.39165 
L 85.836224 57.567344 
L 86.480394 57.07551 
L 86.895536 56.758543 
L 87.954847 55.964674 
L 88.234109 55.759184 
L 89.014158 55.185196 
L 90.041287 54.442857 
L 90.073469 54.419598 
L 91.132781 53.667392 
L 91.907785 53.126531 
L 92.192092 52.928119 
L 93.251403 52.201341 
L 93.831138 51.810204 
L 94.310714 51.486643 
L 95.370026 50.78363 
L 95.813767 50.493878 
L 96.429337 50.091926 
L 97.488648 49.411173 
L 97.85794 49.177551 
L 98.547959 48.74103 
L 99.60727 48.08117 
L 99.96578 47.861224 
L 100.666582 47.431284 
L 101.725893 46.791073 
L 102.139287 46.544898 
L 102.785204 46.160255 
L 103.844515 45.538558 
L 104.380338 45.228571 
L 104.903827 44.925721 
L 105.963138 44.321495 
L 106.690706 43.912245 
L 107.022449 43.725643 
L 108.08176 43.137934 
L 109.072066 42.595918 
L 109.141071 42.55815 
L 110.200383 41.98608 
L 111.259694 41.42152 
L 111.529497 41.279592 
L 112.319005 40.864277 
L 113.378316 40.314163 
L 114.062656 39.963265 
L 114.437628 39.770998 
L 115.496939 39.234608 
L 116.55625 38.704827 
L 116.673426 38.646939 
L 117.615561 38.181494 
L 118.674872 37.664454 
L 119.367071 37.330612 
L 119.734184 37.153557 
L 120.793495 36.648659 
L 121.852806 36.14962 
L 122.143415 36.014286 
L 122.912117 35.656307 
L 123.971429 35.168589 
L 125.005219 34.697959 
L 125.03074 34.686341 
L 126.090051 34.209441 
L 127.149362 33.737773 
L 127.957985 33.381633 
L 128.208673 33.271222 
L 129.267985 32.80968 
L 130.327296 32.353038 
L 131.001861 32.065306 
L 131.386607 31.901195 
L 132.445918 31.454051 
L 133.50523 31.011508 
L 134.14011 30.74898 
L 134.564541 30.573474 
L 135.623852 30.139857 
L 136.683163 29.710569 
L 137.375794 29.432653 
L 137.742474 29.285524 
L 138.801786 28.86464 
L 139.861097 28.447835 
L 140.711795 28.116327 
L 140.920408 28.035032 
L 141.979719 27.626154 
L 143.039031 27.221128 
L 144.098342 26.81988 
L 144.151317 26.8 
L 144.098342 26.8 
L 143.039031 26.8 
L 141.979719 26.8 
L 140.920408 26.8 
L 139.861097 26.8 
L 138.801786 26.8 
L 137.742474 26.8 
L 136.683163 26.8 
L 135.623852 26.8 
L 134.564541 26.8 
L 133.50523 26.8 
L 132.445918 26.8 
L 131.386607 26.8 
L 130.327296 26.8 
L 129.267985 26.8 
L 128.208673 26.8 
L 127.149362 26.8 
L 126.090051 26.8 
L 125.03074 26.8 
L 123.971429 26.8 
L 122.912117 26.8 
L 121.852806 26.8 
L 120.793495 26.8 
L 119.734184 26.8 
L 118.674872 26.8 
L 117.615561 26.8 
L 116.55625 26.8 
L 115.496939 26.8 
L 114.437628 26.8 
L 113.378316 26.8 
L 112.319005 26.8 
L 111.259694 26.8 
L 110.200383 26.8 
L 109.141071 26.8 
L 108.08176 26.8 
L 107.022449 26.8 
L 105.963138 26.8 
L 104.903827 26.8 
L 103.844515 26.8 
L 102.785204 26.8 
L 101.725893 26.8 
L 100.666582 26.8 
L 99.60727 26.8 
L 99.25597 26.8 
L 98.547959 27.24103 
L 97.488648 27.911173 
L 97.169411 28.116327 
L 96.429337 28.591926 
L 95.370026 29.28363 
L 95.145475 29.432653 
L 94.310714 29.986643 
L 93.251403 30.701341 
L 93.181967 30.74898 
L 92.192092 31.428119 
L 91.27906 32.065306 
L 91.132781 32.167392 
L 90.073469 32.919598 
L 89.43418 33.381633 
L 89.014158 33.685196 
L 87.954847 34.464674 
L 87.643559 34.697959 
L 86.895536 35.258543 
L 85.905716 36.014286 
L 85.836224 36.067344 
L 84.776913 36.89165 
L 84.22362 37.330612 
L 83.717602 37.732068 
L 82.658291 38.589239 
L 82.588406 38.646939 
L 81.59898 39.463846 
L 81.006393 39.963265 
L 80.539668 40.356611 
L 79.480357 41.268306 
L 79.467522 41.279592 
L 78.421046 42.199751 
L 77.980253 42.595918 
L 77.361735 43.151819 
L 76.534387 43.912245 
L 76.302423 44.125445 
L 75.243112 45.121629 
L 75.132028 45.228571 
L 74.183801 46.14144 
L 73.774655 46.544898 
L 73.12449 47.186025 
L 72.456407 47.861224 
L 72.065179 48.25662 
L 71.176642 49.177551 
L 71.005867 49.354552 
L 69.946556 50.481254 
L 69.934999 50.493878 
L 68.887245 51.638275 
L 68.73407 51.810204 
L 67.827934 52.82729 
L 67.568709 53.126531 
L 66.768622 54.050122 
L 66.43808 54.442857 
L 65.709311 55.308748 
L 65.341304 55.759184 
L 64.65 56.605329 
L 64.65 57.07551 
L 64.65 58.391837 
L 64.65 59.708163 
L 64.65 61.02449 
L 64.65 62.340816 
L 64.65 63.657143 
L 64.65 64.973469 
L 64.65 66.289796 
L 64.65 67.606122 
L 64.65 68.922449 
L 64.65 70.238776 
L 64.65 71.555102 
L 64.65 72.871429 
L 64.65 74.187755 
L 64.65 75.504082 
L 64.65 76.820408 
L 64.65 78.105329 
z
" style="fill:#228a44;"/>
   </g>
   <g id="PathCollection_9">
    <path clip-path="url(#p9174ed82ac)" d="M 65.341304 55.759184 
L 65.709311 55.308748 
L 66.43808 54.442857 
L 66.768622 54.050122 
L 67.568709 53.126531 
L 67.827934 52.82729 
L 68.73407 51.810204 
L 68.887245 51.638275 
L 69.934999 50.493878 
L 69.946556 50.481254 
L 71.005867 49.354552 
L 71.176642 49.177551 
L 72.065179 48.25662 
L 72.456407 47.861224 
L 73.12449 47.186025 
L 73.774655 46.544898 
L 74.183801 46.14144 
L 75.132028 45.228571 
L 75.243112 45.121629 
L 76.302423 44.125445 
L 76.534387 43.912245 
L 77.361735 43.151819 
L 77.980253 42.595918 
L 78.421046 42.199751 
L 79.467522 41.279592 
L 79.480357 41.268306 
L 80.539668 40.356611 
L 81.006393 39.963265 
L 81.59898 39.463846 
L 82.588406 38.646939 
L 82.658291 38.589239 
L 83.717602 37.732068 
L 84.22362 37.330612 
L 84.776913 36.89165 
L 85.836224 36.067344 
L 85.905716 36.014286 
L 86.895536 35.258543 
L 87.643559 34.697959 
L 87.954847 34.464674 
L 89.014158 33.685196 
L 89.43418 33.381633 
L 90.073469 32.919598 
L 91.132781 32.167392 
L 91.27906 32.065306 
L 92.192092 31.428119 
L 93.181967 30.74898 
L 93.251403 30.701341 
L 94.310714 29.986643 
L 95.145475 29.432653 
L 95.370026 29.28363 
L 96.429337 28.591926 
L 97.169411 28.116327 
L 97.488648 27.911173 
L 98.547959 27.24103 
L 99.25597 26.8 
L 98.547959 26.8 
L 97.488648 26.8 
L 96.429337 26.8 
L 95.370026 26.8 
L 94.310714 26.8 
L 93.251403 26.8 
L 92.192092 26.8 
L 91.132781 26.8 
L 90.073469 26.8 
L 89.014158 26.8 
L 87.954847 26.8 
L 86.895536 26.8 
L 85.836224 26.8 
L 84.776913 26.8 
L 83.717602 26.8 
L 82.658291 26.8 
L 81.59898 26.8 
L 80.539668 26.8 
L 79.480357 26.8 
L 78.421046 26.8 
L 77.361735 26.8 
L 76.302423 26.8 
L 75.243112 26.8 
L 74.183801 26.8 
L 73.12449 26.8 
L 72.065179 26.8 
L 72.023325 26.8 
L 71.005867 27.854552 
L 70.75975 28.116327 
L 69.946556 28.981254 
L 69.533277 29.432653 
L 68.887245 30.138275 
L 68.343159 30.74898 
L 67.827934 31.32729 
L 67.188607 32.065306 
L 66.768622 32.550122 
L 66.068789 33.381633 
L 65.709311 33.808748 
L 64.982822 34.697959 
L 64.65 35.105329 
L 64.65 36.014286 
L 64.65 37.330612 
L 64.65 38.646939 
L 64.65 39.963265 
L 64.65 41.279592 
L 64.65 42.595918 
L 64.65 43.912245 
L 64.65 45.228571 
L 64.65 46.544898 
L 64.65 47.861224 
L 64.65 49.177551 
L 64.65 50.493878 
L 64.65 51.810204 
L 64.65 53.126531 
L 64.65 54.442857 
L 64.65 55.759184 
L 64.65 56.605329 
z
" style="fill:#077331;"/>
   </g>
   <g id="PathCollection_10">
    <path clip-path="url(#p9174ed82ac)" d="M 64.982822 34.697959 
L 65.709311 33.808748 
L 66.068789 33.381633 
L 66.768622 32.550122 
L 67.188607 32.065306 
L 67.827934 31.32729 
L 68.343159 30.74898 
L 68.887245 30.138275 
L 69.533277 29.432653 
L 69.946556 28.981254 
L 70.75975 28.116327 
L 71.005867 27.854552 
L 72.023325 26.8 
L 71.005867 26.8 
L 69.946556 26.8 
L 68.887245 26.8 
L 67.827934 26.8 
L 66.768622 26.8 
L 65.709311 26.8 
L 64.65 26.8 
L 64.65 28.116327 
L 64.65 29.432653 
L 64.65 30.74898 
L 64.65 32.065306 
L 64.65 33.381633 
L 64.65 34.697959 
L 64.65 35.105329 
z
" style="fill:#005321;"/>
   </g>
   <g id="matplotlib.axis_1">
    <g id="xtick_1">
     <g id="line2d_1">
      <defs>
       <path d="M 0 0 
L 0 3.5 
" id="m2493660c21" style="stroke:#000000;stroke-width:0.8;"/>
      </defs>
      <g>
       <use style="stroke:#000000;stroke-width:0.8;" x="64.65" xlink:href="#m2493660c21" y="155.8"/>
      </g>
     </g>
     <g id="text_1">
      <!-- 0.5 -->
      <defs>
       <path d="M 31.78125 66.40625 
Q 24.171875 66.40625 20.328125 58.90625 
Q 16.5 51.421875 16.5 36.375 
Q 16.5 21.390625 20.328125 13.890625 
Q 24.171875 6.390625 31.78125 6.390625 
Q 39.453125 6.390625 43.28125 13.890625 
Q 47.125 21.390625 47.125 36.375 
Q 47.125 51.421875 43.28125 58.90625 
Q 39.453125 66.40625 31.78125 66.40625 
z
M 31.78125 74.21875 
Q 44.046875 74.21875 50.515625 64.515625 
Q 56.984375 54.828125 56.984375 36.375 
Q 56.984375 17.96875 50.515625 8.265625 
Q 44.046875 -1.421875 31.78125 -1.421875 
Q 19.53125 -1.421875 13.0625 8.265625 
Q 6.59375 17.96875 6.59375 36.375 
Q 6.59375 54.828125 13.0625 64.515625 
Q 19.53125 74.21875 31.78125 74.21875 
z
" id="DejaVuSans-30"/>
       <path d="M 10.6875 12.40625 
L 21 12.40625 
L 21 0 
L 10.6875 0 
z
" id="DejaVuSans-2e"/>
       <path d="M 10.796875 72.90625 
L 49.515625 72.90625 
L 49.515625 64.59375 
L 19.828125 64.59375 
L 19.828125 46.734375 
Q 21.96875 47.46875 24.109375 47.828125 
Q 26.265625 48.1875 28.421875 48.1875 
Q 40.625 48.1875 47.75 41.5 
Q 54.890625 34.8125 54.890625 23.390625 
Q 54.890625 11.625 47.5625 5.09375 
Q 40.234375 -1.421875 26.90625 -1.421875 
Q 22.3125 -1.421875 17.546875 -0.640625 
Q 12.796875 0.140625 7.71875 1.703125 
L 7.71875 11.625 
Q 12.109375 9.234375 16.796875 8.0625 
Q 21.484375 6.890625 26.703125 6.890625 
Q 35.15625 6.890625 40.078125 11.328125 
Q 45.015625 15.765625 45.015625 23.390625 
Q 45.015625 31 40.078125 35.4375 
Q 35.15625 39.890625 26.703125 39.890625 
Q 22.75 39.890625 18.8125 39.015625 
Q 14.890625 38.140625 10.796875 36.28125 
z
" id="DejaVuSans-35"/>
      </defs>
      <g transform="translate(56.698438 170.398438)scale(0.1 -0.1)">
       <use xlink:href="#DejaVuSans-30"/>
       <use x="63.623047" xlink:href="#DejaVuSans-2e"/>
       <use x="95.410156" xlink:href="#DejaVuSans-35"/>
      </g>
     </g>
    </g>
    <g id="xtick_2">
     <g id="line2d_2">
      <g>
       <use style="stroke:#000000;stroke-width:0.8;" x="99.254167" xlink:href="#m2493660c21" y="155.8"/>
      </g>
     </g>
     <g id="text_2">
      <!-- 1.0 -->
      <defs>
       <path d="M 12.40625 8.296875 
L 28.515625 8.296875 
L 28.515625 63.921875 
L 10.984375 60.40625 
L 10.984375 69.390625 
L 28.421875 72.90625 
L 38.28125 72.90625 
L 38.28125 8.296875 
L 54.390625 8.296875 
L 54.390625 0 
L 12.40625 0 
z
" id="DejaVuSans-31"/>
      </defs>
      <g transform="translate(91.302604 170.398438)scale(0.1 -0.1)">
       <use xlink:href="#DejaVuSans-31"/>
       <use x="63.623047" xlink:href="#DejaVuSans-2e"/>
       <use x="95.410156" xlink:href="#DejaVuSans-30"/>
      </g>
     </g>
    </g>
    <g id="xtick_3">
     <g id="line2d_3">
      <g>
       <use style="stroke:#000000;stroke-width:0.8;" x="133.858333" xlink:href="#m2493660c21" y="155.8"/>
      </g>
     </g>
     <g id="text_3">
      <!-- 1.5 -->
      <g transform="translate(125.906771 170.398438)scale(0.1 -0.1)">
       <use xlink:href="#DejaVuSans-31"/>
       <use x="63.623047" xlink:href="#DejaVuSans-2e"/>
       <use x="95.410156" xlink:href="#DejaVuSans-35"/>
      </g>
     </g>
    </g>
    <g id="xtick_4">
     <g id="line2d_4">
      <g>
       <use style="stroke:#000000;stroke-width:0.8;" x="168.4625" xlink:href="#m2493660c21" y="155.8"/>
      </g>
     </g>
     <g id="text_4">
      <!-- 2.0 -->
      <defs>
       <path d="M 19.1875 8.296875 
L 53.609375 8.296875 
L 53.609375 0 
L 7.328125 0 
L 7.328125 8.296875 
Q 12.9375 14.109375 22.625 23.890625 
Q 32.328125 33.6875 34.8125 36.53125 
Q 39.546875 41.84375 41.421875 45.53125 
Q 43.3125 49.21875 43.3125 52.78125 
Q 43.3125 58.59375 39.234375 62.25 
Q 35.15625 65.921875 28.609375 65.921875 
Q 23.96875 65.921875 18.8125 64.3125 
Q 13.671875 62.703125 7.8125 59.421875 
L 7.8125 69.390625 
Q 13.765625 71.78125 18.9375 73 
Q 24.125 74.21875 28.421875 74.21875 
Q 39.75 74.21875 46.484375 68.546875 
Q 53.21875 62.890625 53.21875 53.421875 
Q 53.21875 48.921875 51.53125 44.890625 
Q 49.859375 40.875 45.40625 35.40625 
Q 44.1875 33.984375 37.640625 27.21875 
Q 31.109375 20.453125 19.1875 8.296875 
z
" id="DejaVuSans-32"/>
      </defs>
      <g transform="translate(160.510938 170.398438)scale(0.1 -0.1)">
       <use xlink:href="#DejaVuSans-32"/>
       <use x="63.623047" xlink:href="#DejaVuSans-2e"/>
       <use x="95.410156" xlink:href="#DejaVuSans-30"/>
      </g>
     </g>
    </g>
    <g id="text_5">
     <!-- $r$ -->
     <defs>
      <path d="M 44.578125 46.390625 
Q 43.21875 47.125 41.453125 47.515625 
Q 39.703125 47.90625 37.703125 47.90625 
Q 30.515625 47.90625 25.140625 42.453125 
Q 19.78125 37.015625 18.015625 27.875 
L 12.5 0 
L 3.515625 0 
L 14.203125 54.6875 
L 23.1875 54.6875 
L 21.484375 46.1875 
Q 25.046875 50.921875 30 53.453125 
Q 34.96875 56 40.578125 56 
Q 42.046875 56 43.453125 55.828125 
Q 44.875 55.671875 46.296875 55.28125 
z
" id="DejaVuSans-Oblique-72"/>
     </defs>
     <g transform="translate(113.61625 187.115938)scale(0.14 -0.14)">
      <use xlink:href="#DejaVuSans-Oblique-72"/>
     </g>
    </g>
   </g>
   <g id="matplotlib.axis_2">
    <g id="ytick_1">
     <g id="line2d_5">
      <defs>
       <path d="M 0 0 
L -3.5 0 
" id="ma1ae1d0958" style="stroke:#000000;stroke-width:0.8;"/>
      </defs>
      <g>
       <use style="stroke:#000000;stroke-width:0.8;" x="64.65" xlink:href="#ma1ae1d0958" y="155.8"/>
      </g>
     </g>
     <g id="text_6">
      <!-- 1.0 -->
      <defs>
       <path d="M 10.59375 35.5 
L 73.1875 35.5 
L 73.1875 27.203125 
L 10.59375 27.203125 
z
" id="DejaVuSans-2212"/>
      </defs>
      <g transform="translate(33.367188 159.599219)scale(0.1 -0.1)">
       <use xlink:href="#DejaVuSans-2212"/>
       <use x="83.789062" xlink:href="#DejaVuSans-31"/>
       <use x="147.412109" xlink:href="#DejaVuSans-2e"/>
       <use x="179.199219" xlink:href="#DejaVuSans-30"/>
      </g>
     </g>
    </g>
    <g id="ytick_2">
     <g id="line2d_6">
      <g>
       <use style="stroke:#000000;stroke-width:0.8;" x="64.65" xlink:href="#ma1ae1d0958" y="134.3"/>
      </g>
     </g>
     <g id="text_7">
      <!-- 0.5 -->
      <g transform="translate(33.367188 138.099219)scale(0.1 -0.1)">
       <use xlink:href="#DejaVuSans-2212"/>
       <use x="83.789062" xlink:href="#DejaVuSans-30"/>
       <use x="147.412109" xlink:href="#DejaVuSans-2e"/>
       <use x="179.199219" xlink:href="#DejaVuSans-35"/>
      </g>
     </g>
    </g>
    <g id="ytick_3">
     <g id="line2d_7">
      <g>
       <use style="stroke:#000000;stroke-width:0.8;" x="64.65" xlink:href="#ma1ae1d0958" y="112.8"/>
      </g>
     </g>
     <g id="text_8">
      <!-- 0.0 -->
      <g transform="translate(41.746875 116.599219)scale(0.1 -0.1)">
       <use xlink:href="#DejaVuSans-30"/>
       <use x="63.623047" xlink:href="#DejaVuSans-2e"/>
       <use x="95.410156" xlink:href="#DejaVuSans-30"/>
      </g>
     </g>
    </g>
    <g id="ytick_4">
     <g id="line2d_8">
      <g>
       <use style="stroke:#000000;stroke-width:0.8;" x="64.65" xlink:href="#ma1ae1d0958" y="91.3"/>
      </g>
     </g>
     <g id="text_9">
      <!-- 0.5 -->
      <g transform="translate(41.746875 95.099219)scale(0.1 -0.1)">
       <use xlink:href="#DejaVuSans-30"/>
       <use x="63.623047" xlink:href="#DejaVuSans-2e"/>
       <use x="95.410156" xlink:href="#DejaVuSans-35"/>
      </g>
     </g>
    </g>
    <g id="ytick_5">
     <g id="line2d_9">
      <g>
       <use style="stroke:#000000;stroke-width:0.8;" x="64.65" xlink:href="#ma1ae1d0958" y="69.8"/>
      </g>
     </g>
     <g id="text_10">
      <!-- 1.0 -->
      <g transform="translate(41.746875 73.599219)scale(0.1 -0.1)">
       <use xlink:href="#DejaVuSans-31"/>
       <use x="63.623047" xlink:href="#DejaVuSans-2e"/>
       <use x="95.410156" xlink:href="#DejaVuSans-30"/>
      </g>
     </g>
    </g>
    <g id="ytick_6">
     <g id="line2d_10">
      <g>
       <use style="stroke:#000000;stroke-width:0.8;" x="64.65" xlink:href="#ma1ae1d0958" y="48.3"/>
      </g>
     </g>
     <g id="text_11">
      <!-- 1.5 -->
      <g transform="translate(41.746875 52.099219)scale(0.1 -0.1)">
       <use xlink:href="#DejaVuSans-31"/>
       <use x="63.623047" xlink:href="#DejaVuSans-2e"/>
       <use x="95.410156" xlink:href="#DejaVuSans-35"/>
      </g>
     </g>
    </g>
    <g id="ytick_7">
     <g id="line2d_11">
      <g>
       <use style="stroke:#000000;stroke-width:0.8;" x="64.65" xlink:href="#ma1ae1d0958" y="26.8"/>
      </g>
     </g>
     <g id="text_12">
      <!-- 2.0 -->
      <g transform="translate(41.746875 30.599219)scale(0.1 -0.1)">
       <use xlink:href="#DejaVuSans-32"/>
       <use x="63.623047" xlink:href="#DejaVuSans-2e"/>
       <use x="95.410156" xlink:href="#DejaVuSans-30"/>
      </g>
     </g>
    </g>
    <g id="text_13">
     <!-- $s N^*$ -->
     <defs>
      <path d="M 50 53.078125 
L 48.296875 44.578125 
Q 44.734375 46.53125 40.765625 47.5 
Q 36.8125 48.484375 32.625 48.484375 
Q 25.53125 48.484375 21.453125 46.0625 
Q 17.390625 43.65625 17.390625 39.5 
Q 17.390625 34.671875 26.859375 32.078125 
Q 27.59375 31.890625 27.9375 31.78125 
L 30.8125 30.90625 
Q 39.796875 28.421875 42.796875 25.6875 
Q 45.796875 22.953125 45.796875 18.21875 
Q 45.796875 9.515625 38.890625 4.046875 
Q 31.984375 -1.421875 20.796875 -1.421875 
Q 16.453125 -1.421875 11.671875 -0.578125 
Q 6.890625 0.25 1.125 2 
L 2.875 11.28125 
Q 7.8125 8.734375 12.59375 7.421875 
Q 17.390625 6.109375 21.78125 6.109375 
Q 28.375 6.109375 32.5 8.9375 
Q 36.625 11.765625 36.625 16.109375 
Q 36.625 20.796875 25.78125 23.6875 
L 24.859375 23.921875 
L 21.78125 24.703125 
Q 14.9375 26.515625 11.765625 29.46875 
Q 8.59375 32.421875 8.59375 37.015625 
Q 8.59375 45.75 15.15625 50.875 
Q 21.734375 56 33.015625 56 
Q 37.453125 56 41.671875 55.265625 
Q 45.90625 54.546875 50 53.078125 
z
" id="DejaVuSans-Oblique-73"/>
      <path d="M 16.890625 72.90625 
L 30.171875 72.90625 
L 50.296875 10.40625 
L 62.5 72.90625 
L 72.125 72.90625 
L 57.90625 0 
L 44.578125 0 
L 24.515625 62.890625 
L 12.3125 0 
L 2.6875 0 
z
" id="DejaVuSans-Oblique-4e"/>
      <path d="M 47.015625 60.890625 
L 29.5 51.421875 
L 47.015625 41.890625 
L 44.1875 37.109375 
L 27.78125 47.015625 
L 27.78125 28.609375 
L 22.21875 28.609375 
L 22.21875 47.015625 
L 5.8125 37.109375 
L 2.984375 41.890625 
L 20.515625 51.421875 
L 2.984375 60.890625 
L 5.8125 65.71875 
L 22.21875 55.8125 
L 22.21875 74.21875 
L 27.78125 74.21875 
L 27.78125 55.8125 
L 44.1875 65.71875 
z
" id="DejaVuSans-2a"/>
     </defs>
     <g transform="translate(26.455625 105.23)rotate(-90)scale(0.14 -0.14)">
      <use transform="translate(0 0.765625)" xlink:href="#DejaVuSans-Oblique-73"/>
      <use transform="translate(52.099609 0.765625)" xlink:href="#DejaVuSans-Oblique-4e"/>
      <use transform="translate(147.558763 39.046875)scale(0.7)" xlink:href="#DejaVuSans-2a"/>
     </g>
    </g>
   </g>
   <g id="LineCollection_1">
    <path clip-path="url(#p9174ed82ac)" d="M 99.25597 155.8 
L 99.60727 155.58117 
L 100.666582 154.931284 
L 101.407211 154.483673 
L 101.725893 154.291073 
L 102.785204 153.660255 
L 103.625071 153.167347 
L 103.844515 153.038558 
L 104.903827 152.425721 
L 105.911375 151.85102 
L 105.963138 151.821495 
L 107.022449 151.225643 
L 108.08176 150.637934 
L 108.270388 150.534694 
L 109.141071 150.05815 
L 110.200383 149.48608 
L 110.702705 149.218367 
L 111.259694 148.92152 
L 112.319005 148.364277 
L 113.209096 147.902041 
L 113.378316 147.814163 
L 114.437628 147.270998 
L 115.496939 146.734608 
L 115.794656 146.585714 
L 116.55625 146.204827 
L 117.615561 145.681494 
L 118.459884 145.269388 
L 118.674872 145.164454 
L 119.734184 144.653557 
L 120.793495 144.148659 
L 121.208691 143.953061 
L 121.852806 143.64962 
L 122.912117 143.156307 
L 123.971429 142.668589 
L 124.0414 142.636735 
L 125.03074 142.186341 
L 126.090051 141.709441 
L 126.963774 141.320408 
L 127.149362 141.237773 
L 128.208673 140.771222 
L 129.267985 140.30968 
L 129.976907 140.004082 
L 130.327296 139.853038 
L 131.386607 139.401195 
L 132.445918 138.954051 
L 133.083348 138.687755 
L 133.50523 138.511508 
L 134.564541 138.073474 
L 135.623852 137.639857 
L 136.286225 137.371429 
L 136.683163 137.210569 
L 137.742474 136.785524 
L 138.801786 136.36464 
L 139.588477 136.055102 
L 139.861097 135.947835 
L 140.920408 135.535032 
L 141.979719 135.126154 
L 142.611571 134.884566 
" style="fill:none;stroke:#000000;stroke-dasharray:11.1,4.8;stroke-dashoffset:0;stroke-width:3;"/>
    <path clip-path="url(#p9174ed82ac)" d="M 157.677842 129.482934 
L 157.70586 129.473469 
L 157.869388 129.418229 
L 158.928699 129.063344 
L 159.98801 128.711364 
L 161.047321 128.362242 
L 161.674687 128.157143 
L 162.106633 128.015931 
L 163.165944 127.672387 
L 164.225255 127.331566 
L 165.284566 126.993426 
L 165.766414 126.840816 
L 166.343878 126.657923 
L 167.403189 126.325019 
L 168.4625 125.994671 
" style="fill:none;stroke:#000000;stroke-dasharray:11.1,4.8;stroke-dashoffset:0;stroke-width:3;"/>
   </g>
   <g id="LineCollection_2">
    <path clip-path="url(#p9174ed82ac)" d="M 64.65 142.605329 
L 67.952248 138.687755 
L 71.599983 134.738776 
L 75.243112 131.121629 
L 79.480357 127.268306 
L 83.717602 123.732068 
L 88.234109 120.259184 
L 93.251403 116.701341 
L 98.547959 113.24103 
L 104.380338 109.728571 
L 110.200383 106.48608 
L 116.673426 103.146939 
L 122.912117 100.156307 
L 130.327296 96.853038 
L 137.742474 93.785524 
L 146.216964 90.528447 
L 155.127479 87.35102 
L 156.642871 86.833024 
L 156.642871 86.833024 
" style="fill:none;stroke:#000000;stroke-width:3;"/>
   </g>
   <g id="LineCollection_3">
    <path clip-path="url(#p9174ed82ac)" d="M 64.65 99.605329 
L 68.343159 95.24898 
L 71.005867 92.354552 
L 75.243112 88.121629 
L 79.480357 84.268306 
L 83.717602 80.732068 
L 87.954847 77.464674 
L 93.251403 73.701341 
L 98.551578 70.238776 
L 103.844515 67.038558 
L 110.200383 63.48608 
L 116.55625 60.204827 
L 123.087606 57.07551 
L 130.327296 53.853038 
L 138.476511 50.493878 
L 146.216964 47.528447 
L 154.691454 44.500804 
L 156.642871 43.833024 
L 156.642871 43.833024 
" style="fill:none;stroke:#000000;stroke-width:3;"/>
   </g>
   <g id="LineCollection_4">
    <path clip-path="url(#p9174ed82ac)" d="M 64.65 56.605329 
L 65.341304 55.759184 
L 65.709311 55.308748 
L 66.43808 54.442857 
L 66.768622 54.050122 
L 67.568709 53.126531 
L 67.827934 52.82729 
L 68.73407 51.810204 
L 68.887245 51.638275 
L 69.934999 50.493878 
L 69.946556 50.481254 
L 71.005867 49.354552 
L 71.176642 49.177551 
L 72.065179 48.25662 
L 72.456407 47.861224 
L 73.12449 47.186025 
L 73.774655 46.544898 
L 74.183801 46.14144 
L 75.132028 45.228571 
L 75.243112 45.121629 
L 76.302423 44.125445 
L 76.534387 43.912245 
L 77.361735 43.151819 
L 77.980253 42.595918 
L 78.421046 42.199751 
L 79.467522 41.279592 
L 79.480357 41.268306 
L 80.539668 40.356611 
L 81.006393 39.963265 
L 81.59898 39.463846 
L 82.588406 38.646939 
L 82.658291 38.589239 
L 83.447842 37.950352 
" style="fill:none;stroke:#000000;stroke-width:3;"/>
    <path clip-path="url(#p9174ed82ac)" d="M 96.903337 28.287316 
L 97.169411 28.116327 
L 97.488648 27.911173 
L 98.547959 27.24103 
L 99.25597 26.8 
" style="fill:none;stroke:#000000;stroke-width:3;"/>
   </g>
   <g id="patch_3">
    <path d="M 64.65 155.8 
L 64.65 26.8 
" style="fill:none;stroke:#000000;stroke-linecap:square;stroke-linejoin:miter;stroke-width:0.8;"/>
   </g>
   <g id="patch_4">
    <path d="M 168.4625 155.8 
L 168.4625 26.8 
" style="fill:none;stroke:#000000;stroke-linecap:square;stroke-linejoin:miter;stroke-width:0.8;"/>
   </g>
   <g id="patch_5">
    <path d="M 64.65 155.8 
L 168.4625 155.8 
" style="fill:none;stroke:#000000;stroke-linecap:square;stroke-linejoin:miter;stroke-width:0.8;"/>
   </g>
   <g id="patch_6">
    <path d="M 64.65 26.8 
L 168.4625 26.8 
" style="fill:none;stroke:#000000;stroke-linecap:square;stroke-linejoin:miter;stroke-width:0.8;"/>
   </g>
   <g id="text_14">
    <g clip-path="url(#p9174ed82ac)">
     <!-- -1 -->
     <defs>
      <path d="M 4.890625 31.390625 
L 31.203125 31.390625 
L 31.203125 23.390625 
L 4.890625 23.390625 
z
" id="DejaVuSans-2d"/>
     </defs>
     <g transform="translate(146.151927 136.190455)rotate(-16.826825)scale(0.1 -0.1)">
      <use xlink:href="#DejaVuSans-2d"/>
      <use x="36.083984" xlink:href="#DejaVuSans-31"/>
     </g>
    </g>
   </g>
   <g id="text_15">
    <g clip-path="url(#p9174ed82ac)">
     <!--  0 -->
     <defs>
      <path id="DejaVuSans-20"/>
     </defs>
     <g transform="translate(160.341481 88.24134)rotate(-15.144009)scale(0.1 -0.1)">
      <use xlink:href="#DejaVuSans-20"/>
      <use x="31.787109" xlink:href="#DejaVuSans-30"/>
     </g>
    </g>
   </g>
   <g id="text_16">
    <g clip-path="url(#p9174ed82ac)">
     <!--  1 -->
     <g transform="translate(160.341481 45.24134)rotate(-15.144009)scale(0.1 -0.1)">
      <use xlink:href="#DejaVuSans-20"/>
      <use x="31.787109" xlink:href="#DejaVuSans-31"/>
     </g>
    </g>
   </g>
   <g id="text_17">
    <g clip-path="url(#p9174ed82ac)">
     <!--  2 -->
     <g transform="translate(87.421349 37.750362)rotate(-31.185809)scale(0.1 -0.1)">
      <use xlink:href="#DejaVuSans-20"/>
      <use x="31.787109" xlink:href="#DejaVuSans-32"/>
     </g>
    </g>
   </g>
   <g id="text_18">
    <!-- $c=1$ -->
    <defs>
     <path d="M 53.609375 52.59375 
L 51.8125 43.703125 
Q 48.578125 46.046875 44.9375 47.21875 
Q 41.3125 48.390625 37.40625 48.390625 
Q 33.109375 48.390625 29.21875 46.875 
Q 25.34375 45.359375 22.703125 42.578125 
Q 18.5 38.328125 16.203125 32.609375 
Q 13.921875 26.90625 13.921875 20.796875 
Q 13.921875 13.421875 17.609375 9.8125 
Q 21.296875 6.203125 28.8125 6.203125 
Q 32.515625 6.203125 36.6875 7.328125 
Q 40.875 8.453125 45.40625 10.6875 
L 43.703125 1.8125 
Q 39.796875 0.203125 35.671875 -0.609375 
Q 31.546875 -1.421875 27.203125 -1.421875 
Q 16.3125 -1.421875 10.453125 4.015625 
Q 4.59375 9.46875 4.59375 19.578125 
Q 4.59375 28.078125 7.640625 35.234375 
Q 10.6875 42.390625 16.703125 48.09375 
Q 20.796875 52 26.3125 54 
Q 31.84375 56 38.375 56 
Q 42.1875 56 45.9375 55.140625 
Q 49.703125 54.296875 53.609375 52.59375 
z
" id="DejaVuSans-Oblique-63"/>
     <path d="M 10.59375 45.40625 
L 73.1875 45.40625 
L 73.1875 37.203125 
L 10.59375 37.203125 
z
M 10.59375 25.484375 
L 73.1875 25.484375 
L 73.1875 17.1875 
L 10.59375 17.1875 
z
" id="DejaVuSans-3d"/>
    </defs>
    <g transform="translate(102.03625 20.8)scale(0.12 -0.12)">
     <use transform="translate(0 0.09375)" xlink:href="#DejaVuSans-Oblique-63"/>
     <use transform="translate(74.462891 0.09375)" xlink:href="#DejaVuSans-3d"/>
     <use transform="translate(177.734375 0.09375)" xlink:href="#DejaVuSans-31"/>
    </g>
   </g>
  </g>
 </g>
 <defs>
  <clipPath id="p9174ed82ac">
   <rect height="129" width="103.8125" x="64.65" y="26.8"/>
  </clipPath>
 </defs>
</svg>
