<?xml version="1.0" encoding="utf-8" standalone="no"?>
<!DOCTYPE svg PUBLIC "-//W3C//DTD SVG 1.1//EN"
  "http://www.w3.org/Graphics/SVG/1.1/DTD/svg11.dtd">
<!-- Created with matplotlib (http://matplotlib.org/) -->
<svg height="201.6pt" version="1.1" viewBox="0 0 187.2 201.6" width="187.2pt" xmlns="http://www.w3.org/2000/svg" xmlns:xlink="http://www.w3.org/1999/xlink">
 <defs>
  <style type="text/css">
*{stroke-linecap:butt;stroke-linejoin:round;}
  </style>
 </defs>
 <g id="figure_1">
  <g id="patch_1">
   <path d="M 0 201.6 
L 187.2 201.6 
L 187.2 0 
L 0 0 
z
" style="fill:#ffffff;"/>
  </g>
  <g id="axes_1">
   <g id="patch_2">
    <path d="M 64.65 155.8 
L 168.4625 155.8 
L 168.4625 26.8 
L 64.65 26.8 
z
" style="fill:#ffffff;"/>
   </g>
   <g id="PathCollection_1"/>
   <g id="PathCollection_2">
    <path clip-path="url(#p0a90760f21)" d="M 99.60727 155.690213 
L 100.666582 155.359747 
L 101.725893 155.027652 
L 102.785204 154.693964 
L 103.451486 154.483673 
L 103.844515 154.358718 
L 104.903827 154.021946 
L 105.963138 153.683682 
L 107.022449 153.343955 
L 107.572668 153.167347 
L 108.08176 153.002797 
L 109.141071 152.660236 
L 110.200383 152.3163 
L 111.259694 151.971017 
L 111.62803 151.85102 
L 112.319005 151.624411 
L 113.378316 151.276509 
L 114.437628 150.927336 
L 115.496939 150.576914 
L 115.624838 150.534694 
L 116.55625 150.225266 
L 117.615561 149.872416 
L 118.674872 149.518385 
L 119.570491 149.218367 
L 119.734184 149.163193 
L 120.793495 148.806861 
L 121.852806 148.449408 
L 122.912117 148.090855 
L 123.469844 147.902041 
L 123.971429 147.731219 
L 125.03074 147.370518 
L 126.090051 147.008771 
L 127.149362 146.645994 
L 127.32573 146.585714 
L 128.208673 146.282203 
L 129.267985 145.917416 
L 130.327296 145.551647 
L 131.143647 145.269388 
L 131.386607 145.184912 
L 132.445918 144.817226 
L 133.50523 144.448604 
L 134.564541 144.07906 
L 134.926116 143.953061 
L 135.623852 143.708606 
L 136.683163 143.337258 
L 137.742474 142.965028 
L 138.675158 142.636735 
L 138.801786 142.591928 
L 139.861097 142.217972 
L 140.920408 141.843171 
L 141.979719 141.467538 
L 142.395015 141.320408 
L 143.039031 141.091084 
L 144.098342 140.713819 
L 145.157653 140.335757 
L 146.085629 140.004082 
L 146.216964 139.956906 
L 147.276276 139.577278 
L 148.335587 139.196884 
L 149.394898 138.815732 
L 149.75102 138.687755 
L 150.454209 138.433834 
L 151.51352 138.051198 
L 152.572832 137.667834 
L 153.391207 137.371429 
L 153.632143 137.283752 
L 154.691454 136.89896 
L 155.750765 136.513468 
L 156.810077 136.127283 
L 157.008459 136.055102 
L 157.869388 135.740415 
L 158.928699 135.352872 
L 159.98801 134.964662 
L 160.604498 134.738776 
L 161.047321 134.575792 
L 162.106633 134.186271 
L 163.165944 133.796107 
L 164.178982 133.422449 
L 164.225255 133.405306 
L 165.284566 133.013877 
L 166.343878 132.621826 
L 167.403189 132.22916 
L 167.735575 132.106122 
L 168.4625 131.835887 
L 168.4625 132.106122 
L 168.4625 133.422449 
L 168.4625 134.738776 
L 168.4625 136.055102 
L 168.4625 137.371429 
L 168.4625 138.687755 
L 168.4625 140.004082 
L 168.4625 141.320408 
L 168.4625 142.636735 
L 168.4625 143.953061 
L 168.4625 145.269388 
L 168.4625 146.585714 
L 168.4625 147.902041 
L 168.4625 149.218367 
L 168.4625 150.534694 
L 168.4625 151.85102 
L 168.4625 153.167347 
L 168.4625 154.483673 
L 168.4625 155.8 
L 167.403189 155.8 
L 166.343878 155.8 
L 165.284566 155.8 
L 164.225255 155.8 
L 163.165944 155.8 
L 162.106633 155.8 
L 161.047321 155.8 
L 159.98801 155.8 
L 158.928699 155.8 
L 157.869388 155.8 
L 156.810077 155.8 
L 155.750765 155.8 
L 154.691454 155.8 
L 153.632143 155.8 
L 152.572832 155.8 
L 151.51352 155.8 
L 150.454209 155.8 
L 149.394898 155.8 
L 148.335587 155.8 
L 147.276276 155.8 
L 146.216964 155.8 
L 145.157653 155.8 
L 144.098342 155.8 
L 143.039031 155.8 
L 141.979719 155.8 
L 140.920408 155.8 
L 139.861097 155.8 
L 138.801786 155.8 
L 137.742474 155.8 
L 136.683163 155.8 
L 135.623852 155.8 
L 134.564541 155.8 
L 133.50523 155.8 
L 132.445918 155.8 
L 131.386607 155.8 
L 130.327296 155.8 
L 129.267985 155.8 
L 128.208673 155.8 
L 127.149362 155.8 
L 126.090051 155.8 
L 125.03074 155.8 
L 123.971429 155.8 
L 122.912117 155.8 
L 121.852806 155.8 
L 120.793495 155.8 
L 119.734184 155.8 
L 118.674872 155.8 
L 117.615561 155.8 
L 116.55625 155.8 
L 115.496939 155.8 
L 114.437628 155.8 
L 113.378316 155.8 
L 112.319005 155.8 
L 111.259694 155.8 
L 110.200383 155.8 
L 109.141071 155.8 
L 108.08176 155.8 
L 107.022449 155.8 
L 105.963138 155.8 
L 104.903827 155.8 
L 103.844515 155.8 
L 102.785204 155.8 
L 101.725893 155.8 
L 100.666582 155.8 
L 99.60727 155.8 
L 99.255369 155.8 
z
" style="fill:#e5f5e0;"/>
   </g>
   <g id="PathCollection_3">
    <path clip-path="url(#p0a90760f21)" d="M 64.65 154.483673 
L 64.65 153.167347 
L 64.65 151.85102 
L 64.65 150.534694 
L 64.65 149.808972 
L 65.709311 149.359801 
L 66.044154 149.218367 
L 66.768622 148.908336 
L 67.827934 148.454675 
L 68.887245 147.998914 
L 69.113578 147.902041 
L 69.946556 147.54114 
L 71.005867 147.081432 
L 72.065179 146.619867 
L 72.144091 146.585714 
L 73.12449 146.156517 
L 74.183801 145.691447 
L 75.142735 145.269388 
L 75.243112 145.22472 
L 76.302423 144.756395 
L 77.361735 144.286527 
L 78.113424 143.953061 
L 78.421046 143.815168 
L 79.480357 143.342368 
L 80.539668 142.868173 
L 81.057822 142.636735 
L 81.59898 142.392628 
L 82.658291 141.915774 
L 83.717602 141.43765 
L 83.978531 141.320408 
L 84.776913 140.958295 
L 85.836224 140.477745 
L 86.877995 140.004082 
L 86.895536 139.996034 
L 87.954847 139.513193 
L 89.014158 139.029255 
L 89.761945 138.687755 
L 90.073469 138.544248 
L 91.132781 138.058202 
L 92.192092 137.571143 
L 92.627704 137.371429 
L 93.251403 137.083097 
L 94.310714 136.594088 
L 95.370026 136.104141 
L 95.476618 136.055102 
L 96.429337 135.613279 
L 97.488648 135.121523 
L 98.313102 134.738776 
L 98.547959 134.628894 
L 99.60727 134.135413 
L 100.666582 133.641098 
L 101.136328 133.422449 
L 101.725893 133.145969 
L 102.785204 132.650043 
L 103.844515 132.153338 
L 103.945715 132.106122 
L 104.903827 131.655871 
L 105.963138 131.157657 
L 106.745588 130.789796 
L 107.022449 130.658712 
L 108.08176 130.159052 
L 109.141071 129.65869 
L 109.534343 129.473469 
L 110.200383 129.15764 
L 111.259694 128.655917 
L 112.311442 128.157143 
L 112.319005 128.153532 
L 113.378316 127.6505 
L 114.437628 127.146831 
L 115.082067 126.840816 
L 115.496939 126.642538 
L 116.55625 126.137633 
L 117.615561 125.632126 
L 117.841966 125.52449 
L 118.674872 125.126029 
L 119.734184 124.619351 
L 120.593884 124.208163 
L 120.793495 124.112104 
L 121.852806 123.604296 
L 122.912117 123.095938 
L 123.338484 122.891837 
L 123.971429 122.587038 
L 125.03074 122.077606 
L 126.073819 121.57551 
L 126.090051 121.567651 
L 127.149362 121.057181 
L 128.208673 120.546204 
L 128.8046 120.259184 
L 129.267985 120.034728 
L 130.327296 119.522762 
L 131.386607 119.010313 
L 131.526591 118.942857 
L 132.445918 118.497389 
L 133.50523 117.983996 
L 134.243364 117.626531 
L 134.564541 117.470142 
L 135.623852 116.955834 
L 136.683163 116.441078 
L 136.953323 116.310204 
L 137.742474 115.925881 
L 138.801786 115.41025 
L 139.657329 114.993878 
L 139.861097 114.89419 
L 140.920408 114.377708 
L 141.979719 113.86081 
L 142.356219 113.677551 
L 143.039031 113.343501 
L 144.098342 112.825787 
L 145.048657 112.361224 
L 145.157653 112.307674 
L 146.216964 111.789167 
L 147.276276 111.270272 
L 147.737304 111.044898 
L 148.335587 110.750993 
L 149.394898 110.231335 
L 150.4192 109.728571 
L 150.454209 109.711305 
L 151.51352 109.190905 
L 152.572832 108.670142 
L 153.098319 108.412245 
L 153.632143 108.149019 
L 154.691454 107.627541 
L 155.750765 107.105714 
L 155.770726 107.095918 
L 156.810077 106.58354 
L 157.869388 106.061024 
L 158.440772 105.779592 
L 158.928699 105.538171 
L 159.98801 105.014984 
L 161.047321 104.491467 
L 161.104593 104.463265 
L 162.106633 103.967625 
L 163.165944 103.443462 
L 163.765983 103.146939 
L 164.225255 102.91898 
L 165.284566 102.394183 
L 166.343878 101.869076 
L 166.421736 101.830612 
L 167.403189 101.343662 
L 168.4625 100.817943 
L 168.4625 101.830612 
L 168.4625 103.146939 
L 168.4625 104.463265 
L 168.4625 105.779592 
L 168.4625 107.095918 
L 168.4625 108.412245 
L 168.4625 109.728571 
L 168.4625 111.044898 
L 168.4625 112.361224 
L 168.4625 113.677551 
L 168.4625 114.993878 
L 168.4625 116.310204 
L 168.4625 117.626531 
L 168.4625 118.942857 
L 168.4625 120.259184 
L 168.4625 121.57551 
L 168.4625 122.891837 
L 168.4625 124.208163 
L 168.4625 125.52449 
L 168.4625 126.840816 
L 168.4625 128.157143 
L 168.4625 129.473469 
L 168.4625 130.789796 
L 168.4625 131.835887 
L 167.735575 132.106122 
L 167.403189 132.22916 
L 166.343878 132.621826 
L 165.284566 133.013877 
L 164.225255 133.405306 
L 164.178982 133.422449 
L 163.165944 133.796107 
L 162.106633 134.186271 
L 161.047321 134.575792 
L 160.604498 134.738776 
L 159.98801 134.964662 
L 158.928699 135.352872 
L 157.869388 135.740415 
L 157.008459 136.055102 
L 156.810077 136.127283 
L 155.750765 136.513468 
L 154.691454 136.89896 
L 153.632143 137.283752 
L 153.391207 137.371429 
L 152.572832 137.667834 
L 151.51352 138.051198 
L 150.454209 138.433834 
L 149.75102 138.687755 
L 149.394898 138.815732 
L 148.335587 139.196884 
L 147.276276 139.577278 
L 146.216964 139.956906 
L 146.085629 140.004082 
L 145.157653 140.335757 
L 144.098342 140.713819 
L 143.039031 141.091084 
L 142.395015 141.320408 
L 141.979719 141.467538 
L 140.920408 141.843171 
L 139.861097 142.217972 
L 138.801786 142.591928 
L 138.675158 142.636735 
L 137.742474 142.965028 
L 136.683163 143.337258 
L 135.623852 143.708606 
L 134.926116 143.953061 
L 134.564541 144.07906 
L 133.50523 144.448604 
L 132.445918 144.817226 
L 131.386607 145.184912 
L 131.143647 145.269388 
L 130.327296 145.551647 
L 129.267985 145.917416 
L 128.208673 146.282203 
L 127.32573 146.585714 
L 127.149362 146.645994 
L 126.090051 147.008771 
L 125.03074 147.370518 
L 123.971429 147.731219 
L 123.469844 147.902041 
L 122.912117 148.090855 
L 121.852806 148.449408 
L 120.793495 148.806861 
L 119.734184 149.163193 
L 119.570491 149.218367 
L 118.674872 149.518385 
L 117.615561 149.872416 
L 116.55625 150.225266 
L 115.624838 150.534694 
L 115.496939 150.576914 
L 114.437628 150.927336 
L 113.378316 151.276509 
L 112.319005 151.624411 
L 111.62803 151.85102 
L 111.259694 151.971017 
L 110.200383 152.3163 
L 109.141071 152.660236 
L 108.08176 153.002797 
L 107.572668 153.167347 
L 107.022449 153.343955 
L 105.963138 153.683682 
L 104.903827 154.021946 
L 103.844515 154.358718 
L 103.451486 154.483673 
L 102.785204 154.693964 
L 101.725893 155.027652 
L 100.666582 155.359747 
L 99.60727 155.690213 
L 99.255369 155.8 
L 98.547959 155.8 
L 97.488648 155.8 
L 96.429337 155.8 
L 95.370026 155.8 
L 94.310714 155.8 
L 93.251403 155.8 
L 92.192092 155.8 
L 91.132781 155.8 
L 90.073469 155.8 
L 89.014158 155.8 
L 87.954847 155.8 
L 86.895536 155.8 
L 85.836224 155.8 
L 84.776913 155.8 
L 83.717602 155.8 
L 82.658291 155.8 
L 81.59898 155.8 
L 80.539668 155.8 
L 79.480357 155.8 
L 78.421046 155.8 
L 77.361735 155.8 
L 76.302423 155.8 
L 75.243112 155.8 
L 74.183801 155.8 
L 73.12449 155.8 
L 72.065179 155.8 
L 71.005867 155.8 
L 69.946556 155.8 
L 68.887245 155.8 
L 67.827934 155.8 
L 66.768622 155.8 
L 65.709311 155.8 
L 64.65 155.8 
z
" style="fill:#d1edcb;"/>
   </g>
   <g id="PathCollection_4">
    <path clip-path="url(#p0a90760f21)" d="M 64.65 149.218367 
L 64.65 147.902041 
L 64.65 146.585714 
L 64.65 145.269388 
L 64.65 143.953061 
L 64.65 142.636735 
L 64.65 141.320408 
L 64.65 140.004082 
L 64.65 138.687755 
L 64.65 137.371429 
L 64.65 136.055102 
L 64.65 134.738776 
L 64.65 134.3 
L 65.709311 133.641837 
L 66.065497 133.422449 
L 66.768622 132.983673 
L 67.827934 132.32551 
L 68.183979 132.106122 
L 68.887245 131.667347 
L 69.946556 131.009184 
L 70.302474 130.789796 
L 71.005867 130.35102 
L 72.065179 129.692857 
L 72.420981 129.473469 
L 73.12449 129.034694 
L 74.183801 128.376531 
L 74.539498 128.157143 
L 75.243112 127.718367 
L 76.302423 127.060204 
L 76.658023 126.840816 
L 77.361735 126.402041 
L 78.421046 125.743878 
L 78.776556 125.52449 
L 79.480357 125.085714 
L 80.539668 124.427551 
L 80.895096 124.208163 
L 81.59898 123.769388 
L 82.658291 123.111224 
L 83.013641 122.891837 
L 83.717602 122.453061 
L 84.776913 121.794898 
L 85.132192 121.57551 
L 85.836224 121.136735 
L 86.895536 120.478571 
L 87.250748 120.259184 
L 87.954847 119.820408 
L 89.014158 119.162245 
L 89.369308 118.942857 
L 90.073469 118.504082 
L 91.132781 117.845918 
L 91.487872 117.626531 
L 92.192092 117.187755 
L 93.251403 116.529592 
L 93.606439 116.310204 
L 94.310714 115.871429 
L 95.370026 115.213265 
L 95.725009 114.993878 
L 96.429337 114.555102 
L 97.488648 113.896939 
L 97.843583 113.677551 
L 98.547959 113.238776 
L 99.60727 112.580612 
L 99.962159 112.361224 
L 100.666582 111.922449 
L 101.725893 111.264286 
L 102.080738 111.044898 
L 102.785204 110.606122 
L 103.844515 109.947959 
L 104.199319 109.728571 
L 104.903827 109.289796 
L 105.963138 108.631633 
L 106.317901 108.412245 
L 107.022449 107.973469 
L 108.08176 107.315306 
L 108.436486 107.095918 
L 109.141071 106.657143 
L 110.200383 105.99898 
L 110.555073 105.779592 
L 111.259694 105.340816 
L 112.319005 104.682653 
L 112.673661 104.463265 
L 113.378316 104.02449 
L 114.437628 103.366327 
L 114.792251 103.146939 
L 115.496939 102.708163 
L 116.55625 102.05 
L 116.910842 101.830612 
L 117.615561 101.391837 
L 118.674872 100.733673 
L 119.029435 100.514286 
L 119.734184 100.07551 
L 120.793495 99.417347 
L 121.148029 99.197959 
L 121.852806 98.759184 
L 122.912117 98.10102 
L 123.266624 97.881633 
L 123.971429 97.442857 
L 125.03074 96.784694 
L 125.38522 96.565306 
L 126.090051 96.126531 
L 127.149362 95.468367 
L 127.503817 95.24898 
L 128.208673 94.810204 
L 129.267985 94.152041 
L 129.622416 93.932653 
L 130.327296 93.493878 
L 131.386607 92.835714 
L 131.741015 92.616327 
L 132.445918 92.177551 
L 133.50523 91.519388 
L 133.859615 91.3 
L 134.564541 90.861224 
L 135.623852 90.203061 
L 135.978215 89.983673 
L 136.683163 89.544898 
L 137.742474 88.886735 
L 138.096817 88.667347 
L 138.801786 88.228571 
L 139.861097 87.570408 
L 140.215419 87.35102 
L 140.920408 86.912245 
L 141.979719 86.254082 
L 142.334022 86.034694 
L 143.039031 85.595918 
L 144.098342 84.937755 
L 144.452626 84.718367 
L 145.157653 84.279592 
L 146.216964 83.621429 
L 146.57123 83.402041 
L 147.276276 82.963265 
L 148.335587 82.305102 
L 148.689835 82.085714 
L 149.394898 81.646939 
L 150.454209 80.988776 
L 150.80844 80.769388 
L 151.51352 80.330612 
L 152.572832 79.672449 
L 152.927046 79.453061 
L 153.632143 79.014286 
L 154.691454 78.356122 
L 155.045653 78.136735 
L 155.750765 77.697959 
L 156.810077 77.039796 
L 157.164259 76.820408 
L 157.869388 76.381633 
L 158.928699 75.723469 
L 159.282867 75.504082 
L 159.98801 75.065306 
L 161.047321 74.407143 
L 161.401475 74.187755 
L 162.106633 73.74898 
L 163.165944 73.090816 
L 163.520083 72.871429 
L 164.225255 72.432653 
L 165.284566 71.77449 
L 165.638692 71.555102 
L 166.343878 71.116327 
L 167.403189 70.458163 
L 167.757301 70.238776 
L 168.4625 69.8 
L 168.4625 70.238776 
L 168.4625 71.555102 
L 168.4625 72.871429 
L 168.4625 74.187755 
L 168.4625 75.504082 
L 168.4625 76.820408 
L 168.4625 78.136735 
L 168.4625 79.453061 
L 168.4625 80.769388 
L 168.4625 82.085714 
L 168.4625 83.402041 
L 168.4625 84.718367 
L 168.4625 86.034694 
L 168.4625 87.35102 
L 168.4625 88.667347 
L 168.4625 89.983673 
L 168.4625 91.3 
L 168.4625 92.616327 
L 168.4625 93.932653 
L 168.4625 95.24898 
L 168.4625 96.565306 
L 168.4625 97.881633 
L 168.4625 99.197959 
L 168.4625 100.514286 
L 168.4625 100.817943 
L 167.403189 101.343662 
L 166.421736 101.830612 
L 166.343878 101.869076 
L 165.284566 102.394183 
L 164.225255 102.91898 
L 163.765983 103.146939 
L 163.165944 103.443462 
L 162.106633 103.967625 
L 161.104593 104.463265 
L 161.047321 104.491467 
L 159.98801 105.014984 
L 158.928699 105.538171 
L 158.440772 105.779592 
L 157.869388 106.061024 
L 156.810077 106.58354 
L 155.770726 107.095918 
L 155.750765 107.105714 
L 154.691454 107.627541 
L 153.632143 108.149019 
L 153.098319 108.412245 
L 152.572832 108.670142 
L 151.51352 109.190905 
L 150.454209 109.711305 
L 150.4192 109.728571 
L 149.394898 110.231335 
L 148.335587 110.750993 
L 147.737304 111.044898 
L 147.276276 111.270272 
L 146.216964 111.789167 
L 145.157653 112.307674 
L 145.048657 112.361224 
L 144.098342 112.825787 
L 143.039031 113.343501 
L 142.356219 113.677551 
L 141.979719 113.86081 
L 140.920408 114.377708 
L 139.861097 114.89419 
L 139.657329 114.993878 
L 138.801786 115.41025 
L 137.742474 115.925881 
L 136.953323 116.310204 
L 136.683163 116.441078 
L 135.623852 116.955834 
L 134.564541 117.470142 
L 134.243364 117.626531 
L 133.50523 117.983996 
L 132.445918 118.497389 
L 131.526591 118.942857 
L 131.386607 119.010313 
L 130.327296 119.522762 
L 129.267985 120.034728 
L 128.8046 120.259184 
L 128.208673 120.546204 
L 127.149362 121.057181 
L 126.090051 121.567651 
L 126.073819 121.57551 
L 125.03074 122.077606 
L 123.971429 122.587038 
L 123.338484 122.891837 
L 122.912117 123.095938 
L 121.852806 123.604296 
L 120.793495 124.112104 
L 120.593884 124.208163 
L 119.734184 124.619351 
L 118.674872 125.126029 
L 117.841966 125.52449 
L 117.615561 125.632126 
L 116.55625 126.137633 
L 115.496939 126.642538 
L 115.082067 126.840816 
L 114.437628 127.146831 
L 113.378316 127.6505 
L 112.319005 128.153532 
L 112.311442 128.157143 
L 111.259694 128.655917 
L 110.200383 129.15764 
L 109.534343 129.473469 
L 109.141071 129.65869 
L 108.08176 130.159052 
L 107.022449 130.658712 
L 106.745588 130.789796 
L 105.963138 131.157657 
L 104.903827 131.655871 
L 103.945715 132.106122 
L 103.844515 132.153338 
L 102.785204 132.650043 
L 101.725893 133.145969 
L 101.136328 133.422449 
L 100.666582 133.641098 
L 99.60727 134.135413 
L 98.547959 134.628894 
L 98.313102 134.738776 
L 97.488648 135.121523 
L 96.429337 135.613279 
L 95.476618 136.055102 
L 95.370026 136.104141 
L 94.310714 136.594088 
L 93.251403 137.083097 
L 92.627704 137.371429 
L 92.192092 137.571143 
L 91.132781 138.058202 
L 90.073469 138.544248 
L 89.761945 138.687755 
L 89.014158 139.029255 
L 87.954847 139.513193 
L 86.895536 139.996034 
L 86.877995 140.004082 
L 85.836224 140.477745 
L 84.776913 140.958295 
L 83.978531 141.320408 
L 83.717602 141.43765 
L 82.658291 141.915774 
L 81.59898 142.392628 
L 81.057822 142.636735 
L 80.539668 142.868173 
L 79.480357 143.342368 
L 78.421046 143.815168 
L 78.113424 143.953061 
L 77.361735 144.286527 
L 76.302423 144.756395 
L 75.243112 145.22472 
L 75.142735 145.269388 
L 74.183801 145.691447 
L 73.12449 146.156517 
L 72.144091 146.585714 
L 72.065179 146.619867 
L 71.005867 147.081432 
L 69.946556 147.54114 
L 69.113578 147.902041 
L 68.887245 147.998914 
L 67.827934 148.454675 
L 66.768622 148.908336 
L 66.044154 149.218367 
L 65.709311 149.359801 
L 64.65 149.808972 
z
" style="fill:#bbe4b4;"/>
   </g>
   <g id="PathCollection_5">
    <path clip-path="url(#p0a90760f21)" d="M 64.65 133.422449 
L 64.65 132.106122 
L 64.65 130.789796 
L 64.65 129.473469 
L 64.65 128.157143 
L 64.65 126.840816 
L 64.65 125.52449 
L 64.65 124.208163 
L 64.65 122.891837 
L 64.65 121.57551 
L 64.65 120.259184 
L 64.65 118.942857 
L 64.65 118.791028 
L 65.709311 117.923872 
L 66.076634 117.626531 
L 66.768622 117.059011 
L 67.689662 116.310204 
L 67.827934 116.196345 
L 68.887245 115.335779 
L 69.312195 114.993878 
L 69.946556 114.477228 
L 70.936232 113.677551 
L 71.005867 113.620609 
L 72.065179 112.765847 
L 72.570703 112.361224 
L 73.12449 111.912871 
L 74.183801 111.061614 
L 74.204869 111.044898 
L 75.243112 110.212015 
L 75.849821 109.728571 
L 76.302423 109.364013 
L 77.361735 108.517555 
L 77.494964 108.412245 
L 78.421046 107.672587 
L 79.147567 107.095918 
L 79.480357 106.82906 
L 80.539668 105.986929 
L 80.802839 105.779592 
L 81.59898 105.146148 
L 82.462246 104.463265 
L 82.658291 104.306675 
L 83.717602 103.468472 
L 84.126902 103.146939 
L 84.776913 102.6315 
L 85.792395 101.830612 
L 85.836224 101.795724 
L 86.895536 100.961109 
L 87.465777 100.514286 
L 87.954847 100.127623 
L 89.014158 99.295235 
L 89.139065 99.197959 
L 90.073469 98.463915 
L 90.818267 97.881633 
L 91.132781 97.633635 
L 92.192092 96.804367 
L 92.499645 96.565306 
L 93.251403 95.976087 
L 94.183324 95.24898 
L 94.310714 95.148769 
L 95.370026 94.322389 
L 95.872277 93.932653 
L 96.429337 93.496925 
L 97.488648 92.672355 
L 97.561226 92.616327 
L 98.547959 91.848657 
L 99.25609 91.3 
L 99.60727 91.025812 
L 100.666582 90.2038 
L 100.952093 89.983673 
L 101.725893 89.382603 
L 102.650311 88.667347 
L 102.785204 88.562202 
L 103.844515 87.74258 
L 104.35296 87.35102 
L 104.903827 86.923721 
L 105.963138 86.105608 
L 106.055634 86.034694 
L 107.022449 85.288226 
L 107.763176 84.718367 
L 108.08176 84.471561 
L 109.141071 83.655596 
L 109.47207 83.402041 
L 110.200383 82.840319 
L 111.182157 82.085714 
L 111.259694 82.025716 
L 112.319005 81.211774 
L 112.896942 80.769388 
L 113.378316 80.39848 
L 114.437628 79.585822 
L 114.611753 79.453061 
L 115.496939 78.773788 
L 116.329751 78.136735 
L 116.55625 77.962367 
L 117.615561 77.151547 
L 118.050101 76.820408 
L 118.674872 76.341318 
L 119.734184 75.531669 
L 119.770518 75.504082 
L 120.793495 74.72259 
L 121.495667 74.187755 
L 121.852806 73.914071 
L 122.912117 73.106103 
L 123.221303 72.871429 
L 123.971429 72.298676 
L 124.948062 71.555102 
L 125.03074 71.491782 
L 126.090051 70.68541 
L 126.678674 70.238776 
L 127.149362 69.879554 
L 128.208673 69.074205 
L 128.409331 68.922449 
L 129.267985 68.269353 
L 130.142295 67.606122 
L 130.327296 67.464993 
L 131.386607 66.661115 
L 131.877661 66.289796 
L 132.445918 65.857713 
L 133.50523 65.05478 
L 133.613089 64.973469 
L 134.564541 64.252307 
L 135.351729 63.657143 
L 135.623852 63.450289 
L 136.683163 62.648718 
L 137.091622 62.340816 
L 137.742474 61.847588 
L 138.801786 61.046893 
L 138.831591 61.02449 
L 139.861097 60.246626 
L 140.57544 59.708163 
L 140.920408 59.446782 
L 141.979719 58.647353 
L 142.319649 58.391837 
L 143.039031 57.848336 
L 144.064303 57.07551 
L 144.098342 57.049723 
L 145.157653 56.251509 
L 145.812586 55.759184 
L 146.216964 55.45369 
L 147.276276 54.656259 
L 147.560913 54.442857 
L 148.335587 53.859211 
L 149.310193 53.126531 
L 149.394898 53.062542 
L 150.454209 52.266246 
L 151.062403 51.810204 
L 151.51352 51.470319 
L 152.572832 50.674756 
L 152.814664 50.493878 
L 153.632143 49.879553 
L 154.568225 49.177551 
L 154.691454 49.084704 
L 155.750765 48.290205 
L 156.324191 47.861224 
L 156.810077 47.496052 
L 157.869388 46.702241 
L 158.080213 46.544898 
L 158.928699 45.908768 
L 159.837748 45.228571 
L 159.98801 45.115628 
L 161.047321 44.322818 
L 161.597312 43.912245 
L 162.106633 43.530334 
L 163.165944 42.738171 
L 163.356933 42.595918 
L 164.225255 41.946327 
L 165.118165 41.279592 
L 165.284566 41.154796 
L 166.343878 40.363577 
L 166.881177 39.963265 
L 167.403189 39.572665 
L 168.4625 38.782057 
L 168.4625 39.963265 
L 168.4625 41.279592 
L 168.4625 42.595918 
L 168.4625 43.912245 
L 168.4625 45.228571 
L 168.4625 46.544898 
L 168.4625 47.861224 
L 168.4625 49.177551 
L 168.4625 50.493878 
L 168.4625 51.810204 
L 168.4625 53.126531 
L 168.4625 54.442857 
L 168.4625 55.759184 
L 168.4625 57.07551 
L 168.4625 58.391837 
L 168.4625 59.708163 
L 168.4625 61.02449 
L 168.4625 62.340816 
L 168.4625 63.657143 
L 168.4625 64.973469 
L 168.4625 66.289796 
L 168.4625 67.606122 
L 168.4625 68.922449 
L 168.4625 69.8 
L 167.757301 70.238776 
L 167.403189 70.458163 
L 166.343878 71.116327 
L 165.638692 71.555102 
L 165.284566 71.77449 
L 164.225255 72.432653 
L 163.520083 72.871429 
L 163.165944 73.090816 
L 162.106633 73.74898 
L 161.401475 74.187755 
L 161.047321 74.407143 
L 159.98801 75.065306 
L 159.282867 75.504082 
L 158.928699 75.723469 
L 157.869388 76.381633 
L 157.164259 76.820408 
L 156.810077 77.039796 
L 155.750765 77.697959 
L 155.045653 78.136735 
L 154.691454 78.356122 
L 153.632143 79.014286 
L 152.927046 79.453061 
L 152.572832 79.672449 
L 151.51352 80.330612 
L 150.80844 80.769388 
L 150.454209 80.988776 
L 149.394898 81.646939 
L 148.689835 82.085714 
L 148.335587 82.305102 
L 147.276276 82.963265 
L 146.57123 83.402041 
L 146.216964 83.621429 
L 145.157653 84.279592 
L 144.452626 84.718367 
L 144.098342 84.937755 
L 143.039031 85.595918 
L 142.334022 86.034694 
L 141.979719 86.254082 
L 140.920408 86.912245 
L 140.215419 87.35102 
L 139.861097 87.570408 
L 138.801786 88.228571 
L 138.096817 88.667347 
L 137.742474 88.886735 
L 136.683163 89.544898 
L 135.978215 89.983673 
L 135.623852 90.203061 
L 134.564541 90.861224 
L 133.859615 91.3 
L 133.50523 91.519388 
L 132.445918 92.177551 
L 131.741015 92.616327 
L 131.386607 92.835714 
L 130.327296 93.493878 
L 129.622416 93.932653 
L 129.267985 94.152041 
L 128.208673 94.810204 
L 127.503817 95.24898 
L 127.149362 95.468367 
L 126.090051 96.126531 
L 125.38522 96.565306 
L 125.03074 96.784694 
L 123.971429 97.442857 
L 123.266624 97.881633 
L 122.912117 98.10102 
L 121.852806 98.759184 
L 121.148029 99.197959 
L 120.793495 99.417347 
L 119.734184 100.07551 
L 119.029435 100.514286 
L 118.674872 100.733673 
L 117.615561 101.391837 
L 116.910842 101.830612 
L 116.55625 102.05 
L 115.496939 102.708163 
L 114.792251 103.146939 
L 114.437628 103.366327 
L 113.378316 104.02449 
L 112.673661 104.463265 
L 112.319005 104.682653 
L 111.259694 105.340816 
L 110.555073 105.779592 
L 110.200383 105.99898 
L 109.141071 106.657143 
L 108.436486 107.095918 
L 108.08176 107.315306 
L 107.022449 107.973469 
L 106.317901 108.412245 
L 105.963138 108.631633 
L 104.903827 109.289796 
L 104.199319 109.728571 
L 103.844515 109.947959 
L 102.785204 110.606122 
L 102.080738 111.044898 
L 101.725893 111.264286 
L 100.666582 111.922449 
L 99.962159 112.361224 
L 99.60727 112.580612 
L 98.547959 113.238776 
L 97.843583 113.677551 
L 97.488648 113.896939 
L 96.429337 114.555102 
L 95.725009 114.993878 
L 95.370026 115.213265 
L 94.310714 115.871429 
L 93.606439 116.310204 
L 93.251403 116.529592 
L 92.192092 117.187755 
L 91.487872 117.626531 
L 91.132781 117.845918 
L 90.073469 118.504082 
L 89.369308 118.942857 
L 89.014158 119.162245 
L 87.954847 119.820408 
L 87.250748 120.259184 
L 86.895536 120.478571 
L 85.836224 121.136735 
L 85.132192 121.57551 
L 84.776913 121.794898 
L 83.717602 122.453061 
L 83.013641 122.891837 
L 82.658291 123.111224 
L 81.59898 123.769388 
L 80.895096 124.208163 
L 80.539668 124.427551 
L 79.480357 125.085714 
L 78.776556 125.52449 
L 78.421046 125.743878 
L 77.361735 126.402041 
L 76.658023 126.840816 
L 76.302423 127.060204 
L 75.243112 127.718367 
L 74.539498 128.157143 
L 74.183801 128.376531 
L 73.12449 129.034694 
L 72.420981 129.473469 
L 72.065179 129.692857 
L 71.005867 130.35102 
L 70.302474 130.789796 
L 69.946556 131.009184 
L 68.887245 131.667347 
L 68.183979 132.106122 
L 67.827934 132.32551 
L 66.768622 132.983673 
L 66.065497 133.422449 
L 65.709311 133.641837 
L 64.65 134.3 
z
" style="fill:#a0d99b;"/>
   </g>
   <g id="PathCollection_6">
    <path clip-path="url(#p0a90760f21)" d="M 64.65 117.626531 
L 64.65 116.310204 
L 64.65 114.993878 
L 64.65 113.677551 
L 64.65 112.361224 
L 64.65 111.044898 
L 64.65 109.728571 
L 64.65 108.412245 
L 64.65 107.095918 
L 64.65 105.779592 
L 64.65 104.463265 
L 64.65 103.282057 
L 64.784568 103.146939 
L 65.709311 102.205908 
L 66.083473 101.830612 
L 66.768622 101.134349 
L 67.387407 100.514286 
L 67.827934 100.06718 
L 68.696125 99.197959 
L 68.887245 99.004212 
L 69.946556 97.945272 
L 70.011171 97.881633 
L 71.005867 96.890197 
L 71.335864 96.565306 
L 72.065179 95.838837 
L 72.664503 95.24898 
L 73.12449 94.791048 
L 73.996914 93.932653 
L 74.183801 93.746698 
L 75.243112 92.705662 
L 75.335199 92.616327 
L 76.302423 91.667823 
L 76.681548 91.3 
L 77.361735 90.633069 
L 78.031027 89.983673 
L 78.421046 89.601296 
L 79.383511 88.667347 
L 79.480357 88.572407 
L 80.539668 87.546307 
L 80.743424 87.35102 
L 81.59898 86.522908 
L 82.108183 86.034694 
L 82.658291 85.502126 
L 83.475445 84.718367 
L 83.717602 84.483883 
L 84.776913 83.468103 
L 84.846567 83.402041 
L 85.836224 82.454714 
L 86.225064 82.085714 
L 86.895536 81.443647 
L 87.605646 80.769388 
L 87.954847 80.434838 
L 88.988245 79.453061 
L 89.014158 79.428225 
L 90.073469 78.423748 
L 90.378634 78.136735 
L 91.132781 77.421351 
L 91.77127 76.820408 
L 92.192092 76.42098 
L 93.165589 75.504082 
L 93.251403 75.422582 
L 94.310714 74.426109 
L 94.566141 74.187755 
L 95.370026 73.431513 
L 95.969729 72.871429 
L 96.429337 72.438748 
L 97.374718 71.555102 
L 97.488648 71.44777 
L 98.547959 70.458538 
L 98.785105 70.238776 
L 99.60727 69.471011 
L 100.198682 68.922449 
L 100.666582 68.485151 
L 101.613419 67.606122 
L 101.725893 67.500919 
L 102.785204 66.518281 
L 103.033292 66.289796 
L 103.844515 65.537201 
L 104.456011 64.973469 
L 104.903827 64.557646 
L 105.879685 63.657143 
L 105.963138 63.579584 
L 107.022449 62.602983 
L 107.308689 62.340816 
L 108.08176 61.627815 
L 108.739805 61.02449 
L 109.141071 60.654049 
L 110.171699 59.708163 
L 110.200383 59.681659 
L 111.259694 58.710616 
L 111.609483 58.391837 
L 112.319005 57.740895 
L 113.048335 57.07551 
L 113.378316 56.77247 
L 114.437628 55.805318 
L 114.488534 55.759184 
L 115.496939 54.839413 
L 115.934033 54.442857 
L 116.55625 53.874734 
L 117.380034 53.126531 
L 117.615561 52.911257 
L 118.674872 51.948962 
L 118.828616 51.810204 
L 119.734184 50.987828 
L 120.280858 50.493878 
L 120.793495 50.027833 
L 121.733484 49.177551 
L 121.852806 49.068959 
L 122.912117 48.111186 
L 123.19011 47.861224 
L 123.971429 47.154495 
L 124.648609 46.544898 
L 125.03074 46.198869 
L 126.090051 45.24429 
L 126.107613 45.228571 
L 127.149362 44.290741 
L 127.571742 43.912245 
L 128.208673 43.338205 
L 129.036063 42.595918 
L 129.267985 42.386666 
L 130.327296 41.436108 
L 130.502712 41.279592 
L 131.386607 40.486516 
L 131.972351 39.963265 
L 132.445918 39.537876 
L 133.442103 38.646939 
L 133.50523 38.590171 
L 134.564541 37.643389 
L 134.916094 37.330612 
L 135.623852 36.697516 
L 136.390879 36.014286 
L 136.683163 35.752538 
L 137.742474 34.808442 
L 137.867131 34.697959 
L 138.801786 33.865215 
L 139.346756 33.381633 
L 139.861097 32.922844 
L 140.826358 32.065306 
L 140.920408 31.981318 
L 141.979719 31.040625 
L 142.309582 30.74898 
L 143.039031 30.100753 
L 143.793779 29.432653 
L 144.098342 29.161691 
L 145.157653 28.223427 
L 145.279206 28.116327 
L 146.216964 27.285951 
L 146.76783 26.8 
L 147.276276 26.8 
L 148.335587 26.8 
L 149.394898 26.8 
L 150.454209 26.8 
L 151.51352 26.8 
L 152.572832 26.8 
L 153.632143 26.8 
L 154.691454 26.8 
L 155.750765 26.8 
L 156.810077 26.8 
L 157.869388 26.8 
L 158.928699 26.8 
L 159.98801 26.8 
L 161.047321 26.8 
L 162.106633 26.8 
L 163.165944 26.8 
L 164.225255 26.8 
L 165.284566 26.8 
L 166.343878 26.8 
L 167.403189 26.8 
L 168.4625 26.8 
L 168.4625 28.116327 
L 168.4625 29.432653 
L 168.4625 30.74898 
L 168.4625 32.065306 
L 168.4625 33.381633 
L 168.4625 34.697959 
L 168.4625 36.014286 
L 168.4625 37.330612 
L 168.4625 38.646939 
L 168.4625 38.782057 
L 167.403189 39.572665 
L 166.881177 39.963265 
L 166.343878 40.363577 
L 165.284566 41.154796 
L 165.118165 41.279592 
L 164.225255 41.946327 
L 163.356933 42.595918 
L 163.165944 42.738171 
L 162.106633 43.530334 
L 161.597312 43.912245 
L 161.047321 44.322818 
L 159.98801 45.115628 
L 159.837748 45.228571 
L 158.928699 45.908768 
L 158.080213 46.544898 
L 157.869388 46.702241 
L 156.810077 47.496052 
L 156.324191 47.861224 
L 155.750765 48.290205 
L 154.691454 49.084704 
L 154.568225 49.177551 
L 153.632143 49.879553 
L 152.814664 50.493878 
L 152.572832 50.674756 
L 151.51352 51.470319 
L 151.062403 51.810204 
L 150.454209 52.266246 
L 149.394898 53.062542 
L 149.310193 53.126531 
L 148.335587 53.859211 
L 147.560913 54.442857 
L 147.276276 54.656259 
L 146.216964 55.45369 
L 145.812586 55.759184 
L 145.157653 56.251509 
L 144.098342 57.049723 
L 144.064303 57.07551 
L 143.039031 57.848336 
L 142.319649 58.391837 
L 141.979719 58.647353 
L 140.920408 59.446782 
L 140.57544 59.708163 
L 139.861097 60.246626 
L 138.831591 61.02449 
L 138.801786 61.046893 
L 137.742474 61.847588 
L 137.091622 62.340816 
L 136.683163 62.648718 
L 135.623852 63.450289 
L 135.351729 63.657143 
L 134.564541 64.252307 
L 133.613089 64.973469 
L 133.50523 65.05478 
L 132.445918 65.857713 
L 131.877661 66.289796 
L 131.386607 66.661115 
L 130.327296 67.464993 
L 130.142295 67.606122 
L 129.267985 68.269353 
L 128.409331 68.922449 
L 128.208673 69.074205 
L 127.149362 69.879554 
L 126.678674 70.238776 
L 126.090051 70.68541 
L 125.03074 71.491782 
L 124.948062 71.555102 
L 123.971429 72.298676 
L 123.221303 72.871429 
L 122.912117 73.106103 
L 121.852806 73.914071 
L 121.495667 74.187755 
L 120.793495 74.72259 
L 119.770518 75.504082 
L 119.734184 75.531669 
L 118.674872 76.341318 
L 118.050101 76.820408 
L 117.615561 77.151547 
L 116.55625 77.962367 
L 116.329751 78.136735 
L 115.496939 78.773788 
L 114.611753 79.453061 
L 114.437628 79.585822 
L 113.378316 80.39848 
L 112.896942 80.769388 
L 112.319005 81.211774 
L 111.259694 82.025716 
L 111.182157 82.085714 
L 110.200383 82.840319 
L 109.47207 83.402041 
L 109.141071 83.655596 
L 108.08176 84.471561 
L 107.763176 84.718367 
L 107.022449 85.288226 
L 106.055634 86.034694 
L 105.963138 86.105608 
L 104.903827 86.923721 
L 104.35296 87.35102 
L 103.844515 87.74258 
L 102.785204 88.562202 
L 102.650311 88.667347 
L 101.725893 89.382603 
L 100.952093 89.983673 
L 100.666582 90.2038 
L 99.60727 91.025812 
L 99.25609 91.3 
L 98.547959 91.848657 
L 97.561226 92.616327 
L 97.488648 92.672355 
L 96.429337 93.496925 
L 95.872277 93.932653 
L 95.370026 94.322389 
L 94.310714 95.148769 
L 94.183324 95.24898 
L 93.251403 95.976087 
L 92.499645 96.565306 
L 92.192092 96.804367 
L 91.132781 97.633635 
L 90.818267 97.881633 
L 90.073469 98.463915 
L 89.139065 99.197959 
L 89.014158 99.295235 
L 87.954847 100.127623 
L 87.465777 100.514286 
L 86.895536 100.961109 
L 85.836224 101.795724 
L 85.792395 101.830612 
L 84.776913 102.6315 
L 84.126902 103.146939 
L 83.717602 103.468472 
L 82.658291 104.306675 
L 82.462246 104.463265 
L 81.59898 105.146148 
L 80.802839 105.779592 
L 80.539668 105.986929 
L 79.480357 106.82906 
L 79.147567 107.095918 
L 78.421046 107.672587 
L 77.494964 108.412245 
L 77.361735 108.517555 
L 76.302423 109.364013 
L 75.849821 109.728571 
L 75.243112 110.212015 
L 74.204869 111.044898 
L 74.183801 111.061614 
L 73.12449 111.912871 
L 72.570703 112.361224 
L 72.065179 112.765847 
L 71.005867 113.620609 
L 70.936232 113.677551 
L 69.946556 114.477228 
L 69.312195 114.993878 
L 68.887245 115.335779 
L 67.827934 116.196345 
L 67.689662 116.310204 
L 66.768622 117.059011 
L 66.076634 117.626531 
L 65.709311 117.923872 
L 64.65 118.791028 
z
" style="fill:#83cb82;"/>
   </g>
   <g id="PathCollection_7">
    <path clip-path="url(#p0a90760f21)" d="M 64.65 103.146939 
L 64.65 101.830612 
L 64.65 100.514286 
L 64.65 99.197959 
L 64.65 97.881633 
L 64.65 96.565306 
L 64.65 95.24898 
L 64.65 93.932653 
L 64.65 92.616327 
L 64.65 91.3 
L 64.65 89.983673 
L 64.65 88.667347 
L 64.65 87.773085 
L 65.001032 87.35102 
L 65.709311 86.487943 
L 66.0881 86.034694 
L 66.768622 85.209687 
L 67.181104 84.718367 
L 67.827934 83.938014 
L 68.279855 83.402041 
L 68.887245 82.672644 
L 69.38417 82.085714 
L 69.946556 81.413316 
L 70.493873 80.769388 
L 71.005867 80.159786 
L 71.608797 79.453061 
L 72.065179 78.911826 
L 72.728781 78.136735 
L 73.12449 77.669225 
L 73.853672 76.820408 
L 74.183801 76.431782 
L 74.983322 75.504082 
L 75.243112 75.199309 
L 76.117591 74.187755 
L 76.302423 73.971632 
L 77.256344 72.871429 
L 77.361735 72.748583 
L 78.399451 71.555102 
L 78.421046 71.530006 
L 79.480357 70.315753 
L 79.54838 70.238776 
L 80.539668 69.105684 
L 80.701964 68.922449 
L 81.59898 67.899668 
L 81.859558 67.606122 
L 82.658291 66.697577 
L 83.021049 66.289796 
L 83.717602 65.499294 
L 84.18633 64.973469 
L 84.776913 64.304706 
L 85.355297 63.657143 
L 85.836224 63.113703 
L 86.527852 62.340816 
L 86.895536 61.926185 
L 87.703899 61.02449 
L 87.954847 60.742053 
L 88.883347 59.708163 
L 89.014158 59.561215 
L 90.066107 58.391837 
L 90.073469 58.383582 
L 91.132781 57.209068 
L 91.254455 57.07551 
L 92.192092 56.037592 
L 92.446083 55.759184 
L 93.251403 54.869078 
L 93.640764 54.442857 
L 94.310714 53.70345 
L 94.838423 53.126531 
L 95.370026 52.540637 
L 96.038987 51.810204 
L 96.429337 51.380571 
L 97.242385 50.493878 
L 97.488648 50.223186 
L 98.448551 49.177551 
L 98.547959 49.06842 
L 99.60727 47.916211 
L 99.6583 47.861224 
L 100.666582 46.766502 
L 100.872434 46.544898 
L 101.725893 45.619236 
L 102.089121 45.228571 
L 102.785204 44.47436 
L 103.308305 43.912245 
L 103.844515 43.331822 
L 104.529927 42.595918 
L 104.903827 42.191571 
L 105.753936 41.279592 
L 105.963138 41.053559 
L 106.980277 39.963265 
L 107.022449 39.91774 
L 108.08176 38.784069 
L 108.210913 38.646939 
L 109.141071 37.652503 
L 109.444429 37.330612 
L 110.200383 36.522998 
L 110.680103 36.014286 
L 111.259694 35.395516 
L 111.917889 34.697959 
L 112.319005 34.270016 
L 113.157744 33.381633 
L 113.378316 33.14646 
L 114.399624 32.065306 
L 114.437628 32.024813 
L 115.496939 30.905038 
L 115.645627 30.74898 
L 116.55625 29.787101 
L 116.894105 29.432653 
L 117.615561 28.670968 
L 118.144459 28.116327 
L 118.674872 27.556607 
L 119.396653 26.8 
L 119.734184 26.8 
L 120.793495 26.8 
L 121.852806 26.8 
L 122.912117 26.8 
L 123.971429 26.8 
L 125.03074 26.8 
L 126.090051 26.8 
L 127.149362 26.8 
L 128.208673 26.8 
L 129.267985 26.8 
L 130.327296 26.8 
L 131.386607 26.8 
L 132.445918 26.8 
L 133.50523 26.8 
L 134.564541 26.8 
L 135.623852 26.8 
L 136.683163 26.8 
L 137.742474 26.8 
L 138.801786 26.8 
L 139.861097 26.8 
L 140.920408 26.8 
L 141.979719 26.8 
L 143.039031 26.8 
L 144.098342 26.8 
L 145.157653 26.8 
L 146.216964 26.8 
L 146.76783 26.8 
L 146.216964 27.285951 
L 145.279206 28.116327 
L 145.157653 28.223427 
L 144.098342 29.161691 
L 143.793779 29.432653 
L 143.039031 30.100753 
L 142.309582 30.74898 
L 141.979719 31.040625 
L 140.920408 31.981318 
L 140.826358 32.065306 
L 139.861097 32.922844 
L 139.346756 33.381633 
L 138.801786 33.865215 
L 137.867131 34.697959 
L 137.742474 34.808442 
L 136.683163 35.752538 
L 136.390879 36.014286 
L 135.623852 36.697516 
L 134.916094 37.330612 
L 134.564541 37.643389 
L 133.50523 38.590171 
L 133.442103 38.646939 
L 132.445918 39.537876 
L 131.972351 39.963265 
L 131.386607 40.486516 
L 130.502712 41.279592 
L 130.327296 41.436108 
L 129.267985 42.386666 
L 129.036063 42.595918 
L 128.208673 43.338205 
L 127.571742 43.912245 
L 127.149362 44.290741 
L 126.107613 45.228571 
L 126.090051 45.24429 
L 125.03074 46.198869 
L 124.648609 46.544898 
L 123.971429 47.154495 
L 123.19011 47.861224 
L 122.912117 48.111186 
L 121.852806 49.068959 
L 121.733484 49.177551 
L 120.793495 50.027833 
L 120.280858 50.493878 
L 119.734184 50.987828 
L 118.828616 51.810204 
L 118.674872 51.948962 
L 117.615561 52.911257 
L 117.380034 53.126531 
L 116.55625 53.874734 
L 115.934033 54.442857 
L 115.496939 54.839413 
L 114.488534 55.759184 
L 114.437628 55.805318 
L 113.378316 56.77247 
L 113.048335 57.07551 
L 112.319005 57.740895 
L 111.609483 58.391837 
L 111.259694 58.710616 
L 110.200383 59.681659 
L 110.171699 59.708163 
L 109.141071 60.654049 
L 108.739805 61.02449 
L 108.08176 61.627815 
L 107.308689 62.340816 
L 107.022449 62.602983 
L 105.963138 63.579584 
L 105.879685 63.657143 
L 104.903827 64.557646 
L 104.456011 64.973469 
L 103.844515 65.537201 
L 103.033292 66.289796 
L 102.785204 66.518281 
L 101.725893 67.500919 
L 101.613419 67.606122 
L 100.666582 68.485151 
L 100.198682 68.922449 
L 99.60727 69.471011 
L 98.785105 70.238776 
L 98.547959 70.458538 
L 97.488648 71.44777 
L 97.374718 71.555102 
L 96.429337 72.438748 
L 95.969729 72.871429 
L 95.370026 73.431513 
L 94.566141 74.187755 
L 94.310714 74.426109 
L 93.251403 75.422582 
L 93.165589 75.504082 
L 92.192092 76.42098 
L 91.77127 76.820408 
L 91.132781 77.421351 
L 90.378634 78.136735 
L 90.073469 78.423748 
L 89.014158 79.428225 
L 88.988245 79.453061 
L 87.954847 80.434838 
L 87.605646 80.769388 
L 86.895536 81.443647 
L 86.225064 82.085714 
L 85.836224 82.454714 
L 84.846567 83.402041 
L 84.776913 83.468103 
L 83.717602 84.483883 
L 83.475445 84.718367 
L 82.658291 85.502126 
L 82.108183 86.034694 
L 81.59898 86.522908 
L 80.743424 87.35102 
L 80.539668 87.546307 
L 79.480357 88.572407 
L 79.383511 88.667347 
L 78.421046 89.601296 
L 78.031027 89.983673 
L 77.361735 90.633069 
L 76.681548 91.3 
L 76.302423 91.667823 
L 75.335199 92.616327 
L 75.243112 92.705662 
L 74.183801 93.746698 
L 73.996914 93.932653 
L 73.12449 94.791048 
L 72.664503 95.24898 
L 72.065179 95.838837 
L 71.335864 96.565306 
L 71.005867 96.890197 
L 70.011171 97.881633 
L 69.946556 97.945272 
L 68.887245 99.004212 
L 68.696125 99.197959 
L 67.827934 100.06718 
L 67.387407 100.514286 
L 66.768622 101.134349 
L 66.083473 101.830612 
L 65.709311 102.205908 
L 64.784568 103.146939 
L 64.65 103.282057 
z
" style="fill:#63bc6e;"/>
   </g>
   <g id="PathCollection_8">
    <path clip-path="url(#p0a90760f21)" d="M 64.65 87.35102 
L 64.65 86.034694 
L 64.65 84.718367 
L 64.65 83.402041 
L 64.65 82.085714 
L 64.65 80.769388 
L 64.65 79.453061 
L 64.65 78.136735 
L 64.65 76.820408 
L 64.65 75.504082 
L 64.65 74.187755 
L 64.65 72.871429 
L 64.65 72.264113 
L 65.156212 71.555102 
L 65.709311 70.769979 
L 66.091438 70.238776 
L 66.768622 69.285025 
L 67.031322 68.922449 
L 67.827934 67.808849 
L 67.975824 67.606122 
L 68.887245 66.341077 
L 68.9249 66.289796 
L 69.880472 64.973469 
L 69.946556 64.88136 
L 70.841361 63.657143 
L 71.005867 63.429374 
L 71.806411 62.340816 
L 72.065179 61.984816 
L 72.77558 61.02449 
L 73.12449 60.547402 
L 73.748823 59.708163 
L 74.183801 59.116865 
L 74.726094 58.391837 
L 75.243112 57.692957 
L 75.707342 57.07551 
L 76.302423 56.275441 
L 76.692515 55.759184 
L 77.361735 54.864097 
L 77.681561 54.442857 
L 78.421046 53.458715 
L 78.674425 53.126531 
L 79.480357 52.059099 
L 79.671052 51.810204 
L 80.539668 50.665062 
L 80.671388 50.493878 
L 81.59898 49.276428 
L 81.675376 49.177551 
L 82.658291 47.893028 
L 82.682962 47.861224 
L 83.694613 46.544898 
L 83.717602 46.514705 
L 84.710195 45.228571 
L 84.776913 45.141308 
L 85.729102 43.912245 
L 85.836224 43.772693 
L 86.751288 42.595918 
L 86.895536 42.408723 
L 87.776704 41.279592 
L 87.954847 41.049269 
L 88.805303 39.963265 
L 89.014158 39.694205 
L 89.837039 38.646939 
L 90.073469 38.343415 
L 90.871864 37.330612 
L 91.132781 36.996784 
L 91.909733 36.014286 
L 92.192092 35.654205 
L 92.950599 34.697959 
L 93.251403 34.315573 
L 93.994419 33.381633 
L 94.310714 32.98079 
L 95.041146 32.065306 
L 95.370026 31.649761 
L 96.090738 30.74898 
L 96.429337 30.322394 
L 97.143151 29.432653 
L 97.488648 28.998602 
L 98.198342 28.116327 
L 98.547959 27.678301 
L 99.25627 26.8 
L 99.60727 26.8 
L 100.666582 26.8 
L 101.725893 26.8 
L 102.785204 26.8 
L 103.844515 26.8 
L 104.903827 26.8 
L 105.963138 26.8 
L 107.022449 26.8 
L 108.08176 26.8 
L 109.141071 26.8 
L 110.200383 26.8 
L 111.259694 26.8 
L 112.319005 26.8 
L 113.378316 26.8 
L 114.437628 26.8 
L 115.496939 26.8 
L 116.55625 26.8 
L 117.615561 26.8 
L 118.674872 26.8 
L 119.396653 26.8 
L 118.674872 27.556607 
L 118.144459 28.116327 
L 117.615561 28.670968 
L 116.894105 29.432653 
L 116.55625 29.787101 
L 115.645627 30.74898 
L 115.496939 30.905038 
L 114.437628 32.024813 
L 114.399624 32.065306 
L 113.378316 33.14646 
L 113.157744 33.381633 
L 112.319005 34.270016 
L 111.917889 34.697959 
L 111.259694 35.395516 
L 110.680103 36.014286 
L 110.200383 36.522998 
L 109.444429 37.330612 
L 109.141071 37.652503 
L 108.210913 38.646939 
L 108.08176 38.784069 
L 107.022449 39.91774 
L 106.980277 39.963265 
L 105.963138 41.053559 
L 105.753936 41.279592 
L 104.903827 42.191571 
L 104.529927 42.595918 
L 103.844515 43.331822 
L 103.308305 43.912245 
L 102.785204 44.47436 
L 102.089121 45.228571 
L 101.725893 45.619236 
L 100.872434 46.544898 
L 100.666582 46.766502 
L 99.6583 47.861224 
L 99.60727 47.916211 
L 98.547959 49.06842 
L 98.448551 49.177551 
L 97.488648 50.223186 
L 97.242385 50.493878 
L 96.429337 51.380571 
L 96.038987 51.810204 
L 95.370026 52.540637 
L 94.838423 53.126531 
L 94.310714 53.70345 
L 93.640764 54.442857 
L 93.251403 54.869078 
L 92.446083 55.759184 
L 92.192092 56.037592 
L 91.254455 57.07551 
L 91.132781 57.209068 
L 90.073469 58.383582 
L 90.066107 58.391837 
L 89.014158 59.561215 
L 88.883347 59.708163 
L 87.954847 60.742053 
L 87.703899 61.02449 
L 86.895536 61.926185 
L 86.527852 62.340816 
L 85.836224 63.113703 
L 85.355297 63.657143 
L 84.776913 64.304706 
L 84.18633 64.973469 
L 83.717602 65.499294 
L 83.021049 66.289796 
L 82.658291 66.697577 
L 81.859558 67.606122 
L 81.59898 67.899668 
L 80.701964 68.922449 
L 80.539668 69.105684 
L 79.54838 70.238776 
L 79.480357 70.315753 
L 78.421046 71.530006 
L 78.399451 71.555102 
L 77.361735 72.748583 
L 77.256344 72.871429 
L 76.302423 73.971632 
L 76.117591 74.187755 
L 75.243112 75.199309 
L 74.983322 75.504082 
L 74.183801 76.431782 
L 73.853672 76.820408 
L 73.12449 77.669225 
L 72.728781 78.136735 
L 72.065179 78.911826 
L 71.608797 79.453061 
L 71.005867 80.159786 
L 70.493873 80.769388 
L 69.946556 81.413316 
L 69.38417 82.085714 
L 68.887245 82.672644 
L 68.279855 83.402041 
L 67.827934 83.938014 
L 67.181104 84.718367 
L 66.768622 85.209687 
L 66.0881 86.034694 
L 65.709311 86.487943 
L 65.001032 87.35102 
L 64.65 87.773085 
z
" style="fill:#40aa5d;"/>
   </g>
   <g id="PathCollection_9">
    <path clip-path="url(#p0a90760f21)" d="M 64.65 71.555102 
L 64.65 70.238776 
L 64.65 68.922449 
L 64.65 67.606122 
L 64.65 66.289796 
L 64.65 64.973469 
L 64.65 63.657143 
L 64.65 62.340816 
L 64.65 61.02449 
L 64.65 59.708163 
L 64.65 58.391837 
L 64.65 57.07551 
L 64.65 56.755142 
L 65.272905 55.759184 
L 65.709311 55.052014 
L 66.09396 54.442857 
L 66.768622 53.360363 
L 66.917631 53.126531 
L 67.746631 51.810204 
L 67.827934 51.679684 
L 68.582746 50.493878 
L 68.887245 50.009509 
L 69.421346 49.177551 
L 69.946556 48.349404 
L 70.262526 47.861224 
L 71.005867 46.698963 
L 71.106369 46.544898 
L 71.956104 45.228571 
L 72.065179 45.057806 
L 72.811176 43.912245 
L 73.12449 43.425579 
L 73.668757 42.595918 
L 74.183801 41.801949 
L 74.528906 41.279592 
L 75.243112 40.186604 
L 75.391674 39.963265 
L 76.258273 38.646939 
L 76.302423 38.57925 
L 77.13121 37.330612 
L 77.361735 36.979611 
L 78.006608 36.014286 
L 78.421046 35.387424 
L 78.884504 34.697959 
L 79.480357 33.802445 
L 79.764929 33.381633 
L 80.539668 32.22444 
L 80.647907 32.065306 
L 81.534993 30.74898 
L 81.59898 30.653188 
L 82.427041 29.432653 
L 82.658291 29.088479 
L 83.321486 28.116327 
L 83.717602 27.530117 
L 84.218349 26.8 
L 84.776913 26.8 
L 85.836224 26.8 
L 86.895536 26.8 
L 87.954847 26.8 
L 89.014158 26.8 
L 90.073469 26.8 
L 91.132781 26.8 
L 92.192092 26.8 
L 93.251403 26.8 
L 94.310714 26.8 
L 95.370026 26.8 
L 96.429337 26.8 
L 97.488648 26.8 
L 98.547959 26.8 
L 99.25627 26.8 
L 98.547959 27.678301 
L 98.198342 28.116327 
L 97.488648 28.998602 
L 97.143151 29.432653 
L 96.429337 30.322394 
L 96.090738 30.74898 
L 95.370026 31.649761 
L 95.041146 32.065306 
L 94.310714 32.98079 
L 93.994419 33.381633 
L 93.251403 34.315573 
L 92.950599 34.697959 
L 92.192092 35.654205 
L 91.909733 36.014286 
L 91.132781 36.996784 
L 90.871864 37.330612 
L 90.073469 38.343415 
L 89.837039 38.646939 
L 89.014158 39.694205 
L 88.805303 39.963265 
L 87.954847 41.049269 
L 87.776704 41.279592 
L 86.895536 42.408723 
L 86.751288 42.595918 
L 85.836224 43.772693 
L 85.729102 43.912245 
L 84.776913 45.141308 
L 84.710195 45.228571 
L 83.717602 46.514705 
L 83.694613 46.544898 
L 82.682962 47.861224 
L 82.658291 47.893028 
L 81.675376 49.177551 
L 81.59898 49.276428 
L 80.671388 50.493878 
L 80.539668 50.665062 
L 79.671052 51.810204 
L 79.480357 52.059099 
L 78.674425 53.126531 
L 78.421046 53.458715 
L 77.681561 54.442857 
L 77.361735 54.864097 
L 76.692515 55.759184 
L 76.302423 56.275441 
L 75.707342 57.07551 
L 75.243112 57.692957 
L 74.726094 58.391837 
L 74.183801 59.116865 
L 73.748823 59.708163 
L 73.12449 60.547402 
L 72.77558 61.02449 
L 72.065179 61.984816 
L 71.806411 62.340816 
L 71.005867 63.429374 
L 70.841361 63.657143 
L 69.946556 64.88136 
L 69.880472 64.973469 
L 68.9249 66.289796 
L 68.887245 66.341077 
L 67.975824 67.606122 
L 67.827934 67.808849 
L 67.031322 68.922449 
L 66.768622 69.285025 
L 66.091438 70.238776 
L 65.709311 70.769979 
L 65.156212 71.555102 
L 64.65 72.264113 
z
" style="fill:#2d954d;"/>
   </g>
   <g id="PathCollection_10">
    <path clip-path="url(#p0a90760f21)" d="M 64.65 55.759184 
L 64.65 54.442857 
L 64.65 53.126531 
L 64.65 51.810204 
L 64.65 50.493878 
L 64.65 49.177551 
L 64.65 47.861224 
L 64.65 46.544898 
L 64.65 45.228571 
L 64.65 43.912245 
L 64.65 42.595918 
L 64.65 41.279592 
L 64.65 41.24617 
L 65.36385 39.963265 
L 65.709311 39.33405 
L 66.095933 38.646939 
L 66.768622 37.435701 
L 66.828389 37.330612 
L 67.569835 36.014286 
L 67.827934 35.550519 
L 68.313502 34.697959 
L 68.887245 33.677942 
L 69.057692 33.381633 
L 69.806918 32.065306 
L 69.946556 31.817448 
L 70.561808 30.74898 
L 71.005867 29.968551 
L 71.31733 29.432653 
L 72.065179 28.130796 
L 72.073664 28.116327 
L 72.839161 26.8 
L 73.12449 26.8 
L 74.183801 26.8 
L 75.243112 26.8 
L 76.302423 26.8 
L 77.361735 26.8 
L 78.421046 26.8 
L 79.480357 26.8 
L 80.539668 26.8 
L 81.59898 26.8 
L 82.658291 26.8 
L 83.717602 26.8 
L 84.218349 26.8 
L 83.717602 27.530117 
L 83.321486 28.116327 
L 82.658291 29.088479 
L 82.427041 29.432653 
L 81.59898 30.653188 
L 81.534993 30.74898 
L 80.647907 32.065306 
L 80.539668 32.22444 
L 79.764929 33.381633 
L 79.480357 33.802445 
L 78.884504 34.697959 
L 78.421046 35.387424 
L 78.006608 36.014286 
L 77.361735 36.979611 
L 77.13121 37.330612 
L 76.302423 38.57925 
L 76.258273 38.646939 
L 75.391674 39.963265 
L 75.243112 40.186604 
L 74.528906 41.279592 
L 74.183801 41.801949 
L 73.668757 42.595918 
L 73.12449 43.425579 
L 72.811176 43.912245 
L 72.065179 45.057806 
L 71.956104 45.228571 
L 71.106369 46.544898 
L 71.005867 46.698963 
L 70.262526 47.861224 
L 69.946556 48.349404 
L 69.421346 49.177551 
L 68.887245 50.009509 
L 68.582746 50.493878 
L 67.827934 51.679684 
L 67.746631 51.810204 
L 66.917631 53.126531 
L 66.768622 53.360363 
L 66.09396 54.442857 
L 65.709311 55.052014 
L 65.272905 55.759184 
L 64.65 56.755142 
z
" style="fill:#17813d;"/>
   </g>
   <g id="PathCollection_11">
    <path clip-path="url(#p0a90760f21)" d="M 64.65 39.963265 
L 64.65 38.646939 
L 64.65 37.330612 
L 64.65 36.014286 
L 64.65 34.697959 
L 64.65 33.381633 
L 64.65 32.065306 
L 64.65 30.74898 
L 64.65 29.432653 
L 64.65 28.116327 
L 64.65 26.8 
L 65.709311 26.8 
L 66.768622 26.8 
L 67.827934 26.8 
L 68.887245 26.8 
L 69.946556 26.8 
L 71.005867 26.8 
L 72.065179 26.8 
L 72.839161 26.8 
L 72.073664 28.116327 
L 72.065179 28.130796 
L 71.31733 29.432653 
L 71.005867 29.968551 
L 70.561808 30.74898 
L 69.946556 31.817448 
L 69.806918 32.065306 
L 69.057692 33.381633 
L 68.887245 33.677942 
L 68.313502 34.697959 
L 67.827934 35.550519 
L 67.569835 36.014286 
L 66.828389 37.330612 
L 66.768622 37.435701 
L 66.095933 38.646939 
L 65.709311 39.33405 
L 65.36385 39.963265 
L 64.65 41.24617 
z
" style="fill:#006c2c;"/>
   </g>
   <g id="PathCollection_12"/>
   <g id="matplotlib.axis_1">
    <g id="xtick_1">
     <g id="line2d_1">
      <defs>
       <path d="M 0 0 
L 0 3.5 
" id="mb0b6954085" style="stroke:#000000;stroke-width:0.8;"/>
      </defs>
      <g>
       <use style="stroke:#000000;stroke-width:0.8;" x="64.65" xlink:href="#mb0b6954085" y="155.8"/>
      </g>
     </g>
     <g id="text_1">
      <!-- 0.5 -->
      <defs>
       <path d="M 31.78125 66.40625 
Q 24.171875 66.40625 20.328125 58.90625 
Q 16.5 51.421875 16.5 36.375 
Q 16.5 21.390625 20.328125 13.890625 
Q 24.171875 6.390625 31.78125 6.390625 
Q 39.453125 6.390625 43.28125 13.890625 
Q 47.125 21.390625 47.125 36.375 
Q 47.125 51.421875 43.28125 58.90625 
Q 39.453125 66.40625 31.78125 66.40625 
z
M 31.78125 74.21875 
Q 44.046875 74.21875 50.515625 64.515625 
Q 56.984375 54.828125 56.984375 36.375 
Q 56.984375 17.96875 50.515625 8.265625 
Q 44.046875 -1.421875 31.78125 -1.421875 
Q 19.53125 -1.421875 13.0625 8.265625 
Q 6.59375 17.96875 6.59375 36.375 
Q 6.59375 54.828125 13.0625 64.515625 
Q 19.53125 74.21875 31.78125 74.21875 
z
" id="DejaVuSans-30"/>
       <path d="M 10.6875 12.40625 
L 21 12.40625 
L 21 0 
L 10.6875 0 
z
" id="DejaVuSans-2e"/>
       <path d="M 10.796875 72.90625 
L 49.515625 72.90625 
L 49.515625 64.59375 
L 19.828125 64.59375 
L 19.828125 46.734375 
Q 21.96875 47.46875 24.109375 47.828125 
Q 26.265625 48.1875 28.421875 48.1875 
Q 40.625 48.1875 47.75 41.5 
Q 54.890625 34.8125 54.890625 23.390625 
Q 54.890625 11.625 47.5625 5.09375 
Q 40.234375 -1.421875 26.90625 -1.421875 
Q 22.3125 -1.421875 17.546875 -0.640625 
Q 12.796875 0.140625 7.71875 1.703125 
L 7.71875 11.625 
Q 12.109375 9.234375 16.796875 8.0625 
Q 21.484375 6.890625 26.703125 6.890625 
Q 35.15625 6.890625 40.078125 11.328125 
Q 45.015625 15.765625 45.015625 23.390625 
Q 45.015625 31 40.078125 35.4375 
Q 35.15625 39.890625 26.703125 39.890625 
Q 22.75 39.890625 18.8125 39.015625 
Q 14.890625 38.140625 10.796875 36.28125 
z
" id="DejaVuSans-35"/>
      </defs>
      <g transform="translate(56.698438 170.398438)scale(0.1 -0.1)">
       <use xlink:href="#DejaVuSans-30"/>
       <use x="63.623047" xlink:href="#DejaVuSans-2e"/>
       <use x="95.410156" xlink:href="#DejaVuSans-35"/>
      </g>
     </g>
    </g>
    <g id="xtick_2">
     <g id="line2d_2">
      <g>
       <use style="stroke:#000000;stroke-width:0.8;" x="99.254167" xlink:href="#mb0b6954085" y="155.8"/>
      </g>
     </g>
     <g id="text_2">
      <!-- 1.0 -->
      <defs>
       <path d="M 12.40625 8.296875 
L 28.515625 8.296875 
L 28.515625 63.921875 
L 10.984375 60.40625 
L 10.984375 69.390625 
L 28.421875 72.90625 
L 38.28125 72.90625 
L 38.28125 8.296875 
L 54.390625 8.296875 
L 54.390625 0 
L 12.40625 0 
z
" id="DejaVuSans-31"/>
      </defs>
      <g transform="translate(91.302604 170.398438)scale(0.1 -0.1)">
       <use xlink:href="#DejaVuSans-31"/>
       <use x="63.623047" xlink:href="#DejaVuSans-2e"/>
       <use x="95.410156" xlink:href="#DejaVuSans-30"/>
      </g>
     </g>
    </g>
    <g id="xtick_3">
     <g id="line2d_3">
      <g>
       <use style="stroke:#000000;stroke-width:0.8;" x="133.858333" xlink:href="#mb0b6954085" y="155.8"/>
      </g>
     </g>
     <g id="text_3">
      <!-- 1.5 -->
      <g transform="translate(125.906771 170.398438)scale(0.1 -0.1)">
       <use xlink:href="#DejaVuSans-31"/>
       <use x="63.623047" xlink:href="#DejaVuSans-2e"/>
       <use x="95.410156" xlink:href="#DejaVuSans-35"/>
      </g>
     </g>
    </g>
    <g id="xtick_4">
     <g id="line2d_4">
      <g>
       <use style="stroke:#000000;stroke-width:0.8;" x="168.4625" xlink:href="#mb0b6954085" y="155.8"/>
      </g>
     </g>
     <g id="text_4">
      <!-- 2.0 -->
      <defs>
       <path d="M 19.1875 8.296875 
L 53.609375 8.296875 
L 53.609375 0 
L 7.328125 0 
L 7.328125 8.296875 
Q 12.9375 14.109375 22.625 23.890625 
Q 32.328125 33.6875 34.8125 36.53125 
Q 39.546875 41.84375 41.421875 45.53125 
Q 43.3125 49.21875 43.3125 52.78125 
Q 43.3125 58.59375 39.234375 62.25 
Q 35.15625 65.921875 28.609375 65.921875 
Q 23.96875 65.921875 18.8125 64.3125 
Q 13.671875 62.703125 7.8125 59.421875 
L 7.8125 69.390625 
Q 13.765625 71.78125 18.9375 73 
Q 24.125 74.21875 28.421875 74.21875 
Q 39.75 74.21875 46.484375 68.546875 
Q 53.21875 62.890625 53.21875 53.421875 
Q 53.21875 48.921875 51.53125 44.890625 
Q 49.859375 40.875 45.40625 35.40625 
Q 44.1875 33.984375 37.640625 27.21875 
Q 31.109375 20.453125 19.1875 8.296875 
z
" id="DejaVuSans-32"/>
      </defs>
      <g transform="translate(160.510938 170.398438)scale(0.1 -0.1)">
       <use xlink:href="#DejaVuSans-32"/>
       <use x="63.623047" xlink:href="#DejaVuSans-2e"/>
       <use x="95.410156" xlink:href="#DejaVuSans-30"/>
      </g>
     </g>
    </g>
    <g id="text_5">
     <!-- $c$ -->
     <defs>
      <path d="M 53.609375 52.59375 
L 51.8125 43.703125 
Q 48.578125 46.046875 44.9375 47.21875 
Q 41.3125 48.390625 37.40625 48.390625 
Q 33.109375 48.390625 29.21875 46.875 
Q 25.34375 45.359375 22.703125 42.578125 
Q 18.5 38.328125 16.203125 32.609375 
Q 13.921875 26.90625 13.921875 20.796875 
Q 13.921875 13.421875 17.609375 9.8125 
Q 21.296875 6.203125 28.8125 6.203125 
Q 32.515625 6.203125 36.6875 7.328125 
Q 40.875 8.453125 45.40625 10.6875 
L 43.703125 1.8125 
Q 39.796875 0.203125 35.671875 -0.609375 
Q 31.546875 -1.421875 27.203125 -1.421875 
Q 16.3125 -1.421875 10.453125 4.015625 
Q 4.59375 9.46875 4.59375 19.578125 
Q 4.59375 28.078125 7.640625 35.234375 
Q 10.6875 42.390625 16.703125 48.09375 
Q 20.796875 52 26.3125 54 
Q 31.84375 56 38.375 56 
Q 42.1875 56 45.9375 55.140625 
Q 49.703125 54.296875 53.609375 52.59375 
z
" id="DejaVuSans-Oblique-63"/>
     </defs>
     <g transform="translate(112.70625 187.115938)scale(0.14 -0.14)">
      <use xlink:href="#DejaVuSans-Oblique-63"/>
     </g>
    </g>
   </g>
   <g id="matplotlib.axis_2">
    <g id="ytick_1">
     <g id="line2d_5">
      <defs>
       <path d="M 0 0 
L -3.5 0 
" id="m5f759feb50" style="stroke:#000000;stroke-width:0.8;"/>
      </defs>
      <g>
       <use style="stroke:#000000;stroke-width:0.8;" x="64.65" xlink:href="#m5f759feb50" y="155.8"/>
      </g>
     </g>
     <g id="text_6">
      <!-- 1.0 -->
      <defs>
       <path d="M 10.59375 35.5 
L 73.1875 35.5 
L 73.1875 27.203125 
L 10.59375 27.203125 
z
" id="DejaVuSans-2212"/>
      </defs>
      <g transform="translate(33.367188 159.599219)scale(0.1 -0.1)">
       <use xlink:href="#DejaVuSans-2212"/>
       <use x="83.789062" xlink:href="#DejaVuSans-31"/>
       <use x="147.412109" xlink:href="#DejaVuSans-2e"/>
       <use x="179.199219" xlink:href="#DejaVuSans-30"/>
      </g>
     </g>
    </g>
    <g id="ytick_2">
     <g id="line2d_6">
      <g>
       <use style="stroke:#000000;stroke-width:0.8;" x="64.65" xlink:href="#m5f759feb50" y="134.3"/>
      </g>
     </g>
     <g id="text_7">
      <!-- 0.5 -->
      <g transform="translate(33.367188 138.099219)scale(0.1 -0.1)">
       <use xlink:href="#DejaVuSans-2212"/>
       <use x="83.789062" xlink:href="#DejaVuSans-30"/>
       <use x="147.412109" xlink:href="#DejaVuSans-2e"/>
       <use x="179.199219" xlink:href="#DejaVuSans-35"/>
      </g>
     </g>
    </g>
    <g id="ytick_3">
     <g id="line2d_7">
      <g>
       <use style="stroke:#000000;stroke-width:0.8;" x="64.65" xlink:href="#m5f759feb50" y="112.8"/>
      </g>
     </g>
     <g id="text_8">
      <!-- 0.0 -->
      <g transform="translate(41.746875 116.599219)scale(0.1 -0.1)">
       <use xlink:href="#DejaVuSans-30"/>
       <use x="63.623047" xlink:href="#DejaVuSans-2e"/>
       <use x="95.410156" xlink:href="#DejaVuSans-30"/>
      </g>
     </g>
    </g>
    <g id="ytick_4">
     <g id="line2d_8">
      <g>
       <use style="stroke:#000000;stroke-width:0.8;" x="64.65" xlink:href="#m5f759feb50" y="91.3"/>
      </g>
     </g>
     <g id="text_9">
      <!-- 0.5 -->
      <g transform="translate(41.746875 95.099219)scale(0.1 -0.1)">
       <use xlink:href="#DejaVuSans-30"/>
       <use x="63.623047" xlink:href="#DejaVuSans-2e"/>
       <use x="95.410156" xlink:href="#DejaVuSans-35"/>
      </g>
     </g>
    </g>
    <g id="ytick_5">
     <g id="line2d_9">
      <g>
       <use style="stroke:#000000;stroke-width:0.8;" x="64.65" xlink:href="#m5f759feb50" y="69.8"/>
      </g>
     </g>
     <g id="text_10">
      <!-- 1.0 -->
      <g transform="translate(41.746875 73.599219)scale(0.1 -0.1)">
       <use xlink:href="#DejaVuSans-31"/>
       <use x="63.623047" xlink:href="#DejaVuSans-2e"/>
       <use x="95.410156" xlink:href="#DejaVuSans-30"/>
      </g>
     </g>
    </g>
    <g id="ytick_6">
     <g id="line2d_10">
      <g>
       <use style="stroke:#000000;stroke-width:0.8;" x="64.65" xlink:href="#m5f759feb50" y="48.3"/>
      </g>
     </g>
     <g id="text_11">
      <!-- 1.5 -->
      <g transform="translate(41.746875 52.099219)scale(0.1 -0.1)">
       <use xlink:href="#DejaVuSans-31"/>
       <use x="63.623047" xlink:href="#DejaVuSans-2e"/>
       <use x="95.410156" xlink:href="#DejaVuSans-35"/>
      </g>
     </g>
    </g>
    <g id="ytick_7">
     <g id="line2d_11">
      <g>
       <use style="stroke:#000000;stroke-width:0.8;" x="64.65" xlink:href="#m5f759feb50" y="26.8"/>
      </g>
     </g>
     <g id="text_12">
      <!-- 2.0 -->
      <g transform="translate(41.746875 30.599219)scale(0.1 -0.1)">
       <use xlink:href="#DejaVuSans-32"/>
       <use x="63.623047" xlink:href="#DejaVuSans-2e"/>
       <use x="95.410156" xlink:href="#DejaVuSans-30"/>
      </g>
     </g>
    </g>
    <g id="text_13">
     <!-- $s N^*$ -->
     <defs>
      <path d="M 50 53.078125 
L 48.296875 44.578125 
Q 44.734375 46.53125 40.765625 47.5 
Q 36.8125 48.484375 32.625 48.484375 
Q 25.53125 48.484375 21.453125 46.0625 
Q 17.390625 43.65625 17.390625 39.5 
Q 17.390625 34.671875 26.859375 32.078125 
Q 27.59375 31.890625 27.9375 31.78125 
L 30.8125 30.90625 
Q 39.796875 28.421875 42.796875 25.6875 
Q 45.796875 22.953125 45.796875 18.21875 
Q 45.796875 9.515625 38.890625 4.046875 
Q 31.984375 -1.421875 20.796875 -1.421875 
Q 16.453125 -1.421875 11.671875 -0.578125 
Q 6.890625 0.25 1.125 2 
L 2.875 11.28125 
Q 7.8125 8.734375 12.59375 7.421875 
Q 17.390625 6.109375 21.78125 6.109375 
Q 28.375 6.109375 32.5 8.9375 
Q 36.625 11.765625 36.625 16.109375 
Q 36.625 20.796875 25.78125 23.6875 
L 24.859375 23.921875 
L 21.78125 24.703125 
Q 14.9375 26.515625 11.765625 29.46875 
Q 8.59375 32.421875 8.59375 37.015625 
Q 8.59375 45.75 15.15625 50.875 
Q 21.734375 56 33.015625 56 
Q 37.453125 56 41.671875 55.265625 
Q 45.90625 54.546875 50 53.078125 
z
" id="DejaVuSans-Oblique-73"/>
      <path d="M 16.890625 72.90625 
L 30.171875 72.90625 
L 50.296875 10.40625 
L 62.5 72.90625 
L 72.125 72.90625 
L 57.90625 0 
L 44.578125 0 
L 24.515625 62.890625 
L 12.3125 0 
L 2.6875 0 
z
" id="DejaVuSans-Oblique-4e"/>
      <path d="M 47.015625 60.890625 
L 29.5 51.421875 
L 47.015625 41.890625 
L 44.1875 37.109375 
L 27.78125 47.015625 
L 27.78125 28.609375 
L 22.21875 28.609375 
L 22.21875 47.015625 
L 5.8125 37.109375 
L 2.984375 41.890625 
L 20.515625 51.421875 
L 2.984375 60.890625 
L 5.8125 65.71875 
L 22.21875 55.8125 
L 22.21875 74.21875 
L 27.78125 74.21875 
L 27.78125 55.8125 
L 44.1875 65.71875 
z
" id="DejaVuSans-2a"/>
     </defs>
     <g transform="translate(26.455625 105.23)rotate(-90)scale(0.14 -0.14)">
      <use transform="translate(0 0.765625)" xlink:href="#DejaVuSans-Oblique-73"/>
      <use transform="translate(52.099609 0.765625)" xlink:href="#DejaVuSans-Oblique-4e"/>
      <use transform="translate(147.558763 39.046875)scale(0.7)" xlink:href="#DejaVuSans-2a"/>
     </g>
    </g>
   </g>
   <g id="LineCollection_1">
    <path clip-path="url(#p0a90760f21)" d="M 156.660565 136.181789 
L 155.750765 136.513468 
L 154.691454 136.89896 
L 153.632143 137.283752 
L 153.391207 137.371429 
L 152.572832 137.667834 
L 151.51352 138.051198 
L 150.454209 138.433834 
L 149.75102 138.687755 
L 149.394898 138.815732 
L 148.335587 139.196884 
L 147.276276 139.577278 
L 146.216964 139.956906 
L 146.085629 140.004082 
L 145.157653 140.335757 
L 144.098342 140.713819 
L 143.039031 141.091084 
L 142.395015 141.320408 
L 141.979719 141.467538 
L 140.920408 141.843171 
L 139.861097 142.217972 
L 138.801786 142.591928 
L 138.675158 142.636735 
L 137.742474 142.965028 
L 136.683163 143.337258 
L 135.623852 143.708606 
L 134.926116 143.953061 
L 134.564541 144.07906 
L 133.50523 144.448604 
L 132.445918 144.817226 
L 131.386607 145.184912 
L 131.143647 145.269388 
L 130.327296 145.551647 
L 129.267985 145.917416 
L 128.208673 146.282203 
L 127.32573 146.585714 
L 127.149362 146.645994 
L 126.090051 147.008771 
L 125.03074 147.370518 
L 123.971429 147.731219 
L 123.469844 147.902041 
L 122.912117 148.090855 
L 121.852806 148.449408 
L 120.793495 148.806861 
L 119.734184 149.163193 
L 119.570491 149.218367 
L 118.674872 149.518385 
L 117.615561 149.872416 
L 116.55625 150.225266 
L 115.624838 150.534694 
L 115.496939 150.576914 
L 114.437628 150.927336 
L 113.378316 151.276509 
L 112.319005 151.624411 
L 111.62803 151.85102 
L 111.259694 151.971017 
L 110.200383 152.3163 
L 109.141071 152.660236 
L 108.08176 153.002797 
L 107.572668 153.167347 
L 107.022449 153.343955 
L 105.963138 153.683682 
L 104.903827 154.021946 
L 103.844515 154.358718 
L 103.451486 154.483673 
L 102.785204 154.693964 
L 101.725893 155.027652 
L 100.666582 155.359747 
L 99.60727 155.690213 
L 99.255369 155.8 
" style="fill:none;stroke:#000000;stroke-dasharray:11.1,4.8;stroke-dashoffset:0;stroke-width:3;"/>
   </g>
   <g id="LineCollection_2">
    <path clip-path="url(#p0a90760f21)" d="M 157.255169 76.763839 
L 64.65 134.3 
L 64.65 134.3 
" style="fill:none;stroke:#000000;stroke-width:3;"/>
   </g>
   <g id="LineCollection_3">
    <path clip-path="url(#p0a90760f21)" d="M 136.744408 35.697954 
L 136.683163 35.752538 
L 136.390879 36.014286 
L 135.623852 36.697516 
L 134.916094 37.330612 
L 134.564541 37.643389 
L 133.50523 38.590171 
L 133.442103 38.646939 
L 132.445918 39.537876 
L 131.972351 39.963265 
L 131.386607 40.486516 
L 130.502712 41.279592 
L 130.327296 41.436108 
L 129.267985 42.386666 
L 129.036063 42.595918 
L 128.208673 43.338205 
L 127.571742 43.912245 
L 127.149362 44.290741 
L 126.107613 45.228571 
L 126.090051 45.24429 
L 125.03074 46.198869 
L 124.648609 46.544898 
L 123.971429 47.154495 
L 123.19011 47.861224 
L 122.912117 48.111186 
L 121.852806 49.068959 
L 121.733484 49.177551 
L 120.793495 50.027833 
L 120.280858 50.493878 
L 119.734184 50.987828 
L 118.828616 51.810204 
L 118.674872 51.948962 
L 117.615561 52.911257 
L 117.380034 53.126531 
L 116.55625 53.874734 
L 115.934033 54.442857 
L 115.496939 54.839413 
L 114.488534 55.759184 
L 114.437628 55.805318 
L 113.378316 56.77247 
L 113.048335 57.07551 
L 112.319005 57.740895 
L 111.609483 58.391837 
L 111.259694 58.710616 
L 110.200383 59.681659 
L 110.171699 59.708163 
L 109.141071 60.654049 
L 108.739805 61.02449 
L 108.08176 61.627815 
L 107.308689 62.340816 
L 107.022449 62.602983 
L 105.963138 63.579584 
L 105.879685 63.657143 
L 104.903827 64.557646 
L 104.456011 64.973469 
L 103.844515 65.537201 
L 103.033292 66.289796 
L 102.785204 66.518281 
L 101.725893 67.500919 
L 101.613419 67.606122 
L 100.666582 68.485151 
L 100.198682 68.922449 
L 99.60727 69.471011 
L 98.785105 70.238776 
L 98.547959 70.458538 
L 97.488648 71.44777 
L 97.374718 71.555102 
L 96.429337 72.438748 
L 95.969729 72.871429 
L 95.370026 73.431513 
L 94.566141 74.187755 
L 94.310714 74.426109 
L 93.251403 75.422582 
L 93.165589 75.504082 
L 92.192092 76.42098 
L 91.77127 76.820408 
L 91.132781 77.421351 
L 90.378634 78.136735 
L 90.073469 78.423748 
L 89.014158 79.428225 
L 88.988245 79.453061 
L 87.954847 80.434838 
L 87.605646 80.769388 
L 86.895536 81.443647 
L 86.225064 82.085714 
L 85.836224 82.454714 
L 84.846567 83.402041 
L 84.776913 83.468103 
L 83.717602 84.483883 
L 83.475445 84.718367 
L 82.658291 85.502126 
L 82.108183 86.034694 
L 81.59898 86.522908 
L 80.743424 87.35102 
L 80.539668 87.546307 
L 79.480357 88.572407 
L 79.383511 88.667347 
L 78.421046 89.601296 
L 78.031027 89.983673 
L 77.361735 90.633069 
L 76.681548 91.3 
L 76.302423 91.667823 
L 75.335199 92.616327 
L 75.243112 92.705662 
L 74.183801 93.746698 
L 73.996914 93.932653 
L 73.12449 94.791048 
L 72.664503 95.24898 
L 72.065179 95.838837 
L 71.335864 96.565306 
L 71.005867 96.890197 
L 70.011171 97.881633 
L 69.946556 97.945272 
L 68.887245 99.004212 
L 68.696125 99.197959 
L 67.827934 100.06718 
L 67.387407 100.514286 
L 66.768622 101.134349 
L 66.083473 101.830612 
L 65.709311 102.205908 
L 64.784568 103.146939 
L 64.65 103.282057 
" style="fill:none;stroke:#000000;stroke-width:3;"/>
   </g>
   <g id="LineCollection_4">
    <path clip-path="url(#p0a90760f21)" d="M 90.702777 37.545108 
L 90.073469 38.343415 
L 89.837039 38.646939 
L 89.014158 39.694205 
L 88.805303 39.963265 
L 87.954847 41.049269 
L 87.776704 41.279592 
L 86.895536 42.408723 
L 86.751288 42.595918 
L 85.836224 43.772693 
L 85.729102 43.912245 
L 84.776913 45.141308 
L 84.710195 45.228571 
L 83.717602 46.514705 
L 83.694613 46.544898 
L 82.682962 47.861224 
L 82.658291 47.893028 
L 81.675376 49.177551 
L 81.59898 49.276428 
L 80.671388 50.493878 
L 80.539668 50.665062 
L 79.671052 51.810204 
L 79.480357 52.059099 
L 78.674425 53.126531 
L 78.421046 53.458715 
L 77.681561 54.442857 
L 77.361735 54.864097 
L 76.692515 55.759184 
L 76.302423 56.275441 
L 75.707342 57.07551 
L 75.243112 57.692957 
L 74.726094 58.391837 
L 74.183801 59.116865 
L 73.748823 59.708163 
L 73.12449 60.547402 
L 72.77558 61.02449 
L 72.065179 61.984816 
L 71.806411 62.340816 
L 71.005867 63.429374 
L 70.841361 63.657143 
L 69.946556 64.88136 
L 69.880472 64.973469 
L 68.9249 66.289796 
L 68.887245 66.341077 
L 67.975824 67.606122 
L 67.827934 67.808849 
L 67.031322 68.922449 
L 66.768622 69.285025 
L 66.091438 70.238776 
L 65.709311 70.769979 
L 65.156212 71.555102 
L 64.65 72.264113 
" style="fill:none;stroke:#000000;stroke-width:3;"/>
   </g>
   <g id="patch_3">
    <path d="M 64.65 155.8 
L 64.65 26.8 
" style="fill:none;stroke:#000000;stroke-linecap:square;stroke-linejoin:miter;stroke-width:0.8;"/>
   </g>
   <g id="patch_4">
    <path d="M 168.4625 155.8 
L 168.4625 26.8 
" style="fill:none;stroke:#000000;stroke-linecap:square;stroke-linejoin:miter;stroke-width:0.8;"/>
   </g>
   <g id="patch_5">
    <path d="M 64.65 155.8 
L 168.4625 155.8 
" style="fill:none;stroke:#000000;stroke-linecap:square;stroke-linejoin:miter;stroke-width:0.8;"/>
   </g>
   <g id="patch_6">
    <path d="M 64.65 26.8 
L 168.4625 26.8 
" style="fill:none;stroke:#000000;stroke-linecap:square;stroke-linejoin:miter;stroke-width:0.8;"/>
   </g>
   <g id="text_14">
    <g clip-path="url(#p0a90760f21)">
     <!-- -1 -->
     <defs>
      <path d="M 4.890625 31.390625 
L 31.203125 31.390625 
L 31.203125 23.390625 
L 4.890625 23.390625 
z
" id="DejaVuSans-2d"/>
     </defs>
     <g transform="translate(160.240752 137.540249)rotate(-17.31159)scale(0.1 -0.1)">
      <use xlink:href="#DejaVuSans-2d"/>
      <use x="36.083984" xlink:href="#DejaVuSans-31"/>
     </g>
    </g>
   </g>
   <g id="text_15">
    <g clip-path="url(#p0a90760f21)">
     <!--  0 -->
     <defs>
      <path id="DejaVuSans-20"/>
     </defs>
     <g transform="translate(161.282538 77.0921)rotate(-27.678037)scale(0.1 -0.1)">
      <use xlink:href="#DejaVuSans-20"/>
      <use x="31.787109" xlink:href="#DejaVuSans-30"/>
     </g>
    </g>
   </g>
   <g id="text_16">
    <g clip-path="url(#p0a90760f21)">
     <!--  1 -->
     <g transform="translate(140.874482 35.168767)rotate(-36.825543)scale(0.1 -0.1)">
      <use xlink:href="#DejaVuSans-20"/>
      <use x="31.787109" xlink:href="#DejaVuSans-31"/>
     </g>
    </g>
   </g>
   <g id="text_17">
    <g clip-path="url(#p0a90760f21)">
     <!--  2 -->
     <g transform="translate(94.81767 36.11082)rotate(-46.596385)scale(0.1 -0.1)">
      <use xlink:href="#DejaVuSans-20"/>
      <use x="31.787109" xlink:href="#DejaVuSans-32"/>
     </g>
    </g>
   </g>
   <g id="text_18">
    <!-- $r=1$ -->
    <defs>
     <path d="M 44.578125 46.390625 
Q 43.21875 47.125 41.453125 47.515625 
Q 39.703125 47.90625 37.703125 47.90625 
Q 30.515625 47.90625 25.140625 42.453125 
Q 19.78125 37.015625 18.015625 27.875 
L 12.5 0 
L 3.515625 0 
L 14.203125 54.6875 
L 23.1875 54.6875 
L 21.484375 46.1875 
Q 25.046875 50.921875 30 53.453125 
Q 34.96875 56 40.578125 56 
Q 42.046875 56 43.453125 55.828125 
Q 44.875 55.671875 46.296875 55.28125 
z
" id="DejaVuSans-Oblique-72"/>
     <path d="M 10.59375 45.40625 
L 73.1875 45.40625 
L 73.1875 37.203125 
L 10.59375 37.203125 
z
M 10.59375 25.484375 
L 73.1875 25.484375 
L 73.1875 17.1875 
L 10.59375 17.1875 
z
" id="DejaVuSans-3d"/>
    </defs>
    <g transform="translate(102.87625 20.8)scale(0.12 -0.12)">
     <use transform="translate(0 0.09375)" xlink:href="#DejaVuSans-Oblique-72"/>
     <use transform="translate(60.595703 0.09375)" xlink:href="#DejaVuSans-3d"/>
     <use transform="translate(163.867188 0.09375)" xlink:href="#DejaVuSans-31"/>
    </g>
   </g>
  </g>
 </g>
 <defs>
  <clipPath id="p0a90760f21">
   <rect height="129" width="103.8125" x="64.65" y="26.8"/>
  </clipPath>
 </defs>
</svg>
