<?xml version="1.0" encoding="utf-8" standalone="no"?>
<!DOCTYPE svg PUBLIC "-//W3C//DTD SVG 1.1//EN"
  "http://www.w3.org/Graphics/SVG/1.1/DTD/svg11.dtd">
<!-- Created with matplotlib (http://matplotlib.org/) -->
<svg height="201.6pt" version="1.1" viewBox="0 0 187.2 201.6" width="187.2pt" xmlns="http://www.w3.org/2000/svg" xmlns:xlink="http://www.w3.org/1999/xlink">
 <defs>
  <style type="text/css">
*{stroke-linecap:butt;stroke-linejoin:round;}
  </style>
 </defs>
 <g id="figure_1">
  <g id="patch_1">
   <path d="M 0 201.6 
L 187.2 201.6 
L 187.2 0 
L 0 0 
z
" style="fill:#ffffff;"/>
  </g>
  <g id="axes_1">
   <g id="patch_2">
    <path d="M 58.175 155.8 
L 172.9 155.8 
L 172.9 30.4 
L 58.175 30.4 
z
" style="fill:#ffffff;"/>
   </g>
   <g id="PathCollection_1">
    <path clip-path="url(#pe00abe54d3)" d="M 58.175 32.959184 
L 58.175 31.679592 
L 58.175 30.4 
L 59.014233 30.4 
L 58.643521 31.679592 
L 58.264072 32.959184 
L 58.175 33.254116 
z
" style="fill:#eaf3fb;"/>
    <path clip-path="url(#pe00abe54d3)" d="M 101.196864 30.4 
L 101.489541 30.4 
L 102.660204 30.4 
L 103.830867 30.4 
L 105.001531 30.4 
L 106.172194 30.4 
L 107.342857 30.4 
L 108.51352 30.4 
L 109.684184 30.4 
L 110.854847 30.4 
L 112.02551 30.4 
L 113.196173 30.4 
L 114.366837 30.4 
L 115.5375 30.4 
L 116.708163 30.4 
L 117.878827 30.4 
L 119.04949 30.4 
L 120.220153 30.4 
L 121.390816 30.4 
L 122.56148 30.4 
L 123.732143 30.4 
L 124.902806 30.4 
L 126.073469 30.4 
L 127.244133 30.4 
L 128.414796 30.4 
L 129.585459 30.4 
L 130.756122 30.4 
L 131.926786 30.4 
L 133.097449 30.4 
L 134.268112 30.4 
L 135.438776 30.4 
L 136.609439 30.4 
L 137.780102 30.4 
L 138.950765 30.4 
L 140.121429 30.4 
L 141.292092 30.4 
L 142.462755 30.4 
L 143.633418 30.4 
L 144.804082 30.4 
L 145.974745 30.4 
L 147.145408 30.4 
L 148.316071 30.4 
L 149.486735 30.4 
L 150.657398 30.4 
L 151.828061 30.4 
L 152.998724 30.4 
L 154.169388 30.4 
L 155.340051 30.4 
L 156.510714 30.4 
L 157.681378 30.4 
L 158.852041 30.4 
L 160.022704 30.4 
L 161.193367 30.4 
L 162.364031 30.4 
L 163.534694 30.4 
L 164.705357 30.4 
L 165.87602 30.4 
L 167.046684 30.4 
L 168.217347 30.4 
L 169.38801 30.4 
L 170.558673 30.4 
L 171.729337 30.4 
L 172.9 30.4 
L 172.9 31.679592 
L 172.9 32.959184 
L 172.9 34.238776 
L 172.9 35.518367 
L 172.9 36.797959 
L 172.9 38.077551 
L 172.9 39.357143 
L 172.9 40.636735 
L 172.9 41.916327 
L 172.9 43.195918 
L 172.9 44.47551 
L 172.9 45.755102 
L 172.9 47.034694 
L 172.9 48.314286 
L 172.9 48.85068 
L 171.729337 48.6557 
L 170.558673 48.45861 
L 169.709984 48.314286 
L 169.38801 48.25902 
L 168.217347 48.056303 
L 167.046684 47.851347 
L 165.87602 47.644115 
L 164.705357 47.434567 
L 163.534694 47.222663 
L 162.507475 47.034694 
L 162.364031 47.008194 
L 161.193367 46.790056 
L 160.022704 46.569416 
L 158.852041 46.346231 
L 157.681378 46.120458 
L 156.510714 45.89205 
L 155.816034 45.755102 
L 155.340051 45.660351 
L 154.169388 45.425014 
L 152.998724 45.186877 
L 151.828061 44.945889 
L 150.657398 44.702002 
L 149.582926 44.47551 
L 149.486735 44.455032 
L 148.316071 44.203559 
L 147.145408 43.949002 
L 145.974745 43.691306 
L 144.804082 43.430415 
L 143.764388 43.195918 
L 143.633418 43.166079 
L 142.462755 42.896874 
L 141.292092 42.624271 
L 140.121429 42.34821 
L 138.950765 42.068631 
L 138.319996 41.916327 
L 137.780102 41.784611 
L 136.609439 41.495916 
L 135.438776 41.203481 
L 134.268112 40.907241 
L 133.212513 40.636735 
L 133.097449 40.606937 
L 131.926786 40.300881 
L 130.756122 39.990787 
L 129.585459 39.676587 
L 128.414796 39.358214 
L 128.410891 39.357143 
L 127.244133 39.033467 
L 126.073469 38.704366 
L 124.902806 38.37085 
L 123.886374 38.077551 
L 123.732143 38.032557 
L 122.56148 37.687729 
L 121.390816 37.338246 
L 120.220153 36.984045 
L 119.611991 36.797959 
L 119.04949 36.623911 
L 117.878827 36.257651 
L 116.708163 35.886452 
L 115.562611 35.518367 
L 115.5375 35.510207 
L 114.366837 35.126413 
L 113.196173 34.737488 
L 112.02551 34.343396 
L 111.717664 34.238776 
L 110.854847 33.942122 
L 109.684184 33.534877 
L 108.51352 33.122357 
L 108.054887 32.959184 
L 107.342857 32.702842 
L 106.172194 32.276916 
L 105.001531 31.845716 
L 104.554459 31.679592 
L 103.830867 31.407459 
L 102.660204 30.962876 
L 101.489541 30.5132 
z
" style="fill:#eaf3fb;"/>
   </g>
   <g id="PathCollection_2">
    <path clip-path="url(#pe00abe54d3)" d="M 58.175 67.508163 
L 58.175 66.228571 
L 58.175 64.94898 
L 58.175 63.669388 
L 58.175 62.389796 
L 58.175 61.110204 
L 58.175 59.830612 
L 58.175 58.55102 
L 58.175 57.271429 
L 58.175 55.991837 
L 58.175 54.712245 
L 58.175 53.432653 
L 58.175 52.153061 
L 58.175 50.873469 
L 58.175 49.593878 
L 58.175 48.314286 
L 58.175 47.034694 
L 58.175 45.755102 
L 58.175 44.47551 
L 58.175 43.195918 
L 58.175 41.916327 
L 58.175 40.636735 
L 58.175 39.357143 
L 58.175 38.077551 
L 58.175 36.797959 
L 58.175 35.518367 
L 58.175 34.238776 
L 58.175 33.254116 
L 58.264072 32.959184 
L 58.643521 31.679592 
L 59.014233 30.4 
L 59.345663 30.4 
L 60.516327 30.4 
L 61.68699 30.4 
L 62.857653 30.4 
L 64.028316 30.4 
L 65.19898 30.4 
L 66.369643 30.4 
L 67.540306 30.4 
L 68.710969 30.4 
L 69.881633 30.4 
L 71.052296 30.4 
L 72.222959 30.4 
L 73.393622 30.4 
L 74.564286 30.4 
L 75.734949 30.4 
L 76.905612 30.4 
L 78.076276 30.4 
L 79.246939 30.4 
L 80.417602 30.4 
L 81.588265 30.4 
L 82.758929 30.4 
L 83.929592 30.4 
L 85.100255 30.4 
L 86.270918 30.4 
L 87.441582 30.4 
L 88.612245 30.4 
L 89.782908 30.4 
L 90.953571 30.4 
L 92.124235 30.4 
L 93.294898 30.4 
L 94.465561 30.4 
L 95.636224 30.4 
L 96.806888 30.4 
L 97.977551 30.4 
L 99.148214 30.4 
L 100.318878 30.4 
L 101.196864 30.4 
L 101.489541 30.5132 
L 102.660204 30.962876 
L 103.830867 31.407459 
L 104.554459 31.679592 
L 105.001531 31.845716 
L 106.172194 32.276916 
L 107.342857 32.702842 
L 108.054887 32.959184 
L 108.51352 33.122357 
L 109.684184 33.534877 
L 110.854847 33.942122 
L 111.717664 34.238776 
L 112.02551 34.343396 
L 113.196173 34.737488 
L 114.366837 35.126413 
L 115.5375 35.510207 
L 115.562611 35.518367 
L 116.708163 35.886452 
L 117.878827 36.257651 
L 119.04949 36.623911 
L 119.611991 36.797959 
L 120.220153 36.984045 
L 121.390816 37.338246 
L 122.56148 37.687729 
L 123.732143 38.032557 
L 123.886374 38.077551 
L 124.902806 38.37085 
L 126.073469 38.704366 
L 127.244133 39.033467 
L 128.410891 39.357143 
L 128.414796 39.358214 
L 129.585459 39.676587 
L 130.756122 39.990787 
L 131.926786 40.300881 
L 133.097449 40.606937 
L 133.212513 40.636735 
L 134.268112 40.907241 
L 135.438776 41.203481 
L 136.609439 41.495916 
L 137.780102 41.784611 
L 138.319996 41.916327 
L 138.950765 42.068631 
L 140.121429 42.34821 
L 141.292092 42.624271 
L 142.462755 42.896874 
L 143.633418 43.166079 
L 143.764388 43.195918 
L 144.804082 43.430415 
L 145.974745 43.691306 
L 147.145408 43.949002 
L 148.316071 44.203559 
L 149.486735 44.455032 
L 149.582926 44.47551 
L 150.657398 44.702002 
L 151.828061 44.945889 
L 152.998724 45.186877 
L 154.169388 45.425014 
L 155.340051 45.660351 
L 155.816034 45.755102 
L 156.510714 45.89205 
L 157.681378 46.120458 
L 158.852041 46.346231 
L 160.022704 46.569416 
L 161.193367 46.790056 
L 162.364031 47.008194 
L 162.507475 47.034694 
L 163.534694 47.222663 
L 164.705357 47.434567 
L 165.87602 47.644115 
L 167.046684 47.851347 
L 168.217347 48.056303 
L 169.38801 48.25902 
L 169.709984 48.314286 
L 170.558673 48.45861 
L 171.729337 48.6557 
L 172.9 48.85068 
L 172.9 49.593878 
L 172.9 50.873469 
L 172.9 52.153061 
L 172.9 53.432653 
L 172.9 54.712245 
L 172.9 55.991837 
L 172.9 57.271429 
L 172.9 58.55102 
L 172.9 59.830612 
L 172.9 61.110204 
L 172.9 62.389796 
L 172.9 63.669388 
L 172.9 64.94898 
L 172.9 66.228571 
L 172.9 67.508163 
L 172.9 68.787755 
L 172.9 70.067347 
L 172.9 71.346939 
L 172.9 72.626531 
L 172.9 73.688341 
L 171.729337 73.58107 
L 170.558673 73.472704 
L 169.38801 73.363225 
L 168.217347 73.252616 
L 167.046684 73.14086 
L 165.87602 73.027939 
L 164.705357 72.913834 
L 163.534694 72.798526 
L 162.364031 72.681997 
L 161.811869 72.626531 
L 161.193367 72.563742 
L 160.022704 72.443783 
L 158.852041 72.32253 
L 157.681378 72.199962 
L 156.510714 72.076059 
L 155.340051 71.950799 
L 154.169388 71.824161 
L 152.998724 71.696123 
L 151.828061 71.566663 
L 150.657398 71.43576 
L 149.871094 71.346939 
L 149.486735 71.303046 
L 148.316071 71.168127 
L 147.145408 71.031678 
L 145.974745 70.893675 
L 144.804082 70.754095 
L 143.633418 70.612912 
L 142.462755 70.470103 
L 141.292092 70.325643 
L 140.121429 70.179508 
L 139.232548 70.067347 
L 138.950765 70.031388 
L 137.780102 69.880629 
L 136.609439 69.7281 
L 135.438776 69.573775 
L 134.268112 69.41763 
L 133.097449 69.25964 
L 131.926786 69.099781 
L 130.756122 68.938029 
L 129.680962 68.787755 
L 129.585459 68.77425 
L 128.414796 68.607296 
L 127.244133 68.438356 
L 126.073469 68.267408 
L 124.902806 68.094431 
L 123.732143 67.919405 
L 122.56148 67.742314 
L 121.390816 67.563141 
L 121.034806 67.508163 
L 120.220153 67.380833 
L 119.04949 67.195939 
L 117.878827 67.0089 
L 116.708163 66.819709 
L 115.5375 66.628364 
L 114.366837 66.434865 
L 113.196173 66.239219 
L 113.132902 66.228571 
L 112.02551 66.039875 
L 110.854847 65.838292 
L 109.684184 65.634585 
L 108.51352 65.428784 
L 107.342857 65.220931 
L 106.172194 65.011077 
L 105.827891 64.94898 
L 105.001531 64.798017 
L 103.830867 64.582542 
L 102.660204 64.365268 
L 101.489541 64.146304 
L 100.318878 63.925781 
L 99.148214 63.703852 
L 98.96671 63.669388 
L 97.977551 63.479072 
L 96.806888 63.252953 
L 95.636224 63.026038 
L 94.465561 62.798614 
L 93.294898 62.571015 
L 92.36102 62.389796 
L 92.124235 62.343225 
L 90.953571 62.114504 
L 89.782908 61.886956 
L 88.612245 61.661192 
L 87.441582 61.437921 
L 86.270918 61.217967 
L 85.684621 61.110204 
L 85.100255 61.00132 
L 83.929592 60.78913 
L 82.758929 60.583677 
L 81.588265 60.386499 
L 80.417602 60.199407 
L 79.246939 60.024525 
L 78.076276 59.864364 
L 77.798087 59.830612 
L 76.905612 59.720877 
L 75.734949 59.598481 
L 74.564286 59.501756 
L 73.393622 59.435824 
L 72.222959 59.406877 
L 71.052296 59.422445 
L 69.881633 59.491755 
L 68.710969 59.626218 
L 67.592132 59.830612 
L 67.540306 59.839987 
L 66.369643 60.148101 
L 65.19898 60.575374 
L 64.112538 61.110204 
L 64.028316 61.151058 
L 62.857653 61.907309 
L 62.29306 62.389796 
L 61.68699 62.89714 
L 60.992636 63.669388 
L 60.516327 64.185917 
L 59.994496 64.94898 
L 59.345663 65.868259 
L 59.162258 66.228571 
L 58.489043 67.508163 
L 58.175 68.08365 
z
" style="fill:#d2e3f3;"/>
   </g>
   <g id="PathCollection_3">
    <path clip-path="url(#pe00abe54d3)" d="M 58.175 93.1 
L 58.175 91.820408 
L 58.175 90.540816 
L 58.175 89.261224 
L 58.175 87.981633 
L 58.175 86.702041 
L 58.175 85.422449 
L 58.175 84.142857 
L 58.175 82.863265 
L 58.175 81.583673 
L 58.175 80.304082 
L 58.175 79.02449 
L 58.175 77.744898 
L 58.175 76.465306 
L 58.175 75.185714 
L 58.175 73.906122 
L 58.175 72.626531 
L 58.175 71.346939 
L 58.175 70.067347 
L 58.175 68.787755 
L 58.175 68.08365 
L 58.489043 67.508163 
L 59.162258 66.228571 
L 59.345663 65.868259 
L 59.994496 64.94898 
L 60.516327 64.185917 
L 60.992636 63.669388 
L 61.68699 62.89714 
L 62.29306 62.389796 
L 62.857653 61.907309 
L 64.028316 61.151058 
L 64.112538 61.110204 
L 65.19898 60.575374 
L 66.369643 60.148101 
L 67.540306 59.839987 
L 67.592132 59.830612 
L 68.710969 59.626218 
L 69.881633 59.491755 
L 71.052296 59.422445 
L 72.222959 59.406877 
L 73.393622 59.435824 
L 74.564286 59.501756 
L 75.734949 59.598481 
L 76.905612 59.720877 
L 77.798087 59.830612 
L 78.076276 59.864364 
L 79.246939 60.024525 
L 80.417602 60.199407 
L 81.588265 60.386499 
L 82.758929 60.583677 
L 83.929592 60.78913 
L 85.100255 61.00132 
L 85.684621 61.110204 
L 86.270918 61.217967 
L 87.441582 61.437921 
L 88.612245 61.661192 
L 89.782908 61.886956 
L 90.953571 62.114504 
L 92.124235 62.343225 
L 92.36102 62.389796 
L 93.294898 62.571015 
L 94.465561 62.798614 
L 95.636224 63.026038 
L 96.806888 63.252953 
L 97.977551 63.479072 
L 98.96671 63.669388 
L 99.148214 63.703852 
L 100.318878 63.925781 
L 101.489541 64.146304 
L 102.660204 64.365268 
L 103.830867 64.582542 
L 105.001531 64.798017 
L 105.827891 64.94898 
L 106.172194 65.011077 
L 107.342857 65.220931 
L 108.51352 65.428784 
L 109.684184 65.634585 
L 110.854847 65.838292 
L 112.02551 66.039875 
L 113.132902 66.228571 
L 113.196173 66.239219 
L 114.366837 66.434865 
L 115.5375 66.628364 
L 116.708163 66.819709 
L 117.878827 67.0089 
L 119.04949 67.195939 
L 120.220153 67.380833 
L 121.034806 67.508163 
L 121.390816 67.563141 
L 122.56148 67.742314 
L 123.732143 67.919405 
L 124.902806 68.094431 
L 126.073469 68.267408 
L 127.244133 68.438356 
L 128.414796 68.607296 
L 129.585459 68.77425 
L 129.680962 68.787755 
L 130.756122 68.938029 
L 131.926786 69.099781 
L 133.097449 69.25964 
L 134.268112 69.41763 
L 135.438776 69.573775 
L 136.609439 69.7281 
L 137.780102 69.880629 
L 138.950765 70.031388 
L 139.232548 70.067347 
L 140.121429 70.179508 
L 141.292092 70.325643 
L 142.462755 70.470103 
L 143.633418 70.612912 
L 144.804082 70.754095 
L 145.974745 70.893675 
L 147.145408 71.031678 
L 148.316071 71.168127 
L 149.486735 71.303046 
L 149.871094 71.346939 
L 150.657398 71.43576 
L 151.828061 71.566663 
L 152.998724 71.696123 
L 154.169388 71.824161 
L 155.340051 71.950799 
L 156.510714 72.076059 
L 157.681378 72.199962 
L 158.852041 72.32253 
L 160.022704 72.443783 
L 161.193367 72.563742 
L 161.811869 72.626531 
L 162.364031 72.681997 
L 163.534694 72.798526 
L 164.705357 72.913834 
L 165.87602 73.027939 
L 167.046684 73.14086 
L 168.217347 73.252616 
L 169.38801 73.363225 
L 170.558673 73.472704 
L 171.729337 73.58107 
L 172.9 73.688341 
L 172.9 73.906122 
L 172.9 75.185714 
L 172.9 76.465306 
L 172.9 77.744898 
L 172.9 79.02449 
L 172.9 80.304082 
L 172.9 81.583673 
L 172.9 82.863265 
L 172.9 84.142857 
L 172.9 85.422449 
L 172.9 86.702041 
L 172.9 87.981633 
L 172.9 89.261224 
L 172.9 90.540816 
L 172.9 91.820408 
L 172.9 93.1 
L 172.9 94.379592 
L 172.9 95.30896 
L 171.729337 95.265377 
L 170.558673 95.221379 
L 169.38801 95.17696 
L 168.217347 95.132115 
L 167.046684 95.086837 
L 165.87602 95.04112 
L 164.705357 94.994959 
L 163.534694 94.948346 
L 162.364031 94.901276 
L 161.193367 94.853742 
L 160.022704 94.805738 
L 158.852041 94.757257 
L 157.681378 94.708293 
L 156.510714 94.658839 
L 155.340051 94.608888 
L 154.169388 94.558433 
L 152.998724 94.507469 
L 151.828061 94.455987 
L 150.657398 94.403982 
L 150.113145 94.379592 
L 149.486735 94.351174 
L 148.316071 94.297586 
L 147.145408 94.243447 
L 145.974745 94.188747 
L 144.804082 94.133482 
L 143.633418 94.077644 
L 142.462755 94.021225 
L 141.292092 93.96422 
L 140.121429 93.906621 
L 138.950765 93.848421 
L 137.780102 93.789616 
L 136.609439 93.730198 
L 135.438776 93.670161 
L 134.268112 93.609499 
L 133.097449 93.548208 
L 131.926786 93.486282 
L 130.756122 93.423716 
L 129.585459 93.360506 
L 128.414796 93.296648 
L 127.244133 93.23214 
L 126.073469 93.166978 
L 124.902806 93.101161 
L 124.882295 93.1 
L 123.732143 93.034027 
L 122.56148 92.966214 
L 121.390816 92.897736 
L 120.220153 92.828594 
L 119.04949 92.758792 
L 117.878827 92.688336 
L 116.708163 92.617232 
L 115.5375 92.54549 
L 114.366837 92.47312 
L 113.196173 92.400137 
L 112.02551 92.326556 
L 110.854847 92.252398 
L 109.684184 92.177686 
L 108.51352 92.102447 
L 107.342857 92.026713 
L 106.172194 91.950521 
L 105.001531 91.873914 
L 104.186894 91.820408 
L 103.830867 91.79669 
L 102.660204 91.718578 
L 101.489541 91.640211 
L 100.318878 91.561663 
L 99.148214 91.48302 
L 97.977551 91.404379 
L 96.806888 91.325853 
L 95.636224 91.247567 
L 94.465561 91.169669 
L 93.294898 91.092322 
L 92.124235 91.015718 
L 90.953571 90.940074 
L 89.782908 90.865636 
L 88.612245 90.79269 
L 87.441582 90.721561 
L 86.270918 90.652625 
L 85.100255 90.586311 
L 84.256719 90.540816 
L 83.929592 90.522913 
L 82.758929 90.462722 
L 81.588265 90.406931 
L 80.417602 90.356324 
L 79.246939 90.311813 
L 78.076276 90.274465 
L 76.905612 90.245532 
L 75.734949 90.226493 
L 74.564286 90.219098 
L 73.393622 90.225432 
L 72.222959 90.247994 
L 71.052296 90.289797 
L 69.881633 90.354504 
L 68.710969 90.446605 
L 67.829675 90.540816 
L 67.540306 90.571261 
L 66.369643 90.734073 
L 65.19898 90.94494 
L 64.028316 91.215087 
L 62.857653 91.559287 
L 62.164142 91.820408 
L 61.68699 91.99498 
L 60.516327 92.546832 
L 59.611119 93.1 
L 59.345663 93.255687 
L 58.175 94.172943 
z
" style="fill:#b2d2e8;"/>
   </g>
   <g id="PathCollection_4">
    <path clip-path="url(#pe00abe54d3)" d="M 58.175 113.573469 
L 58.175 112.293878 
L 58.175 111.014286 
L 58.175 109.734694 
L 58.175 108.455102 
L 58.175 107.17551 
L 58.175 105.895918 
L 58.175 104.616327 
L 58.175 103.336735 
L 58.175 102.057143 
L 58.175 100.777551 
L 58.175 99.497959 
L 58.175 98.218367 
L 58.175 96.938776 
L 58.175 95.659184 
L 58.175 94.379592 
L 58.175 94.172943 
L 59.345663 93.255687 
L 59.611119 93.1 
L 60.516327 92.546832 
L 61.68699 91.99498 
L 62.164142 91.820408 
L 62.857653 91.559287 
L 64.028316 91.215087 
L 65.19898 90.94494 
L 66.369643 90.734073 
L 67.540306 90.571261 
L 67.829675 90.540816 
L 68.710969 90.446605 
L 69.881633 90.354504 
L 71.052296 90.289797 
L 72.222959 90.247994 
L 73.393622 90.225432 
L 74.564286 90.219098 
L 75.734949 90.226493 
L 76.905612 90.245532 
L 78.076276 90.274465 
L 79.246939 90.311813 
L 80.417602 90.356324 
L 81.588265 90.406931 
L 82.758929 90.462722 
L 83.929592 90.522913 
L 84.256719 90.540816 
L 85.100255 90.586311 
L 86.270918 90.652625 
L 87.441582 90.721561 
L 88.612245 90.79269 
L 89.782908 90.865636 
L 90.953571 90.940074 
L 92.124235 91.015718 
L 93.294898 91.092322 
L 94.465561 91.169669 
L 95.636224 91.247567 
L 96.806888 91.325853 
L 97.977551 91.404379 
L 99.148214 91.48302 
L 100.318878 91.561663 
L 101.489541 91.640211 
L 102.660204 91.718578 
L 103.830867 91.79669 
L 104.186894 91.820408 
L 105.001531 91.873914 
L 106.172194 91.950521 
L 107.342857 92.026713 
L 108.51352 92.102447 
L 109.684184 92.177686 
L 110.854847 92.252398 
L 112.02551 92.326556 
L 113.196173 92.400137 
L 114.366837 92.47312 
L 115.5375 92.54549 
L 116.708163 92.617232 
L 117.878827 92.688336 
L 119.04949 92.758792 
L 120.220153 92.828594 
L 121.390816 92.897736 
L 122.56148 92.966214 
L 123.732143 93.034027 
L 124.882295 93.1 
L 124.902806 93.101161 
L 126.073469 93.166978 
L 127.244133 93.23214 
L 128.414796 93.296648 
L 129.585459 93.360506 
L 130.756122 93.423716 
L 131.926786 93.486282 
L 133.097449 93.548208 
L 134.268112 93.609499 
L 135.438776 93.670161 
L 136.609439 93.730198 
L 137.780102 93.789616 
L 138.950765 93.848421 
L 140.121429 93.906621 
L 141.292092 93.96422 
L 142.462755 94.021225 
L 143.633418 94.077644 
L 144.804082 94.133482 
L 145.974745 94.188747 
L 147.145408 94.243447 
L 148.316071 94.297586 
L 149.486735 94.351174 
L 150.113145 94.379592 
L 150.657398 94.403982 
L 151.828061 94.455987 
L 152.998724 94.507469 
L 154.169388 94.558433 
L 155.340051 94.608888 
L 156.510714 94.658839 
L 157.681378 94.708293 
L 158.852041 94.757257 
L 160.022704 94.805738 
L 161.193367 94.853742 
L 162.364031 94.901276 
L 163.534694 94.948346 
L 164.705357 94.994959 
L 165.87602 95.04112 
L 167.046684 95.086837 
L 168.217347 95.132115 
L 169.38801 95.17696 
L 170.558673 95.221379 
L 171.729337 95.265377 
L 172.9 95.30896 
L 172.9 95.659184 
L 172.9 96.938776 
L 172.9 98.218367 
L 172.9 99.497959 
L 172.9 100.777551 
L 172.9 102.057143 
L 172.9 103.336735 
L 172.9 104.616327 
L 172.9 105.895918 
L 172.9 107.17551 
L 172.9 108.455102 
L 172.9 109.734694 
L 172.9 111.014286 
L 172.9 112.293878 
L 172.9 113.573469 
L 172.9 113.998382 
L 171.729337 113.998379 
L 170.558673 113.998376 
L 169.38801 113.998372 
L 168.217347 113.998369 
L 167.046684 113.998366 
L 165.87602 113.998363 
L 164.705357 113.998359 
L 163.534694 113.998356 
L 162.364031 113.998352 
L 161.193367 113.998349 
L 160.022704 113.998345 
L 158.852041 113.998342 
L 157.681378 113.998338 
L 156.510714 113.998334 
L 155.340051 113.998331 
L 154.169388 113.998327 
L 152.998724 113.998323 
L 151.828061 113.998319 
L 150.657398 113.998315 
L 149.486735 113.998311 
L 148.316071 113.998307 
L 147.145408 113.998303 
L 145.974745 113.998299 
L 144.804082 113.998295 
L 143.633418 113.99829 
L 142.462755 113.998286 
L 141.292092 113.998281 
L 140.121429 113.998277 
L 138.950765 113.998272 
L 137.780102 113.998268 
L 136.609439 113.998263 
L 135.438776 113.998258 
L 134.268112 113.998254 
L 133.097449 113.998249 
L 131.926786 113.998244 
L 130.756122 113.998239 
L 129.585459 113.998233 
L 128.414796 113.998228 
L 127.244133 113.998223 
L 126.073469 113.998217 
L 124.902806 113.998212 
L 123.732143 113.998206 
L 122.56148 113.9982 
L 121.390816 113.998194 
L 120.220153 113.998188 
L 119.04949 113.998182 
L 117.878827 113.998176 
L 116.708163 113.99817 
L 115.5375 113.998163 
L 114.366837 113.998157 
L 113.196173 113.99815 
L 112.02551 113.998143 
L 110.854847 113.998136 
L 109.684184 113.998129 
L 108.51352 113.998122 
L 107.342857 113.998114 
L 106.172194 113.998106 
L 105.001531 113.998098 
L 103.830867 113.99809 
L 102.660204 113.998082 
L 101.489541 113.998074 
L 100.318878 113.998065 
L 99.148214 113.998056 
L 97.977551 113.998047 
L 96.806888 113.998037 
L 95.636224 113.998027 
L 94.465561 113.998017 
L 93.294898 113.998007 
L 92.124235 113.997996 
L 90.953571 113.997985 
L 89.782908 113.997974 
L 88.612245 113.997962 
L 87.441582 113.99795 
L 86.270918 113.997937 
L 85.100255 113.997924 
L 83.929592 113.997911 
L 82.758929 113.997897 
L 81.588265 113.997882 
L 80.417602 113.997866 
L 79.246939 113.99785 
L 78.076276 113.997834 
L 76.905612 113.997816 
L 75.734949 113.997797 
L 74.564286 113.997778 
L 73.393622 113.997757 
L 72.222959 113.997736 
L 71.052296 113.997712 
L 69.881633 113.997688 
L 68.710969 113.997661 
L 67.540306 113.997633 
L 66.369643 113.997602 
L 65.19898 113.997568 
L 64.028316 113.997531 
L 62.857653 113.997491 
L 61.68699 113.997445 
L 60.516327 113.997393 
L 59.345663 113.997333 
L 58.175 113.997262 
z
" style="fill:#84bcdb;"/>
   </g>
   <g id="PathCollection_5">
    <path clip-path="url(#pe00abe54d3)" d="M 58.175 128.928571 
L 58.175 127.64898 
L 58.175 126.369388 
L 58.175 125.089796 
L 58.175 123.810204 
L 58.175 122.530612 
L 58.175 121.25102 
L 58.175 119.971429 
L 58.175 118.691837 
L 58.175 117.412245 
L 58.175 116.132653 
L 58.175 114.853061 
L 58.175 113.997262 
L 59.345663 113.997333 
L 60.516327 113.997393 
L 61.68699 113.997445 
L 62.857653 113.997491 
L 64.028316 113.997531 
L 65.19898 113.997568 
L 66.369643 113.997602 
L 67.540306 113.997633 
L 68.710969 113.997661 
L 69.881633 113.997688 
L 71.052296 113.997712 
L 72.222959 113.997736 
L 73.393622 113.997757 
L 74.564286 113.997778 
L 75.734949 113.997797 
L 76.905612 113.997816 
L 78.076276 113.997834 
L 79.246939 113.99785 
L 80.417602 113.997866 
L 81.588265 113.997882 
L 82.758929 113.997897 
L 83.929592 113.997911 
L 85.100255 113.997924 
L 86.270918 113.997937 
L 87.441582 113.99795 
L 88.612245 113.997962 
L 89.782908 113.997974 
L 90.953571 113.997985 
L 92.124235 113.997996 
L 93.294898 113.998007 
L 94.465561 113.998017 
L 95.636224 113.998027 
L 96.806888 113.998037 
L 97.977551 113.998047 
L 99.148214 113.998056 
L 100.318878 113.998065 
L 101.489541 113.998074 
L 102.660204 113.998082 
L 103.830867 113.99809 
L 105.001531 113.998098 
L 106.172194 113.998106 
L 107.342857 113.998114 
L 108.51352 113.998122 
L 109.684184 113.998129 
L 110.854847 113.998136 
L 112.02551 113.998143 
L 113.196173 113.99815 
L 114.366837 113.998157 
L 115.5375 113.998163 
L 116.708163 113.99817 
L 117.878827 113.998176 
L 119.04949 113.998182 
L 120.220153 113.998188 
L 121.390816 113.998194 
L 122.56148 113.9982 
L 123.732143 113.998206 
L 124.902806 113.998212 
L 126.073469 113.998217 
L 127.244133 113.998223 
L 128.414796 113.998228 
L 129.585459 113.998233 
L 130.756122 113.998239 
L 131.926786 113.998244 
L 133.097449 113.998249 
L 134.268112 113.998254 
L 135.438776 113.998258 
L 136.609439 113.998263 
L 137.780102 113.998268 
L 138.950765 113.998272 
L 140.121429 113.998277 
L 141.292092 113.998281 
L 142.462755 113.998286 
L 143.633418 113.99829 
L 144.804082 113.998295 
L 145.974745 113.998299 
L 147.145408 113.998303 
L 148.316071 113.998307 
L 149.486735 113.998311 
L 150.657398 113.998315 
L 151.828061 113.998319 
L 152.998724 113.998323 
L 154.169388 113.998327 
L 155.340051 113.998331 
L 156.510714 113.998334 
L 157.681378 113.998338 
L 158.852041 113.998342 
L 160.022704 113.998345 
L 161.193367 113.998349 
L 162.364031 113.998352 
L 163.534694 113.998356 
L 164.705357 113.998359 
L 165.87602 113.998363 
L 167.046684 113.998366 
L 168.217347 113.998369 
L 169.38801 113.998372 
L 170.558673 113.998376 
L 171.729337 113.998379 
L 172.9 113.998382 
L 172.9 114.853061 
L 172.9 116.132653 
L 172.9 117.412245 
L 172.9 118.691837 
L 172.9 119.971429 
L 172.9 121.25102 
L 172.9 122.530612 
L 172.9 123.810204 
L 172.9 125.089796 
L 172.9 126.369388 
L 172.9 127.64898 
L 172.9 128.928571 
L 172.9 130.024216 
L 171.729337 130.05186 
L 170.558673 130.079722 
L 169.38801 130.107804 
L 168.217347 130.136109 
L 167.046684 130.16464 
L 165.87602 130.193397 
L 165.279119 130.208163 
L 164.705357 130.22218 
L 163.534694 130.250979 
L 162.364031 130.280006 
L 161.193367 130.309263 
L 160.022704 130.338752 
L 158.852041 130.368475 
L 157.681378 130.398433 
L 156.510714 130.428629 
L 155.340051 130.459063 
L 154.169388 130.489737 
L 152.998724 130.520653 
L 151.828061 130.551813 
L 150.657398 130.583216 
L 149.486735 130.614866 
L 148.316071 130.646762 
L 147.145408 130.678905 
L 145.974745 130.711297 
L 144.804082 130.743937 
L 143.633418 130.776826 
L 142.462755 130.809964 
L 141.292092 130.843352 
L 140.121429 130.876987 
L 138.950765 130.910871 
L 137.780102 130.945002 
L 136.609439 130.979378 
L 135.438776 131.013997 
L 134.268112 131.048859 
L 133.097449 131.083959 
L 131.926786 131.119295 
L 130.756122 131.154863 
L 129.585459 131.190659 
L 128.414796 131.226677 
L 127.244133 131.262913 
L 126.073469 131.299359 
L 124.902806 131.336008 
L 123.732143 131.372852 
L 122.56148 131.409881 
L 121.390816 131.447084 
L 120.220153 131.48445 
L 120.116825 131.487755 
L 119.04949 131.521415 
L 117.878827 131.558456 
L 116.708163 131.595607 
L 115.5375 131.632852 
L 114.366837 131.670169 
L 113.196173 131.707535 
L 112.02551 131.744924 
L 110.854847 131.78231 
L 109.684184 131.81966 
L 108.51352 131.856939 
L 107.342857 131.894109 
L 106.172194 131.931126 
L 105.001531 131.967944 
L 103.830867 132.004509 
L 102.660204 132.040763 
L 101.489541 132.076639 
L 100.318878 132.112065 
L 99.148214 132.146961 
L 97.977551 132.181236 
L 96.806888 132.214789 
L 95.636224 132.247508 
L 94.465561 132.279267 
L 93.294898 132.309927 
L 92.124235 132.339329 
L 90.953571 132.367297 
L 89.782908 132.393633 
L 88.612245 132.418112 
L 87.441582 132.440484 
L 86.270918 132.460463 
L 85.100255 132.477726 
L 83.929592 132.491907 
L 82.758929 132.502589 
L 81.588265 132.509296 
L 80.417602 132.511482 
L 79.246939 132.508521 
L 78.076276 132.499691 
L 76.905612 132.484156 
L 75.734949 132.460945 
L 74.564286 132.428923 
L 73.393622 132.38676 
L 72.222959 132.332883 
L 71.052296 132.265425 
L 69.881633 132.182151 
L 68.710969 132.080365 
L 67.540306 131.956784 
L 66.369643 131.807363 
L 65.19898 131.627059 
L 64.453903 131.487755 
L 64.028316 131.407751 
L 62.857653 131.138705 
L 61.68699 130.811747 
L 60.516327 130.411589 
L 60.046182 130.208163 
L 59.345663 129.90968 
L 58.175 129.27197 
z
" style="fill:#56a0ce;"/>
   </g>
   <g id="PathCollection_6">
    <path clip-path="url(#pe00abe54d3)" d="M 58.765096 141.72449 
L 58.175 141.192498 
L 58.175 140.444898 
L 58.175 139.165306 
L 58.175 137.885714 
L 58.175 136.606122 
L 58.175 135.326531 
L 58.175 134.046939 
L 58.175 132.767347 
L 58.175 131.487755 
L 58.175 130.208163 
L 58.175 129.27197 
L 59.345663 129.90968 
L 60.046182 130.208163 
L 60.516327 130.411589 
L 61.68699 130.811747 
L 62.857653 131.138705 
L 64.028316 131.407751 
L 64.453903 131.487755 
L 65.19898 131.627059 
L 66.369643 131.807363 
L 67.540306 131.956784 
L 68.710969 132.080365 
L 69.881633 132.182151 
L 71.052296 132.265425 
L 72.222959 132.332883 
L 73.393622 132.38676 
L 74.564286 132.428923 
L 75.734949 132.460945 
L 76.905612 132.484156 
L 78.076276 132.499691 
L 79.246939 132.508521 
L 80.417602 132.511482 
L 81.588265 132.509296 
L 82.758929 132.502589 
L 83.929592 132.491907 
L 85.100255 132.477726 
L 86.270918 132.460463 
L 87.441582 132.440484 
L 88.612245 132.418112 
L 89.782908 132.393633 
L 90.953571 132.367297 
L 92.124235 132.339329 
L 93.294898 132.309927 
L 94.465561 132.279267 
L 95.636224 132.247508 
L 96.806888 132.214789 
L 97.977551 132.181236 
L 99.148214 132.146961 
L 100.318878 132.112065 
L 101.489541 132.076639 
L 102.660204 132.040763 
L 103.830867 132.004509 
L 105.001531 131.967944 
L 106.172194 131.931126 
L 107.342857 131.894109 
L 108.51352 131.856939 
L 109.684184 131.81966 
L 110.854847 131.78231 
L 112.02551 131.744924 
L 113.196173 131.707535 
L 114.366837 131.670169 
L 115.5375 131.632852 
L 116.708163 131.595607 
L 117.878827 131.558456 
L 119.04949 131.521415 
L 120.116825 131.487755 
L 120.220153 131.48445 
L 121.390816 131.447084 
L 122.56148 131.409881 
L 123.732143 131.372852 
L 124.902806 131.336008 
L 126.073469 131.299359 
L 127.244133 131.262913 
L 128.414796 131.226677 
L 129.585459 131.190659 
L 130.756122 131.154863 
L 131.926786 131.119295 
L 133.097449 131.083959 
L 134.268112 131.048859 
L 135.438776 131.013997 
L 136.609439 130.979378 
L 137.780102 130.945002 
L 138.950765 130.910871 
L 140.121429 130.876987 
L 141.292092 130.843352 
L 142.462755 130.809964 
L 143.633418 130.776826 
L 144.804082 130.743937 
L 145.974745 130.711297 
L 147.145408 130.678905 
L 148.316071 130.646762 
L 149.486735 130.614866 
L 150.657398 130.583216 
L 151.828061 130.551813 
L 152.998724 130.520653 
L 154.169388 130.489737 
L 155.340051 130.459063 
L 156.510714 130.428629 
L 157.681378 130.398433 
L 158.852041 130.368475 
L 160.022704 130.338752 
L 161.193367 130.309263 
L 162.364031 130.280006 
L 163.534694 130.250979 
L 164.705357 130.22218 
L 165.279119 130.208163 
L 165.87602 130.193397 
L 167.046684 130.16464 
L 168.217347 130.136109 
L 169.38801 130.107804 
L 170.558673 130.079722 
L 171.729337 130.05186 
L 172.9 130.024216 
L 172.9 130.208163 
L 172.9 131.487755 
L 172.9 132.767347 
L 172.9 134.046939 
L 172.9 135.326531 
L 172.9 136.606122 
L 172.9 137.885714 
L 172.9 139.165306 
L 172.9 140.444898 
L 172.9 141.72449 
L 172.9 143.004082 
L 172.9 143.634341 
L 171.729337 143.676936 
L 170.558673 143.719826 
L 169.38801 143.763012 
L 168.217347 143.806496 
L 167.046684 143.850281 
L 165.87602 143.894367 
L 164.705357 143.938757 
L 163.534694 143.983451 
L 162.364031 144.028451 
L 161.193367 144.073758 
L 160.022704 144.119373 
L 158.852041 144.165298 
L 157.681378 144.211532 
L 156.510714 144.258077 
L 155.870778 144.283673 
L 155.340051 144.304541 
L 154.169388 144.350835 
L 152.998724 144.397431 
L 151.828061 144.444327 
L 150.657398 144.491524 
L 149.486735 144.539021 
L 148.316071 144.586815 
L 147.145408 144.634905 
L 145.974745 144.68329 
L 144.804082 144.731966 
L 143.633418 144.780932 
L 142.462755 144.830182 
L 141.292092 144.879715 
L 140.121429 144.929524 
L 138.950765 144.979605 
L 137.780102 145.029952 
L 136.609439 145.080559 
L 135.438776 145.131418 
L 134.268112 145.182521 
L 133.097449 145.233859 
L 131.926786 145.285421 
L 130.756122 145.337197 
L 129.585459 145.389173 
L 128.414796 145.441336 
L 127.244133 145.493671 
L 126.073469 145.546161 
L 125.692613 145.563265 
L 124.902806 145.598071 
L 123.732143 145.649745 
L 122.56148 145.701504 
L 121.390816 145.753323 
L 120.220153 145.805176 
L 119.04949 145.857033 
L 117.878827 145.908863 
L 116.708163 145.960628 
L 115.5375 146.012292 
L 114.366837 146.06381 
L 113.196173 146.115136 
L 112.02551 146.16622 
L 110.854847 146.217004 
L 109.684184 146.267426 
L 108.51352 146.317419 
L 107.342857 146.366908 
L 106.172194 146.41581 
L 105.001531 146.464036 
L 103.830867 146.511485 
L 102.660204 146.558049 
L 101.489541 146.603606 
L 100.318878 146.648022 
L 99.148214 146.691151 
L 97.977551 146.73283 
L 96.806888 146.772877 
L 95.636224 146.811093 
L 94.60793 146.842857 
L 94.465561 146.847156 
L 93.294898 146.880244 
L 92.124235 146.910808 
L 90.953571 146.938549 
L 89.782908 146.963135 
L 88.612245 146.984191 
L 87.441582 147.001301 
L 86.270918 147.013993 
L 85.100255 147.021739 
L 83.929592 147.023944 
L 82.758929 147.019932 
L 81.588265 147.008938 
L 80.417602 146.990091 
L 79.246939 146.962397 
L 78.076276 146.924719 
L 76.905612 146.875747 
L 76.283706 146.842857 
L 75.734949 146.813225 
L 74.564286 146.734899 
L 73.393622 146.639501 
L 72.222959 146.52456 
L 71.052296 146.387157 
L 69.881633 146.223828 
L 68.710969 146.030421 
L 67.540306 145.801921 
L 66.506232 145.563265 
L 66.369643 145.531352 
L 65.19898 145.203979 
L 64.028316 144.816406 
L 62.857653 144.356034 
L 62.70742 144.283673 
L 61.68699 143.792761 
L 60.516327 143.112112 
L 60.369478 143.004082 
L 59.345663 142.262783 
z
" style="fill:#3181bd;"/>
   </g>
   <g id="PathCollection_7">
    <path clip-path="url(#pe00abe54d3)" d="M 59.33855 151.961224 
L 58.235174 150.681633 
L 58.175 150.613785 
L 58.175 149.402041 
L 58.175 148.122449 
L 58.175 146.842857 
L 58.175 145.563265 
L 58.175 144.283673 
L 58.175 143.004082 
L 58.175 141.72449 
L 58.175 141.192498 
L 58.765096 141.72449 
L 59.345663 142.262783 
L 60.369478 143.004082 
L 60.516327 143.112112 
L 61.68699 143.792761 
L 62.70742 144.283673 
L 62.857653 144.356034 
L 64.028316 144.816406 
L 65.19898 145.203979 
L 66.369643 145.531352 
L 66.506232 145.563265 
L 67.540306 145.801921 
L 68.710969 146.030421 
L 69.881633 146.223828 
L 71.052296 146.387157 
L 72.222959 146.52456 
L 73.393622 146.639501 
L 74.564286 146.734899 
L 75.734949 146.813225 
L 76.283706 146.842857 
L 76.905612 146.875747 
L 78.076276 146.924719 
L 79.246939 146.962397 
L 80.417602 146.990091 
L 81.588265 147.008938 
L 82.758929 147.019932 
L 83.929592 147.023944 
L 85.100255 147.021739 
L 86.270918 147.013993 
L 87.441582 147.001301 
L 88.612245 146.984191 
L 89.782908 146.963135 
L 90.953571 146.938549 
L 92.124235 146.910808 
L 93.294898 146.880244 
L 94.465561 146.847156 
L 94.60793 146.842857 
L 95.636224 146.811093 
L 96.806888 146.772877 
L 97.977551 146.73283 
L 99.148214 146.691151 
L 100.318878 146.648022 
L 101.489541 146.603606 
L 102.660204 146.558049 
L 103.830867 146.511485 
L 105.001531 146.464036 
L 106.172194 146.41581 
L 107.342857 146.366908 
L 108.51352 146.317419 
L 109.684184 146.267426 
L 110.854847 146.217004 
L 112.02551 146.16622 
L 113.196173 146.115136 
L 114.366837 146.06381 
L 115.5375 146.012292 
L 116.708163 145.960628 
L 117.878827 145.908863 
L 119.04949 145.857033 
L 120.220153 145.805176 
L 121.390816 145.753323 
L 122.56148 145.701504 
L 123.732143 145.649745 
L 124.902806 145.598071 
L 125.692613 145.563265 
L 126.073469 145.546161 
L 127.244133 145.493671 
L 128.414796 145.441336 
L 129.585459 145.389173 
L 130.756122 145.337197 
L 131.926786 145.285421 
L 133.097449 145.233859 
L 134.268112 145.182521 
L 135.438776 145.131418 
L 136.609439 145.080559 
L 137.780102 145.029952 
L 138.950765 144.979605 
L 140.121429 144.929524 
L 141.292092 144.879715 
L 142.462755 144.830182 
L 143.633418 144.780932 
L 144.804082 144.731966 
L 145.974745 144.68329 
L 147.145408 144.634905 
L 148.316071 144.586815 
L 149.486735 144.539021 
L 150.657398 144.491524 
L 151.828061 144.444327 
L 152.998724 144.397431 
L 154.169388 144.350835 
L 155.340051 144.304541 
L 155.870778 144.283673 
L 156.510714 144.258077 
L 157.681378 144.211532 
L 158.852041 144.165298 
L 160.022704 144.119373 
L 161.193367 144.073758 
L 162.364031 144.028451 
L 163.534694 143.983451 
L 164.705357 143.938757 
L 165.87602 143.894367 
L 167.046684 143.850281 
L 168.217347 143.806496 
L 169.38801 143.763012 
L 170.558673 143.719826 
L 171.729337 143.676936 
L 172.9 143.634341 
L 172.9 144.283673 
L 172.9 145.563265 
L 172.9 146.842857 
L 172.9 148.122449 
L 172.9 149.402041 
L 172.9 150.681633 
L 172.9 151.961224 
L 172.9 153.240816 
L 172.9 154.520408 
L 172.9 155.070193 
L 171.729337 155.118549 
L 170.558673 155.167186 
L 169.38801 155.216105 
L 168.217347 155.265305 
L 167.046684 155.314788 
L 165.87602 155.364552 
L 164.705357 155.414597 
L 163.534694 155.464922 
L 162.364031 155.515528 
L 161.193367 155.566413 
L 160.022704 155.617576 
L 158.852041 155.669014 
L 157.681378 155.720728 
L 156.510714 155.772713 
L 155.899103 155.8 
L 155.340051 155.8 
L 154.169388 155.8 
L 152.998724 155.8 
L 151.828061 155.8 
L 150.657398 155.8 
L 149.486735 155.8 
L 148.316071 155.8 
L 147.145408 155.8 
L 145.974745 155.8 
L 144.804082 155.8 
L 143.633418 155.8 
L 142.462755 155.8 
L 141.292092 155.8 
L 140.121429 155.8 
L 138.950765 155.8 
L 137.780102 155.8 
L 136.609439 155.8 
L 135.438776 155.8 
L 134.268112 155.8 
L 133.097449 155.8 
L 131.926786 155.8 
L 130.756122 155.8 
L 129.585459 155.8 
L 128.414796 155.8 
L 127.244133 155.8 
L 126.073469 155.8 
L 124.902806 155.8 
L 123.732143 155.8 
L 122.56148 155.8 
L 121.390816 155.8 
L 120.220153 155.8 
L 119.04949 155.8 
L 117.878827 155.8 
L 116.708163 155.8 
L 115.5375 155.8 
L 114.366837 155.8 
L 113.196173 155.8 
L 112.02551 155.8 
L 110.854847 155.8 
L 109.684184 155.8 
L 108.51352 155.8 
L 107.342857 155.8 
L 106.172194 155.8 
L 105.001531 155.8 
L 103.830867 155.8 
L 102.660204 155.8 
L 101.489541 155.8 
L 100.318878 155.8 
L 99.148214 155.8 
L 97.977551 155.8 
L 96.806888 155.8 
L 95.636224 155.8 
L 94.465561 155.8 
L 93.294898 155.8 
L 92.124235 155.8 
L 90.953571 155.8 
L 89.782908 155.8 
L 88.612245 155.8 
L 87.441582 155.8 
L 86.270918 155.8 
L 85.100255 155.8 
L 83.929592 155.8 
L 82.758929 155.8 
L 81.588265 155.8 
L 80.417602 155.8 
L 79.246939 155.8 
L 78.076276 155.8 
L 76.905612 155.8 
L 75.734949 155.8 
L 74.564286 155.8 
L 73.393622 155.8 
L 72.222959 155.8 
L 71.052296 155.8 
L 69.881633 155.8 
L 68.710969 155.8 
L 67.540306 155.8 
L 66.369643 155.8 
L 65.358009 155.8 
L 65.19898 155.74161 
L 64.028316 155.231632 
L 62.857653 154.634771 
L 62.672374 154.520408 
L 61.68699 153.911651 
L 60.785318 153.240816 
L 60.516327 153.041908 
L 59.345663 151.969685 
z
" style="fill:#1460a8;"/>
   </g>
   <g id="PathCollection_8">
    <path clip-path="url(#pe00abe54d3)" d="M 58.175 154.520408 
L 58.175 153.240816 
L 58.175 151.961224 
L 58.175 150.681633 
L 58.175 150.613785 
L 58.235174 150.681633 
L 59.33855 151.961224 
L 59.345663 151.969685 
L 60.516327 153.041908 
L 60.785318 153.240816 
L 61.68699 153.911651 
L 62.672374 154.520408 
L 62.857653 154.634771 
L 64.028316 155.231632 
L 65.19898 155.74161 
L 65.358009 155.8 
L 65.19898 155.8 
L 64.028316 155.8 
L 62.857653 155.8 
L 61.68699 155.8 
L 60.516327 155.8 
L 59.345663 155.8 
L 58.175 155.8 
z
" style="fill:#084082;"/>
    <path clip-path="url(#pe00abe54d3)" d="M 156.510714 155.772713 
L 157.681378 155.720728 
L 158.852041 155.669014 
L 160.022704 155.617576 
L 161.193367 155.566413 
L 162.364031 155.515528 
L 163.534694 155.464922 
L 164.705357 155.414597 
L 165.87602 155.364552 
L 167.046684 155.314788 
L 168.217347 155.265305 
L 169.38801 155.216105 
L 170.558673 155.167186 
L 171.729337 155.118549 
L 172.9 155.070193 
L 172.9 155.8 
L 171.729337 155.8 
L 170.558673 155.8 
L 169.38801 155.8 
L 168.217347 155.8 
L 167.046684 155.8 
L 165.87602 155.8 
L 164.705357 155.8 
L 163.534694 155.8 
L 162.364031 155.8 
L 161.193367 155.8 
L 160.022704 155.8 
L 158.852041 155.8 
L 157.681378 155.8 
L 156.510714 155.8 
L 155.899103 155.8 
z
" style="fill:#084082;"/>
   </g>
   <g id="matplotlib.axis_1">
    <g id="xtick_1">
     <g id="line2d_1">
      <defs>
       <path d="M 0 0 
L 0 3.5 
" id="m15aadfc930" style="stroke:#000000;stroke-width:0.8;"/>
      </defs>
      <g>
       <use style="stroke:#000000;stroke-width:0.8;" x="101.196875" xlink:href="#m15aadfc930" y="155.8"/>
      </g>
     </g>
     <g id="text_1">
      <!-- 2 -->
      <defs>
       <path d="M 19.1875 8.296875 
L 53.609375 8.296875 
L 53.609375 0 
L 7.328125 0 
L 7.328125 8.296875 
Q 12.9375 14.109375 22.625 23.890625 
Q 32.328125 33.6875 34.8125 36.53125 
Q 39.546875 41.84375 41.421875 45.53125 
Q 43.3125 49.21875 43.3125 52.78125 
Q 43.3125 58.59375 39.234375 62.25 
Q 35.15625 65.921875 28.609375 65.921875 
Q 23.96875 65.921875 18.8125 64.3125 
Q 13.671875 62.703125 7.8125 59.421875 
L 7.8125 69.390625 
Q 13.765625 71.78125 18.9375 73 
Q 24.125 74.21875 28.421875 74.21875 
Q 39.75 74.21875 46.484375 68.546875 
Q 53.21875 62.890625 53.21875 53.421875 
Q 53.21875 48.921875 51.53125 44.890625 
Q 49.859375 40.875 45.40625 35.40625 
Q 44.1875 33.984375 37.640625 27.21875 
Q 31.109375 20.453125 19.1875 8.296875 
z
" id="DejaVuSans-32"/>
      </defs>
      <g transform="translate(98.015625 170.398438)scale(0.1 -0.1)">
       <use xlink:href="#DejaVuSans-32"/>
      </g>
     </g>
    </g>
    <g id="xtick_2">
     <g id="line2d_2">
      <g>
       <use style="stroke:#000000;stroke-width:0.8;" x="148.998958" xlink:href="#m15aadfc930" y="155.8"/>
      </g>
     </g>
     <g id="text_2">
      <!-- 4 -->
      <defs>
       <path d="M 37.796875 64.3125 
L 12.890625 25.390625 
L 37.796875 25.390625 
z
M 35.203125 72.90625 
L 47.609375 72.90625 
L 47.609375 25.390625 
L 58.015625 25.390625 
L 58.015625 17.1875 
L 47.609375 17.1875 
L 47.609375 0 
L 37.796875 0 
L 37.796875 17.1875 
L 4.890625 17.1875 
L 4.890625 26.703125 
z
" id="DejaVuSans-34"/>
      </defs>
      <g transform="translate(145.817708 170.398438)scale(0.1 -0.1)">
       <use xlink:href="#DejaVuSans-34"/>
      </g>
     </g>
    </g>
    <g id="text_3">
     <!-- $c$ -->
     <defs>
      <path d="M 53.609375 52.59375 
L 51.8125 43.703125 
Q 48.578125 46.046875 44.9375 47.21875 
Q 41.3125 48.390625 37.40625 48.390625 
Q 33.109375 48.390625 29.21875 46.875 
Q 25.34375 45.359375 22.703125 42.578125 
Q 18.5 38.328125 16.203125 32.609375 
Q 13.921875 26.90625 13.921875 20.796875 
Q 13.921875 13.421875 17.609375 9.8125 
Q 21.296875 6.203125 28.8125 6.203125 
Q 32.515625 6.203125 36.6875 7.328125 
Q 40.875 8.453125 45.40625 10.6875 
L 43.703125 1.8125 
Q 39.796875 0.203125 35.671875 -0.609375 
Q 31.546875 -1.421875 27.203125 -1.421875 
Q 16.3125 -1.421875 10.453125 4.015625 
Q 4.59375 9.46875 4.59375 19.578125 
Q 4.59375 28.078125 7.640625 35.234375 
Q 10.6875 42.390625 16.703125 48.09375 
Q 20.796875 52 26.3125 54 
Q 31.84375 56 38.375 56 
Q 42.1875 56 45.9375 55.140625 
Q 49.703125 54.296875 53.609375 52.59375 
z
" id="DejaVuSans-Oblique-63"/>
     </defs>
     <g transform="translate(111.6875 187.115938)scale(0.14 -0.14)">
      <use xlink:href="#DejaVuSans-Oblique-63"/>
     </g>
    </g>
   </g>
   <g id="matplotlib.axis_2">
    <g id="ytick_1">
     <g id="line2d_3">
      <defs>
       <path d="M 0 0 
L -3.5 0 
" id="m286aa5ec4a" style="stroke:#000000;stroke-width:0.8;"/>
      </defs>
      <g>
       <use style="stroke:#000000;stroke-width:0.8;" x="58.175" xlink:href="#m286aa5ec4a" y="155.8"/>
      </g>
     </g>
     <g id="text_4">
      <!-- 0.50 -->
      <defs>
       <path d="M 31.78125 66.40625 
Q 24.171875 66.40625 20.328125 58.90625 
Q 16.5 51.421875 16.5 36.375 
Q 16.5 21.390625 20.328125 13.890625 
Q 24.171875 6.390625 31.78125 6.390625 
Q 39.453125 6.390625 43.28125 13.890625 
Q 47.125 21.390625 47.125 36.375 
Q 47.125 51.421875 43.28125 58.90625 
Q 39.453125 66.40625 31.78125 66.40625 
z
M 31.78125 74.21875 
Q 44.046875 74.21875 50.515625 64.515625 
Q 56.984375 54.828125 56.984375 36.375 
Q 56.984375 17.96875 50.515625 8.265625 
Q 44.046875 -1.421875 31.78125 -1.421875 
Q 19.53125 -1.421875 13.0625 8.265625 
Q 6.59375 17.96875 6.59375 36.375 
Q 6.59375 54.828125 13.0625 64.515625 
Q 19.53125 74.21875 31.78125 74.21875 
z
" id="DejaVuSans-30"/>
       <path d="M 10.6875 12.40625 
L 21 12.40625 
L 21 0 
L 10.6875 0 
z
" id="DejaVuSans-2e"/>
       <path d="M 10.796875 72.90625 
L 49.515625 72.90625 
L 49.515625 64.59375 
L 19.828125 64.59375 
L 19.828125 46.734375 
Q 21.96875 47.46875 24.109375 47.828125 
Q 26.265625 48.1875 28.421875 48.1875 
Q 40.625 48.1875 47.75 41.5 
Q 54.890625 34.8125 54.890625 23.390625 
Q 54.890625 11.625 47.5625 5.09375 
Q 40.234375 -1.421875 26.90625 -1.421875 
Q 22.3125 -1.421875 17.546875 -0.640625 
Q 12.796875 0.140625 7.71875 1.703125 
L 7.71875 11.625 
Q 12.109375 9.234375 16.796875 8.0625 
Q 21.484375 6.890625 26.703125 6.890625 
Q 35.15625 6.890625 40.078125 11.328125 
Q 45.015625 15.765625 45.015625 23.390625 
Q 45.015625 31 40.078125 35.4375 
Q 35.15625 39.890625 26.703125 39.890625 
Q 22.75 39.890625 18.8125 39.015625 
Q 14.890625 38.140625 10.796875 36.28125 
z
" id="DejaVuSans-35"/>
      </defs>
      <g transform="translate(28.909375 159.599219)scale(0.1 -0.1)">
       <use xlink:href="#DejaVuSans-30"/>
       <use x="63.623047" xlink:href="#DejaVuSans-2e"/>
       <use x="95.410156" xlink:href="#DejaVuSans-35"/>
       <use x="159.033203" xlink:href="#DejaVuSans-30"/>
      </g>
     </g>
    </g>
    <g id="ytick_2">
     <g id="line2d_4">
      <g>
       <use style="stroke:#000000;stroke-width:0.8;" x="58.175" xlink:href="#m286aa5ec4a" y="134.9"/>
      </g>
     </g>
     <g id="text_5">
      <!-- 0.75 -->
      <defs>
       <path d="M 8.203125 72.90625 
L 55.078125 72.90625 
L 55.078125 68.703125 
L 28.609375 0 
L 18.3125 0 
L 43.21875 64.59375 
L 8.203125 64.59375 
z
" id="DejaVuSans-37"/>
      </defs>
      <g transform="translate(28.909375 138.699219)scale(0.1 -0.1)">
       <use xlink:href="#DejaVuSans-30"/>
       <use x="63.623047" xlink:href="#DejaVuSans-2e"/>
       <use x="95.410156" xlink:href="#DejaVuSans-37"/>
       <use x="159.033203" xlink:href="#DejaVuSans-35"/>
      </g>
     </g>
    </g>
    <g id="ytick_3">
     <g id="line2d_5">
      <g>
       <use style="stroke:#000000;stroke-width:0.8;" x="58.175" xlink:href="#m286aa5ec4a" y="114"/>
      </g>
     </g>
     <g id="text_6">
      <!-- 1.00 -->
      <defs>
       <path d="M 12.40625 8.296875 
L 28.515625 8.296875 
L 28.515625 63.921875 
L 10.984375 60.40625 
L 10.984375 69.390625 
L 28.421875 72.90625 
L 38.28125 72.90625 
L 38.28125 8.296875 
L 54.390625 8.296875 
L 54.390625 0 
L 12.40625 0 
z
" id="DejaVuSans-31"/>
      </defs>
      <g transform="translate(28.909375 117.799219)scale(0.1 -0.1)">
       <use xlink:href="#DejaVuSans-31"/>
       <use x="63.623047" xlink:href="#DejaVuSans-2e"/>
       <use x="95.410156" xlink:href="#DejaVuSans-30"/>
       <use x="159.033203" xlink:href="#DejaVuSans-30"/>
      </g>
     </g>
    </g>
    <g id="ytick_4">
     <g id="line2d_6">
      <g>
       <use style="stroke:#000000;stroke-width:0.8;" x="58.175" xlink:href="#m286aa5ec4a" y="93.1"/>
      </g>
     </g>
     <g id="text_7">
      <!-- 1.25 -->
      <g transform="translate(28.909375 96.899219)scale(0.1 -0.1)">
       <use xlink:href="#DejaVuSans-31"/>
       <use x="63.623047" xlink:href="#DejaVuSans-2e"/>
       <use x="95.410156" xlink:href="#DejaVuSans-32"/>
       <use x="159.033203" xlink:href="#DejaVuSans-35"/>
      </g>
     </g>
    </g>
    <g id="ytick_5">
     <g id="line2d_7">
      <g>
       <use style="stroke:#000000;stroke-width:0.8;" x="58.175" xlink:href="#m286aa5ec4a" y="72.2"/>
      </g>
     </g>
     <g id="text_8">
      <!-- 1.50 -->
      <g transform="translate(28.909375 75.999219)scale(0.1 -0.1)">
       <use xlink:href="#DejaVuSans-31"/>
       <use x="63.623047" xlink:href="#DejaVuSans-2e"/>
       <use x="95.410156" xlink:href="#DejaVuSans-35"/>
       <use x="159.033203" xlink:href="#DejaVuSans-30"/>
      </g>
     </g>
    </g>
    <g id="ytick_6">
     <g id="line2d_8">
      <g>
       <use style="stroke:#000000;stroke-width:0.8;" x="58.175" xlink:href="#m286aa5ec4a" y="51.3"/>
      </g>
     </g>
     <g id="text_9">
      <!-- 1.75 -->
      <g transform="translate(28.909375 55.099219)scale(0.1 -0.1)">
       <use xlink:href="#DejaVuSans-31"/>
       <use x="63.623047" xlink:href="#DejaVuSans-2e"/>
       <use x="95.410156" xlink:href="#DejaVuSans-37"/>
       <use x="159.033203" xlink:href="#DejaVuSans-35"/>
      </g>
     </g>
    </g>
    <g id="ytick_7">
     <g id="line2d_9">
      <g>
       <use style="stroke:#000000;stroke-width:0.8;" x="58.175" xlink:href="#m286aa5ec4a" y="30.4"/>
      </g>
     </g>
     <g id="text_10">
      <!-- 2.00 -->
      <g transform="translate(28.909375 34.199219)scale(0.1 -0.1)">
       <use xlink:href="#DejaVuSans-32"/>
       <use x="63.623047" xlink:href="#DejaVuSans-2e"/>
       <use x="95.410156" xlink:href="#DejaVuSans-30"/>
       <use x="159.033203" xlink:href="#DejaVuSans-30"/>
      </g>
     </g>
    </g>
    <g id="text_11">
     <!-- $r$ -->
     <defs>
      <path d="M 44.578125 46.390625 
Q 43.21875 47.125 41.453125 47.515625 
Q 39.703125 47.90625 37.703125 47.90625 
Q 30.515625 47.90625 25.140625 42.453125 
Q 19.78125 37.015625 18.015625 27.875 
L 12.5 0 
L 3.515625 0 
L 14.203125 54.6875 
L 23.1875 54.6875 
L 21.484375 46.1875 
Q 25.046875 50.921875 30 53.453125 
Q 34.96875 56 40.578125 56 
Q 42.046875 56 43.453125 55.828125 
Q 44.875 55.671875 46.296875 55.28125 
z
" id="DejaVuSans-Oblique-72"/>
     </defs>
     <g transform="translate(21.997812 96.04)rotate(-90)scale(0.14 -0.14)">
      <use xlink:href="#DejaVuSans-Oblique-72"/>
     </g>
    </g>
   </g>
   <g id="LineCollection_1">
    <path clip-path="url(#pe00abe54d3)" d="M 58.175 68.08365 
L 58.489043 67.508163 
L 59.162258 66.228571 
L 59.345663 65.868259 
L 59.994496 64.94898 
L 60.516327 64.185917 
L 60.992636 63.669388 
L 61.68699 62.89714 
L 62.29306 62.389796 
L 62.857653 61.907309 
L 64.028316 61.151058 
L 64.112538 61.110204 
L 65.19898 60.575374 
L 66.369643 60.148101 
L 67.540306 59.839987 
L 67.592132 59.830612 
L 68.710969 59.626218 
L 69.881633 59.491755 
L 71.052296 59.422445 
L 72.222959 59.406877 
L 73.393622 59.435824 
L 74.564286 59.501756 
L 75.734949 59.598481 
L 76.905612 59.720877 
L 77.798087 59.830612 
L 78.076276 59.864364 
L 79.246939 60.024525 
L 80.417602 60.199407 
L 81.588265 60.386499 
L 82.758929 60.583677 
L 83.929592 60.78913 
L 85.100255 61.00132 
L 85.684621 61.110204 
L 86.270918 61.217967 
L 87.084087 61.370752 
" style="fill:none;stroke:#000000;stroke-dasharray:11.1,4.8;stroke-dashoffset:0;stroke-width:3;"/>
    <path clip-path="url(#pe00abe54d3)" d="M 104.193978 64.649377 
L 105.001531 64.798017 
L 105.827891 64.94898 
L 106.172194 65.011077 
L 107.342857 65.220931 
L 108.51352 65.428784 
L 109.684184 65.634585 
L 110.854847 65.838292 
L 112.02551 66.039875 
L 113.132902 66.228571 
L 113.196173 66.239219 
L 114.366837 66.434865 
L 115.5375 66.628364 
L 116.708163 66.819709 
L 117.878827 67.0089 
L 119.04949 67.195939 
L 120.220153 67.380833 
L 121.034806 67.508163 
L 121.390816 67.563141 
L 122.56148 67.742314 
L 123.732143 67.919405 
L 124.902806 68.094431 
L 126.073469 68.267408 
L 127.244133 68.438356 
L 128.414796 68.607296 
L 129.585459 68.77425 
L 129.680962 68.787755 
L 130.756122 68.938029 
L 131.926786 69.099781 
L 133.097449 69.25964 
L 134.268112 69.41763 
L 135.438776 69.573775 
L 136.609439 69.7281 
L 137.780102 69.880629 
L 138.950765 70.031388 
L 139.232548 70.067347 
L 140.121429 70.179508 
L 141.292092 70.325643 
L 142.462755 70.470103 
L 143.633418 70.612912 
L 144.804082 70.754095 
L 145.974745 70.893675 
L 147.145408 71.031678 
L 148.316071 71.168127 
L 149.486735 71.303046 
L 149.871094 71.346939 
L 150.657398 71.43576 
L 151.828061 71.566663 
L 152.998724 71.696123 
L 154.169388 71.824161 
L 155.340051 71.950799 
L 156.510714 72.076059 
L 157.681378 72.199962 
L 158.852041 72.32253 
L 160.022704 72.443783 
L 161.193367 72.563742 
L 161.811869 72.626531 
L 162.364031 72.681997 
L 163.534694 72.798526 
L 164.705357 72.913834 
L 165.87602 73.027939 
L 167.046684 73.14086 
L 168.217347 73.252616 
L 169.38801 73.363225 
L 170.558673 73.472704 
L 171.729337 73.58107 
L 172.9 73.688341 
" style="fill:none;stroke:#000000;stroke-dasharray:11.1,4.8;stroke-dashoffset:0;stroke-width:3;"/>
   </g>
   <g id="LineCollection_2">
    <path clip-path="url(#pe00abe54d3)" d="M 58.175 113.997262 
L 59.345663 113.997333 
L 60.516327 113.997393 
L 61.68699 113.997445 
L 62.857653 113.997491 
L 64.028316 113.997531 
L 65.19898 113.997568 
L 66.369643 113.997602 
L 67.540306 113.997633 
L 68.710969 113.997661 
L 69.881633 113.997688 
L 71.052296 113.997712 
L 72.222959 113.997736 
L 73.393622 113.997757 
L 74.564286 113.997778 
L 75.734949 113.997797 
L 76.905612 113.997816 
L 78.076276 113.997834 
L 79.246939 113.99785 
L 80.417602 113.997866 
L 81.588265 113.997882 
L 82.758929 113.997897 
L 83.929592 113.997911 
L 85.100255 113.997924 
L 86.270918 113.997937 
L 87.441582 113.99795 
L 88.612245 113.997962 
L 89.782908 113.997974 
L 90.953571 113.997985 
L 92.124235 113.997996 
L 93.294898 113.998007 
L 94.465561 113.998017 
L 95.636224 113.998027 
L 96.806888 113.998037 
L 97.977551 113.998047 
L 99.148214 113.998056 
L 100.318878 113.998065 
L 101.489541 113.998074 
L 102.660204 113.998082 
L 103.830867 113.99809 
L 105.001531 113.998098 
L 106.172194 113.998106 
L 107.342857 113.998114 
L 108.51352 113.998122 
L 109.684184 113.998129 
L 110.854847 113.998136 
L 112.02551 113.998143 
L 113.196173 113.99815 
L 114.366837 113.998157 
L 115.5375 113.998163 
L 116.708163 113.99817 
L 117.878827 113.998176 
L 119.04949 113.998182 
L 120.220153 113.998188 
L 121.390816 113.998194 
L 122.56148 113.9982 
L 123.732143 113.998206 
L 124.902806 113.998212 
L 126.073469 113.998217 
L 127.244133 113.998223 
L 128.414796 113.998228 
L 129.585459 113.998233 
L 130.756122 113.998239 
L 131.926786 113.998244 
L 133.097449 113.998249 
L 134.268112 113.998254 
L 135.438776 113.998258 
L 136.609439 113.998263 
L 137.780102 113.998268 
L 138.950765 113.998272 
L 140.121429 113.998277 
L 141.292092 113.998281 
L 142.462755 113.998286 
L 143.633418 113.99829 
L 144.804082 113.998295 
L 145.974745 113.998299 
L 147.145408 113.998303 
L 148.316071 113.998307 
L 149.486735 113.998311 
L 150.657398 113.998315 
L 151.828061 113.998319 
L 152.998724 113.998323 
L 154.169388 113.998327 
L 154.836217 113.998329 
" style="fill:none;stroke:#000000;stroke-width:3;"/>
    <path clip-path="url(#pe00abe54d3)" d="M 172.233171 113.99838 
L 172.9 113.998382 
" style="fill:none;stroke:#000000;stroke-width:3;"/>
   </g>
   <g id="LineCollection_3">
    <path clip-path="url(#pe00abe54d3)" d="M 58.175 141.192498 
L 58.765096 141.72449 
L 59.345663 142.262783 
L 60.369478 143.004082 
L 60.516327 143.112112 
L 61.68699 143.792761 
L 62.70742 144.283673 
L 62.857653 144.356034 
L 64.028316 144.816406 
L 65.19898 145.203979 
L 66.369643 145.531352 
L 66.506232 145.563265 
L 67.540306 145.801921 
L 68.710969 146.030421 
L 69.881633 146.223828 
L 71.052296 146.387157 
L 72.222959 146.52456 
L 73.393622 146.639501 
L 74.564286 146.734899 
L 75.734949 146.813225 
L 76.283706 146.842857 
L 76.905612 146.875747 
L 78.076276 146.924719 
L 79.246939 146.962397 
L 80.417602 146.990091 
L 81.588265 147.008938 
L 82.758929 147.019932 
L 83.929592 147.023944 
L 85.100255 147.021739 
L 86.270918 147.013993 
L 87.441582 147.001301 
L 88.612245 146.984191 
L 89.782908 146.963135 
L 90.953571 146.938549 
L 92.124235 146.910808 
L 93.294898 146.880244 
L 94.465561 146.847156 
L 94.60793 146.842857 
L 95.636224 146.811093 
L 96.806888 146.772877 
L 97.977551 146.73283 
L 99.148214 146.691151 
L 100.318878 146.648022 
L 101.489541 146.603606 
L 102.660204 146.558049 
L 103.830867 146.511485 
L 105.001531 146.464036 
L 106.172194 146.41581 
L 107.342857 146.366908 
L 108.51352 146.317419 
L 109.684184 146.267426 
L 110.854847 146.217004 
L 112.02551 146.16622 
L 113.196173 146.115136 
L 114.366837 146.06381 
L 115.5375 146.012292 
L 116.708163 145.960628 
L 117.878827 145.908863 
L 118.553522 145.878991 
" style="fill:none;stroke:#000000;stroke-width:3;"/>
    <path clip-path="url(#pe00abe54d3)" d="M 135.934805 145.109868 
L 136.609439 145.080559 
L 137.780102 145.029952 
L 138.950765 144.979605 
L 140.121429 144.929524 
L 141.292092 144.879715 
L 142.462755 144.830182 
L 143.633418 144.780932 
L 144.804082 144.731966 
L 145.974745 144.68329 
L 147.145408 144.634905 
L 148.316071 144.586815 
L 149.486735 144.539021 
L 150.657398 144.491524 
L 151.828061 144.444327 
L 152.998724 144.397431 
L 154.169388 144.350835 
L 155.340051 144.304541 
L 155.870778 144.283673 
L 156.510714 144.258077 
L 157.681378 144.211532 
L 158.852041 144.165298 
L 160.022704 144.119373 
L 161.193367 144.073758 
L 162.364031 144.028451 
L 163.534694 143.983451 
L 164.705357 143.938757 
L 165.87602 143.894367 
L 167.046684 143.850281 
L 168.217347 143.806496 
L 169.38801 143.763012 
L 170.558673 143.719826 
L 171.729337 143.676936 
L 172.9 143.634341 
" style="fill:none;stroke:#000000;stroke-width:3;"/>
   </g>
   <g id="patch_3">
    <path d="M 58.175 155.8 
L 58.175 30.4 
" style="fill:none;stroke:#000000;stroke-linecap:square;stroke-linejoin:miter;stroke-width:0.8;"/>
   </g>
   <g id="patch_4">
    <path d="M 172.9 155.8 
L 172.9 30.4 
" style="fill:none;stroke:#000000;stroke-linecap:square;stroke-linejoin:miter;stroke-width:0.8;"/>
   </g>
   <g id="patch_5">
    <path d="M 58.175 155.8 
L 172.9 155.8 
" style="fill:none;stroke:#000000;stroke-linecap:square;stroke-linejoin:miter;stroke-width:0.8;"/>
   </g>
   <g id="patch_6">
    <path d="M 58.175 30.4 
L 172.9 30.4 
" style="fill:none;stroke:#000000;stroke-linecap:square;stroke-linejoin:miter;stroke-width:0.8;"/>
   </g>
   <g id="text_12">
    <g clip-path="url(#pe00abe54d3)">
     <!-- -1 -->
     <defs>
      <path d="M 4.890625 31.390625 
L 31.203125 31.390625 
L 31.203125 23.390625 
L 4.890625 23.390625 
z
" id="DejaVuSans-2d"/>
     </defs>
     <g transform="translate(90.231173 64.829188)rotate(-349.483609)scale(0.1 -0.1)">
      <use xlink:href="#DejaVuSans-2d"/>
      <use x="36.083984" xlink:href="#DejaVuSans-31"/>
     </g>
    </g>
   </g>
   <g id="text_13">
    <g clip-path="url(#pe00abe54d3)">
     <!--  0 -->
     <defs>
      <path id="DejaVuSans-20"/>
     </defs>
     <g transform="translate(158.764374 116.757717)rotate(-359.999838)scale(0.1 -0.1)">
      <use xlink:href="#DejaVuSans-20"/>
      <use x="31.787109" xlink:href="#DejaVuSans-30"/>
     </g>
    </g>
   </g>
   <g id="text_14">
    <g clip-path="url(#pe00abe54d3)">
     <!--  1 -->
     <g transform="translate(122.595703 148.453762)rotate(-2.441606)scale(0.1 -0.1)">
      <use xlink:href="#DejaVuSans-20"/>
      <use x="31.787109" xlink:href="#DejaVuSans-31"/>
     </g>
    </g>
   </g>
   <g id="text_15">
    <!-- $s N^*=0$ -->
    <defs>
     <path d="M 50 53.078125 
L 48.296875 44.578125 
Q 44.734375 46.53125 40.765625 47.5 
Q 36.8125 48.484375 32.625 48.484375 
Q 25.53125 48.484375 21.453125 46.0625 
Q 17.390625 43.65625 17.390625 39.5 
Q 17.390625 34.671875 26.859375 32.078125 
Q 27.59375 31.890625 27.9375 31.78125 
L 30.8125 30.90625 
Q 39.796875 28.421875 42.796875 25.6875 
Q 45.796875 22.953125 45.796875 18.21875 
Q 45.796875 9.515625 38.890625 4.046875 
Q 31.984375 -1.421875 20.796875 -1.421875 
Q 16.453125 -1.421875 11.671875 -0.578125 
Q 6.890625 0.25 1.125 2 
L 2.875 11.28125 
Q 7.8125 8.734375 12.59375 7.421875 
Q 17.390625 6.109375 21.78125 6.109375 
Q 28.375 6.109375 32.5 8.9375 
Q 36.625 11.765625 36.625 16.109375 
Q 36.625 20.796875 25.78125 23.6875 
L 24.859375 23.921875 
L 21.78125 24.703125 
Q 14.9375 26.515625 11.765625 29.46875 
Q 8.59375 32.421875 8.59375 37.015625 
Q 8.59375 45.75 15.15625 50.875 
Q 21.734375 56 33.015625 56 
Q 37.453125 56 41.671875 55.265625 
Q 45.90625 54.546875 50 53.078125 
z
" id="DejaVuSans-Oblique-73"/>
     <path d="M 16.890625 72.90625 
L 30.171875 72.90625 
L 50.296875 10.40625 
L 62.5 72.90625 
L 72.125 72.90625 
L 57.90625 0 
L 44.578125 0 
L 24.515625 62.890625 
L 12.3125 0 
L 2.6875 0 
z
" id="DejaVuSans-Oblique-4e"/>
     <path d="M 47.015625 60.890625 
L 29.5 51.421875 
L 47.015625 41.890625 
L 44.1875 37.109375 
L 27.78125 47.015625 
L 27.78125 28.609375 
L 22.21875 28.609375 
L 22.21875 47.015625 
L 5.8125 37.109375 
L 2.984375 41.890625 
L 20.515625 51.421875 
L 2.984375 60.890625 
L 5.8125 65.71875 
L 22.21875 55.8125 
L 22.21875 74.21875 
L 27.78125 74.21875 
L 27.78125 55.8125 
L 44.1875 65.71875 
z
" id="DejaVuSans-2a"/>
     <path d="M 10.59375 45.40625 
L 73.1875 45.40625 
L 73.1875 37.203125 
L 10.59375 37.203125 
z
M 10.59375 25.484375 
L 73.1875 25.484375 
L 73.1875 17.1875 
L 10.59375 17.1875 
z
" id="DejaVuSans-3d"/>
    </defs>
    <g transform="translate(92.3775 24.4)scale(0.12 -0.12)">
     <use transform="translate(0 0.765625)" xlink:href="#DejaVuSans-Oblique-73"/>
     <use transform="translate(52.099609 0.765625)" xlink:href="#DejaVuSans-Oblique-4e"/>
     <use transform="translate(147.558763 39.046875)scale(0.7)" xlink:href="#DejaVuSans-2a"/>
     <use transform="translate(218.413255 0.765625)" xlink:href="#DejaVuSans-3d"/>
     <use transform="translate(321.68474 0.765625)" xlink:href="#DejaVuSans-30"/>
    </g>
   </g>
  </g>
 </g>
 <defs>
  <clipPath id="pe00abe54d3">
   <rect height="125.4" width="114.725" x="58.175" y="30.4"/>
  </clipPath>
 </defs>
</svg>
