<?xml version="1.0" encoding="utf-8" standalone="no"?>
<!DOCTYPE svg PUBLIC "-//W3C//DTD SVG 1.1//EN"
  "http://www.w3.org/Graphics/SVG/1.1/DTD/svg11.dtd">
<!-- Created with matplotlib (http://matplotlib.org/) -->
<svg height="201.6pt" version="1.1" viewBox="0 0 187.2 201.6" width="187.2pt" xmlns="http://www.w3.org/2000/svg" xmlns:xlink="http://www.w3.org/1999/xlink">
 <defs>
  <style type="text/css">
*{stroke-linecap:butt;stroke-linejoin:round;}
  </style>
 </defs>
 <g id="figure_1">
  <g id="patch_1">
   <path d="M 0 201.6 
L 187.2 201.6 
L 187.2 0 
L 0 0 
z
" style="fill:#ffffff;"/>
  </g>
  <g id="axes_1">
   <g id="patch_2">
    <path d="M 61.4 152 
L 167.086758 152 
L 167.086758 26.8 
L 61.4 26.8 
z
" style="fill:#ffffff;"/>
   </g>
   <g id="PathCollection_1">
    <path clip-path="url(#p988dfd629e)" d="M 61.4 150.722449 
L 61.4 149.444898 
L 61.4 148.167347 
L 61.4 146.889796 
L 61.4 145.612245 
L 61.4 144.334694 
L 61.4 143.970302 
L 61.954481 144.334694 
L 62.478436 144.692631 
L 63.556873 145.432407 
L 63.820532 145.612245 
L 64.635309 146.190148 
L 65.611028 146.889796 
L 65.713745 146.966389 
L 66.792182 147.761682 
L 67.339674 148.167347 
L 67.870618 148.576598 
L 68.949054 149.411727 
L 68.992479 149.444898 
L 70.02749 150.267678 
L 70.597206 150.722449 
L 71.105927 151.145081 
L 72.132903 152 
L 71.105927 152 
L 70.02749 152 
L 68.949054 152 
L 67.870618 152 
L 66.792182 152 
L 65.713745 152 
L 64.635309 152 
L 63.556873 152 
L 62.478436 152 
L 61.4 152 
z
" style="fill:#f2faef;"/>
   </g>
   <g id="PathCollection_2">
    <path clip-path="url(#p988dfd629e)" d="M 61.954481 144.334694 
L 61.4 143.970302 
L 61.4 143.057143 
L 61.4 141.779592 
L 61.4 140.502041 
L 61.4 139.22449 
L 61.4 137.946939 
L 61.4 136.669388 
L 61.4 135.391837 
L 61.4 134.183042 
L 62.478436 134.754881 
L 63.556873 135.340388 
L 63.652775 135.391837 
L 64.635309 135.939964 
L 65.713745 136.554021 
L 65.918 136.669388 
L 66.792182 137.182986 
L 67.870618 137.827299 
L 68.072508 137.946939 
L 68.949054 138.487417 
L 70.02749 139.163808 
L 70.125409 139.22449 
L 71.105927 139.856957 
L 72.08874 140.502041 
L 72.184363 140.567368 
L 73.262799 141.295556 
L 73.971934 141.779592 
L 74.341236 142.042058 
L 75.419672 142.807426 
L 75.772429 143.057143 
L 76.498108 143.592231 
L 77.496066 144.334694 
L 77.576545 144.397064 
L 78.654981 145.222534 
L 79.162396 145.612245 
L 79.733417 146.069271 
L 80.754389 146.889796 
L 80.811853 146.937926 
L 81.89029 147.829173 
L 82.29962 148.167347 
L 82.968726 148.743707 
L 83.782873 149.444898 
L 84.047162 149.682247 
L 85.125599 150.645537 
L 85.212815 150.722449 
L 86.204035 151.634343 
L 86.603107 152 
L 86.204035 152 
L 85.125599 152 
L 84.047162 152 
L 82.968726 152 
L 81.89029 152 
L 80.811853 152 
L 79.733417 152 
L 78.654981 152 
L 77.576545 152 
L 76.498108 152 
L 75.419672 152 
L 74.341236 152 
L 73.262799 152 
L 72.184363 152 
L 72.132903 152 
L 71.105927 151.145081 
L 70.597206 150.722449 
L 70.02749 150.267678 
L 68.992479 149.444898 
L 68.949054 149.411727 
L 67.870618 148.576598 
L 67.339674 148.167347 
L 66.792182 147.761682 
L 65.713745 146.966389 
L 65.611028 146.889796 
L 64.635309 146.190148 
L 63.820532 145.612245 
L 63.556873 145.432407 
L 62.478436 144.692631 
z
" style="fill:#e8f6e3;"/>
   </g>
   <g id="PathCollection_3">
    <path clip-path="url(#p988dfd629e)" d="M 61.4 134.114286 
L 61.4 132.836735 
L 61.4 131.559184 
L 61.4 130.281633 
L 61.4 129.004082 
L 61.4 127.726531 
L 61.4 126.44898 
L 61.4 125.171429 
L 61.4 124.395781 
L 62.478436 124.817131 
L 63.370523 125.171429 
L 63.556873 125.248369 
L 64.635309 125.689779 
L 65.713745 126.141652 
L 66.439537 126.44898 
L 66.792182 126.604289 
L 67.870618 127.078001 
L 68.949054 127.563106 
L 69.313333 127.726531 
L 70.02749 128.059937 
L 71.105927 128.568834 
L 72.012192 129.004082 
L 72.184363 129.090148 
L 73.262799 129.624243 
L 74.341236 130.171493 
L 74.560042 130.281633 
L 75.419672 130.732286 
L 76.498108 131.307019 
L 76.970577 131.559184 
L 77.576545 131.896106 
L 78.654981 132.499971 
L 79.252626 132.836735 
L 79.733417 133.119054 
L 80.811853 133.753807 
L 81.420162 134.114286 
L 81.89029 134.404699 
L 82.968726 135.072211 
L 83.483463 135.391837 
L 84.047162 135.756844 
L 85.125599 136.459111 
L 85.449873 136.669388 
L 86.204035 137.179544 
L 87.282471 137.918692 
L 87.324319 137.946939 
L 88.360908 138.677122 
L 89.128889 139.22449 
L 89.439344 139.455419 
L 90.51778 140.254187 
L 90.853698 140.502041 
L 91.596217 141.07405 
L 92.506526 141.779592 
L 92.674653 141.915654 
L 93.753089 142.779664 
L 94.100619 143.057143 
L 94.831525 143.666767 
L 95.63143 144.334694 
L 95.909962 144.577674 
L 96.988398 145.513118 
L 97.104161 145.612245 
L 98.066834 146.473858 
L 98.533092 146.889796 
L 99.145271 147.460675 
L 99.907109 148.167347 
L 100.223707 148.474379 
L 101.231712 149.444898 
L 101.302143 149.515804 
L 102.38058 150.585815 
L 102.519985 150.722449 
L 103.459016 151.685302 
L 103.769297 152 
L 103.459016 152 
L 102.38058 152 
L 101.302143 152 
L 100.223707 152 
L 99.145271 152 
L 98.066834 152 
L 96.988398 152 
L 95.909962 152 
L 94.831525 152 
L 93.753089 152 
L 92.674653 152 
L 91.596217 152 
L 90.51778 152 
L 89.439344 152 
L 88.360908 152 
L 87.282471 152 
L 86.603107 152 
L 86.204035 151.634343 
L 85.212815 150.722449 
L 85.125599 150.645537 
L 84.047162 149.682247 
L 83.782873 149.444898 
L 82.968726 148.743707 
L 82.29962 148.167347 
L 81.89029 147.829173 
L 80.811853 146.937926 
L 80.754389 146.889796 
L 79.733417 146.069271 
L 79.162396 145.612245 
L 78.654981 145.222534 
L 77.576545 144.397064 
L 77.496066 144.334694 
L 76.498108 143.592231 
L 75.772429 143.057143 
L 75.419672 142.807426 
L 74.341236 142.042058 
L 73.971934 141.779592 
L 73.262799 141.295556 
L 72.184363 140.567368 
L 72.08874 140.502041 
L 71.105927 139.856957 
L 70.125409 139.22449 
L 70.02749 139.163808 
L 68.949054 138.487417 
L 68.072508 137.946939 
L 67.870618 137.827299 
L 66.792182 137.182986 
L 65.918 136.669388 
L 65.713745 136.554021 
L 64.635309 135.939964 
L 63.652775 135.391837 
L 63.556873 135.340388 
L 62.478436 134.754881 
L 61.4 134.183042 
z
" style="fill:#d9f0d3;"/>
   </g>
   <g id="PathCollection_4">
    <path clip-path="url(#p988dfd629e)" d="M 61.4 123.893878 
L 61.4 122.616327 
L 61.4 121.338776 
L 61.4 120.061224 
L 61.4 118.783673 
L 61.4 117.506122 
L 61.4 116.228571 
L 61.4 114.95102 
L 61.4 114.608521 
L 62.478436 114.879381 
L 62.765507 114.95102 
L 63.556873 115.156351 
L 64.635309 115.439595 
L 65.713745 115.729284 
L 66.792182 116.025593 
L 67.523712 116.228571 
L 67.870618 116.328702 
L 68.949054 116.638796 
L 70.02749 116.956067 
L 71.105927 117.28071 
L 71.847013 117.506122 
L 72.184363 117.612928 
L 73.262799 117.952929 
L 74.341236 118.300928 
L 75.419672 118.657145 
L 75.803885 118.783673 
L 76.498108 119.021807 
L 77.576545 119.395148 
L 78.654981 119.777409 
L 79.445701 120.061224 
L 79.733417 120.168837 
L 80.811853 120.569688 
L 81.89029 120.980224 
L 82.81543 121.338776 
L 82.968726 121.400715 
L 84.047162 121.83144 
L 85.125599 122.272685 
L 85.953596 122.616327 
L 86.204035 122.724744 
L 87.282471 123.187923 
L 88.360908 123.662532 
L 88.885393 123.893878 
L 89.439344 124.148893 
L 90.51778 124.647339 
L 91.596217 125.158209 
L 91.624617 125.171429 
L 92.674653 125.681855 
L 93.753089 126.218637 
L 94.215998 126.44898 
L 94.831525 126.768928 
L 95.909962 127.33311 
L 96.653646 127.726531 
L 96.988398 127.911577 
L 98.066834 128.504734 
L 98.959083 129.004082 
L 99.145271 129.113 
L 100.223707 129.736802 
L 101.148079 130.281633 
L 101.302143 130.376584 
L 102.38058 131.032801 
L 103.232094 131.559184 
L 103.459016 131.705919 
L 104.537452 132.396422 
L 105.219233 132.836735 
L 105.615888 133.104806 
L 106.694325 133.831579 
L 107.114876 134.114286 
L 107.772761 134.577269 
L 108.851197 135.342413 
L 108.922083 135.391837 
L 109.929634 136.12757 
L 110.665738 136.669388 
L 111.00807 136.93331 
L 112.086506 137.760222 
L 112.332537 137.946939 
L 113.164943 138.608911 
L 113.937422 139.22449 
L 114.243379 139.48 
L 115.321815 140.374129 
L 115.478337 140.502041 
L 116.400252 141.291958 
L 116.971154 141.779592 
L 117.478688 142.234164 
L 118.402644 143.057143 
L 118.557124 143.201444 
L 119.63556 144.194514 
L 119.790085 144.334694 
L 120.713997 145.214112 
L 121.13645 145.612245 
L 121.792433 146.260996 
L 122.435879 146.889796 
L 122.870869 147.335944 
L 123.69276 148.167347 
L 123.949306 148.439759 
L 124.910785 149.444898 
L 125.027742 149.573263 
L 126.093065 150.722449 
L 126.106178 150.737303 
L 127.184615 151.932749 
L 127.246504 152 
L 127.184615 152 
L 126.106178 152 
L 125.027742 152 
L 123.949306 152 
L 122.870869 152 
L 121.792433 152 
L 120.713997 152 
L 119.63556 152 
L 118.557124 152 
L 117.478688 152 
L 116.400252 152 
L 115.321815 152 
L 114.243379 152 
L 113.164943 152 
L 112.086506 152 
L 111.00807 152 
L 109.929634 152 
L 108.851197 152 
L 107.772761 152 
L 106.694325 152 
L 105.615888 152 
L 104.537452 152 
L 103.769297 152 
L 103.459016 151.685302 
L 102.519985 150.722449 
L 102.38058 150.585815 
L 101.302143 149.515804 
L 101.231712 149.444898 
L 100.223707 148.474379 
L 99.907109 148.167347 
L 99.145271 147.460675 
L 98.533092 146.889796 
L 98.066834 146.473858 
L 97.104161 145.612245 
L 96.988398 145.513118 
L 95.909962 144.577674 
L 95.63143 144.334694 
L 94.831525 143.666767 
L 94.100619 143.057143 
L 93.753089 142.779664 
L 92.674653 141.915654 
L 92.506526 141.779592 
L 91.596217 141.07405 
L 90.853698 140.502041 
L 90.51778 140.254187 
L 89.439344 139.455419 
L 89.128889 139.22449 
L 88.360908 138.677122 
L 87.324319 137.946939 
L 87.282471 137.918692 
L 86.204035 137.179544 
L 85.449873 136.669388 
L 85.125599 136.459111 
L 84.047162 135.756844 
L 83.483463 135.391837 
L 82.968726 135.072211 
L 81.89029 134.404699 
L 81.420162 134.114286 
L 80.811853 133.753807 
L 79.733417 133.119054 
L 79.252626 132.836735 
L 78.654981 132.499971 
L 77.576545 131.896106 
L 76.970577 131.559184 
L 76.498108 131.307019 
L 75.419672 130.732286 
L 74.560042 130.281633 
L 74.341236 130.171493 
L 73.262799 129.624243 
L 72.184363 129.090148 
L 72.012192 129.004082 
L 71.105927 128.568834 
L 70.02749 128.059937 
L 69.313333 127.726531 
L 68.949054 127.563106 
L 67.870618 127.078001 
L 66.792182 126.604289 
L 66.439537 126.44898 
L 65.713745 126.141652 
L 64.635309 125.689779 
L 63.556873 125.248369 
L 63.370523 125.171429 
L 62.478436 124.817131 
L 61.4 124.395781 
z
" style="fill:#c7e9c0;"/>
   </g>
   <g id="PathCollection_5">
    <path clip-path="url(#p988dfd629e)" d="M 61.4 113.673469 
L 61.4 112.395918 
L 61.4 111.118367 
L 61.4 109.840816 
L 61.4 108.563265 
L 61.4 107.285714 
L 61.4 106.008163 
L 61.4 104.82126 
L 62.478436 104.941631 
L 63.556873 105.064332 
L 64.635309 105.189411 
L 65.713745 105.316916 
L 66.792182 105.446897 
L 67.870618 105.579403 
L 68.949054 105.714486 
L 70.02749 105.852196 
L 71.105927 105.992586 
L 71.227571 106.008163 
L 72.184363 106.135708 
L 73.262799 106.281616 
L 74.341236 106.430363 
L 75.419672 106.582005 
L 76.498108 106.736595 
L 77.576545 106.894191 
L 78.654981 107.054847 
L 79.733417 107.218621 
L 80.177598 107.285714 
L 80.811853 107.385569 
L 81.89029 107.555749 
L 82.968726 107.729219 
L 84.047162 107.906036 
L 85.125599 108.086259 
L 86.204035 108.269945 
L 87.282471 108.457153 
L 87.893575 108.563265 
L 88.360908 108.647942 
L 89.439344 108.842368 
L 90.51778 109.040491 
L 91.596217 109.242368 
L 92.674653 109.448055 
L 93.753089 109.65761 
L 94.684227 109.840816 
L 94.831525 109.871089 
L 95.909962 110.088545 
L 96.988398 110.310035 
L 98.066834 110.535611 
L 99.145271 110.765324 
L 100.223707 110.999226 
L 100.775303 111.118367 
L 101.302143 111.237364 
L 102.38058 111.479786 
L 103.459016 111.726537 
L 104.537452 111.977659 
L 105.615888 112.233192 
L 106.302342 112.395918 
L 106.694325 112.493174 
L 107.772761 112.757638 
L 108.851197 113.026615 
L 109.929634 113.300133 
L 111.00807 113.578214 
L 111.382796 113.673469 
L 112.086506 113.860878 
L 113.164943 114.148137 
L 114.243379 114.44 
L 115.321815 114.736471 
L 116.100648 114.95102 
L 116.400252 115.037545 
L 117.478688 115.343214 
L 118.557124 115.653461 
L 119.63556 115.96826 
L 120.52238 116.228571 
L 120.713997 116.287579 
L 121.792433 116.611377 
L 122.870869 116.939601 
L 123.949306 117.272191 
L 124.70921 117.506122 
L 125.027742 117.609074 
L 126.106178 117.950164 
L 127.184615 118.295366 
L 128.263051 118.644569 
L 128.700733 118.783673 
L 129.341487 118.997647 
L 130.419923 119.354461 
L 131.49836 119.714853 
L 132.527546 120.061224 
L 132.576796 120.078648 
L 133.655232 120.445653 
L 134.733669 120.815655 
L 135.812105 121.188418 
L 136.257399 121.338776 
L 136.890541 121.563685 
L 137.968978 121.941174 
L 139.047414 122.320577 
L 139.894033 122.616327 
L 140.12585 122.701559 
L 141.204287 123.083756 
L 142.282723 123.466772 
L 143.361159 123.850178 
L 143.489878 123.893878 
L 144.439595 124.233511 
L 145.518032 124.61627 
L 146.596468 124.997915 
L 147.103022 125.171429 
L 147.674904 125.377864 
L 148.753341 125.755489 
L 149.831777 126.130117 
L 150.765635 126.44898 
L 150.910213 126.501024 
L 151.98865 126.867433 
L 153.067086 127.22851 
L 154.145522 127.583363 
L 154.603669 127.726531 
L 155.223958 127.931035 
L 156.302395 128.270503 
L 157.380831 128.600675 
L 158.459267 128.92038 
L 158.764063 129.004082 
L 159.537704 129.228372 
L 160.61614 129.523319 
L 161.694576 129.803799 
L 162.773013 130.068299 
L 163.71161 130.281633 
L 163.851449 130.315204 
L 164.929885 130.542796 
L 166.008322 130.749246 
L 167.086758 130.932604 
L 167.086758 131.559184 
L 167.086758 132.836735 
L 167.086758 134.114286 
L 167.086758 135.391837 
L 167.086758 136.669388 
L 167.086758 137.946939 
L 167.086758 139.22449 
L 167.086758 140.502041 
L 167.086758 141.779592 
L 167.086758 143.057143 
L 167.086758 144.334694 
L 167.086758 145.612245 
L 167.086758 146.889796 
L 167.086758 148.167347 
L 167.086758 149.444898 
L 167.086758 150.722449 
L 167.086758 152 
L 166.008322 152 
L 164.929885 152 
L 163.851449 152 
L 162.773013 152 
L 161.694576 152 
L 160.61614 152 
L 159.537704 152 
L 158.459267 152 
L 157.380831 152 
L 156.302395 152 
L 155.223958 152 
L 154.145522 152 
L 153.067086 152 
L 151.98865 152 
L 150.910213 152 
L 149.831777 152 
L 148.753341 152 
L 147.674904 152 
L 146.596468 152 
L 145.518032 152 
L 144.439595 152 
L 143.361159 152 
L 142.282723 152 
L 141.204287 152 
L 140.12585 152 
L 139.047414 152 
L 137.968978 152 
L 136.890541 152 
L 135.812105 152 
L 134.733669 152 
L 133.655232 152 
L 132.576796 152 
L 131.49836 152 
L 130.419923 152 
L 129.341487 152 
L 128.263051 152 
L 127.246504 152 
L 127.184615 151.932749 
L 126.106178 150.737303 
L 126.093065 150.722449 
L 125.027742 149.573263 
L 124.910785 149.444898 
L 123.949306 148.439759 
L 123.69276 148.167347 
L 122.870869 147.335944 
L 122.435879 146.889796 
L 121.792433 146.260996 
L 121.13645 145.612245 
L 120.713997 145.214112 
L 119.790085 144.334694 
L 119.63556 144.194514 
L 118.557124 143.201444 
L 118.402644 143.057143 
L 117.478688 142.234164 
L 116.971154 141.779592 
L 116.400252 141.291958 
L 115.478337 140.502041 
L 115.321815 140.374129 
L 114.243379 139.48 
L 113.937422 139.22449 
L 113.164943 138.608911 
L 112.332537 137.946939 
L 112.086506 137.760222 
L 111.00807 136.93331 
L 110.665738 136.669388 
L 109.929634 136.12757 
L 108.922083 135.391837 
L 108.851197 135.342413 
L 107.772761 134.577269 
L 107.114876 134.114286 
L 106.694325 133.831579 
L 105.615888 133.104806 
L 105.219233 132.836735 
L 104.537452 132.396422 
L 103.459016 131.705919 
L 103.232094 131.559184 
L 102.38058 131.032801 
L 101.302143 130.376584 
L 101.148079 130.281633 
L 100.223707 129.736802 
L 99.145271 129.113 
L 98.959083 129.004082 
L 98.066834 128.504734 
L 96.988398 127.911577 
L 96.653646 127.726531 
L 95.909962 127.33311 
L 94.831525 126.768928 
L 94.215998 126.44898 
L 93.753089 126.218637 
L 92.674653 125.681855 
L 91.624617 125.171429 
L 91.596217 125.158209 
L 90.51778 124.647339 
L 89.439344 124.148893 
L 88.885393 123.893878 
L 88.360908 123.662532 
L 87.282471 123.187923 
L 86.204035 122.724744 
L 85.953596 122.616327 
L 85.125599 122.272685 
L 84.047162 121.83144 
L 82.968726 121.400715 
L 82.81543 121.338776 
L 81.89029 120.980224 
L 80.811853 120.569688 
L 79.733417 120.168837 
L 79.445701 120.061224 
L 78.654981 119.777409 
L 77.576545 119.395148 
L 76.498108 119.021807 
L 75.803885 118.783673 
L 75.419672 118.657145 
L 74.341236 118.300928 
L 73.262799 117.952929 
L 72.184363 117.612928 
L 71.847013 117.506122 
L 71.105927 117.28071 
L 70.02749 116.956067 
L 68.949054 116.638796 
L 67.870618 116.328702 
L 67.523712 116.228571 
L 66.792182 116.025593 
L 65.713745 115.729284 
L 64.635309 115.439595 
L 63.556873 115.156351 
L 62.765507 114.95102 
L 62.478436 114.879381 
L 61.4 114.608521 
z
" style="fill:#b1e0ab;"/>
   </g>
   <g id="PathCollection_6">
    <path clip-path="url(#p988dfd629e)" d="M 61.4 104.730612 
L 61.4 103.453061 
L 61.4 102.17551 
L 61.4 100.897959 
L 61.4 99.620408 
L 61.4 98.342857 
L 61.4 97.065306 
L 61.4 95.787755 
L 61.4 95.034 
L 62.478436 95.003881 
L 63.556873 94.972313 
L 64.635309 94.939226 
L 65.713745 94.904548 
L 66.792182 94.868201 
L 67.870618 94.830105 
L 68.949054 94.790176 
L 70.02749 94.748326 
L 71.105927 94.704462 
L 72.184363 94.658488 
L 73.262799 94.610303 
L 74.341236 94.559798 
L 75.354165 94.510204 
L 75.419672 94.506864 
L 76.498108 94.451383 
L 77.576545 94.393233 
L 78.654981 94.332285 
L 79.733417 94.268404 
L 80.811853 94.20145 
L 81.89029 94.131275 
L 82.968726 94.057723 
L 84.047162 93.980632 
L 85.125599 93.899833 
L 86.204035 93.815146 
L 87.282471 93.726384 
L 88.360908 93.633352 
L 89.439344 93.535843 
L 90.51778 93.433643 
L 91.596217 93.326526 
L 92.504226 93.232653 
L 92.674653 93.214256 
L 93.753089 93.096583 
L 94.831525 92.973249 
L 95.909962 92.843981 
L 96.988398 92.708494 
L 98.066834 92.566487 
L 99.145271 92.417649 
L 100.223707 92.261649 
L 101.302143 92.098144 
L 102.208869 91.955102 
L 102.38058 91.926772 
L 103.459016 91.747154 
L 104.537452 91.558895 
L 105.615888 91.361578 
L 106.694325 91.154768 
L 107.772761 90.938007 
L 108.851197 90.710817 
L 109.007949 90.677551 
L 109.929634 90.472696 
L 111.00807 90.223119 
L 112.086506 89.961533 
L 113.164943 89.687362 
L 114.243379 89.4 
L 114.243379 89.4 
L 115.321815 89.098812 
L 116.400252 88.783132 
L 117.478688 88.452265 
L 118.506684 88.122449 
L 118.557124 88.105478 
L 119.63556 87.742006 
L 120.713997 87.361047 
L 121.792433 86.961758 
L 122.10419 86.844898 
L 122.870869 86.543259 
L 123.949306 86.104624 
L 125.027742 85.644884 
L 125.208527 85.567347 
L 126.106178 85.163026 
L 127.184615 84.657983 
L 127.945865 84.289796 
L 128.263051 84.128642 
L 129.341487 83.573832 
L 130.384715 83.012245 
L 130.419923 82.992329 
L 131.49836 82.382847 
L 132.576796 81.744042 
L 132.592618 81.734694 
L 133.655232 81.074502 
L 134.609601 80.457143 
L 134.733669 80.372748 
L 135.812105 79.63723 
L 136.465426 79.179592 
L 136.890541 78.866324 
L 137.968978 78.058328 
L 138.176429 77.902041 
L 139.047414 77.211456 
L 139.772829 76.62449 
L 140.12585 76.323839 
L 141.204287 75.393516 
L 141.258394 75.346939 
L 142.282723 74.418432 
L 142.6637 74.069388 
L 143.361159 73.396433 
L 143.983569 72.791837 
L 144.439595 72.325263 
L 145.22972 71.514286 
L 145.518032 71.202556 
L 146.411323 70.236735 
L 146.596468 70.025832 
L 147.535622 68.959184 
L 147.674904 68.792492 
L 148.608371 67.681633 
L 148.753341 67.499811 
L 149.634153 66.404082 
L 149.831777 66.144937 
L 150.616616 65.126531 
L 150.910213 64.724874 
L 151.558648 63.84898 
L 151.98865 63.236489 
L 152.462507 62.571429 
L 153.067086 61.676492 
L 153.329926 61.293878 
L 154.145522 60.041439 
L 154.162183 60.016327 
L 154.975657 58.738776 
L 155.223958 58.327718 
L 155.758683 57.461224 
L 156.302395 56.531545 
L 156.510582 56.183673 
L 157.240223 54.906122 
L 157.380831 54.648952 
L 157.953052 53.628571 
L 158.459267 52.675782 
L 158.636507 52.35102 
L 159.304846 51.073469 
L 159.537704 50.607677 
L 159.955396 49.795918 
L 160.579171 48.518367 
L 160.61614 48.440068 
L 161.200024 47.240816 
L 161.694576 46.168169 
L 161.792123 45.963265 
L 162.379717 44.685714 
L 162.773013 43.786962 
L 162.944455 43.408163 
L 163.50179 42.130612 
L 163.851449 41.291188 
L 164.040497 40.853061 
L 164.572018 39.57551 
L 164.929885 38.675334 
L 165.085525 38.297959 
L 165.594964 37.020408 
L 166.008322 35.933623 
L 166.0837 35.742857 
L 166.574232 34.465306 
L 167.041277 33.187755 
L 167.086758 33.06 
L 167.086758 33.187755 
L 167.086758 34.465306 
L 167.086758 35.742857 
L 167.086758 37.020408 
L 167.086758 38.297959 
L 167.086758 39.57551 
L 167.086758 40.853061 
L 167.086758 42.130612 
L 167.086758 43.408163 
L 167.086758 44.685714 
L 167.086758 45.963265 
L 167.086758 47.240816 
L 167.086758 48.518367 
L 167.086758 49.795918 
L 167.086758 51.073469 
L 167.086758 52.35102 
L 167.086758 53.628571 
L 167.086758 54.906122 
L 167.086758 56.183673 
L 167.086758 57.461224 
L 167.086758 58.738776 
L 167.086758 60.016327 
L 167.086758 61.293878 
L 167.086758 62.571429 
L 167.086758 63.84898 
L 167.086758 65.126531 
L 167.086758 66.404082 
L 167.086758 67.681633 
L 167.086758 68.959184 
L 167.086758 70.236735 
L 167.086758 71.514286 
L 167.086758 72.791837 
L 167.086758 74.069388 
L 167.086758 75.346939 
L 167.086758 76.62449 
L 167.086758 77.902041 
L 167.086758 79.179592 
L 167.086758 80.457143 
L 167.086758 81.734694 
L 167.086758 83.012245 
L 167.086758 84.289796 
L 167.086758 85.567347 
L 167.086758 86.844898 
L 167.086758 88.122449 
L 167.086758 89.4 
L 167.086758 90.677551 
L 167.086758 91.955102 
L 167.086758 93.232653 
L 167.086758 94.510204 
L 167.086758 95.787755 
L 167.086758 97.065306 
L 167.086758 98.342857 
L 167.086758 99.620408 
L 167.086758 100.897959 
L 167.086758 102.17551 
L 167.086758 103.453061 
L 167.086758 104.730612 
L 167.086758 106.008163 
L 167.086758 107.285714 
L 167.086758 108.563265 
L 167.086758 109.840816 
L 167.086758 111.118367 
L 167.086758 112.395918 
L 167.086758 113.673469 
L 167.086758 114.95102 
L 167.086758 116.228571 
L 167.086758 117.506122 
L 167.086758 118.783673 
L 167.086758 120.061224 
L 167.086758 121.338776 
L 167.086758 122.616327 
L 167.086758 123.893878 
L 167.086758 125.171429 
L 167.086758 126.44898 
L 167.086758 127.726531 
L 167.086758 129.004082 
L 167.086758 130.281633 
L 167.086758 130.932604 
L 166.008322 130.749246 
L 164.929885 130.542796 
L 163.851449 130.315204 
L 163.71161 130.281633 
L 162.773013 130.068299 
L 161.694576 129.803799 
L 160.61614 129.523319 
L 159.537704 129.228372 
L 158.764063 129.004082 
L 158.459267 128.92038 
L 157.380831 128.600675 
L 156.302395 128.270503 
L 155.223958 127.931035 
L 154.603669 127.726531 
L 154.145522 127.583363 
L 153.067086 127.22851 
L 151.98865 126.867433 
L 150.910213 126.501024 
L 150.765635 126.44898 
L 149.831777 126.130117 
L 148.753341 125.755489 
L 147.674904 125.377864 
L 147.103022 125.171429 
L 146.596468 124.997915 
L 145.518032 124.61627 
L 144.439595 124.233511 
L 143.489878 123.893878 
L 143.361159 123.850178 
L 142.282723 123.466772 
L 141.204287 123.083756 
L 140.12585 122.701559 
L 139.894033 122.616327 
L 139.047414 122.320577 
L 137.968978 121.941174 
L 136.890541 121.563685 
L 136.257399 121.338776 
L 135.812105 121.188418 
L 134.733669 120.815655 
L 133.655232 120.445653 
L 132.576796 120.078648 
L 132.527546 120.061224 
L 131.49836 119.714853 
L 130.419923 119.354461 
L 129.341487 118.997647 
L 128.700733 118.783673 
L 128.263051 118.644569 
L 127.184615 118.295366 
L 126.106178 117.950164 
L 125.027742 117.609074 
L 124.70921 117.506122 
L 123.949306 117.272191 
L 122.870869 116.939601 
L 121.792433 116.611377 
L 120.713997 116.287579 
L 120.52238 116.228571 
L 119.63556 115.96826 
L 118.557124 115.653461 
L 117.478688 115.343214 
L 116.400252 115.037545 
L 116.100648 114.95102 
L 115.321815 114.736471 
L 114.243379 114.44 
L 113.164943 114.148137 
L 112.086506 113.860878 
L 111.382796 113.673469 
L 111.00807 113.578214 
L 109.929634 113.300133 
L 108.851197 113.026615 
L 107.772761 112.757638 
L 106.694325 112.493174 
L 106.302342 112.395918 
L 105.615888 112.233192 
L 104.537452 111.977659 
L 103.459016 111.726537 
L 102.38058 111.479786 
L 101.302143 111.237364 
L 100.775303 111.118367 
L 100.223707 110.999226 
L 99.145271 110.765324 
L 98.066834 110.535611 
L 96.988398 110.310035 
L 95.909962 110.088545 
L 94.831525 109.871089 
L 94.684227 109.840816 
L 93.753089 109.65761 
L 92.674653 109.448055 
L 91.596217 109.242368 
L 90.51778 109.040491 
L 89.439344 108.842368 
L 88.360908 108.647942 
L 87.893575 108.563265 
L 87.282471 108.457153 
L 86.204035 108.269945 
L 85.125599 108.086259 
L 84.047162 107.906036 
L 82.968726 107.729219 
L 81.89029 107.555749 
L 80.811853 107.385569 
L 80.177598 107.285714 
L 79.733417 107.218621 
L 78.654981 107.054847 
L 77.576545 106.894191 
L 76.498108 106.736595 
L 75.419672 106.582005 
L 74.341236 106.430363 
L 73.262799 106.281616 
L 72.184363 106.135708 
L 71.227571 106.008163 
L 71.105927 105.992586 
L 70.02749 105.852196 
L 68.949054 105.714486 
L 67.870618 105.579403 
L 66.792182 105.446897 
L 65.713745 105.316916 
L 64.635309 105.189411 
L 63.556873 105.064332 
L 62.478436 104.941631 
L 61.4 104.82126 
z
" style="fill:#9bd696;"/>
   </g>
   <g id="PathCollection_7">
    <path clip-path="url(#p988dfd629e)" d="M 61.4 94.510204 
L 61.4 93.232653 
L 61.4 91.955102 
L 61.4 90.677551 
L 61.4 89.4 
L 61.4 88.122449 
L 61.4 86.844898 
L 61.4 85.567347 
L 61.4 85.24674 
L 62.478436 85.066131 
L 63.556873 84.880295 
L 64.635309 84.689042 
L 65.713745 84.49218 
L 66.79069 84.289796 
L 66.792182 84.289504 
L 67.870618 84.080806 
L 68.949054 83.865866 
L 70.02749 83.644455 
L 71.105927 83.416339 
L 72.184363 83.181269 
L 72.945801 83.012245 
L 73.262799 82.938989 
L 74.341236 82.689233 
L 75.419672 82.431724 
L 76.498108 82.166171 
L 77.576545 81.892275 
L 78.188889 81.734694 
L 78.654981 81.609723 
L 79.733417 81.318188 
L 80.811853 81.017331 
L 81.89029 80.7068 
L 82.737812 80.457143 
L 82.968726 80.386227 
L 84.047162 80.055229 
L 85.125599 79.713407 
L 86.204035 79.360346 
L 86.749921 79.179592 
L 87.282471 78.995615 
L 88.360908 78.618762 
L 89.439344 78.229318 
L 90.323116 77.902041 
L 90.51778 77.826796 
L 91.596217 77.410685 
L 92.674653 76.980456 
L 93.544902 76.62449 
L 93.753089 76.535556 
L 94.831525 76.07541 
L 95.909962 75.599417 
L 96.474699 75.346939 
L 96.988398 75.106952 
L 98.066834 74.597364 
L 99.145271 74.069973 
L 99.14648 74.069388 
L 100.223707 73.524073 
L 101.302143 72.958924 
L 101.620055 72.791837 
L 102.38058 72.373757 
L 103.459016 71.767772 
L 103.906368 71.514286 
L 104.537452 71.140132 
L 105.615888 70.489965 
L 106.032919 70.236735 
L 106.694325 69.816362 
L 107.772761 69.118376 
L 108.018727 68.959184 
L 108.851197 68.395019 
L 109.879562 67.681633 
L 109.929634 67.645259 
L 111.00807 66.868023 
L 111.641165 66.404082 
L 112.086506 66.062189 
L 113.164943 65.226588 
L 113.294728 65.126531 
L 114.243379 64.36 
L 114.86891 63.84898 
L 115.321815 63.461153 
L 116.353032 62.571429 
L 116.400252 62.52872 
L 117.478688 61.561315 
L 117.776165 61.293878 
L 118.557124 60.557495 
L 119.130211 60.016327 
L 119.63556 59.515752 
L 120.420872 58.738776 
L 120.713997 58.434514 
L 121.655057 57.461224 
L 121.792433 57.312139 
L 122.838405 56.183673 
L 122.870869 56.146916 
L 123.949306 54.937056 
L 123.977153 54.906122 
L 125.027742 53.680695 
L 125.072896 53.628571 
L 126.106178 52.375887 
L 126.126944 52.35102 
L 127.144483 51.073469 
L 127.184615 51.020601 
L 128.128616 49.795918 
L 128.263051 49.612715 
L 129.079822 48.518367 
L 129.341487 48.150017 
L 129.999435 47.240816 
L 130.419923 46.630197 
L 130.888485 45.963265 
L 131.49836 45.050842 
L 131.747721 44.685714 
L 132.576796 43.409436 
L 132.577642 43.408163 
L 133.395176 42.130612 
L 133.655232 41.70335 
L 134.185841 40.853061 
L 134.733669 39.929841 
L 134.949517 39.57551 
L 135.693584 38.297959 
L 135.812105 38.086042 
L 136.425024 37.020408 
L 136.890541 36.168964 
L 137.130423 35.742857 
L 137.818875 34.465306 
L 137.968978 34.175482 
L 138.496535 33.187755 
L 139.047414 32.102335 
L 139.148095 31.910204 
L 139.794348 30.632653 
L 140.12585 29.946119 
L 140.420929 29.355102 
L 141.031889 28.077551 
L 141.204287 27.703276 
L 141.635071 26.8 
L 142.282723 26.8 
L 143.361159 26.8 
L 144.439595 26.8 
L 145.518032 26.8 
L 146.596468 26.8 
L 147.674904 26.8 
L 148.753341 26.8 
L 149.831777 26.8 
L 150.910213 26.8 
L 151.98865 26.8 
L 153.067086 26.8 
L 154.145522 26.8 
L 155.223958 26.8 
L 156.302395 26.8 
L 157.380831 26.8 
L 158.459267 26.8 
L 159.537704 26.8 
L 160.61614 26.8 
L 161.694576 26.8 
L 162.773013 26.8 
L 163.851449 26.8 
L 164.929885 26.8 
L 166.008322 26.8 
L 167.086758 26.8 
L 167.086758 28.077551 
L 167.086758 29.355102 
L 167.086758 30.632653 
L 167.086758 31.910204 
L 167.086758 33.06 
L 167.041277 33.187755 
L 166.574232 34.465306 
L 166.0837 35.742857 
L 166.008322 35.933623 
L 165.594964 37.020408 
L 165.085525 38.297959 
L 164.929885 38.675334 
L 164.572018 39.57551 
L 164.040497 40.853061 
L 163.851449 41.291188 
L 163.50179 42.130612 
L 162.944455 43.408163 
L 162.773013 43.786962 
L 162.379717 44.685714 
L 161.792123 45.963265 
L 161.694576 46.168169 
L 161.200024 47.240816 
L 160.61614 48.440068 
L 160.579171 48.518367 
L 159.955396 49.795918 
L 159.537704 50.607677 
L 159.304846 51.073469 
L 158.636507 52.35102 
L 158.459267 52.675782 
L 157.953052 53.628571 
L 157.380831 54.648952 
L 157.240223 54.906122 
L 156.510582 56.183673 
L 156.302395 56.531545 
L 155.758683 57.461224 
L 155.223958 58.327718 
L 154.975657 58.738776 
L 154.162183 60.016327 
L 154.145522 60.041439 
L 153.329926 61.293878 
L 153.067086 61.676492 
L 152.462507 62.571429 
L 151.98865 63.236489 
L 151.558648 63.84898 
L 150.910213 64.724874 
L 150.616616 65.126531 
L 149.831777 66.144937 
L 149.634153 66.404082 
L 148.753341 67.499811 
L 148.608371 67.681633 
L 147.674904 68.792492 
L 147.535622 68.959184 
L 146.596468 70.025832 
L 146.411323 70.236735 
L 145.518032 71.202556 
L 145.22972 71.514286 
L 144.439595 72.325263 
L 143.983569 72.791837 
L 143.361159 73.396433 
L 142.6637 74.069388 
L 142.282723 74.418432 
L 141.258394 75.346939 
L 141.204287 75.393516 
L 140.12585 76.323839 
L 139.772829 76.62449 
L 139.047414 77.211456 
L 138.176429 77.902041 
L 137.968978 78.058328 
L 136.890541 78.866324 
L 136.465426 79.179592 
L 135.812105 79.63723 
L 134.733669 80.372748 
L 134.609601 80.457143 
L 133.655232 81.074502 
L 132.592618 81.734694 
L 132.576796 81.744042 
L 131.49836 82.382847 
L 130.419923 82.992329 
L 130.384715 83.012245 
L 129.341487 83.573832 
L 128.263051 84.128642 
L 127.945865 84.289796 
L 127.184615 84.657983 
L 126.106178 85.163026 
L 125.208527 85.567347 
L 125.027742 85.644884 
L 123.949306 86.104624 
L 122.870869 86.543259 
L 122.10419 86.844898 
L 121.792433 86.961758 
L 120.713997 87.361047 
L 119.63556 87.742006 
L 118.557124 88.105478 
L 118.506684 88.122449 
L 117.478688 88.452265 
L 116.400252 88.783132 
L 115.321815 89.098812 
L 114.243379 89.4 
L 114.243379 89.4 
L 113.164943 89.687362 
L 112.086506 89.961533 
L 111.00807 90.223119 
L 109.929634 90.472696 
L 109.007949 90.677551 
L 108.851197 90.710817 
L 107.772761 90.938007 
L 106.694325 91.154768 
L 105.615888 91.361578 
L 104.537452 91.558895 
L 103.459016 91.747154 
L 102.38058 91.926772 
L 102.208869 91.955102 
L 101.302143 92.098144 
L 100.223707 92.261649 
L 99.145271 92.417649 
L 98.066834 92.566487 
L 96.988398 92.708494 
L 95.909962 92.843981 
L 94.831525 92.973249 
L 93.753089 93.096583 
L 92.674653 93.214256 
L 92.504226 93.232653 
L 91.596217 93.326526 
L 90.51778 93.433643 
L 89.439344 93.535843 
L 88.360908 93.633352 
L 87.282471 93.726384 
L 86.204035 93.815146 
L 85.125599 93.899833 
L 84.047162 93.980632 
L 82.968726 94.057723 
L 81.89029 94.131275 
L 80.811853 94.20145 
L 79.733417 94.268404 
L 78.654981 94.332285 
L 77.576545 94.393233 
L 76.498108 94.451383 
L 75.419672 94.506864 
L 75.354165 94.510204 
L 74.341236 94.559798 
L 73.262799 94.610303 
L 72.184363 94.658488 
L 71.105927 94.704462 
L 70.02749 94.748326 
L 68.949054 94.790176 
L 67.870618 94.830105 
L 66.792182 94.868201 
L 65.713745 94.904548 
L 64.635309 94.939226 
L 63.556873 94.972313 
L 62.478436 95.003881 
L 61.4 95.034 
z
" style="fill:#81ca81;"/>
   </g>
   <g id="PathCollection_8">
    <path clip-path="url(#p988dfd629e)" d="M 61.4 84.289796 
L 61.4 83.012245 
L 61.4 81.734694 
L 61.4 80.457143 
L 61.4 79.179592 
L 61.4 77.902041 
L 61.4 76.62449 
L 61.4 75.459479 
L 61.776003 75.346939 
L 62.478436 75.128381 
L 63.556873 74.788276 
L 64.635309 74.438858 
L 65.713745 74.079811 
L 65.745398 74.069388 
L 66.792182 73.710808 
L 67.870618 73.331507 
L 68.949054 72.941555 
L 69.36183 72.791837 
L 70.02749 72.540585 
L 71.105927 72.128215 
L 72.184363 71.704049 
L 72.664038 71.514286 
L 73.262799 71.267676 
L 74.341236 70.818668 
L 75.419672 70.356583 
L 75.699793 70.236735 
L 76.498108 69.880959 
L 77.576545 69.391317 
L 78.506252 68.959184 
L 78.654981 68.88716 
L 79.733417 68.367971 
L 80.811853 67.833212 
L 81.117623 67.681633 
L 81.89029 67.282326 
L 82.968726 66.714731 
L 83.552728 66.404082 
L 84.047162 66.129825 
L 85.125599 65.526981 
L 85.830906 65.126531 
L 86.204035 64.905547 
L 87.282471 64.264845 
L 87.971944 63.84898 
L 88.360908 63.604171 
L 89.439344 62.922793 
L 89.990044 62.571429 
L 90.51778 62.219948 
L 91.596217 61.494844 
L 91.895158 61.293878 
L 92.674653 60.746656 
L 93.69706 60.016327 
L 93.753089 59.974529 
L 94.831525 59.17757 
L 95.418444 58.738776 
L 95.909962 58.354852 
L 96.988398 57.50541 
L 97.045051 57.461224 
L 98.066834 56.628241 
L 98.608002 56.183673 
L 99.145271 55.722298 
L 100.091104 54.906122 
L 100.223707 54.786496 
L 101.302143 53.819703 
L 101.516085 53.628571 
L 102.38058 52.820743 
L 102.883346 52.35102 
L 103.459016 51.78839 
L 104.192281 51.073469 
L 104.537452 50.721368 
L 105.448785 49.795918 
L 105.615888 49.618351 
L 106.657752 48.518367 
L 106.694325 48.477956 
L 107.772761 47.298745 
L 107.826283 47.240816 
L 108.851197 46.07922 
L 108.954575 45.963265 
L 109.929634 44.817822 
L 110.043455 44.685714 
L 111.00807 43.512928 
L 111.095424 43.408163 
L 112.086506 42.162845 
L 112.112552 42.130612 
L 113.100477 40.853061 
L 113.164943 40.765814 
L 114.060031 39.57551 
L 114.243379 39.32 
L 114.990789 38.297959 
L 115.321815 37.823494 
L 115.893579 37.020408 
L 116.400252 36.274307 
L 116.769014 35.742857 
L 117.478688 34.670366 
L 117.617507 34.465306 
L 118.446209 33.187755 
L 118.557124 33.009512 
L 119.258189 31.910204 
L 119.63556 31.289499 
L 120.045309 30.632653 
L 120.713997 29.507982 
L 120.80737 29.355102 
L 121.558829 28.077551 
L 121.792433 27.662521 
L 122.291885 26.8 
L 122.870869 26.8 
L 123.949306 26.8 
L 125.027742 26.8 
L 126.106178 26.8 
L 127.184615 26.8 
L 128.263051 26.8 
L 129.341487 26.8 
L 130.419923 26.8 
L 131.49836 26.8 
L 132.576796 26.8 
L 133.655232 26.8 
L 134.733669 26.8 
L 135.812105 26.8 
L 136.890541 26.8 
L 137.968978 26.8 
L 139.047414 26.8 
L 140.12585 26.8 
L 141.204287 26.8 
L 141.635071 26.8 
L 141.204287 27.703276 
L 141.031889 28.077551 
L 140.420929 29.355102 
L 140.12585 29.946119 
L 139.794348 30.632653 
L 139.148095 31.910204 
L 139.047414 32.102335 
L 138.496535 33.187755 
L 137.968978 34.175482 
L 137.818875 34.465306 
L 137.130423 35.742857 
L 136.890541 36.168964 
L 136.425024 37.020408 
L 135.812105 38.086042 
L 135.693584 38.297959 
L 134.949517 39.57551 
L 134.733669 39.929841 
L 134.185841 40.853061 
L 133.655232 41.70335 
L 133.395176 42.130612 
L 132.577642 43.408163 
L 132.576796 43.409436 
L 131.747721 44.685714 
L 131.49836 45.050842 
L 130.888485 45.963265 
L 130.419923 46.630197 
L 129.999435 47.240816 
L 129.341487 48.150017 
L 129.079822 48.518367 
L 128.263051 49.612715 
L 128.128616 49.795918 
L 127.184615 51.020601 
L 127.144483 51.073469 
L 126.126944 52.35102 
L 126.106178 52.375887 
L 125.072896 53.628571 
L 125.027742 53.680695 
L 123.977153 54.906122 
L 123.949306 54.937056 
L 122.870869 56.146916 
L 122.838405 56.183673 
L 121.792433 57.312139 
L 121.655057 57.461224 
L 120.713997 58.434514 
L 120.420872 58.738776 
L 119.63556 59.515752 
L 119.130211 60.016327 
L 118.557124 60.557495 
L 117.776165 61.293878 
L 117.478688 61.561315 
L 116.400252 62.52872 
L 116.353032 62.571429 
L 115.321815 63.461153 
L 114.86891 63.84898 
L 114.243379 64.36 
L 113.294728 65.126531 
L 113.164943 65.226588 
L 112.086506 66.062189 
L 111.641165 66.404082 
L 111.00807 66.868023 
L 109.929634 67.645259 
L 109.879562 67.681633 
L 108.851197 68.395019 
L 108.018727 68.959184 
L 107.772761 69.118376 
L 106.694325 69.816362 
L 106.032919 70.236735 
L 105.615888 70.489965 
L 104.537452 71.140132 
L 103.906368 71.514286 
L 103.459016 71.767772 
L 102.38058 72.373757 
L 101.620055 72.791837 
L 101.302143 72.958924 
L 100.223707 73.524073 
L 99.14648 74.069388 
L 99.145271 74.069973 
L 98.066834 74.597364 
L 96.988398 75.106952 
L 96.474699 75.346939 
L 95.909962 75.599417 
L 94.831525 76.07541 
L 93.753089 76.535556 
L 93.544902 76.62449 
L 92.674653 76.980456 
L 91.596217 77.410685 
L 90.51778 77.826796 
L 90.323116 77.902041 
L 89.439344 78.229318 
L 88.360908 78.618762 
L 87.282471 78.995615 
L 86.749921 79.179592 
L 86.204035 79.360346 
L 85.125599 79.713407 
L 84.047162 80.055229 
L 82.968726 80.386227 
L 82.737812 80.457143 
L 81.89029 80.7068 
L 80.811853 81.017331 
L 79.733417 81.318188 
L 78.654981 81.609723 
L 78.188889 81.734694 
L 77.576545 81.892275 
L 76.498108 82.166171 
L 75.419672 82.431724 
L 74.341236 82.689233 
L 73.262799 82.938989 
L 72.945801 83.012245 
L 72.184363 83.181269 
L 71.105927 83.416339 
L 70.02749 83.644455 
L 68.949054 83.865866 
L 67.870618 84.080806 
L 66.792182 84.289504 
L 66.79069 84.289796 
L 65.713745 84.49218 
L 64.635309 84.689042 
L 63.556873 84.880295 
L 62.478436 85.066131 
L 61.4 85.24674 
z
" style="fill:#65bd6f;"/>
   </g>
   <g id="PathCollection_9">
    <path clip-path="url(#p988dfd629e)" d="M 61.4 75.346939 
L 61.4 74.069388 
L 61.4 72.791837 
L 61.4 71.514286 
L 61.4 70.236735 
L 61.4 68.959184 
L 61.4 67.681633 
L 61.4 66.404082 
L 61.4 65.672219 
L 62.478436 65.190631 
L 62.623078 65.126531 
L 63.556873 64.696257 
L 64.635309 64.188674 
L 65.347672 63.84898 
L 65.713745 63.667443 
L 66.792182 63.132112 
L 67.870618 62.582209 
L 67.892013 62.571429 
L 68.949054 62.017245 
L 70.02749 61.436715 
L 70.293614 61.293878 
L 71.105927 60.840091 
L 72.184363 60.226829 
L 72.554164 60.016327 
L 73.262799 59.596362 
L 74.341236 58.948104 
L 74.689364 58.738776 
L 75.419672 58.281443 
L 76.498108 57.595747 
L 76.710678 57.461224 
L 77.576545 56.89036 
L 78.627745 56.183673 
L 78.654981 56.164598 
L 79.733417 55.417754 
L 80.461099 54.906122 
L 80.811853 54.649093 
L 81.89029 53.857851 
L 82.203016 53.628571 
L 82.968726 53.043235 
L 83.865103 52.35102 
L 84.047162 52.204421 
L 85.125599 51.340555 
L 85.45896 51.073469 
L 86.204035 50.450748 
L 86.983659 49.795918 
L 87.282471 49.534076 
L 88.360908 48.589581 
L 88.443003 48.518367 
L 89.439344 47.616268 
L 89.85387 47.240816 
L 90.51778 46.6131 
L 91.206264 45.963265 
L 91.596217 45.579002 
L 92.506041 44.685714 
L 92.674653 44.512857 
L 93.753089 43.413502 
L 93.758393 43.408163 
L 94.831525 42.279731 
L 94.97439 42.130612 
L 95.909962 41.110288 
L 96.147968 40.853061 
L 96.988398 39.903869 
L 97.282238 39.57551 
L 98.066834 38.659117 
L 98.379822 38.297959 
L 99.145271 37.374623 
L 99.442925 37.020408 
L 100.223707 36.048919 
L 100.473392 35.742857 
L 101.302143 34.680483 
L 101.472757 34.465306 
L 102.38058 33.267729 
L 102.442279 33.187755 
L 103.387273 31.910204 
L 103.459016 31.809007 
L 104.309403 30.632653 
L 104.537452 30.302604 
L 105.205807 29.355102 
L 105.615888 28.746737 
L 106.076919 28.077551 
L 106.694325 27.13955 
L 106.923012 26.8 
L 107.772761 26.8 
L 108.851197 26.8 
L 109.929634 26.8 
L 111.00807 26.8 
L 112.086506 26.8 
L 113.164943 26.8 
L 114.243379 26.8 
L 115.321815 26.8 
L 116.400252 26.8 
L 117.478688 26.8 
L 118.557124 26.8 
L 119.63556 26.8 
L 120.713997 26.8 
L 121.792433 26.8 
L 122.291885 26.8 
L 121.792433 27.662521 
L 121.558829 28.077551 
L 120.80737 29.355102 
L 120.713997 29.507982 
L 120.045309 30.632653 
L 119.63556 31.289499 
L 119.258189 31.910204 
L 118.557124 33.009512 
L 118.446209 33.187755 
L 117.617507 34.465306 
L 117.478688 34.670366 
L 116.769014 35.742857 
L 116.400252 36.274307 
L 115.893579 37.020408 
L 115.321815 37.823494 
L 114.990789 38.297959 
L 114.243379 39.32 
L 114.060031 39.57551 
L 113.164943 40.765814 
L 113.100477 40.853061 
L 112.112552 42.130612 
L 112.086506 42.162845 
L 111.095424 43.408163 
L 111.00807 43.512928 
L 110.043455 44.685714 
L 109.929634 44.817822 
L 108.954575 45.963265 
L 108.851197 46.07922 
L 107.826283 47.240816 
L 107.772761 47.298745 
L 106.694325 48.477956 
L 106.657752 48.518367 
L 105.615888 49.618351 
L 105.448785 49.795918 
L 104.537452 50.721368 
L 104.192281 51.073469 
L 103.459016 51.78839 
L 102.883346 52.35102 
L 102.38058 52.820743 
L 101.516085 53.628571 
L 101.302143 53.819703 
L 100.223707 54.786496 
L 100.091104 54.906122 
L 99.145271 55.722298 
L 98.608002 56.183673 
L 98.066834 56.628241 
L 97.045051 57.461224 
L 96.988398 57.50541 
L 95.909962 58.354852 
L 95.418444 58.738776 
L 94.831525 59.17757 
L 93.753089 59.974529 
L 93.69706 60.016327 
L 92.674653 60.746656 
L 91.895158 61.293878 
L 91.596217 61.494844 
L 90.51778 62.219948 
L 89.990044 62.571429 
L 89.439344 62.922793 
L 88.360908 63.604171 
L 87.971944 63.84898 
L 87.282471 64.264845 
L 86.204035 64.905547 
L 85.830906 65.126531 
L 85.125599 65.526981 
L 84.047162 66.129825 
L 83.552728 66.404082 
L 82.968726 66.714731 
L 81.89029 67.282326 
L 81.117623 67.681633 
L 80.811853 67.833212 
L 79.733417 68.367971 
L 78.654981 68.88716 
L 78.506252 68.959184 
L 77.576545 69.391317 
L 76.498108 69.880959 
L 75.699793 70.236735 
L 75.419672 70.356583 
L 74.341236 70.818668 
L 73.262799 71.267676 
L 72.664038 71.514286 
L 72.184363 71.704049 
L 71.105927 72.128215 
L 70.02749 72.540585 
L 69.36183 72.791837 
L 68.949054 72.941555 
L 67.870618 73.331507 
L 66.792182 73.710808 
L 65.745398 74.069388 
L 65.713745 74.079811 
L 64.635309 74.438858 
L 63.556873 74.788276 
L 62.478436 75.128381 
L 61.776003 75.346939 
L 61.4 75.459479 
z
" style="fill:#48ae60;"/>
   </g>
   <g id="PathCollection_10">
    <path clip-path="url(#p988dfd629e)" d="M 61.4 65.126531 
L 61.4 63.84898 
L 61.4 62.571429 
L 61.4 61.293878 
L 61.4 60.016327 
L 61.4 58.738776 
L 61.4 57.461224 
L 61.4 56.183673 
L 61.4 55.884958 
L 62.478436 55.252882 
L 63.065379 54.906122 
L 63.556873 54.604238 
L 64.635309 53.938489 
L 65.134859 53.628571 
L 65.713745 53.255075 
L 66.792182 52.553416 
L 67.103808 52.35102 
L 67.870618 51.83291 
L 68.949054 51.092935 
L 68.977766 51.073469 
L 70.02749 50.332844 
L 70.778193 49.795918 
L 71.105927 49.551967 
L 72.184363 48.749609 
L 72.495651 48.518367 
L 73.262799 47.925049 
L 74.140156 47.240816 
L 74.341236 47.077539 
L 75.419672 46.206302 
L 75.721046 45.963265 
L 76.498108 45.310535 
L 77.239177 44.685714 
L 77.576545 44.389402 
L 78.654981 43.442036 
L 78.69399 43.408163 
L 79.733417 42.467538 
L 80.105875 42.130612 
L 80.811853 41.464974 
L 81.462318 40.853061 
L 81.89029 40.433376 
L 82.768611 39.57551 
L 82.968726 39.371739 
L 84.029221 38.297959 
L 84.047162 38.279018 
L 85.125599 37.154129 
L 85.254848 37.020408 
L 86.204035 35.995948 
L 86.440639 35.742857 
L 87.282471 34.803307 
L 87.588484 34.465306 
L 88.360908 33.574991 
L 88.700849 33.187755 
L 89.439344 32.309743 
L 89.779829 31.910204 
L 90.51778 31.006252 
L 90.827192 30.632653 
L 91.596217 29.663161 
L 91.844425 29.355102 
L 92.674653 28.279057 
L 92.832765 28.077551 
L 93.753089 26.852475 
L 93.793227 26.8 
L 94.831525 26.8 
L 95.909962 26.8 
L 96.988398 26.8 
L 98.066834 26.8 
L 99.145271 26.8 
L 100.223707 26.8 
L 101.302143 26.8 
L 102.38058 26.8 
L 103.459016 26.8 
L 104.537452 26.8 
L 105.615888 26.8 
L 106.694325 26.8 
L 106.923012 26.8 
L 106.694325 27.13955 
L 106.076919 28.077551 
L 105.615888 28.746737 
L 105.205807 29.355102 
L 104.537452 30.302604 
L 104.309403 30.632653 
L 103.459016 31.809007 
L 103.387273 31.910204 
L 102.442279 33.187755 
L 102.38058 33.267729 
L 101.472757 34.465306 
L 101.302143 34.680483 
L 100.473392 35.742857 
L 100.223707 36.048919 
L 99.442925 37.020408 
L 99.145271 37.374623 
L 98.379822 38.297959 
L 98.066834 38.659117 
L 97.282238 39.57551 
L 96.988398 39.903869 
L 96.147968 40.853061 
L 95.909962 41.110288 
L 94.97439 42.130612 
L 94.831525 42.279731 
L 93.758393 43.408163 
L 93.753089 43.413502 
L 92.674653 44.512857 
L 92.506041 44.685714 
L 91.596217 45.579002 
L 91.206264 45.963265 
L 90.51778 46.6131 
L 89.85387 47.240816 
L 89.439344 47.616268 
L 88.443003 48.518367 
L 88.360908 48.589581 
L 87.282471 49.534076 
L 86.983659 49.795918 
L 86.204035 50.450748 
L 85.45896 51.073469 
L 85.125599 51.340555 
L 84.047162 52.204421 
L 83.865103 52.35102 
L 82.968726 53.043235 
L 82.203016 53.628571 
L 81.89029 53.857851 
L 80.811853 54.649093 
L 80.461099 54.906122 
L 79.733417 55.417754 
L 78.654981 56.164598 
L 78.627745 56.183673 
L 77.576545 56.89036 
L 76.710678 57.461224 
L 76.498108 57.595747 
L 75.419672 58.281443 
L 74.689364 58.738776 
L 74.341236 58.948104 
L 73.262799 59.596362 
L 72.554164 60.016327 
L 72.184363 60.226829 
L 71.105927 60.840091 
L 70.293614 61.293878 
L 70.02749 61.436715 
L 68.949054 62.017245 
L 67.892013 62.571429 
L 67.870618 62.582209 
L 66.792182 63.132112 
L 65.713745 63.667443 
L 65.347672 63.84898 
L 64.635309 64.188674 
L 63.556873 64.696257 
L 62.623078 65.126531 
L 62.478436 65.190631 
L 61.4 65.672219 
z
" style="fill:#349d53;"/>
   </g>
   <g id="PathCollection_11">
    <path clip-path="url(#p988dfd629e)" d="M 61.4 54.906122 
L 61.4 53.628571 
L 61.4 52.35102 
L 61.4 51.073469 
L 61.4 49.795918 
L 61.4 48.518367 
L 61.4 47.240816 
L 61.4 46.097698 
L 61.59129 45.963265 
L 62.478436 45.315132 
L 63.33086 44.685714 
L 63.556873 44.51222 
L 64.635309 43.688305 
L 65.002021 43.408163 
L 65.713745 42.842707 
L 66.604655 42.130612 
L 66.792182 41.974719 
L 67.870618 41.083611 
L 68.150499 40.853061 
L 68.949054 40.168625 
L 69.639703 39.57551 
L 70.02749 39.228974 
L 71.069245 38.297959 
L 71.105927 38.263843 
L 72.184363 37.272389 
L 72.459308 37.020408 
L 73.262799 36.253736 
L 73.800033 35.742857 
L 74.341236 35.206974 
L 75.094003 34.465306 
L 75.419672 34.131162 
L 76.34512 33.187755 
L 76.498108 33.025323 
L 77.556714 31.910204 
L 77.576545 31.888444 
L 78.654981 30.719474 
L 78.735905 30.632653 
L 79.733417 29.517321 
L 79.880079 29.355102 
L 80.811853 28.280855 
L 80.99034 28.077551 
L 81.89029 27.008902 
L 82.068573 26.8 
L 82.968726 26.8 
L 84.047162 26.8 
L 85.125599 26.8 
L 86.204035 26.8 
L 87.282471 26.8 
L 88.360908 26.8 
L 89.439344 26.8 
L 90.51778 26.8 
L 91.596217 26.8 
L 92.674653 26.8 
L 93.753089 26.8 
L 93.793227 26.8 
L 93.753089 26.852475 
L 92.832765 28.077551 
L 92.674653 28.279057 
L 91.844425 29.355102 
L 91.596217 29.663161 
L 90.827192 30.632653 
L 90.51778 31.006252 
L 89.779829 31.910204 
L 89.439344 32.309743 
L 88.700849 33.187755 
L 88.360908 33.574991 
L 87.588484 34.465306 
L 87.282471 34.803307 
L 86.440639 35.742857 
L 86.204035 35.995948 
L 85.254848 37.020408 
L 85.125599 37.154129 
L 84.047162 38.279018 
L 84.029221 38.297959 
L 82.968726 39.371739 
L 82.768611 39.57551 
L 81.89029 40.433376 
L 81.462318 40.853061 
L 80.811853 41.464974 
L 80.105875 42.130612 
L 79.733417 42.467538 
L 78.69399 43.408163 
L 78.654981 43.442036 
L 77.576545 44.389402 
L 77.239177 44.685714 
L 76.498108 45.310535 
L 75.721046 45.963265 
L 75.419672 46.206302 
L 74.341236 47.077539 
L 74.140156 47.240816 
L 73.262799 47.925049 
L 72.495651 48.518367 
L 72.184363 48.749609 
L 71.105927 49.551967 
L 70.778193 49.795918 
L 70.02749 50.332844 
L 68.977766 51.073469 
L 68.949054 51.092935 
L 67.870618 51.83291 
L 67.103808 52.35102 
L 66.792182 52.553416 
L 65.713745 53.255075 
L 65.134859 53.628571 
L 64.635309 53.938489 
L 63.556873 54.604238 
L 63.065379 54.906122 
L 62.478436 55.252882 
L 61.4 55.884958 
z
" style="fill:#228a44;"/>
   </g>
   <g id="PathCollection_12">
    <path clip-path="url(#p988dfd629e)" d="M 61.4 45.963265 
L 61.4 44.685714 
L 61.4 43.408163 
L 61.4 42.130612 
L 61.4 40.853061 
L 61.4 39.57551 
L 61.4 38.297959 
L 61.4 37.020408 
L 61.4 36.310437 
L 62.065926 35.742857 
L 62.478436 35.377382 
L 63.507901 34.465306 
L 63.556873 34.420201 
L 64.635309 33.438121 
L 64.911206 33.187755 
L 65.713745 32.430339 
L 66.266671 31.910204 
L 66.792182 31.396023 
L 67.576099 30.632653 
L 67.870618 30.334313 
L 68.843278 29.355102 
L 68.949054 29.244315 
L 70.02749 28.125103 
L 70.073852 28.077551 
L 71.105927 26.97572 
L 71.272014 26.8 
L 72.184363 26.8 
L 73.262799 26.8 
L 74.341236 26.8 
L 75.419672 26.8 
L 76.498108 26.8 
L 77.576545 26.8 
L 78.654981 26.8 
L 79.733417 26.8 
L 80.811853 26.8 
L 81.89029 26.8 
L 82.068573 26.8 
L 81.89029 27.008902 
L 80.99034 28.077551 
L 80.811853 28.280855 
L 79.880079 29.355102 
L 79.733417 29.517321 
L 78.735905 30.632653 
L 78.654981 30.719474 
L 77.576545 31.888444 
L 77.556714 31.910204 
L 76.498108 33.025323 
L 76.34512 33.187755 
L 75.419672 34.131162 
L 75.094003 34.465306 
L 74.341236 35.206974 
L 73.800033 35.742857 
L 73.262799 36.253736 
L 72.459308 37.020408 
L 72.184363 37.272389 
L 71.105927 38.263843 
L 71.069245 38.297959 
L 70.02749 39.228974 
L 69.639703 39.57551 
L 68.949054 40.168625 
L 68.150499 40.853061 
L 67.870618 41.083611 
L 66.792182 41.974719 
L 66.604655 42.130612 
L 65.713745 42.842707 
L 65.002021 43.408163 
L 64.635309 43.688305 
L 63.556873 44.51222 
L 63.33086 44.685714 
L 62.478436 45.315132 
L 61.59129 45.963265 
L 61.4 46.097698 
z
" style="fill:#0e7936;"/>
   </g>
   <g id="PathCollection_13">
    <path clip-path="url(#p988dfd629e)" d="M 61.4 35.742857 
L 61.4 34.465306 
L 61.4 33.187755 
L 61.4 31.910204 
L 61.4 30.632653 
L 61.4 29.355102 
L 61.4 28.077551 
L 61.4 26.8 
L 62.478436 26.8 
L 63.556873 26.8 
L 64.635309 26.8 
L 65.713745 26.8 
L 66.792182 26.8 
L 67.870618 26.8 
L 68.949054 26.8 
L 70.02749 26.8 
L 71.105927 26.8 
L 71.272014 26.8 
L 71.105927 26.97572 
L 70.073852 28.077551 
L 70.02749 28.125103 
L 68.949054 29.244315 
L 68.843278 29.355102 
L 67.870618 30.334313 
L 67.576099 30.632653 
L 66.792182 31.396023 
L 66.266671 31.910204 
L 65.713745 32.430339 
L 64.911206 33.187755 
L 64.635309 33.438121 
L 63.556873 34.420201 
L 63.507901 34.465306 
L 62.478436 35.377382 
L 62.065926 35.742857 
L 61.4 36.310437 
z
" style="fill:#006729;"/>
   </g>
   <g id="PathCollection_14"/>
   <g id="matplotlib.axis_1">
    <g id="xtick_1">
     <g id="line2d_1">
      <defs>
       <path d="M 0 0 
L 0 3.5 
" id="maf19c43fc1" style="stroke:#000000;stroke-width:0.8;"/>
      </defs>
      <g>
       <use style="stroke:#000000;stroke-width:0.8;" x="61.4" xlink:href="#maf19c43fc1" y="152"/>
      </g>
     </g>
     <g id="text_1">
      <!-- $\mathdefault{10^{-1}}$ -->
      <defs>
       <path d="M 12.40625 8.296875 
L 28.515625 8.296875 
L 28.515625 63.921875 
L 10.984375 60.40625 
L 10.984375 69.390625 
L 28.421875 72.90625 
L 38.28125 72.90625 
L 38.28125 8.296875 
L 54.390625 8.296875 
L 54.390625 0 
L 12.40625 0 
z
" id="DejaVuSans-31"/>
       <path d="M 31.78125 66.40625 
Q 24.171875 66.40625 20.328125 58.90625 
Q 16.5 51.421875 16.5 36.375 
Q 16.5 21.390625 20.328125 13.890625 
Q 24.171875 6.390625 31.78125 6.390625 
Q 39.453125 6.390625 43.28125 13.890625 
Q 47.125 21.390625 47.125 36.375 
Q 47.125 51.421875 43.28125 58.90625 
Q 39.453125 66.40625 31.78125 66.40625 
z
M 31.78125 74.21875 
Q 44.046875 74.21875 50.515625 64.515625 
Q 56.984375 54.828125 56.984375 36.375 
Q 56.984375 17.96875 50.515625 8.265625 
Q 44.046875 -1.421875 31.78125 -1.421875 
Q 19.53125 -1.421875 13.0625 8.265625 
Q 6.59375 17.96875 6.59375 36.375 
Q 6.59375 54.828125 13.0625 64.515625 
Q 19.53125 74.21875 31.78125 74.21875 
z
" id="DejaVuSans-30"/>
       <path d="M 10.59375 35.5 
L 73.1875 35.5 
L 73.1875 27.203125 
L 10.59375 27.203125 
z
" id="DejaVuSans-2212"/>
      </defs>
      <g transform="translate(49.65 166.598437)scale(0.1 -0.1)">
       <use transform="translate(0 0.684375)" xlink:href="#DejaVuSans-31"/>
       <use transform="translate(63.623047 0.684375)" xlink:href="#DejaVuSans-30"/>
       <use transform="translate(128.203125 38.965625)scale(0.7)" xlink:href="#DejaVuSans-2212"/>
       <use transform="translate(186.855469 38.965625)scale(0.7)" xlink:href="#DejaVuSans-31"/>
      </g>
     </g>
    </g>
    <g id="xtick_2">
     <g id="line2d_2">
      <g>
       <use style="stroke:#000000;stroke-width:0.8;" x="114.243379" xlink:href="#maf19c43fc1" y="152"/>
      </g>
     </g>
     <g id="text_2">
      <!-- $\mathdefault{10^{0}}$ -->
      <g transform="translate(105.443379 166.598437)scale(0.1 -0.1)">
       <use transform="translate(0 0.765625)" xlink:href="#DejaVuSans-31"/>
       <use transform="translate(63.623047 0.765625)" xlink:href="#DejaVuSans-30"/>
       <use transform="translate(128.203125 39.046875)scale(0.7)" xlink:href="#DejaVuSans-30"/>
      </g>
     </g>
    </g>
    <g id="xtick_3">
     <g id="line2d_3">
      <g>
       <use style="stroke:#000000;stroke-width:0.8;" x="167.086758" xlink:href="#maf19c43fc1" y="152"/>
      </g>
     </g>
     <g id="text_3">
      <!-- $\mathdefault{10^{1}}$ -->
      <g transform="translate(158.286758 166.598437)scale(0.1 -0.1)">
       <use transform="translate(0 0.684375)" xlink:href="#DejaVuSans-31"/>
       <use transform="translate(63.623047 0.684375)" xlink:href="#DejaVuSans-30"/>
       <use transform="translate(128.203125 38.965625)scale(0.7)" xlink:href="#DejaVuSans-31"/>
      </g>
     </g>
    </g>
    <g id="xtick_4">
     <g id="line2d_4">
      <defs>
       <path d="M 0 0 
L 0 2 
" id="m97cdeb5285" style="stroke:#000000;stroke-width:0.6;"/>
      </defs>
      <g>
       <use style="stroke:#000000;stroke-width:0.6;" x="77.307442" xlink:href="#m97cdeb5285" y="152"/>
      </g>
     </g>
    </g>
    <g id="xtick_5">
     <g id="line2d_5">
      <g>
       <use style="stroke:#000000;stroke-width:0.6;" x="86.612699" xlink:href="#m97cdeb5285" y="152"/>
      </g>
     </g>
    </g>
    <g id="xtick_6">
     <g id="line2d_6">
      <g>
       <use style="stroke:#000000;stroke-width:0.6;" x="93.214884" xlink:href="#m97cdeb5285" y="152"/>
      </g>
     </g>
    </g>
    <g id="xtick_7">
     <g id="line2d_7">
      <g>
       <use style="stroke:#000000;stroke-width:0.6;" x="98.335937" xlink:href="#m97cdeb5285" y="152"/>
      </g>
     </g>
    </g>
    <g id="xtick_8">
     <g id="line2d_8">
      <g>
       <use style="stroke:#000000;stroke-width:0.6;" x="102.520141" xlink:href="#m97cdeb5285" y="152"/>
      </g>
     </g>
    </g>
    <g id="xtick_9">
     <g id="line2d_9">
      <g>
       <use style="stroke:#000000;stroke-width:0.6;" x="106.057836" xlink:href="#m97cdeb5285" y="152"/>
      </g>
     </g>
    </g>
    <g id="xtick_10">
     <g id="line2d_10">
      <g>
       <use style="stroke:#000000;stroke-width:0.6;" x="109.122326" xlink:href="#m97cdeb5285" y="152"/>
      </g>
     </g>
    </g>
    <g id="xtick_11">
     <g id="line2d_11">
      <g>
       <use style="stroke:#000000;stroke-width:0.6;" x="111.825398" xlink:href="#m97cdeb5285" y="152"/>
      </g>
     </g>
    </g>
    <g id="xtick_12">
     <g id="line2d_12">
      <g>
       <use style="stroke:#000000;stroke-width:0.6;" x="130.150821" xlink:href="#m97cdeb5285" y="152"/>
      </g>
     </g>
    </g>
    <g id="xtick_13">
     <g id="line2d_13">
      <g>
       <use style="stroke:#000000;stroke-width:0.6;" x="139.456078" xlink:href="#m97cdeb5285" y="152"/>
      </g>
     </g>
    </g>
    <g id="xtick_14">
     <g id="line2d_14">
      <g>
       <use style="stroke:#000000;stroke-width:0.6;" x="146.058263" xlink:href="#m97cdeb5285" y="152"/>
      </g>
     </g>
    </g>
    <g id="xtick_15">
     <g id="line2d_15">
      <g>
       <use style="stroke:#000000;stroke-width:0.6;" x="151.179316" xlink:href="#m97cdeb5285" y="152"/>
      </g>
     </g>
    </g>
    <g id="xtick_16">
     <g id="line2d_16">
      <g>
       <use style="stroke:#000000;stroke-width:0.6;" x="155.36352" xlink:href="#m97cdeb5285" y="152"/>
      </g>
     </g>
    </g>
    <g id="xtick_17">
     <g id="line2d_17">
      <g>
       <use style="stroke:#000000;stroke-width:0.6;" x="158.901215" xlink:href="#m97cdeb5285" y="152"/>
      </g>
     </g>
    </g>
    <g id="xtick_18">
     <g id="line2d_18">
      <g>
       <use style="stroke:#000000;stroke-width:0.6;" x="161.965705" xlink:href="#m97cdeb5285" y="152"/>
      </g>
     </g>
    </g>
    <g id="xtick_19">
     <g id="line2d_19">
      <g>
       <use style="stroke:#000000;stroke-width:0.6;" x="164.668777" xlink:href="#m97cdeb5285" y="152"/>
      </g>
     </g>
    </g>
    <g id="text_4">
     <!-- $c$ -->
     <defs>
      <path d="M 53.609375 52.59375 
L 51.8125 43.703125 
Q 48.578125 46.046875 44.9375 47.21875 
Q 41.3125 48.390625 37.40625 48.390625 
Q 33.109375 48.390625 29.21875 46.875 
Q 25.34375 45.359375 22.703125 42.578125 
Q 18.5 38.328125 16.203125 32.609375 
Q 13.921875 26.90625 13.921875 20.796875 
Q 13.921875 13.421875 17.609375 9.8125 
Q 21.296875 6.203125 28.8125 6.203125 
Q 32.515625 6.203125 36.6875 7.328125 
Q 40.875 8.453125 45.40625 10.6875 
L 43.703125 1.8125 
Q 39.796875 0.203125 35.671875 -0.609375 
Q 31.546875 -1.421875 27.203125 -1.421875 
Q 16.3125 -1.421875 10.453125 4.015625 
Q 4.59375 9.46875 4.59375 19.578125 
Q 4.59375 28.078125 7.640625 35.234375 
Q 10.6875 42.390625 16.703125 48.09375 
Q 20.796875 52 26.3125 54 
Q 31.84375 56 38.375 56 
Q 42.1875 56 45.9375 55.140625 
Q 49.703125 54.296875 53.609375 52.59375 
z
" id="DejaVuSans-Oblique-63"/>
     </defs>
     <g transform="translate(110.393379 183.315937)scale(0.14 -0.14)">
      <use xlink:href="#DejaVuSans-Oblique-63"/>
     </g>
    </g>
   </g>
   <g id="matplotlib.axis_2">
    <g id="ytick_1">
     <g id="line2d_20">
      <defs>
       <path d="M 0 0 
L -3.5 0 
" id="mbb1eba9379" style="stroke:#000000;stroke-width:0.8;"/>
      </defs>
      <g>
       <use style="stroke:#000000;stroke-width:0.8;" x="61.4" xlink:href="#mbb1eba9379" y="152"/>
      </g>
     </g>
     <g id="text_5">
      <!-- 10 -->
      <g transform="translate(33.295313 155.799219)scale(0.1 -0.1)">
       <use xlink:href="#DejaVuSans-2212"/>
       <use x="83.789062" xlink:href="#DejaVuSans-31"/>
       <use x="147.412109" xlink:href="#DejaVuSans-30"/>
      </g>
     </g>
    </g>
    <g id="ytick_2">
     <g id="line2d_21">
      <g>
       <use style="stroke:#000000;stroke-width:0.8;" x="61.4" xlink:href="#mbb1eba9379" y="120.7"/>
      </g>
     </g>
     <g id="text_6">
      <!-- 5 -->
      <defs>
       <path d="M 10.796875 72.90625 
L 49.515625 72.90625 
L 49.515625 64.59375 
L 19.828125 64.59375 
L 19.828125 46.734375 
Q 21.96875 47.46875 24.109375 47.828125 
Q 26.265625 48.1875 28.421875 48.1875 
Q 40.625 48.1875 47.75 41.5 
Q 54.890625 34.8125 54.890625 23.390625 
Q 54.890625 11.625 47.5625 5.09375 
Q 40.234375 -1.421875 26.90625 -1.421875 
Q 22.3125 -1.421875 17.546875 -0.640625 
Q 12.796875 0.140625 7.71875 1.703125 
L 7.71875 11.625 
Q 12.109375 9.234375 16.796875 8.0625 
Q 21.484375 6.890625 26.703125 6.890625 
Q 35.15625 6.890625 40.078125 11.328125 
Q 45.015625 15.765625 45.015625 23.390625 
Q 45.015625 31 40.078125 35.4375 
Q 35.15625 39.890625 26.703125 39.890625 
Q 22.75 39.890625 18.8125 39.015625 
Q 14.890625 38.140625 10.796875 36.28125 
z
" id="DejaVuSans-35"/>
      </defs>
      <g transform="translate(39.657813 124.499219)scale(0.1 -0.1)">
       <use xlink:href="#DejaVuSans-2212"/>
       <use x="83.789062" xlink:href="#DejaVuSans-35"/>
      </g>
     </g>
    </g>
    <g id="ytick_3">
     <g id="line2d_22">
      <g>
       <use style="stroke:#000000;stroke-width:0.8;" x="61.4" xlink:href="#mbb1eba9379" y="89.4"/>
      </g>
     </g>
     <g id="text_7">
      <!-- 0 -->
      <g transform="translate(48.0375 93.199219)scale(0.1 -0.1)">
       <use xlink:href="#DejaVuSans-30"/>
      </g>
     </g>
    </g>
    <g id="ytick_4">
     <g id="line2d_23">
      <g>
       <use style="stroke:#000000;stroke-width:0.8;" x="61.4" xlink:href="#mbb1eba9379" y="58.1"/>
      </g>
     </g>
     <g id="text_8">
      <!-- 5 -->
      <g transform="translate(48.0375 61.899219)scale(0.1 -0.1)">
       <use xlink:href="#DejaVuSans-35"/>
      </g>
     </g>
    </g>
    <g id="ytick_5">
     <g id="line2d_24">
      <g>
       <use style="stroke:#000000;stroke-width:0.8;" x="61.4" xlink:href="#mbb1eba9379" y="26.8"/>
      </g>
     </g>
     <g id="text_9">
      <!-- 10 -->
      <g transform="translate(41.675 30.599219)scale(0.1 -0.1)">
       <use xlink:href="#DejaVuSans-31"/>
       <use x="63.623047" xlink:href="#DejaVuSans-30"/>
      </g>
     </g>
    </g>
    <g id="text_10">
     <!-- $s N^*$ -->
     <defs>
      <path d="M 50 53.078125 
L 48.296875 44.578125 
Q 44.734375 46.53125 40.765625 47.5 
Q 36.8125 48.484375 32.625 48.484375 
Q 25.53125 48.484375 21.453125 46.0625 
Q 17.390625 43.65625 17.390625 39.5 
Q 17.390625 34.671875 26.859375 32.078125 
Q 27.59375 31.890625 27.9375 31.78125 
L 30.8125 30.90625 
Q 39.796875 28.421875 42.796875 25.6875 
Q 45.796875 22.953125 45.796875 18.21875 
Q 45.796875 9.515625 38.890625 4.046875 
Q 31.984375 -1.421875 20.796875 -1.421875 
Q 16.453125 -1.421875 11.671875 -0.578125 
Q 6.890625 0.25 1.125 2 
L 2.875 11.28125 
Q 7.8125 8.734375 12.59375 7.421875 
Q 17.390625 6.109375 21.78125 6.109375 
Q 28.375 6.109375 32.5 8.9375 
Q 36.625 11.765625 36.625 16.109375 
Q 36.625 20.796875 25.78125 23.6875 
L 24.859375 23.921875 
L 21.78125 24.703125 
Q 14.9375 26.515625 11.765625 29.46875 
Q 8.59375 32.421875 8.59375 37.015625 
Q 8.59375 45.75 15.15625 50.875 
Q 21.734375 56 33.015625 56 
Q 37.453125 56 41.671875 55.265625 
Q 45.90625 54.546875 50 53.078125 
z
" id="DejaVuSans-Oblique-73"/>
      <path d="M 16.890625 72.90625 
L 30.171875 72.90625 
L 50.296875 10.40625 
L 62.5 72.90625 
L 72.125 72.90625 
L 57.90625 0 
L 44.578125 0 
L 24.515625 62.890625 
L 12.3125 0 
L 2.6875 0 
z
" id="DejaVuSans-Oblique-4e"/>
      <path d="M 47.015625 60.890625 
L 29.5 51.421875 
L 47.015625 41.890625 
L 44.1875 37.109375 
L 27.78125 47.015625 
L 27.78125 28.609375 
L 22.21875 28.609375 
L 22.21875 47.015625 
L 5.8125 37.109375 
L 2.984375 41.890625 
L 20.515625 51.421875 
L 2.984375 60.890625 
L 5.8125 65.71875 
L 22.21875 55.8125 
L 22.21875 74.21875 
L 27.78125 74.21875 
L 27.78125 55.8125 
L 44.1875 65.71875 
z
" id="DejaVuSans-2a"/>
     </defs>
     <g transform="translate(26.38375 103.33)rotate(-90)scale(0.14 -0.14)">
      <use transform="translate(0 0.765625)" xlink:href="#DejaVuSans-Oblique-73"/>
      <use transform="translate(52.099609 0.765625)" xlink:href="#DejaVuSans-Oblique-4e"/>
      <use transform="translate(147.558763 39.046875)scale(0.7)" xlink:href="#DejaVuSans-2a"/>
     </g>
    </g>
   </g>
   <g id="LineCollection_1">
    <path clip-path="url(#p988dfd629e)" d="M 127.246504 152 
L 127.184615 151.932749 
L 126.106178 150.737303 
L 126.093065 150.722449 
L 125.027742 149.573263 
L 124.910785 149.444898 
L 123.949306 148.439759 
L 123.69276 148.167347 
L 122.870869 147.335944 
L 122.435879 146.889796 
L 121.792433 146.260996 
L 121.13645 145.612245 
L 120.713997 145.214112 
L 119.790085 144.334694 
L 119.63556 144.194514 
L 118.557124 143.201444 
L 118.402644 143.057143 
L 117.478688 142.234164 
L 116.971154 141.779592 
L 116.400252 141.291958 
L 115.478337 140.502041 
L 115.321815 140.374129 
L 114.243379 139.48 
L 113.937422 139.22449 
L 113.164943 138.608911 
L 112.332537 137.946939 
L 112.086506 137.760222 
L 111.00807 136.93331 
L 110.665738 136.669388 
L 109.929634 136.12757 
L 108.922083 135.391837 
L 108.851197 135.342413 
L 107.772761 134.577269 
L 107.114876 134.114286 
L 106.694325 133.831579 
L 105.615888 133.104806 
L 105.219233 132.836735 
L 104.537452 132.396422 
L 103.459016 131.705919 
L 103.232094 131.559184 
L 102.38058 131.032801 
L 101.302143 130.376584 
L 101.148079 130.281633 
L 100.223707 129.736802 
L 99.145271 129.113 
L 98.959083 129.004082 
L 98.066834 128.504734 
L 96.988398 127.911577 
L 96.653646 127.726531 
L 95.909962 127.33311 
L 94.831525 126.768928 
L 94.215998 126.44898 
L 93.753089 126.218637 
L 92.674653 125.681855 
L 91.624617 125.171429 
L 91.596217 125.158209 
L 90.51778 124.647339 
L 90.309984 124.549467 
" style="fill:none;stroke:#000000;stroke-dasharray:11.1,4.8;stroke-dashoffset:0;stroke-width:3;"/>
    <path clip-path="url(#p988dfd629e)" d="M 75.189033 118.57955 
L 74.341236 118.300928 
L 73.262799 117.952929 
L 72.184363 117.612928 
L 71.847013 117.506122 
L 71.105927 117.28071 
L 70.02749 116.956067 
L 68.949054 116.638796 
L 67.870618 116.328702 
L 67.523712 116.228571 
L 66.792182 116.025593 
L 65.713745 115.729284 
L 64.635309 115.439595 
L 63.556873 115.156351 
L 62.765507 114.95102 
L 62.478436 114.879381 
L 61.4 114.608521 
" style="fill:none;stroke:#000000;stroke-dasharray:11.1,4.8;stroke-dashoffset:0;stroke-width:3;"/>
   </g>
   <g id="LineCollection_2">
    <path clip-path="url(#p988dfd629e)" d="M 167.086758 33.06 
L 165.594964 37.020408 
L 162.944455 43.408163 
L 159.955396 49.795918 
L 157.240223 54.906122 
L 154.975657 58.738776 
L 151.98865 63.236489 
L 149.634153 66.404082 
L 146.411323 70.236735 
L 143.361159 73.396433 
L 141.204287 75.393516 
L 137.968978 78.058328 
L 134.609601 80.457143 
L 131.49836 82.382847 
L 127.945865 84.289796 
L 123.949306 86.104624 
L 119.63556 87.742006 
L 115.321815 89.098812 
L 111.00807 90.223119 
L 105.615888 91.361578 
L 100.223707 92.261649 
L 93.753089 93.096583 
L 86.204035 93.815146 
L 79.117438 94.305259 
L 79.117438 94.305259 
" style="fill:none;stroke:#000000;stroke-width:3;"/>
    <path clip-path="url(#p988dfd629e)" d="M 63.102829 94.985785 
L 62.478436 95.003881 
L 61.4 95.034 
" style="fill:none;stroke:#000000;stroke-width:3;"/>
   </g>
   <g id="LineCollection_3">
    <path clip-path="url(#p988dfd629e)" d="M 122.291885 26.8 
L 121.792433 27.662521 
L 121.558829 28.077551 
L 120.80737 29.355102 
L 120.713997 29.507982 
L 120.045309 30.632653 
L 119.63556 31.289499 
L 119.258189 31.910204 
L 118.557124 33.009512 
L 118.446209 33.187755 
L 117.617507 34.465306 
L 117.478688 34.670366 
L 116.769014 35.742857 
L 116.400252 36.274307 
L 115.893579 37.020408 
L 115.321815 37.823494 
L 114.990789 38.297959 
L 114.243379 39.32 
L 114.060031 39.57551 
L 113.164943 40.765814 
L 113.100477 40.853061 
L 112.112552 42.130612 
L 112.086506 42.162845 
L 111.095424 43.408163 
L 111.00807 43.512928 
L 110.043455 44.685714 
L 109.929634 44.817822 
L 108.954575 45.963265 
L 108.851197 46.07922 
L 107.826283 47.240816 
L 107.772761 47.298745 
L 106.694325 48.477956 
L 106.657752 48.518367 
L 105.615888 49.618351 
L 105.448785 49.795918 
L 104.537452 50.721368 
L 104.192281 51.073469 
L 103.459016 51.78839 
L 102.883346 52.35102 
L 102.38058 52.820743 
L 101.516085 53.628571 
L 101.302143 53.819703 
L 100.223707 54.786496 
L 100.091104 54.906122 
L 99.145271 55.722298 
L 98.608002 56.183673 
L 98.066834 56.628241 
L 97.045051 57.461224 
L 96.988398 57.50541 
L 95.909962 58.354852 
L 95.418444 58.738776 
L 94.831525 59.17757 
L 93.753089 59.974529 
L 93.69706 60.016327 
L 92.674653 60.746656 
L 91.895158 61.293878 
L 91.596217 61.494844 
L 90.51778 62.219948 
L 89.990044 62.571429 
L 89.439344 62.922793 
L 88.360908 63.604171 
L 87.971944 63.84898 
L 87.282471 64.264845 
L 86.204035 64.905547 
L 85.830906 65.126531 
L 85.125599 65.526981 
L 84.047162 66.129825 
L 83.552728 66.404082 
L 82.968726 66.714731 
L 81.89029 67.282326 
L 81.117623 67.681633 
L 80.811853 67.833212 
L 79.733417 68.367971 
L 78.654981 68.88716 
L 78.506252 68.959184 
L 77.576545 69.391317 
L 76.498108 69.880959 
L 75.699793 70.236735 
L 75.419672 70.356583 
L 74.341236 70.818668 
L 73.323044 71.243145 
" style="fill:none;stroke:#000000;stroke-width:3;"/>
   </g>
   <g id="patch_3">
    <path d="M 61.4 152 
L 61.4 26.8 
" style="fill:none;stroke:#000000;stroke-linecap:square;stroke-linejoin:miter;stroke-width:0.8;"/>
   </g>
   <g id="patch_4">
    <path d="M 167.086758 152 
L 167.086758 26.8 
" style="fill:none;stroke:#000000;stroke-linecap:square;stroke-linejoin:miter;stroke-width:0.8;"/>
   </g>
   <g id="patch_5">
    <path d="M 61.4 152 
L 167.086758 152 
" style="fill:none;stroke:#000000;stroke-linecap:square;stroke-linejoin:miter;stroke-width:0.8;"/>
   </g>
   <g id="patch_6">
    <path d="M 61.4 26.8 
L 167.086758 26.8 
" style="fill:none;stroke:#000000;stroke-linecap:square;stroke-linejoin:miter;stroke-width:0.8;"/>
   </g>
   <g id="text_11">
    <g clip-path="url(#p988dfd629e)">
     <!-- -8 -->
     <defs>
      <path d="M 4.890625 31.390625 
L 31.203125 31.390625 
L 31.203125 23.390625 
L 4.890625 23.390625 
z
" id="DejaVuSans-2d"/>
      <path d="M 31.78125 34.625 
Q 24.75 34.625 20.71875 30.859375 
Q 16.703125 27.09375 16.703125 20.515625 
Q 16.703125 13.921875 20.71875 10.15625 
Q 24.75 6.390625 31.78125 6.390625 
Q 38.8125 6.390625 42.859375 10.171875 
Q 46.921875 13.96875 46.921875 20.515625 
Q 46.921875 27.09375 42.890625 30.859375 
Q 38.875 34.625 31.78125 34.625 
z
M 21.921875 38.8125 
Q 15.578125 40.375 12.03125 44.71875 
Q 8.5 49.078125 8.5 55.328125 
Q 8.5 64.0625 14.71875 69.140625 
Q 20.953125 74.21875 31.78125 74.21875 
Q 42.671875 74.21875 48.875 69.140625 
Q 55.078125 64.0625 55.078125 55.328125 
Q 55.078125 49.078125 51.53125 44.71875 
Q 48 40.375 41.703125 38.8125 
Q 48.828125 37.15625 52.796875 32.3125 
Q 56.78125 27.484375 56.78125 20.515625 
Q 56.78125 9.90625 50.3125 4.234375 
Q 43.84375 -1.421875 31.78125 -1.421875 
Q 19.734375 -1.421875 13.25 4.234375 
Q 6.78125 9.90625 6.78125 20.515625 
Q 6.78125 27.484375 10.78125 32.3125 
Q 14.796875 37.15625 21.921875 38.8125 
z
M 18.3125 54.390625 
Q 18.3125 48.734375 21.84375 45.5625 
Q 25.390625 42.390625 31.78125 42.390625 
Q 38.140625 42.390625 41.71875 45.5625 
Q 45.3125 48.734375 45.3125 54.390625 
Q 45.3125 60.0625 41.71875 63.234375 
Q 38.140625 66.40625 31.78125 66.40625 
Q 25.390625 66.40625 21.84375 63.234375 
Q 18.3125 60.0625 18.3125 54.390625 
z
" id="DejaVuSans-38"/>
     </defs>
     <g transform="translate(77.199603 122.30232)rotate(-340.770493)scale(0.1 -0.1)">
      <use xlink:href="#DejaVuSans-2d"/>
      <use x="36.083984" xlink:href="#DejaVuSans-38"/>
     </g>
    </g>
   </g>
   <g id="text_12">
    <g clip-path="url(#p988dfd629e)">
     <!--  0 -->
     <defs>
      <path id="DejaVuSans-20"/>
     </defs>
     <g transform="translate(66.44119 97.638788)rotate(-2.124583)scale(0.1 -0.1)">
      <use xlink:href="#DejaVuSans-20"/>
      <use x="31.787109" xlink:href="#DejaVuSans-30"/>
     </g>
    </g>
   </g>
   <g id="text_13">
    <g clip-path="url(#p988dfd629e)">
     <!--  8 -->
     <g transform="translate(61.93558 78.091731)rotate(-16.671608)scale(0.1 -0.1)">
      <use xlink:href="#DejaVuSans-20"/>
      <use x="31.787109" xlink:href="#DejaVuSans-38"/>
     </g>
    </g>
   </g>
   <g id="text_14">
    <!-- $r=1$ -->
    <defs>
     <path d="M 44.578125 46.390625 
Q 43.21875 47.125 41.453125 47.515625 
Q 39.703125 47.90625 37.703125 47.90625 
Q 30.515625 47.90625 25.140625 42.453125 
Q 19.78125 37.015625 18.015625 27.875 
L 12.5 0 
L 3.515625 0 
L 14.203125 54.6875 
L 23.1875 54.6875 
L 21.484375 46.1875 
Q 25.046875 50.921875 30 53.453125 
Q 34.96875 56 40.578125 56 
Q 42.046875 56 43.453125 55.828125 
Q 44.875 55.671875 46.296875 55.28125 
z
" id="DejaVuSans-Oblique-72"/>
     <path d="M 10.59375 45.40625 
L 73.1875 45.40625 
L 73.1875 37.203125 
L 10.59375 37.203125 
z
M 10.59375 25.484375 
L 73.1875 25.484375 
L 73.1875 17.1875 
L 10.59375 17.1875 
z
" id="DejaVuSans-3d"/>
    </defs>
    <g transform="translate(100.563379 20.8)scale(0.12 -0.12)">
     <use transform="translate(0 0.09375)" xlink:href="#DejaVuSans-Oblique-72"/>
     <use transform="translate(60.595703 0.09375)" xlink:href="#DejaVuSans-3d"/>
     <use transform="translate(163.867188 0.09375)" xlink:href="#DejaVuSans-31"/>
    </g>
   </g>
  </g>
 </g>
 <defs>
  <clipPath id="p988dfd629e">
   <rect height="125.2" width="105.686758" x="61.4" y="26.8"/>
  </clipPath>
 </defs>
</svg>
